<svg width="418" height="107" viewBox="0 0 418 107" fill="none" xmlns="http://www.w3.org/2000/svg">
<path d="M165 2.5H253" stroke="#1DB8CE" stroke-width="5"/>
<path d="M115.883 32.5938C115.87 34.8203 116.202 36.9688 116.879 39.0391C117.556 41.1094 118.572 42.9518 119.926 44.5664C121.28 46.181 122.927 47.3984 124.867 48.2188L121.938 52.2031C119.958 51.3047 118.253 50.0156 116.82 48.3359C115.401 46.6562 114.275 44.6836 113.441 42.418C112.621 44.8919 111.469 47.0469 109.984 48.8828C108.5 50.7057 106.703 52.099 104.594 53.0625L101.586 48.9219C103.591 48.0755 105.284 46.819 106.664 45.1523C108.057 43.4727 109.099 41.5521 109.789 39.3906C110.479 37.2161 110.831 34.9505 110.844 32.5938V27.2812H115.883V32.5938ZM126.781 24.5469H131.82V60.1719H126.781V24.5469ZM152.641 46.6953C155.232 46.6953 157.478 46.9622 159.379 47.4961C161.28 48.0169 162.745 48.7852 163.773 49.8008C164.802 50.8034 165.323 52.0078 165.336 53.4141C165.323 54.7943 164.802 55.9857 163.773 56.9883C162.745 58.0039 161.273 58.7721 159.359 59.293C157.458 59.8268 155.219 60.0938 152.641 60.0938C150.076 60.0938 147.836 59.8268 145.922 59.293C144.021 58.7721 142.556 58.0039 141.527 56.9883C140.499 55.9857 139.984 54.7943 139.984 53.4141C139.984 52.0078 140.499 50.8034 141.527 49.8008C142.556 48.7852 144.021 48.0169 145.922 47.4961C147.836 46.9622 150.076 46.6953 152.641 46.6953ZM136.703 40.4062H148.812V34.1953H153.734V40.4062H168.969V44.4297H136.703V40.4062ZM140.336 26.1484H165.141V29.0391V30.0742C165.141 31.6367 165.076 33.082 164.945 34.4102C164.815 35.7383 164.542 37.125 164.125 38.5703L159.242 38.1016C159.607 36.6432 159.848 35.3151 159.965 34.1172C160.082 32.9062 160.154 31.5521 160.18 30.0547H140.336V26.1484ZM144.945 53.4141C144.932 54.3646 145.59 55.0872 146.918 55.582C148.259 56.0638 150.167 56.3047 152.641 56.3047C155.115 56.3047 157.022 56.0638 158.363 55.582C159.704 55.0872 160.375 54.3646 160.375 53.4141C160.375 52.4375 159.711 51.6953 158.383 51.1875C157.068 50.6667 155.199 50.4062 152.777 50.4062C150.251 50.4062 148.311 50.6602 146.957 51.168C145.603 51.6758 144.932 52.4245 144.945 53.4141ZM212.953 55.9531H180.414V51.8125H212.953V55.9531ZM182.953 27.6719H210.219V31.6562H205.219V42.4375H210.062V46.3438H183.109V42.4375H187.875V31.6562H182.953V27.6719ZM200.297 42.4375V31.6562H192.875V42.4375H200.297ZM247.523 56.1484H214.984V52.0469H228.695V46.6953H218.734V34.7422H238.852V30.8359H218.695V26.8516H243.773V38.6484H223.734V42.6328H244.594V46.6953H233.656V52.0469H247.523V56.1484ZM260.961 33.4922C260.948 36.6693 261.449 39.5664 262.465 42.1836C263.48 44.8008 265.128 46.8385 267.406 48.2969L264.711 52.1641C261.859 50.4453 259.809 47.5872 258.559 43.5898C257.895 45.6862 257.016 47.5352 255.922 49.1367C254.828 50.7383 253.5 52.0078 251.938 52.9453L248.891 49.2734C251.378 47.737 253.201 45.582 254.359 42.8086C255.531 40.0352 256.117 37.0078 256.117 33.7266V27.5938H260.961V33.4922ZM263.656 36.5391H268.266V25.0547H272.914V58.4531H268.266V40.6016H263.656V36.5391ZM275.609 24.5469H280.375V60.0938H275.609V24.5469ZM302.836 29.2344C302.823 31.0052 303.324 32.7435 304.34 34.4492C305.355 36.1419 306.82 37.6133 308.734 38.8633C310.648 40.1003 312.901 40.9401 315.492 41.3828L313.305 45.5234C310.258 44.9245 307.602 43.8112 305.336 42.1836C303.083 40.543 301.371 38.5638 300.199 36.2461C299.001 38.5508 297.27 40.5234 295.004 42.1641C292.751 43.7917 290.115 44.9115 287.094 45.5234L284.945 41.3828C287.484 40.9271 289.704 40.0742 291.605 38.8242C293.507 37.5742 294.965 36.1029 295.98 34.4102C296.996 32.7044 297.51 30.9792 297.523 29.2344V26.6562H302.836V29.2344ZM284.125 51.6172H316.664V55.7188H284.125V51.6172Z" fill="black"/>
<path d="M6.30469 91.0312C6.30469 91.9622 6.44466 92.8737 6.72461 93.7656C7.01107 94.651 7.43099 95.4551 7.98438 96.1777C8.54427 96.8939 9.21484 97.4635 9.99609 97.8867L8.96094 99.2539C8.13411 98.8177 7.42448 98.2057 6.83203 97.418C6.23958 96.6302 5.7806 95.7253 5.45508 94.7031C5.12956 95.7969 4.67057 96.7734 4.07812 97.6328C3.49219 98.4922 2.78906 99.1693 1.96875 99.6641L0.875 98.2578C1.65625 97.8021 2.32357 97.1901 2.87695 96.4219C3.43034 95.6536 3.84701 94.804 4.12695 93.873C4.41341 92.9421 4.5599 91.9948 4.56641 91.0312V90.3281H1.40234V88.8047H4.56641V86.2852H6.30469V88.8047H9.41016V90.3281H6.30469V91.0312ZM8.25781 92.4766H10.7773V86.0312H12.5352V102.281H10.7773V94.0195H8.25781V92.4766ZM14.3125 85.6602H16.0898V103.16H14.3125V85.6602ZM33.3945 103.16H31.6367V85.6602H33.3945V103.16ZM18.2578 98.1016C20.0807 97.0208 21.4642 95.7546 22.4082 94.3027C23.3587 92.8444 23.9154 91.194 24.0781 89.3516H19.1172V87.8281H25.9141C25.9141 88.7201 25.8457 89.5924 25.709 90.4453H28.0625V86.1094H29.8203V102.301H28.0625V96.3438H25.0742V94.8203H28.0625V91.9688H25.3672C24.4622 95.0938 22.457 97.5807 19.3516 99.4297L18.2578 98.1016ZM41.9102 88.7656C41.9036 89.5013 42.0697 90.2174 42.4082 90.9141C42.7467 91.6107 43.235 92.2324 43.873 92.7793C44.5111 93.3197 45.263 93.7396 46.1289 94.0391L45.1719 95.4844C44.2083 95.1523 43.3685 94.6543 42.6523 93.9902C41.9362 93.3262 41.3828 92.5547 40.9922 91.6758C40.6081 92.6523 40.0384 93.5085 39.2832 94.2441C38.5345 94.9733 37.6458 95.5169 36.6172 95.875L35.6602 94.4102C36.5391 94.1107 37.3073 93.6712 37.9648 93.0918C38.6224 92.5059 39.127 91.8385 39.4785 91.0898C39.8366 90.3411 40.0156 89.5729 40.0156 88.7852V88.2969H36.2266V86.793H45.6602V88.2969H41.9102V88.7656ZM38.375 97.0078H50.2305V103.16H48.375V98.5117H38.375V97.0078ZM45.1328 90.1133H48.375V85.6602H50.2305V96.1289H48.375V91.6367H45.1328V90.1133ZM67.4375 98.3945H65.582V85.6797H67.4375V98.3945ZM53.2773 91.1875C53.2773 90.3607 53.4824 89.6185 53.8926 88.9609C54.3027 88.3034 54.8626 87.7891 55.5723 87.418C56.2819 87.0404 57.0729 86.8516 57.9453 86.8516C58.8177 86.8516 59.6055 87.0404 60.3086 87.418C61.0182 87.7891 61.5749 88.3034 61.9785 88.9609C62.3887 89.6185 62.5938 90.3607 62.5938 91.1875C62.5938 92.0273 62.3887 92.7793 61.9785 93.4434C61.5749 94.1009 61.0182 94.6152 60.3086 94.9863C59.6055 95.3574 58.8177 95.543 57.9453 95.543C57.0729 95.543 56.2819 95.3574 55.5723 94.9863C54.8626 94.6152 54.3027 94.1009 53.8926 93.4434C53.4824 92.7793 53.2773 92.0273 53.2773 91.1875ZM55.0938 91.1875C55.0938 91.7279 55.2142 92.2064 55.4551 92.623C55.7025 93.0332 56.0443 93.3522 56.4805 93.5801C56.9167 93.8079 57.4049 93.9219 57.9453 93.9219C58.4792 93.9219 58.9609 93.8079 59.3906 93.5801C59.8203 93.3522 60.1589 93.0332 60.4062 92.623C60.6536 92.2064 60.7773 91.7279 60.7773 91.1875C60.7773 90.6602 60.6536 90.1914 60.4062 89.7812C60.1589 89.3646 59.8203 89.0423 59.3906 88.8145C58.9609 88.5866 58.4792 88.4727 57.9453 88.4727C57.4049 88.4727 56.9167 88.5866 56.4805 88.8145C56.0443 89.0423 55.7025 89.3646 55.4551 89.7812C55.2142 90.1914 55.0938 90.6602 55.0938 91.1875ZM55.9922 97.1055H57.8672V101.285H67.9648V102.789H55.9922V97.1055ZM80.8555 101.695C79.8984 101.695 79.0163 101.484 78.209 101.061C77.4017 100.631 76.7409 99.9115 76.2266 98.9023C75.7188 97.8867 75.4648 96.5521 75.4648 94.8984C75.4648 93.2773 75.6895 91.8874 76.1387 90.7285C76.5879 89.5632 77.2259 88.6777 78.0527 88.0723C78.8861 87.4668 79.8659 87.1641 80.9922 87.1641C81.8451 87.1641 82.61 87.3301 83.2871 87.6621C83.9642 87.9876 84.5143 88.4434 84.9375 89.0293C85.3607 89.6152 85.6276 90.2826 85.7383 91.0312H83.6094C83.4596 90.4323 83.1569 89.9538 82.7012 89.5957C82.252 89.2311 81.6823 89.0456 80.9922 89.0391C80.2695 89.0391 79.6478 89.2441 79.127 89.6543C78.6126 90.0579 78.2188 90.6406 77.9453 91.4023C77.6719 92.1641 77.5352 93.0755 77.5352 94.1367H77.6914C78.0755 93.5378 78.5833 93.0723 79.2148 92.7402C79.8529 92.4017 80.556 92.2292 81.3242 92.2227C82.1576 92.2227 82.9225 92.4245 83.6191 92.8281C84.3158 93.2253 84.8659 93.7786 85.2695 94.4883C85.6732 95.1914 85.875 95.9857 85.875 96.8711C85.875 97.776 85.6634 98.5964 85.2402 99.332C84.8236 100.068 84.2344 100.647 83.4727 101.07C82.7109 101.487 81.8385 101.695 80.8555 101.695ZM77.7891 96.9297C77.7891 97.4505 77.9193 97.9388 78.1797 98.3945C78.4466 98.8503 78.8079 99.2148 79.2637 99.4883C79.7194 99.7617 80.2305 99.8984 80.7969 99.8984C81.3568 99.8984 81.8646 99.765 82.3203 99.498C82.776 99.2246 83.1341 98.8633 83.3945 98.4141C83.6549 97.9583 83.7852 97.457 83.7852 96.9102C83.7852 96.3763 83.6582 95.8848 83.4043 95.4355C83.1504 94.9863 82.7988 94.6315 82.3496 94.3711C81.9069 94.1107 81.4089 93.9805 80.8555 93.9805C80.2956 93.9805 79.7812 94.1172 79.3125 94.3906C78.8438 94.6576 78.4727 95.0189 78.1992 95.4746C77.9323 95.9238 77.7956 96.4089 77.7891 96.9297ZM101.305 90.7188H103.863V92.2617H101.305V98.3164H99.4492V85.6406H101.305V90.7188ZM88.3359 87.1445H96.1484V88.6484H90.1719V93.7461H90.5723C92.1999 93.7461 93.5345 93.707 94.5762 93.6289C95.6243 93.5508 96.6628 93.4076 97.6914 93.1992L97.9062 94.7031C96.7539 94.931 95.5853 95.0872 94.4004 95.1719C93.2155 95.25 91.6562 95.2891 89.7227 95.2891H88.3359V87.1445ZM90.2109 97.0078H92.0664V101.285H102.047V102.789H90.2109V97.0078ZM119.879 103.16H118.121V85.6602H119.879V103.16ZM104.742 98.1016C106.565 97.0208 107.949 95.7546 108.893 94.3027C109.843 92.8444 110.4 91.194 110.562 89.3516H105.602V87.8281H112.398C112.398 88.7201 112.33 89.5924 112.193 90.4453H114.547V86.1094H116.305V102.301H114.547V96.3438H111.559V94.8203H114.547V91.9688H111.852C110.947 95.0938 108.941 97.5807 105.836 99.4297L104.742 98.1016ZM143.023 100.973H127.008V99.4102H143.023V100.973ZM128.375 87.3398H141.559V88.8633H138.883V94.7031H141.5V96.1875H128.414V94.7031H131.031V88.8633H128.375V87.3398ZM137.066 94.7031V88.8633H132.867V94.7031H137.066ZM160.309 101.07H144.293V99.5078H151.344V96.4414H146.246V90.875H156.52V88.4141H146.207V86.8906H158.355V92.3594H148.082V94.918H158.766V96.4414H153.18V99.5078H160.309V101.07ZM166.91 90.4453C166.91 91.3958 167.044 92.3366 167.311 93.2676C167.577 94.1921 167.975 95.0384 168.502 95.8066C169.029 96.5749 169.671 97.1901 170.426 97.6523L169.391 99.0781C168.596 98.6029 167.916 97.9551 167.35 97.1348C166.79 96.3079 166.354 95.3704 166.041 94.3223C165.715 95.4616 165.25 96.4772 164.645 97.3691C164.046 98.2611 163.329 98.9609 162.496 99.4688L161.344 98.082C162.145 97.6003 162.828 96.959 163.395 96.1582C163.967 95.3574 164.397 94.472 164.684 93.502C164.977 92.5254 165.12 91.5326 165.113 90.5234V87.2617H166.91V90.4453ZM168.531 91.8125H171.246V85.9922H173.004V102.301H171.246V93.3555H168.531V91.8125ZM174.859 85.6602H176.637V103.16H174.859V85.6602ZM187.75 88.1406C187.75 89.0651 188.046 89.9635 188.639 90.8359C189.231 91.7083 190.019 92.4538 191.002 93.0723C191.992 93.6842 193.043 94.0911 194.156 94.293L193.297 95.8359C192.359 95.6341 191.464 95.3021 190.611 94.8398C189.758 94.3776 189 93.8145 188.336 93.1504C187.678 92.4798 187.164 91.7409 186.793 90.9336C186.415 91.7344 185.895 92.4701 185.23 93.1406C184.566 93.8047 183.808 94.3678 182.955 94.8301C182.102 95.2923 181.207 95.6276 180.27 95.8359L179.449 94.293C180.549 94.0846 181.585 93.6745 182.555 93.0625C183.531 92.444 184.316 91.7018 184.908 90.8359C185.501 89.9635 185.797 89.0651 185.797 88.1406V86.8125H187.75V88.1406ZM178.863 99.3125H194.879V100.855H178.863V99.3125ZM212.164 101.07H196.148V99.5078H203.199V96.4414H198.102V90.875H208.375V88.4141H198.062V86.8906H210.211V92.3594H199.938V94.918H210.621V96.4414H205.035V99.5078H212.164V101.07ZM223.629 86.4414C224.475 86.4414 225.227 86.5879 225.885 86.8809C226.549 87.1738 227.066 87.584 227.438 88.1113C227.809 88.6387 227.997 89.2474 228.004 89.9375C227.997 90.5234 227.851 91.054 227.564 91.5293C227.285 92.0046 226.891 92.3984 226.383 92.7109C225.875 93.0234 225.283 93.2318 224.605 93.3359V94.8984C226.259 94.8073 227.776 94.6576 229.156 94.4492L229.293 95.8164C227.73 96.0964 226.08 96.2884 224.342 96.3926C222.61 96.4902 220.823 96.5391 218.98 96.5391H218.492L218.297 95.0352H219.176C220.549 95.0352 221.741 95.0156 222.75 94.9766V93.3555C222.053 93.2578 221.441 93.0527 220.914 92.7402C220.393 92.4277 219.99 92.0306 219.703 91.5488C219.417 91.0671 219.273 90.5299 219.273 89.9375C219.273 89.2474 219.456 88.6387 219.82 88.1113C220.191 87.584 220.706 87.1738 221.363 86.8809C222.027 86.5879 222.783 86.4414 223.629 86.4414ZM220.777 97.8867H222.633V101.266H232.711V102.789H220.777V97.8867ZM221.012 89.9375C221.005 90.3411 221.113 90.6992 221.334 91.0117C221.555 91.3242 221.865 91.5651 222.262 91.7344C222.659 91.9036 223.115 91.9883 223.629 91.9883C224.143 91.9883 224.599 91.9036 224.996 91.7344C225.393 91.5651 225.699 91.3275 225.914 91.0215C226.135 90.709 226.246 90.3477 226.246 89.9375C226.246 89.5208 226.135 89.1562 225.914 88.8438C225.699 88.5312 225.393 88.2904 224.996 88.1211C224.599 87.9518 224.143 87.8672 223.629 87.8672C223.115 87.8672 222.659 87.9518 222.262 88.1211C221.865 88.2904 221.555 88.5312 221.334 88.8438C221.113 89.1562 221.005 89.5208 221.012 89.9375ZM230.23 85.6797H232.086V91.4609H234.586V93.0234H232.086V99.0586H230.23V85.6797ZM238.297 89.4492H242.672V86.6953H244.508V88.3945H248.336V85.6602H250.191V96.0703H248.336V93.4727H244.508V95.1328H236.441V86.6953H238.297V89.4492ZM242.672 93.6289V90.9141H238.297V93.6289H242.672ZM238.336 96.9492H250.191V103.16H248.336V98.4336H238.336V96.9492ZM248.336 91.9688V89.8984H244.508V91.9688H248.336ZM266.637 91.3047H269.176V92.8477H266.637V98.7656H264.781V85.6797H266.637V91.3047ZM252.906 87.7109H257.203V85.6602H259.059V87.7109H263.336V89.2148H252.906V87.7109ZM253.863 93.3555C253.863 92.6979 254.039 92.1185 254.391 91.6172C254.749 91.1159 255.25 90.7318 255.895 90.4648C256.539 90.1914 257.281 90.0547 258.121 90.0547C258.954 90.0547 259.69 90.1914 260.328 90.4648C260.973 90.7318 261.471 91.1159 261.822 91.6172C262.18 92.1185 262.359 92.6979 262.359 93.3555C262.359 94.0065 262.18 94.5794 261.822 95.0742C261.471 95.569 260.973 95.9531 260.328 96.2266C259.69 96.5 258.954 96.6367 258.121 96.6367C257.281 96.6367 256.539 96.5 255.895 96.2266C255.25 95.9531 254.749 95.569 254.391 95.0742C254.039 94.5794 253.863 94.0065 253.863 93.3555ZM255.543 97.7305H257.398V101.285H267.379V102.789H255.543V97.7305ZM255.66 93.3555C255.654 93.7266 255.751 94.0521 255.953 94.332C256.155 94.6055 256.438 94.8171 256.803 94.9668C257.174 95.1165 257.604 95.1914 258.092 95.1914C258.847 95.1914 259.456 95.0286 259.918 94.7031C260.38 94.3776 260.615 93.9284 260.621 93.3555C260.615 92.7826 260.383 92.3301 259.928 91.998C259.472 91.6595 258.87 91.487 258.121 91.4805C257.626 91.4805 257.19 91.5586 256.812 91.7148C256.441 91.8646 256.155 92.0827 255.953 92.3691C255.751 92.6491 255.654 92.9779 255.66 93.3555ZM281.48 90.1133C281.474 91.168 281.666 92.2064 282.057 93.2285C282.454 94.2507 283.004 95.1589 283.707 95.9531C284.417 96.7409 285.217 97.3333 286.109 97.7305L284.996 99.1953C284 98.7201 283.118 98.0169 282.35 97.0859C281.581 96.1549 280.989 95.0872 280.572 93.8828C280.162 95.1849 279.563 96.334 278.775 97.3301C277.994 98.3262 277.086 99.0781 276.051 99.5859L274.918 98.0234C275.823 97.6263 276.63 97.0176 277.34 96.1973C278.049 95.3704 278.603 94.4264 279 93.3652C279.404 92.2975 279.605 91.2135 279.605 90.1133V87.125H281.48V90.1133ZM287.691 85.6602H289.547V103.199H287.691V85.6602ZM300.23 96.6562C301.487 96.6562 302.581 96.7865 303.512 97.0469C304.443 97.3008 305.159 97.6719 305.66 98.1602C306.168 98.6484 306.422 99.2279 306.422 99.8984C306.422 100.569 306.168 101.145 305.66 101.627C305.159 102.115 304.443 102.486 303.512 102.74C302.581 102.994 301.487 103.121 300.23 103.121C298.987 103.121 297.9 102.994 296.969 102.74C296.044 102.486 295.331 102.115 294.83 101.627C294.329 101.145 294.078 100.569 294.078 99.8984C294.078 99.2279 294.329 98.6484 294.83 98.1602C295.331 97.6719 296.044 97.3008 296.969 97.0469C297.893 96.7865 298.98 96.6562 300.23 96.6562ZM292.359 93.707H298.746V90.4258H300.562V93.707H308.277V95.2109H292.359V93.707ZM294.215 86.5195H306.285V87.9844V88.502C306.285 89.2572 306.253 89.957 306.188 90.6016C306.129 91.2396 305.999 91.9167 305.797 92.6328L303.98 92.4375C304.189 91.6432 304.319 90.9303 304.371 90.2988C304.423 89.6608 304.449 88.8958 304.449 88.0039H294.215V86.5195ZM295.934 99.8984C295.927 100.27 296.096 100.592 296.441 100.865C296.793 101.132 297.291 101.337 297.936 101.48C298.587 101.624 299.352 101.695 300.23 101.695C301.122 101.695 301.894 101.624 302.545 101.48C303.196 101.337 303.697 101.132 304.049 100.865C304.4 100.592 304.579 100.27 304.586 99.8984C304.579 99.5208 304.4 99.1953 304.049 98.9219C303.697 98.6419 303.196 98.4303 302.545 98.2871C301.894 98.1374 301.122 98.0625 300.23 98.0625C299.352 98.0625 298.587 98.1374 297.936 98.2871C297.291 98.4303 296.793 98.6419 296.441 98.9219C296.096 99.1953 295.927 99.5208 295.934 99.8984ZM317.594 85.9531C318.909 85.9531 320.032 86.0671 320.963 86.2949C321.894 86.5228 322.607 86.8646 323.102 87.3203C323.596 87.7695 323.844 88.3164 323.844 88.9609C323.844 89.612 323.596 90.1654 323.102 90.6211C322.607 91.0703 321.894 91.4121 320.963 91.6465C320.032 91.8743 318.909 91.9883 317.594 91.9883C316.279 91.9883 315.152 91.8743 314.215 91.6465C313.284 91.4121 312.571 91.0703 312.076 90.6211C311.588 90.1654 311.344 89.612 311.344 88.9609C311.344 88.3164 311.588 87.7695 312.076 87.3203C312.571 86.8646 313.284 86.5228 314.215 86.2949C315.152 86.0671 316.279 85.9531 317.594 85.9531ZM309.625 93.0625H325.582V94.5469H309.625V93.0625ZM311.539 95.8945H323.57V99.9961H313.375V101.559H324.059V102.984H311.559V98.6484H321.734V97.2812H311.539V95.8945ZM313.277 88.9609C313.271 89.5013 313.639 89.9115 314.381 90.1914C315.123 90.4648 316.194 90.6016 317.594 90.6016C319.007 90.6016 320.084 90.4648 320.826 90.1914C321.568 89.9115 321.936 89.5013 321.93 88.9609C321.936 88.4401 321.562 88.0365 320.807 87.75C320.058 87.4635 318.987 87.3203 317.594 87.3203C316.207 87.3203 315.139 87.4635 314.391 87.75C313.642 88.0365 313.271 88.4401 313.277 88.9609ZM347.809 100.992H331.793V99.4492H338.844V95.8555H333.629V86.8516H335.484V89.8594H344.078V86.8516H345.914V95.8555H340.68V99.4492H347.809V100.992ZM344.078 94.3516V91.3633H335.484V94.3516H344.078ZM355.191 88.8828C355.185 89.625 355.348 90.3346 355.68 91.0117C356.018 91.6823 356.503 92.278 357.135 92.7988C357.766 93.3132 358.518 93.707 359.391 93.9805L358.512 95.4258C357.529 95.1133 356.676 94.6445 355.953 94.0195C355.237 93.3945 354.684 92.6589 354.293 91.8125C353.909 92.7826 353.339 93.6289 352.584 94.3516C351.829 95.0677 350.934 95.6081 349.898 95.9727L348.941 94.4883C349.833 94.1953 350.611 93.7656 351.275 93.1992C351.939 92.6328 352.447 91.9785 352.799 91.2363C353.15 90.4941 353.329 89.7161 353.336 88.9023V88.4141H349.488V86.9102H358.961V88.4141H355.191V88.8828ZM351.305 99.8398C351.305 99.1628 351.539 98.5801 352.008 98.0918C352.483 97.6035 353.16 97.2324 354.039 96.9785C354.924 96.7246 355.973 96.5977 357.184 96.5977C358.382 96.5977 359.413 96.7246 360.279 96.9785C361.152 97.2324 361.819 97.6035 362.281 98.0918C362.75 98.5801 362.984 99.1628 362.984 99.8398C362.984 100.53 362.75 101.119 362.281 101.607C361.819 102.102 361.152 102.477 360.279 102.73C359.413 102.991 358.382 103.121 357.184 103.121C355.973 103.121 354.924 102.991 354.039 102.73C353.16 102.477 352.483 102.102 352.008 101.607C351.539 101.119 351.305 100.53 351.305 99.8398ZM353.16 99.8398C353.154 100.419 353.499 100.868 354.195 101.188C354.898 101.5 355.875 101.656 357.125 101.656C358.408 101.656 359.404 101.5 360.113 101.188C360.823 100.875 361.174 100.426 361.168 99.8398C361.174 99.2734 360.833 98.8372 360.143 98.5312C359.452 98.2188 358.486 98.0625 357.242 98.0625C355.947 98.0625 354.941 98.2155 354.225 98.5215C353.508 98.8275 353.154 99.2669 353.16 99.8398ZM360.973 85.6602H362.828V89.9961H365.367V91.5195H362.828V96.168H360.973V85.6602ZM380.113 90.0547H382.652V91.6172H380.113V95.8555H378.258V85.6602H380.113V90.0547ZM366.383 87.3789H370.68V85.5039H372.535V87.3789H376.812V88.8633H366.383V87.3789ZM367.34 92.6523C367.34 92.0404 367.516 91.5033 367.867 91.041C368.219 90.5723 368.717 90.2142 369.361 89.9668C370.012 89.7129 370.758 89.5859 371.598 89.5859C372.431 89.5859 373.167 89.7129 373.805 89.9668C374.449 90.2142 374.947 90.5723 375.299 91.041C375.657 91.5033 375.836 92.0404 375.836 92.6523C375.836 93.2643 375.657 93.8047 375.299 94.2734C374.947 94.7357 374.449 95.0938 373.805 95.3477C373.167 95.6016 372.431 95.7253 371.598 95.7188C370.758 95.7253 370.012 95.6048 369.361 95.3574C368.717 95.1035 368.219 94.7422 367.867 94.2734C367.516 93.8047 367.34 93.2643 367.34 92.6523ZM368.922 96.5781H370.758V98.2773H378.258V96.5781H380.113V102.945H368.922V96.5781ZM369.137 92.6523C369.13 92.9974 369.228 93.2969 369.43 93.5508C369.632 93.8047 369.918 94.0033 370.289 94.1465C370.667 94.2832 371.103 94.3516 371.598 94.3516C372.346 94.3451 372.949 94.1921 373.404 93.8926C373.86 93.5866 374.091 93.1732 374.098 92.6523C374.091 92.3203 373.984 92.0273 373.775 91.7734C373.567 91.5195 373.277 91.3242 372.906 91.1875C372.535 91.0443 372.109 90.9727 371.627 90.9727C371.132 90.9727 370.696 91.041 370.318 91.1777C369.941 91.3145 369.648 91.5098 369.439 91.7637C369.231 92.0176 369.13 92.3138 369.137 92.6523ZM378.258 101.461V99.7227H370.758V101.461H378.258ZM398.18 103.16H396.324V85.6602H398.18V103.16ZM384.723 87.3594H386.559V97.1055C389.332 97.0924 392.014 96.8255 394.605 96.3047L394.859 97.8672C393.375 98.1732 391.923 98.3913 390.504 98.5215C389.085 98.6517 387.646 98.7135 386.188 98.707H384.723V87.3594ZM414.566 92.4375H417.379V93.9609H414.566V103.199H412.711V85.6602H414.566V92.4375ZM401.676 87.3398H409.859V88.8438H403.531V97.3008C405.081 97.2943 406.441 97.2487 407.613 97.1641C408.785 97.0794 409.97 96.9297 411.168 96.7148L411.402 98.2773C410.165 98.4987 408.951 98.6484 407.76 98.7266C406.575 98.8047 405.165 98.8438 403.531 98.8438H403.082H401.676V87.3398Z" fill="#868686"/>
</svg>
