<svg width="326" height="167" viewBox="0 0 326 167" fill="none" xmlns="http://www.w3.org/2000/svg">
<rect width="326" height="167" rx="17" fill="white"/>
<path d="M28.1731 55.4688C25.345 55.4688 22.9075 54.7891 20.8606 53.4297C18.8137 52.0547 17.2434 50.0625 16.1497 47.4531C15.0716 44.8438 14.5325 41.7031 14.5325 38.0312C14.5325 34.375 15.0794 31.2422 16.1731 28.6328C17.2669 26.0078 18.8372 24.0156 20.8841 22.6562C22.9309 21.2812 25.3606 20.5938 28.1731 20.5938C30.9856 20.5938 33.4153 21.2812 35.4622 22.6562C37.5091 24.0156 39.0794 26.0078 40.1731 28.6328C41.2669 31.2422 41.8137 34.375 41.8137 38.0312C41.8137 41.7188 41.2669 44.8672 40.1731 47.4766C39.0794 50.0859 37.5091 52.0703 35.4622 53.4297C33.4309 54.7891 31.0012 55.4688 28.1731 55.4688ZM21.7512 38.2422C21.7512 41.9922 22.3216 44.8359 23.4622 46.7734C24.6028 48.6953 26.1731 49.6562 28.1731 49.6562C30.1887 49.6562 31.7669 48.6797 32.9075 46.7266C34.0481 44.7578 34.6106 41.8594 34.595 38.0312C34.595 35.5 34.3372 33.3672 33.8216 31.6328C33.3059 29.8828 32.5637 28.5703 31.595 27.6953C30.6262 26.8203 29.4856 26.375 28.1731 26.3594C26.1575 26.375 24.5794 27.3906 23.4387 29.4062C22.3137 31.4219 21.7512 34.3672 21.7512 38.2422ZM57.7175 55.4688C55.3894 55.4688 53.2878 55.0391 51.4128 54.1797C49.5534 53.3203 48.0847 52.1328 47.0066 50.6172C45.9284 49.0859 45.3737 47.3594 45.3425 45.4375H52.1862C52.2331 46.2969 52.5066 47.0703 53.0066 47.7578C53.5222 48.4297 54.1862 48.9531 54.9987 49.3281C55.8269 49.7031 56.7331 49.8906 57.7175 49.8906C58.8737 49.8906 59.905 49.6406 60.8112 49.1406C61.7331 48.625 62.4441 47.9141 62.9441 47.0078C63.4597 46.1016 63.7175 45.0625 63.7175 43.8906C63.7175 42.7031 63.4597 41.6484 62.9441 40.7266C62.4284 39.7891 61.7019 39.0625 60.7644 38.5469C59.8425 38.0156 58.7956 37.75 57.6237 37.75C55.0769 37.75 53.2956 38.7031 52.28 40.6094H45.905L47.7331 21.0625H68.6394V26.8281H53.5456L52.6081 35.4062H52.8894C53.5144 34.5469 54.4441 33.8594 55.6784 33.3438C56.9128 32.8125 58.2644 32.5469 59.7331 32.5469C61.78 32.5469 63.6237 33.0234 65.2644 33.9766C66.9206 34.9297 68.2175 36.2578 69.155 37.9609C70.0925 39.6641 70.5612 41.5781 70.5612 43.7031C70.5612 45.9688 70.0222 48 68.9441 49.7969C67.8659 51.5781 66.3503 52.9688 64.3972 53.9688C62.4597 54.9688 60.2331 55.4688 57.7175 55.4688Z" fill="#D8DFE4"/>
<path d="M84.293 79.3203C84.2865 80.3815 84.4525 81.4167 84.791 82.4258C85.1361 83.4349 85.6309 84.3398 86.2754 85.1406C86.9264 85.9349 87.6979 86.5469 88.5898 86.9766L87.2617 88.7148C86.3242 88.2396 85.5104 87.5625 84.8203 86.6836C84.1367 85.8047 83.6029 84.7891 83.2188 83.6367C82.8216 84.8672 82.2617 85.9544 81.5391 86.8984C80.8229 87.8359 79.9701 88.5521 78.9805 89.0469L77.6523 87.3086C78.5703 86.8724 79.3646 86.2376 80.0352 85.4043C80.7122 84.5645 81.2266 83.6172 81.5781 82.5625C81.9362 81.5013 82.1185 80.4206 82.125 79.3203V76.5078H84.293V79.3203ZM89.6445 75.082H91.8125V81.9961H94.5273V83.8516H91.8125V92.7383H89.6445V75.082ZM111.363 85.3164H95.2695V83.5781H99.0195V81.3418C98.3424 81.0553 97.8249 80.694 97.4668 80.2578C97.1087 79.8151 96.9297 79.3073 96.9297 78.7344C96.9297 78.0378 97.1868 77.4388 97.7012 76.9375C98.222 76.4297 98.9609 76.0423 99.918 75.7754C100.875 75.5085 102.001 75.375 103.297 75.375C104.592 75.375 105.715 75.5085 106.666 75.7754C107.623 76.0423 108.362 76.4297 108.883 76.9375C109.404 77.4388 109.664 78.0378 109.664 78.7344C109.658 79.3073 109.472 79.8151 109.107 80.2578C108.749 80.7005 108.232 81.0618 107.555 81.3418V83.5781H111.363V85.3164ZM97.1445 89.5352C97.1445 88.8646 97.3887 88.2949 97.877 87.8262C98.3652 87.3509 99.0684 86.9928 99.9863 86.752C100.911 86.5046 102.014 86.3841 103.297 86.3906C104.56 86.3841 105.647 86.5046 106.559 86.752C107.477 86.9928 108.18 87.3509 108.668 87.8262C109.163 88.2949 109.41 88.8646 109.41 89.5352C109.41 90.2122 109.166 90.7852 108.678 91.2539C108.189 91.7292 107.486 92.0872 106.568 92.3281C105.657 92.5755 104.566 92.6992 103.297 92.6992C102.008 92.6992 100.904 92.5755 99.9863 92.3281C99.0684 92.0872 98.3652 91.7292 97.877 91.2539C97.3887 90.7852 97.1445 90.2122 97.1445 89.5352ZM99.1953 78.7344C99.1888 79.2617 99.5339 79.6686 100.23 79.9551C100.934 80.235 101.933 80.375 103.229 80.375C104.57 80.375 105.602 80.235 106.324 79.9551C107.053 79.6751 107.418 79.2682 107.418 78.7344C107.418 78.2005 107.06 77.7871 106.344 77.4941C105.634 77.2012 104.638 77.0547 103.355 77.0547C102.021 77.0547 100.992 77.2012 100.27 77.4941C99.5469 77.7806 99.1888 78.194 99.1953 78.7344ZM99.3516 89.5352C99.3451 90.0299 99.6738 90.4076 100.338 90.668C101.002 90.9284 101.965 91.0586 103.229 91.0586C104.524 91.0586 105.514 90.9316 106.197 90.6777C106.887 90.4173 107.236 90.0365 107.242 89.5352C107.236 89.0469 106.894 88.6758 106.217 88.4219C105.54 88.168 104.566 88.0378 103.297 88.0312C102.008 88.0378 101.025 88.168 100.348 88.4219C99.6771 88.6758 99.3451 89.0469 99.3516 89.5352ZM105.387 83.5781V81.8984C104.729 81.9896 104.033 82.0352 103.297 82.0352C102.561 82.0352 101.865 81.9896 101.207 81.8984V83.5781H105.387ZM125.484 85.9805C126.702 85.9805 127.753 86.1139 128.639 86.3809C129.524 86.6478 130.204 87.0319 130.68 87.5332C131.161 88.0345 131.402 88.6367 131.402 89.3398C131.402 90.0495 131.161 90.6582 130.68 91.166C130.204 91.6738 129.524 92.0612 128.639 92.3281C127.753 92.6016 126.702 92.7383 125.484 92.7383C124.254 92.7383 123.189 92.6016 122.291 92.3281C121.399 92.0612 120.712 91.6738 120.23 91.166C119.749 90.6582 119.508 90.0495 119.508 89.3398C119.508 88.6432 119.749 88.0443 120.23 87.543C120.712 87.0352 121.402 86.6478 122.301 86.3809C123.199 86.1139 124.26 85.9805 125.484 85.9805ZM117.906 76.1953H120.055V78.5781H124.176V76.1953H126.324V84.4375H117.906V76.1953ZM124.176 82.7188V80.2773H120.055V82.7188H124.176ZM121.676 89.3398C121.676 89.8802 122.001 90.2969 122.652 90.5898C123.303 90.8763 124.228 91.0195 125.426 91.0195C126.656 91.0195 127.6 90.8763 128.258 90.5898C128.922 90.3034 129.254 89.8867 129.254 89.3398C129.254 88.7995 128.928 88.3893 128.277 88.1094C127.633 87.8294 126.702 87.6862 125.484 87.6797C124.26 87.6862 123.32 87.8294 122.662 88.1094C122.005 88.3893 121.676 88.7995 121.676 89.3398ZM129.059 75.082H131.227V79.3008H133.688V81.1172H131.227V85.5508H129.059V75.082ZM137.555 78.4023H141.5V76H143.648V79.2227H147.203V75.082H149.371V84.7305H147.203V81.0195H143.648V84.1836H135.387V76H137.555V78.4023ZM141.5 82.4258V80.082H137.555V82.4258H141.5ZM137.73 85.5117H139.898V87.3086H147.203V85.5117H149.371V92.4844H137.73V85.5117ZM147.203 90.7266V88.9883H139.898V90.7266H147.203ZM170.543 80.2578H173.004V82.0547H170.543V87.9922H168.375V75.082H170.543V80.2578ZM156.812 80.707C156.812 79.8542 157.021 79.0892 157.438 78.4121C157.854 77.735 158.424 77.2077 159.146 76.8301C159.876 76.446 160.686 76.2539 161.578 76.2539C162.464 76.2539 163.268 76.446 163.99 76.8301C164.719 77.2077 165.292 77.735 165.709 78.4121C166.126 79.0892 166.337 79.8542 166.344 80.707C166.337 81.5469 166.122 82.3053 165.699 82.9824C165.283 83.6595 164.713 84.1901 163.99 84.5742C163.268 84.9518 162.464 85.1406 161.578 85.1406C160.693 85.1406 159.885 84.9518 159.156 84.5742C158.427 84.1901 157.854 83.6595 157.438 82.9824C157.021 82.3053 156.812 81.5469 156.812 80.707ZM158.941 80.707C158.941 81.2018 159.055 81.6413 159.283 82.0254C159.518 82.4095 159.837 82.7057 160.24 82.9141C160.644 83.1224 161.09 83.2266 161.578 83.2266C162.073 83.2266 162.519 83.1224 162.916 82.9141C163.32 82.7057 163.635 82.4128 163.863 82.0352C164.098 81.651 164.215 81.2083 164.215 80.707C164.215 80.1992 164.098 79.7533 163.863 79.3691C163.635 78.9785 163.32 78.679 162.916 78.4707C162.519 78.2559 162.073 78.1484 161.578 78.1484C161.083 78.1484 160.634 78.2559 160.23 78.4707C159.833 78.679 159.518 78.9785 159.283 79.3691C159.055 79.7533 158.941 80.1992 158.941 80.707ZM159.234 86.6445H161.402V90.6289H171.246V92.3867H159.234V86.6445ZM189.059 92.7383H186.969V83.8125H185.016V91.8398H182.984V75.4141H185.016V82.0352H186.969V75.082H189.059V92.7383ZM174.664 77.1133H176.852V86.4297C178.577 86.3971 180.257 86.2214 181.891 85.9023L182.105 87.7969C180.035 88.1615 177.945 88.3438 175.836 88.3438H174.664V77.1133Z" fill="black"/>
<path d="M87.2402 114.4V114.551C87.2311 115.558 87.1992 116.458 87.1445 117.251C87.0944 118.044 86.9759 118.962 86.7891 120.006L85.6953 119.883C85.8366 119.163 85.9391 118.486 86.0029 117.853C86.0713 117.215 86.1123 116.652 86.126 116.164C86.1442 115.676 86.1556 115.089 86.1602 114.4V114.072H78.668V113.184H87.2402V114.4ZM77.4922 121.496H81.8398V117.148H82.8926V121.496H88.5664V122.385H77.4922V121.496ZM99.9141 119.131H98.8887V115.918H97.2344V119.049H96.209V112.199H97.2344V115.029H98.8887V111.967H99.9141V119.131ZM89.6602 118.461C90.918 117.951 91.8978 117.294 92.5996 116.492C93.306 115.686 93.7116 114.77 93.8164 113.744H90.1523V112.855H94.9238C94.9193 114.305 94.516 115.572 93.7139 116.656C92.9118 117.741 91.7383 118.611 90.1934 119.268L89.6602 118.461ZM91.7109 119.691H99.9141V124.107H98.8613V120.566H91.7109V119.691ZM112.109 124.107H111.07V111.953H112.109V124.107ZM101.842 117.203C101.842 116.351 101.949 115.608 102.163 114.975C102.382 114.337 102.687 113.844 103.079 113.498C103.471 113.152 103.929 112.979 104.453 112.979C104.941 112.979 105.374 113.131 105.752 113.437C106.13 113.737 106.431 114.168 106.654 114.729C106.882 115.285 107.019 115.941 107.064 116.697H108.637V112.213H109.662V123.492H108.637V117.586H107.071C107.039 118.365 106.91 119.047 106.682 119.63C106.458 120.209 106.155 120.653 105.772 120.963C105.39 121.273 104.95 121.428 104.453 121.428C103.929 121.428 103.471 121.257 103.079 120.915C102.687 120.569 102.382 120.076 102.163 119.438C101.949 118.8 101.842 118.055 101.842 117.203ZM102.854 117.203C102.849 117.855 102.91 118.422 103.038 118.905C103.17 119.388 103.357 119.76 103.599 120.02C103.845 120.279 104.13 120.407 104.453 120.402C104.777 120.407 105.059 120.282 105.301 120.026C105.547 119.767 105.736 119.397 105.868 118.919C106 118.44 106.066 117.88 106.066 117.237C106.066 116.576 106 116.002 105.868 115.515C105.741 115.027 105.554 114.651 105.308 114.387C105.066 114.122 104.781 113.99 104.453 113.99C104.125 113.99 103.84 114.122 103.599 114.387C103.357 114.646 103.17 115.018 103.038 115.501C102.91 115.984 102.849 116.551 102.854 117.203ZM124.195 124.107H123.17V111.953H124.195V124.107ZM113.805 120.703C115.099 119.938 116.09 119.021 116.778 117.955C117.471 116.884 117.87 115.699 117.975 114.4H114.324V113.512H119.041C119.041 114.747 118.838 115.891 118.433 116.943H120.613V112.281H121.639V123.492H120.613V117.818H118.036C117.271 119.295 116.07 120.516 114.434 121.482L113.805 120.703ZM139.795 124.107H138.77V111.953H139.795V124.107ZM129.254 120.867C129.805 120.539 130.284 120.09 130.689 119.521C131.095 118.946 131.405 118.306 131.619 117.6C131.833 116.889 131.938 116.164 131.934 115.426V114.277H129.596V113.389H135.201V114.277H132.973V115.426C132.973 116.132 133.075 116.82 133.28 117.49C133.49 118.16 133.791 118.766 134.183 119.309C134.579 119.851 135.051 120.279 135.598 120.594L134.941 121.387C134.354 121.036 133.85 120.55 133.431 119.931C133.011 119.306 132.692 118.6 132.474 117.812C132.25 118.668 131.92 119.434 131.482 120.108C131.049 120.778 130.535 121.3 129.938 121.674L129.254 120.867ZM134.271 116.342H136.322V112.254H137.334V123.479H136.322V117.217H134.271V116.342ZM152.578 118.721H147.561V120.156H151.225V123.943H142.857V120.156H146.508V118.721H141.504V117.832H152.578V118.721ZM142.543 112.35H151.525V113.238H149.652V115.795H151.484V116.684H142.584V115.795H144.416V113.238H142.543V112.35ZM150.172 123.068V121.004H143.924V123.068H150.172ZM148.586 115.795V113.238H145.482V115.795H148.586ZM161.191 115.221C161.191 115.918 161.33 116.615 161.608 117.312C161.891 118.005 162.271 118.625 162.75 119.172C163.233 119.719 163.762 120.133 164.336 120.416L163.68 121.277C163.01 120.931 162.408 120.418 161.875 119.739C161.346 119.06 160.948 118.297 160.679 117.449C160.41 118.347 160.004 119.158 159.462 119.883C158.92 120.603 158.307 121.145 157.623 121.51L156.939 120.648C157.527 120.361 158.063 119.931 158.546 119.356C159.034 118.782 159.419 118.133 159.701 117.408C159.988 116.679 160.134 115.95 160.139 115.221V113.006H161.191V115.221ZM165.457 111.953H166.523V116.889H168.561V117.818H166.523V124.107H165.457V111.953ZM180.291 118.857H169.217V117.969H171.965V116.253C171.473 116.062 171.097 115.813 170.837 115.508C170.577 115.202 170.447 114.847 170.447 114.441C170.447 113.972 170.62 113.569 170.967 113.231C171.313 112.89 171.808 112.63 172.45 112.452C173.097 112.274 173.865 112.186 174.754 112.186C175.633 112.186 176.395 112.274 177.037 112.452C177.684 112.63 178.181 112.89 178.527 113.231C178.874 113.569 179.047 113.972 179.047 114.441C179.042 114.842 178.91 115.198 178.65 115.508C178.395 115.813 178.026 116.062 177.543 116.253V117.969H180.291V118.857ZM170.557 121.934C170.557 121.473 170.721 121.084 171.049 120.765C171.382 120.441 171.862 120.197 172.491 120.033C173.12 119.869 173.874 119.787 174.754 119.787C175.62 119.787 176.365 119.869 176.989 120.033C177.618 120.197 178.099 120.441 178.432 120.765C178.764 121.084 178.933 121.473 178.938 121.934C178.933 122.394 178.764 122.784 178.432 123.103C178.099 123.422 177.62 123.663 176.996 123.827C176.372 123.996 175.624 124.08 174.754 124.08C173.874 124.08 173.12 123.996 172.491 123.827C171.862 123.663 171.382 123.422 171.049 123.103C170.721 122.784 170.557 122.394 170.557 121.934ZM171.555 114.441C171.555 114.733 171.682 114.986 171.938 115.2C172.193 115.41 172.56 115.572 173.038 115.686C173.521 115.795 174.093 115.85 174.754 115.85C175.41 115.85 175.978 115.795 176.456 115.686C176.935 115.572 177.304 115.41 177.563 115.2C177.823 114.986 177.953 114.733 177.953 114.441C177.953 114.154 177.823 113.906 177.563 113.696C177.304 113.482 176.932 113.318 176.449 113.204C175.971 113.09 175.406 113.033 174.754 113.033C174.093 113.033 173.521 113.09 173.038 113.204C172.56 113.318 172.193 113.48 171.938 113.689C171.682 113.899 171.555 114.15 171.555 114.441ZM171.65 121.934C171.646 122.207 171.764 122.442 172.006 122.638C172.252 122.834 172.605 122.984 173.065 123.089C173.526 123.194 174.075 123.246 174.713 123.246C175.36 123.246 175.918 123.194 176.388 123.089C176.862 122.989 177.224 122.84 177.475 122.645C177.73 122.444 177.857 122.207 177.857 121.934C177.857 121.66 177.732 121.425 177.481 121.229C177.231 121.029 176.873 120.876 176.408 120.771C175.948 120.667 175.396 120.612 174.754 120.607C174.107 120.612 173.549 120.667 173.079 120.771C172.614 120.876 172.259 121.029 172.013 121.229C171.767 121.425 171.646 121.66 171.65 121.934ZM176.477 117.969V116.54C175.966 116.636 175.392 116.684 174.754 116.684C174.13 116.684 173.555 116.638 173.031 116.547V117.969H176.477ZM182.998 114.469H186.389V112.582H187.441V114.947H190.312V111.953H191.393V118.598H190.312V115.85H187.441V118.146H181.932V112.582H182.998V114.469ZM186.389 117.271V115.316H182.998V117.271H186.389ZM183.559 119.186H184.639V120.676H190.312V119.186H191.379V123.943H183.559V119.186ZM190.312 123.055V121.537H184.639V123.055H190.312ZM200.156 113.936C200.152 114.724 200.129 115.48 200.088 116.205C200.047 116.93 199.951 117.782 199.801 118.762L198.721 118.666C198.958 117.217 199.076 115.799 199.076 114.414V114.182H193.977V113.307H200.156V113.936ZM193.293 120.539C194.455 120.53 195.33 120.519 195.918 120.505V116.779H196.971V120.471C198.47 120.416 199.801 120.32 200.963 120.184L201.018 120.99C199.135 121.282 196.798 121.428 194.004 121.428H193.43L193.293 120.539ZM201.729 111.953H202.795V117.039H204.764V117.969H202.795V124.107H201.729V111.953ZM215.77 113.539C215.765 114.173 215.744 114.758 215.708 115.296C215.672 115.834 215.587 116.447 215.455 117.135L214.375 117.053C214.503 116.415 214.587 115.847 214.628 115.351C214.674 114.854 214.701 114.337 214.71 113.799H209.713V112.896H215.77V113.539ZM208.961 118.27C209.923 118.27 210.793 118.258 211.572 118.235V115.59H212.639V118.201C214.206 118.137 215.542 118.028 216.645 117.873L216.713 118.666C215.578 118.862 214.38 118.992 213.117 119.056C211.855 119.119 210.506 119.154 209.07 119.158L208.961 118.27ZM210.834 120.279H211.914V122.945H218.955V123.848H210.834V120.279ZM217.465 111.953H218.559V115.918H220.336V116.834H218.559V121.1H217.465V111.953ZM231.164 124.135H230.098V111.953H231.164V124.135ZM221.812 113.088H227.473V117.408H222.934V120.279C224.005 120.284 225.009 120.254 225.948 120.19C226.892 120.127 227.883 120.01 228.922 119.842L229.031 120.744C227.974 120.908 226.962 121.022 225.996 121.086C225.03 121.15 223.982 121.182 222.852 121.182H221.84V116.533H226.393V113.977H221.812V113.088ZM242.348 119.596C243.177 119.596 243.893 119.685 244.494 119.862C245.096 120.035 245.556 120.291 245.875 120.628C246.194 120.965 246.354 121.368 246.354 121.838C246.354 122.312 246.194 122.717 245.875 123.055C245.556 123.396 245.096 123.656 244.494 123.834C243.893 124.012 243.177 124.103 242.348 124.107C241.514 124.103 240.794 124.012 240.188 123.834C239.586 123.656 239.123 123.396 238.8 123.055C238.476 122.717 238.314 122.312 238.314 121.838C238.314 121.368 238.476 120.965 238.8 120.628C239.123 120.291 239.588 120.035 240.194 119.862C240.8 119.685 241.518 119.596 242.348 119.596ZM237.262 112.719H238.314V114.578H241.855V112.719H242.922V118.324H237.262V112.719ZM241.855 117.449V115.426H238.314V117.449H241.855ZM239.395 121.838C239.39 122.125 239.506 122.373 239.743 122.583C239.98 122.793 240.322 122.952 240.769 123.062C241.215 123.175 241.742 123.232 242.348 123.232C242.958 123.232 243.485 123.175 243.927 123.062C244.373 122.952 244.715 122.793 244.952 122.583C245.194 122.373 245.314 122.125 245.314 121.838C245.314 121.551 245.194 121.305 244.952 121.1C244.715 120.89 244.373 120.73 243.927 120.621C243.485 120.507 242.958 120.448 242.348 120.443C241.737 120.448 241.208 120.507 240.762 120.621C240.32 120.73 239.98 120.89 239.743 121.1C239.506 121.305 239.39 121.551 239.395 121.838ZM245.178 111.953H246.244V115.016H248.076V115.932H246.244V119.268H245.178V111.953ZM250.523 114.469H253.914V112.582H254.967V114.947H257.838V111.953H258.918V118.598H257.838V115.85H254.967V118.146H249.457V112.582H250.523V114.469ZM253.914 117.271V115.316H250.523V117.271H253.914ZM251.084 119.186H252.164V120.676H257.838V119.186H258.904V123.943H251.084V119.186ZM257.838 123.055V121.537H252.164V123.055H257.838ZM266.479 112.172C267.376 112.172 268.146 112.254 268.789 112.418C269.432 112.577 269.922 112.814 270.259 113.129C270.601 113.439 270.771 113.817 270.771 114.264C270.771 114.719 270.601 115.107 270.259 115.426C269.922 115.745 269.432 115.986 268.789 116.15C268.151 116.31 267.381 116.392 266.479 116.396C265.572 116.392 264.797 116.31 264.154 116.15C263.512 115.986 263.02 115.745 262.678 115.426C262.34 115.107 262.172 114.719 262.172 114.264C262.172 113.817 262.34 113.439 262.678 113.129C263.02 112.814 263.512 112.577 264.154 112.418C264.801 112.254 265.576 112.172 266.479 112.172ZM260.941 117.217H272.016V118.092H260.941V117.217ZM262.281 119.145H270.594V121.865H263.375V123.123H270.963V123.971H262.309V121.072H269.541V119.965H262.281V119.145ZM263.293 114.264C263.288 114.683 263.564 115.007 264.12 115.234C264.676 115.462 265.462 115.576 266.479 115.576C267.49 115.576 268.274 115.465 268.83 115.241C269.391 115.013 269.673 114.688 269.678 114.264C269.678 113.999 269.55 113.771 269.295 113.58C269.044 113.389 268.677 113.241 268.194 113.136C267.716 113.031 267.144 112.979 266.479 112.979C265.809 112.979 265.234 113.031 264.756 113.136C264.277 113.241 263.913 113.389 263.662 113.58C263.411 113.771 263.288 113.999 263.293 114.264ZM280.615 113.922C280.615 114.464 280.743 114.988 280.998 115.494C281.258 115.995 281.616 116.438 282.071 116.82C282.532 117.203 283.053 117.495 283.637 117.695L283.049 118.543C282.379 118.297 281.789 117.935 281.278 117.456C280.772 116.973 280.385 116.412 280.116 115.774C279.856 116.494 279.465 117.123 278.94 117.661C278.416 118.199 277.799 118.607 277.088 118.885L276.514 118.023C277.115 117.8 277.646 117.479 278.106 117.06C278.567 116.64 278.924 116.155 279.18 115.604C279.435 115.048 279.562 114.46 279.562 113.84V112.582H280.615V113.922ZM278.127 121.865C278.127 121.405 278.289 121.011 278.612 120.683C278.936 120.35 279.401 120.097 280.007 119.924C280.613 119.751 281.331 119.664 282.16 119.664C282.99 119.664 283.703 119.751 284.3 119.924C284.901 120.097 285.362 120.35 285.681 120.683C286.004 121.011 286.166 121.405 286.166 121.865C286.166 122.335 286.007 122.733 285.688 123.062C285.368 123.394 284.908 123.647 284.307 123.82C283.705 123.993 282.99 124.08 282.16 124.08C281.326 124.08 280.606 123.993 280 123.82C279.398 123.647 278.936 123.394 278.612 123.062C278.289 122.729 278.127 122.33 278.127 121.865ZM279.207 121.865C279.202 122.148 279.319 122.392 279.556 122.597C279.793 122.802 280.132 122.959 280.574 123.068C281.021 123.178 281.549 123.232 282.16 123.232C282.771 123.232 283.297 123.178 283.739 123.068C284.186 122.959 284.528 122.802 284.765 122.597C285.006 122.392 285.127 122.148 285.127 121.865C285.127 121.592 285.006 121.355 284.765 121.154C284.528 120.949 284.186 120.794 283.739 120.689C283.293 120.58 282.766 120.525 282.16 120.525C281.554 120.525 281.028 120.58 280.581 120.689C280.134 120.799 279.793 120.954 279.556 121.154C279.319 121.355 279.202 121.592 279.207 121.865ZM284.99 111.953H286.057V115.125H287.889V116.027H286.057V119.35H284.99V111.953ZM292.264 115.412C292.264 116.064 292.366 116.713 292.571 117.36C292.776 118.003 293.07 118.591 293.453 119.124C293.84 119.657 294.296 120.079 294.82 120.389L294.205 121.223C293.631 120.876 293.134 120.398 292.715 119.787C292.3 119.176 291.983 118.491 291.765 117.729C291.537 118.554 291.202 119.295 290.76 119.951C290.318 120.607 289.798 121.118 289.201 121.482L288.518 120.676C289.064 120.357 289.543 119.922 289.953 119.37C290.363 118.814 290.678 118.197 290.896 117.518C291.115 116.839 291.225 116.15 291.225 115.453V113.102H292.264V115.412ZM293.48 116.314H295.545V112.213H296.557V123.492H295.545V117.23H293.48V116.314ZM298.033 111.953H299.072V124.107H298.033V111.953ZM87.5137 141.107H86.4336V128.953H87.5137V141.107ZM77.7656 130.936H80.8965V129.076H81.9766V130.936H85.1211V131.811H77.7656V130.936ZM78.4492 135.598C78.4492 135.06 78.5768 134.579 78.832 134.155C79.0918 133.731 79.4495 133.401 79.9053 133.164C80.3656 132.927 80.8874 132.809 81.4707 132.809C82.0449 132.809 82.5599 132.927 83.0156 133.164C83.4759 133.401 83.8337 133.731 84.0889 134.155C84.3486 134.579 84.4785 135.06 84.4785 135.598C84.4785 136.14 84.3486 136.623 84.0889 137.047C83.8337 137.466 83.4759 137.794 83.0156 138.031C82.5599 138.268 82.0449 138.387 81.4707 138.387C80.8874 138.387 80.3656 138.268 79.9053 138.031C79.4495 137.794 79.0918 137.466 78.832 137.047C78.5768 136.623 78.4492 136.14 78.4492 135.598ZM79.4609 135.598C79.4609 135.962 79.5475 136.288 79.7207 136.575C79.8939 136.858 80.1331 137.079 80.4385 137.238C80.7438 137.398 81.0879 137.475 81.4707 137.471C81.849 137.475 82.1885 137.398 82.4893 137.238C82.7946 137.079 83.0316 136.858 83.2002 136.575C83.3688 136.288 83.4531 135.962 83.4531 135.598C83.4531 135.238 83.3688 134.914 83.2002 134.627C83.0316 134.335 82.7946 134.11 82.4893 133.95C82.1885 133.791 81.849 133.711 81.4707 133.711C81.0879 133.711 80.7438 133.791 80.4385 133.95C80.1331 134.11 79.8939 134.333 79.7207 134.62C79.5475 134.907 79.4609 135.233 79.4609 135.598ZM102.607 132.658H104.439V133.561H102.607V137.922H101.541V128.953H102.607V132.658ZM93.3379 132.809C93.3379 132.23 93.4746 131.715 93.748 131.264C94.026 130.808 94.4066 130.452 94.8896 130.197C95.3773 129.942 95.9219 129.814 96.5234 129.814C97.125 129.814 97.6673 129.942 98.1504 130.197C98.638 130.452 99.0208 130.808 99.2988 131.264C99.5768 131.715 99.7181 132.23 99.7227 132.809C99.7181 133.387 99.5768 133.905 99.2988 134.36C99.0208 134.812 98.638 135.165 98.1504 135.42C97.6673 135.675 97.125 135.803 96.5234 135.803C95.9264 135.803 95.3841 135.675 94.8965 135.42C94.4089 135.165 94.026 134.809 93.748 134.354C93.4746 133.898 93.3379 133.383 93.3379 132.809ZM94.3906 132.809C94.3906 133.201 94.484 133.554 94.6709 133.868C94.8577 134.178 95.113 134.422 95.4365 134.6C95.7646 134.773 96.127 134.859 96.5234 134.859C96.929 134.859 97.2936 134.773 97.6172 134.6C97.9453 134.422 98.2028 134.178 98.3896 133.868C98.5765 133.554 98.6699 133.201 98.6699 132.809C98.6699 132.412 98.5765 132.059 98.3896 131.749C98.2028 131.439 97.9453 131.198 97.6172 131.024C97.2936 130.847 96.929 130.758 96.5234 130.758C96.127 130.758 95.7646 130.847 95.4365 131.024C95.113 131.198 94.8577 131.441 94.6709 131.756C94.484 132.066 94.3906 132.417 94.3906 132.809ZM95.0059 136.992H96.0586V139.945H103.168V140.848H95.0059V136.992ZM115.582 141.107H114.529V134.818H112.779V140.479H111.768V129.227H112.779V133.902H114.529V128.953H115.582V141.107ZM105.82 130.443H106.887V137.006C108.281 136.997 109.607 136.865 110.865 136.609L111.002 137.566C110.2 137.712 109.441 137.815 108.726 137.874C108.015 137.933 107.297 137.963 106.572 137.963H105.82V130.443ZM126.711 133.971H128.748V134.859H126.711V141.107H125.645V128.953H126.711V133.971ZM117.236 130.908H120.367V129.104H121.434V130.908H124.469V131.797H117.236V130.908ZM117.934 135.598C117.934 135.06 118.061 134.579 118.316 134.155C118.572 133.731 118.925 133.401 119.376 133.164C119.832 132.927 120.344 132.809 120.914 132.809C121.479 132.809 121.987 132.927 122.438 133.164C122.89 133.401 123.243 133.731 123.498 134.155C123.758 134.579 123.89 135.06 123.895 135.598C123.89 136.14 123.758 136.623 123.498 137.047C123.243 137.466 122.89 137.794 122.438 138.031C121.987 138.268 121.479 138.387 120.914 138.387C120.344 138.387 119.832 138.268 119.376 138.031C118.925 137.794 118.572 137.466 118.316 137.047C118.061 136.623 117.934 136.14 117.934 135.598ZM118.959 135.598C118.959 135.962 119.041 136.288 119.205 136.575C119.374 136.858 119.606 137.079 119.902 137.238C120.203 137.398 120.54 137.475 120.914 137.471C121.283 137.475 121.616 137.398 121.912 137.238C122.208 137.079 122.441 136.858 122.609 136.575C122.778 136.288 122.865 135.962 122.869 135.598C122.865 135.238 122.778 134.914 122.609 134.627C122.441 134.335 122.208 134.11 121.912 133.95C121.616 133.791 121.283 133.711 120.914 133.711C120.54 133.711 120.203 133.791 119.902 133.95C119.606 134.11 119.374 134.335 119.205 134.627C119.041 134.914 118.959 135.238 118.959 135.598ZM132.672 129.896C133.228 129.901 133.725 130.058 134.162 130.368C134.604 130.674 134.957 131.109 135.222 131.674H138.414V128.953H139.48V141.135H138.414V136.418H135.297C135.042 137.038 134.686 137.519 134.23 137.86C133.775 138.198 133.255 138.364 132.672 138.359C132.075 138.359 131.544 138.188 131.079 137.847C130.619 137.5 130.261 137.008 130.006 136.37C129.751 135.732 129.623 134.987 129.623 134.135C129.623 133.287 129.751 132.544 130.006 131.906C130.261 131.264 130.619 130.769 131.079 130.423C131.544 130.072 132.075 129.896 132.672 129.896ZM130.648 134.135C130.648 134.786 130.733 135.361 130.901 135.857C131.075 136.35 131.314 136.73 131.619 136.999C131.924 137.268 132.275 137.402 132.672 137.402C133.064 137.402 133.412 137.268 133.718 136.999C134.028 136.73 134.267 136.347 134.436 135.851C134.609 135.354 134.695 134.782 134.695 134.135C134.695 133.488 134.609 132.916 134.436 132.419C134.267 131.922 134.028 131.537 133.718 131.264C133.412 130.99 133.064 130.854 132.672 130.854C132.275 130.854 131.924 130.99 131.619 131.264C131.314 131.537 131.075 131.922 130.901 132.419C130.733 132.911 130.648 133.483 130.648 134.135ZM135.529 132.576C135.648 133.059 135.707 133.579 135.707 134.135C135.707 134.632 135.661 135.096 135.57 135.529H138.414V132.576H135.529ZM150.555 129.104C151.452 129.104 152.223 129.186 152.865 129.35C153.508 129.514 153.998 129.753 154.335 130.067C154.677 130.382 154.848 130.762 154.848 131.209C154.843 131.842 154.51 132.341 153.85 132.706C153.193 133.066 152.264 133.269 151.061 133.314V134.244H156.092V135.119H145.018V134.244H150.008V133.314C148.809 133.264 147.882 133.059 147.226 132.699C146.574 132.335 146.248 131.838 146.248 131.209C146.248 130.762 146.417 130.382 146.754 130.067C147.096 129.753 147.588 129.514 148.23 129.35C148.878 129.186 149.652 129.104 150.555 129.104ZM146.357 136.145H154.67V138.865H147.451V140.123H155.039V140.971H146.385V138.072H153.617V136.979H146.357V136.145ZM147.369 131.209C147.365 131.624 147.64 131.943 148.196 132.166C148.752 132.385 149.538 132.499 150.555 132.508C151.571 132.499 152.357 132.385 152.913 132.166C153.469 131.943 153.749 131.624 153.754 131.209C153.749 130.808 153.467 130.496 152.906 130.272C152.346 130.049 151.562 129.933 150.555 129.924C149.885 129.928 149.311 129.983 148.832 130.088C148.354 130.188 147.989 130.334 147.738 130.525C147.488 130.717 147.365 130.945 147.369 131.209ZM166.523 133.738H168.561V134.668H166.523V141.107H165.457V128.953H166.523V133.738ZM157.623 129.992H158.689V133.205H162.244V129.992H163.311V138.195H157.623V129.992ZM162.244 137.293V134.066H158.689V137.293H162.244ZM180.332 136.582H169.203V135.693H180.332V136.582ZM170.611 129.377H178.896V132.371H171.719V133.725H179.156V134.572H170.652V131.564H177.816V130.238H170.611V129.377ZM170.68 137.539H171.76V139.945H179.156V140.848H170.68V137.539ZM188.904 132.221C188.904 132.918 189.043 133.615 189.321 134.312C189.604 135.005 189.984 135.625 190.463 136.172C190.946 136.719 191.475 137.133 192.049 137.416L191.393 138.277C190.723 137.931 190.121 137.418 189.588 136.739C189.059 136.06 188.66 135.297 188.392 134.449C188.123 135.347 187.717 136.158 187.175 136.883C186.632 137.603 186.02 138.145 185.336 138.51L184.652 137.648C185.24 137.361 185.776 136.931 186.259 136.356C186.746 135.782 187.132 135.133 187.414 134.408C187.701 133.679 187.847 132.95 187.852 132.221V130.006H188.904V132.221ZM193.17 128.953H194.236V133.889H196.273V134.818H194.236V141.107H193.17V128.953ZM208.004 135.857H196.93V134.969H199.678V133.253C199.186 133.062 198.81 132.813 198.55 132.508C198.29 132.202 198.16 131.847 198.16 131.441C198.16 130.972 198.333 130.569 198.68 130.231C199.026 129.89 199.521 129.63 200.163 129.452C200.81 129.274 201.578 129.186 202.467 129.186C203.346 129.186 204.107 129.274 204.75 129.452C205.397 129.63 205.894 129.89 206.24 130.231C206.587 130.569 206.76 130.972 206.76 131.441C206.755 131.842 206.623 132.198 206.363 132.508C206.108 132.813 205.739 133.062 205.256 133.253V134.969H208.004V135.857ZM198.27 138.934C198.27 138.473 198.434 138.084 198.762 137.765C199.094 137.441 199.575 137.197 200.204 137.033C200.833 136.869 201.587 136.787 202.467 136.787C203.333 136.787 204.078 136.869 204.702 137.033C205.331 137.197 205.812 137.441 206.145 137.765C206.477 138.084 206.646 138.473 206.65 138.934C206.646 139.394 206.477 139.784 206.145 140.103C205.812 140.422 205.333 140.663 204.709 140.827C204.085 140.996 203.337 141.08 202.467 141.08C201.587 141.08 200.833 140.996 200.204 140.827C199.575 140.663 199.094 140.422 198.762 140.103C198.434 139.784 198.27 139.394 198.27 138.934ZM199.268 131.441C199.268 131.733 199.395 131.986 199.65 132.2C199.906 132.41 200.272 132.572 200.751 132.686C201.234 132.795 201.806 132.85 202.467 132.85C203.123 132.85 203.69 132.795 204.169 132.686C204.647 132.572 205.017 132.41 205.276 132.2C205.536 131.986 205.666 131.733 205.666 131.441C205.666 131.154 205.536 130.906 205.276 130.696C205.017 130.482 204.645 130.318 204.162 130.204C203.684 130.09 203.118 130.033 202.467 130.033C201.806 130.033 201.234 130.09 200.751 130.204C200.272 130.318 199.906 130.48 199.65 130.689C199.395 130.899 199.268 131.15 199.268 131.441ZM199.363 138.934C199.359 139.207 199.477 139.442 199.719 139.638C199.965 139.834 200.318 139.984 200.778 140.089C201.239 140.194 201.788 140.246 202.426 140.246C203.073 140.246 203.631 140.194 204.101 140.089C204.575 139.989 204.937 139.84 205.188 139.645C205.443 139.444 205.57 139.207 205.57 138.934C205.57 138.66 205.445 138.425 205.194 138.229C204.944 138.029 204.586 137.876 204.121 137.771C203.661 137.667 203.109 137.612 202.467 137.607C201.82 137.612 201.261 137.667 200.792 137.771C200.327 137.876 199.972 138.029 199.726 138.229C199.479 138.425 199.359 138.66 199.363 138.934ZM204.189 134.969V133.54C203.679 133.636 203.105 133.684 202.467 133.684C201.842 133.684 201.268 133.638 200.744 133.547V134.969H204.189ZM214.566 129.172C215.464 129.172 216.234 129.254 216.877 129.418C217.52 129.577 218.009 129.814 218.347 130.129C218.688 130.439 218.859 130.817 218.859 131.264C218.859 131.719 218.688 132.107 218.347 132.426C218.009 132.745 217.52 132.986 216.877 133.15C216.239 133.31 215.469 133.392 214.566 133.396C213.66 133.392 212.885 133.31 212.242 133.15C211.6 132.986 211.107 132.745 210.766 132.426C210.428 132.107 210.26 131.719 210.26 131.264C210.26 130.817 210.428 130.439 210.766 130.129C211.107 129.814 211.6 129.577 212.242 129.418C212.889 129.254 213.664 129.172 214.566 129.172ZM209.029 134.217H220.104V135.092H209.029V134.217ZM210.369 136.145H218.682V138.865H211.463V140.123H219.051V140.971H210.396V138.072H217.629V136.965H210.369V136.145ZM211.381 131.264C211.376 131.683 211.652 132.007 212.208 132.234C212.764 132.462 213.55 132.576 214.566 132.576C215.578 132.576 216.362 132.465 216.918 132.241C217.479 132.013 217.761 131.688 217.766 131.264C217.766 130.999 217.638 130.771 217.383 130.58C217.132 130.389 216.765 130.241 216.282 130.136C215.804 130.031 215.232 129.979 214.566 129.979C213.896 129.979 213.322 130.031 212.844 130.136C212.365 130.241 212.001 130.389 211.75 130.58C211.499 130.771 211.376 130.999 211.381 131.264ZM235.73 135.557H224.643V134.668H229.646V133.287H226.051V129.404H234.35V130.293H227.117V132.398H234.459V133.287H230.699V134.668H235.73V135.557ZM226.092 136.322H227.158V137.676H233.215V136.322H234.309V140.943H226.092V136.322ZM233.215 140.068V138.537H227.158V140.068H233.215ZM239.217 137.676H245.287V136.254H246.367V140.943H238.15V136.254H239.217V137.676ZM236.742 134.504H247.816V135.393H236.742V134.504ZM237.371 132.781C238.105 132.681 238.807 132.48 239.477 132.18C240.146 131.879 240.689 131.51 241.104 131.072C241.523 130.63 241.732 130.161 241.732 129.664V129.09H242.84V129.664C242.84 130.143 243.047 130.605 243.462 131.052C243.881 131.498 244.426 131.877 245.096 132.187C245.77 132.492 246.467 132.69 247.188 132.781L246.791 133.643C246.158 133.547 245.542 133.381 244.945 133.144C244.353 132.907 243.824 132.608 243.359 132.248C242.895 131.888 242.537 131.487 242.286 131.045C242.035 131.487 241.675 131.888 241.206 132.248C240.741 132.608 240.213 132.907 239.62 133.144C239.028 133.381 238.415 133.547 237.781 133.643L237.371 132.781ZM245.287 140.082V138.523H239.217V140.082H245.287ZM258.863 141.107H257.797V128.953H258.863V141.107ZM249.635 130.156H250.688V137.047C251.69 137.038 252.668 136.99 253.62 136.903C254.573 136.812 255.532 136.664 256.498 136.459L256.648 137.375C255.614 137.589 254.607 137.744 253.627 137.84C252.652 137.931 251.649 137.977 250.619 137.977H249.635V130.156ZM270.348 133.766H272.385V134.668H270.348V141.135H269.281V128.953H270.348V133.766ZM261.475 130.143H267.148V131.031H262.541V137.184C263.689 137.179 264.685 137.145 265.528 137.081C266.371 137.017 267.23 136.906 268.105 136.746L268.242 137.676C267.34 137.84 266.456 137.949 265.59 138.004C264.729 138.059 263.676 138.086 262.432 138.086H261.475V130.143ZM274.326 140.082C274.167 140.082 274.019 140.041 273.882 139.959C273.75 139.877 273.643 139.77 273.561 139.638C273.483 139.501 273.447 139.353 273.451 139.193C273.447 139.038 273.483 138.895 273.561 138.763C273.643 138.626 273.75 138.519 273.882 138.441C274.019 138.359 274.167 138.318 274.326 138.318C274.481 138.318 274.625 138.357 274.757 138.435C274.894 138.512 275.001 138.617 275.078 138.749C275.16 138.881 275.201 139.025 275.201 139.18C275.201 139.426 275.117 139.638 274.948 139.815C274.78 139.989 274.572 140.077 274.326 140.082Z" fill="#737373"/>
<path d="M89.2917 44.364C90.6029 44.364 91.8787 44.5127 93.119 44.8101C94.3593 45.1075 95.5904 45.5739 96.8125 46.2094V30.6436C95.7002 29.919 94.4965 29.3755 93.2013 29.0132C91.9061 28.6509 90.6029 28.4697 89.2917 28.4697C88.3417 28.4697 87.4541 28.5443 86.6289 28.6934C85.8037 28.8427 84.9557 29.0868 84.0849 29.4257C83.9632 29.4663 83.8769 29.5248 83.826 29.601C83.7753 29.677 83.75 29.7607 83.75 29.852V44.8267C83.75 44.969 83.8008 45.0731 83.9024 45.1391C84.0037 45.205 84.1154 45.2126 84.2373 45.1616C84.9883 44.9059 85.7809 44.7091 86.615 44.571C87.4495 44.433 88.3417 44.364 89.2917 44.364ZM99.1875 46.2094C100.41 45.5739 101.641 45.1075 102.881 44.8101C104.121 44.5127 105.397 44.364 106.708 44.364C107.658 44.364 108.551 44.433 109.385 44.571C110.219 44.7091 111.012 44.9059 111.763 45.1616C111.885 45.2126 111.996 45.205 112.098 45.1391C112.199 45.0731 112.25 44.969 112.25 44.8267V29.852C112.25 29.7607 112.225 29.6795 112.174 29.6085C112.123 29.5376 112.037 29.4766 111.915 29.4257C111.044 29.0868 110.196 28.8427 109.371 28.6934C108.546 28.5443 107.658 28.4697 106.708 28.4697C105.397 28.4697 104.094 28.6509 102.799 29.0132C101.504 29.3755 100.3 29.919 99.1875 30.6436V46.2094ZM97.1339 48.9129C96.8647 48.8359 96.6105 48.7334 96.3711 48.6054C95.281 47.9884 94.1406 47.523 92.95 47.2093C91.7596 46.8958 90.5401 46.739 89.2917 46.739C88.3256 46.739 87.3766 46.846 86.4448 47.06C85.513 47.2743 84.6148 47.5895 83.75 48.0057C83.1858 48.2654 82.6489 48.2242 82.1394 47.8822C81.6298 47.5402 81.375 47.0556 81.375 46.4283V29.2372C81.375 28.896 81.4629 28.5758 81.6386 28.2766C81.8141 27.977 82.0673 27.7613 82.3982 27.6294C83.4699 27.1077 84.5868 26.7215 85.749 26.4708C86.9111 26.2201 88.092 26.0947 89.2917 26.0947C90.8322 26.0947 92.3375 26.3053 93.8073 26.7265C95.2769 27.1479 96.6745 27.7696 98 28.5916C99.3255 27.7696 100.723 27.1479 102.193 26.7265C103.663 26.3053 105.168 26.0947 106.708 26.0947C107.908 26.0947 109.089 26.2201 110.251 26.4708C111.413 26.7215 112.53 27.1077 113.602 27.6294C113.933 27.7613 114.186 27.977 114.361 28.2766C114.537 28.5758 114.625 28.896 114.625 29.2372V46.4283C114.625 47.0556 114.36 47.5352 113.83 47.8671C113.3 48.1989 112.743 48.2349 112.159 47.9752C111.304 47.5691 110.419 47.2615 109.502 47.0525C108.586 46.8435 107.654 46.739 106.708 46.739C105.46 46.739 104.24 46.8958 103.05 47.2093C101.859 47.523 100.719 47.9884 99.6289 48.6054C99.3895 48.7334 99.1353 48.8359 98.8661 48.9129C98.5972 48.99 98.3085 49.0285 98 49.0285C97.6915 49.0285 97.4028 48.99 97.1339 48.9129ZM101.075 33.0309C101.075 32.8544 101.138 32.6737 101.264 32.489C101.39 32.3043 101.533 32.1774 101.694 32.1082C102.479 31.7937 103.288 31.5552 104.119 31.393C104.95 31.2304 105.813 31.1491 106.708 31.1491C107.226 31.1491 107.727 31.1796 108.211 31.2406C108.695 31.3015 109.183 31.3848 109.674 31.4903C109.861 31.5328 110.022 31.6343 110.158 31.7947C110.294 31.9552 110.362 32.1419 110.362 32.3548C110.362 32.7121 110.25 32.9735 110.026 33.139C109.802 33.3044 109.511 33.3445 109.153 33.2593C108.774 33.1801 108.379 33.1233 107.97 33.0887C107.561 33.0541 107.141 33.0369 106.708 33.0369C105.941 33.0369 105.189 33.1105 104.454 33.2577C103.718 33.405 103.016 33.6045 102.348 33.8562C101.975 34.0003 101.669 33.9921 101.431 33.8317C101.194 33.6715 101.075 33.4046 101.075 33.0309ZM101.075 41.6783C101.075 41.5017 101.138 41.3186 101.264 41.1289C101.39 40.9391 101.533 40.8097 101.694 40.7406C102.459 40.426 103.267 40.1901 104.119 40.0328C104.97 39.8755 105.834 39.7969 106.708 39.7969C107.226 39.7969 107.727 39.8272 108.211 39.8879C108.695 39.9489 109.183 40.0322 109.674 40.1377C109.861 40.1805 110.022 40.2819 110.158 40.4421C110.294 40.6025 110.362 40.7894 110.362 41.0026C110.362 41.3596 110.25 41.6209 110.026 41.7864C109.802 41.9518 109.511 41.9919 109.153 41.9067C108.774 41.8275 108.379 41.7707 107.97 41.7361C107.561 41.7018 107.141 41.6846 106.708 41.6846C105.951 41.6846 105.207 41.7567 104.476 41.9007C103.746 42.0448 103.046 42.2478 102.378 42.5095C102.005 42.6639 101.694 42.66 101.447 42.4977C101.199 42.3351 101.075 42.062 101.075 41.6783ZM101.075 37.37C101.075 37.1935 101.138 37.0129 101.264 36.8281C101.39 36.6434 101.533 36.5165 101.694 36.4474C102.479 36.1328 103.288 35.8942 104.119 35.7317C104.95 35.5694 105.813 35.4882 106.708 35.4882C107.226 35.4882 107.727 35.5187 108.211 35.5797C108.695 35.6404 109.183 35.7235 109.674 35.8291C109.861 35.8718 110.022 35.9734 110.158 36.1339C110.294 36.294 110.362 36.4807 110.362 36.694C110.362 37.0513 110.25 37.3126 110.026 37.4781C109.802 37.6436 109.511 37.6837 109.153 37.5984C108.774 37.5193 108.379 37.4624 107.97 37.4278C107.561 37.3933 107.141 37.376 106.708 37.376C105.941 37.376 105.189 37.4496 104.454 37.5969C103.718 37.7438 103.016 37.9432 102.348 38.195C101.975 38.339 101.669 38.331 101.431 38.1708C101.194 38.0104 101.075 37.7434 101.075 37.37Z" fill="#144D6E"/>
</svg>
