<svg width="231" height="250" viewBox="0 0 231 250" fill="none" xmlns="http://www.w3.org/2000/svg">
<rect width="231" height="250" rx="9" fill="#F2F6F8"/>
<path d="M37.7324 115.842H35.376V111.853H32.7412V109.941H35.376V105.822H37.7324V115.842ZM23.3896 113.986C24.2741 113.689 25.0194 113.266 25.6255 112.715C26.2316 112.165 26.6862 111.546 26.9893 110.86C27.2923 110.173 27.4531 109.465 27.4717 108.735H24.0762V106.843H33.2422V108.735H29.8838C29.9023 109.416 30.0539 110.071 30.3384 110.702C30.6229 111.327 31.0527 111.89 31.6279 112.391C32.2093 112.892 32.9206 113.281 33.7617 113.56L32.5928 115.415C31.6898 115.124 30.9105 114.691 30.2549 114.116C29.6055 113.535 29.0921 112.854 28.7148 112.075C28.3314 112.96 27.7964 113.73 27.1099 114.385C26.4233 115.035 25.5915 115.526 24.6143 115.86L23.3896 113.986ZM26.1543 119.479C26.1543 118.804 26.3862 118.223 26.8501 117.734C27.3201 117.24 27.9912 116.862 28.8633 116.603C29.7354 116.343 30.7682 116.213 31.9619 116.213C33.1618 116.213 34.1978 116.343 35.0698 116.603C35.9419 116.862 36.613 117.236 37.083 117.725C37.5531 118.214 37.7881 118.798 37.7881 119.479C37.7881 120.159 37.5531 120.74 37.083 121.223C36.613 121.711 35.9419 122.082 35.0698 122.336C34.1978 122.596 33.1618 122.726 31.9619 122.726C30.7682 122.726 29.7354 122.596 28.8633 122.336C27.9912 122.082 27.3201 121.711 26.8501 121.223C26.3862 120.734 26.1543 120.153 26.1543 119.479ZM28.5107 119.479C28.5107 119.955 28.8045 120.317 29.3921 120.564C29.9797 120.805 30.8363 120.926 31.9619 120.926C33.0938 120.926 33.9535 120.805 34.541 120.564C35.1286 120.323 35.4255 119.961 35.4316 119.479C35.4255 119.002 35.1317 118.644 34.5503 118.402C33.9751 118.155 33.134 118.031 32.0269 118.031C29.6828 118.031 28.5107 118.514 28.5107 119.479ZM55.3223 115.601H48.791V117.048H53.4854V122.521H41.7031V117.048H46.4346V115.601H39.9219V113.727H55.3223V115.601ZM41.2764 106.286H53.9492V108.179H51.7412V110.758H53.8379V112.65H41.3877V110.758H43.4658V108.179H41.2764V106.286ZM51.166 120.629V118.885H44.041V120.629H51.166ZM49.3662 110.758V108.179H45.8408V110.758H49.3662ZM76.1592 117.419H69.5537V122.707H67.2158V117.419H60.7031V115.563H76.1592V117.419ZM62.5215 106.472H64.8594V108.42H71.9473V106.472H74.3223V113.931H62.5215V106.472ZM71.9473 112.038V110.275H64.8594V112.038H71.9473ZM92.543 115.601H86.0117V117.048H90.7061V122.521H78.9238V117.048H83.6553V115.601H77.1426V113.727H92.543V115.601ZM78.4971 106.286H91.1699V108.179H88.9619V110.758H91.0586V112.65H78.6084V110.758H80.6865V108.179H78.4971V106.286ZM88.3867 120.629V118.885H81.2617V120.629H88.3867ZM86.5869 110.758V108.179H83.0615V110.758H86.5869ZM104.158 109.645C104.152 110.677 104.297 111.679 104.594 112.65C104.891 113.615 105.34 114.481 105.939 115.248C106.539 116.015 107.275 116.609 108.147 117.029L106.719 118.922C105.84 118.483 105.089 117.87 104.464 117.085C103.84 116.293 103.348 115.372 102.989 114.32C102.606 115.452 102.083 116.442 101.421 117.289C100.76 118.13 99.9648 118.78 99.0371 119.237L97.5713 117.326C98.4928 116.906 99.269 116.296 99.8999 115.499C100.531 114.694 101.001 113.788 101.31 112.78C101.625 111.766 101.783 110.721 101.783 109.645V107.121H104.158V109.645ZM108.89 105.822H111.265V112.335H113.751V114.339H111.265V122.707H108.89V105.822ZM129.764 115.712H114.363V113.819H117.833V111.797C117.208 111.519 116.729 111.172 116.395 110.758C116.067 110.343 115.903 109.867 115.903 109.329C115.903 108.655 116.154 108.074 116.655 107.585C117.156 107.096 117.87 106.722 118.798 106.462C119.726 106.196 120.814 106.063 122.063 106.063C123.3 106.063 124.38 106.196 125.301 106.462C126.229 106.722 126.943 107.096 127.444 107.585C127.951 108.074 128.205 108.655 128.205 109.329C128.199 109.873 128.026 110.356 127.686 110.776C127.345 111.197 126.857 111.543 126.22 111.815V113.819H129.764V115.712ZM116.126 119.627C116.126 118.984 116.361 118.436 116.831 117.985C117.301 117.527 117.978 117.184 118.863 116.955C119.753 116.72 120.814 116.603 122.045 116.603C123.257 116.603 124.302 116.72 125.181 116.955C126.065 117.184 126.742 117.527 127.212 117.985C127.682 118.436 127.921 118.984 127.927 119.627C127.921 120.283 127.682 120.839 127.212 121.297C126.742 121.755 126.068 122.101 125.19 122.336C124.312 122.571 123.263 122.688 122.045 122.688C120.808 122.688 119.747 122.571 118.863 122.336C117.978 122.101 117.301 121.755 116.831 121.297C116.361 120.839 116.126 120.283 116.126 119.627ZM118.371 109.329C118.365 109.787 118.671 110.133 119.29 110.368C119.914 110.603 120.817 110.721 121.999 110.721C123.217 110.721 124.148 110.606 124.791 110.377C125.434 110.142 125.756 109.793 125.756 109.329C125.756 108.859 125.437 108.5 124.8 108.253C124.163 108.006 123.251 107.882 122.063 107.882C120.864 107.882 119.945 108.006 119.308 108.253C118.677 108.5 118.365 108.859 118.371 109.329ZM118.538 119.627C118.526 120.493 119.695 120.926 122.045 120.926C123.195 120.926 124.064 120.818 124.652 120.601C125.246 120.385 125.546 120.06 125.552 119.627C125.546 118.811 124.377 118.396 122.045 118.384C120.87 118.39 119.988 118.495 119.401 118.699C118.819 118.903 118.532 119.213 118.538 119.627ZM123.863 113.819V112.4C123.356 112.468 122.756 112.502 122.063 112.502C121.433 112.502 120.82 112.468 120.227 112.4V113.819H123.863Z" fill="black"/>
<path d="M27.9072 142.057C27.9072 142.648 28.0439 143.219 28.3174 143.771C28.5908 144.318 28.9741 144.801 29.4673 145.221C29.9653 145.641 30.5293 145.958 31.1592 146.173L30.5146 147.082C29.8066 146.813 29.1792 146.42 28.6323 145.902C28.0903 145.38 27.6777 144.779 27.3945 144.101C27.1162 144.877 26.6914 145.558 26.1201 146.144C25.5537 146.725 24.8799 147.165 24.0986 147.462L23.4834 146.554C24.1377 146.31 24.7114 145.963 25.2046 145.514C25.7026 145.065 26.0884 144.545 26.3618 143.954C26.6401 143.363 26.7793 142.741 26.7793 142.086V140.783H27.9072V142.057ZM25.4902 148.341H33.708V152.956H25.4902V148.341ZM32.5654 152.018V149.279H26.6182V152.018H32.5654ZM32.5654 140.109H33.708V143.361H35.6709V144.328H33.708V147.741H32.5654V140.109ZM40.6736 142.16C40.6687 142.77 40.8006 143.351 41.0691 143.903C41.3426 144.455 41.7234 144.94 42.2117 145.36C42.7 145.775 43.2615 146.09 43.8963 146.305L43.2518 147.199C42.534 146.93 41.9041 146.54 41.3621 146.027C40.8201 145.514 40.4075 144.916 40.1243 144.232C39.846 145.014 39.4187 145.695 38.8426 146.276C38.2713 146.857 37.5926 147.296 36.8064 147.594L36.1766 146.657C36.8406 146.422 37.4241 146.085 37.9271 145.646C38.4349 145.202 38.8279 144.684 39.1062 144.093C39.3846 143.498 39.5262 142.868 39.5311 142.204V140.856H40.6736V142.16ZM38.3006 150.67C38.3006 150.153 38.4739 149.711 38.8206 149.345C39.1722 148.974 39.6751 148.693 40.3294 148.502C40.9837 148.307 41.7625 148.209 42.6658 148.209C43.5643 148.209 44.3406 148.307 44.9949 148.502C45.6492 148.693 46.1521 148.974 46.5037 149.345C46.8553 149.711 47.0311 150.153 47.0311 150.67C47.0311 151.183 46.8553 151.62 46.5037 151.981C46.1521 152.348 45.6492 152.626 44.9949 152.816C44.3406 153.007 43.5643 153.102 42.6658 153.102C41.7625 153.102 40.9837 153.007 40.3294 152.816C39.6751 152.626 39.1722 152.348 38.8206 151.981C38.4739 151.62 38.3006 151.183 38.3006 150.67ZM39.4432 150.67C39.4432 150.978 39.5701 151.247 39.824 151.476C40.0779 151.701 40.4441 151.874 40.9227 151.996C41.4061 152.118 41.9749 152.179 42.6292 152.179C43.2981 152.179 43.8768 152.118 44.365 151.996C44.8533 151.879 45.2293 151.708 45.493 151.483C45.7566 151.254 45.8885 150.983 45.8885 150.67C45.8885 150.348 45.7591 150.072 45.5003 149.843C45.2415 149.608 44.868 149.43 44.3797 149.308C43.8963 149.181 43.325 149.118 42.6658 149.118C42.0018 149.118 41.4256 149.181 40.9373 149.308C40.4539 149.43 40.0828 149.608 39.824 149.843C39.5701 150.072 39.4432 150.348 39.4432 150.67ZM42.9295 142.907H45.8299V140.109H46.9871V147.829H45.8299V143.859H42.9295V142.907ZM52.8031 147.55C52.7982 147.316 52.8715 147.123 53.0229 146.972C53.1742 146.82 53.3842 146.745 53.6527 146.745C53.9164 146.745 54.1215 146.82 54.268 146.972C54.4145 147.123 54.4877 147.316 54.4877 147.55C54.4877 147.78 54.4145 147.97 54.268 148.122C54.1215 148.273 53.9164 148.351 53.6527 148.356C53.3842 148.351 53.1742 148.273 53.0229 148.122C52.8715 147.97 52.7982 147.78 52.8031 147.55ZM59.8203 141.339H61.1387V150.773H66.0605V151.945H59.8203V141.339ZM74.3445 144.65C74.1102 143.952 73.7366 143.407 73.2239 143.017C72.7112 142.621 72.0838 142.423 71.3416 142.423C70.7068 142.423 70.1355 142.587 69.6277 142.914C69.1199 143.241 68.7171 143.722 68.4192 144.357C68.1214 144.992 67.9725 145.753 67.9725 146.642C67.9725 147.531 68.1214 148.292 68.4192 148.927C68.722 149.557 69.1321 150.036 69.6497 150.363C70.1722 150.69 70.7654 150.856 71.4295 150.861C72.0203 150.861 72.5452 150.734 73.0042 150.48C73.4632 150.226 73.8221 149.87 74.0809 149.411C74.3396 148.947 74.4715 148.405 74.4764 147.785H71.7078V146.627H75.7654V147.77C75.7654 148.634 75.5799 149.394 75.2088 150.048C74.8426 150.697 74.3299 151.2 73.6707 151.557C73.0164 151.913 72.2693 152.091 71.4295 152.091C70.4871 152.091 69.657 151.872 68.9393 151.432C68.2264 150.988 67.6746 150.355 67.284 149.535C66.8934 148.71 66.698 147.746 66.698 146.642C66.698 145.543 66.8934 144.584 67.284 143.764C67.6746 142.938 68.2215 142.304 68.9246 141.859C69.6277 141.415 70.4334 141.193 71.3416 141.193C72.0789 141.193 72.7552 141.339 73.3704 141.632C73.9856 141.92 74.4959 142.326 74.9012 142.848C75.3064 143.371 75.575 143.971 75.7068 144.65H74.3445ZM80.7465 147.55C80.7416 147.316 80.8148 147.123 80.9662 146.972C81.1176 146.82 81.3275 146.745 81.5961 146.745C81.8598 146.745 82.0648 146.82 82.2113 146.972C82.3578 147.123 82.4311 147.316 82.4311 147.55C82.4311 147.78 82.3578 147.97 82.2113 148.122C82.0648 148.273 81.8598 148.351 81.5961 148.356C81.3275 148.351 81.1176 148.273 80.9662 148.122C80.8148 147.97 80.7416 147.78 80.7465 147.55ZM98.2666 153.131H97.1533V146.349H95.3369V152.487H94.2529V140.431H95.3369V145.397H97.1533V140.109H98.2666V153.131ZM87.207 149.616C89.1113 148.585 90.4126 147.235 91.1108 145.565L87.3828 145.954L87.207 144.943L91.4258 144.665C91.6016 144.044 91.7114 143.371 91.7554 142.643H87.8516V141.691H92.9053C92.9004 142.907 92.749 144.037 92.4512 145.082C92.1533 146.127 91.6357 147.108 90.8984 148.026C90.1611 148.944 89.1602 149.748 87.8955 150.436L87.207 149.616ZM110.535 153.161H109.392V140.109H110.535V153.161ZM100.515 141.325H106.58V145.954H101.717V149.03C102.864 149.035 103.941 149.003 104.947 148.935C105.957 148.866 107.019 148.742 108.133 148.561L108.25 149.528C107.117 149.704 106.033 149.826 104.998 149.894C103.963 149.962 102.84 149.997 101.629 149.997H100.545V145.016H105.423V142.277H100.515V141.325ZM115.948 141.12C116.534 141.12 117.061 141.283 117.53 141.61C117.999 141.933 118.375 142.394 118.658 142.995C118.946 143.59 119.119 144.289 119.178 145.089H122.1V140.109H123.243V153.161H122.1V146.042H119.192C119.153 146.881 118.99 147.616 118.702 148.246C118.419 148.871 118.038 149.352 117.559 149.689C117.086 150.021 116.548 150.187 115.948 150.187C115.308 150.187 114.739 150.004 114.241 149.638C113.748 149.267 113.365 148.739 113.091 148.056C112.818 147.372 112.681 146.574 112.681 145.661C112.681 144.752 112.818 143.957 113.091 143.273C113.365 142.584 113.748 142.055 114.241 141.684C114.739 141.308 115.308 141.12 115.948 141.12ZM113.78 145.661C113.78 146.359 113.87 146.974 114.051 147.506C114.236 148.034 114.493 148.441 114.82 148.729C115.147 149.018 115.523 149.162 115.948 149.162C116.368 149.162 116.741 149.018 117.068 148.729C117.4 148.441 117.657 148.031 117.838 147.499C118.023 146.967 118.116 146.354 118.116 145.661C118.116 144.967 118.023 144.354 117.838 143.822C117.657 143.29 117.4 142.877 117.068 142.584C116.741 142.292 116.368 142.145 115.948 142.145C115.523 142.145 115.147 142.292 114.82 142.584C114.493 142.877 114.236 143.29 114.051 143.822C113.87 144.35 113.78 144.962 113.78 145.661ZM140.455 147.272H128.575V146.305H140.455V147.272ZM130.011 150.758C130.011 150.265 130.189 149.843 130.546 149.491C130.902 149.14 131.417 148.874 132.091 148.693C132.765 148.507 133.571 148.415 134.508 148.415C135.436 148.415 136.234 148.507 136.903 148.693C137.572 148.874 138.085 149.14 138.441 149.491C138.802 149.843 138.986 150.265 138.99 150.758C138.986 151.256 138.805 151.681 138.448 152.033C138.092 152.384 137.577 152.65 136.903 152.831C136.234 153.012 135.436 153.102 134.508 153.102C133.571 153.102 132.765 153.012 132.091 152.831C131.417 152.65 130.902 152.384 130.546 152.033C130.189 151.681 130.011 151.256 130.011 150.758ZM130.084 140.636H138.976V141.603H131.212V144.123H139.064V145.06H130.084V140.636ZM131.183 150.758C131.178 151.061 131.307 151.32 131.571 151.535C131.835 151.75 132.216 151.913 132.714 152.025C133.217 152.138 133.815 152.194 134.508 152.194C135.196 152.194 135.79 152.138 136.288 152.025C136.786 151.913 137.167 151.75 137.43 151.535C137.699 151.32 137.833 151.061 137.833 150.758C137.833 150.46 137.699 150.204 137.43 149.989C137.162 149.77 136.779 149.604 136.28 149.491C135.787 149.374 135.196 149.313 134.508 149.308C133.815 149.313 133.217 149.374 132.714 149.491C132.216 149.604 131.835 149.77 131.571 149.989C131.307 150.204 131.178 150.46 131.183 150.758ZM150.593 148.341C151.52 148.341 152.326 148.437 153.01 148.627C153.698 148.812 154.228 149.086 154.599 149.447C154.975 149.804 155.163 150.231 155.163 150.729C155.163 151.222 154.975 151.647 154.599 152.003C154.228 152.36 153.698 152.631 153.01 152.816C152.326 153.007 151.52 153.102 150.593 153.102C149.665 153.102 148.857 153.007 148.168 152.816C147.485 152.631 146.957 152.36 146.586 152.003C146.22 151.647 146.037 151.222 146.037 150.729C146.037 150.231 146.22 149.804 146.586 149.447C146.957 149.086 147.485 148.812 148.168 148.627C148.857 148.437 149.665 148.341 150.593 148.341ZM144.719 146.188H149.626V143.668H150.754V146.188H156.569V147.125H144.719V146.188ZM146.125 140.783H155.06V141.881C155.055 142.599 155.033 143.207 154.994 143.705C154.955 144.198 154.855 144.743 154.694 145.338L153.566 145.207C153.722 144.611 153.82 144.076 153.859 143.603C153.898 143.124 153.918 142.55 153.918 141.881V141.72H146.125V140.783ZM147.179 150.729C147.179 151.027 147.319 151.288 147.597 151.513C147.875 151.732 148.271 151.901 148.783 152.018C149.301 152.135 149.904 152.194 150.593 152.194C151.281 152.194 151.882 152.135 152.394 152.018C152.912 151.901 153.31 151.732 153.588 151.513C153.871 151.288 154.015 151.027 154.02 150.729C154.015 150.421 153.871 150.155 153.588 149.931C153.31 149.706 152.912 149.533 152.394 149.411C151.882 149.284 151.281 149.22 150.593 149.22C149.904 149.22 149.301 149.284 148.783 149.411C148.271 149.533 147.875 149.706 147.597 149.931C147.319 150.155 147.179 150.421 147.179 150.729ZM161.982 141.999C161.977 142.619 162.114 143.214 162.392 143.786C162.671 144.352 163.059 144.85 163.557 145.28C164.06 145.709 164.633 146.037 165.278 146.261L164.692 147.169C163.935 146.891 163.271 146.481 162.7 145.939C162.129 145.397 161.696 144.767 161.403 144.049C161.12 144.821 160.691 145.5 160.114 146.085C159.538 146.667 158.867 147.106 158.1 147.404L157.5 146.496C158.144 146.256 158.715 145.91 159.213 145.456C159.716 144.997 160.107 144.469 160.385 143.874C160.669 143.273 160.81 142.648 160.81 141.999V140.753H161.982V141.999ZM159.36 148.605H168.12V153.131H166.977V149.557H159.36V148.605ZM166.977 140.109H168.12V147.96H166.977V140.109ZM180.982 142.482H179.531V148.751C180.21 148.708 180.899 148.644 181.597 148.561L181.655 149.411C180.435 149.606 179.16 149.735 177.832 149.799C176.509 149.862 175.059 149.899 173.482 149.909L173.335 148.927C173.677 148.927 174.263 148.922 175.093 148.913V142.482H173.657V141.53H180.982V142.482ZM176.206 148.898C176.865 148.883 177.608 148.856 178.433 148.817V142.482H176.206V148.898ZM182.432 140.109H183.574V145.338H185.757V146.305H183.574V153.131H182.432V140.109ZM196.707 148.092H187.698V141.237H196.561V142.204H188.87V144.137H196.282V145.06H188.87V147.155H196.707V148.092ZM186.16 150.48H198.084V151.432H186.16V150.48ZM34.3379 175.161H33.1807V167.368H29.123V166.416H33.1807V162.109H34.3379V175.161ZM24.2451 163.574H25.4023V171.03C26.5059 171.02 27.5044 170.979 28.3979 170.905C29.2964 170.827 30.2021 170.693 31.1152 170.502L31.2617 171.455C30.2803 171.66 29.3159 171.801 28.3687 171.879C27.4214 171.958 26.3789 171.997 25.2412 171.997H24.2451V163.574ZM40.5564 165.61C40.5564 166.357 40.7054 167.104 41.0032 167.851C41.306 168.593 41.7137 169.257 42.2264 169.843C42.7439 170.429 43.3104 170.874 43.9256 171.176L43.2225 172.099C42.5047 171.728 41.8602 171.179 41.2889 170.451C40.7225 169.724 40.2952 168.906 40.0071 167.998C39.719 168.959 39.2845 169.829 38.7034 170.605C38.1224 171.376 37.4656 171.958 36.7332 172.348L36.0008 171.425C36.6307 171.118 37.2044 170.656 37.722 170.041C38.2444 169.426 38.657 168.73 38.9598 167.954C39.2674 167.172 39.4236 166.391 39.4285 165.61V163.237H40.5564V165.61ZM45.1268 162.109H46.2693V167.397H48.452V168.393H46.2693V175.131H45.1268V162.109ZM53.1178 163.061C53.7916 163.061 54.3922 163.19 54.9195 163.449C55.4518 163.708 55.8668 164.069 56.1646 164.533C56.4674 164.997 56.6187 165.527 56.6187 166.123C56.6187 166.718 56.4674 167.248 56.1646 167.712C55.8668 168.176 55.4518 168.537 54.9195 168.796C54.3922 169.055 53.7916 169.184 53.1178 169.184C52.4391 169.184 51.8312 169.055 51.294 168.796C50.7618 168.537 50.3468 168.176 50.0489 167.712C49.7511 167.248 49.6021 166.718 49.6021 166.123C49.6021 165.527 49.7511 164.997 50.0489 164.533C50.3468 164.069 50.7618 163.708 51.294 163.449C51.8312 163.19 52.4391 163.061 53.1178 163.061ZM49.5362 171.308C51.0157 171.308 52.4195 171.279 53.7477 171.22C55.0807 171.162 56.3404 171.044 57.527 170.869L57.6148 171.718C56.3014 171.962 54.9659 172.119 53.6085 172.187C52.2511 172.255 50.7447 172.29 49.0895 172.29L48.9283 171.308H49.5362ZM50.7301 166.123C50.7301 166.523 50.8302 166.879 51.0304 167.192C51.2354 167.5 51.5187 167.741 51.88 167.917C52.2462 168.088 52.6588 168.173 53.1178 168.173C53.5719 168.173 53.9796 168.088 54.3409 167.917C54.7022 167.741 54.983 167.5 55.1832 167.192C55.3883 166.879 55.4908 166.523 55.4908 166.123C55.4908 165.727 55.3883 165.373 55.1832 165.061C54.983 164.748 54.7022 164.506 54.3409 164.335C53.9796 164.16 53.5719 164.072 53.1178 164.072C52.6588 164.072 52.2462 164.16 51.88 164.335C51.5187 164.506 51.2354 164.748 51.0304 165.061C50.8302 165.373 50.7301 165.727 50.7301 166.123ZM58.3912 162.109H59.5338V175.161H58.3912V162.109ZM75.7795 169.873H74.6223V166.459H72.0002V165.507H74.6223V162.109H75.7795V169.873ZM65.0422 168.833C65.6818 168.603 66.2507 168.266 66.7487 167.822C67.2517 167.377 67.6447 166.867 67.9279 166.291C68.2111 165.715 68.3527 165.122 68.3527 164.511V164.028H65.4084V163.061H72.425V164.028H69.51V164.497C69.51 165.058 69.6442 165.603 69.9128 166.13C70.1813 166.657 70.5598 167.126 71.048 167.536C71.5363 167.941 72.093 168.251 72.718 168.466L72.1174 169.389C71.3947 169.125 70.7575 168.735 70.2058 168.217C69.6589 167.7 69.2438 167.102 68.9606 166.423C68.6823 167.185 68.2526 167.856 67.6716 168.437C67.0954 169.018 66.4191 169.458 65.6428 169.755L65.0422 168.833ZM67.093 172.7C67.093 172.192 67.2663 171.757 67.613 171.396C67.9646 171.035 68.4675 170.759 69.1218 170.568C69.781 170.378 70.5598 170.283 71.4582 170.283C72.3566 170.283 73.133 170.378 73.7873 170.568C74.4416 170.759 74.9445 171.035 75.2961 171.396C75.6477 171.757 75.8234 172.192 75.8234 172.7C75.8234 173.208 75.6477 173.642 75.2961 174.003C74.9445 174.365 74.4416 174.641 73.7873 174.831C73.133 175.026 72.3566 175.126 71.4582 175.131C70.5549 175.126 69.7761 175.026 69.1218 174.831C68.4675 174.641 67.9646 174.365 67.613 174.003C67.2663 173.642 67.093 173.208 67.093 172.7ZM68.2355 172.7C68.2355 173.007 68.3625 173.276 68.6164 173.505C68.8703 173.73 69.2365 173.903 69.715 174.025C70.1984 174.147 70.7673 174.208 71.4216 174.208C72.0905 174.208 72.6691 174.147 73.1574 174.025C73.6457 173.908 74.0217 173.737 74.2854 173.513C74.549 173.283 74.6809 173.012 74.6809 172.7C74.6809 172.387 74.5515 172.116 74.2927 171.887C74.0339 171.657 73.6604 171.481 73.1721 171.359C72.6887 171.237 72.1174 171.176 71.4582 171.176C70.7941 171.176 70.2204 171.237 69.737 171.359C69.2536 171.481 68.8825 171.657 68.6237 171.887C68.3649 172.116 68.2355 172.387 68.2355 172.7ZM89.5127 169.36H84.1367V170.898H88.0625V174.956H79.0977V170.898H83.0088V169.36H77.6475V168.408H89.5127V169.36ZM78.7607 162.534H88.3848V163.486H86.3779V166.225H88.3408V167.177H78.8047V166.225H80.7676V163.486H78.7607V162.534ZM86.9346 174.018V171.806H80.2402V174.018H86.9346ZM85.2354 166.225V163.486H81.9102V166.225H85.2354ZM105.685 170.781H100.251V175.131H99.1227V170.781H93.7613V169.843H105.685V170.781ZM95.2848 162.651H96.4273V164.453H102.99V162.651H104.147V168.261H95.2848V162.651ZM102.99 167.324V165.39H96.4273V167.324H102.99ZM118.305 169.36H112.929V170.898H116.855V174.956H107.89V170.898H111.801V169.36H106.44V168.408H118.305V169.36ZM107.553 162.534H117.177V163.486H115.17V166.225H117.133V167.177H107.597V166.225H109.56V163.486H107.553V162.534ZM115.727 174.018V171.806H109.033V174.018H115.727ZM114.028 166.225V163.486H110.703V166.225H114.028ZM125.681 169.287H119.66V163.295H125.681V169.287ZM124.568 168.364V164.233H120.788V168.364H124.568ZM121.14 170.751H122.268V173.886H129.885V174.853H121.14V170.751ZM128.142 162.109H129.284V166.079H131.247V167.045H129.284V171.66H128.142V162.109ZM137.7 162.343C138.662 162.343 139.487 162.431 140.176 162.607C140.864 162.778 141.389 163.032 141.75 163.369C142.117 163.701 142.3 164.106 142.3 164.584C142.3 165.073 142.117 165.488 141.75 165.83C141.389 166.171 140.864 166.43 140.176 166.606C139.492 166.777 138.667 166.865 137.7 166.87C136.729 166.865 135.898 166.777 135.21 166.606C134.521 166.43 133.994 166.171 133.628 165.83C133.267 165.488 133.086 165.073 133.086 164.584C133.086 164.106 133.267 163.701 133.628 163.369C133.994 163.032 134.521 162.778 135.21 162.607C135.903 162.431 136.733 162.343 137.7 162.343ZM131.768 167.749H143.633V168.686H131.768V167.749ZM133.203 169.814H142.109V172.729H134.375V174.077H142.505V174.985H133.232V171.879H140.981V170.693H133.203V169.814ZM134.287 164.584C134.282 165.034 134.578 165.38 135.173 165.625C135.769 165.869 136.611 165.991 137.7 165.991C138.784 165.991 139.624 165.871 140.22 165.632C140.82 165.388 141.123 165.039 141.128 164.584C141.128 164.301 140.991 164.057 140.718 163.852C140.449 163.647 140.056 163.488 139.539 163.376C139.026 163.264 138.413 163.208 137.7 163.208C136.982 163.208 136.367 163.264 135.854 163.376C135.342 163.488 134.951 163.647 134.683 163.852C134.414 164.057 134.282 164.301 134.287 164.584ZM152.261 165.61C152.261 166.357 152.41 167.104 152.708 167.851C153.011 168.593 153.419 169.257 153.931 169.843C154.449 170.429 155.015 170.874 155.63 171.176L154.927 172.099C154.21 171.728 153.565 171.179 152.994 170.451C152.427 169.724 152 168.906 151.712 167.998C151.424 168.959 150.989 169.829 150.408 170.605C149.827 171.376 149.171 171.958 148.438 172.348L147.706 171.425C148.336 171.118 148.909 170.656 149.427 170.041C149.949 169.426 150.362 168.73 150.665 167.954C150.972 167.172 151.129 166.391 151.133 165.61V163.237H152.261V165.61ZM156.832 162.109H157.974V167.397H160.157V168.393H157.974V175.131H156.832V162.109ZM172.425 169.506H160.56V168.554H163.504V166.716C162.977 166.511 162.574 166.245 162.296 165.917C162.017 165.59 161.878 165.209 161.878 164.775C161.878 164.272 162.064 163.84 162.435 163.479C162.806 163.112 163.336 162.834 164.024 162.644C164.718 162.453 165.54 162.358 166.493 162.358C167.435 162.358 168.25 162.453 168.939 162.644C169.632 162.834 170.164 163.112 170.536 163.479C170.907 163.84 171.092 164.272 171.092 164.775C171.087 165.205 170.946 165.585 170.667 165.917C170.394 166.245 169.998 166.511 169.481 166.716V168.554H172.425V169.506ZM161.996 172.802C161.996 172.309 162.171 171.892 162.523 171.55C162.879 171.203 163.394 170.942 164.068 170.766C164.742 170.59 165.55 170.502 166.493 170.502C167.42 170.502 168.219 170.59 168.888 170.766C169.561 170.942 170.077 171.203 170.433 171.55C170.789 171.892 170.97 172.309 170.975 172.802C170.97 173.295 170.789 173.713 170.433 174.055C170.077 174.396 169.564 174.655 168.895 174.831C168.226 175.012 167.425 175.102 166.493 175.102C165.55 175.102 164.742 175.012 164.068 174.831C163.394 174.655 162.879 174.396 162.523 174.055C162.171 173.713 161.996 173.295 161.996 172.802ZM163.065 164.775C163.065 165.087 163.202 165.358 163.475 165.588C163.748 165.812 164.142 165.986 164.654 166.108C165.172 166.225 165.785 166.284 166.493 166.284C167.196 166.284 167.804 166.225 168.316 166.108C168.829 165.986 169.225 165.812 169.503 165.588C169.781 165.358 169.92 165.087 169.92 164.775C169.92 164.467 169.781 164.201 169.503 163.977C169.225 163.747 168.827 163.571 168.309 163.449C167.796 163.327 167.191 163.266 166.493 163.266C165.785 163.266 165.172 163.327 164.654 163.449C164.142 163.571 163.748 163.745 163.475 163.969C163.202 164.194 163.065 164.462 163.065 164.775ZM163.167 172.802C163.163 173.095 163.289 173.347 163.548 173.557C163.812 173.767 164.19 173.928 164.684 174.04C165.177 174.152 165.765 174.208 166.449 174.208C167.142 174.208 167.74 174.152 168.243 174.04C168.751 173.933 169.139 173.774 169.408 173.564C169.681 173.349 169.818 173.095 169.818 172.802C169.818 172.509 169.684 172.258 169.415 172.048C169.146 171.833 168.763 171.669 168.265 171.557C167.772 171.445 167.181 171.386 166.493 171.381C165.799 171.386 165.201 171.445 164.698 171.557C164.2 171.669 163.819 171.833 163.556 172.048C163.292 172.258 163.163 172.509 163.167 172.802ZM168.338 168.554V167.023C167.791 167.126 167.176 167.177 166.493 167.177C165.824 167.177 165.208 167.128 164.647 167.031V168.554H168.338ZM183.302 167.485H185.485V168.437H183.302V175.131H182.159V162.109H183.302V167.485ZM173.151 164.204H176.505V162.27H177.648V164.204H180.9V165.156H173.151V164.204ZM173.898 169.228C173.898 168.652 174.034 168.137 174.308 167.683C174.581 167.229 174.96 166.875 175.443 166.621C175.931 166.367 176.481 166.24 177.091 166.24C177.696 166.24 178.241 166.367 178.724 166.621C179.208 166.875 179.586 167.229 179.86 167.683C180.138 168.137 180.279 168.652 180.284 169.228C180.279 169.809 180.138 170.327 179.86 170.781C179.586 171.23 179.208 171.582 178.724 171.835C178.241 172.089 177.696 172.216 177.091 172.216C176.481 172.216 175.931 172.089 175.443 171.835C174.96 171.582 174.581 171.23 174.308 170.781C174.034 170.327 173.898 169.809 173.898 169.228ZM174.996 169.228C174.996 169.619 175.084 169.968 175.26 170.275C175.441 170.578 175.69 170.815 176.007 170.986C176.329 171.157 176.691 171.24 177.091 171.235C177.487 171.24 177.843 171.157 178.16 170.986C178.478 170.815 178.727 170.578 178.907 170.275C179.088 169.968 179.181 169.619 179.186 169.228C179.181 168.842 179.088 168.496 178.907 168.188C178.727 167.875 178.478 167.634 178.16 167.463C177.843 167.292 177.487 167.207 177.091 167.207C176.691 167.207 176.329 167.292 176.007 167.463C175.69 167.634 175.441 167.875 175.26 168.188C175.084 168.496 174.996 168.842 174.996 169.228ZM189.389 163.12C189.984 163.125 190.517 163.293 190.985 163.625C191.459 163.952 191.837 164.418 192.121 165.024H195.541V162.109H196.684V175.161H195.541V170.107H192.201C191.928 170.771 191.547 171.286 191.059 171.652C190.57 172.014 190.014 172.192 189.389 172.187C188.749 172.187 188.18 172.004 187.682 171.638C187.189 171.267 186.806 170.739 186.532 170.056C186.259 169.372 186.122 168.574 186.122 167.661C186.122 166.752 186.259 165.957 186.532 165.273C186.806 164.584 187.189 164.055 187.682 163.684C188.18 163.308 188.749 163.12 189.389 163.12ZM187.221 167.661C187.221 168.359 187.311 168.974 187.492 169.506C187.677 170.034 187.934 170.441 188.261 170.729C188.588 171.018 188.964 171.162 189.389 171.162C189.809 171.162 190.182 171.018 190.509 170.729C190.841 170.441 191.098 170.031 191.278 169.499C191.464 168.967 191.557 168.354 191.557 167.661C191.557 166.967 191.464 166.354 191.278 165.822C191.098 165.29 190.841 164.877 190.509 164.584C190.182 164.292 189.809 164.145 189.389 164.145C188.964 164.145 188.588 164.292 188.261 164.584C187.934 164.877 187.677 165.29 187.492 165.822C187.311 166.35 187.221 166.962 187.221 167.661ZM192.45 165.991C192.577 166.508 192.641 167.065 192.641 167.661C192.641 168.193 192.592 168.691 192.494 169.155H195.541V165.991H192.45ZM34.6455 197.131H33.5176V190.393H31.6426V196.458H30.5586V184.402H31.6426V189.412H33.5176V184.109H34.6455V197.131ZM24.1865 185.706H25.3291V192.737C26.8232 192.727 28.2441 192.585 29.5918 192.312L29.7383 193.337C28.8789 193.494 28.0659 193.604 27.2993 193.667C26.5376 193.73 25.7686 193.762 24.9922 193.762H24.1865V185.706ZM46.4891 186.101C46.4891 186.941 46.4671 187.688 46.4231 188.342C46.3841 188.992 46.2815 189.729 46.1155 190.554H48.0564V191.506H42.6805V197.161H41.5232V191.506H36.1912V190.554H44.951C45.1268 189.724 45.2366 188.984 45.2806 188.335C45.3245 187.681 45.3465 186.936 45.3465 186.101V185.911H37.6854V184.958H46.4891V186.101ZM53.3375 186.16C53.3326 186.77 53.4645 187.351 53.733 187.903C54.0064 188.455 54.3873 188.94 54.8756 189.36C55.3639 189.775 55.9254 190.09 56.5602 190.305L55.9156 191.199C55.1979 190.93 54.568 190.54 54.026 190.027C53.484 189.514 53.0714 188.916 52.7882 188.232C52.5099 189.014 52.0826 189.695 51.5064 190.276C50.9352 190.857 50.2564 191.296 49.4703 191.594L48.8404 190.657C49.5045 190.422 50.088 190.085 50.5909 189.646C51.0987 189.202 51.4918 188.684 51.7701 188.093C52.0484 187.498 52.19 186.868 52.1949 186.204V184.856H53.3375V186.16ZM50.9645 194.67C50.9645 194.153 51.1378 193.711 51.4845 193.345C51.836 192.974 52.339 192.693 52.9933 192.502C53.6476 192.307 54.4264 192.209 55.3297 192.209C56.2281 192.209 57.0045 192.307 57.6588 192.502C58.3131 192.693 58.816 192.974 59.1676 193.345C59.5191 193.711 59.6949 194.153 59.6949 194.67C59.6949 195.183 59.5191 195.62 59.1676 195.981C58.816 196.348 58.3131 196.626 57.6588 196.816C57.0045 197.007 56.2281 197.102 55.3297 197.102C54.4264 197.102 53.6476 197.007 52.9933 196.816C52.339 196.626 51.836 196.348 51.4845 195.981C51.1378 195.62 50.9645 195.183 50.9645 194.67ZM52.107 194.67C52.107 194.978 52.234 195.247 52.4879 195.476C52.7418 195.701 53.108 195.874 53.5865 195.996C54.0699 196.118 54.6388 196.179 55.2931 196.179C55.962 196.179 56.5406 196.118 57.0289 195.996C57.5172 195.879 57.8932 195.708 58.1568 195.483C58.4205 195.254 58.5523 194.983 58.5523 194.67C58.5523 194.348 58.4229 194.072 58.1642 193.843C57.9054 193.608 57.5318 193.43 57.0436 193.308C56.5602 193.181 55.9889 193.118 55.3297 193.118C54.6656 193.118 54.0895 193.181 53.6012 193.308C53.1178 193.43 52.7467 193.608 52.4879 193.843C52.234 194.072 52.107 194.348 52.107 194.67ZM55.5934 186.907H58.4937V184.109H59.651V191.829H58.4937V187.859H55.5934V186.907ZM68.7406 186.233C68.7357 187.078 68.7113 187.888 68.6674 188.665C68.6234 189.441 68.5209 190.354 68.3598 191.404L67.2025 191.301C67.4564 189.749 67.5834 188.23 67.5834 186.746V186.497H62.1195V185.559H68.7406V186.233ZM61.3871 193.308C62.6322 193.298 63.5697 193.286 64.1996 193.271V189.28H65.3275V193.235C66.934 193.176 68.3598 193.074 69.6049 192.927L69.6635 193.792C67.6469 194.104 65.142 194.26 62.1488 194.26H61.5336L61.3871 193.308ZM70.4252 184.109H71.5678V189.558H73.6771V190.554H71.5678V197.131H70.4252V184.109ZM82.1299 186.16C82.125 186.77 82.2568 187.351 82.5254 187.903C82.7988 188.455 83.1797 188.94 83.668 189.36C84.1562 189.775 84.7178 190.09 85.3525 190.305L84.708 191.199C83.9902 190.93 83.3604 190.54 82.8184 190.027C82.2764 189.514 81.8638 188.916 81.5806 188.232C81.3022 189.014 80.875 189.695 80.2988 190.276C79.7275 190.857 79.0488 191.296 78.2627 191.594L77.6328 190.657C78.2969 190.422 78.8804 190.085 79.3833 189.646C79.8911 189.202 80.2842 188.684 80.5625 188.093C80.8408 187.498 80.9824 186.868 80.9873 186.204V184.856H82.1299V186.16ZM79.7568 194.67C79.7568 194.153 79.9302 193.711 80.2769 193.345C80.6284 192.974 81.1313 192.693 81.7856 192.502C82.4399 192.307 83.2188 192.209 84.1221 192.209C85.0205 192.209 85.7969 192.307 86.4512 192.502C87.1055 192.693 87.6084 192.974 87.96 193.345C88.3115 193.711 88.4873 194.153 88.4873 194.67C88.4873 195.183 88.3115 195.62 87.96 195.981C87.6084 196.348 87.1055 196.626 86.4512 196.816C85.7969 197.007 85.0205 197.102 84.1221 197.102C83.2188 197.102 82.4399 197.007 81.7856 196.816C81.1313 196.626 80.6284 196.348 80.2769 195.981C79.9302 195.62 79.7568 195.183 79.7568 194.67ZM80.8994 194.67C80.8994 194.978 81.0264 195.247 81.2803 195.476C81.5342 195.701 81.9004 195.874 82.3789 195.996C82.8623 196.118 83.4312 196.179 84.0854 196.179C84.7544 196.179 85.333 196.118 85.8213 195.996C86.3096 195.879 86.6855 195.708 86.9492 195.483C87.2129 195.254 87.3447 194.983 87.3447 194.67C87.3447 194.348 87.2153 194.072 86.9565 193.843C86.6978 193.608 86.3242 193.43 85.8359 193.308C85.3525 193.181 84.7812 193.118 84.1221 193.118C83.458 193.118 82.8818 193.181 82.3936 193.308C81.9102 193.43 81.5391 193.608 81.2803 193.843C81.0264 194.072 80.8994 194.348 80.8994 194.67ZM84.3857 186.907H87.2861V184.109H88.4434V191.829H87.2861V187.859H84.3857V186.907ZM100.829 188.708H91.9373V184.373H93.0799V187.756H100.829V188.708ZM90.3113 190.232H102.191V191.184H90.3113V190.232ZM91.7469 194.714C91.7469 194.211 91.9251 193.784 92.2815 193.433C92.638 193.076 93.1531 192.808 93.827 192.627C94.5008 192.446 95.3064 192.356 96.2439 192.356C97.1717 192.356 97.97 192.446 98.639 192.627C99.3079 192.808 99.8206 193.076 100.177 193.433C100.538 193.784 100.721 194.211 100.726 194.714C100.721 195.212 100.538 195.637 100.177 195.989C99.8206 196.345 99.3079 196.614 98.639 196.794C97.97 196.98 97.1717 197.073 96.2439 197.073C95.3064 197.073 94.5008 196.98 93.827 196.794C93.1531 196.614 92.638 196.345 92.2815 195.989C91.9251 195.637 91.7469 195.212 91.7469 194.714ZM92.9187 194.714C92.9139 195.017 93.0433 195.278 93.3069 195.498C93.5706 195.713 93.9515 195.879 94.4495 195.996C94.9524 196.118 95.5506 196.179 96.2439 196.179C96.9275 196.179 97.5184 196.118 98.0164 195.996C98.5145 195.879 98.8978 195.713 99.1663 195.498C99.4349 195.278 99.5691 195.017 99.5691 194.714C99.5643 194.255 99.2688 193.901 98.6829 193.652C98.097 193.398 97.284 193.269 96.2439 193.264C95.1941 193.269 94.3763 193.398 93.7903 193.652C93.2044 193.901 92.9139 194.255 92.9187 194.714ZM108.908 184.343C109.87 184.343 110.695 184.431 111.383 184.607C112.072 184.778 112.597 185.032 112.958 185.369C113.324 185.701 113.507 186.106 113.507 186.584C113.507 187.073 113.324 187.488 112.958 187.83C112.597 188.171 112.072 188.43 111.383 188.606C110.7 188.777 109.875 188.865 108.908 188.87C107.936 188.865 107.106 188.777 106.418 188.606C105.729 188.43 105.202 188.171 104.836 187.83C104.474 187.488 104.294 187.073 104.294 186.584C104.294 186.106 104.474 185.701 104.836 185.369C105.202 185.032 105.729 184.778 106.418 184.607C107.111 184.431 107.941 184.343 108.908 184.343ZM102.975 189.749H114.84V190.686H102.975V189.749ZM104.411 191.814H113.317V194.729H105.583V196.077H113.713V196.985H104.44V193.879H112.189V192.693H104.411V191.814ZM105.495 186.584C105.49 187.034 105.785 187.38 106.381 187.625C106.977 187.869 107.819 187.991 108.908 187.991C109.992 187.991 110.832 187.871 111.427 187.632C112.028 187.388 112.331 187.039 112.336 186.584C112.336 186.301 112.199 186.057 111.925 185.852C111.657 185.647 111.264 185.488 110.746 185.376C110.233 185.264 109.621 185.208 108.908 185.208C108.19 185.208 107.575 185.264 107.062 185.376C106.549 185.488 106.159 185.647 105.89 185.852C105.622 186.057 105.49 186.301 105.495 186.584ZM131.028 195.461H119.104V194.509H124.465V191.697H120.51V185.032H121.667V187.39H128.435V185.032H129.563V191.697H125.593V194.509H131.028V195.461ZM128.435 190.759V188.328H121.667V190.759H128.435ZM136.177 186.584C136.177 187.146 136.309 187.683 136.572 188.196C136.841 188.708 137.217 189.16 137.7 189.551C138.184 189.937 138.74 190.232 139.37 190.437L138.828 191.345C138.081 191.096 137.432 190.725 136.88 190.232C136.328 189.739 135.911 189.163 135.627 188.503C135.349 189.25 134.922 189.905 134.346 190.466C133.77 191.023 133.091 191.443 132.31 191.726L131.724 190.803C132.368 190.583 132.942 190.261 133.445 189.836C133.948 189.412 134.338 188.918 134.617 188.357C134.9 187.795 135.044 187.205 135.049 186.584V186.028H132.075V185.076H139.106V186.028H136.177V186.584ZM133.452 194.7C133.452 194.202 133.625 193.777 133.972 193.425C134.319 193.069 134.817 192.798 135.466 192.612C136.116 192.422 136.885 192.327 137.773 192.327C138.662 192.327 139.429 192.422 140.073 192.612C140.718 192.798 141.211 193.069 141.553 193.425C141.895 193.777 142.065 194.202 142.065 194.7C142.065 195.203 141.895 195.635 141.553 195.996C141.211 196.357 140.718 196.631 140.073 196.816C139.429 197.007 138.662 197.102 137.773 197.102C136.885 197.102 136.116 197.007 135.466 196.816C134.817 196.631 134.319 196.357 133.972 195.996C133.625 195.635 133.452 195.203 133.452 194.7ZM134.609 194.7C134.604 195.007 134.727 195.273 134.976 195.498C135.229 195.718 135.591 195.886 136.06 196.003C136.533 196.121 137.092 196.179 137.737 196.179C138.401 196.179 138.972 196.121 139.451 196.003C139.934 195.891 140.305 195.725 140.564 195.505C140.823 195.281 140.952 195.012 140.952 194.7C140.952 194.397 140.823 194.138 140.564 193.923C140.31 193.704 139.944 193.538 139.465 193.425C138.992 193.308 138.428 193.25 137.773 193.25C137.124 193.25 136.56 193.308 136.082 193.425C135.603 193.538 135.237 193.704 134.983 193.923C134.729 194.143 134.604 194.402 134.609 194.7ZM140.806 184.109H141.948V187.434H143.911V188.401H141.948V191.975H140.806V184.109ZM154.612 187.449H156.575V188.43H154.612V191.682H153.47V184.109H154.612V187.449ZM144.461 185.457H147.771V183.992H148.914V185.457H152.224V186.409H144.461V185.457ZM145.208 189.294C145.208 188.835 145.337 188.435 145.596 188.093C145.855 187.747 146.221 187.48 146.695 187.295C147.168 187.104 147.718 187.009 148.343 187.009C148.963 187.009 149.507 187.104 149.976 187.295C150.45 187.48 150.816 187.747 151.075 188.093C151.338 188.435 151.472 188.835 151.477 189.294C151.472 189.753 151.338 190.156 151.075 190.503C150.816 190.85 150.45 191.116 149.976 191.301C149.502 191.487 148.958 191.58 148.343 191.58C147.718 191.58 147.168 191.487 146.695 191.301C146.221 191.116 145.855 190.85 145.596 190.503C145.337 190.156 145.208 189.753 145.208 189.294ZM146.306 189.294C146.306 189.573 146.389 189.819 146.555 190.034C146.721 190.244 146.958 190.408 147.266 190.525C147.578 190.642 147.937 190.701 148.343 190.701C148.743 190.701 149.097 190.642 149.405 190.525C149.717 190.408 149.959 190.244 150.13 190.034C150.301 189.819 150.388 189.573 150.393 189.294C150.388 189.016 150.298 188.772 150.122 188.562C149.951 188.347 149.712 188.184 149.405 188.071C149.097 187.954 148.743 187.898 148.343 187.903C147.937 187.898 147.581 187.954 147.273 188.071C146.966 188.184 146.726 188.347 146.555 188.562C146.389 188.772 146.306 189.016 146.306 189.294ZM146.38 192.253H147.522V193.645H153.47V192.253H154.612V196.956H146.38V192.253ZM153.47 196.033V194.553H147.522V196.033H153.47ZM167.833 197.131H166.69V184.109H167.833V197.131ZM157.945 185.398H159.073V192.781C160.147 192.771 161.194 192.72 162.215 192.627C163.235 192.529 164.263 192.371 165.298 192.151L165.46 193.132C164.351 193.362 163.272 193.528 162.222 193.63C161.177 193.728 160.103 193.777 159 193.777H157.945V185.398ZM179.837 189.265H182.02V190.232H179.837V197.161H178.695V184.109H179.837V189.265ZM170.33 185.383H176.41V186.335H171.473V192.927C172.704 192.922 173.77 192.886 174.674 192.817C175.577 192.749 176.497 192.629 177.435 192.458L177.581 193.455C176.615 193.63 175.667 193.748 174.74 193.806C173.817 193.865 172.689 193.894 171.356 193.894H170.33V185.383ZM183.8 196.033C183.629 196.033 183.47 195.989 183.324 195.901C183.182 195.813 183.068 195.698 182.98 195.557C182.897 195.41 182.858 195.251 182.863 195.081C182.858 194.915 182.897 194.761 182.98 194.619C183.068 194.473 183.182 194.358 183.324 194.275C183.47 194.187 183.629 194.143 183.8 194.143C183.966 194.143 184.12 194.185 184.261 194.268C184.408 194.351 184.523 194.463 184.606 194.604C184.694 194.746 184.738 194.9 184.738 195.066C184.738 195.33 184.647 195.557 184.467 195.747C184.286 195.933 184.064 196.028 183.8 196.033Z" fill="#777E8D"/>
<rect x="21.9287" y="28" width="52.143" height="52.143" rx="10" fill="#144D6E"/>
<path d="M46.6319 54.984L44.7417 53.1264C44.5027 52.8875 44.204 52.768 43.8455 52.768C43.487 52.768 43.1774 52.8983 42.9167 53.159C42.6777 53.398 42.5582 53.7022 42.5582 54.0715C42.5582 54.4409 42.6777 54.7451 42.9167 54.984L45.7194 57.7867C45.9801 58.0474 46.2843 58.1778 46.6319 58.1778C46.9795 58.1778 47.2837 58.0474 47.5444 57.7867L53.0846 52.2465C53.3453 51.9858 53.4702 51.6817 53.4593 51.334C53.4485 50.9864 53.3236 50.6822 53.0846 50.4215C52.8239 50.1608 52.5143 50.025 52.1558 50.0142C51.7973 50.0033 51.4877 50.1282 51.227 50.3889L46.6319 54.984ZM42.9819 66.7814L41.0917 63.5876L37.5068 62.8055C37.181 62.7403 36.9202 62.5719 36.7247 62.3004C36.5292 62.0288 36.4531 61.73 36.4966 61.4042L36.8551 57.7216L34.4109 54.9189C34.1936 54.6799 34.085 54.3974 34.085 54.0715C34.085 53.7456 34.1936 53.4632 34.4109 53.2242L36.8551 50.4215L36.4966 46.7389C36.4531 46.413 36.5292 46.1143 36.7247 45.8427C36.9202 45.5711 37.181 45.4028 37.5068 45.3376L41.0917 44.5554L42.9819 41.3617C43.1557 41.0792 43.3947 40.8891 43.6988 40.7914C44.003 40.6936 44.3072 40.7099 44.6113 40.8403L48.0006 42.2742L51.3899 40.8403C51.6941 40.7099 51.9983 40.6936 52.3024 40.7914C52.6066 40.8891 52.8456 41.0792 53.0194 41.3617L54.9096 44.5554L58.4944 45.3376C58.8203 45.4028 59.081 45.5711 59.2766 45.8427C59.4721 46.1143 59.5481 46.413 59.5047 46.7389L59.1462 50.4215L61.5904 53.2242C61.8077 53.4632 61.9163 53.7456 61.9163 54.0715C61.9163 54.3974 61.8077 54.6799 61.5904 54.9189L59.1462 57.7216L59.5047 61.4042C59.5481 61.73 59.4721 62.0288 59.2766 62.3004C59.081 62.5719 58.8203 62.7403 58.4944 62.8055L54.9096 63.5876L53.0194 66.7814C52.8456 67.0638 52.6066 67.2539 52.3024 67.3517C51.9983 67.4495 51.6941 67.4332 51.3899 67.3028L48.0006 65.8689L44.6113 67.3028C44.3072 67.4332 44.003 67.4495 43.6988 67.3517C43.3947 67.2539 43.1557 67.0638 42.9819 66.7814ZM44.6765 64.435L48.0006 63.001L51.3899 64.435L53.2149 61.3064L56.7998 60.4591L56.4739 56.809L58.8855 54.0715L56.4739 51.2689L56.7998 47.6188L53.2149 46.8367L51.3247 43.7081L48.0006 45.142L44.6113 43.7081L42.7863 46.8367L39.2015 47.6188L39.5274 51.2689L37.1158 54.0715L39.5274 56.809L39.2015 60.5242L42.7863 61.3064L44.6765 64.435Z" fill="white"/>
</svg>
