<svg width="231" height="250" viewBox="0 0 231 250" fill="none" xmlns="http://www.w3.org/2000/svg">
<rect width="231" height="250" rx="9" fill="#F2F6F8"/>
<path d="M37.7324 118.161H35.376V112.112H32.6113V110.201H35.376V105.841H37.7324V118.161ZM23.4082 114.357C24.305 114.079 25.0565 113.671 25.6626 113.133C26.2687 112.589 26.7202 111.973 27.0171 111.287C27.314 110.594 27.4655 109.873 27.4717 109.125V108.865H24.0762V106.973H33.2422V108.865H29.8838V109.144C29.8776 109.818 30.0168 110.479 30.3013 111.129C30.5858 111.772 31.0187 112.354 31.6001 112.873C32.1815 113.386 32.902 113.782 33.7617 114.061L32.5928 115.935C31.6836 115.638 30.9012 115.202 30.2456 114.626C29.5962 114.045 29.0828 113.365 28.7056 112.585C28.3159 113.458 27.7778 114.212 27.0913 114.849C26.4048 115.486 25.5791 115.965 24.6143 116.287L23.4082 114.357ZM26.5254 117.085H28.9004V120.518H38.1406V122.41H26.5254V117.085ZM55.3594 116.046H48.9951V118.959H46.6572V116.046H39.9033V114.172H55.3594V116.046ZM41.7217 117.493H44.0781V120.518H53.6523V122.41H41.7217V117.493ZM41.833 106.564H53.374V112.78H41.833V106.564ZM51.0547 110.943V108.401H44.1523V110.943H51.0547ZM74.916 122.707H72.5225V105.822H74.916V122.707ZM60.7773 117.92C62.2184 117.24 63.4059 116.482 64.3398 115.647C65.2799 114.812 65.9974 113.887 66.4922 112.873C66.9932 111.853 67.3086 110.708 67.4385 109.44H61.6865V107.585H69.8506C69.8444 109.391 69.6001 111.033 69.1177 112.511C68.6353 113.989 67.8158 115.347 66.6592 116.584C65.5088 117.821 63.9626 118.897 62.0205 119.812L60.7773 117.92ZM86.0674 106.268C86.0674 106.83 86.2869 107.372 86.7261 107.891C87.1652 108.411 87.8146 108.856 88.6743 109.227C89.534 109.598 90.57 109.849 91.7822 109.979L91.0029 111.76C89.5557 111.599 88.3032 111.259 87.2456 110.739C86.188 110.22 85.384 109.567 84.8335 108.782C84.2769 109.567 83.4728 110.22 82.4214 110.739C81.37 111.259 80.1299 111.599 78.7012 111.76L77.9033 109.979C79.1156 109.849 80.1515 109.598 81.0112 109.227C81.8771 108.856 82.5296 108.411 82.9688 107.891C83.4079 107.372 83.6305 106.83 83.6367 106.268V105.915H86.0674V106.268ZM77.1426 112.465H92.543V114.32H86.0117V115.434H90.6689V119.794H81.2617V120.814H91.1143V122.596H78.9424V118.124H88.3311V117.233H78.9238V115.434H83.6367V114.32H77.1426V112.465ZM99.7979 110.424C99.7917 111.308 99.9463 112.196 100.262 113.086C100.577 113.977 101.044 114.79 101.663 115.526C102.287 116.262 103.045 116.838 103.936 117.252L102.618 119.107C101.709 118.687 100.917 118.078 100.243 117.28C99.569 116.476 99.034 115.548 98.6382 114.497C98.2485 115.647 97.7043 116.664 97.0054 117.549C96.3127 118.427 95.4932 119.089 94.5469 119.534L93.1738 117.66C94.0768 117.24 94.8468 116.643 95.4839 115.87C96.1209 115.097 96.6003 114.237 96.9219 113.291C97.2497 112.338 97.4167 111.382 97.4229 110.424V109.385H93.8418V107.455H103.193V109.385H99.7979V110.424ZM104.511 105.822H106.886V112.261H109.372V114.246H106.886V122.707H104.511V105.822ZM120.932 109.645C120.925 110.702 121.083 111.723 121.405 112.706C121.726 113.689 122.209 114.565 122.852 115.332C123.495 116.098 124.278 116.677 125.199 117.066L123.808 118.959C122.868 118.532 122.057 117.92 121.377 117.122C120.703 116.324 120.168 115.387 119.772 114.311C119.382 115.486 118.835 116.51 118.13 117.382C117.425 118.248 116.571 118.91 115.569 119.367L114.141 117.4C115.093 116.998 115.897 116.402 116.553 115.61C117.215 114.812 117.709 113.9 118.037 112.873C118.365 111.84 118.532 110.764 118.538 109.645V107.121H120.932V109.645ZM126.108 105.822H128.502V122.744H126.108V105.822ZM138.392 116.343C139.622 116.343 140.689 116.47 141.592 116.723C142.495 116.971 143.191 117.335 143.68 117.818C144.168 118.294 144.416 118.866 144.422 119.534C144.416 120.19 144.168 120.756 143.68 121.232C143.191 121.714 142.492 122.079 141.583 122.327C140.68 122.58 139.616 122.707 138.392 122.707C137.173 122.707 136.109 122.58 135.2 122.327C134.297 122.079 133.601 121.714 133.113 121.232C132.624 120.756 132.38 120.19 132.38 119.534C132.38 118.866 132.624 118.294 133.113 117.818C133.601 117.335 134.297 116.971 135.2 116.723C136.109 116.47 137.173 116.343 138.392 116.343ZM130.821 113.355H136.573V110.405H138.911V113.355H146.147V115.267H130.821V113.355ZM132.547 106.583H144.329V107.956V108.448C144.329 109.19 144.298 109.876 144.236 110.507C144.174 111.138 144.045 111.797 143.847 112.483L141.527 112.261C141.701 111.568 141.815 110.937 141.871 110.368C141.926 109.793 141.96 109.15 141.973 108.438H132.547V106.583ZM134.736 119.534C134.73 119.986 135.042 120.329 135.673 120.564C136.31 120.793 137.216 120.907 138.392 120.907C139.567 120.907 140.473 120.793 141.11 120.564C141.747 120.329 142.065 119.986 142.065 119.534C142.065 119.07 141.75 118.718 141.119 118.477C140.494 118.229 139.607 118.105 138.457 118.105C137.257 118.105 136.335 118.226 135.692 118.467C135.049 118.708 134.73 119.064 134.736 119.534Z" fill="black"/>
<path d="M34.5869 148.019H33.4883V144.489H31.6133V147.536H30.5439V140.373H31.6133V143.522H33.4883V140.124H34.5869V148.019ZM24.1865 141.164H25.3291V145.836C26.0859 145.832 26.8037 145.802 27.4824 145.749C28.166 145.69 28.8838 145.587 29.6357 145.441L29.7383 146.393C28.9277 146.554 28.1538 146.664 27.4165 146.723C26.6841 146.776 25.8809 146.803 25.0068 146.803H24.1865V141.164ZM25.915 150.67C25.9102 150.163 26.0835 149.726 26.4351 149.359C26.7866 148.988 27.2896 148.705 27.9438 148.51C28.603 148.31 29.3818 148.209 30.2803 148.209C31.1738 148.209 31.9478 148.31 32.6021 148.51C33.2612 148.705 33.769 148.988 34.1255 149.359C34.4819 149.726 34.6602 150.163 34.6602 150.67C34.6602 151.173 34.4819 151.608 34.1255 151.974C33.769 152.34 33.2612 152.619 32.6021 152.809C31.9478 153.004 31.1738 153.102 30.2803 153.102C29.3818 153.102 28.603 153.004 27.9438 152.809C27.2896 152.619 26.7866 152.34 26.4351 151.974C26.0835 151.608 25.9102 151.173 25.915 150.67ZM27.0576 150.67C27.0527 150.978 27.1797 151.247 27.4385 151.476C27.6973 151.701 28.0659 151.874 28.5444 151.996C29.0278 152.118 29.5942 152.179 30.2437 152.179C30.9077 152.179 31.4839 152.118 31.9722 151.996C32.4653 151.879 32.8438 151.708 33.1074 151.483C33.376 151.254 33.5127 150.983 33.5176 150.67C33.5127 150.353 33.3784 150.08 33.1147 149.85C32.856 149.616 32.4873 149.438 32.0088 149.315C31.5303 149.193 30.9663 149.132 30.3169 149.132C29.6528 149.132 29.0742 149.193 28.5811 149.315C28.0879 149.438 27.7095 149.613 27.4458 149.843C27.1821 150.072 27.0527 150.348 27.0576 150.67ZM48.0711 147.477H36.1912V146.554H41.5672V145.031H37.7V140.724H46.5916V141.647H38.8279V144.093H46.6795V145.031H42.6805V146.554H48.0711V147.477ZM37.6268 150.773C37.6268 150.28 37.805 149.86 38.1614 149.513C38.5179 149.162 39.033 148.893 39.7068 148.708C40.3807 148.522 41.1863 148.429 42.1238 148.429C43.0516 148.429 43.8499 148.522 44.5188 148.708C45.1878 148.893 45.7005 149.162 46.0569 149.513C46.4183 149.86 46.6014 150.28 46.6062 150.773C46.6014 151.271 46.4207 151.693 46.0643 152.04C45.7078 152.392 45.1927 152.66 44.5188 152.846C43.8499 153.031 43.0516 153.126 42.1238 153.131C41.1863 153.126 40.3807 153.031 39.7068 152.846C39.033 152.66 38.5179 152.392 38.1614 152.04C37.805 151.688 37.6268 151.266 37.6268 150.773ZM38.7986 150.773C38.7937 151.071 38.9207 151.33 39.1795 151.549C39.4432 151.764 39.8216 151.928 40.3147 152.04C40.8079 152.152 41.3963 152.208 42.0799 152.208C43.1346 152.208 43.9573 152.084 44.5481 151.835C45.1438 151.586 45.4441 151.232 45.449 150.773C45.449 150.475 45.3147 150.219 45.0462 150.004C44.7776 149.789 44.3943 149.625 43.8963 149.513C43.3982 149.396 42.8074 149.337 42.1238 149.337C41.4305 149.337 40.8323 149.396 40.3294 149.513C39.8313 149.625 39.4505 149.789 39.1868 150.004C38.9231 150.219 38.7937 150.475 38.7986 150.773ZM54.7437 148.341C55.6715 148.341 56.4771 148.437 57.1607 148.627C57.8492 148.812 58.379 149.086 58.7501 149.447C59.1261 149.804 59.3141 150.231 59.3141 150.729C59.3141 151.222 59.1261 151.647 58.7501 152.003C58.379 152.36 57.8492 152.631 57.1607 152.816C56.4771 153.007 55.6715 153.102 54.7437 153.102C53.816 153.102 53.0079 153.007 52.3194 152.816C51.6358 152.631 51.1085 152.36 50.7374 152.003C50.3712 151.647 50.1881 151.222 50.1881 150.729C50.1881 150.231 50.3712 149.804 50.7374 149.447C51.1085 149.086 51.6358 148.812 52.3194 148.627C53.0079 148.437 53.816 148.341 54.7437 148.341ZM48.8697 146.188H53.777V143.668H54.9049V146.188H60.7203V147.125H48.8697V146.188ZM50.276 140.783H59.2115V141.881C59.2066 142.599 59.1847 143.207 59.1456 143.705C59.1065 144.198 59.0064 144.743 58.8453 145.338L57.7174 145.207C57.8736 144.611 57.9713 144.076 58.0104 143.603C58.0494 143.124 58.0689 142.55 58.0689 141.881V141.72H50.276V140.783ZM51.3307 150.729C51.3307 151.027 51.4698 151.288 51.7481 151.513C52.0265 151.732 52.422 151.901 52.9347 152.018C53.4522 152.135 54.0553 152.194 54.7437 152.194C55.4322 152.194 56.0328 152.135 56.5455 152.018C57.0631 151.901 57.461 151.732 57.7394 151.513C58.0226 151.288 58.1666 151.027 58.1715 150.729C58.1666 150.421 58.0226 150.155 57.7394 149.931C57.461 149.706 57.0631 149.533 56.5455 149.411C56.0328 149.284 55.4322 149.22 54.7437 149.22C54.0553 149.22 53.4522 149.284 52.9347 149.411C52.422 149.533 52.0265 149.706 51.7481 149.931C51.4698 150.155 51.3307 150.421 51.3307 150.729ZM73.4428 151.461H61.5189V150.495H66.8949V147.331H68.0521V150.495H73.4428V151.461ZM62.1049 146.862C62.852 146.735 63.5941 146.461 64.3314 146.042C65.0736 145.617 65.6815 145.102 66.1552 144.496C66.6288 143.886 66.8656 143.249 66.8656 142.584V142.262H62.5004V141.295H72.4174V142.262H68.0521V142.584C68.0521 143.249 68.2914 143.883 68.7699 144.489C69.2484 145.089 69.8588 145.597 70.601 146.012C71.348 146.427 72.1049 146.696 72.8715 146.818L72.4027 147.726C71.724 147.589 71.0575 147.362 70.4032 147.045C69.7538 146.723 69.1703 146.325 68.6527 145.851C68.1352 145.373 67.7421 144.843 67.4735 144.262C67.205 144.848 66.8119 145.385 66.2943 145.873C65.7816 146.356 65.2006 146.762 64.5512 147.089C63.9066 147.416 63.2523 147.648 62.5883 147.785L62.1049 146.862ZM84.9494 153.131H83.7922V140.109H84.9494V153.131ZM74.3439 149.748C76.0822 148.922 77.4128 147.897 78.3356 146.671C79.2634 145.446 79.7932 144.044 79.925 142.467H74.9445V141.53H81.0969C81.0871 143.493 80.5891 145.258 79.6027 146.825C78.6164 148.393 77.0734 149.679 74.9738 150.685L74.3439 149.748ZM97.9941 153.131H96.8955V140.109H97.9941V153.131ZM86.832 149.484C88.2236 148.664 89.2881 147.682 90.0254 146.54C90.7676 145.392 91.1973 144.123 91.3145 142.731H87.418V141.779H92.457C92.457 142.448 92.3984 143.102 92.2812 143.742H94.2588V140.46H95.3574V152.472H94.2588V147.96H91.8418V147.008H94.2588V144.694H92.0542C91.7319 145.832 91.1973 146.874 90.4502 147.821C89.7031 148.769 88.7314 149.601 87.5352 150.319L86.832 149.484ZM110.277 153.131H109.12V140.109H110.277V153.131ZM99.6717 149.748C101.41 148.922 102.741 147.897 103.663 146.671C104.591 145.446 105.121 144.044 105.253 142.467H100.272V141.53H106.425C106.415 143.493 105.917 145.258 104.93 146.825C103.944 148.393 102.401 149.679 100.302 150.685L99.6717 149.748ZM118.708 140.68C118.708 141.198 118.93 141.679 119.374 142.123C119.818 142.567 120.4 142.938 121.117 143.236C121.84 143.534 122.599 143.732 123.395 143.83L122.985 144.708C122.287 144.616 121.615 144.452 120.971 144.218C120.331 143.983 119.76 143.688 119.257 143.332C118.754 142.97 118.371 142.562 118.107 142.108C117.838 142.562 117.45 142.97 116.942 143.332C116.44 143.688 115.868 143.983 115.229 144.218C114.589 144.452 113.922 144.616 113.229 144.708L112.834 143.83C113.629 143.732 114.386 143.534 115.104 143.236C115.827 142.938 116.41 142.567 116.855 142.123C117.299 141.679 117.521 141.198 117.521 140.68V140.182H118.708V140.68ZM112.174 145.558H124.04V146.496H118.664V147.799H122.516V150.758H114.782V152.077H122.912V152.985H113.639V149.894H121.388V148.708H113.61V147.799H117.521V146.496H112.174V145.558ZM129.204 143.61C129.204 144.357 129.352 145.104 129.65 145.851C129.953 146.593 130.361 147.257 130.873 147.843C131.391 148.429 131.957 148.874 132.573 149.176L131.87 150.099C131.152 149.728 130.507 149.179 129.936 148.451C129.37 147.724 128.942 146.906 128.654 145.998C128.366 146.959 127.932 147.829 127.35 148.605C126.769 149.376 126.113 149.958 125.38 150.348L124.648 149.425C125.278 149.118 125.851 148.656 126.369 148.041C126.892 147.426 127.304 146.73 127.607 145.954C127.914 145.172 128.071 144.391 128.076 143.61V141.237H129.204V143.61ZM133.774 140.109H134.916V145.397H137.099V146.393H134.916V153.131H133.774V140.109ZM152.847 147.272H140.967V146.305H152.847V147.272ZM142.402 150.758C142.402 150.265 142.581 149.843 142.937 149.491C143.293 149.14 143.809 148.874 144.482 148.693C145.156 148.507 145.962 148.415 146.899 148.415C147.827 148.415 148.625 148.507 149.294 148.693C149.963 148.874 150.476 149.14 150.833 149.491C151.194 149.843 151.377 150.265 151.382 150.758C151.377 151.256 151.196 151.681 150.84 152.033C150.483 152.384 149.968 152.65 149.294 152.831C148.625 153.012 147.827 153.102 146.899 153.102C145.962 153.102 145.156 153.012 144.482 152.831C143.809 152.65 143.293 152.384 142.937 152.033C142.581 151.681 142.402 151.256 142.402 150.758ZM142.476 140.636H151.367V141.603H143.604V144.123H151.455V145.06H142.476V140.636ZM143.574 150.758C143.569 151.061 143.699 151.32 143.962 151.535C144.226 151.75 144.607 151.913 145.105 152.025C145.608 152.138 146.206 152.194 146.899 152.194C147.588 152.194 148.181 152.138 148.679 152.025C149.177 151.913 149.558 151.75 149.822 151.535C150.09 151.32 150.225 151.061 150.225 150.758C150.225 150.46 150.09 150.204 149.822 149.989C149.553 149.77 149.17 149.604 148.672 149.491C148.179 149.374 147.588 149.313 146.899 149.308C146.206 149.313 145.608 149.374 145.105 149.491C144.607 149.604 144.226 149.77 143.962 149.989C143.699 150.204 143.569 150.46 143.574 150.758ZM162.984 148.341C163.912 148.341 164.717 148.437 165.401 148.627C166.089 148.812 166.619 149.086 166.99 149.447C167.366 149.804 167.554 150.231 167.554 150.729C167.554 151.222 167.366 151.647 166.99 152.003C166.619 152.36 166.089 152.631 165.401 152.816C164.717 153.007 163.912 153.102 162.984 153.102C162.056 153.102 161.248 153.007 160.56 152.816C159.876 152.631 159.349 152.36 158.978 152.003C158.611 151.647 158.428 151.222 158.428 150.729C158.428 150.231 158.611 149.804 158.978 149.447C159.349 149.086 159.876 148.812 160.56 148.627C161.248 148.437 162.056 148.341 162.984 148.341ZM157.11 146.188H162.017V143.668H163.145V146.188H168.961V147.125H157.11V146.188ZM158.516 140.783H167.452V141.881C167.447 142.599 167.425 143.207 167.386 143.705C167.347 144.198 167.247 144.743 167.086 145.338L165.958 145.207C166.114 144.611 166.212 144.076 166.251 143.603C166.29 143.124 166.309 142.55 166.309 141.881V141.72H158.516V140.783ZM159.571 150.729C159.571 151.027 159.71 151.288 159.988 151.513C160.267 151.732 160.662 151.901 161.175 152.018C161.692 152.135 162.296 152.194 162.984 152.194C163.672 152.194 164.273 152.135 164.786 152.018C165.303 151.901 165.701 151.732 165.98 151.513C166.263 151.288 166.407 151.027 166.412 150.729C166.407 150.421 166.263 150.155 165.98 149.931C165.701 149.706 165.303 149.533 164.786 149.411C164.273 149.284 163.672 149.22 162.984 149.22C162.296 149.22 161.692 149.284 161.175 149.411C160.662 149.533 160.267 149.706 159.988 149.931C159.71 150.155 159.571 150.421 159.571 150.729ZM180.511 149.645H179.369V140.124H180.511V149.645ZM170.067 144.225C170.067 143.61 170.213 143.061 170.506 142.577C170.804 142.094 171.212 141.715 171.729 141.442C172.252 141.168 172.835 141.032 173.48 141.032C174.124 141.032 174.705 141.168 175.223 141.442C175.741 141.715 176.148 142.094 176.446 142.577C176.744 143.061 176.893 143.61 176.893 144.225C176.893 144.845 176.744 145.399 176.446 145.888C176.148 146.376 175.741 146.757 175.223 147.03C174.705 147.299 174.124 147.433 173.48 147.433C172.835 147.433 172.252 147.299 171.729 147.03C171.212 146.757 170.804 146.376 170.506 145.888C170.213 145.399 170.067 144.845 170.067 144.225ZM171.195 144.225C171.19 144.65 171.285 145.031 171.48 145.368C171.681 145.7 171.954 145.958 172.301 146.144C172.652 146.33 173.045 146.422 173.48 146.422C173.91 146.422 174.298 146.33 174.644 146.144C174.991 145.958 175.265 145.7 175.465 145.368C175.665 145.031 175.765 144.65 175.765 144.225C175.765 143.805 175.665 143.432 175.465 143.104C175.265 142.772 174.991 142.514 174.644 142.328C174.298 142.138 173.91 142.042 173.48 142.042C173.045 142.042 172.652 142.135 172.301 142.321C171.954 142.506 171.681 142.765 171.48 143.097C171.285 143.429 171.19 143.805 171.195 144.225ZM172.103 148.678H173.246V151.886H180.921V152.853H172.103V148.678ZM190.297 144.108C190.292 144.792 190.438 145.485 190.736 146.188C191.039 146.891 191.449 147.528 191.967 148.1C192.484 148.666 193.056 149.098 193.681 149.396L193.021 150.304C192.294 149.948 191.637 149.411 191.051 148.693C190.465 147.975 190.026 147.172 189.733 146.283C189.533 146.913 189.262 147.514 188.92 148.085C188.578 148.656 188.188 149.162 187.748 149.601C187.313 150.036 186.854 150.377 186.371 150.626L185.668 149.718C186.288 149.416 186.864 148.961 187.396 148.356C187.934 147.75 188.361 147.072 188.678 146.32C189 145.568 189.164 144.831 189.169 144.108V142.409H186.137V141.457H193.227V142.409H190.297V144.108ZM194.823 140.109H195.966V145.382H198.148V146.364H195.966V153.131H194.823V140.109ZM30.3975 163.002C30.3975 163.486 30.3438 163.969 30.2363 164.453H33.166V162.124H34.3232V169.887H33.166V168.159H29.709V167.207H33.166V165.405H29.9214C29.4868 166.42 28.7764 167.297 27.79 168.034C26.8086 168.767 25.6074 169.326 24.1865 169.711L23.7324 168.789C24.792 168.496 25.7148 168.112 26.501 167.639C27.2871 167.16 27.9072 166.608 28.3613 165.983C28.8154 165.358 29.0815 164.677 29.1597 163.94H24.3916V163.002H30.3975ZM25.5635 170.458H34.3232V175.117H33.166V171.381H25.5635V170.458ZM42.1238 162.343C43.0857 162.343 43.9109 162.431 44.5994 162.607C45.2879 162.778 45.8128 163.032 46.1741 163.369C46.5403 163.701 46.7234 164.106 46.7234 164.584C46.7234 165.073 46.5403 165.488 46.1741 165.83C45.8128 166.171 45.2879 166.43 44.5994 166.606C43.9158 166.777 43.0906 166.865 42.1238 166.87C41.1521 166.865 40.3221 166.777 39.6336 166.606C38.9451 166.43 38.4178 166.171 38.0516 165.83C37.6902 165.488 37.5096 165.073 37.5096 164.584C37.5096 164.106 37.6902 163.701 38.0516 163.369C38.4178 163.032 38.9451 162.778 39.6336 162.607C40.327 162.431 41.157 162.343 42.1238 162.343ZM36.1912 167.749H48.0564V168.686H36.1912V167.749ZM37.6268 169.814H46.533V172.729H38.7986V174.077H46.9285V174.985H37.6561V171.879H45.4051V170.693H37.6268V169.814ZM38.7107 164.584C38.7059 165.034 39.0013 165.38 39.597 165.625C40.1927 165.869 41.035 165.991 42.1238 165.991C43.2078 165.991 44.0477 165.871 44.6434 165.632C45.2439 165.388 45.5467 165.039 45.5516 164.584C45.5516 164.301 45.4148 164.057 45.1414 163.852C44.8729 163.647 44.4798 163.488 43.9622 163.376C43.4495 163.264 42.8367 163.208 42.1238 163.208C41.4061 163.208 40.7908 163.264 40.2781 163.376C39.7654 163.488 39.3748 163.647 39.1062 163.852C38.8377 164.057 38.7059 164.301 38.7107 164.584ZM64.2436 173.461H52.3197V172.509H57.6811V169.697H53.726V163.032H54.8832V165.39H61.6508V163.032H62.7787V169.697H58.809V172.509H64.2436V173.461ZM61.6508 168.759V166.328H54.8832V168.759H61.6508ZM76.8928 170.488H73.7434V175.131H72.5861V170.488H69.2463V175.131H68.0598V170.488H64.9689V169.536H76.8928V170.488ZM66.3166 165.478C66.3166 164.907 66.507 164.409 66.8879 163.984C67.2736 163.554 67.8107 163.222 68.4992 162.988C69.1926 162.753 69.9934 162.636 70.9016 162.636C71.8098 162.636 72.6081 162.753 73.2966 162.988C73.9899 163.222 74.5271 163.554 74.9079 163.984C75.2937 164.409 75.4865 164.907 75.4865 165.478C75.4865 166.049 75.2937 166.547 74.9079 166.972C74.5271 167.397 73.9899 167.724 73.2966 167.954C72.6081 168.178 71.8098 168.291 70.9016 168.291C69.9934 168.291 69.1926 168.178 68.4992 167.954C67.8107 167.724 67.2736 167.397 66.8879 166.972C66.507 166.547 66.3166 166.049 66.3166 165.478ZM67.5031 165.478C67.4982 165.854 67.6374 166.186 67.9206 166.474C68.2038 166.757 68.6018 166.977 69.1145 167.133C69.632 167.29 70.2277 167.368 70.9016 167.368C71.5754 167.368 72.1687 167.29 72.6813 167.133C73.194 166.977 73.5944 166.757 73.8825 166.474C74.1706 166.191 74.3146 165.859 74.3146 165.478C74.3146 165.097 74.1706 164.763 73.8825 164.475C73.5944 164.187 73.194 163.964 72.6813 163.808C72.1687 163.652 71.5754 163.574 70.9016 163.574C70.2277 163.574 69.632 163.652 69.1145 163.808C68.6018 163.964 68.2038 164.187 67.9206 164.475C67.6374 164.763 67.4982 165.097 67.5031 165.478ZM87.8281 166.416H89.791V167.382H87.8281V171.879H86.6855V162.124H87.8281V166.416ZM77.6768 163.72H80.9873V162.124H82.1299V163.72H85.4404V164.658H77.6768V163.72ZM78.4238 167.807C78.4238 167.319 78.5532 166.892 78.812 166.525C79.0708 166.159 79.437 165.876 79.9106 165.676C80.3843 165.476 80.9336 165.375 81.5586 165.375C82.1738 165.375 82.7158 165.476 83.1846 165.676C83.6582 165.876 84.0269 166.159 84.2905 166.525C84.5542 166.892 84.6885 167.319 84.6934 167.807C84.6885 168.291 84.5542 168.715 84.2905 169.082C84.0269 169.443 83.6582 169.721 83.1846 169.917C82.7158 170.112 82.1738 170.209 81.5586 170.209C80.9336 170.209 80.3843 170.112 79.9106 169.917C79.437 169.721 79.0708 169.443 78.812 169.082C78.5532 168.715 78.4238 168.291 78.4238 167.807ZM79.5225 167.807C79.5225 168.11 79.6055 168.376 79.7715 168.605C79.9375 168.83 80.1743 169.003 80.4819 169.125C80.7944 169.248 81.1533 169.306 81.5586 169.301C81.959 169.306 82.313 169.248 82.6206 169.125C82.9331 169.003 83.1748 168.83 83.3457 168.605C83.5166 168.376 83.6045 168.11 83.6094 167.807C83.6045 167.504 83.5166 167.238 83.3457 167.009C83.1748 166.774 82.9355 166.596 82.6279 166.474C82.3252 166.347 81.9761 166.284 81.5806 166.284C81.1704 166.284 80.8091 166.347 80.4966 166.474C80.1841 166.596 79.9424 166.772 79.7715 167.001C79.6055 167.231 79.5225 167.5 79.5225 167.807ZM79.6836 171.103H80.8115V173.886H88.4287V174.853H79.6836V171.103ZM104.572 171.674H103.415V166.679H100.734V165.727H103.415V162.124H104.572V171.674ZM93.8346 169.067C94.4693 168.842 95.0382 168.513 95.5411 168.078C96.044 167.644 96.4371 167.143 96.7203 166.577C97.0035 166.005 97.1451 165.415 97.1451 164.804V164.13H94.2008V163.178H101.217V164.13H98.3023V164.804C98.3023 165.361 98.4366 165.903 98.7052 166.43C98.9786 166.958 99.357 167.426 99.8404 167.836C100.329 168.247 100.885 168.559 101.51 168.774L100.91 169.697C100.182 169.433 99.5426 169.042 98.9908 168.525C98.4439 168.002 98.0289 167.402 97.7457 166.723C97.4625 167.48 97.0328 168.144 96.4566 168.715C95.8805 169.287 95.2066 169.716 94.4352 170.004L93.8346 169.067ZM96.2076 170.81H97.3648V173.886H104.938V174.853H96.2076V170.81ZM118.349 169.726H113.046V172.392H111.904V169.726H106.425V168.774H118.349V169.726ZM107.949 171.103H109.106V173.886H117.016V174.853H107.949V171.103ZM107.978 162.753H116.796V167.28H107.978V162.753ZM115.654 166.357V163.662H109.106V166.357H115.654ZM133.335 175.131H132.178V162.109H133.335V175.131ZM122.729 171.748C124.468 170.922 125.798 169.897 126.721 168.671C127.649 167.446 128.179 166.044 128.311 164.467H123.33V163.53H129.482C129.473 165.493 128.975 167.258 127.988 168.825C127.002 170.393 125.459 171.679 123.359 172.685L122.729 171.748ZM141.765 162.68C141.765 163.198 141.988 163.679 142.432 164.123C142.876 164.567 143.457 164.938 144.175 165.236C144.898 165.534 145.657 165.732 146.453 165.83L146.043 166.708C145.345 166.616 144.673 166.452 144.029 166.218C143.389 165.983 142.818 165.688 142.315 165.332C141.812 164.97 141.429 164.562 141.165 164.108C140.896 164.562 140.508 164.97 140 165.332C139.497 165.688 138.926 165.983 138.286 166.218C137.647 166.452 136.98 166.616 136.287 166.708L135.891 165.83C136.687 165.732 137.444 165.534 138.162 165.236C138.885 164.938 139.468 164.567 139.912 164.123C140.357 163.679 140.579 163.198 140.579 162.68V162.182H141.765V162.68ZM135.232 167.558H147.097V168.496H141.721V169.799H145.574V172.758H137.84V174.077H145.97V174.985H136.697V171.894H144.446V170.708H136.668V169.799H140.579V168.496H135.232V167.558ZM152.305 166.108C152.3 166.792 152.447 167.485 152.745 168.188C153.047 168.891 153.458 169.528 153.975 170.1C154.493 170.666 155.064 171.098 155.689 171.396L155.03 172.304C154.302 171.948 153.646 171.411 153.06 170.693C152.474 169.975 152.034 169.172 151.741 168.283C151.541 168.913 151.27 169.514 150.928 170.085C150.587 170.656 150.196 171.162 149.756 171.601C149.322 172.036 148.863 172.377 148.379 172.626L147.676 171.718C148.296 171.416 148.873 170.961 149.405 170.356C149.942 169.75 150.369 169.072 150.687 168.32C151.009 167.568 151.172 166.831 151.177 166.108V164.409H148.145V163.457H155.235V164.409H152.305V166.108ZM156.832 162.109H157.974V167.382H160.157V168.364H157.974V175.131H156.832V162.109ZM167.137 169.287H161.117V163.295H167.137V169.287ZM166.024 168.364V164.233H162.245V168.364H166.024ZM162.596 170.751H163.724V173.886H171.341V174.853H162.596V170.751ZM169.598 162.109H170.741V166.079H172.704V167.045H170.741V171.66H169.598V162.109ZM183.961 175.161H182.804V162.109H183.961V175.161ZM173.707 167.661C173.707 166.752 173.849 165.957 174.132 165.273C174.415 164.584 174.808 164.055 175.311 163.684C175.814 163.308 176.388 163.12 177.032 163.12C177.677 163.12 178.251 163.308 178.754 163.684C179.257 164.055 179.65 164.584 179.933 165.273C180.216 165.957 180.358 166.752 180.358 167.661C180.358 168.569 180.216 169.367 179.933 170.056C179.65 170.739 179.257 171.267 178.754 171.638C178.251 172.004 177.677 172.187 177.032 172.187C176.388 172.187 175.814 172.004 175.311 171.638C174.808 171.267 174.415 170.739 174.132 170.056C173.849 169.367 173.707 168.569 173.707 167.661ZM174.821 167.661C174.821 168.359 174.913 168.974 175.099 169.506C175.284 170.034 175.546 170.441 175.883 170.729C176.219 171.018 176.603 171.162 177.032 171.162C177.467 171.162 177.85 171.018 178.182 170.729C178.519 170.441 178.78 170.034 178.966 169.506C179.152 168.974 179.244 168.359 179.244 167.661C179.244 166.962 179.152 166.35 178.966 165.822C178.78 165.29 178.519 164.877 178.182 164.584C177.85 164.292 177.467 164.145 177.032 164.145C176.603 164.145 176.219 164.292 175.883 164.584C175.546 164.877 175.284 165.29 175.099 165.822C174.913 166.354 174.821 166.967 174.821 167.661ZM193.981 165.61C193.981 166.381 194.14 167.148 194.457 167.91C194.775 168.667 195.202 169.34 195.739 169.931C196.281 170.522 196.872 170.961 197.512 171.25L196.808 172.158C196.061 171.796 195.387 171.252 194.787 170.524C194.186 169.792 193.73 168.964 193.417 168.042C193.119 169.023 192.668 169.902 192.062 170.678C191.457 171.455 190.773 172.036 190.012 172.421L189.279 171.455C189.924 171.162 190.517 170.71 191.059 170.1C191.601 169.489 192.031 168.791 192.348 168.005C192.67 167.214 192.834 166.416 192.839 165.61V163.237H193.981V165.61ZM198.932 162.109H200.09V175.161H198.932V162.109ZM29.416 192.341C30.3438 192.341 31.1494 192.437 31.833 192.627C32.5215 192.812 33.0513 193.086 33.4224 193.447C33.7983 193.804 33.9863 194.231 33.9863 194.729C33.9863 195.222 33.7983 195.647 33.4224 196.003C33.0513 196.36 32.5215 196.631 31.833 196.816C31.1494 197.007 30.3438 197.102 29.416 197.102C28.4883 197.102 27.6802 197.007 26.9917 196.816C26.3081 196.631 25.7808 196.36 25.4097 196.003C25.0435 195.647 24.8604 195.222 24.8604 194.729C24.8604 194.231 25.0435 193.804 25.4097 193.447C25.7808 193.086 26.3081 192.812 26.9917 192.627C27.6802 192.437 28.4883 192.341 29.416 192.341ZM23.542 190.188H28.4492V187.668H29.5771V190.188H35.3926V191.125H23.542V190.188ZM24.9482 184.783H33.8838V185.881C33.8789 186.599 33.8569 187.207 33.8179 187.705C33.7788 188.198 33.6787 188.743 33.5176 189.338L32.3896 189.207C32.5459 188.611 32.6436 188.076 32.6826 187.603C32.7217 187.124 32.7412 186.55 32.7412 185.881V185.72H24.9482V184.783ZM26.0029 194.729C26.0029 195.027 26.1421 195.288 26.4204 195.513C26.6987 195.732 27.0942 195.901 27.6069 196.018C28.1245 196.135 28.7275 196.194 29.416 196.194C30.1045 196.194 30.7051 196.135 31.2178 196.018C31.7354 195.901 32.1333 195.732 32.4116 195.513C32.6948 195.288 32.8389 195.027 32.8438 194.729C32.8389 194.421 32.6948 194.155 32.4116 193.931C32.1333 193.706 31.7354 193.533 31.2178 193.411C30.7051 193.284 30.1045 193.22 29.416 193.22C28.7275 193.22 28.1245 193.284 27.6069 193.411C27.0942 193.533 26.6987 193.706 26.4204 193.931C26.1421 194.155 26.0029 194.421 26.0029 194.729ZM47.3533 197.131H46.24V184.109H47.3533V197.131ZM36.3523 189.734C36.3523 188.821 36.4671 188.025 36.6966 187.346C36.931 186.663 37.2581 186.135 37.678 185.764C38.0979 185.393 38.5887 185.208 39.1502 185.208C39.6727 185.208 40.1365 185.371 40.5418 185.698C40.9471 186.021 41.2693 186.482 41.5086 187.083C41.7527 187.678 41.8992 188.381 41.948 189.192H43.6326V184.387H44.7312V196.472H43.6326V190.144H41.9554C41.9212 190.979 41.782 191.709 41.5379 192.334C41.2986 192.954 40.9739 193.43 40.5638 193.762C40.1536 194.094 39.6824 194.26 39.1502 194.26C38.5887 194.26 38.0979 194.077 37.678 193.711C37.2581 193.34 36.931 192.812 36.6966 192.129C36.4671 191.445 36.3523 190.647 36.3523 189.734ZM37.4363 189.734C37.4314 190.432 37.4974 191.04 37.6341 191.558C37.7757 192.075 37.9759 192.473 38.2347 192.751C38.4983 193.03 38.8035 193.167 39.1502 193.162C39.4969 193.167 39.7996 193.032 40.0584 192.759C40.3221 192.48 40.5247 192.085 40.6663 191.572C40.8079 191.06 40.8787 190.459 40.8787 189.771C40.8787 189.062 40.8079 188.447 40.6663 187.925C40.5296 187.402 40.3294 187 40.0657 186.716C39.8069 186.433 39.5018 186.292 39.1502 186.292C38.7986 186.292 38.4935 186.433 38.2347 186.716C37.9759 186.995 37.7757 187.393 37.6341 187.91C37.4974 188.428 37.4314 189.036 37.4363 189.734ZM56.7582 186.819C56.7582 187.346 56.8925 187.849 57.161 188.328C57.4345 188.801 57.8153 189.219 58.3036 189.58C58.7919 189.941 59.3559 190.217 59.9955 190.408L59.4535 191.316C58.7064 191.082 58.0497 190.732 57.4833 190.269C56.9218 189.8 56.497 189.25 56.2089 188.621C55.9257 189.309 55.496 189.91 54.9198 190.422C54.3437 190.935 53.6674 191.316 52.891 191.565L52.3197 190.657C52.9643 190.461 53.5355 190.173 54.0336 189.792C54.5365 189.407 54.9271 188.958 55.2055 188.445C55.4887 187.932 55.6303 187.39 55.6303 186.819V186.584H52.6859V185.662H55.6303V184.05H56.7875V185.662H59.7025V186.584H56.7582V186.819ZM54.2826 192.429H62.5004V196.956H54.2826V192.429ZM61.3578 196.018V193.337H55.4105V196.018H61.3578ZM61.3578 184.109H62.5004V187.419H64.4633V188.386H62.5004V191.829H61.3578V184.109ZM68.4846 185.12C69.0803 185.125 69.6125 185.293 70.0812 185.625C70.5549 185.952 70.9333 186.418 71.2165 187.024H74.6369V184.109H75.7795V197.161H74.6369V192.107H71.2971C71.0236 192.771 70.6428 193.286 70.1545 193.652C69.6662 194.014 69.1096 194.192 68.4846 194.187C67.8449 194.187 67.2761 194.004 66.778 193.638C66.2849 193.267 65.9016 192.739 65.6281 192.056C65.3547 191.372 65.218 190.574 65.218 189.661C65.218 188.752 65.3547 187.957 65.6281 187.273C65.9016 186.584 66.2849 186.055 66.778 185.684C67.2761 185.308 67.8449 185.12 68.4846 185.12ZM66.3166 189.661C66.3166 190.359 66.4069 190.974 66.5876 191.506C66.7731 192.034 67.0295 192.441 67.3566 192.729C67.6838 193.018 68.0598 193.162 68.4846 193.162C68.9045 193.162 69.278 193.018 69.6052 192.729C69.9372 192.441 70.1936 192.031 70.3742 191.499C70.5598 190.967 70.6525 190.354 70.6525 189.661C70.6525 188.967 70.5598 188.354 70.3742 187.822C70.1936 187.29 69.9372 186.877 69.6052 186.584C69.278 186.292 68.9045 186.145 68.4846 186.145C68.0598 186.145 67.6838 186.292 67.3566 186.584C67.0295 186.877 66.7731 187.29 66.5876 187.822C66.4069 188.35 66.3166 188.962 66.3166 189.661ZM71.5461 187.991C71.673 188.508 71.7365 189.065 71.7365 189.661C71.7365 190.193 71.6877 190.691 71.59 191.155H74.6369V187.991H71.5461ZM87.8281 187.449H89.791V188.43H87.8281V191.682H86.6855V184.109H87.8281V187.449ZM77.6768 185.457H80.9873V183.992H82.1299V185.457H85.4404V186.409H77.6768V185.457ZM78.4238 189.294C78.4238 188.835 78.5532 188.435 78.812 188.093C79.0708 187.747 79.437 187.48 79.9106 187.295C80.3843 187.104 80.9336 187.009 81.5586 187.009C82.1787 187.009 82.7231 187.104 83.1919 187.295C83.6655 187.48 84.0317 187.747 84.2905 188.093C84.5542 188.435 84.6885 188.835 84.6934 189.294C84.6885 189.753 84.5542 190.156 84.2905 190.503C84.0317 190.85 83.6655 191.116 83.1919 191.301C82.7183 191.487 82.1738 191.58 81.5586 191.58C80.9336 191.58 80.3843 191.487 79.9106 191.301C79.437 191.116 79.0708 190.85 78.812 190.503C78.5532 190.156 78.4238 189.753 78.4238 189.294ZM79.5225 189.294C79.5225 189.573 79.6055 189.819 79.7715 190.034C79.9375 190.244 80.1743 190.408 80.4819 190.525C80.7944 190.642 81.1533 190.701 81.5586 190.701C81.959 190.701 82.313 190.642 82.6206 190.525C82.9331 190.408 83.1748 190.244 83.3457 190.034C83.5166 189.819 83.6045 189.573 83.6094 189.294C83.6045 189.016 83.5142 188.772 83.3384 188.562C83.1675 188.347 82.9282 188.184 82.6206 188.071C82.313 187.954 81.959 187.898 81.5586 187.903C81.1533 187.898 80.7969 187.954 80.4893 188.071C80.1816 188.184 79.9424 188.347 79.7715 188.562C79.6055 188.772 79.5225 189.016 79.5225 189.294ZM79.5957 192.253H80.7383V193.645H86.6855V192.253H87.8281V196.956H79.5957V192.253ZM86.6855 196.033V194.553H80.7383V196.033H86.6855ZM101.049 197.131H99.9061V184.109H101.049V197.131ZM91.1609 185.398H92.2889V192.781C93.3631 192.771 94.4104 192.72 95.431 192.627C96.4515 192.529 97.4793 192.371 98.5145 192.151L98.6756 193.132C97.5672 193.362 96.4881 193.528 95.4383 193.63C94.3934 193.728 93.3191 193.777 92.2156 193.777H91.1609V185.398ZM113.053 189.265H115.236V190.232H113.053V197.161H111.911V184.109H113.053V189.265ZM103.546 185.383H109.626V186.335H104.689V192.927C105.92 192.922 106.986 192.886 107.89 192.817C108.793 192.749 109.713 192.629 110.651 192.458L110.797 193.455C109.831 193.63 108.883 193.748 107.956 193.806C107.033 193.865 105.905 193.894 104.572 193.894H103.546V185.383ZM117.016 196.033C116.845 196.033 116.686 195.989 116.54 195.901C116.398 195.813 116.284 195.698 116.196 195.557C116.113 195.41 116.074 195.251 116.079 195.081C116.074 194.915 116.113 194.761 116.196 194.619C116.284 194.473 116.398 194.358 116.54 194.275C116.686 194.187 116.845 194.143 117.016 194.143C117.182 194.143 117.336 194.185 117.477 194.268C117.624 194.351 117.739 194.463 117.822 194.604C117.91 194.746 117.954 194.9 117.954 195.066C117.954 195.33 117.863 195.557 117.683 195.747C117.502 195.933 117.28 196.028 117.016 196.033Z" fill="#777E8D"/>
<rect x="21.9287" y="28" width="52.143" height="52.143" rx="10" fill="#043753"/>
<path d="M33.7266 64.5001V62.1537C33.7266 61.4367 33.9112 60.7632 34.2806 60.1332C34.6499 59.5031 35.1605 59.0251 35.8123 58.6992C36.9203 58.1343 38.1696 57.6564 39.5601 57.2653C40.9505 56.8742 42.4822 56.6787 44.1552 56.6787C45.8281 56.6787 47.3598 56.8742 48.7503 57.2653C50.1407 57.6564 51.39 58.1343 52.498 58.6992C53.1498 59.0251 53.6604 59.5031 54.0297 60.1332C54.3991 60.7632 54.5838 61.4367 54.5838 62.1537V64.5001C54.5838 64.8695 54.4588 65.1791 54.209 65.4289C53.9591 65.6788 53.6495 65.8037 53.2802 65.8037H35.0301C34.6608 65.8037 34.3512 65.6788 34.1013 65.4289C33.8515 65.1791 33.7266 64.8695 33.7266 64.5001ZM36.3337 63.1966H51.9766V62.1537C51.9766 61.9147 51.9169 61.6974 51.7974 61.5019C51.6779 61.3064 51.5204 61.1543 51.3248 61.0457C50.5427 60.6546 49.5378 60.2635 48.3103 59.8724C47.0828 59.4814 45.6977 59.2858 44.1552 59.2858C42.6126 59.2858 41.2276 59.4814 40 59.8724C38.7725 60.2635 37.7676 60.6546 36.9855 61.0457C36.79 61.1543 36.6324 61.3064 36.513 61.5019C36.3935 61.6974 36.3337 61.9147 36.3337 62.1537V63.1966ZM40.4726 53.8434C39.4514 52.8223 38.9409 51.5947 38.9409 50.1608H38.615C38.4194 50.1608 38.2619 50.1011 38.1424 49.9816C38.0229 49.8621 37.9632 49.7046 37.9632 49.509C37.9632 49.3135 38.0229 49.156 38.1424 49.0365C38.2619 48.917 38.4194 48.8572 38.615 48.8572H38.9409C38.9409 47.8796 39.1799 46.9996 39.6578 46.2175C40.1358 45.4353 40.7659 44.8161 41.548 44.3599V45.5983C41.548 45.7938 41.6078 45.9513 41.7273 46.0708C41.8468 46.1903 42.0043 46.2501 42.1998 46.2501C42.3953 46.2501 42.5529 46.1903 42.6723 46.0708C42.7918 45.9513 42.8516 45.7938 42.8516 45.5983V43.8385C43.0471 43.7733 43.2535 43.7244 43.4708 43.6918C43.6881 43.6592 43.9162 43.6429 44.1552 43.6429C44.3942 43.6429 44.6223 43.6592 44.8395 43.6918C45.0568 43.7244 45.2632 43.7733 45.4587 43.8385V45.5983C45.4587 45.7938 45.5185 45.9513 45.638 46.0708C45.7575 46.1903 45.915 46.2501 46.1105 46.2501C46.3061 46.2501 46.4636 46.1903 46.5831 46.0708C46.7026 45.9513 46.7623 45.7938 46.7623 45.5983V44.3599C47.5445 44.8161 48.1745 45.4353 48.6525 46.2175C49.1305 46.9996 49.3695 47.8796 49.3695 48.8572H49.6954C49.8909 48.8572 50.0484 48.917 50.1679 49.0365C50.2874 49.156 50.3471 49.3135 50.3471 49.509C50.3471 49.7046 50.2874 49.8621 50.1679 49.9816C50.0484 50.1011 49.8909 50.1608 49.6954 50.1608H49.3695C49.3695 51.5947 48.8589 52.8223 47.8378 53.8434C46.8166 54.8645 45.5891 55.3751 44.1552 55.3751C42.7212 55.3751 41.4937 54.8645 40.4726 53.8434ZM45.9965 52.0021C46.507 51.4915 46.7623 50.8778 46.7623 50.1608H41.548C41.548 50.8778 41.8033 51.4915 42.3139 52.0021C42.8244 52.5127 43.4382 52.768 44.1552 52.768C44.8721 52.768 45.4859 52.5127 45.9965 52.0021ZM53.8342 57.4608L53.7364 57.0046C53.6061 56.9611 53.4812 56.9122 53.3617 56.8579C53.2422 56.8036 53.1281 56.7221 53.0195 56.6135L52.6284 56.7439C52.4763 56.7873 52.3297 56.7873 52.1884 56.7439C52.0472 56.7004 51.9332 56.6026 51.8463 56.4506L51.7159 56.2224C51.629 56.0921 51.6018 55.9509 51.6344 55.7988C51.667 55.6467 51.7376 55.5163 51.8463 55.4077L52.1722 55.1144V54.3322L51.8463 54.0389C51.7376 53.9303 51.667 53.8 51.6344 53.6479C51.6018 53.4958 51.629 53.3546 51.7159 53.2242L51.8463 52.9961C51.9332 52.844 52.0472 52.7462 52.1884 52.7028C52.3297 52.6593 52.4763 52.6593 52.6284 52.7028L53.0195 52.8331C53.1064 52.7462 53.215 52.6702 53.3454 52.605C53.4757 52.5398 53.6061 52.4855 53.7364 52.4421L53.8342 51.9858C53.8777 51.8337 53.9537 51.7088 54.0623 51.611C54.171 51.5133 54.3013 51.4644 54.4534 51.4644H54.7141C54.8662 51.4644 54.9966 51.5133 55.1052 51.611C55.2138 51.7088 55.2899 51.8337 55.3333 51.9858L55.4311 52.4421C55.5614 52.4855 55.6918 52.5398 55.8222 52.605C55.9525 52.6702 56.0612 52.7462 56.1481 52.8331L56.5391 52.7028C56.6912 52.6593 56.8379 52.6593 56.9791 52.7028C57.1203 52.7462 57.2344 52.844 57.3213 52.9961L57.4516 53.2242C57.5385 53.3546 57.5657 53.4958 57.5331 53.6479C57.5005 53.8 57.4299 53.9303 57.3213 54.0389L56.9954 54.3322V55.1144L57.3213 55.4077C57.4299 55.5163 57.5005 55.6467 57.5331 55.7988C57.5657 55.9509 57.5385 56.0921 57.4516 56.2224L57.3213 56.4506C57.2344 56.6026 57.1203 56.7004 56.9791 56.7439C56.8379 56.7873 56.6912 56.7873 56.5391 56.7439L56.1481 56.6135C56.0394 56.7221 55.9254 56.8036 55.8059 56.8579C55.6864 56.9122 55.5614 56.9611 55.4311 57.0046L55.3333 57.4608C55.2899 57.6129 55.2138 57.7378 55.1052 57.8356C54.9966 57.9334 54.8662 57.9823 54.7141 57.9823H54.4534C54.3013 57.9823 54.171 57.9334 54.0623 57.8356C53.9537 57.7378 53.8777 57.6129 53.8342 57.4608ZM55.2681 55.4077C55.4637 55.2122 55.5614 54.984 55.5614 54.7233C55.5614 54.4626 55.4637 54.2345 55.2681 54.0389C55.0726 53.8434 54.8445 53.7456 54.5838 53.7456C54.3231 53.7456 54.0949 53.8434 53.8994 54.0389C53.7039 54.2345 53.6061 54.4626 53.6061 54.7233C53.6061 54.984 53.7039 55.2122 53.8994 55.4077C54.0949 55.6032 54.3231 55.701 54.5838 55.701C54.8445 55.701 55.0726 55.6032 55.2681 55.4077ZM56.7998 50.7474L56.6695 50.0956C56.474 50.0304 56.2947 49.949 56.1318 49.8512C55.9688 49.7534 55.8222 49.6394 55.6918 49.509L55.0074 49.7371C54.8119 49.8023 54.6164 49.7969 54.4208 49.7209C54.2253 49.6448 54.0732 49.5199 53.9646 49.3461L53.769 49.0202C53.6604 48.8464 53.6224 48.6563 53.655 48.4499C53.6876 48.2435 53.7908 48.0642 53.9646 47.9121L54.5186 47.4233C54.4751 47.3147 54.4534 47.2278 54.4534 47.1626V46.6412C54.4534 46.576 54.4751 46.4891 54.5186 46.3804L53.9646 45.8916C53.7908 45.7395 53.6876 45.5603 53.655 45.3539C53.6224 45.1475 53.6604 44.9574 53.769 44.7836L53.9646 44.4577C54.0732 44.2839 54.2253 44.1589 54.4208 44.0829C54.6164 44.0068 54.8119 44.0014 55.0074 44.0666L55.6918 44.2947C55.8222 44.1644 55.9688 44.0503 56.1318 43.9525C56.2947 43.8548 56.474 43.7733 56.6695 43.7081L56.7998 43.0563C56.8433 42.8391 56.9465 42.6652 57.1094 42.5349C57.2724 42.4045 57.4625 42.3394 57.6798 42.3394H58.0057C58.2229 42.3394 58.413 42.4045 58.576 42.5349C58.7389 42.6652 58.8421 42.8391 58.8856 43.0563L59.0159 43.7081C59.2115 43.7733 59.3907 43.8548 59.5536 43.9525C59.7166 44.0503 59.8632 44.1644 59.9936 44.2947L60.678 44.0666C60.8735 44.0014 61.0691 44.0068 61.2646 44.0829C61.4601 44.1589 61.6122 44.2839 61.7208 44.4577L61.9164 44.7836C62.025 44.9574 62.063 45.1475 62.0304 45.3539C61.9979 45.5603 61.8947 45.7395 61.7208 45.8916L61.1668 46.3804C61.2103 46.4891 61.232 46.576 61.232 46.6412V47.1626C61.232 47.2278 61.2103 47.3147 61.1668 47.4233L61.7208 47.9121C61.8947 48.0642 61.9979 48.2435 62.0304 48.4499C62.063 48.6563 62.025 48.8464 61.9164 49.0202L61.7208 49.3461C61.6122 49.5199 61.4601 49.6448 61.2646 49.7209C61.0691 49.7969 60.8735 49.8023 60.678 49.7371L59.9936 49.509C59.8632 49.6394 59.7166 49.7534 59.5536 49.8512C59.3907 49.949 59.2115 50.0304 59.0159 50.0956L58.8856 50.7474C58.8421 50.9647 58.7389 51.1385 58.576 51.2688C58.413 51.3992 58.2229 51.4644 58.0057 51.4644H57.6798C57.4625 51.4644 57.2724 51.3992 57.1094 51.2688C56.9465 51.1385 56.8433 50.9647 56.7998 50.7474ZM58.9996 48.0588C59.3147 47.7438 59.4722 47.3581 59.4722 46.9019C59.4722 46.4456 59.3147 46.06 58.9996 45.7449C58.6846 45.4299 58.299 45.2724 57.8427 45.2724C57.3865 45.2724 57.0008 45.4299 56.6858 45.7449C56.3708 46.06 56.2132 46.4456 56.2132 46.9019C56.2132 47.3581 56.3708 47.7438 56.6858 48.0588C57.0008 48.3738 57.3865 48.5313 57.8427 48.5313C58.299 48.5313 58.6846 48.3738 58.9996 48.0588Z" fill="white"/>
</svg>
