<svg width="326" height="167" viewBox="0 0 326 167" fill="none" xmlns="http://www.w3.org/2000/svg">
<rect width="326" height="167" rx="17" fill="white"/>
<path d="M27.2981 55.4688C24.47 55.4688 22.0325 54.7891 19.9856 53.4297C17.9387 52.0547 16.3684 50.0625 15.2747 47.4531C14.1966 44.8438 13.6575 41.7031 13.6575 38.0312C13.6575 34.375 14.2044 31.2422 15.2981 28.6328C16.3919 26.0078 17.9622 24.0156 20.0091 22.6562C22.0559 21.2812 24.4856 20.5938 27.2981 20.5938C30.1106 20.5938 32.5403 21.2812 34.5872 22.6562C36.6341 24.0156 38.2044 26.0078 39.2981 28.6328C40.3919 31.2422 40.9387 34.375 40.9387 38.0312C40.9387 41.7188 40.3919 44.8672 39.2981 47.4766C38.2044 50.0859 36.6341 52.0703 34.5872 53.4297C32.5559 54.7891 30.1262 55.4688 27.2981 55.4688ZM20.8762 38.2422C20.8762 41.9922 21.4466 44.8359 22.5872 46.7734C23.7278 48.6953 25.2981 49.6562 27.2981 49.6562C29.3137 49.6562 30.8919 48.6797 32.0325 46.7266C33.1731 44.7578 33.7356 41.8594 33.72 38.0312C33.72 35.5 33.4622 33.3672 32.9466 31.6328C32.4309 29.8828 31.6887 28.5703 30.72 27.6953C29.7512 26.8203 28.6106 26.375 27.2981 26.3594C25.2825 26.375 23.7044 27.3906 22.5637 29.4062C21.4387 31.4219 20.8762 34.3672 20.8762 38.2422ZM57.5456 55.4688C55.0456 55.4688 52.7644 54.9297 50.7019 53.8516C48.655 52.7578 46.9909 50.9766 45.7097 48.5078C44.4441 46.0391 43.8112 42.8359 43.8112 38.8984C43.8112 35.1328 44.3737 31.875 45.4987 29.125C46.6394 26.3594 48.2566 24.25 50.3503 22.7969C52.4597 21.3281 54.9362 20.5938 57.78 20.5938C59.9987 20.5938 61.9909 21.0234 63.7566 21.8828C65.5222 22.7422 66.9362 23.9297 67.9987 25.4453C69.0769 26.9453 69.7331 28.625 69.9675 30.4844H63.03C62.7487 29.2969 62.1394 28.3594 61.2019 27.6719C60.28 26.9844 59.1394 26.6406 57.78 26.6406C55.5144 26.6406 53.7722 27.6016 52.5534 29.5234C51.3503 31.4297 50.7331 34.0781 50.7019 37.4688H51.03C51.8112 35.9688 52.9753 34.7969 54.5222 33.9531C56.0847 33.1094 57.8112 32.6875 59.7019 32.6875C61.7175 32.6875 63.5378 33.1562 65.1628 34.0938C66.7878 35.0312 68.0534 36.3359 68.9597 38.0078C69.8816 39.6797 70.3425 41.5625 70.3425 43.6562C70.3425 45.9219 69.8034 47.9531 68.7253 49.75C67.6628 51.5469 66.1628 52.9531 64.2253 53.9688C62.2878 54.9688 60.0612 55.4688 57.5456 55.4688ZM51.405 43.8438C51.4206 44.9531 51.6862 45.9688 52.2019 46.8906C52.7331 47.8125 53.4597 48.5469 54.3816 49.0938C55.3034 49.625 56.3269 49.8906 57.4519 49.8906C58.5925 49.8906 59.6237 49.6328 60.5456 49.1172C61.4675 48.5859 62.1862 47.8594 62.7019 46.9375C63.2331 46 63.4987 44.9688 63.4987 43.8438C63.4987 42.7188 63.2409 41.7031 62.7253 40.7969C62.2097 39.875 61.4987 39.1484 60.5925 38.6172C59.6862 38.0703 58.6706 37.7969 57.5456 37.7969C56.405 37.7969 55.3659 38.0703 54.4284 38.6172C53.5066 39.1641 52.7722 39.8984 52.2253 40.8203C51.6941 41.7422 51.4206 42.75 51.405 43.8438Z" fill="#D8DFE4"/>
<path d="M84.3242 79.3203C84.3177 80.3815 84.4837 81.4167 84.8223 82.4258C85.1673 83.4349 85.6621 84.3398 86.3066 85.1406C86.9577 85.9349 87.7292 86.5469 88.6211 86.9766L87.293 88.7148C86.3555 88.2396 85.5417 87.5625 84.8516 86.6836C84.168 85.8047 83.6341 84.7891 83.25 83.6367C82.8529 84.8672 82.293 85.9544 81.5703 86.8984C80.8542 87.8359 80.0013 88.5521 79.0117 89.0469L77.6836 87.3086C78.6016 86.8724 79.3958 86.2376 80.0664 85.4043C80.7435 84.5645 81.2578 83.6172 81.6094 82.5625C81.9674 81.5013 82.1497 80.4206 82.1562 79.3203V76.5078H84.3242V79.3203ZM89.6758 75.082H91.8438V81.9961H94.5586V83.8516H91.8438V92.7383H89.6758V75.082ZM110.516 78.7344H96.1016V76.9766H102.254V75.043H104.402V76.9766H110.516V78.7344ZM95.3008 86.4883H111.434V88.2656H104.402V92.7578H102.254V88.2656H95.3008V86.4883ZM97.3516 82.5234C97.3516 81.8854 97.5892 81.3451 98.0645 80.9023C98.5397 80.4531 99.2233 80.1146 100.115 79.8867C101.014 79.6523 102.085 79.5352 103.328 79.5352C104.572 79.5352 105.639 79.6523 106.531 79.8867C107.43 80.1146 108.117 80.4531 108.592 80.9023C109.067 81.3451 109.305 81.8854 109.305 82.5234C109.305 83.1615 109.067 83.7051 108.592 84.1543C108.117 84.597 107.43 84.9355 106.531 85.1699C105.639 85.3978 104.572 85.5117 103.328 85.5117C102.085 85.5117 101.014 85.3978 100.115 85.1699C99.2233 84.9355 98.5397 84.597 98.0645 84.1543C97.5892 83.7051 97.3516 83.1615 97.3516 82.5234ZM99.6172 82.5234C99.6107 82.9727 99.9134 83.3145 100.525 83.5488C101.144 83.7767 102.052 83.8906 103.25 83.8906C104.5 83.8906 105.444 83.7767 106.082 83.5488C106.727 83.321 107.052 82.9792 107.059 82.5234C107.052 82.0742 106.733 81.7357 106.102 81.5078C105.47 81.2734 104.546 81.1562 103.328 81.1562C102.104 81.1562 101.176 81.2734 100.545 81.5078C99.9199 81.7357 99.6107 82.0742 99.6172 82.5234ZM127.195 77.4453V77.6797C127.182 78.5521 127.15 79.3691 127.098 80.1309C127.046 80.8861 126.935 81.7227 126.766 82.6406L124.617 82.4453C124.773 81.625 124.881 80.8763 124.939 80.1992C125.005 79.5221 125.044 78.8516 125.057 78.1875H118.191V76.3906H127.195V77.4453ZM117.498 84.0469C118.917 84.0339 119.949 84.0208 120.594 84.0078V80.4141H122.742V83.9395C124.832 83.8483 126.635 83.6953 128.152 83.4805L128.27 85.043C126.635 85.3359 124.92 85.5312 123.123 85.6289C121.326 85.7266 119.396 85.7786 117.332 85.7852L117.137 84.0469H117.498ZM119.773 87.1328H121.961V90.6289H131.98V92.3867H119.773V87.1328ZM129.188 75.082H131.414V80.5898H133.699V82.4062H131.414V88.3047H129.188V75.082ZM149.324 92.7578H147.176V75.082H149.324V92.7578ZM135.574 76.625H143.895V83.2461H137.82V86.8008C139.292 86.7878 140.652 86.7357 141.902 86.6445C143.152 86.5534 144.435 86.3971 145.75 86.1758L145.945 87.9531C144.578 88.1875 143.23 88.3503 141.902 88.4414C140.581 88.5326 139.109 88.5781 137.488 88.5781H137.137H135.594V81.5273H141.688V78.3828H135.574V76.625ZM166.062 83.5195H157.547V76.1758H166.062V83.5195ZM158.602 91.0195C159.689 90.9284 160.656 90.7201 161.502 90.3945C162.355 90.069 163.025 89.6784 163.514 89.2227C164.008 88.7604 164.288 88.2917 164.354 87.8164H159.324V86.1758H164.402V84.6328H166.59V86.1758H171.688V87.8164H166.648C166.714 88.2786 166.987 88.7376 167.469 89.1934C167.957 89.6426 168.621 90.0332 169.461 90.3652C170.307 90.6908 171.271 90.9089 172.352 91.0195L171.609 92.6797C170.21 92.5299 168.979 92.1979 167.918 91.6836C166.863 91.1693 166.059 90.5378 165.506 89.7891C164.952 90.5443 164.142 91.1758 163.074 91.6836C162.007 92.1914 160.763 92.5234 159.344 92.6797L158.602 91.0195ZM163.914 81.8203V77.8945H159.695V81.8203H163.914ZM169.168 75.082H171.316V85.1406H169.168V75.082ZM178.484 91L183.465 76.8594H186.59L191.59 91H188.875L187.693 87.5039H182.371L181.199 91H178.484ZM187.01 85.4531L185.086 79.75H184.969L183.055 85.4531H187.01ZM194.363 93.1289H192.176L196.746 76.1953H198.914L194.363 93.1289ZM208.133 80.7461C208.068 80.1471 207.798 79.6784 207.322 79.3398C206.854 79.0013 206.242 78.832 205.486 78.832C204.952 78.832 204.487 78.9102 204.09 79.0664C203.699 79.2227 203.4 79.4408 203.191 79.7207C202.983 80.0007 202.879 80.3197 202.879 80.6777C202.879 81.2116 203.104 81.6283 203.553 81.9277C204.002 82.2207 204.585 82.4518 205.301 82.6211L206.629 82.9727C207.846 83.2526 208.839 83.7181 209.607 84.3691C210.382 85.0137 210.77 85.9023 210.77 87.0352C210.77 87.862 210.558 88.5911 210.135 89.2227C209.712 89.8542 209.096 90.3457 208.289 90.6973C207.488 91.0423 206.531 91.2148 205.418 91.2148C204.324 91.2148 203.37 91.0456 202.557 90.707C201.749 90.362 201.118 89.8607 200.662 89.2031C200.206 88.5456 199.962 87.7578 199.93 86.8398H202.43C202.488 87.5495 202.788 88.0931 203.328 88.4707C203.868 88.8483 204.559 89.0404 205.398 89.0469C205.952 89.0469 206.44 88.9622 206.863 88.793C207.293 88.6172 207.628 88.3763 207.869 88.0703C208.11 87.7643 208.23 87.4128 208.23 87.0156C208.224 86.4948 208.009 86.0911 207.586 85.8047C207.163 85.5117 206.525 85.2578 205.672 85.043L204.07 84.6328C201.557 83.9753 200.301 82.7057 200.301 80.8242C200.301 80.0039 200.525 79.2812 200.975 78.6562C201.424 78.0247 202.042 77.5365 202.83 77.1914C203.618 76.8398 204.507 76.6641 205.496 76.6641C206.479 76.6641 207.352 76.8366 208.113 77.1816C208.882 77.5267 209.48 78.0117 209.91 78.6367C210.34 79.2552 210.561 79.9583 210.574 80.7461H208.133Z" fill="black"/>
<path d="M81.8125 115.221C81.8125 115.941 81.9606 116.656 82.2568 117.367C82.5531 118.074 82.9518 118.702 83.4531 119.254C83.959 119.805 84.5104 120.215 85.1074 120.484L84.4512 121.332C83.7539 120.995 83.125 120.487 82.5645 119.808C82.0039 119.124 81.5778 118.352 81.2861 117.49C81.0081 118.406 80.5866 119.227 80.0215 119.951C79.4564 120.676 78.8184 121.218 78.1074 121.578L77.4238 120.676C78.0254 120.402 78.5791 119.981 79.085 119.411C79.5908 118.841 79.9919 118.19 80.2881 117.456C80.5889 116.718 80.7415 115.973 80.7461 115.221V113.006H81.8125V115.221ZM86.4336 111.953H87.5137V124.135H86.4336V111.953ZM95.0879 119.637C95.9538 119.637 96.7057 119.726 97.3438 119.903C97.9863 120.076 98.4808 120.332 98.8271 120.669C99.1781 121.002 99.3535 121.4 99.3535 121.865C99.3535 122.326 99.1781 122.722 98.8271 123.055C98.4808 123.387 97.9863 123.64 97.3438 123.813C96.7057 123.991 95.9538 124.08 95.0879 124.08C94.222 124.08 93.4678 123.991 92.8252 123.813C92.1872 123.64 91.695 123.387 91.3486 123.055C91.0068 122.722 90.8359 122.326 90.8359 121.865C90.8359 121.4 91.0068 121.002 91.3486 120.669C91.695 120.332 92.1872 120.076 92.8252 119.903C93.4678 119.726 94.222 119.637 95.0879 119.637ZM89.6055 117.627H94.1855V115.275H95.2383V117.627H100.666V118.502H89.6055V117.627ZM90.918 112.582H99.2578V113.607C99.2533 114.277 99.2327 114.845 99.1963 115.31C99.1598 115.77 99.0664 116.278 98.916 116.834L97.8633 116.711C98.0091 116.155 98.1003 115.656 98.1367 115.214C98.1732 114.767 98.1914 114.232 98.1914 113.607V113.457H90.918V112.582ZM91.9023 121.865C91.9023 122.143 92.0322 122.387 92.292 122.597C92.5518 122.802 92.9209 122.959 93.3994 123.068C93.8825 123.178 94.4453 123.232 95.0879 123.232C95.7305 123.232 96.291 123.178 96.7695 123.068C97.2526 122.959 97.624 122.802 97.8838 122.597C98.1481 122.387 98.2826 122.143 98.2871 121.865C98.2826 121.578 98.1481 121.33 97.8838 121.12C97.624 120.91 97.2526 120.749 96.7695 120.635C96.291 120.516 95.7305 120.457 95.0879 120.457C94.4453 120.457 93.8825 120.516 93.3994 120.635C92.9209 120.749 92.5518 120.91 92.292 121.12C92.0322 121.33 91.9023 121.578 91.9023 121.865ZM115.637 114.236H105.779V113.348H110.209V111.885H111.262V113.348H115.637V114.236ZM105.205 119.828H116.334V120.717H111.262V124.135H110.209V120.717H105.205V119.828ZM106.777 116.971C106.773 116.538 106.928 116.169 107.242 115.863C107.557 115.558 108.01 115.328 108.603 115.173C109.2 115.013 109.913 114.934 110.742 114.934C111.562 114.934 112.269 115.013 112.861 115.173C113.458 115.328 113.914 115.558 114.229 115.863C114.548 116.169 114.707 116.538 114.707 116.971C114.707 117.395 114.548 117.757 114.229 118.058C113.914 118.358 113.458 118.589 112.861 118.748C112.269 118.908 111.562 118.99 110.742 118.994C109.913 118.99 109.2 118.908 108.603 118.748C108.01 118.589 107.557 118.358 107.242 118.058C106.928 117.757 106.773 117.395 106.777 116.971ZM107.885 116.971C107.88 117.217 107.987 117.429 108.206 117.606C108.429 117.784 108.753 117.921 109.177 118.017C109.601 118.112 110.109 118.16 110.701 118.16C111.613 118.16 112.321 118.058 112.827 117.853C113.338 117.643 113.595 117.349 113.6 116.971C113.595 116.588 113.342 116.292 112.841 116.082C112.34 115.868 111.64 115.758 110.742 115.754C109.835 115.758 109.131 115.868 108.63 116.082C108.129 116.292 107.88 116.588 107.885 116.971ZM127.723 124.107H126.684V111.953H127.723V124.107ZM117.455 117.203C117.455 116.351 117.562 115.608 117.776 114.975C117.995 114.337 118.3 113.844 118.692 113.498C119.084 113.152 119.542 112.979 120.066 112.979C120.554 112.979 120.987 113.131 121.365 113.437C121.743 113.737 122.044 114.168 122.268 114.729C122.495 115.285 122.632 115.941 122.678 116.697H124.25V112.213H125.275V123.492H124.25V117.586H122.685C122.653 118.365 122.523 119.047 122.295 119.63C122.072 120.209 121.769 120.653 121.386 120.963C121.003 121.273 120.563 121.428 120.066 121.428C119.542 121.428 119.084 121.257 118.692 120.915C118.3 120.569 117.995 120.076 117.776 119.438C117.562 118.8 117.455 118.055 117.455 117.203ZM118.467 117.203C118.462 117.855 118.524 118.422 118.651 118.905C118.784 119.388 118.97 119.76 119.212 120.02C119.458 120.279 119.743 120.407 120.066 120.402C120.39 120.407 120.673 120.282 120.914 120.026C121.16 119.767 121.349 119.397 121.481 118.919C121.614 118.44 121.68 117.88 121.68 117.237C121.68 116.576 121.614 116.002 121.481 115.515C121.354 115.027 121.167 114.651 120.921 114.387C120.679 114.122 120.395 113.99 120.066 113.99C119.738 113.99 119.453 114.122 119.212 114.387C118.97 114.646 118.784 115.018 118.651 115.501C118.524 115.984 118.462 116.551 118.467 117.203ZM139.221 118.529H135.461V121.674H140.533V122.576H129.404V121.674H134.408V118.529H130.826V112.951H139.098V113.826H131.906V117.654H139.221V118.529ZM155.094 119.199H154.014V116.014H151.566V115.125H154.014V111.953H155.094V119.199ZM145.072 118.229C145.669 118.014 146.2 117.7 146.665 117.285C147.134 116.87 147.501 116.394 147.766 115.856C148.03 115.319 148.162 114.765 148.162 114.195V113.744H145.414V112.842H151.963V113.744H149.242V114.182C149.242 114.706 149.368 115.214 149.618 115.706C149.869 116.198 150.222 116.636 150.678 117.019C151.133 117.397 151.653 117.686 152.236 117.887L151.676 118.748C151.001 118.502 150.407 118.137 149.892 117.654C149.381 117.171 148.994 116.613 148.729 115.979C148.47 116.69 148.069 117.317 147.526 117.859C146.989 118.402 146.357 118.812 145.633 119.09L145.072 118.229ZM146.986 121.838C146.986 121.364 147.148 120.958 147.472 120.621C147.8 120.284 148.269 120.026 148.88 119.849C149.495 119.671 150.222 119.582 151.061 119.582C151.899 119.582 152.624 119.671 153.234 119.849C153.845 120.026 154.314 120.284 154.643 120.621C154.971 120.958 155.135 121.364 155.135 121.838C155.135 122.312 154.971 122.717 154.643 123.055C154.314 123.392 153.845 123.649 153.234 123.827C152.624 124.009 151.899 124.103 151.061 124.107C150.217 124.103 149.491 124.009 148.88 123.827C148.269 123.649 147.8 123.392 147.472 123.055C147.148 122.717 146.986 122.312 146.986 121.838ZM148.053 121.838C148.053 122.125 148.171 122.376 148.408 122.59C148.645 122.799 148.987 122.961 149.434 123.075C149.885 123.189 150.416 123.246 151.026 123.246C151.651 123.246 152.191 123.189 152.646 123.075C153.102 122.966 153.453 122.806 153.699 122.597C153.945 122.382 154.068 122.13 154.068 121.838C154.068 121.546 153.948 121.293 153.706 121.079C153.465 120.865 153.116 120.701 152.66 120.587C152.209 120.473 151.676 120.416 151.061 120.416C150.441 120.416 149.905 120.473 149.454 120.587C149.003 120.701 148.657 120.865 148.415 121.079C148.174 121.293 148.053 121.546 148.053 121.838ZM167.166 124.107H166.086V111.953H167.166V124.107ZM157.268 120.949C158.89 120.179 160.132 119.222 160.993 118.078C161.859 116.934 162.354 115.626 162.477 114.154H157.828V113.279H163.57C163.561 115.111 163.096 116.759 162.176 118.222C161.255 119.685 159.815 120.885 157.855 121.824L157.268 120.949ZM182.807 119.076H181.727V115.904H179.266V115.002H181.727V111.953H182.807V119.076ZM172.785 118.105C173.378 117.896 173.909 117.586 174.378 117.176C174.847 116.766 175.214 116.296 175.479 115.768C175.743 115.234 175.875 114.683 175.875 114.113V113.635H173.127V112.746H179.676V113.635H176.955V114.113C176.955 114.628 177.08 115.132 177.331 115.624C177.582 116.116 177.935 116.556 178.391 116.943C178.846 117.326 179.366 117.622 179.949 117.832L179.389 118.68C178.71 118.434 178.113 118.069 177.598 117.586C177.087 117.098 176.7 116.538 176.436 115.904C176.171 116.611 175.77 117.23 175.232 117.764C174.695 118.292 174.066 118.689 173.346 118.953L172.785 118.105ZM174.863 119.678H182.807V123.943H174.863V119.678ZM181.754 123.068V120.539H175.93V123.068H181.754ZM191.105 112.746C191.105 113.749 190.875 114.66 190.415 115.48C189.959 116.296 189.305 117 188.453 117.593C187.605 118.181 186.594 118.643 185.418 118.98L184.967 118.133C185.938 117.859 186.783 117.502 187.503 117.06C188.223 116.618 188.793 116.107 189.212 115.528C189.636 114.95 189.886 114.318 189.964 113.635H185.596V112.746H191.105ZM187.018 119.418H194.906V123.943H187.018V119.418ZM193.84 123.068V120.279H188.057V123.068H193.84ZM191.133 115.098H193.826V111.967H194.906V118.898H193.826V116H191.133V115.098ZM203.67 113.936C203.665 114.724 203.643 115.48 203.602 116.205C203.561 116.93 203.465 117.782 203.314 118.762L202.234 118.666C202.471 117.217 202.59 115.799 202.59 114.414V114.182H197.49V113.307H203.67V113.936ZM196.807 120.539C197.969 120.53 198.844 120.519 199.432 120.505V116.779H200.484V120.471C201.984 120.416 203.314 120.32 204.477 120.184L204.531 120.99C202.649 121.282 200.311 121.428 197.518 121.428H196.943L196.807 120.539ZM205.242 111.953H206.309V117.039H208.277V117.969H206.309V124.107H205.242V111.953ZM222.578 120.881H221.512V111.967H222.578V120.881ZM212.666 118.283C213.272 118.046 213.808 117.702 214.272 117.251C214.742 116.8 215.106 116.283 215.366 115.699C215.626 115.111 215.756 114.501 215.756 113.867V112.65H216.85V113.867C216.845 114.473 216.97 115.057 217.226 115.617C217.485 116.173 217.848 116.661 218.312 117.08C218.777 117.499 219.311 117.818 219.912 118.037L219.352 118.898C218.65 118.63 218.035 118.233 217.506 117.709C216.977 117.18 216.578 116.565 216.31 115.863C216.045 116.611 215.646 117.269 215.113 117.839C214.58 118.409 213.96 118.835 213.254 119.117L212.666 118.283ZM214.73 120.061H215.797V122.945H222.961V123.848H214.73V120.061ZM235.758 118.953H224.643V118.064H229.646V116.191H230.699V118.064H235.758V118.953ZM225.312 115.986C226.037 115.886 226.732 115.679 227.397 115.364C228.063 115.05 228.601 114.66 229.011 114.195C229.425 113.73 229.633 113.238 229.633 112.719V112.145H230.713V112.719C230.713 113.238 230.92 113.73 231.335 114.195C231.75 114.66 232.29 115.05 232.955 115.364C233.625 115.679 234.322 115.886 235.047 115.986L234.609 116.848C233.985 116.738 233.381 116.561 232.798 116.314C232.215 116.064 231.693 115.754 231.232 115.385C230.777 115.011 230.426 114.599 230.18 114.147C229.934 114.603 229.58 115.018 229.12 115.392C228.66 115.761 228.136 116.068 227.548 116.314C226.965 116.561 226.356 116.738 225.723 116.848L225.312 115.986ZM225.873 120.143H234.35V124.107H233.27V121.004H225.873V120.143ZM246.244 115.973H248.076V116.875H246.244V121.072H245.178V111.967H246.244V115.973ZM236.77 113.457H239.859V111.967H240.926V113.457H244.016V114.332H236.77V113.457ZM237.467 117.271C237.467 116.816 237.588 116.417 237.829 116.075C238.071 115.733 238.412 115.469 238.854 115.282C239.297 115.095 239.809 115.002 240.393 115.002C240.967 115.002 241.473 115.095 241.91 115.282C242.352 115.469 242.696 115.733 242.942 116.075C243.188 116.417 243.314 116.816 243.318 117.271C243.314 117.723 243.188 118.119 242.942 118.461C242.696 118.798 242.352 119.058 241.91 119.24C241.473 119.423 240.967 119.514 240.393 119.514C239.809 119.514 239.297 119.423 238.854 119.24C238.412 119.058 238.071 118.798 237.829 118.461C237.588 118.119 237.467 117.723 237.467 117.271ZM238.492 117.271C238.492 117.554 238.57 117.802 238.725 118.017C238.88 118.226 239.101 118.388 239.388 118.502C239.679 118.616 240.014 118.671 240.393 118.666C240.766 118.671 241.097 118.616 241.384 118.502C241.675 118.388 241.901 118.226 242.061 118.017C242.22 117.802 242.302 117.554 242.307 117.271C242.302 116.989 242.22 116.741 242.061 116.526C241.901 116.308 241.678 116.141 241.391 116.027C241.108 115.909 240.782 115.85 240.413 115.85C240.03 115.85 239.693 115.909 239.401 116.027C239.11 116.141 238.884 116.305 238.725 116.52C238.57 116.734 238.492 116.984 238.492 117.271ZM238.643 120.348H239.695V122.945H246.805V123.848H238.643V120.348ZM252.109 123L255.732 113.102H257.031L260.654 123H259.355L258.364 120.211H254.386L253.395 123H252.109ZM257.988 119.131L256.416 114.701H256.334L254.762 119.131H257.988ZM262.172 124.49H261.105L264.291 112.637H265.371L262.172 124.49ZM272.07 115.59C272.038 115.271 271.924 114.997 271.729 114.77C271.533 114.537 271.275 114.362 270.956 114.243C270.637 114.12 270.279 114.059 269.883 114.059C269.454 114.059 269.076 114.129 268.748 114.271C268.42 114.407 268.165 114.599 267.982 114.845C267.8 115.091 267.709 115.371 267.709 115.686C267.714 116.146 267.903 116.499 268.276 116.745C268.65 116.987 269.099 117.171 269.623 117.299L270.607 117.572C271.373 117.768 272.032 118.069 272.583 118.475C273.134 118.88 273.41 119.491 273.41 120.307C273.41 120.849 273.269 121.339 272.986 121.776C272.704 122.209 272.291 122.551 271.749 122.802C271.207 123.052 270.562 123.178 269.814 123.178C269.113 123.178 268.5 123.064 267.976 122.836C267.456 122.604 267.048 122.282 266.752 121.872C266.456 121.457 266.287 120.977 266.246 120.43H267.504C267.536 120.785 267.659 121.086 267.873 121.332C268.087 121.578 268.363 121.763 268.7 121.886C269.042 122.004 269.413 122.061 269.814 122.057C270.27 122.057 270.678 121.984 271.038 121.838C271.403 121.692 271.688 121.485 271.893 121.216C272.102 120.942 272.207 120.63 272.207 120.279C272.207 119.974 272.12 119.719 271.947 119.514C271.779 119.309 271.555 119.142 271.277 119.015C270.999 118.887 270.658 118.766 270.252 118.652L269.035 118.324C268.224 118.087 267.6 117.759 267.162 117.34C266.729 116.921 266.515 116.387 266.52 115.74C266.52 115.193 266.668 114.71 266.964 114.291C267.26 113.867 267.668 113.541 268.188 113.313C268.707 113.081 269.286 112.965 269.924 112.965C270.553 112.965 271.118 113.079 271.619 113.307C272.125 113.535 272.524 113.849 272.815 114.25C273.107 114.646 273.26 115.093 273.273 115.59H272.07ZM285.701 122.604H274.572V121.701H279.576V119.404H275.967V115.658H283.24V113.744H275.939V112.855H284.293V116.533H277.033V118.516H284.58V119.404H280.629V121.701H285.701V122.604ZM294.533 115.686C294.533 116.355 294.681 117.023 294.978 117.688C295.278 118.354 295.679 118.946 296.181 119.466C296.687 119.981 297.236 120.366 297.828 120.621L297.227 121.469C296.511 121.145 295.866 120.653 295.292 119.992C294.722 119.331 294.296 118.582 294.014 117.743C293.731 118.632 293.303 119.438 292.729 120.163C292.159 120.883 291.525 121.419 290.828 121.77L290.186 120.922C290.764 120.644 291.302 120.225 291.799 119.664C292.3 119.104 292.701 118.472 293.002 117.771C293.303 117.064 293.453 116.369 293.453 115.686V114.1H290.582V113.211H297.432V114.1H294.533V115.686ZM299.127 111.953H300.207V124.107H299.127V111.953ZM88.6074 135.953H77.4922V135.064H82.4961V133.191H83.5488V135.064H88.6074V135.953ZM78.1621 132.986C78.8867 132.886 79.5817 132.679 80.2471 132.364C80.9124 132.05 81.4502 131.66 81.8604 131.195C82.2751 130.73 82.4824 130.238 82.4824 129.719V129.145H83.5625V129.719C83.5625 130.238 83.7699 130.73 84.1846 131.195C84.5993 131.66 85.1393 132.05 85.8047 132.364C86.4746 132.679 87.1719 132.886 87.8965 132.986L87.459 133.848C86.8346 133.738 86.2308 133.561 85.6475 133.314C85.0641 133.064 84.5423 132.754 84.082 132.385C83.6263 132.011 83.2754 131.599 83.0293 131.147C82.7832 131.603 82.43 132.018 81.9697 132.392C81.5094 132.761 80.9854 133.068 80.3975 133.314C79.8141 133.561 79.2057 133.738 78.5723 133.848L78.1621 132.986ZM78.7227 137.143H87.1992V141.107H86.1191V138.004H78.7227V137.143ZM93.8164 131.195C93.8164 131.715 93.9417 132.221 94.1924 132.713C94.443 133.205 94.7962 133.643 95.252 134.025C95.7077 134.408 96.2272 134.7 96.8105 134.9L96.25 135.748C95.571 135.502 94.974 135.137 94.459 134.654C93.9486 134.171 93.5635 133.615 93.3037 132.986C93.0394 133.684 92.6361 134.301 92.0938 134.839C91.556 135.372 90.9271 135.771 90.207 136.035L89.6465 135.188C90.2389 134.973 90.7699 134.663 91.2393 134.258C91.7087 133.848 92.0755 133.378 92.3398 132.85C92.6042 132.321 92.7363 131.774 92.7363 131.209V130.676H89.9883V129.801H96.5371V130.676H93.8164V131.195ZM91.4922 136.883H99.668V141.107H98.5879V137.771H91.4922V136.883ZM96.1543 132.139H98.5879V128.953H99.668V136.24H98.5879V133.041H96.1543V132.139ZM111.727 137.854H110.66V128.967H111.727V137.854ZM101.979 132.795C101.979 132.221 102.115 131.708 102.389 131.257C102.667 130.806 103.047 130.452 103.53 130.197C104.018 129.942 104.562 129.814 105.164 129.814C105.766 129.814 106.308 129.942 106.791 130.197C107.274 130.452 107.655 130.806 107.933 131.257C108.211 131.708 108.35 132.221 108.35 132.795C108.35 133.374 108.211 133.891 107.933 134.347C107.655 134.802 107.274 135.158 106.791 135.413C106.308 135.664 105.766 135.789 105.164 135.789C104.562 135.789 104.018 135.664 103.53 135.413C103.047 135.158 102.667 134.802 102.389 134.347C102.115 133.891 101.979 133.374 101.979 132.795ZM103.031 132.795C103.027 133.191 103.116 133.547 103.298 133.861C103.485 134.171 103.74 134.413 104.063 134.586C104.392 134.759 104.758 134.846 105.164 134.846C105.565 134.846 105.927 134.759 106.251 134.586C106.575 134.413 106.83 134.171 107.017 133.861C107.203 133.547 107.297 133.191 107.297 132.795C107.297 132.403 107.203 132.054 107.017 131.749C106.83 131.439 106.575 131.198 106.251 131.024C105.927 130.847 105.565 130.758 105.164 130.758C104.758 130.758 104.392 130.844 104.063 131.018C103.74 131.191 103.485 131.432 103.298 131.742C103.116 132.052 103.027 132.403 103.031 132.795ZM103.879 136.951H104.945V139.945H112.109V140.848H103.879V136.951ZM124.045 130.539C124.04 131.173 124.02 131.758 123.983 132.296C123.947 132.834 123.863 133.447 123.73 134.135L122.65 134.053C122.778 133.415 122.862 132.847 122.903 132.351C122.949 131.854 122.976 131.337 122.985 130.799H117.988V129.896H124.045V130.539ZM117.236 135.27C118.198 135.27 119.068 135.258 119.848 135.235V132.59H120.914V135.201C122.482 135.137 123.817 135.028 124.92 134.873L124.988 135.666C123.854 135.862 122.655 135.992 121.393 136.056C120.13 136.119 118.781 136.154 117.346 136.158L117.236 135.27ZM119.109 137.279H120.189V139.945H127.23V140.848H119.109V137.279ZM125.74 128.953H126.834V132.918H128.611V133.834H126.834V138.1H125.74V128.953ZM139.439 141.135H138.373V128.953H139.439V141.135ZM130.088 130.088H135.748V134.408H131.209V137.279C132.28 137.284 133.285 137.254 134.224 137.19C135.167 137.127 136.158 137.01 137.197 136.842L137.307 137.744C136.249 137.908 135.238 138.022 134.271 138.086C133.305 138.15 132.257 138.182 131.127 138.182H130.115V133.533H134.668V130.977H130.088V130.088ZM149.297 132.221C149.297 132.941 149.436 133.652 149.714 134.354C149.996 135.055 150.379 135.68 150.862 136.227C151.35 136.769 151.885 137.174 152.469 137.443L151.826 138.318C151.133 137.963 150.516 137.443 149.974 136.76C149.436 136.072 149.033 135.295 148.764 134.429C148.49 135.345 148.082 136.167 147.54 136.896C147.002 137.626 146.389 138.173 145.701 138.537L145.004 137.676C145.592 137.389 146.13 136.958 146.617 136.384C147.105 135.805 147.49 135.151 147.772 134.422C148.06 133.688 148.203 132.954 148.203 132.221V130.006H149.297V132.221ZM151.143 133.109H154.027V128.953H155.094V141.135H154.027V133.984H151.143V133.109ZM167.139 141.135H166.059V128.953H167.139V141.135ZM157.828 129.992H158.895V133.205H162.518V129.992H163.57V138.195H157.828V129.992ZM162.518 137.293V134.066H158.895V137.293H162.518ZM175.273 130.744C175.273 131.41 175.497 132.05 175.943 132.665C176.39 133.28 176.96 133.804 177.652 134.237C178.35 134.666 179.056 134.946 179.771 135.078L179.279 135.98C178.655 135.835 178.042 135.598 177.44 135.27C176.843 134.941 176.306 134.536 175.827 134.053C175.349 133.57 174.982 133.041 174.727 132.467C174.471 133.041 174.104 133.57 173.626 134.053C173.147 134.531 172.607 134.937 172.006 135.27C171.409 135.598 170.798 135.835 170.174 135.98L169.682 135.078C170.397 134.941 171.099 134.659 171.787 134.23C172.48 133.802 173.047 133.28 173.489 132.665C173.931 132.05 174.152 131.41 174.152 130.744V129.814H175.273V130.744ZM169.217 138.564H180.346V139.453H169.217V138.564ZM192.432 135.447H181.303V134.6H192.432V135.447ZM182.643 136.418H191.037V139.002H183.736V140.164H191.434V140.943H182.656V138.264H189.971V137.225H182.643V136.418ZM182.711 129.322H190.996V131.838H183.818V132.904H191.215V133.684H182.752V131.1H189.916V130.102H182.711V129.322ZM207.32 141.107H206.295V128.953H207.32V141.107ZM196.779 137.867C197.331 137.539 197.809 137.09 198.215 136.521C198.62 135.946 198.93 135.306 199.145 134.6C199.359 133.889 199.464 133.164 199.459 132.426V131.277H197.121V130.389H202.727V131.277H200.498V132.426C200.498 133.132 200.601 133.82 200.806 134.49C201.015 135.16 201.316 135.766 201.708 136.309C202.104 136.851 202.576 137.279 203.123 137.594L202.467 138.387C201.879 138.036 201.375 137.55 200.956 136.931C200.537 136.306 200.218 135.6 199.999 134.812C199.776 135.668 199.445 136.434 199.008 137.108C198.575 137.778 198.06 138.3 197.463 138.674L196.779 137.867ZM201.797 133.342H203.848V129.254H204.859V140.479H203.848V134.217H201.797V133.342ZM214.525 136.637C215.391 136.637 216.143 136.726 216.781 136.903C217.424 137.076 217.918 137.332 218.265 137.669C218.616 138.002 218.791 138.4 218.791 138.865C218.791 139.326 218.616 139.722 218.265 140.055C217.918 140.387 217.424 140.64 216.781 140.813C216.143 140.991 215.391 141.08 214.525 141.08C213.66 141.08 212.905 140.991 212.263 140.813C211.625 140.64 211.132 140.387 210.786 140.055C210.444 139.722 210.273 139.326 210.273 138.865C210.273 138.4 210.444 138.002 210.786 137.669C211.132 137.332 211.625 137.076 212.263 136.903C212.905 136.726 213.66 136.637 214.525 136.637ZM209.043 134.627H213.623V132.275H214.676V134.627H220.104V135.502H209.043V134.627ZM210.355 129.582H218.695V130.607C218.691 131.277 218.67 131.845 218.634 132.31C218.597 132.77 218.504 133.278 218.354 133.834L217.301 133.711C217.447 133.155 217.538 132.656 217.574 132.214C217.611 131.767 217.629 131.232 217.629 130.607V130.457H210.355V129.582ZM211.34 138.865C211.34 139.143 211.47 139.387 211.729 139.597C211.989 139.802 212.358 139.959 212.837 140.068C213.32 140.178 213.883 140.232 214.525 140.232C215.168 140.232 215.729 140.178 216.207 140.068C216.69 139.959 217.062 139.802 217.321 139.597C217.586 139.387 217.72 139.143 217.725 138.865C217.72 138.578 217.586 138.33 217.321 138.12C217.062 137.91 216.69 137.749 216.207 137.635C215.729 137.516 215.168 137.457 214.525 137.457C213.883 137.457 213.32 137.516 212.837 137.635C212.358 137.749 211.989 137.91 211.729 138.12C211.47 138.33 211.34 138.578 211.34 138.865ZM230.631 132.07H232.463V132.986H230.631V136.021H229.564V128.953H230.631V132.07ZM221.156 130.211H224.246V128.844H225.312V130.211H228.402V131.1H221.156V130.211ZM221.854 133.793C221.854 133.365 221.974 132.991 222.216 132.672C222.457 132.348 222.799 132.1 223.241 131.927C223.683 131.749 224.196 131.66 224.779 131.66C225.358 131.66 225.866 131.749 226.304 131.927C226.746 132.1 227.088 132.348 227.329 132.672C227.575 132.991 227.701 133.365 227.705 133.793C227.701 134.221 227.575 134.597 227.329 134.921C227.088 135.244 226.746 135.493 226.304 135.666C225.862 135.839 225.354 135.926 224.779 135.926C224.196 135.926 223.683 135.839 223.241 135.666C222.799 135.493 222.457 135.244 222.216 134.921C221.974 134.597 221.854 134.221 221.854 133.793ZM222.879 133.793C222.879 134.053 222.956 134.283 223.111 134.483C223.266 134.679 223.487 134.832 223.774 134.941C224.066 135.051 224.401 135.105 224.779 135.105C225.153 135.105 225.483 135.051 225.771 134.941C226.062 134.832 226.288 134.679 226.447 134.483C226.607 134.283 226.689 134.053 226.693 133.793C226.689 133.533 226.604 133.305 226.44 133.109C226.281 132.909 226.058 132.756 225.771 132.651C225.483 132.542 225.153 132.49 224.779 132.494C224.401 132.49 224.068 132.542 223.781 132.651C223.494 132.756 223.271 132.909 223.111 133.109C222.956 133.305 222.879 133.533 222.879 133.793ZM222.947 136.555H224.014V137.854H229.564V136.555H230.631V140.943H222.947V136.555ZM229.564 140.082V138.701H224.014V140.082H229.564ZM243.25 141.107H242.184V128.953H243.25V141.107ZM234.021 130.156H235.074V137.047C236.077 137.038 237.054 136.99 238.007 136.903C238.959 136.812 239.919 136.664 240.885 136.459L241.035 137.375C240.001 137.589 238.993 137.744 238.014 137.84C237.038 137.931 236.036 137.977 235.006 137.977H234.021V130.156ZM254.734 133.766H256.771V134.668H254.734V141.135H253.668V128.953H254.734V133.766ZM245.861 130.143H251.535V131.031H246.928V137.184C248.076 137.179 249.072 137.145 249.915 137.081C250.758 137.017 251.617 136.906 252.492 136.746L252.629 137.676C251.727 137.84 250.842 137.949 249.977 138.004C249.115 138.059 248.062 138.086 246.818 138.086H245.861V130.143ZM258.713 140.082C258.553 140.082 258.405 140.041 258.269 139.959C258.136 139.877 258.029 139.77 257.947 139.638C257.87 139.501 257.833 139.353 257.838 139.193C257.833 139.038 257.87 138.895 257.947 138.763C258.029 138.626 258.136 138.519 258.269 138.441C258.405 138.359 258.553 138.318 258.713 138.318C258.868 138.318 259.011 138.357 259.144 138.435C259.28 138.512 259.387 138.617 259.465 138.749C259.547 138.881 259.588 139.025 259.588 139.18C259.588 139.426 259.504 139.638 259.335 139.815C259.166 139.989 258.959 140.077 258.713 140.082Z" fill="#737373"/>
<path d="M98.213 51.4587C97.876 51.4587 97.5938 51.3449 97.3663 51.1175C97.1391 50.8902 97.0255 50.6081 97.0255 50.2712C97.0255 49.9342 97.1391 49.6521 97.3663 49.4249C97.5938 49.1974 97.876 49.0837 98.213 49.0837H108.596C108.728 49.0837 108.842 49.043 108.939 48.9617C109.035 48.8807 109.083 48.7742 109.083 48.6423V37.5681C109.083 34.5413 108 31.9932 105.834 29.9237C103.668 27.8543 101.057 26.8196 97.9997 26.8196C94.9425 26.8196 92.3311 27.8543 90.1653 29.9237C87.9993 31.9932 86.9163 34.5413 86.9163 37.5681V45.7036C86.9163 46.0406 86.8026 46.3229 86.5751 46.5503C86.3479 46.7775 86.0658 46.8911 85.7288 46.8911C84.9696 46.8911 84.3181 46.6269 83.7742 46.0983C83.2301 45.5694 82.958 44.9254 82.958 44.1662V41.091C82.958 40.5775 83.1042 40.107 83.3966 39.6795C83.689 39.2522 84.0706 38.9088 84.5413 38.6491L84.6146 36.6272C84.7444 34.9037 85.192 33.3072 85.9572 31.8376C86.7225 30.368 87.7039 29.0887 88.9014 27.9996C90.0992 26.9105 91.4816 26.062 93.0486 25.454C94.6158 24.846 96.2662 24.542 97.9997 24.542C99.7332 24.542 101.379 24.846 102.938 25.454C104.498 26.062 105.88 26.9064 107.086 27.9873C108.291 29.0682 109.273 30.3435 110.03 31.8131C110.787 33.2829 111.239 34.8794 111.385 36.6026L111.458 38.585C111.919 38.8022 112.298 39.1127 112.595 39.5168C112.893 39.9208 113.041 40.3714 113.041 40.8685V44.4037C113.041 44.9009 112.893 45.3515 112.595 45.7555C112.298 46.1595 111.919 46.4701 111.458 46.6873V48.6423C111.458 49.4216 111.178 50.0858 110.619 50.6349C110.06 51.1841 109.385 51.4587 108.596 51.4587H98.213ZM92.5629 40.4074C92.29 40.1446 92.1536 39.8192 92.1536 39.4313C92.1536 39.0436 92.29 38.7159 92.5629 38.448C92.836 38.1799 93.1664 38.0458 93.5541 38.0458C93.942 38.0458 94.2724 38.1799 94.5452 38.448C94.8184 38.7159 94.9549 39.0436 94.9549 39.4313C94.9549 39.8192 94.8184 40.1446 94.5452 40.4074C94.2724 40.6702 93.942 40.8016 93.5541 40.8016C93.1664 40.8016 92.836 40.6702 92.5629 40.4074ZM101.454 40.4074C101.181 40.1446 101.044 39.8192 101.044 39.4313C101.044 39.0436 101.181 38.7159 101.454 38.448C101.727 38.1799 102.057 38.0458 102.445 38.0458C102.833 38.0458 103.163 38.1799 103.436 38.448C103.709 38.7159 103.846 39.0436 103.846 39.4313C103.846 39.8192 103.709 40.1446 103.436 40.4074C103.163 40.6702 102.833 40.8016 102.445 40.8016C102.057 40.8016 101.727 40.6702 101.454 40.4074ZM89.0875 38.317C88.9231 35.733 89.7269 33.5219 91.4989 31.6836C93.2709 29.8456 95.4642 28.9266 98.0788 28.9266C100.275 28.9266 102.213 29.6062 103.893 30.9652C105.573 32.3242 106.592 34.0836 106.951 36.2432C104.702 36.2168 102.624 35.6262 100.717 34.4715C98.8099 33.3164 97.3459 31.7331 96.3249 29.7215C95.923 31.6903 95.0807 33.431 93.7979 34.9433C92.5149 36.4557 90.9447 37.5802 89.0875 38.317Z" fill="#144D6E"/>
</svg>
