<svg width="231" height="250" viewBox="0 0 231 250" fill="none" xmlns="http://www.w3.org/2000/svg">
<rect width="231" height="250" rx="9" fill="#F2F6F8"/>
<path d="M24.0391 119.978L28.8633 115.543C29.3395 115.085 29.7075 114.708 29.9673 114.411C30.2332 114.108 30.4373 113.808 30.5796 113.511C30.7218 113.208 30.793 112.883 30.793 112.537C30.793 112.147 30.7002 111.807 30.5146 111.517C30.3353 111.22 30.0817 110.994 29.7539 110.839C29.4323 110.685 29.0674 110.607 28.6592 110.607C28.0221 110.601 27.515 110.787 27.1377 111.164C26.7604 111.535 26.5749 112.042 26.5811 112.686H23.9277C23.9277 111.826 24.1257 111.071 24.5215 110.422C24.9235 109.766 25.4832 109.262 26.2007 108.91C26.9243 108.557 27.7562 108.381 28.6963 108.381C29.6426 108.381 30.4775 108.551 31.2012 108.891C31.9248 109.225 32.4845 109.692 32.8804 110.292C33.2824 110.892 33.4834 111.578 33.4834 112.352C33.4834 112.883 33.3813 113.394 33.1772 113.882C32.9731 114.365 32.6175 114.903 32.1104 115.497C31.6094 116.09 30.8981 116.805 29.9766 117.64L27.9355 119.625V119.699H33.6689V122H24.0576L24.0391 119.978ZM35.1533 117.417L40.8311 108.566H44.3379V117.38H46.0449V119.625H44.3379V122H41.6846V119.625H35.1533V117.417ZM41.7217 117.38V111.628H41.5918L37.9736 117.269V117.38H41.7217ZM53.875 110.645C53.8688 111.702 54.0265 112.723 54.3481 113.706C54.6698 114.689 55.1522 115.565 55.7954 116.332C56.4386 117.098 57.221 117.677 58.1426 118.066L56.751 119.959C55.8109 119.532 55.0007 118.92 54.3203 118.122C53.6462 117.324 53.1112 116.387 52.7153 115.311C52.3257 116.486 51.7783 117.51 51.0732 118.382C50.3682 119.248 49.5146 119.91 48.5127 120.367L47.084 118.4C48.0365 117.998 48.8405 117.402 49.4961 116.61C50.1579 115.812 50.6527 114.9 50.9805 113.873C51.3083 112.84 51.4753 111.764 51.4814 110.645V108.121H53.875V110.645ZM59.0518 106.822H61.4453V123.744H59.0518V106.822ZM77.124 111.554H79.4062V113.502H77.124V118.92H74.7305V106.822H77.124V111.554ZM63.6162 115.395C65.484 114.875 66.953 114.151 68.0229 113.224C69.0991 112.29 69.73 111.22 69.9155 110.014H64.3584V108.084H72.5225C72.5225 109.593 72.2132 110.954 71.5947 112.166C70.9824 113.372 70.0856 114.405 68.9043 115.265C67.723 116.124 66.2881 116.792 64.5996 117.269L63.6162 115.395ZM66.1396 117.677H68.5332V121.518H77.6992V123.41H66.1396V117.677ZM98.6289 119.105H96.2539V106.841H98.6289V119.105ZM84.7686 115.469C86.6302 114.931 88.1022 114.192 89.1846 113.251C90.2669 112.311 90.9102 111.232 91.1143 110.014H85.7334V108.065H93.6934C93.6934 109.581 93.381 110.948 92.7563 112.166C92.1379 113.384 91.2318 114.43 90.0381 115.302C88.8506 116.168 87.4033 116.848 85.6963 117.343L84.7686 115.469ZM87.3477 118.029H89.7041V121.518H98.9814V123.41H87.3477V118.029ZM105.123 118.233H112.155V116.434H114.493V123.521H102.804V116.434H105.123V118.233ZM100.948 113.428H111.821C111.97 112.692 112.069 112.014 112.118 111.396C112.168 110.778 112.199 110.113 112.211 109.401H102.841V107.509H114.567V108.863V109.374C114.567 110.06 114.54 110.719 114.484 111.35C114.434 111.974 114.329 112.667 114.168 113.428H116.404V115.32H100.948V113.428ZM112.155 121.61V120.033H105.123V121.61H112.155ZM137.111 115.747H130.617V116.805H135.274V120.924H125.867V121.852H135.72V123.596H123.548V119.328H132.937V118.493H123.529V116.805H128.261V115.747H121.785V114.021H137.111V115.747ZM122.379 111.813C123.987 111.745 125.255 111.538 126.183 111.192C127.11 110.839 127.704 110.403 127.964 109.884H123.232V108.14H128.261V106.804H130.599V108.14H135.664V109.884H130.886C131.146 110.403 131.74 110.839 132.667 111.192C133.601 111.538 134.879 111.745 136.499 111.813L135.812 113.558C134.26 113.477 132.943 113.248 131.86 112.871C130.778 112.494 129.968 111.984 129.43 111.34C128.892 111.984 128.081 112.494 126.999 112.871C125.917 113.248 124.593 113.477 123.028 113.558L122.379 111.813ZM153.606 116.656H138.169V114.801H144.737V113.354H140.043V107.564H151.751V109.401H142.399V111.498H151.844V113.354H147.057V114.801H153.606V116.656ZM139.932 120.627C139.932 119.965 140.167 119.402 140.637 118.938C141.107 118.468 141.784 118.113 142.668 117.872C143.559 117.63 144.62 117.51 145.851 117.51C147.069 117.51 148.117 117.63 148.996 117.872C149.874 118.113 150.548 118.468 151.018 118.938C151.488 119.402 151.726 119.965 151.732 120.627C151.726 121.283 151.488 121.842 151.018 122.306C150.548 122.77 149.874 123.123 148.996 123.364C148.117 123.605 147.069 123.726 145.851 123.726C144.62 123.726 143.562 123.605 142.678 123.364C141.793 123.123 141.113 122.77 140.637 122.306C140.167 121.842 139.932 121.283 139.932 120.627ZM142.344 120.627C142.338 121.066 142.625 121.394 143.207 121.61C143.794 121.821 144.675 121.926 145.851 121.926C148.182 121.926 149.351 121.493 149.357 120.627C149.351 120.194 149.051 119.866 148.458 119.644C147.87 119.421 147.001 119.31 145.851 119.31C144.682 119.31 143.803 119.421 143.216 119.644C142.628 119.86 142.338 120.188 142.344 120.627Z" fill="black"/>
<path d="M34.2646 149.586H33.1074V140.124H34.2646V149.586ZM23.7471 147.228C24.8018 146.906 25.7246 146.491 26.5156 145.983C27.3066 145.47 27.9341 144.882 28.3979 144.218C28.8618 143.554 29.1353 142.838 29.2183 142.072H24.4355V141.105H30.4854C30.4805 142.213 30.2241 143.229 29.7163 144.152C29.2085 145.075 28.4858 145.875 27.5483 146.554C26.6108 147.233 25.5 147.77 24.2158 148.166L23.7471 147.228ZM25.7832 148.81H26.9404V151.886H34.6162V152.853H25.7832V148.81ZM38.8865 149.293H45.4051V147.565H46.5477V152.956H37.7439V147.565H38.8865V149.293ZM36.1912 145.441H45.0608C45.1976 144.801 45.2879 144.218 45.3318 143.69C45.3807 143.158 45.4051 142.611 45.4051 142.05V141.662H37.7V140.709H46.5477V141.662C46.5477 142.35 46.5257 142.973 46.4817 143.529C46.4427 144.086 46.345 144.723 46.1888 145.441H48.115V146.393H36.1912V145.441ZM45.4051 152.018V150.202H38.8865V152.018H45.4051ZM56.6703 142.218C56.6703 142.799 56.807 143.361 57.0805 143.903C57.3588 144.44 57.7421 144.914 58.2304 145.324C58.7235 145.734 59.2826 146.046 59.9076 146.261L59.2777 147.169C58.56 146.906 57.9276 146.518 57.3808 146.005C56.8388 145.487 56.4237 144.887 56.1356 144.203C55.8573 144.975 55.4374 145.648 54.8759 146.225C54.3144 146.801 53.6527 147.238 52.891 147.536L52.2758 146.613C52.9203 146.374 53.4892 146.029 53.9823 145.58C54.4755 145.131 54.8588 144.611 55.1322 144.02C55.4057 143.424 55.5424 142.794 55.5424 142.13V140.783H56.6703V142.218ZM54.0043 150.729C54.0043 150.236 54.1776 149.813 54.5243 149.462C54.871 149.105 55.369 148.834 56.0185 148.649C56.6679 148.463 57.4369 148.371 58.3256 148.371C59.2143 148.371 59.9784 148.463 60.6181 148.649C61.2626 148.834 61.7558 149.105 62.0976 149.462C62.4442 149.813 62.6176 150.236 62.6176 150.729C62.6176 151.232 62.4467 151.659 62.1049 152.011C61.7631 152.367 61.2699 152.638 60.6254 152.824C59.9809 153.009 59.2143 153.102 58.3256 153.102C57.432 153.102 56.6605 153.009 56.0111 152.824C55.3666 152.638 54.871 152.367 54.5243 152.011C54.1776 151.654 54.0043 151.227 54.0043 150.729ZM55.1615 150.729C55.1566 151.032 55.2812 151.293 55.5351 151.513C55.789 151.732 56.1527 151.901 56.6264 152.018C57.1049 152.135 57.6713 152.194 58.3256 152.194C58.9799 152.194 59.5438 152.135 60.0175 152.018C60.496 151.901 60.8622 151.732 61.1161 151.513C61.3749 151.293 61.5043 151.032 61.5043 150.729C61.5043 150.436 61.3749 150.182 61.1161 149.967C60.8622 149.748 60.496 149.582 60.0175 149.469C59.539 149.352 58.975 149.293 58.3256 149.293C57.6762 149.293 57.1122 149.352 56.6337 149.469C56.1552 149.586 55.789 149.752 55.5351 149.967C55.2812 150.182 55.1566 150.436 55.1615 150.729ZM61.3578 140.109H62.5004V143.507H64.4633V144.474H62.5004V148.034H61.3578V140.109ZM75.1496 144.049H77.0979V145.016H75.1496V148.957H73.9924V140.124H75.1496V144.049ZM64.925 147.433C66.4338 147.433 67.6105 147.418 68.4553 147.389V146.356C67.6789 146.288 67.0686 146.093 66.6242 145.771C66.1799 145.448 65.9602 145.031 65.965 144.518C65.965 144.137 66.0896 143.808 66.3386 143.529C66.5876 143.251 66.9416 143.039 67.4006 142.892C67.8596 142.746 68.3967 142.672 69.0119 142.672C69.6271 142.672 70.1643 142.746 70.6232 142.892C71.0822 143.039 71.4362 143.251 71.6853 143.529C71.9392 143.803 72.0686 144.132 72.0734 144.518C72.0686 145.026 71.8464 145.441 71.4069 145.763C70.9675 146.085 70.3645 146.281 69.5979 146.349V147.345C70.9162 147.282 72.1125 147.174 73.1867 147.023L73.2893 147.829C72.0979 148.034 70.8503 148.173 69.5466 148.246C68.2478 148.319 66.8879 148.356 65.467 148.356H65.0568L64.925 147.433ZM65.2473 141.237H68.4553V140.006H69.5979V141.237H72.7912V142.13H65.2473V141.237ZM66.6682 151.125C66.6682 150.695 66.8342 150.329 67.1662 150.026C67.5031 149.723 67.9914 149.496 68.6311 149.345C69.2707 149.188 70.0422 149.113 70.9455 149.118C71.8488 149.113 72.6203 149.188 73.26 149.345C73.8996 149.496 74.3879 149.723 74.7248 150.026C75.0666 150.329 75.2375 150.695 75.2375 151.125C75.2326 151.769 74.8566 152.262 74.1096 152.604C73.3674 152.946 72.3127 153.122 70.9455 153.131C69.5783 153.122 68.5212 152.946 67.7741 152.604C67.0319 152.262 66.6633 151.769 66.6682 151.125ZM67.0637 144.518C67.0588 144.845 67.2321 145.104 67.5837 145.294C67.9353 145.48 68.4113 145.573 69.0119 145.573C69.6125 145.573 70.0886 145.48 70.4401 145.294C70.7966 145.104 70.9748 144.845 70.9748 144.518C70.9748 144.313 70.8942 144.132 70.7331 143.976C70.5769 143.815 70.3522 143.693 70.0593 143.61C69.7712 143.522 69.4318 143.478 69.0412 143.478C68.4309 143.478 67.9475 143.573 67.591 143.764C67.2346 143.949 67.0588 144.201 67.0637 144.518ZM67.8254 151.125C67.8156 151.476 68.0842 151.752 68.6311 151.952C69.1779 152.152 69.9494 152.252 70.9455 152.252C71.9367 152.252 72.7033 152.152 73.2453 151.952C73.7873 151.752 74.0607 151.476 74.0656 151.125C74.0607 150.758 73.7873 150.475 73.2453 150.275C72.7033 150.075 71.9367 149.977 70.9455 149.982C69.9445 149.977 69.1706 150.075 68.6237 150.275C68.0817 150.475 67.8156 150.758 67.8254 151.125ZM82.7967 142.541H86.5906V140.666H87.7332V146.334H81.6688V140.666H82.7967V142.541ZM86.5906 145.397V143.434H82.7967V145.397H86.5906ZM82.9871 147.462H91.2928V150.612H84.1443V152.047H91.7762V152.985H83.0164V149.733H90.1502V148.385H82.9871V147.462ZM90.1502 140.109H91.2928V142.936H93.2557V143.903H91.2928V146.847H90.1502V140.109ZM97.6578 142.702C97.6627 143.185 97.7726 143.659 97.9874 144.123C98.2022 144.586 98.5123 145.004 98.9176 145.375C99.3229 145.741 99.7965 146.027 100.338 146.232L99.7379 147.111C99.1227 146.872 98.5904 146.532 98.1412 146.093C97.6969 145.653 97.3551 145.148 97.1158 144.577C96.8717 145.216 96.5177 145.792 96.0538 146.305C95.5899 146.818 95.0455 147.208 94.4205 147.477L93.7906 146.583C94.3473 146.344 94.8331 146.012 95.2481 145.587C95.6681 145.163 95.9903 144.699 96.2149 144.196C96.4396 143.688 96.5543 143.19 96.5592 142.702V140.929H97.6578V142.702ZM96.1637 150.788C96.1588 150.299 96.3297 149.882 96.6764 149.535C97.0279 149.184 97.5333 148.917 98.1925 148.737C98.8517 148.551 99.6305 148.458 100.529 148.458C101.422 148.458 102.196 148.551 102.851 148.737C103.51 148.917 104.018 149.184 104.374 149.535C104.731 149.882 104.909 150.299 104.909 150.788C104.909 151.271 104.731 151.686 104.374 152.033C104.018 152.379 103.51 152.643 102.851 152.824C102.196 153.009 101.422 153.102 100.529 153.102C99.6305 153.102 98.8517 153.009 98.1925 152.824C97.5333 152.643 97.0279 152.379 96.6764 152.033C96.3297 151.686 96.1588 151.271 96.1637 150.788ZM97.3063 150.788C97.3014 151.081 97.4259 151.334 97.6798 151.549C97.9386 151.759 98.3072 151.92 98.7857 152.033C99.2691 152.15 99.838 152.208 100.492 152.208C101.156 152.208 101.733 152.152 102.221 152.04C102.709 151.928 103.088 151.764 103.356 151.549C103.625 151.334 103.761 151.081 103.766 150.788C103.761 150.49 103.627 150.233 103.363 150.019C103.1 149.799 102.724 149.63 102.235 149.513C101.752 149.396 101.183 149.337 100.529 149.337C99.8648 149.337 99.2887 149.396 98.8004 149.513C98.317 149.63 97.9459 149.799 97.6871 150.019C97.4283 150.233 97.3014 150.49 97.3063 150.788ZM100.924 140.373H102.008V143.625H103.737V140.124H104.836V148.166H103.737V144.577H102.008V147.755H100.924V140.373ZM114.533 143.61C114.533 144.381 114.692 145.148 115.009 145.91C115.327 146.667 115.754 147.34 116.291 147.931C116.833 148.522 117.424 148.961 118.064 149.25L117.361 150.158C116.613 149.796 115.94 149.252 115.339 148.524C114.738 147.792 114.282 146.964 113.969 146.042C113.672 147.023 113.22 147.902 112.614 148.678C112.009 149.455 111.325 150.036 110.564 150.421L109.831 149.455C110.476 149.162 111.069 148.71 111.611 148.1C112.153 147.489 112.583 146.791 112.9 146.005C113.222 145.214 113.386 144.416 113.391 143.61V141.237H114.533V143.61ZM119.485 140.109H120.642V153.161H119.485V140.109ZM126.487 150.978L130.105 147.169C130.579 146.662 130.94 146.254 131.189 145.946C131.443 145.634 131.636 145.333 131.768 145.045C131.9 144.757 131.966 144.455 131.966 144.137C131.966 143.781 131.873 143.468 131.687 143.2C131.502 142.926 131.248 142.714 130.926 142.562C130.608 142.411 130.252 142.335 129.856 142.335C129.441 142.335 129.077 142.421 128.765 142.592C128.452 142.758 128.211 142.99 128.04 143.288C127.874 143.585 127.791 143.932 127.791 144.328H126.546C126.541 143.712 126.682 143.168 126.971 142.694C127.263 142.221 127.666 141.852 128.179 141.588C128.692 141.325 129.265 141.193 129.9 141.193C130.53 141.193 131.094 141.322 131.592 141.581C132.095 141.84 132.488 142.194 132.771 142.643C133.054 143.092 133.196 143.59 133.196 144.137C133.191 144.542 133.116 144.931 132.969 145.302C132.827 145.668 132.583 146.076 132.237 146.525C131.89 146.974 131.399 147.526 130.764 148.18L128.333 150.685V150.773H133.387V151.945H126.502L126.487 150.978ZM134.522 148.693L139.297 141.339H140.923V148.62H142.403V149.777H140.923V151.945H139.664V149.777H134.522V148.693ZM139.664 148.62V143.009H139.532L135.943 148.532V148.62H139.664ZM148.006 143.61C148.006 144.381 148.165 145.148 148.482 145.91C148.8 146.667 149.227 147.34 149.764 147.931C150.306 148.522 150.897 148.961 151.537 149.25L150.833 150.158C150.086 149.796 149.412 149.252 148.812 148.524C148.211 147.792 147.755 146.964 147.442 146.042C147.144 147.023 146.693 147.902 146.087 148.678C145.482 149.455 144.798 150.036 144.037 150.421L143.304 149.455C143.949 149.162 144.542 148.71 145.084 148.1C145.626 147.489 146.056 146.791 146.373 146.005C146.695 145.214 146.859 144.416 146.864 143.61V141.237H148.006V143.61ZM152.957 140.109H154.115V153.161H152.957V140.109ZM166.222 144.079H168.185V145.045H166.222V149.645H165.065V140.109H166.222V144.079ZM156.056 147.213C157.101 146.886 158.014 146.469 158.795 145.961C159.576 145.453 160.194 144.87 160.648 144.21C161.107 143.551 161.376 142.843 161.454 142.086H156.598V141.12H162.706C162.706 142.218 162.457 143.227 161.959 144.145C161.461 145.062 160.751 145.858 159.828 146.532C158.905 147.206 157.814 147.741 156.554 148.136L156.056 147.213ZM158.063 148.678H159.205V151.886H166.822V152.853H158.063V148.678ZM176.301 152.091C175.602 152.091 174.977 151.974 174.426 151.74C173.874 151.505 173.437 151.176 173.115 150.751C172.797 150.321 172.629 149.831 172.609 149.279H173.942C173.967 149.611 174.084 149.901 174.294 150.15C174.504 150.395 174.782 150.585 175.129 150.722C175.475 150.854 175.861 150.919 176.286 150.919C176.75 150.919 177.165 150.841 177.531 150.685C177.897 150.529 178.183 150.309 178.388 150.026C178.598 149.743 178.703 149.42 178.703 149.059C178.698 148.673 178.596 148.332 178.395 148.034C178.195 147.736 177.9 147.504 177.509 147.338C177.123 147.167 176.662 147.082 176.125 147.082H175.261V145.924H176.125C176.55 145.924 176.928 145.849 177.26 145.697C177.592 145.546 177.848 145.333 178.029 145.06C178.215 144.782 178.307 144.464 178.307 144.108C178.307 143.756 178.227 143.449 178.066 143.185C177.905 142.917 177.675 142.709 177.377 142.562C177.079 142.411 176.73 142.335 176.33 142.335C175.949 142.34 175.59 142.411 175.253 142.548C174.921 142.68 174.65 142.873 174.44 143.126C174.235 143.375 174.123 143.668 174.103 144.005H172.829C172.848 143.458 173.017 142.973 173.334 142.548C173.657 142.118 174.081 141.786 174.609 141.552C175.141 141.312 175.72 141.193 176.345 141.193C176.999 141.193 177.57 141.322 178.058 141.581C178.552 141.84 178.93 142.187 179.194 142.621C179.457 143.056 179.587 143.527 179.582 144.035C179.587 144.63 179.428 145.141 179.106 145.565C178.783 145.985 178.342 146.276 177.78 146.437V146.51C178.234 146.579 178.627 146.73 178.959 146.964C179.296 147.194 179.553 147.489 179.728 147.851C179.904 148.207 179.992 148.61 179.992 149.059C179.992 149.63 179.831 150.148 179.509 150.612C179.191 151.071 178.752 151.432 178.19 151.696C177.629 151.959 176.999 152.091 176.301 152.091ZM185.332 152.091C184.643 152.091 184.006 151.938 183.42 151.63C182.839 151.317 182.36 150.788 181.984 150.041C181.608 149.289 181.421 148.292 181.421 147.052C181.421 145.812 181.582 144.755 181.904 143.881C182.231 143.002 182.695 142.335 183.296 141.881C183.901 141.422 184.619 141.193 185.449 141.193C186.059 141.193 186.608 141.312 187.097 141.552C187.585 141.786 187.983 142.116 188.291 142.541C188.603 142.965 188.803 143.454 188.891 144.005H187.587C187.461 143.512 187.214 143.117 186.848 142.819C186.482 142.516 186.015 142.365 185.449 142.365C184.868 142.365 184.367 142.526 183.947 142.848C183.532 143.166 183.215 143.627 182.995 144.232C182.775 144.838 182.666 145.563 182.666 146.408H182.797C183.105 145.963 183.493 145.619 183.962 145.375C184.436 145.126 184.956 145.001 185.522 145.001C186.147 145.001 186.723 145.153 187.251 145.456C187.778 145.758 188.198 146.178 188.51 146.715C188.823 147.248 188.979 147.848 188.979 148.517C188.979 149.181 188.828 149.784 188.525 150.326C188.222 150.868 187.793 151.298 187.236 151.615C186.684 151.933 186.049 152.091 185.332 152.091ZM182.841 148.546C182.841 148.961 182.946 149.352 183.156 149.718C183.371 150.084 183.664 150.38 184.035 150.604C184.411 150.824 184.829 150.934 185.288 150.934C185.737 150.934 186.145 150.827 186.511 150.612C186.877 150.392 187.168 150.099 187.382 149.733C187.597 149.367 187.705 148.966 187.705 148.532C187.705 148.102 187.6 147.707 187.39 147.345C187.185 146.984 186.899 146.696 186.533 146.481C186.171 146.266 185.766 146.159 185.317 146.159C184.863 146.159 184.448 146.271 184.072 146.496C183.696 146.715 183.398 147.008 183.178 147.375C182.959 147.741 182.846 148.131 182.841 148.546ZM193.953 152.091C193.323 152.091 192.749 151.972 192.231 151.732C191.719 151.488 191.309 151.154 191.001 150.729C190.698 150.299 190.535 149.816 190.51 149.279H191.785C191.814 149.591 191.929 149.872 192.129 150.121C192.329 150.37 192.588 150.568 192.905 150.714C193.227 150.861 193.577 150.934 193.953 150.934C194.407 150.934 194.812 150.832 195.168 150.626C195.53 150.421 195.813 150.141 196.018 149.784C196.223 149.428 196.326 149.03 196.326 148.59C196.326 148.136 196.218 147.729 196.003 147.367C195.793 147.001 195.5 146.713 195.124 146.503C194.753 146.293 194.333 146.188 193.865 146.188C192.913 146.173 192.253 146.491 191.887 147.14H190.613L191.36 141.339H197.102V142.511H192.458L192.063 145.617H192.165C192.41 145.431 192.7 145.282 193.037 145.17C193.379 145.058 193.733 145.001 194.099 145.001C194.763 145.001 195.361 145.155 195.893 145.463C196.431 145.766 196.85 146.188 197.153 146.73C197.461 147.272 197.615 147.882 197.615 148.561C197.615 149.235 197.456 149.84 197.139 150.377C196.821 150.915 196.384 151.334 195.828 151.637C195.276 151.94 194.651 152.091 193.953 152.091ZM27.2188 162.592C27.8633 162.592 28.4395 162.717 28.9473 162.966C29.46 163.21 29.8604 163.552 30.1484 163.991C30.4414 164.426 30.5879 164.921 30.5879 165.478C30.5879 166.035 30.4414 166.533 30.1484 166.972C29.8604 167.407 29.46 167.746 28.9473 167.99C28.4395 168.229 27.8633 168.349 27.2188 168.349C26.5693 168.349 25.9858 168.229 25.4683 167.99C24.9556 167.746 24.5552 167.407 24.2671 166.972C23.979 166.533 23.835 166.035 23.835 165.478C23.835 164.921 23.979 164.426 24.2671 163.991C24.5552 163.552 24.9556 163.21 25.4683 162.966C25.9858 162.717 26.5693 162.592 27.2188 162.592ZM24.9629 165.478C24.958 165.854 25.0508 166.188 25.2412 166.481C25.4365 166.774 25.7051 167.004 26.0469 167.17C26.3936 167.331 26.7842 167.412 27.2188 167.412C27.6436 167.412 28.0269 167.331 28.3687 167.17C28.7153 167.004 28.9863 166.774 29.1816 166.481C29.377 166.188 29.4746 165.854 29.4746 165.478C29.4746 165.107 29.377 164.775 29.1816 164.482C28.9863 164.189 28.7153 163.962 28.3687 163.801C28.0269 163.64 27.6436 163.559 27.2188 163.559C26.7842 163.559 26.3936 163.64 26.0469 163.801C25.7051 163.962 25.4365 164.189 25.2412 164.482C25.0508 164.775 24.958 165.107 24.9629 165.478ZM25.8125 169.433H34.2793V172.568H26.9697V174.033H34.748V174.956H25.8418V171.704H33.1367V170.356H25.8125V169.433ZM33.1367 162.109H34.2793V168.803H33.1367V162.109ZM50.3932 171.586H49.2359V162.124H50.3932V171.586ZM39.8756 169.228C40.9303 168.906 41.8531 168.491 42.6441 167.983C43.4352 167.47 44.0626 166.882 44.5265 166.218C44.9903 165.554 45.2638 164.838 45.3468 164.072H40.5641V163.105H46.6139C46.609 164.213 46.3526 165.229 45.8448 166.152C45.337 167.075 44.6144 167.875 43.6769 168.554C42.7394 169.233 41.6285 169.77 40.3443 170.166L39.8756 169.228ZM41.9117 170.81H43.0689V173.886H50.7447V174.853H41.9117V170.81ZM55.015 171.293H61.5336V169.565H62.6762V174.956H53.8725V169.565H55.015V171.293ZM52.3197 167.441H61.1894C61.3261 166.801 61.4164 166.218 61.4604 165.69C61.5092 165.158 61.5336 164.611 61.5336 164.05V163.662H53.8285V162.709H62.6762V163.662C62.6762 164.35 62.6542 164.973 62.6103 165.529C62.5712 166.086 62.4735 166.723 62.3173 167.441H64.2436V168.393H52.3197V167.441ZM61.5336 174.018V172.202H55.015V174.018H61.5336ZM80.3135 168.803H74.9375V170.019H78.79V172.832H71.0557V174.106H79.1855V174.985H69.9131V172.011H77.6621V170.883H69.8838V170.019H73.8096V168.803H68.4629V167.91H80.3135V168.803ZM69.0928 166.43C69.9033 166.376 70.6455 166.252 71.3193 166.057C71.998 165.861 72.5522 165.603 72.9819 165.28C73.4116 164.953 73.6606 164.58 73.729 164.16H69.6787V163.251H73.8096V162.036H74.9375V163.251H79.1123V164.16H75.0254C75.0938 164.58 75.3403 164.953 75.7651 165.28C76.1948 165.603 76.749 165.861 77.4277 166.057C78.1064 166.252 78.8535 166.376 79.6689 166.43L79.3174 167.309C78.1699 167.211 77.1543 166.987 76.2705 166.635C75.3916 166.284 74.7617 165.81 74.3809 165.214C73.9951 165.81 73.3604 166.284 72.4766 166.635C71.5977 166.987 70.582 167.211 69.4297 167.309L69.0928 166.43ZM92.992 169.477H81.1121V168.554H86.4881V167.031H82.6209V162.724H91.5125V163.647H83.7488V166.093H91.6004V167.031H87.6014V168.554H92.992V169.477ZM82.5477 172.773C82.5477 172.28 82.7259 171.86 83.0823 171.513C83.4388 171.162 83.9539 170.893 84.6277 170.708C85.3016 170.522 86.1072 170.429 87.0447 170.429C87.9725 170.429 88.7708 170.522 89.4397 170.708C90.1087 170.893 90.6214 171.162 90.9778 171.513C91.3392 171.86 91.5223 172.28 91.5271 172.773C91.5223 173.271 91.3416 173.693 90.9852 174.04C90.6287 174.392 90.1136 174.66 89.4397 174.846C88.7708 175.031 87.9725 175.126 87.0447 175.131C86.1072 175.126 85.3016 175.031 84.6277 174.846C83.9539 174.66 83.4388 174.392 83.0823 174.04C82.7259 173.688 82.5477 173.266 82.5477 172.773ZM83.7195 172.773C83.7146 173.071 83.8416 173.33 84.1004 173.549C84.3641 173.764 84.7425 173.928 85.2356 174.04C85.7288 174.152 86.3172 174.208 87.0008 174.208C88.0555 174.208 88.8782 174.084 89.469 173.835C90.0647 173.586 90.365 173.232 90.3699 172.773C90.3699 172.475 90.2356 172.219 89.9671 172.004C89.6985 171.789 89.3152 171.625 88.8172 171.513C88.3191 171.396 87.7283 171.337 87.0447 171.337C86.3514 171.337 85.7532 171.396 85.2503 171.513C84.7522 171.625 84.3714 171.789 84.1077 172.004C83.844 172.219 83.7146 172.475 83.7195 172.773ZM101.826 165.61C101.826 166.381 101.975 167.143 102.272 167.895C102.575 168.647 102.985 169.316 103.503 169.902C104.025 170.483 104.599 170.917 105.224 171.206L104.536 172.143C103.793 171.762 103.132 171.206 102.551 170.473C101.975 169.736 101.542 168.903 101.254 167.976C100.961 168.957 100.524 169.838 99.9433 170.62C99.3671 171.401 98.7104 171.987 97.973 172.377L97.226 171.455C97.8559 171.147 98.432 170.686 98.9545 170.07C99.477 169.45 99.8895 168.75 100.192 167.968C100.5 167.182 100.654 166.396 100.654 165.61V163.237H101.826V165.61ZM103.803 166.562H106.894V162.109H108.037V175.161H106.894V167.5H103.803V166.562ZM120.642 175.161H119.485V162.109H120.642V175.161ZM110.666 163.222H111.809V166.665H115.691V163.222H116.819V172.011H110.666V163.222ZM115.691 171.044V167.587H111.809V171.044H115.691ZM129.058 164.028C129.058 164.741 129.297 165.427 129.775 166.086C130.254 166.745 130.864 167.307 131.606 167.771C132.354 168.229 133.11 168.53 133.877 168.671L133.35 169.638C132.681 169.482 132.024 169.228 131.379 168.876C130.74 168.525 130.164 168.09 129.651 167.573C129.138 167.055 128.745 166.489 128.472 165.874C128.198 166.489 127.805 167.055 127.292 167.573C126.78 168.085 126.201 168.52 125.557 168.876C124.917 169.228 124.263 169.482 123.594 169.638L123.066 168.671C123.833 168.525 124.585 168.222 125.322 167.763C126.064 167.304 126.672 166.745 127.146 166.086C127.62 165.427 127.856 164.741 127.856 164.028V163.032H129.058V164.028ZM122.568 172.407H134.492V173.359H122.568V172.407ZM147.141 169.067H135.218V168.159H147.141V169.067ZM136.653 170.107H145.647V172.875H137.825V174.121H146.072V174.956H136.668V172.084H144.505V170.971H136.653V170.107ZM136.726 162.504H145.603V165.2H137.913V166.342H145.838V167.177H136.77V164.409H144.446V163.339H136.726V162.504ZM162.494 175.131H161.395V162.109H162.494V175.131ZM151.2 171.66C151.79 171.308 152.303 170.827 152.738 170.217C153.172 169.602 153.504 168.916 153.734 168.159C153.963 167.397 154.076 166.621 154.071 165.83V164.599H151.566V163.647H157.572V164.599H155.184V165.83C155.184 166.586 155.294 167.324 155.514 168.042C155.738 168.759 156.06 169.409 156.48 169.99C156.905 170.571 157.411 171.03 157.996 171.367L157.293 172.216C156.663 171.84 156.124 171.32 155.675 170.656C155.225 169.987 154.884 169.23 154.649 168.386C154.41 169.304 154.056 170.124 153.587 170.847C153.123 171.564 152.572 172.124 151.932 172.524L151.2 171.66ZM156.576 166.811H158.773V162.431H159.857V174.458H158.773V167.749H156.576V166.811ZM169.913 170.341C170.841 170.341 171.647 170.437 172.33 170.627C173.019 170.812 173.549 171.086 173.92 171.447C174.296 171.804 174.484 172.231 174.484 172.729C174.484 173.222 174.296 173.647 173.92 174.003C173.549 174.36 173.019 174.631 172.33 174.816C171.647 175.007 170.841 175.102 169.913 175.102C168.986 175.102 168.177 175.007 167.489 174.816C166.805 174.631 166.278 174.36 165.907 174.003C165.541 173.647 165.358 173.222 165.358 172.729C165.358 172.231 165.541 171.804 165.907 171.447C166.278 171.086 166.805 170.812 167.489 170.627C168.177 170.437 168.986 170.341 169.913 170.341ZM164.039 168.188H168.946V165.668H170.074V168.188H175.89V169.125H164.039V168.188ZM165.446 162.783H174.381V163.881C174.376 164.599 174.354 165.207 174.315 165.705C174.276 166.198 174.176 166.743 174.015 167.338L172.887 167.207C173.043 166.611 173.141 166.076 173.18 165.603C173.219 165.124 173.238 164.55 173.238 163.881V163.72H165.446V162.783ZM166.5 172.729C166.5 173.027 166.639 173.288 166.918 173.513C167.196 173.732 167.592 173.901 168.104 174.018C168.622 174.135 169.225 174.194 169.913 174.194C170.602 174.194 171.202 174.135 171.715 174.018C172.233 173.901 172.631 173.732 172.909 173.513C173.192 173.288 173.336 173.027 173.341 172.729C173.336 172.421 173.192 172.155 172.909 171.931C172.631 171.706 172.233 171.533 171.715 171.411C171.202 171.284 170.602 171.22 169.913 171.22C169.225 171.22 168.622 171.284 168.104 171.411C167.592 171.533 167.196 171.706 166.918 171.931C166.639 172.155 166.5 172.421 166.5 172.729ZM186.869 165.449H188.832V166.43H186.869V169.682H185.727V162.109H186.869V165.449ZM176.718 163.457H180.028V161.992H181.171V163.457H184.481V164.409H176.718V163.457ZM177.465 167.294C177.465 166.835 177.594 166.435 177.853 166.093C178.112 165.747 178.478 165.48 178.952 165.295C179.425 165.104 179.975 165.009 180.6 165.009C181.22 165.009 181.764 165.104 182.233 165.295C182.707 165.48 183.073 165.747 183.332 166.093C183.595 166.435 183.729 166.835 183.734 167.294C183.729 167.753 183.595 168.156 183.332 168.503C183.073 168.85 182.707 169.116 182.233 169.301C181.759 169.487 181.215 169.58 180.6 169.58C179.975 169.58 179.425 169.487 178.952 169.301C178.478 169.116 178.112 168.85 177.853 168.503C177.594 168.156 177.465 167.753 177.465 167.294ZM178.563 167.294C178.563 167.573 178.646 167.819 178.812 168.034C178.979 168.244 179.215 168.408 179.523 168.525C179.835 168.642 180.194 168.701 180.6 168.701C181 168.701 181.354 168.642 181.662 168.525C181.974 168.408 182.216 168.244 182.387 168.034C182.558 167.819 182.646 167.573 182.65 167.294C182.646 167.016 182.555 166.772 182.379 166.562C182.208 166.347 181.969 166.184 181.662 166.071C181.354 165.954 181 165.898 180.6 165.903C180.194 165.898 179.838 165.954 179.53 166.071C179.223 166.184 178.983 166.347 178.812 166.562C178.646 166.772 178.563 167.016 178.563 167.294ZM178.637 170.253H179.779V171.645H185.727V170.253H186.869V174.956H178.637V170.253ZM185.727 174.033V172.553H179.779V174.033H185.727ZM200.09 175.131H198.947V162.109H200.09V175.131ZM190.202 163.398H191.33V170.781C192.404 170.771 193.451 170.72 194.472 170.627C195.492 170.529 196.52 170.371 197.555 170.151L197.717 171.132C196.608 171.362 195.529 171.528 194.479 171.63C193.434 171.728 192.36 171.777 191.257 171.777H190.202V163.398ZM33.6055 189.265H35.7881V190.232H33.6055V197.161H32.4629V184.109H33.6055V189.265ZM24.0986 185.383H30.1777V186.335H25.2412V192.927C26.4717 192.922 27.5386 192.886 28.4419 192.817C29.3452 192.749 30.2656 192.629 31.2031 192.458L31.3496 193.455C30.3828 193.63 29.4355 193.748 28.5078 193.806C27.585 193.865 26.457 193.894 25.124 193.894H24.0986V185.383ZM37.5682 196.033C37.3973 196.033 37.2386 195.989 37.0921 195.901C36.9505 195.813 36.8357 195.698 36.7479 195.557C36.6648 195.41 36.6258 195.251 36.6307 195.081C36.6258 194.915 36.6648 194.761 36.7479 194.619C36.8357 194.473 36.9505 194.358 37.0921 194.275C37.2386 194.187 37.3973 194.143 37.5682 194.143C37.7342 194.143 37.888 194.185 38.0296 194.268C38.1761 194.351 38.2908 194.463 38.3738 194.604C38.4617 194.746 38.5057 194.9 38.5057 195.066C38.5057 195.33 38.4153 195.557 38.2347 195.747C38.054 195.933 37.8318 196.028 37.5682 196.033ZM50.4594 186.057H49.1264V190.225C49.8295 190.171 50.4154 190.115 50.8842 190.056L50.9428 190.935C49.0971 191.218 46.6898 191.36 43.7211 191.36H43.3256L43.1791 190.393C43.9018 190.393 44.4633 190.391 44.8637 190.386V186.057H43.5453V185.105H50.4594V186.057ZM45.2592 194.758C45.2592 194.265 45.4325 193.845 45.7792 193.499C46.1259 193.147 46.6264 192.881 47.2807 192.7C47.9398 192.52 48.7211 192.429 49.6244 192.429C50.5277 192.429 51.3065 192.52 51.9608 192.7C52.6151 192.881 53.1156 193.147 53.4623 193.499C53.8139 193.845 53.9896 194.265 53.9896 194.758C53.9896 195.251 53.8139 195.674 53.4623 196.025C53.1156 196.377 52.6151 196.643 51.9608 196.824C51.3065 197.009 50.5277 197.102 49.6244 197.102C48.7211 197.102 47.9398 197.009 47.2807 196.824C46.6264 196.643 46.1259 196.377 45.7792 196.025C45.4325 195.674 45.2592 195.251 45.2592 194.758ZM45.977 190.364C46.7387 190.349 47.4174 190.325 48.0131 190.291V186.057H45.977V190.364ZM46.4018 194.758C46.4018 195.056 46.5287 195.315 46.7826 195.535C47.0414 195.75 47.4125 195.913 47.8959 196.025C48.3793 196.138 48.9555 196.194 49.6244 196.194C50.2885 196.194 50.8622 196.138 51.3456 196.025C51.829 195.913 52.2001 195.75 52.4589 195.535C52.7177 195.315 52.8471 195.056 52.8471 194.758C52.8471 194.46 52.7177 194.204 52.4589 193.989C52.2001 193.774 51.829 193.611 51.3456 193.499C50.8622 193.381 50.2885 193.323 49.6244 193.323C48.9604 193.323 48.3842 193.381 47.8959 193.499C47.4125 193.611 47.0414 193.774 46.7826 193.989C46.5287 194.204 46.4018 194.46 46.4018 194.758ZM50.5912 188.782H52.7885V187.405H50.5912V186.453H52.7885V184.109H53.9457V192.151H52.7885V189.734H50.5912V188.782ZM66.1701 185.808C66.1701 186.536 66.153 187.188 66.1188 187.764C66.0847 188.34 65.9992 188.987 65.8625 189.705H67.7375V190.657H64.3977V193.806H63.2844V190.657H60.8967V193.806H59.7687V190.657H55.8137V189.705H64.7199C64.842 189.06 64.9226 188.464 64.9616 187.917C65.0056 187.371 65.0275 186.809 65.0275 186.233V185.808V185.764H57.3225V184.827H66.1701V185.808ZM57.2785 192.781H58.4211V195.886H66.5217V196.853H57.2785V192.781ZM83.8074 190.803H78.4314V192.019H82.284V194.832H74.5496V196.106H82.6795V196.985H73.407V194.011H81.1561V192.883H73.3777V192.019H77.3035V190.803H71.9568V189.91H83.8074V190.803ZM72.5867 188.43C73.3973 188.376 74.1395 188.252 74.8133 188.057C75.492 187.861 76.0462 187.603 76.4759 187.28C76.9056 186.953 77.1546 186.58 77.2229 186.16H73.1727V185.251H77.3035V184.036H78.4314V185.251H82.6063V186.16H78.5193C78.5877 186.58 78.8343 186.953 79.2591 187.28C79.6888 187.603 80.243 187.861 80.9217 188.057C81.6004 188.252 82.3475 188.376 83.1629 188.43L82.8113 189.309C81.6639 189.211 80.6482 188.987 79.7645 188.635C78.8855 188.284 78.2557 187.81 77.8748 187.214C77.4891 187.81 76.8543 188.284 75.9705 188.635C75.0916 188.987 74.076 189.211 72.9236 189.309L72.5867 188.43ZM96.4859 191.477H84.6061V190.554H89.982V189.031H86.1148V184.724H95.0064V185.647H87.2428V188.093H95.0943V189.031H91.0953V190.554H96.4859V191.477ZM86.0416 194.773C86.0416 194.28 86.2198 193.86 86.5763 193.513C86.9327 193.162 87.4479 192.893 88.1217 192.708C88.7955 192.522 89.6012 192.429 90.5387 192.429C91.4664 192.429 92.2647 192.522 92.9337 192.708C93.6026 192.893 94.1153 193.162 94.4718 193.513C94.8331 193.86 95.0162 194.28 95.0211 194.773C95.0162 195.271 94.8355 195.693 94.4791 196.04C94.1227 196.392 93.6075 196.66 92.9337 196.846C92.2647 197.031 91.4664 197.126 90.5387 197.131C89.6012 197.126 88.7955 197.031 88.1217 196.846C87.4479 196.66 86.9327 196.392 86.5763 196.04C86.2198 195.688 86.0416 195.266 86.0416 194.773ZM87.2135 194.773C87.2086 195.071 87.3355 195.33 87.5943 195.549C87.858 195.764 88.2364 195.928 88.7296 196.04C89.2228 196.152 89.8111 196.208 90.4947 196.208C91.5494 196.208 92.3722 196.084 92.963 195.835C93.5587 195.586 93.859 195.232 93.8639 194.773C93.8639 194.475 93.7296 194.219 93.461 194.004C93.1925 193.789 92.8092 193.625 92.3111 193.513C91.8131 193.396 91.2223 193.337 90.5387 193.337C89.8453 193.337 89.2472 193.396 88.7442 193.513C88.2462 193.625 87.8653 193.789 87.6017 194.004C87.338 194.219 87.2086 194.475 87.2135 194.773ZM105.363 187.61C105.363 188.381 105.522 189.148 105.84 189.91C106.157 190.667 106.584 191.34 107.121 191.931C107.663 192.522 108.254 192.961 108.894 193.25L108.191 194.158C107.444 193.796 106.77 193.252 106.169 192.524C105.569 191.792 105.112 190.964 104.8 190.042C104.502 191.023 104.05 191.902 103.445 192.678C102.839 193.455 102.155 194.036 101.394 194.421L100.661 193.455C101.306 193.162 101.899 192.71 102.441 192.1C102.983 191.489 103.413 190.791 103.73 190.005C104.052 189.214 104.216 188.416 104.221 187.61V185.237H105.363V187.61ZM110.315 184.109H111.472V197.161H110.315V184.109ZM123.579 188.079H125.542V189.045H123.579V193.645H122.422V184.109H123.579V188.079ZM113.413 191.213C114.458 190.886 115.371 190.469 116.152 189.961C116.934 189.453 117.551 188.87 118.005 188.21C118.464 187.551 118.733 186.843 118.811 186.086H113.955V185.12H120.063C120.063 186.218 119.814 187.227 119.316 188.145C118.818 189.062 118.108 189.858 117.185 190.532C116.262 191.206 115.171 191.741 113.911 192.136L113.413 191.213ZM115.42 192.678H116.562V195.886H124.18V196.853H115.42V192.678ZM129.981 194.978L133.599 191.169C134.073 190.662 134.434 190.254 134.683 189.946C134.937 189.634 135.13 189.333 135.262 189.045C135.394 188.757 135.46 188.455 135.46 188.137C135.46 187.781 135.367 187.468 135.181 187.2C134.996 186.926 134.742 186.714 134.42 186.562C134.102 186.411 133.746 186.335 133.35 186.335C132.935 186.335 132.571 186.421 132.259 186.592C131.946 186.758 131.705 186.99 131.534 187.288C131.368 187.585 131.285 187.932 131.285 188.328H130.04C130.035 187.712 130.176 187.168 130.464 186.694C130.757 186.221 131.16 185.852 131.673 185.588C132.186 185.325 132.759 185.193 133.394 185.193C134.024 185.193 134.588 185.322 135.086 185.581C135.589 185.84 135.982 186.194 136.265 186.643C136.548 187.092 136.69 187.59 136.69 188.137C136.685 188.542 136.609 188.931 136.463 189.302C136.321 189.668 136.077 190.076 135.731 190.525C135.384 190.974 134.893 191.526 134.258 192.18L131.827 194.685V194.773H136.88V195.945H129.996L129.981 194.978ZM142.66 187.61C142.66 188.381 142.818 189.148 143.136 189.91C143.453 190.667 143.88 191.34 144.417 191.931C144.959 192.522 145.55 192.961 146.19 193.25L145.487 194.158C144.74 193.796 144.066 193.252 143.465 192.524C142.865 191.792 142.408 190.964 142.096 190.042C141.798 191.023 141.346 191.902 140.741 192.678C140.135 193.455 139.452 194.036 138.69 194.421L137.957 193.455C138.602 193.162 139.195 192.71 139.737 192.1C140.279 191.489 140.709 190.791 141.026 190.005C141.349 189.214 141.512 188.416 141.517 187.61V185.237H142.66V187.61ZM147.611 184.109H148.768V197.161H147.611V184.109ZM160.875 188.079H162.838V189.045H160.875V193.645H159.718V184.109H160.875V188.079ZM150.709 191.213C151.754 190.886 152.667 190.469 153.448 189.961C154.23 189.453 154.847 188.87 155.301 188.21C155.76 187.551 156.029 186.843 156.107 186.086H151.251V185.12H157.36C157.36 186.218 157.111 187.227 156.613 188.145C156.114 189.062 155.404 189.858 154.481 190.532C153.558 191.206 152.467 191.741 151.207 192.136L150.709 191.213ZM152.716 192.678H153.859V195.886H161.476V196.853H152.716V192.678ZM177.56 197.161H176.403V184.109H177.56V197.161ZM167.306 189.661C167.306 188.752 167.448 187.957 167.731 187.273C168.014 186.584 168.408 186.055 168.91 185.684C169.413 185.308 169.987 185.12 170.632 185.12C171.276 185.12 171.85 185.308 172.353 185.684C172.856 186.055 173.249 186.584 173.532 187.273C173.815 187.957 173.957 188.752 173.957 189.661C173.957 190.569 173.815 191.367 173.532 192.056C173.249 192.739 172.856 193.267 172.353 193.638C171.85 194.004 171.276 194.187 170.632 194.187C169.987 194.187 169.413 194.004 168.91 193.638C168.408 193.267 168.014 192.739 167.731 192.056C167.448 191.367 167.306 190.569 167.306 189.661ZM168.42 189.661C168.42 190.359 168.512 190.974 168.698 191.506C168.884 192.034 169.145 192.441 169.482 192.729C169.819 193.018 170.202 193.162 170.632 193.162C171.066 193.162 171.45 193.018 171.782 192.729C172.118 192.441 172.38 192.034 172.565 191.506C172.751 190.974 172.844 190.359 172.844 189.661C172.844 188.962 172.751 188.35 172.565 187.822C172.38 187.29 172.118 186.877 171.782 186.584C171.45 186.292 171.066 186.145 170.632 186.145C170.202 186.145 169.819 186.292 169.482 186.584C169.145 186.877 168.884 187.29 168.698 187.822C168.512 188.354 168.42 188.967 168.42 189.661ZM190.605 197.131H189.477V190.393H187.602V196.458H186.518V184.402H187.602V189.412H189.477V184.109H190.605V197.131ZM180.146 185.706H181.289V192.737C182.783 192.727 184.204 192.585 185.551 192.312L185.698 193.337C184.838 193.494 184.025 193.604 183.259 193.667C182.497 193.73 181.728 193.762 180.952 193.762H180.146V185.706ZM193.528 196.033C193.357 196.033 193.198 195.989 193.052 195.901C192.91 195.813 192.795 195.698 192.707 195.557C192.624 195.41 192.585 195.251 192.59 195.081C192.585 194.915 192.624 194.761 192.707 194.619C192.795 194.473 192.91 194.358 193.052 194.275C193.198 194.187 193.357 194.143 193.528 194.143C193.694 194.143 193.848 194.185 193.989 194.268C194.136 194.351 194.25 194.463 194.333 194.604C194.421 194.746 194.465 194.9 194.465 195.066C194.465 195.33 194.375 195.557 194.194 195.747C194.014 195.933 193.791 196.028 193.528 196.033Z" fill="#777E8D"/>
<rect x="21.9287" y="28" width="52.143" height="52.143" rx="10" fill="#2B6991"/>
<path d="M48.0006 65.8037C47.6313 65.8037 47.3217 65.6788 47.0718 65.4289C46.8219 65.1791 46.697 64.8695 46.697 64.5001C46.697 64.1308 46.8219 63.8212 47.0718 63.5713C47.3217 63.3215 47.6313 63.1966 48.0006 63.1966H57.1256V53.9412C57.1256 51.3992 56.2403 49.2429 54.4696 47.4722C52.6989 45.7015 50.5426 44.8161 48.0006 44.8161C45.4586 44.8161 43.3023 45.7015 41.5316 47.4722C39.7609 49.2429 38.8756 51.3992 38.8756 53.9412V60.5894C38.8756 60.9588 38.7506 61.2684 38.5008 61.5182C38.2509 61.7681 37.9413 61.893 37.572 61.893C36.855 61.893 36.2413 61.6377 35.7307 61.1271C35.2201 60.6166 34.9648 60.0028 34.9648 59.2858V56.6787C34.9648 56.2224 35.0789 55.7933 35.307 55.3914C35.5352 54.9895 35.8556 54.669 36.2684 54.43L36.3662 52.7028C36.54 51.2254 36.9691 49.8566 37.6535 48.5965C38.3378 47.3364 39.196 46.2392 40.228 45.305C41.26 44.3708 42.4441 43.6429 43.7803 43.1215C45.1164 42.6001 46.5232 42.3394 48.0006 42.3394C49.478 42.3394 50.8793 42.6001 52.2046 43.1215C53.5299 43.6429 54.714 44.3653 55.7569 45.2887C56.7997 46.2121 57.6579 47.3038 58.3314 48.5639C59.0049 49.8241 59.4395 51.1928 59.635 52.6702L59.7328 54.3648C60.1456 54.5604 60.466 54.8537 60.6942 55.2448C60.9223 55.6358 61.0364 56.0486 61.0364 56.4831V59.4814C61.0364 59.9159 60.9223 60.3287 60.6942 60.7198C60.466 61.1108 60.1456 61.4041 59.7328 61.5997V63.1966C59.7328 63.9135 59.4775 64.5273 58.9669 65.0379C58.4564 65.5484 57.8426 65.8037 57.1256 65.8037H48.0006ZM43.1611 56.3039C42.9112 56.0541 42.7863 55.7445 42.7863 55.3751C42.7863 55.0058 42.9112 54.6962 43.1611 54.4463C43.4109 54.1965 43.7205 54.0715 44.0899 54.0715C44.4592 54.0715 44.7688 54.1965 45.0187 54.4463C45.2685 54.6962 45.3934 55.0058 45.3934 55.3751C45.3934 55.7445 45.2685 56.0541 45.0187 56.3039C44.7688 56.5538 44.4592 56.6787 44.0899 56.6787C43.7205 56.6787 43.4109 56.5538 43.1611 56.3039ZM50.9825 56.3039C50.7327 56.0541 50.6077 55.7445 50.6077 55.3751C50.6077 55.0058 50.7327 54.6962 50.9825 54.4463C51.2324 54.1965 51.542 54.0715 51.9113 54.0715C52.2807 54.0715 52.5903 54.1965 52.8401 54.4463C53.09 54.6962 53.2149 55.0058 53.2149 55.3751C53.2149 55.7445 53.09 56.0541 52.8401 56.3039C52.5903 56.5538 52.2807 56.6787 51.9113 56.6787C51.542 56.6787 51.2324 56.5538 50.9825 56.3039ZM40.2117 54.6581C40.0597 52.3552 40.7549 50.3781 42.2975 48.7269C43.84 47.0757 45.7628 46.2501 48.0658 46.2501C49.9994 46.2501 51.6995 46.8638 53.166 48.0914C54.6325 49.3189 55.5179 50.8886 55.822 52.8005C53.845 52.7788 52.0254 52.2465 50.3633 51.2037C48.7013 50.1608 47.4249 48.7486 46.5341 46.967C46.1865 48.7051 45.4532 50.2531 44.3343 51.611C43.2154 52.9689 41.8412 53.9846 40.2117 54.6581Z" fill="white"/>
</svg>
