<svg width="326" height="167" viewBox="0 0 326 167" fill="none" xmlns="http://www.w3.org/2000/svg">
<rect width="326" height="167" rx="17" fill="white"/>
<path d="M27.8919 58.4688C25.0637 58.4688 22.6262 57.7891 20.5794 56.4297C18.5325 55.0547 16.9622 53.0625 15.8684 50.4531C14.7903 47.8438 14.2512 44.7031 14.2512 41.0312C14.2512 37.375 14.7981 34.2422 15.8919 31.6328C16.9856 29.0078 18.5559 27.0156 20.6028 25.6562C22.6497 24.2812 25.0794 23.5938 27.8919 23.5938C30.7044 23.5938 33.1341 24.2812 35.1809 25.6562C37.2278 27.0156 38.7981 29.0078 39.8919 31.6328C40.9856 34.2422 41.5325 37.375 41.5325 41.0312C41.5325 44.7188 40.9856 47.8672 39.8919 50.4766C38.7981 53.0859 37.2278 55.0703 35.1809 56.4297C33.1497 57.7891 30.72 58.4688 27.8919 58.4688ZM21.47 41.2422C21.47 44.9922 22.0403 47.8359 23.1809 49.7734C24.3216 51.6953 25.8919 52.6562 27.8919 52.6562C29.9075 52.6562 31.4856 51.6797 32.6262 49.7266C33.7669 47.7578 34.3294 44.8594 34.3137 41.0312C34.3137 38.5 34.0559 36.3672 33.5403 34.6328C33.0247 32.8828 32.2825 31.5703 31.3137 30.6953C30.345 29.8203 29.2044 29.375 27.8919 29.3594C25.8762 29.375 24.2981 30.3906 23.1575 32.4062C22.0325 34.4219 21.47 37.3672 21.47 41.2422ZM57.53 58.4688C55.0769 58.4688 52.8737 58.0469 50.9206 57.2031C48.9831 56.3594 47.4519 55.1797 46.3269 53.6641C45.2175 52.1328 44.6394 50.3906 44.5925 48.4375H51.7175C51.7487 49.2656 52.0222 50 52.5378 50.6406C53.0534 51.2656 53.7487 51.7578 54.6237 52.1172C55.4987 52.4766 56.4831 52.6562 57.5769 52.6562C58.6862 52.6562 59.6784 52.4609 60.5534 52.0703C61.4441 51.6641 62.1316 51.1172 62.6159 50.4297C63.1003 49.7266 63.3425 48.9219 63.3425 48.0156C63.3425 47.0938 63.0847 46.2812 62.5691 45.5781C62.0534 44.8594 61.3112 44.2969 60.3425 43.8906C59.3737 43.4844 58.2331 43.2812 56.9206 43.2812H53.78V38.0781H56.9206C58.03 38.0781 59.0144 37.8906 59.8737 37.5156C60.7331 37.1406 61.3972 36.6094 61.8659 35.9219C62.3503 35.2344 62.5925 34.4531 62.5925 33.5781C62.5925 32.7188 62.3894 31.9609 61.9831 31.3047C61.5769 30.6484 60.9987 30.1406 60.2487 29.7812C59.5144 29.4062 58.655 29.2188 57.6706 29.2188C56.6706 29.2188 55.7487 29.3984 54.905 29.7578C54.0612 30.1016 53.3816 30.5938 52.8659 31.2344C52.3503 31.875 52.0769 32.625 52.0456 33.4844H45.2956C45.3269 31.5781 45.8816 29.875 46.9597 28.375C48.0534 26.8594 49.53 25.6875 51.3894 24.8594C53.2487 24.0156 55.3269 23.5938 57.6237 23.5938C59.9362 23.5938 61.9831 24.0156 63.7644 24.8594C65.5612 25.7031 66.9441 26.8516 67.9128 28.3047C68.8972 29.7578 69.3894 31.375 69.3894 33.1562C69.3894 34.3906 69.1237 35.5156 68.5925 36.5312C68.0612 37.5312 67.3034 38.3594 66.3191 39.0156C65.3503 39.6562 64.2331 40.0938 62.9675 40.3281V40.6094C65.4362 40.9062 67.3425 41.7578 68.6862 43.1641C70.03 44.5703 70.6862 46.3438 70.655 48.4844C70.6706 50.3906 70.1159 52.1094 68.9909 53.6406C67.8816 55.1562 66.3269 56.3438 64.3269 57.2031C62.3269 58.0469 60.0612 58.4688 57.53 58.4688Z" fill="#D8DFE4"/>
<path d="M81.3477 53.1796V51.0908C81.3477 50.3116 81.5516 49.5951 81.9596 48.9414C82.3676 48.2878 82.9369 47.7782 83.6676 47.4127C84.9831 46.7469 86.4548 46.1969 88.0828 45.7625C89.7107 45.3281 91.424 45.111 93.2227 45.111C95.0211 45.111 96.7342 45.3281 98.3622 45.7625C99.9901 46.1969 101.462 46.7469 102.777 47.4127C103.508 47.7782 104.077 48.2878 104.485 48.9414C104.894 49.5951 105.098 50.3116 105.098 51.0908V53.1796C105.098 53.5876 104.961 53.9282 104.688 54.2013C104.415 54.4741 104.074 54.6106 103.666 54.6106H82.7786C82.3706 54.6106 82.0302 54.4741 81.7573 54.2013C81.4842 53.9282 81.3477 53.5876 81.3477 53.1796ZM83.7227 52.236H102.723V51.0908C102.723 50.7296 102.625 50.42 102.429 50.1622C102.233 49.9044 101.986 49.6943 101.687 49.532C100.717 49.0367 99.4862 48.5719 97.9952 48.1375C96.5042 47.7031 94.9134 47.486 93.2227 47.486C91.5317 47.486 89.9407 47.7031 88.4497 48.1375C86.9587 48.5719 85.7281 49.0367 84.7578 49.532C84.4593 49.6943 84.2122 49.9044 84.0164 50.1622C83.8206 50.42 83.7227 50.7296 83.7227 51.0908V52.236ZM89.2901 40.944C88.2173 39.8711 87.681 38.5297 87.681 36.92H87.3156C87.1085 36.92 86.94 36.8551 86.8102 36.7252C86.6803 36.5954 86.6154 36.4269 86.6154 36.2198C86.6154 36.0129 86.6803 35.8444 86.8102 35.7143C86.94 35.5844 87.1085 35.5195 87.3156 35.5195H87.681C87.7013 34.5249 87.9306 33.6263 88.3689 32.8235C88.8075 32.0205 89.4307 31.3317 90.2385 30.7573V32.2614C90.2385 32.4686 90.3035 32.6371 90.4336 32.7669C90.5634 32.897 90.7319 32.9621 90.9391 32.9621C91.146 32.9621 91.3143 32.897 91.4442 32.7669C91.5743 32.6371 91.6393 32.4686 91.6393 32.2614V30.1544C91.8665 30.0752 92.1147 30.0109 92.3839 29.9612C92.6528 29.9114 92.9324 29.8864 93.2227 29.8864C93.5129 29.8864 93.7925 29.9114 94.0614 29.9612C94.3303 30.0109 94.5785 30.0752 94.806 30.1544V32.2614C94.806 32.4686 94.8709 32.6371 95.0007 32.7669C95.1306 32.897 95.2991 32.9621 95.5062 32.9621C95.7134 32.9621 95.8819 32.897 96.0117 32.7669C96.1415 32.6371 96.2064 32.4686 96.2064 32.2614V30.7573C97.0245 31.3317 97.6502 32.0205 98.0835 32.8235C98.5171 33.6263 98.744 34.5249 98.7643 35.5195H99.1297C99.3366 35.5195 99.5051 35.5844 99.6352 35.7143C99.765 35.8444 99.8299 36.0129 99.8299 36.2198C99.8299 36.4269 99.765 36.5954 99.6352 36.7252C99.5051 36.8551 99.3366 36.92 99.1297 36.92H98.7643C98.7643 38.5297 98.2278 39.8711 97.1549 40.944C96.0822 42.0167 94.7714 42.5531 93.2227 42.5531C91.6739 42.5531 90.363 42.0167 89.2901 40.944ZM95.4742 39.2633C96.0843 38.6532 96.3893 37.9026 96.3893 37.0114H90.056C90.056 37.9026 90.3609 38.6532 90.9708 39.2633C91.5809 39.8732 92.3315 40.1781 93.2227 40.1781C94.1138 40.1781 94.8643 39.8732 95.4742 39.2633ZM105.04 45.0409L104.952 44.4713C104.773 44.4185 104.593 44.3465 104.412 44.2552C104.232 44.1639 104.07 44.0471 103.928 43.9049L103.407 44.1091C103.243 44.1619 103.085 44.1644 102.934 44.1166C102.783 44.0689 102.66 43.9628 102.564 43.7984L102.452 43.5977C102.356 43.4494 102.326 43.293 102.36 43.1286C102.395 42.9642 102.478 42.8262 102.61 42.7146L103.052 42.3583C103.031 42.2589 103.021 42.1644 103.021 42.0749V41.5164C103.021 41.4322 103.031 41.3352 103.052 41.2255L102.61 40.8692C102.478 40.7576 102.395 40.6196 102.36 40.4552C102.326 40.2908 102.356 40.1344 102.452 39.9861L102.564 39.7854C102.66 39.621 102.783 39.5149 102.934 39.4672C103.085 39.4194 103.243 39.4219 103.407 39.4747L103.928 39.6789C104.054 39.5531 104.212 39.4404 104.4 39.3409C104.589 39.2414 104.773 39.1653 104.952 39.1125L105.04 38.5429C105.082 38.3785 105.165 38.2394 105.286 38.1257C105.408 38.0122 105.551 37.9555 105.716 37.9555H105.941C106.105 37.9555 106.249 38.0122 106.37 38.1257C106.492 38.2394 106.574 38.3785 106.617 38.5429L106.705 39.1125C106.884 39.1653 107.068 39.2414 107.257 39.3409C107.445 39.4404 107.602 39.5531 107.728 39.6789L108.249 39.4747C108.413 39.4219 108.571 39.4194 108.722 39.4672C108.874 39.5149 108.997 39.621 109.092 39.7854L109.205 39.9861C109.3 40.1344 109.331 40.2908 109.296 40.4552C109.262 40.6196 109.179 40.7576 109.047 40.8692L108.605 41.2255C108.625 41.3352 108.636 41.4322 108.636 41.5164V42.0749C108.636 42.1644 108.625 42.2589 108.605 42.3583L109.047 42.7146C109.179 42.8262 109.262 42.9642 109.296 43.1286C109.331 43.293 109.3 43.4494 109.205 43.5977L109.092 43.7984C108.997 43.9628 108.874 44.0689 108.722 44.1166C108.571 44.1644 108.413 44.1619 108.249 44.1091L107.728 43.9049C107.586 44.0471 107.425 44.1639 107.244 44.2552C107.063 44.3465 106.884 44.4185 106.705 44.4713L106.617 45.0409C106.574 45.2053 106.492 45.3444 106.37 45.4581C106.249 45.5716 106.105 45.6283 105.941 45.6283H105.716C105.551 45.6283 105.408 45.5716 105.286 45.4581C105.165 45.3444 105.082 45.2053 105.04 45.0409ZM106.751 42.7146C107.009 42.4568 107.138 42.1492 107.138 41.7919C107.138 41.4346 107.009 41.127 106.751 40.8692C106.493 40.6114 106.186 40.4825 105.828 40.4825C105.471 40.4825 105.163 40.6114 104.906 40.8692C104.648 41.127 104.519 41.4346 104.519 41.7919C104.519 42.1492 104.648 42.4568 104.906 42.7146C105.163 42.9724 105.471 43.1013 105.828 43.1013C106.186 43.1013 106.493 42.9724 106.751 42.7146ZM108.748 36.6429L108.636 35.9276C108.368 35.8585 108.102 35.7494 107.838 35.6003C107.574 35.4509 107.353 35.2717 107.174 35.0627L106.434 35.3398C106.238 35.4087 106.043 35.4071 105.851 35.3351C105.659 35.263 105.508 35.1368 105.396 34.9563L105.235 34.6819C105.123 34.5014 105.084 34.3087 105.119 34.1036C105.153 33.8986 105.261 33.724 105.442 33.5799L106.054 33.0776C106.001 32.9354 105.969 32.8044 105.959 32.6846C105.949 32.5648 105.944 32.4339 105.944 32.2919C105.944 32.1499 105.949 32.019 105.959 31.8992C105.969 31.7794 106.001 31.6484 106.054 31.5062L105.442 31.0039C105.261 30.8598 105.153 30.6852 105.119 30.4802C105.084 30.2751 105.123 30.0824 105.235 29.9019L105.396 29.6276C105.508 29.4471 105.659 29.3208 105.851 29.2487C106.043 29.1767 106.238 29.1751 106.434 29.244L107.174 29.5211C107.353 29.3121 107.574 29.1329 107.838 28.9835C108.102 28.8344 108.368 28.7253 108.636 28.6562L108.748 27.9409C108.791 27.7277 108.893 27.5521 109.056 27.4141C109.218 27.276 109.406 27.207 109.619 27.207H109.893C110.106 27.207 110.294 27.276 110.456 27.4141C110.619 27.5521 110.722 27.7277 110.764 27.9409L110.877 28.6562C111.145 28.7253 111.411 28.8344 111.674 28.9835C111.938 29.1329 112.16 29.3121 112.338 29.5211L113.078 29.244C113.275 29.1751 113.469 29.1767 113.661 29.2487C113.853 29.3208 114.005 29.4471 114.116 29.6276L114.278 29.9019C114.389 30.0824 114.428 30.2751 114.393 30.4802C114.359 30.6852 114.251 30.8598 114.071 31.0039L113.459 31.5062C113.512 31.6484 113.543 31.7794 113.553 31.8992C113.563 32.019 113.568 32.1499 113.568 32.2919C113.568 32.4339 113.563 32.5648 113.553 32.6846C113.543 32.8044 113.512 32.9354 113.459 33.0776L114.071 33.5799C114.251 33.724 114.359 33.8986 114.393 34.1036C114.428 34.3087 114.389 34.5014 114.278 34.6819L114.116 34.9563C114.005 35.1368 113.853 35.263 113.661 35.3351C113.469 35.4071 113.275 35.4087 113.078 35.3398L112.338 35.0627C112.16 35.2717 111.938 35.4509 111.674 35.6003C111.411 35.7494 111.145 35.8585 110.877 35.9276L110.764 36.6429C110.722 36.8561 110.619 37.0317 110.456 37.1698C110.294 37.3078 110.106 37.3768 109.893 37.3768H109.619C109.406 37.3768 109.218 37.3078 109.056 37.1698C108.893 37.0317 108.791 36.8561 108.748 36.6429ZM111.23 33.7656C111.628 33.3676 111.827 32.8764 111.827 32.2919C111.827 31.7074 111.628 31.2162 111.23 30.8182C110.832 30.4203 110.341 30.2213 109.756 30.2213C109.172 30.2213 108.68 30.4203 108.283 30.8182C107.885 31.2162 107.686 31.7074 107.686 32.2919C107.686 32.8764 107.885 33.3676 108.283 33.7656C108.68 34.1635 109.172 34.3625 109.756 34.3625C110.341 34.3625 110.832 34.1635 111.23 33.7656Z" fill="#144D6E"/>
<path d="M92.627 87.9922H90.459V81.5273H87.334V79.7695H90.459V75.1016H92.627V87.9922ZM77.8027 84.1836C78.7142 83.8841 79.4954 83.4479 80.1465 82.875C80.7975 82.2956 81.2891 81.638 81.6211 80.9023C81.9531 80.1602 82.1191 79.3919 82.1191 78.5977V78.1289H78.4473V76.3711H87.9785V78.1289H84.3262V78.6172C84.3262 79.3398 84.4857 80.0462 84.8047 80.7363C85.1237 81.4199 85.5957 82.0352 86.2207 82.582C86.8457 83.1224 87.6009 83.5391 88.4863 83.832L87.3926 85.5703C86.429 85.2383 85.5957 84.7565 84.8926 84.125C84.196 83.487 83.6491 82.7383 83.252 81.8789C82.8548 82.8294 82.2884 83.6562 81.5527 84.3594C80.8171 85.0625 79.9382 85.5898 78.916 85.9414L77.8027 84.1836ZM81.0449 86.8594H83.2129V90.6289H93.0762V92.3867H81.0449V86.8594ZM111.24 85.6484H104.424V88.8906H102.275V85.6484H95.1074V83.9102H111.24V85.6484ZM97.0605 87.2695H99.2285V90.6289H109.463V92.3867H97.0605V87.2695ZM97.1582 75.8828H109.17V82.2695H97.1582V75.8828ZM107.021 80.5703V77.582H99.2676V80.5703H107.021ZM131.904 92.7383H129.717V75.082H131.904V92.7383ZM117.275 87.875C119.554 86.7943 121.263 85.502 122.402 83.998C123.548 82.4941 124.222 80.7201 124.424 78.6758H118.174V76.957H126.631C126.631 79.763 125.996 82.224 124.727 84.3398C123.457 86.4557 121.351 88.2135 118.408 89.6133L117.275 87.875ZM143.604 75.6484C143.604 76.2734 143.857 76.8691 144.365 77.4355C144.873 77.9954 145.586 78.474 146.504 78.8711C147.428 79.2617 148.493 79.5221 149.697 79.6523L148.975 81.293C147.477 81.1237 146.159 80.7559 145.02 80.1895C143.887 79.6165 143.037 78.9004 142.471 78.041C141.904 78.9004 141.055 79.6165 139.922 80.1895C138.789 80.7559 137.484 81.1237 136.006 81.293L135.264 79.6523C136.468 79.5221 137.533 79.2617 138.457 78.8711C139.388 78.474 140.107 77.9954 140.615 77.4355C141.123 76.8691 141.377 76.2734 141.377 75.6484V75.1797H143.604V75.6484ZM134.443 82.1719H150.537V83.8906H143.545V85.2578H148.525V89.6328H138.486V90.9219H149.014V92.582H136.357V88.0703H146.396V86.918H136.338V85.2578H141.377V83.8906H134.443V82.1719ZM158.057 80.1016C158.05 81.0195 158.223 81.9473 158.574 82.8848C158.932 83.8223 159.447 84.6784 160.117 85.4531C160.788 86.2214 161.572 86.8138 162.471 87.2305L161.26 88.9492C160.29 88.4935 159.44 87.8262 158.711 86.9473C157.982 86.0618 157.412 85.0495 157.002 83.9102C156.592 85.1536 156.009 86.2572 155.254 87.2207C154.499 88.1842 153.623 88.9036 152.627 89.3789L151.357 87.6797C152.269 87.25 153.066 86.6283 153.75 85.8145C154.434 85.0007 154.958 84.0924 155.322 83.0898C155.693 82.0872 155.882 81.0911 155.889 80.1016V78.6172H152.041V76.8203H161.748V78.6172H158.057V80.1016ZM163.389 75.082H165.557V81.957H168.271V83.7734H165.557V92.7383H163.389V75.082ZM180.439 79.3203C180.433 80.4076 180.612 81.4655 180.977 82.4941C181.341 83.5228 181.868 84.4375 182.559 85.2383C183.249 86.0391 184.059 86.638 184.99 87.0352L183.701 88.7734C182.705 88.3112 181.836 87.6406 181.094 86.7617C180.358 85.8763 179.782 84.8444 179.365 83.666C178.949 84.9355 178.359 86.0488 177.598 87.0059C176.842 87.9629 175.941 88.6888 174.893 89.1836L173.564 87.3672C174.521 86.957 175.352 86.3385 176.055 85.5117C176.758 84.6784 177.295 83.7246 177.666 82.6504C178.037 81.5762 178.226 80.4661 178.232 79.3203V76.5078H180.439V79.3203ZM186.26 75.082H188.447V92.7578H186.26V75.082ZM198.994 86.1172C200.27 86.1172 201.377 86.2507 202.314 86.5176C203.258 86.778 203.984 87.1589 204.492 87.6602C205.007 88.1549 205.264 88.7474 205.264 89.4375C205.264 90.1146 205.007 90.6973 204.492 91.1855C203.984 91.6803 203.258 92.0579 202.314 92.3184C201.377 92.5853 200.27 92.7188 198.994 92.7188C197.731 92.7188 196.628 92.5853 195.684 92.3184C194.746 92.0579 194.02 91.6803 193.506 91.1855C192.998 90.6973 192.744 90.1146 192.744 89.4375C192.744 88.7474 192.998 88.1549 193.506 87.6602C194.02 87.1589 194.746 86.778 195.684 86.5176C196.628 86.2507 197.731 86.1172 198.994 86.1172ZM191.084 83.0898H197.295V79.8867H199.443V83.0898H207.1V84.8477H191.084V83.0898ZM192.92 75.9219H205.146V77.3867V77.9043C205.146 78.666 205.114 79.3724 205.049 80.0234C204.99 80.6745 204.86 81.3581 204.658 82.0742L202.51 81.8789C202.705 81.1107 202.832 80.4108 202.891 79.7793C202.949 79.1478 202.979 78.4349 202.979 77.6406H192.92V75.9219ZM194.932 89.4375C194.925 89.9518 195.277 90.349 195.986 90.6289C196.702 90.9023 197.705 91.0391 198.994 91.0391C200.283 91.0391 201.289 90.9023 202.012 90.6289C202.741 90.349 203.109 89.9518 203.115 89.4375C203.109 88.9036 202.741 88.4902 202.012 88.1973C201.289 87.9043 200.283 87.7578 198.994 87.7578C197.712 87.7578 196.712 87.9043 195.996 88.1973C195.28 88.4902 194.925 88.9036 194.932 89.4375Z" fill="black"/>
<path d="M82.9883 119.637C83.8542 119.637 84.6061 119.726 85.2441 119.903C85.8867 120.076 86.3812 120.332 86.7275 120.669C87.0785 121.002 87.2539 121.4 87.2539 121.865C87.2539 122.326 87.0785 122.722 86.7275 123.055C86.3812 123.387 85.8867 123.64 85.2441 123.813C84.6061 123.991 83.8542 124.08 82.9883 124.08C82.1224 124.08 81.3682 123.991 80.7256 123.813C80.0876 123.64 79.5954 123.387 79.249 123.055C78.9072 122.722 78.7363 122.326 78.7363 121.865C78.7363 121.4 78.9072 121.002 79.249 120.669C79.5954 120.332 80.0876 120.076 80.7256 119.903C81.3682 119.726 82.1224 119.637 82.9883 119.637ZM77.5059 117.627H82.0859V115.275H83.1387V117.627H88.5664V118.502H77.5059V117.627ZM78.8184 112.582H87.1582V113.607C87.1536 114.277 87.1331 114.845 87.0967 115.31C87.0602 115.77 86.9668 116.278 86.8164 116.834L85.7637 116.711C85.9095 116.155 86.0007 115.656 86.0371 115.214C86.0736 114.767 86.0918 114.232 86.0918 113.607V113.457H78.8184V112.582ZM79.8027 121.865C79.8027 122.143 79.9326 122.387 80.1924 122.597C80.4521 122.802 80.8213 122.959 81.2998 123.068C81.7829 123.178 82.3457 123.232 82.9883 123.232C83.6309 123.232 84.1914 123.178 84.6699 123.068C85.153 122.959 85.5244 122.802 85.7842 122.597C86.0485 122.387 86.1829 122.143 86.1875 121.865C86.1829 121.578 86.0485 121.33 85.7842 121.12C85.5244 120.91 85.153 120.749 84.6699 120.635C84.1914 120.516 83.6309 120.457 82.9883 120.457C82.3457 120.457 81.7829 120.516 81.2998 120.635C80.8213 120.749 80.4521 120.91 80.1924 121.12C79.9326 121.33 79.8027 121.578 79.8027 121.865ZM99.627 120.854H98.5605V111.967H99.627V120.854ZM89.8789 115.795C89.8789 115.221 90.0156 114.708 90.2891 114.257C90.5671 113.806 90.9476 113.452 91.4307 113.197C91.9183 112.942 92.4629 112.814 93.0645 112.814C93.666 112.814 94.2083 112.942 94.6914 113.197C95.1745 113.452 95.555 113.806 95.833 114.257C96.111 114.708 96.25 115.221 96.25 115.795C96.25 116.374 96.111 116.891 95.833 117.347C95.555 117.802 95.1745 118.158 94.6914 118.413C94.2083 118.664 93.666 118.789 93.0645 118.789C92.4629 118.789 91.9183 118.664 91.4307 118.413C90.9476 118.158 90.5671 117.802 90.2891 117.347C90.0156 116.891 89.8789 116.374 89.8789 115.795ZM90.9316 115.795C90.9271 116.191 91.016 116.547 91.1982 116.861C91.3851 117.171 91.6403 117.413 91.9639 117.586C92.292 117.759 92.6589 117.846 93.0645 117.846C93.4655 117.846 93.8278 117.759 94.1514 117.586C94.4749 117.413 94.7301 117.171 94.917 116.861C95.1038 116.547 95.1973 116.191 95.1973 115.795C95.1973 115.403 95.1038 115.054 94.917 114.749C94.7301 114.439 94.4749 114.198 94.1514 114.024C93.8278 113.847 93.4655 113.758 93.0645 113.758C92.6589 113.758 92.292 113.844 91.9639 114.018C91.6403 114.191 91.3851 114.432 91.1982 114.742C91.016 115.052 90.9271 115.403 90.9316 115.795ZM91.7793 119.951H92.8457V122.945H100.01V123.848H91.7793V119.951ZM109.32 115.686C109.316 116.324 109.452 116.971 109.73 117.627C110.013 118.283 110.396 118.878 110.879 119.411C111.362 119.94 111.895 120.343 112.479 120.621L111.863 121.469C111.184 121.136 110.571 120.635 110.024 119.965C109.478 119.295 109.067 118.545 108.794 117.716C108.607 118.304 108.354 118.864 108.035 119.397C107.716 119.931 107.352 120.402 106.941 120.812C106.536 121.218 106.107 121.537 105.656 121.77L105 120.922C105.579 120.639 106.117 120.215 106.613 119.65C107.115 119.085 107.513 118.452 107.81 117.75C108.11 117.048 108.263 116.36 108.268 115.686V114.1H105.438V113.211H112.055V114.1H109.32V115.686ZM113.545 111.953H114.611V116.875H116.648V117.791H114.611V124.107H113.545V111.953ZM123.717 112.787C123.717 113.238 123.667 113.689 123.566 114.141H126.301V111.967H127.381V119.213H126.301V117.6H123.074V116.711H126.301V115.029H123.272C122.867 115.977 122.204 116.795 121.283 117.483C120.367 118.167 119.246 118.689 117.92 119.049L117.496 118.188C118.485 117.914 119.346 117.556 120.08 117.114C120.814 116.668 121.393 116.153 121.816 115.569C122.24 114.986 122.489 114.35 122.562 113.662H118.111V112.787H123.717ZM119.205 119.746H127.381V124.094H126.301V120.607H119.205V119.746ZM134.941 112.172C135.839 112.172 136.609 112.254 137.252 112.418C137.895 112.577 138.384 112.814 138.722 113.129C139.063 113.439 139.234 113.817 139.234 114.264C139.234 114.719 139.063 115.107 138.722 115.426C138.384 115.745 137.895 115.986 137.252 116.15C136.614 116.31 135.844 116.392 134.941 116.396C134.035 116.392 133.26 116.31 132.617 116.15C131.975 115.986 131.482 115.745 131.141 115.426C130.803 115.107 130.635 114.719 130.635 114.264C130.635 113.817 130.803 113.439 131.141 113.129C131.482 112.814 131.975 112.577 132.617 112.418C133.264 112.254 134.039 112.172 134.941 112.172ZM129.404 117.217H140.479V118.092H129.404V117.217ZM130.744 119.145H139.057V121.865H131.838V123.123H139.426V123.971H130.771V121.072H138.004V119.965H130.744V119.145ZM131.756 114.264C131.751 114.683 132.027 115.007 132.583 115.234C133.139 115.462 133.925 115.576 134.941 115.576C135.953 115.576 136.737 115.465 137.293 115.241C137.854 115.013 138.136 114.688 138.141 114.264C138.141 113.999 138.013 113.771 137.758 113.58C137.507 113.389 137.14 113.241 136.657 113.136C136.179 113.031 135.607 112.979 134.941 112.979C134.271 112.979 133.697 113.031 133.219 113.136C132.74 113.241 132.376 113.389 132.125 113.58C131.874 113.771 131.751 113.999 131.756 114.264ZM156.146 122.549H145.018V121.66H150.021V119.035H146.33V112.814H147.41V115.016H153.727V112.814H154.779V119.035H151.074V121.66H156.146V122.549ZM153.727 118.16V115.891H147.41V118.16H153.727ZM168.232 119.773H165.293V124.107H164.213V119.773H161.096V124.107H159.988V119.773H157.104V118.885H168.232V119.773ZM158.361 115.098C158.361 114.564 158.539 114.1 158.895 113.703C159.255 113.302 159.756 112.992 160.398 112.773C161.046 112.555 161.793 112.445 162.641 112.445C163.488 112.445 164.233 112.555 164.876 112.773C165.523 112.992 166.024 113.302 166.38 113.703C166.74 114.1 166.92 114.564 166.92 115.098C166.92 115.631 166.74 116.096 166.38 116.492C166.024 116.889 165.523 117.194 164.876 117.408C164.233 117.618 163.488 117.723 162.641 117.723C161.793 117.723 161.046 117.618 160.398 117.408C159.756 117.194 159.255 116.889 158.895 116.492C158.539 116.096 158.361 115.631 158.361 115.098ZM159.469 115.098C159.464 115.449 159.594 115.758 159.858 116.027C160.123 116.292 160.494 116.497 160.973 116.643C161.456 116.788 162.012 116.861 162.641 116.861C163.27 116.861 163.823 116.788 164.302 116.643C164.78 116.497 165.154 116.292 165.423 116.027C165.692 115.763 165.826 115.453 165.826 115.098C165.826 114.742 165.692 114.43 165.423 114.161C165.154 113.892 164.78 113.685 164.302 113.539C163.823 113.393 163.27 113.32 162.641 113.32C162.012 113.32 161.456 113.393 160.973 113.539C160.494 113.685 160.123 113.892 159.858 114.161C159.594 114.43 159.464 114.742 159.469 115.098ZM178.719 115.973H180.551V116.875H178.719V121.072H177.652V111.967H178.719V115.973ZM169.244 113.457H172.334V111.967H173.4V113.457H176.49V114.332H169.244V113.457ZM169.941 117.271C169.941 116.816 170.062 116.417 170.304 116.075C170.545 115.733 170.887 115.469 171.329 115.282C171.771 115.095 172.284 115.002 172.867 115.002C173.441 115.002 173.947 115.095 174.385 115.282C174.827 115.469 175.171 115.733 175.417 116.075C175.663 116.417 175.788 116.816 175.793 117.271C175.788 117.723 175.663 118.119 175.417 118.461C175.171 118.798 174.827 119.058 174.385 119.24C173.947 119.423 173.441 119.514 172.867 119.514C172.284 119.514 171.771 119.423 171.329 119.24C170.887 119.058 170.545 118.798 170.304 118.461C170.062 118.119 169.941 117.723 169.941 117.271ZM170.967 117.271C170.967 117.554 171.044 117.802 171.199 118.017C171.354 118.226 171.575 118.388 171.862 118.502C172.154 118.616 172.489 118.671 172.867 118.666C173.241 118.671 173.571 118.616 173.858 118.502C174.15 118.388 174.376 118.226 174.535 118.017C174.695 117.802 174.777 117.554 174.781 117.271C174.777 116.989 174.695 116.741 174.535 116.526C174.376 116.308 174.152 116.141 173.865 116.027C173.583 115.909 173.257 115.85 172.888 115.85C172.505 115.85 172.168 115.909 171.876 116.027C171.584 116.141 171.359 116.305 171.199 116.52C171.044 116.734 170.967 116.984 170.967 117.271ZM171.117 120.348H172.17V122.945H179.279V123.848H171.117V120.348ZM194.906 120.881H193.826V116.219H191.324V115.33H193.826V111.967H194.906V120.881ZM184.885 118.447C185.477 118.238 186.008 117.93 186.478 117.524C186.947 117.119 187.314 116.652 187.578 116.123C187.842 115.59 187.975 115.038 187.975 114.469V113.84H185.227V112.951H191.775V113.84H189.055V114.469C189.055 114.988 189.18 115.494 189.431 115.986C189.686 116.479 190.039 116.916 190.49 117.299C190.946 117.682 191.465 117.973 192.049 118.174L191.488 119.035C190.809 118.789 190.212 118.424 189.697 117.941C189.187 117.454 188.799 116.893 188.535 116.26C188.271 116.966 187.87 117.586 187.332 118.119C186.794 118.652 186.165 119.053 185.445 119.322L184.885 118.447ZM187.1 120.074H188.18V122.945H195.248V123.848H187.1V120.074ZM208.045 119.062H203.096V121.551H202.029V119.062H196.916V118.174H208.045V119.062ZM198.338 120.348H199.418V122.945H206.801V123.848H198.338V120.348ZM198.365 112.555H206.596V116.779H198.365V112.555ZM205.529 115.918V113.402H199.418V115.918H205.529ZM222.592 124.107H221.512V111.953H222.592V124.107ZM212.693 120.949C214.316 120.179 215.558 119.222 216.419 118.078C217.285 116.934 217.779 115.626 217.902 114.154H213.254V113.279H218.996C218.987 115.111 218.522 116.759 217.602 118.222C216.681 119.685 215.241 120.885 213.281 121.824L212.693 120.949ZM230.74 112.486C230.74 112.969 230.948 113.418 231.362 113.833C231.777 114.248 232.319 114.594 232.989 114.872C233.664 115.15 234.372 115.335 235.115 115.426L234.732 116.246C234.081 116.16 233.454 116.007 232.853 115.788C232.256 115.569 231.722 115.294 231.253 114.961C230.784 114.624 230.426 114.243 230.18 113.819C229.929 114.243 229.567 114.624 229.093 114.961C228.623 115.294 228.09 115.569 227.493 115.788C226.896 116.007 226.274 116.16 225.627 116.246L225.258 115.426C226.001 115.335 226.707 115.15 227.377 114.872C228.051 114.594 228.596 114.248 229.011 113.833C229.425 113.418 229.633 112.969 229.633 112.486V112.021H230.74V112.486ZM224.643 117.039H235.717V117.914H230.699V119.131H234.295V121.893H227.076V123.123H234.664V123.971H226.01V121.086H233.242V119.979H225.982V119.131H229.633V117.914H224.643V117.039ZM240.857 115.686C240.853 116.324 240.99 116.971 241.268 117.627C241.55 118.283 241.933 118.878 242.416 119.411C242.899 119.94 243.432 120.343 244.016 120.621L243.4 121.469C242.721 121.136 242.108 120.635 241.562 119.965C241.015 119.295 240.604 118.545 240.331 117.716C240.144 118.304 239.891 118.864 239.572 119.397C239.253 119.931 238.889 120.402 238.479 120.812C238.073 121.218 237.645 121.537 237.193 121.77L236.537 120.922C237.116 120.639 237.654 120.215 238.15 119.65C238.652 119.085 239.05 118.452 239.347 117.75C239.647 117.048 239.8 116.36 239.805 115.686V114.1H236.975V113.211H243.592V114.1H240.857V115.686ZM245.082 111.953H246.148V116.875H248.186V117.791H246.148V124.107H245.082V111.953ZM258.248 116.902H260.217V117.805H258.248V124.107H257.182V111.953H258.248V116.902ZM248.924 120.949C250.482 120.174 251.69 119.213 252.547 118.064C253.404 116.916 253.894 115.617 254.017 114.168H249.484V113.266H255.104C255.099 115.07 254.643 116.709 253.736 118.181C252.829 119.653 251.426 120.858 249.525 121.797L248.924 120.949ZM273.957 115.658H275.789V116.561H273.957V120.922H272.891V111.953H273.957V115.658ZM264.688 115.809C264.688 115.23 264.824 114.715 265.098 114.264C265.376 113.808 265.756 113.452 266.239 113.197C266.727 112.942 267.271 112.814 267.873 112.814C268.475 112.814 269.017 112.942 269.5 113.197C269.988 113.452 270.37 113.808 270.648 114.264C270.926 114.715 271.068 115.23 271.072 115.809C271.068 116.387 270.926 116.905 270.648 117.36C270.37 117.812 269.988 118.165 269.5 118.42C269.017 118.675 268.475 118.803 267.873 118.803C267.276 118.803 266.734 118.675 266.246 118.42C265.758 118.165 265.376 117.809 265.098 117.354C264.824 116.898 264.688 116.383 264.688 115.809ZM265.74 115.809C265.74 116.201 265.834 116.554 266.021 116.868C266.207 117.178 266.463 117.422 266.786 117.6C267.114 117.773 267.477 117.859 267.873 117.859C268.279 117.859 268.643 117.773 268.967 117.6C269.295 117.422 269.552 117.178 269.739 116.868C269.926 116.554 270.02 116.201 270.02 115.809C270.02 115.412 269.926 115.059 269.739 114.749C269.552 114.439 269.295 114.198 268.967 114.024C268.643 113.847 268.279 113.758 267.873 113.758C267.477 113.758 267.114 113.847 266.786 114.024C266.463 114.198 266.207 114.441 266.021 114.756C265.834 115.066 265.74 115.417 265.74 115.809ZM266.355 119.992H267.408V122.945H274.518V123.848H266.355V119.992ZM286.631 120.881H285.551V116.219H283.049V115.33H285.551V111.967H286.631V120.881ZM276.609 118.447C277.202 118.238 277.733 117.93 278.202 117.524C278.672 117.119 279.038 116.652 279.303 116.123C279.567 115.59 279.699 115.038 279.699 114.469V113.84H276.951V112.951H283.5V113.84H280.779V114.469C280.779 114.988 280.905 115.494 281.155 115.986C281.41 116.479 281.764 116.916 282.215 117.299C282.671 117.682 283.19 117.973 283.773 118.174L283.213 119.035C282.534 118.789 281.937 118.424 281.422 117.941C280.911 117.454 280.524 116.893 280.26 116.26C279.995 116.966 279.594 117.586 279.057 118.119C278.519 118.652 277.89 119.053 277.17 119.322L276.609 118.447ZM278.824 120.074H279.904V122.945H286.973V123.848H278.824V120.074ZM298.061 116.971H300.098V117.859H298.061V124.107H296.994V111.953H298.061V116.971ZM288.586 113.908H291.717V112.104H292.783V113.908H295.818V114.797H288.586V113.908ZM289.283 118.598C289.283 118.06 289.411 117.579 289.666 117.155C289.921 116.731 290.274 116.401 290.726 116.164C291.181 115.927 291.694 115.809 292.264 115.809C292.829 115.809 293.337 115.927 293.788 116.164C294.239 116.401 294.592 116.731 294.848 117.155C295.107 117.579 295.24 118.06 295.244 118.598C295.24 119.14 295.107 119.623 294.848 120.047C294.592 120.466 294.239 120.794 293.788 121.031C293.337 121.268 292.829 121.387 292.264 121.387C291.694 121.387 291.181 121.268 290.726 121.031C290.274 120.794 289.921 120.466 289.666 120.047C289.411 119.623 289.283 119.14 289.283 118.598ZM290.309 118.598C290.309 118.962 290.391 119.288 290.555 119.575C290.723 119.858 290.956 120.079 291.252 120.238C291.553 120.398 291.89 120.475 292.264 120.471C292.633 120.475 292.965 120.398 293.262 120.238C293.558 120.079 293.79 119.858 293.959 119.575C294.128 119.288 294.214 118.962 294.219 118.598C294.214 118.238 294.128 117.914 293.959 117.627C293.79 117.335 293.558 117.11 293.262 116.95C292.965 116.791 292.633 116.711 292.264 116.711C291.89 116.711 291.553 116.791 291.252 116.95C290.956 117.11 290.723 117.335 290.555 117.627C290.391 117.914 290.309 118.238 290.309 118.598ZM87.2402 131.4V131.551C87.2311 132.558 87.1992 133.458 87.1445 134.251C87.0944 135.044 86.9759 135.962 86.7891 137.006L85.6953 136.883C85.8366 136.163 85.9391 135.486 86.0029 134.853C86.0713 134.215 86.1123 133.652 86.126 133.164C86.1442 132.676 86.1556 132.089 86.1602 131.4V131.072H78.668V130.184H87.2402V131.4ZM77.4922 138.496H81.8398V134.148H82.8926V138.496H88.5664V139.385H77.4922V138.496ZM103.182 136.199H102.102V133.014H99.6543V132.125H102.102V128.953H103.182V136.199ZM93.1602 135.229C93.7572 135.014 94.2881 134.7 94.7529 134.285C95.2223 133.87 95.5892 133.394 95.8535 132.856C96.1178 132.319 96.25 131.765 96.25 131.195V130.744H93.502V129.842H100.051V130.744H97.3301V131.182C97.3301 131.706 97.4554 132.214 97.7061 132.706C97.9567 133.198 98.3099 133.636 98.7656 134.019C99.2214 134.397 99.7409 134.686 100.324 134.887L99.7637 135.748C99.0892 135.502 98.4945 135.137 97.9795 134.654C97.4691 134.171 97.0817 133.613 96.8174 132.979C96.5576 133.69 96.1566 134.317 95.6143 134.859C95.0765 135.402 94.4453 135.812 93.7207 136.09L93.1602 135.229ZM95.0742 138.838C95.0742 138.364 95.236 137.958 95.5596 137.621C95.8877 137.284 96.3571 137.026 96.9678 136.849C97.583 136.671 98.3099 136.582 99.1484 136.582C99.987 136.582 100.712 136.671 101.322 136.849C101.933 137.026 102.402 137.284 102.73 137.621C103.059 137.958 103.223 138.364 103.223 138.838C103.223 139.312 103.059 139.717 102.73 140.055C102.402 140.392 101.933 140.649 101.322 140.827C100.712 141.009 99.987 141.103 99.1484 141.107C98.3053 141.103 97.5785 141.009 96.9678 140.827C96.3571 140.649 95.8877 140.392 95.5596 140.055C95.236 139.717 95.0742 139.312 95.0742 138.838ZM96.1406 138.838C96.1406 139.125 96.2591 139.376 96.4961 139.59C96.7331 139.799 97.0749 139.961 97.5215 140.075C97.9727 140.189 98.5036 140.246 99.1143 140.246C99.7386 140.246 100.279 140.189 100.734 140.075C101.19 139.966 101.541 139.806 101.787 139.597C102.033 139.382 102.156 139.13 102.156 138.838C102.156 138.546 102.035 138.293 101.794 138.079C101.552 137.865 101.204 137.701 100.748 137.587C100.297 137.473 99.7637 137.416 99.1484 137.416C98.5286 137.416 97.9932 137.473 97.542 137.587C97.0908 137.701 96.7445 137.865 96.5029 138.079C96.2614 138.293 96.1406 138.546 96.1406 138.838ZM111.549 134.586H105.848V129.637H111.549V134.586ZM110.496 133.738V130.512H106.9V133.738H110.496ZM107.338 135.83H115.227V138.729H108.418V140.096H115.664V140.971H107.352V137.936H114.174V136.691H107.338V135.83ZM114.174 128.953H115.227V135.229H114.174V128.953ZM126.711 133.971H128.748V134.859H126.711V141.107H125.645V128.953H126.711V133.971ZM117.236 130.908H120.367V129.104H121.434V130.908H124.469V131.797H117.236V130.908ZM117.934 135.598C117.934 135.06 118.061 134.579 118.316 134.155C118.572 133.731 118.925 133.401 119.376 133.164C119.832 132.927 120.344 132.809 120.914 132.809C121.479 132.809 121.987 132.927 122.438 133.164C122.89 133.401 123.243 133.731 123.498 134.155C123.758 134.579 123.89 135.06 123.895 135.598C123.89 136.14 123.758 136.623 123.498 137.047C123.243 137.466 122.89 137.794 122.438 138.031C121.987 138.268 121.479 138.387 120.914 138.387C120.344 138.387 119.832 138.268 119.376 138.031C118.925 137.794 118.572 137.466 118.316 137.047C118.061 136.623 117.934 136.14 117.934 135.598ZM118.959 135.598C118.959 135.962 119.041 136.288 119.205 136.575C119.374 136.858 119.606 137.079 119.902 137.238C120.203 137.398 120.54 137.475 120.914 137.471C121.283 137.475 121.616 137.398 121.912 137.238C122.208 137.079 122.441 136.858 122.609 136.575C122.778 136.288 122.865 135.962 122.869 135.598C122.865 135.238 122.778 134.914 122.609 134.627C122.441 134.335 122.208 134.11 121.912 133.95C121.616 133.791 121.283 133.711 120.914 133.711C120.54 133.711 120.203 133.791 119.902 133.95C119.606 134.11 119.374 134.335 119.205 134.627C119.041 134.914 118.959 135.238 118.959 135.598ZM139.809 141.107H138.783V128.953H139.809V141.107ZM129.418 137.703C130.712 136.938 131.703 136.021 132.392 134.955C133.084 133.884 133.483 132.699 133.588 131.4H129.938V130.512H134.654C134.654 131.747 134.451 132.891 134.046 133.943H136.227V129.281H137.252V140.492H136.227V134.818H133.649C132.884 136.295 131.683 137.516 130.047 138.482L129.418 137.703ZM149.338 132.221C149.338 132.941 149.486 133.656 149.782 134.367C150.078 135.074 150.477 135.702 150.979 136.254C151.484 136.805 152.036 137.215 152.633 137.484L151.977 138.332C151.279 137.995 150.65 137.487 150.09 136.808C149.529 136.124 149.103 135.352 148.812 134.49C148.534 135.406 148.112 136.227 147.547 136.951C146.982 137.676 146.344 138.218 145.633 138.578L144.949 137.676C145.551 137.402 146.104 136.981 146.61 136.411C147.116 135.841 147.517 135.19 147.813 134.456C148.114 133.718 148.267 132.973 148.271 132.221V130.006H149.338V132.221ZM153.959 128.953H155.039V141.135H153.959V128.953ZM162.613 136.637C163.479 136.637 164.231 136.726 164.869 136.903C165.512 137.076 166.006 137.332 166.353 137.669C166.703 138.002 166.879 138.4 166.879 138.865C166.879 139.326 166.703 139.722 166.353 140.055C166.006 140.387 165.512 140.64 164.869 140.813C164.231 140.991 163.479 141.08 162.613 141.08C161.747 141.08 160.993 140.991 160.351 140.813C159.713 140.64 159.22 140.387 158.874 140.055C158.532 139.722 158.361 139.326 158.361 138.865C158.361 138.4 158.532 138.002 158.874 137.669C159.22 137.332 159.713 137.076 160.351 136.903C160.993 136.726 161.747 136.637 162.613 136.637ZM157.131 134.627H161.711V132.275H162.764V134.627H168.191V135.502H157.131V134.627ZM158.443 129.582H166.783V130.607C166.779 131.277 166.758 131.845 166.722 132.31C166.685 132.77 166.592 133.278 166.441 133.834L165.389 133.711C165.535 133.155 165.626 132.656 165.662 132.214C165.699 131.767 165.717 131.232 165.717 130.607V130.457H158.443V129.582ZM159.428 138.865C159.428 139.143 159.558 139.387 159.817 139.597C160.077 139.802 160.446 139.959 160.925 140.068C161.408 140.178 161.971 140.232 162.613 140.232C163.256 140.232 163.816 140.178 164.295 140.068C164.778 139.959 165.149 139.802 165.409 139.597C165.674 139.387 165.808 139.143 165.812 138.865C165.808 138.578 165.674 138.33 165.409 138.12C165.149 137.91 164.778 137.749 164.295 137.635C163.816 137.516 163.256 137.457 162.613 137.457C161.971 137.457 161.408 137.516 160.925 137.635C160.446 137.749 160.077 137.91 159.817 138.12C159.558 138.33 159.428 138.578 159.428 138.865ZM174.754 129.172C175.652 129.172 176.422 129.254 177.064 129.418C177.707 129.577 178.197 129.814 178.534 130.129C178.876 130.439 179.047 130.817 179.047 131.264C179.047 131.719 178.876 132.107 178.534 132.426C178.197 132.745 177.707 132.986 177.064 133.15C176.426 133.31 175.656 133.392 174.754 133.396C173.847 133.392 173.072 133.31 172.43 133.15C171.787 132.986 171.295 132.745 170.953 132.426C170.616 132.107 170.447 131.719 170.447 131.264C170.447 130.817 170.616 130.439 170.953 130.129C171.295 129.814 171.787 129.577 172.43 129.418C173.077 129.254 173.852 129.172 174.754 129.172ZM169.217 134.217H180.291V135.092H169.217V134.217ZM170.557 136.145H178.869V138.865H171.65V140.123H179.238V140.971H170.584V138.072H177.816V136.965H170.557V136.145ZM171.568 131.264C171.564 131.683 171.84 132.007 172.396 132.234C172.951 132.462 173.738 132.576 174.754 132.576C175.766 132.576 176.549 132.465 177.105 132.241C177.666 132.013 177.949 131.688 177.953 131.264C177.953 130.999 177.826 130.771 177.57 130.58C177.32 130.389 176.953 130.241 176.47 130.136C175.991 130.031 175.419 129.979 174.754 129.979C174.084 129.979 173.51 130.031 173.031 130.136C172.553 130.241 172.188 130.389 171.938 130.58C171.687 130.771 171.564 130.999 171.568 131.264ZM189.205 131.564C189.205 132.102 189.337 132.619 189.602 133.116C189.87 133.608 190.24 134.041 190.709 134.415C191.183 134.784 191.721 135.064 192.322 135.256L191.775 136.117C191.069 135.876 190.447 135.516 189.909 135.037C189.371 134.554 188.964 133.993 188.686 133.355C188.421 134.044 188.016 134.65 187.469 135.174C186.926 135.698 186.293 136.094 185.568 136.363L185.008 135.502C185.614 135.292 186.152 134.987 186.621 134.586C187.09 134.185 187.457 133.722 187.722 133.198C187.991 132.674 188.125 132.13 188.125 131.564V130.854H185.281V129.979H192.008V130.854H189.205V131.564ZM187.018 137.033H188.084V139.945H195.248V140.848H187.018V137.033ZM193.799 128.967H194.865V137.881H193.799V128.967ZM207.252 136.65H206.227V133.164H204.6V136.213H203.588V129.199H204.6V132.275H206.227V128.953H207.252V136.65ZM196.861 130.416H199.459V129.049H200.525V130.416H203.096V131.277H196.861V130.416ZM197.395 134.012C197.395 133.592 197.504 133.226 197.723 132.911C197.941 132.597 198.247 132.355 198.639 132.187C199.035 132.018 199.486 131.934 199.992 131.934C200.503 131.934 200.954 132.018 201.346 132.187C201.742 132.355 202.05 132.597 202.269 132.911C202.492 133.226 202.604 133.592 202.604 134.012C202.604 134.422 202.492 134.784 202.269 135.099C202.05 135.409 201.742 135.65 201.346 135.823C200.954 135.992 200.503 136.076 199.992 136.076C199.486 136.076 199.035 135.992 198.639 135.823C198.247 135.65 197.941 135.409 197.723 135.099C197.504 134.784 197.395 134.422 197.395 134.012ZM198.352 134.012C198.352 134.258 198.42 134.477 198.557 134.668C198.698 134.859 198.892 135.007 199.138 135.112C199.388 135.217 199.673 135.27 199.992 135.27C200.311 135.27 200.594 135.217 200.84 135.112C201.09 135.007 201.284 134.859 201.421 134.668C201.562 134.477 201.633 134.258 201.633 134.012C201.633 133.757 201.562 133.533 201.421 133.342C201.284 133.146 201.09 132.995 200.84 132.891C200.594 132.781 200.311 132.727 199.992 132.727C199.673 132.727 199.388 132.781 199.138 132.891C198.892 132.995 198.698 133.146 198.557 133.342C198.42 133.533 198.352 133.757 198.352 134.012ZM199.158 138.988C199.154 138.537 199.311 138.152 199.63 137.833C199.953 137.514 200.421 137.272 201.031 137.108C201.646 136.94 202.38 136.855 203.232 136.855C204.085 136.855 204.816 136.94 205.427 137.108C206.037 137.272 206.505 137.514 206.828 137.833C207.156 138.152 207.32 138.537 207.32 138.988C207.32 139.43 207.156 139.806 206.828 140.116C206.505 140.431 206.035 140.67 205.42 140.834C204.809 140.998 204.08 141.08 203.232 141.08C202.38 141.08 201.646 140.998 201.031 140.834C200.421 140.67 199.953 140.431 199.63 140.116C199.311 139.806 199.154 139.43 199.158 138.988ZM200.225 138.988C200.22 139.248 200.334 139.474 200.566 139.665C200.803 139.852 201.145 139.995 201.592 140.096C202.043 140.196 202.576 140.246 203.191 140.246C203.825 140.246 204.369 140.196 204.825 140.096C205.285 139.995 205.636 139.852 205.878 139.665C206.124 139.478 206.249 139.253 206.254 138.988C206.249 138.574 205.98 138.255 205.447 138.031C204.919 137.803 204.18 137.694 203.232 137.703C202.28 137.694 201.539 137.803 201.011 138.031C200.482 138.255 200.22 138.574 200.225 138.988ZM218.531 132.07H220.363V132.986H218.531V136.021H217.465V128.953H218.531V132.07ZM209.057 130.211H212.146V128.844H213.213V130.211H216.303V131.1H209.057V130.211ZM209.754 133.793C209.754 133.365 209.875 132.991 210.116 132.672C210.358 132.348 210.7 132.1 211.142 131.927C211.584 131.749 212.096 131.66 212.68 131.66C213.258 131.66 213.767 131.749 214.204 131.927C214.646 132.1 214.988 132.348 215.229 132.672C215.476 132.991 215.601 133.365 215.605 133.793C215.601 134.221 215.476 134.597 215.229 134.921C214.988 135.244 214.646 135.493 214.204 135.666C213.762 135.839 213.254 135.926 212.68 135.926C212.096 135.926 211.584 135.839 211.142 135.666C210.7 135.493 210.358 135.244 210.116 134.921C209.875 134.597 209.754 134.221 209.754 133.793ZM210.779 133.793C210.779 134.053 210.857 134.283 211.012 134.483C211.167 134.679 211.388 134.832 211.675 134.941C211.966 135.051 212.301 135.105 212.68 135.105C213.053 135.105 213.384 135.051 213.671 134.941C213.963 134.832 214.188 134.679 214.348 134.483C214.507 134.283 214.589 134.053 214.594 133.793C214.589 133.533 214.505 133.305 214.341 133.109C214.181 132.909 213.958 132.756 213.671 132.651C213.384 132.542 213.053 132.49 212.68 132.494C212.301 132.49 211.969 132.542 211.682 132.651C211.395 132.756 211.171 132.909 211.012 133.109C210.857 133.305 210.779 133.533 210.779 133.793ZM210.848 136.555H211.914V137.854H217.465V136.555H218.531V140.943H210.848V136.555ZM217.465 140.082V138.701H211.914V140.082H217.465ZM231.15 141.107H230.084V128.953H231.15V141.107ZM221.922 130.156H222.975V137.047C223.977 137.038 224.955 136.99 225.907 136.903C226.86 136.812 227.819 136.664 228.785 136.459L228.936 137.375C227.901 137.589 226.894 137.744 225.914 137.84C224.939 137.931 223.936 137.977 222.906 137.977H221.922V130.156ZM242.635 133.766H244.672V134.668H242.635V141.135H241.568V128.953H242.635V133.766ZM233.762 130.143H239.436V131.031H234.828V137.184C235.977 137.179 236.972 137.145 237.815 137.081C238.659 137.017 239.518 136.906 240.393 136.746L240.529 137.676C239.627 137.84 238.743 137.949 237.877 138.004C237.016 138.059 235.963 138.086 234.719 138.086H233.762V130.143ZM246.613 140.082C246.454 140.082 246.306 140.041 246.169 139.959C246.037 139.877 245.93 139.77 245.848 139.638C245.77 139.501 245.734 139.353 245.738 139.193C245.734 139.038 245.77 138.895 245.848 138.763C245.93 138.626 246.037 138.519 246.169 138.441C246.306 138.359 246.454 138.318 246.613 138.318C246.768 138.318 246.912 138.357 247.044 138.435C247.181 138.512 247.288 138.617 247.365 138.749C247.447 138.881 247.488 139.025 247.488 139.18C247.488 139.426 247.404 139.638 247.235 139.815C247.067 139.989 246.859 140.077 246.613 140.082Z" fill="#737373"/>
</svg>
