<svg width="231" height="250" viewBox="0 0 231 250" fill="none" xmlns="http://www.w3.org/2000/svg">
<rect width="231" height="250" rx="9" fill="#F2F6F8"/>
<path d="M24.0391 119.978L28.8633 115.543C29.3395 115.085 29.7075 114.708 29.9673 114.411C30.2332 114.108 30.4373 113.808 30.5796 113.511C30.7218 113.208 30.793 112.883 30.793 112.537C30.793 112.147 30.7002 111.807 30.5146 111.517C30.3353 111.22 30.0817 110.994 29.7539 110.839C29.4323 110.685 29.0674 110.607 28.6592 110.607C28.0221 110.601 27.515 110.787 27.1377 111.164C26.7604 111.535 26.5749 112.042 26.5811 112.686H23.9277C23.9277 111.826 24.1257 111.071 24.5215 110.422C24.9235 109.766 25.4832 109.262 26.2007 108.91C26.9243 108.557 27.7562 108.381 28.6963 108.381C29.6426 108.381 30.4775 108.551 31.2012 108.891C31.9248 109.225 32.4845 109.692 32.8804 110.292C33.2824 110.892 33.4834 111.578 33.4834 112.352C33.4834 112.883 33.3813 113.394 33.1772 113.882C32.9731 114.365 32.6175 114.903 32.1104 115.497C31.6094 116.09 30.8981 116.805 29.9766 117.64L27.9355 119.625V119.699H33.6689V122H24.0576L24.0391 119.978ZM49.3291 119.254H46.9727V113.725H42.7793V111.869H46.9727V110.57H42.7793V108.715H46.9727V106.841H49.3291V119.254ZM36.0439 107.898H38.3818V115.116C39.4889 115.104 40.5342 115.057 41.5176 114.977C42.501 114.89 43.4906 114.757 44.4863 114.578L44.7275 116.489C43.5586 116.712 42.4051 116.863 41.2671 116.944C40.1353 117.018 38.8457 117.058 37.3984 117.064H36.0439V107.898ZM38.1035 118.141H40.4785V121.518H49.7373V123.41H38.1035V118.141ZM71.2979 116.601H64.7666V118.048H69.4609V123.521H57.6787V118.048H62.4102V116.601H55.8975V114.727H71.2979V116.601ZM57.252 107.286H69.9248V109.179H67.7168V111.758H69.8135V113.65H57.3633V111.758H59.4414V109.179H57.252V107.286ZM67.1416 121.629V119.885H60.0166V121.629H67.1416ZM65.3418 111.758V109.179H61.8164V111.758H65.3418ZM86.4385 115.487H84.082V106.822H86.4385V115.487ZM72.3926 113.799C73.2399 113.564 73.9574 113.227 74.5449 112.788C75.1387 112.348 75.5933 111.847 75.9087 111.285C76.2303 110.716 76.4189 110.119 76.4746 109.494H73.0234V107.602H82.3008V109.494H78.9238C78.9795 110.069 79.1619 110.623 79.4712 111.155C79.7866 111.681 80.235 112.151 80.8164 112.565C81.404 112.973 82.1152 113.285 82.9502 113.502L81.8184 115.32C80.8659 115.061 80.0464 114.662 79.3599 114.124C78.6733 113.585 78.1353 112.945 77.7456 112.203C77.3498 113.032 76.79 113.746 76.0664 114.346C75.349 114.94 74.4831 115.382 73.4688 115.673L72.3926 113.799ZM75.1201 116.155H86.457V120.664H77.4766V121.777H86.9209V123.596H75.1572V118.976H84.1006V117.955H75.1201V116.155ZM108.574 121.74H93.1182V119.811H99.6309V116.693H94.751V107.898H97.126V110.515H104.492V107.898H106.849V116.693H101.987V119.811H108.574V121.74ZM104.492 114.801V112.407H97.126V114.801H104.492ZM124.939 116.508H109.539V114.597H124.939V116.508ZM110.226 112.129C111.24 112.036 112.121 111.86 112.87 111.6C113.624 111.34 114.221 111.028 114.66 110.663C115.099 110.298 115.387 109.909 115.523 109.494H110.949V107.602H123.548V109.494H118.937C119.067 109.902 119.351 110.289 119.791 110.654C120.236 111.019 120.836 111.334 121.59 111.6C122.351 111.86 123.251 112.036 124.29 112.129L123.455 113.984C121.896 113.836 120.582 113.486 119.512 112.936C118.448 112.379 117.685 111.681 117.221 110.839C116.763 111.681 116.002 112.379 114.938 112.936C113.881 113.486 112.57 113.836 111.005 113.984L110.226 112.129ZM111.302 120.59C111.302 119.934 111.537 119.371 112.007 118.901C112.483 118.431 113.163 118.073 114.048 117.825C114.938 117.578 115.996 117.454 117.221 117.454C118.439 117.454 119.487 117.578 120.366 117.825C121.244 118.073 121.918 118.431 122.388 118.901C122.858 119.371 123.096 119.934 123.103 120.59C123.096 121.252 122.858 121.814 122.388 122.278C121.918 122.748 121.244 123.104 120.366 123.345C119.487 123.586 118.439 123.707 117.221 123.707C115.996 123.707 114.938 123.586 114.048 123.345C113.163 123.104 112.483 122.748 112.007 122.278C111.537 121.814 111.302 121.252 111.302 120.59ZM113.714 120.59C113.708 121.023 113.995 121.344 114.577 121.555C115.164 121.765 116.046 121.87 117.221 121.87C119.552 121.87 120.721 121.443 120.728 120.59C120.721 119.724 119.552 119.291 117.221 119.291C116.046 119.291 115.164 119.399 114.577 119.616C113.995 119.826 113.708 120.151 113.714 120.59Z" fill="black"/>
<path d="M35.4512 151.517H23.5273V150.55H28.8887V147.371H24.9336V141.263H33.9717V147.371H30.0166V150.55H35.4512V151.517ZM32.8584 146.448V142.186H26.0615V146.448H32.8584ZM48.0711 147.679H36.1912V146.741H48.0711V147.679ZM37.7 140.735H46.5916V141.673H38.8426V144.354H46.7088V145.306H37.7V140.735ZM37.7293 149.085H38.8719V151.927H46.8113V152.894H37.7293V149.085ZM56.9486 143.665C56.9486 144.437 57.1073 145.203 57.4247 145.965C57.7421 146.722 58.1693 147.396 58.7064 147.986C59.2484 148.577 59.8393 149.017 60.4789 149.305L59.7758 150.213C59.0287 149.852 58.3549 149.307 57.7543 148.58C57.1537 147.847 56.6972 147.02 56.3847 146.097C56.0868 147.078 55.6352 147.957 55.0297 148.733C54.4242 149.51 53.7406 150.091 52.9789 150.477L52.2465 149.51C52.891 149.217 53.4843 148.765 54.0263 148.155C54.5683 147.544 54.9979 146.846 55.3153 146.06C55.6376 145.269 55.8012 144.471 55.8061 143.665V141.292H56.9486V143.665ZM61.8998 140.164H63.057V153.216H61.8998V140.164ZM70.8723 148.396C71.8 148.396 72.6057 148.492 73.2893 148.682C73.9777 148.868 74.5075 149.141 74.8786 149.502C75.2546 149.859 75.4426 150.286 75.4426 150.784C75.4426 151.277 75.2546 151.702 74.8786 152.059C74.5075 152.415 73.9777 152.686 73.2893 152.872C72.6057 153.062 71.8 153.157 70.8723 153.157C69.9445 153.157 69.1364 153.062 68.4479 152.872C67.7644 152.686 67.237 152.415 66.8659 152.059C66.4997 151.702 66.3166 151.277 66.3166 150.784C66.3166 150.286 66.4997 149.859 66.8659 149.502C67.237 149.141 67.7644 148.868 68.4479 148.682C69.1364 148.492 69.9445 148.396 70.8723 148.396ZM64.9982 146.243H69.9055V143.724H71.0334V146.243H76.8488V147.181H64.9982V146.243ZM66.4045 140.838H75.34V141.937C75.3352 142.654 75.3132 143.262 75.2741 143.76C75.2351 144.253 75.135 144.798 74.9738 145.394L73.8459 145.262C74.0021 144.666 74.0998 144.131 74.1389 143.658C74.1779 143.179 74.1975 142.605 74.1975 141.937V141.775H66.4045V140.838ZM67.4592 150.784C67.4592 151.082 67.5983 151.343 67.8767 151.568C68.155 151.788 68.5505 151.956 69.0632 152.073C69.5808 152.19 70.1838 152.249 70.8723 152.249C71.5607 152.249 72.1613 152.19 72.674 152.073C73.1916 151.956 73.5896 151.788 73.8679 151.568C74.1511 151.343 74.2951 151.082 74.3 150.784C74.2951 150.477 74.1511 150.21 73.8679 149.986C73.5896 149.761 73.1916 149.588 72.674 149.466C72.1613 149.339 71.5607 149.275 70.8723 149.275C70.1838 149.275 69.5808 149.339 69.0632 149.466C68.5505 149.588 68.155 149.761 67.8767 149.986C67.5983 150.21 67.4592 150.477 67.4592 150.784ZM88.8096 153.187H87.6963V140.164H88.8096V153.187ZM77.8086 145.789C77.8086 144.876 77.9233 144.08 78.1528 143.401C78.3872 142.718 78.7144 142.19 79.1343 141.819C79.5542 141.448 80.0449 141.263 80.6064 141.263C81.1289 141.263 81.5928 141.426 81.998 141.753C82.4033 142.076 82.7256 142.537 82.9648 143.138C83.209 143.733 83.3555 144.437 83.4043 145.247H85.0889V140.442H86.1875V152.527H85.0889V146.199H83.4116C83.3774 147.034 83.2383 147.764 82.9941 148.389C82.7549 149.009 82.4302 149.485 82.02 149.817C81.6099 150.149 81.1387 150.315 80.6064 150.315C80.0449 150.315 79.5542 150.132 79.1343 149.766C78.7144 149.395 78.3872 148.868 78.1528 148.184C77.9233 147.5 77.8086 146.702 77.8086 145.789ZM78.8926 145.789C78.8877 146.487 78.9536 147.095 79.0903 147.613C79.2319 148.13 79.4321 148.528 79.6909 148.807C79.9546 149.085 80.2598 149.222 80.6064 149.217C80.9531 149.222 81.2559 149.087 81.5146 148.814C81.7783 148.536 81.981 148.14 82.1226 147.627C82.2642 147.115 82.335 146.514 82.335 145.826C82.335 145.118 82.2642 144.502 82.1226 143.98C81.9858 143.458 81.7856 143.055 81.522 142.771C81.2632 142.488 80.958 142.347 80.6064 142.347C80.2549 142.347 79.9497 142.488 79.6909 142.771C79.4321 143.05 79.2319 143.448 79.0903 143.965C78.9536 144.483 78.8877 145.091 78.8926 145.789ZM104.909 153.187H103.81V146.36H101.891V152.513H100.837V140.457H101.891V145.408H103.81V140.164H104.909V153.187ZM94.2594 141.761H99.1373V142.713H95.402V148.982C96.3639 148.978 97.1793 148.951 97.8482 148.902C98.5172 148.848 99.1959 148.753 99.8844 148.616L99.9869 149.583C99.2545 149.734 98.5318 149.834 97.8189 149.883C97.1061 149.932 96.1979 149.959 95.0943 149.964H94.2594V141.761ZM112.944 143.357H106.411V142.42H109.121V140.56H110.263V142.42H112.944V143.357ZM106.879 147.195C106.879 146.629 106.999 146.121 107.238 145.672C107.482 145.223 107.817 144.871 108.242 144.617C108.666 144.363 109.145 144.236 109.677 144.236C110.219 144.236 110.703 144.363 111.127 144.617C111.557 144.871 111.892 145.223 112.131 145.672C112.375 146.116 112.499 146.624 112.504 147.195C112.499 147.771 112.375 148.287 112.131 148.741C111.892 149.19 111.557 149.544 111.127 149.803C110.703 150.057 110.219 150.184 109.677 150.184C109.145 150.184 108.664 150.057 108.234 149.803C107.809 149.544 107.477 149.19 107.238 148.741C106.999 148.287 106.879 147.771 106.879 147.195ZM107.905 147.195C107.905 147.576 107.98 147.918 108.132 148.221C108.283 148.519 108.493 148.753 108.762 148.924C109.03 149.09 109.335 149.173 109.677 149.173C110.019 149.173 110.327 149.09 110.6 148.924C110.873 148.753 111.088 148.519 111.245 148.221C111.401 147.918 111.479 147.576 111.479 147.195C111.479 146.819 111.401 146.482 111.245 146.185C111.088 145.882 110.873 145.645 110.6 145.474C110.327 145.298 110.019 145.208 109.677 145.203C109.335 145.208 109.03 145.298 108.762 145.474C108.493 145.645 108.283 145.882 108.132 146.185C107.98 146.482 107.905 146.819 107.905 147.195ZM113.618 140.486H114.702V145.657H116.43V140.164H117.529V153.187H116.43V146.609H114.702V152.542H113.618V140.486ZM127.197 143.665C127.197 144.437 127.356 145.203 127.673 145.965C127.991 146.722 128.418 147.396 128.955 147.986C129.497 148.577 130.088 149.017 130.728 149.305L130.024 150.213C129.277 149.852 128.604 149.307 128.003 148.58C127.402 147.847 126.946 147.02 126.633 146.097C126.335 147.078 125.884 147.957 125.278 148.733C124.673 149.51 123.989 150.091 123.228 150.477L122.495 149.51C123.14 149.217 123.733 148.765 124.275 148.155C124.817 147.544 125.247 146.846 125.564 146.06C125.886 145.269 126.05 144.471 126.055 143.665V141.292H127.197V143.665ZM132.148 140.164H133.306V153.216H132.148V140.164ZM141.121 148.396C142.049 148.396 142.854 148.492 143.538 148.682C144.226 148.868 144.756 149.141 145.127 149.502C145.503 149.859 145.691 150.286 145.691 150.784C145.691 151.277 145.503 151.702 145.127 152.059C144.756 152.415 144.226 152.686 143.538 152.872C142.854 153.062 142.049 153.157 141.121 153.157C140.193 153.157 139.385 153.062 138.697 152.872C138.013 152.686 137.486 152.415 137.115 152.059C136.748 151.702 136.565 151.277 136.565 150.784C136.565 150.286 136.748 149.859 137.115 149.502C137.486 149.141 138.013 148.868 138.697 148.682C139.385 148.492 140.193 148.396 141.121 148.396ZM135.247 146.243H140.154V143.724H141.282V146.243H147.097V147.181H135.247V146.243ZM136.653 140.838H145.589V141.937C145.584 142.654 145.562 143.262 145.523 143.76C145.484 144.253 145.384 144.798 145.222 145.394L144.095 145.262C144.251 144.666 144.348 144.131 144.387 143.658C144.427 143.179 144.446 142.605 144.446 141.937V141.775H136.653V140.838ZM137.708 150.784C137.708 151.082 137.847 151.343 138.125 151.568C138.404 151.788 138.799 151.956 139.312 152.073C139.829 152.19 140.432 152.249 141.121 152.249C141.809 152.249 142.41 152.19 142.923 152.073C143.44 151.956 143.838 151.788 144.117 151.568C144.4 151.343 144.544 151.082 144.549 150.784C144.544 150.477 144.4 150.21 144.117 149.986C143.838 149.761 143.44 149.588 142.923 149.466C142.41 149.339 141.809 149.275 141.121 149.275C140.432 149.275 139.829 149.339 139.312 149.466C138.799 149.588 138.404 149.761 138.125 149.986C137.847 150.21 137.708 150.477 137.708 150.784ZM151.588 140.647C152.232 140.647 152.808 140.772 153.316 141.021C153.829 141.265 154.229 141.607 154.517 142.046C154.81 142.481 154.957 142.977 154.957 143.533C154.957 144.09 154.81 144.588 154.517 145.027C154.229 145.462 153.829 145.801 153.316 146.045C152.808 146.285 152.232 146.404 151.588 146.404C150.938 146.404 150.355 146.285 149.837 146.045C149.324 145.801 148.924 145.462 148.636 145.027C148.348 144.588 148.204 144.09 148.204 143.533C148.204 142.977 148.348 142.481 148.636 142.046C148.924 141.607 149.324 141.265 149.837 141.021C150.355 140.772 150.938 140.647 151.588 140.647ZM149.332 143.533C149.327 143.909 149.42 144.244 149.61 144.537C149.805 144.83 150.074 145.059 150.416 145.225C150.762 145.386 151.153 145.467 151.588 145.467C152.012 145.467 152.396 145.386 152.737 145.225C153.084 145.059 153.355 144.83 153.55 144.537C153.746 144.244 153.843 143.909 153.843 143.533C153.843 143.162 153.746 142.83 153.55 142.537C153.355 142.244 153.084 142.017 152.737 141.856C152.396 141.695 152.012 141.614 151.588 141.614C151.153 141.614 150.762 141.695 150.416 141.856C150.074 142.017 149.805 142.244 149.61 142.537C149.42 142.83 149.327 143.162 149.332 143.533ZM150.181 147.488H158.648V150.623H151.338V152.088H159.117V153.011H150.211V149.759H157.505V148.411H150.181V147.488ZM157.505 140.164H158.648V146.858H157.505V140.164ZM172.484 151.575H160.56V150.608H165.921V148.147H162.054V144.134H169.847V142.083H162.025V141.131H170.975V145.071H163.197V147.195H171.283V148.147H167.049V150.608H172.484V151.575ZM185.133 148.836H179.698V153.187H178.571V148.836H173.209V147.898H185.133V148.836ZM174.733 140.706H175.875V142.508H182.438V140.706H183.595V146.316H174.733V140.706ZM182.438 145.379V143.445H175.875V145.379H182.438ZM196.684 153.216H195.541V146.038H192.787V145.086H195.541V140.164H196.684V153.216ZM186.488 141.365H192.567V142.317H187.646V145.027H191.996V145.965H187.646V149.114C188.93 149.109 189.989 149.08 190.824 149.026C191.664 148.973 192.509 148.87 193.358 148.719L193.49 149.671C192.562 149.822 191.652 149.927 190.758 149.986C189.87 150.04 188.778 150.066 187.484 150.066H186.488V141.365ZM23.9814 173.033L27.5996 169.225C28.0732 168.717 28.4346 168.309 28.6836 168.001C28.9375 167.689 29.1304 167.389 29.2622 167.101C29.394 166.812 29.46 166.51 29.46 166.192C29.46 165.836 29.3672 165.523 29.1816 165.255C28.9961 164.981 28.7422 164.769 28.4199 164.618C28.1025 164.466 27.7461 164.391 27.3506 164.391C26.9355 164.391 26.5718 164.476 26.2593 164.647C25.9468 164.813 25.7051 165.045 25.5342 165.343C25.3682 165.641 25.2852 165.987 25.2852 166.383H24.04C24.0352 165.768 24.1768 165.223 24.4648 164.75C24.7578 164.276 25.1606 163.907 25.6733 163.644C26.186 163.38 26.7598 163.248 27.3945 163.248C28.0244 163.248 28.5884 163.377 29.0864 163.636C29.5894 163.895 29.9824 164.249 30.2656 164.698C30.5488 165.147 30.6904 165.646 30.6904 166.192C30.6855 166.598 30.6099 166.986 30.4634 167.357C30.3218 167.723 30.0776 168.131 29.731 168.58C29.3843 169.029 28.8936 169.581 28.2588 170.235L25.8271 172.74V172.828H30.8809V174H23.9961L23.9814 173.033ZM42.827 171.817H41.6697V167.306H37.9197V166.383H41.6697V164.815H37.9197V163.893H41.6697V162.179H42.827V171.817ZM32.8074 163.116H33.9646V168.902C34.9363 168.897 35.8616 168.861 36.7405 168.792C37.6243 168.724 38.535 168.604 39.4725 168.434L39.5896 169.386C38.6082 169.571 37.6634 169.698 36.7552 169.767C35.8519 169.835 34.8631 169.874 33.7889 169.884H32.8074V163.116ZM34.4334 170.997H35.5906V173.941H43.1785V174.908H34.4334V170.997ZM54.8756 166.134H56.8385V167.101H54.8756V171.7H53.7184V162.164H54.8756V166.134ZM44.7096 169.269C45.7545 168.941 46.6676 168.524 47.4488 168.016C48.2301 167.508 48.8478 166.925 49.3019 166.266C49.7608 165.606 50.0294 164.898 50.1075 164.142H45.2516V163.175H51.36C51.36 164.273 51.1109 165.282 50.6129 166.2C50.1148 167.118 49.4044 167.914 48.4815 168.587C47.5587 169.261 46.4674 169.796 45.2076 170.191L44.7096 169.269ZM46.7164 170.733H47.859V173.941H55.4762V174.908H46.7164V170.733ZM72.6887 169.415H67.3127V170.953H71.2385V175.011H62.2736V170.953H66.1848V169.415H60.8234V168.463H72.6887V169.415ZM61.9367 162.589H71.5607V163.541H69.5539V166.28H71.5168V167.232H61.9807V166.28H63.9436V163.541H61.9367V162.589ZM70.1105 174.073V171.861H63.4162V174.073H70.1105ZM68.4113 166.28V163.541H65.0861V166.28H68.4113ZM84.2246 168.932H83.0967V162.164H84.2246V168.932ZM73.6777 168.038C74.3223 167.823 74.896 167.513 75.3989 167.108C75.9067 166.698 76.3022 166.227 76.5854 165.694C76.8735 165.157 77.0176 164.596 77.0176 164.01V163.863H73.9707V162.911H81.1777V163.863H78.1748V164.01C78.1748 164.566 78.3164 165.096 78.5996 165.599C78.8877 166.102 79.2856 166.544 79.7935 166.925C80.3013 167.301 80.8799 167.584 81.5293 167.774L80.958 168.668C80.1865 168.424 79.5078 168.055 78.9219 167.562C78.3408 167.064 77.9062 166.483 77.6182 165.819C77.335 166.546 76.8955 167.184 76.2998 167.73C75.709 168.272 75.0156 168.678 74.2197 168.946L73.6777 168.038ZM75.7725 169.562H84.2393V172.667H76.9297V174.117H84.708V175.04H75.8018V171.803H83.0967V170.47H75.7725V169.562ZM92.0838 162.398C93.0457 162.398 93.8709 162.486 94.5594 162.662C95.2479 162.833 95.7728 163.087 96.1341 163.424C96.5003 163.756 96.6834 164.161 96.6834 164.64C96.6834 165.128 96.5003 165.543 96.1341 165.885C95.7728 166.227 95.2479 166.485 94.5594 166.661C93.8758 166.832 93.0506 166.92 92.0838 166.925C91.1121 166.92 90.282 166.832 89.5936 166.661C88.9051 166.485 88.3777 166.227 88.0115 165.885C87.6502 165.543 87.4695 165.128 87.4695 164.64C87.4695 164.161 87.6502 163.756 88.0115 163.424C88.3777 163.087 88.9051 162.833 89.5936 162.662C90.2869 162.486 91.117 162.398 92.0838 162.398ZM86.1512 167.804H98.0164V168.741H86.1512V167.804ZM87.5867 169.869H96.493V172.784H88.7586V174.132H96.8885V175.04H87.616V171.935H95.365V170.748H87.5867V169.869ZM88.6707 164.64C88.6658 165.089 88.9612 165.436 89.5569 165.68C90.1526 165.924 90.9949 166.046 92.0838 166.046C93.1678 166.046 94.0076 165.926 94.6033 165.687C95.2039 165.443 95.5066 165.094 95.5115 164.64C95.5115 164.356 95.3748 164.112 95.1014 163.907C94.8328 163.702 94.4397 163.543 93.9222 163.431C93.4095 163.319 92.7967 163.263 92.0838 163.263C91.366 163.263 90.7508 163.319 90.2381 163.431C89.7254 163.543 89.3348 163.702 89.0662 163.907C88.7977 164.112 88.6658 164.356 88.6707 164.64ZM114.204 173.517H102.28V172.564H107.641V169.752H103.686V163.087H104.843V165.445H111.611V163.087H112.739V169.752H108.769V172.564H114.204V173.517ZM111.611 168.814V166.383H104.843V168.814H111.611ZM126.809 169.312H114.944V168.36H126.809V169.312ZM115.617 166.661C116.389 166.573 117.116 166.395 117.8 166.126C118.484 165.858 119.038 165.521 119.463 165.116C119.892 164.71 120.114 164.269 120.129 163.79H116.028V162.838H125.754V163.79H121.623C121.638 164.264 121.858 164.703 122.282 165.108C122.707 165.514 123.261 165.853 123.945 166.126C124.633 166.395 125.368 166.573 126.15 166.661L125.725 167.584C125.002 167.491 124.316 167.325 123.667 167.086C123.017 166.847 122.448 166.542 121.96 166.17C121.472 165.799 121.111 165.379 120.876 164.911C120.642 165.379 120.28 165.799 119.792 166.17C119.309 166.542 118.742 166.847 118.093 167.086C117.444 167.325 116.755 167.491 116.028 167.584L115.617 166.661ZM116.379 172.813C116.379 172.32 116.557 171.898 116.914 171.546C117.27 171.19 117.785 170.919 118.459 170.733C119.138 170.548 119.944 170.455 120.876 170.455C121.804 170.455 122.602 170.548 123.271 170.733C123.94 170.919 124.453 171.19 124.809 171.546C125.171 171.898 125.354 172.32 125.359 172.813C125.354 173.312 125.173 173.736 124.817 174.088C124.46 174.439 123.945 174.706 123.271 174.886C122.602 175.067 121.804 175.157 120.876 175.157C119.939 175.157 119.133 175.067 118.459 174.886C117.785 174.706 117.27 174.439 116.914 174.088C116.557 173.736 116.379 173.312 116.379 172.813ZM117.551 172.813C117.546 173.111 117.673 173.368 117.932 173.583C118.196 173.792 118.574 173.954 119.067 174.066C119.56 174.178 120.149 174.234 120.832 174.234C121.887 174.234 122.71 174.112 123.3 173.868C123.896 173.619 124.196 173.268 124.201 172.813C124.196 172.359 123.901 172.008 123.315 171.759C122.729 171.505 121.916 171.373 120.876 171.363C119.826 171.373 119.008 171.505 118.423 171.759C117.837 172.008 117.546 172.359 117.551 172.813ZM137.788 165.504H139.751V166.485H137.788V169.737H136.646V162.164H137.788V165.504ZM127.637 163.512H130.947V162.047H132.09V163.512H135.4V164.464H127.637V163.512ZM128.384 167.35C128.384 166.891 128.513 166.49 128.772 166.148C129.031 165.802 129.397 165.536 129.871 165.35C130.344 165.16 130.894 165.064 131.519 165.064C132.139 165.064 132.683 165.16 133.152 165.35C133.625 165.536 133.992 165.802 134.25 166.148C134.514 166.49 134.648 166.891 134.653 167.35C134.648 167.809 134.514 168.211 134.25 168.558C133.992 168.905 133.625 169.171 133.152 169.356C132.678 169.542 132.134 169.635 131.519 169.635C130.894 169.635 130.344 169.542 129.871 169.356C129.397 169.171 129.031 168.905 128.772 168.558C128.513 168.211 128.384 167.809 128.384 167.35ZM129.482 167.35C129.482 167.628 129.565 167.875 129.731 168.089C129.897 168.299 130.134 168.463 130.442 168.58C130.754 168.697 131.113 168.756 131.519 168.756C131.919 168.756 132.273 168.697 132.581 168.58C132.893 168.463 133.135 168.299 133.306 168.089C133.477 167.875 133.564 167.628 133.569 167.35C133.564 167.071 133.474 166.827 133.298 166.617C133.127 166.402 132.888 166.239 132.581 166.126C132.273 166.009 131.919 165.953 131.519 165.958C131.113 165.953 130.757 166.009 130.449 166.126C130.142 166.239 129.902 166.402 129.731 166.617C129.565 166.827 129.482 167.071 129.482 167.35ZM129.556 170.309H130.698V171.7H136.646V170.309H137.788V175.011H129.556V170.309ZM136.646 174.088V172.608H130.698V174.088H136.646ZM151.009 175.187H149.866V162.164H151.009V175.187ZM141.121 163.453H142.249V170.836C143.323 170.826 144.37 170.775 145.391 170.682C146.411 170.584 147.439 170.426 148.474 170.206L148.636 171.188C147.527 171.417 146.448 171.583 145.398 171.686C144.353 171.783 143.279 171.832 142.176 171.832H141.121V163.453ZM163.013 167.32H165.196V168.287H163.013V175.216H161.871V162.164H163.013V167.32ZM153.506 163.438H159.586V164.391H154.649V170.982C155.879 170.978 156.946 170.941 157.85 170.873C158.753 170.804 159.673 170.685 160.611 170.514L160.757 171.51C159.791 171.686 158.843 171.803 157.916 171.861C156.993 171.92 155.865 171.949 154.532 171.949H153.506V163.438ZM166.976 174.088C166.805 174.088 166.646 174.044 166.5 173.956C166.358 173.868 166.244 173.753 166.156 173.612C166.073 173.465 166.034 173.307 166.038 173.136C166.034 172.97 166.073 172.816 166.156 172.674C166.244 172.528 166.358 172.413 166.5 172.33C166.646 172.242 166.805 172.198 166.976 172.198C167.142 172.198 167.296 172.24 167.437 172.323C167.584 172.406 167.699 172.518 167.782 172.66C167.87 172.801 167.913 172.955 167.913 173.121C167.913 173.385 167.823 173.612 167.642 173.802C167.462 173.988 167.24 174.083 166.976 174.088ZM177.187 165.665C177.187 166.437 177.345 167.203 177.663 167.965C177.98 168.722 178.407 169.396 178.944 169.986C179.486 170.577 180.077 171.017 180.717 171.305L180.014 172.213C179.267 171.852 178.593 171.307 177.992 170.58C177.392 169.847 176.935 169.02 176.623 168.097C176.325 169.078 175.873 169.957 175.268 170.733C174.662 171.51 173.979 172.091 173.217 172.477L172.484 171.51C173.129 171.217 173.722 170.765 174.264 170.155C174.806 169.544 175.236 168.846 175.553 168.06C175.875 167.269 176.039 166.471 176.044 165.665V163.292H177.187V165.665ZM182.138 162.164H183.295V175.216H182.138V162.164ZM191.11 170.396C192.038 170.396 192.844 170.492 193.527 170.682C194.216 170.868 194.745 171.141 195.117 171.502C195.492 171.859 195.68 172.286 195.68 172.784C195.68 173.277 195.492 173.702 195.117 174.059C194.745 174.415 194.216 174.686 193.527 174.872C192.844 175.062 192.038 175.157 191.11 175.157C190.182 175.157 189.374 175.062 188.686 174.872C188.002 174.686 187.475 174.415 187.104 174.059C186.738 173.702 186.554 173.277 186.554 172.784C186.554 172.286 186.738 171.859 187.104 171.502C187.475 171.141 188.002 170.868 188.686 170.682C189.374 170.492 190.182 170.396 191.11 170.396ZM185.236 168.243H190.143V165.724H191.271V168.243H197.087V169.181H185.236V168.243ZM186.642 162.838H195.578V163.937C195.573 164.654 195.551 165.262 195.512 165.76C195.473 166.253 195.373 166.798 195.212 167.394L194.084 167.262C194.24 166.666 194.338 166.131 194.377 165.658C194.416 165.179 194.435 164.605 194.435 163.937V163.775H186.642V162.838ZM187.697 172.784C187.697 173.082 187.836 173.343 188.115 173.568C188.393 173.788 188.788 173.956 189.301 174.073C189.819 174.19 190.422 174.249 191.11 174.249C191.799 174.249 192.399 174.19 192.912 174.073C193.429 173.956 193.827 173.788 194.106 173.568C194.389 173.343 194.533 173.082 194.538 172.784C194.533 172.477 194.389 172.21 194.106 171.986C193.827 171.761 193.429 171.588 192.912 171.466C192.399 171.339 191.799 171.275 191.11 171.275C190.422 171.275 189.819 171.339 189.301 171.466C188.788 171.588 188.393 171.761 188.115 171.986C187.836 172.21 187.697 172.477 187.697 172.784ZM33.6055 189.54H35.7881V190.492H33.6055V197.187H32.4629V184.164H33.6055V189.54ZM23.4541 186.259H26.8086V184.325H27.9512V186.259H31.2031V187.211H23.4541V186.259ZM24.2012 191.283C24.2012 190.707 24.3379 190.192 24.6113 189.738C24.8848 189.284 25.2632 188.93 25.7466 188.676C26.2349 188.422 26.7842 188.295 27.3945 188.295C28 188.295 28.5444 188.422 29.0278 188.676C29.5112 188.93 29.8896 189.284 30.1631 189.738C30.4414 190.192 30.583 190.707 30.5879 191.283C30.583 191.864 30.4414 192.382 30.1631 192.836C29.8896 193.285 29.5112 193.637 29.0278 193.891C28.5444 194.145 28 194.271 27.3945 194.271C26.7842 194.271 26.2349 194.145 25.7466 193.891C25.2632 193.637 24.8848 193.285 24.6113 192.836C24.3379 192.382 24.2012 191.864 24.2012 191.283ZM25.2998 191.283C25.2998 191.674 25.3877 192.023 25.5635 192.331C25.7441 192.633 25.9932 192.87 26.3105 193.041C26.6328 193.212 26.9941 193.295 27.3945 193.29C27.79 193.295 28.1465 193.212 28.4639 193.041C28.7812 192.87 29.0303 192.633 29.2109 192.331C29.3916 192.023 29.4844 191.674 29.4893 191.283C29.4844 190.897 29.3916 190.551 29.2109 190.243C29.0303 189.931 28.7812 189.689 28.4639 189.518C28.1465 189.347 27.79 189.262 27.3945 189.262C26.9941 189.262 26.6328 189.347 26.3105 189.518C25.9932 189.689 25.7441 189.931 25.5635 190.243C25.3877 190.551 25.2998 190.897 25.2998 191.283ZM40.6004 188.163C40.5955 188.847 40.742 189.54 41.0398 190.243C41.3426 190.946 41.7527 191.583 42.2703 192.155C42.7879 192.721 43.3592 193.153 43.9842 193.451L43.325 194.359C42.5975 194.003 41.9407 193.466 41.3548 192.748C40.7688 192.03 40.3294 191.227 40.0364 190.338C39.8362 190.968 39.5652 191.569 39.2234 192.14C38.8816 192.711 38.491 193.217 38.0516 193.656C37.617 194.091 37.158 194.433 36.6746 194.682L35.9715 193.773C36.5916 193.471 37.1678 193.017 37.7 192.411C38.2371 191.806 38.6644 191.127 38.9817 190.375C39.304 189.623 39.4676 188.886 39.4725 188.163V186.464H36.4402V185.512H43.5301V186.464H40.6004V188.163ZM45.1268 184.164H46.2693V189.438H48.452V190.419H46.2693V197.187H45.1268V184.164ZM54.0043 186.596H57.7982V184.721H58.9408V190.39H52.8764V184.721H54.0043V186.596ZM57.7982 189.452V187.489H54.0043V189.452H57.7982ZM54.1947 191.518H62.5004V194.667H55.352V196.103H62.9838V197.04H54.224V193.788H61.3578V192.44H54.1947V191.518ZM61.3578 184.164H62.5004V186.991H64.4633V187.958H62.5004V190.902H61.3578V184.164ZM68.8654 186.757C68.8703 187.24 68.9802 187.714 69.195 188.178C69.4099 188.642 69.7199 189.059 70.1252 189.43C70.5305 189.796 71.0041 190.082 71.5461 190.287L70.9455 191.166C70.3303 190.927 69.798 190.587 69.3488 190.148C68.9045 189.708 68.5627 189.203 68.3234 188.632C68.0793 189.271 67.7253 189.848 67.2614 190.36C66.7976 190.873 66.2531 191.264 65.6281 191.532L64.9982 190.639C65.5549 190.399 66.0407 190.067 66.4558 189.643C66.8757 189.218 67.1979 188.754 67.4226 188.251C67.6472 187.743 67.7619 187.245 67.7668 186.757V184.984H68.8654V186.757ZM67.3713 194.843C67.3664 194.354 67.5373 193.937 67.884 193.59C68.2355 193.239 68.7409 192.973 69.4001 192.792C70.0593 192.606 70.8381 192.514 71.7365 192.514C72.6301 192.514 73.404 192.606 74.0583 192.792C74.7175 192.973 75.2253 193.239 75.5817 193.59C75.9382 193.937 76.1164 194.354 76.1164 194.843C76.1164 195.326 75.9382 195.741 75.5817 196.088C75.2253 196.435 74.7175 196.698 74.0583 196.879C73.404 197.064 72.6301 197.157 71.7365 197.157C70.8381 197.157 70.0593 197.064 69.4001 196.879C68.7409 196.698 68.2355 196.435 67.884 196.088C67.5373 195.741 67.3664 195.326 67.3713 194.843ZM68.5139 194.843C68.509 195.136 68.6335 195.39 68.8874 195.604C69.1462 195.814 69.5148 195.976 69.9934 196.088C70.4768 196.205 71.0456 196.264 71.6999 196.264C72.364 196.264 72.9401 196.208 73.4284 196.095C73.9167 195.983 74.2951 195.819 74.5637 195.604C74.8322 195.39 74.9689 195.136 74.9738 194.843C74.9689 194.545 74.8347 194.289 74.571 194.074C74.3073 193.854 73.9313 193.686 73.4431 193.568C72.9597 193.451 72.3908 193.393 71.7365 193.393C71.0725 193.393 70.4963 193.451 70.008 193.568C69.5246 193.686 69.1535 193.854 68.8947 194.074C68.6359 194.289 68.509 194.545 68.5139 194.843ZM72.132 184.428H73.216V187.68H74.9445V184.179H76.0432V192.221H74.9445V188.632H73.216V191.811H72.132V184.428ZM85.741 187.665C85.741 188.437 85.8997 189.203 86.2171 189.965C86.5345 190.722 86.9617 191.396 87.4988 191.986C88.0408 192.577 88.6316 193.017 89.2713 193.305L88.5682 194.213C87.8211 193.852 87.1473 193.307 86.5467 192.58C85.9461 191.847 85.4896 191.02 85.1771 190.097C84.8792 191.078 84.4275 191.957 83.8221 192.733C83.2166 193.51 82.533 194.091 81.7713 194.477L81.0389 193.51C81.6834 193.217 82.2767 192.765 82.8187 192.155C83.3606 191.544 83.7903 190.846 84.1077 190.06C84.43 189.269 84.5936 188.471 84.5984 187.665V185.292H85.741V187.665ZM90.6922 184.164H91.8494V197.216H90.6922V184.164ZM109.15 192.689H103.715V197.187H102.587V192.689H97.226V191.737H109.15V192.689ZM98.7641 184.896H107.597V189.965H98.7641V184.896ZM106.454 189.057V185.834H99.892V189.057H106.454ZM114.255 186.273C114.255 186.854 114.392 187.416 114.665 187.958C114.944 188.495 115.327 188.969 115.815 189.379C116.308 189.789 116.867 190.102 117.492 190.316L116.863 191.225C116.145 190.961 115.512 190.573 114.966 190.06C114.424 189.542 114.008 188.942 113.72 188.258C113.442 189.03 113.022 189.704 112.461 190.28C111.899 190.856 111.238 191.293 110.476 191.591L109.861 190.668C110.505 190.429 111.074 190.084 111.567 189.635C112.06 189.186 112.444 188.666 112.717 188.075C112.99 187.479 113.127 186.85 113.127 186.186V184.838H114.255V186.273ZM111.589 194.784C111.589 194.291 111.762 193.869 112.109 193.517C112.456 193.161 112.954 192.89 113.603 192.704C114.253 192.519 115.022 192.426 115.91 192.426C116.799 192.426 117.563 192.519 118.203 192.704C118.847 192.89 119.341 193.161 119.682 193.517C120.029 193.869 120.202 194.291 120.202 194.784C120.202 195.287 120.031 195.714 119.69 196.066C119.348 196.422 118.855 196.693 118.21 196.879C117.566 197.064 116.799 197.157 115.91 197.157C115.017 197.157 114.245 197.064 113.596 196.879C112.951 196.693 112.456 196.422 112.109 196.066C111.762 195.709 111.589 195.282 111.589 194.784ZM112.746 194.784C112.741 195.087 112.866 195.348 113.12 195.568C113.374 195.788 113.738 195.956 114.211 196.073C114.69 196.19 115.256 196.249 115.91 196.249C116.565 196.249 117.129 196.19 117.602 196.073C118.081 195.956 118.447 195.788 118.701 195.568C118.96 195.348 119.089 195.087 119.089 194.784C119.089 194.491 118.96 194.237 118.701 194.022C118.447 193.803 118.081 193.637 117.602 193.524C117.124 193.407 116.56 193.349 115.91 193.349C115.261 193.349 114.697 193.407 114.218 193.524C113.74 193.642 113.374 193.808 113.12 194.022C112.866 194.237 112.741 194.491 112.746 194.784ZM118.943 184.164H120.085V187.562H122.048V188.529H120.085V192.089H118.943V184.164ZM128.501 185.014C129.404 185.014 130.217 185.165 130.94 185.468C131.663 185.766 132.229 186.186 132.639 186.728C133.054 187.265 133.262 187.885 133.262 188.588C133.262 189.296 133.054 189.923 132.639 190.47C132.229 191.012 131.663 191.432 130.94 191.73C130.217 192.023 129.404 192.167 128.501 192.162C127.598 192.167 126.785 192.023 126.062 191.73C125.339 191.432 124.771 191.012 124.355 190.47C123.945 189.923 123.74 189.296 123.74 188.588C123.74 187.885 123.945 187.265 124.355 186.728C124.771 186.186 125.339 185.766 126.062 185.468C126.785 185.165 127.598 185.014 128.501 185.014ZM122.568 194.491H134.492V195.458H122.568V194.491ZM124.839 188.588C124.834 189.105 124.99 189.564 125.308 189.965C125.625 190.365 126.062 190.675 126.619 190.895C127.175 191.115 127.803 191.225 128.501 191.225C129.194 191.225 129.817 191.115 130.369 190.895C130.925 190.675 131.36 190.365 131.672 189.965C131.99 189.564 132.148 189.105 132.148 188.588C132.148 188.075 131.99 187.619 131.672 187.218C131.355 186.818 130.918 186.508 130.361 186.288C129.81 186.063 129.189 185.951 128.501 185.951C127.808 185.951 127.18 186.063 126.619 186.288C126.062 186.508 125.625 186.818 125.308 187.218C124.99 187.619 124.834 188.075 124.839 188.588ZM147.156 195.575H135.232V194.608H140.594V192.147H136.726V188.134H144.519V186.083H136.697V185.131H145.647V189.071H137.869V191.195H145.955V192.147H141.721V194.608H147.156V195.575ZM157.894 185.38C157.894 185.971 158.121 186.535 158.575 187.072C159.034 187.604 159.627 188.053 160.355 188.419C161.087 188.781 161.849 189.018 162.64 189.13L162.171 190.067C161.488 189.955 160.826 189.76 160.186 189.481C159.547 189.198 158.973 188.847 158.465 188.427C157.962 188.002 157.577 187.531 157.308 187.013C157.039 187.536 156.654 188.007 156.151 188.427C155.648 188.847 155.077 189.198 154.437 189.481C153.797 189.76 153.133 189.955 152.445 190.067L151.976 189.13C152.772 189.018 153.534 188.781 154.261 188.419C154.989 188.058 155.577 187.611 156.026 187.079C156.48 186.547 156.707 185.98 156.707 185.38V184.633H157.894V185.38ZM151.361 191.503H163.226V192.47H157.835V197.187H156.707V192.47H151.361V191.503ZM174.777 197.216H173.634V184.164H174.777V197.216ZM164.757 185.38H170.821V190.009H165.958V193.085C167.106 193.09 168.182 193.058 169.188 192.99C170.199 192.921 171.261 192.797 172.374 192.616L172.491 193.583C171.359 193.759 170.275 193.881 169.239 193.949C168.204 194.018 167.081 194.052 165.87 194.052H164.786V189.071H169.664V186.332H164.757V185.38ZM183.192 187.357H176.659V186.42H179.369V184.56H180.512V186.42H183.192V187.357ZM177.128 191.195C177.128 190.629 177.248 190.121 177.487 189.672C177.731 189.223 178.065 188.871 178.49 188.617C178.915 188.363 179.394 188.236 179.926 188.236C180.468 188.236 180.951 188.363 181.376 188.617C181.806 188.871 182.14 189.223 182.379 189.672C182.624 190.116 182.748 190.624 182.753 191.195C182.748 191.771 182.624 192.287 182.379 192.741C182.14 193.19 181.806 193.544 181.376 193.803C180.951 194.057 180.468 194.184 179.926 194.184C179.394 194.184 178.913 194.057 178.483 193.803C178.058 193.544 177.726 193.19 177.487 192.741C177.248 192.287 177.128 191.771 177.128 191.195ZM178.153 191.195C178.153 191.576 178.229 191.918 178.38 192.221C178.532 192.519 178.742 192.753 179.01 192.924C179.279 193.09 179.584 193.173 179.926 193.173C180.268 193.173 180.575 193.09 180.849 192.924C181.122 192.753 181.337 192.519 181.493 192.221C181.649 191.918 181.728 191.576 181.728 191.195C181.728 190.819 181.649 190.482 181.493 190.185C181.337 189.882 181.122 189.645 180.849 189.474C180.575 189.298 180.268 189.208 179.926 189.203C179.584 189.208 179.279 189.298 179.01 189.474C178.742 189.645 178.532 189.882 178.38 190.185C178.229 190.482 178.153 190.819 178.153 191.195ZM183.866 184.486H184.95V189.657H186.679V184.164H187.777V197.187H186.679V190.609H184.95V196.542H183.866V184.486ZM203.335 191.386H194.34V185.38H203.203V186.332H195.483V190.434H203.335V191.386ZM192.817 194.447H204.741V195.414H192.817V194.447ZM34.2793 213.327H33.1367V206.179H34.2793V213.327ZM24.1865 206.809H30.1338V210.324H25.3291V212.097C26.6523 212.087 27.7681 212.058 28.6763 212.009C29.5894 211.955 30.5342 211.848 31.5107 211.687L31.6426 212.639C30.6172 212.8 29.6309 212.91 28.6836 212.968C27.7363 213.022 26.5986 213.054 25.2705 213.063H24.2158V209.416H28.9912V207.761H24.1865V206.809ZM25.8125 213.986H26.9697V215.539H33.1367V213.986H34.2793V219.011H25.8125V213.986ZM33.1367 218.073V216.462H26.9697V218.073H33.1367ZM46.9285 219.187H45.7859V206.164H46.9285V219.187ZM37.0408 207.453H38.1687V214.836C39.243 214.826 40.2903 214.775 41.3108 214.682C42.3313 214.584 43.3592 214.426 44.3943 214.206L44.5555 215.188C43.4471 215.417 42.368 215.583 41.3182 215.686C40.2732 215.783 39.199 215.832 38.0955 215.832H37.0408V207.453ZM58.9332 211.32H61.1158V212.287H58.9332V219.216H57.7906V206.164H58.9332V211.32ZM49.4264 207.438H55.5055V208.391H50.5689V214.982C51.7994 214.978 52.8663 214.941 53.7696 214.873C54.6729 214.804 55.5934 214.685 56.5309 214.514L56.6773 215.51C55.7105 215.686 54.7633 215.803 53.8355 215.861C52.9127 215.92 51.7848 215.949 50.4518 215.949H49.4264V207.438ZM62.8959 218.088C62.725 218.088 62.5663 218.044 62.4198 217.956C62.2782 217.868 62.1635 217.753 62.0756 217.612C61.9926 217.465 61.9535 217.307 61.9584 217.136C61.9535 216.97 61.9926 216.816 62.0756 216.674C62.1635 216.528 62.2782 216.413 62.4198 216.33C62.5663 216.242 62.725 216.198 62.8959 216.198C63.0619 216.198 63.2157 216.24 63.3573 216.323C63.5038 216.406 63.6186 216.518 63.7016 216.66C63.7895 216.801 63.8334 216.955 63.8334 217.121C63.8334 217.385 63.7431 217.612 63.5624 217.802C63.3817 217.988 63.1596 218.083 62.8959 218.088Z" fill="#777E8D"/>
<rect x="22" y="29" width="50" height="50" rx="10" fill="#1DB8CE"/>
<path d="M47 53.9062L44.875 55.5312C44.75 55.6354 44.625 55.6406 44.5 55.5469C44.375 55.4531 44.3333 55.3333 44.375 55.1875L45.1875 52.5625L43 50.8125C42.8958 50.7083 42.8646 50.5885 42.9062 50.4531C42.9479 50.3177 43.0417 50.25 43.1875 50.25H45.875L46.6875 47.6875C46.7292 47.5417 46.8333 47.4688 47 47.4688C47.1667 47.4688 47.2708 47.5417 47.3125 47.6875L48.125 50.25H50.7812C50.9271 50.25 51.026 50.3177 51.0781 50.4531C51.1302 50.5885 51.1042 50.7083 51 50.8125L48.7812 52.5625L49.5938 55.1875C49.6354 55.3333 49.5938 55.4531 49.4688 55.5469C49.3438 55.6406 49.2188 55.6354 49.0938 55.5312L47 53.9062ZM47 65.25L41.1562 67.1875C40.7396 67.3333 40.3594 67.2812 40.0156 67.0312C39.6719 66.7812 39.5 66.4479 39.5 66.0312V58.0938C38.7083 57.2188 38.0938 56.2188 37.6562 55.0938C37.2188 53.9688 37 52.7708 37 51.5C37 48.7083 37.9688 46.3438 39.9062 44.4062C41.8438 42.4688 44.2083 41.5 47 41.5C49.7917 41.5 52.1562 42.4688 54.0938 44.4062C56.0312 46.3438 57 48.7083 57 51.5C57 52.7708 56.7812 53.9688 56.3438 55.0938C55.9062 56.2188 55.2917 57.2188 54.5 58.0938V66.0312C54.5 66.4479 54.3281 66.7812 53.9844 67.0312C53.6406 67.2812 53.2604 67.3333 52.8438 67.1875L47 65.25ZM52.3125 56.8125C53.7708 55.3542 54.5 53.5833 54.5 51.5C54.5 49.4167 53.7708 47.6458 52.3125 46.1875C50.8542 44.7292 49.0833 44 47 44C44.9167 44 43.1458 44.7292 41.6875 46.1875C40.2292 47.6458 39.5 49.4167 39.5 51.5C39.5 53.5833 40.2292 55.3542 41.6875 56.8125C43.1458 58.2708 44.9167 59 47 59C49.0833 59 50.8542 58.2708 52.3125 56.8125ZM42 64.0312L47 62.75L52 64.0312V60.1562C51.2708 60.5729 50.4844 60.901 49.6406 61.1406C48.7969 61.3802 47.9167 61.5 47 61.5C46.0833 61.5 45.2031 61.3802 44.3594 61.1406C43.5156 60.901 42.7292 60.5729 42 60.1562V64.0312Z" fill="white"/>
</svg>
