<svg width="326" height="167" viewBox="0 0 326 167" fill="none" xmlns="http://www.w3.org/2000/svg">
<rect width="326" height="167" rx="17" fill="white"/>
<path d="M28.0716 58.4688C25.2434 58.4688 22.8059 57.7891 20.7591 56.4297C18.7122 55.0547 17.1419 53.0625 16.0481 50.4531C14.97 47.8438 14.4309 44.7031 14.4309 41.0312C14.4309 37.375 14.9778 34.2422 16.0716 31.6328C17.1653 29.0078 18.7356 27.0156 20.7825 25.6562C22.8294 24.2812 25.2591 23.5938 28.0716 23.5938C30.8841 23.5938 33.3137 24.2812 35.3606 25.6562C37.4075 27.0156 38.9778 29.0078 40.0716 31.6328C41.1653 34.2422 41.7122 37.375 41.7122 41.0312C41.7122 44.7188 41.1653 47.8672 40.0716 50.4766C38.9778 53.0859 37.4075 55.0703 35.3606 56.4297C33.3294 57.7891 30.8997 58.4688 28.0716 58.4688ZM21.6497 41.2422C21.6497 44.9922 22.22 47.8359 23.3606 49.7734C24.5012 51.6953 26.0716 52.6562 28.0716 52.6562C30.0872 52.6562 31.6653 51.6797 32.8059 49.7266C33.9466 47.7578 34.5091 44.8594 34.4934 41.0312C34.4934 38.5 34.2356 36.3672 33.72 34.6328C33.2044 32.8828 32.4622 31.5703 31.4934 30.6953C30.5247 29.8203 29.3841 29.375 28.0716 29.3594C26.0559 29.375 24.4778 30.3906 23.3372 32.4062C22.2122 34.4219 21.6497 37.3672 21.6497 41.2422ZM45.1003 52.8906L57.2878 41.6875C58.4909 40.5312 59.4206 39.5781 60.0769 38.8281C60.7487 38.0625 61.2644 37.3047 61.6237 36.5547C61.9831 35.7891 62.1628 34.9688 62.1628 34.0938C62.1628 33.1094 61.9284 32.25 61.4597 31.5156C61.0066 30.7656 60.3659 30.1953 59.5378 29.8047C58.7253 29.4141 57.8034 29.2188 56.7722 29.2188C55.1628 29.2031 53.8816 29.6719 52.9284 30.625C51.9753 31.5625 51.5066 32.8438 51.5222 34.4688H44.8191C44.8191 32.2969 45.3191 30.3906 46.3191 28.75C47.3347 27.0938 48.7487 25.8203 50.5612 24.9297C52.3894 24.0391 54.4909 23.5938 56.8659 23.5938C59.2566 23.5938 61.3659 24.0234 63.1941 24.8828C65.0222 25.7266 66.4362 26.9062 67.4362 28.4219C68.4519 29.9375 68.9597 31.6719 68.9597 33.625C68.9597 34.9688 68.7019 36.2578 68.1862 37.4922C67.6706 38.7109 66.7722 40.0703 65.4909 41.5703C64.2253 43.0703 62.4284 44.875 60.1003 46.9844L54.9441 52V52.1875H69.4284V58H45.1472L45.1003 52.8906Z" fill="#D8DFE4"/>
<path d="M86.9336 83.9297H78.5742V76.2539H86.9336V83.9297ZM79.6094 91C80.625 90.8633 81.5202 90.6322 82.2949 90.3066C83.0762 89.9746 83.6979 89.5807 84.1602 89.125C84.6289 88.6693 84.9219 88.181 85.0391 87.6602H80.332V85.9414H92.1484V87.6602H87.4609C87.5781 88.168 87.8711 88.653 88.3398 89.1152C88.8151 89.571 89.4401 89.9681 90.2148 90.3066C90.9961 90.6452 91.888 90.8828 92.8906 91.0195L92.1094 92.6797C90.7422 92.4844 89.5508 92.11 88.5352 91.5566C87.5195 91.0033 86.7546 90.3229 86.2402 89.5156C85.7259 90.3229 84.9642 91 83.9551 91.5469C82.946 92.0938 81.7643 92.4583 80.4102 92.6406L79.6094 91ZM84.8047 82.1914V77.9922H80.7031V82.1914H84.8047ZM89.7266 75.082H91.8945V79.0469H94.3555V80.8438H91.8945V85.043H89.7266V75.082ZM111.348 85.375H104.355V86.918H109.395V92.5234H97.1484V86.918H102.207V85.375H95.2539V83.6562H111.348V85.375ZM96.0156 81.2539C97.2201 81.1693 98.2585 80.9935 99.1309 80.7266C100.01 80.4531 100.693 80.1146 101.182 79.7109C101.67 79.3008 101.956 78.8516 102.041 78.3633H96.8359V76.6445H102.207V75.0625H104.355V76.6445H109.766V78.3633H104.521C104.606 78.8516 104.893 79.3008 105.381 79.7109C105.869 80.1146 106.553 80.4531 107.432 80.7266C108.311 80.9935 109.349 81.1693 110.547 81.2539L109.922 82.8555C108.327 82.7318 106.96 82.4421 105.82 81.9863C104.681 81.5241 103.835 80.9219 103.281 80.1797C102.728 80.9219 101.882 81.5241 100.742 81.9863C99.6029 82.4421 98.2422 82.7318 96.6602 82.8555L96.0156 81.2539ZM107.285 90.7656V88.6562H99.2969V90.7656H107.285ZM132.07 84.125H129.902V79.6523H126.387V77.9141H129.902V75.082H132.07V84.125ZM117.188 82.4844C118.112 82.2044 118.896 81.7943 119.541 81.2539C120.192 80.707 120.68 80.0755 121.006 79.3594C121.338 78.6367 121.504 77.875 121.504 77.0742V75.668H123.691V77.0742C123.685 77.8099 123.841 78.513 124.16 79.1836C124.479 79.8542 124.951 80.4499 125.576 80.9707C126.201 81.485 126.96 81.8789 127.852 82.1523L126.699 83.832C125.755 83.5195 124.938 83.0638 124.248 82.4648C123.558 81.8659 123.014 81.1595 122.617 80.3457C122.227 81.2572 121.667 82.0482 120.938 82.7188C120.215 83.3828 119.342 83.8841 118.32 84.2227L117.188 82.4844ZM120.449 84.8867H132.07V89.457H122.598V90.8047H132.637V92.5234H120.469V87.8359H129.922V86.5859H120.449V84.8867ZM149.805 92.7383H147.734V75.082H149.805V92.7383ZM134.395 87.4648C136.185 86.4036 137.533 85.1797 138.438 83.793C139.349 82.4062 139.889 80.8047 140.059 78.9883H135.332V77.2305H142.207C142.207 78.1419 142.145 79.0078 142.021 79.8281H144.082V75.5117H146.152V91.8984H144.082V86H141.328V84.2227H144.082V81.6055H141.65C141.214 83.1224 140.508 84.4993 139.531 85.7363C138.561 86.9668 137.272 88.0573 135.664 89.0078L134.395 87.4648ZM166.016 83.5195H157.5V76.1758H166.016V83.5195ZM158.555 91.0195C159.642 90.9284 160.609 90.7201 161.455 90.3945C162.308 90.069 162.979 89.6784 163.467 89.2227C163.962 88.7604 164.242 88.2917 164.307 87.8164H159.277V86.1758H164.355V84.6328H166.543V86.1758H171.641V87.8164H166.602C166.667 88.2786 166.94 88.7376 167.422 89.1934C167.91 89.6426 168.574 90.0332 169.414 90.3652C170.26 90.6908 171.224 90.9089 172.305 91.0195L171.562 92.6797C170.163 92.5299 168.932 92.1979 167.871 91.6836C166.816 91.1693 166.012 90.5378 165.459 89.7891C164.906 90.5443 164.095 91.1758 163.027 91.6836C161.96 92.1914 160.716 92.5234 159.297 92.6797L158.555 91.0195ZM163.867 81.8203V77.8945H159.648V81.8203H163.867ZM169.121 75.082H171.27V85.1406H169.121V75.082ZM193.418 88.1484H191.25V84.3008H186.992V82.5234H191.25V80.3359H187.227C186.602 81.6901 185.654 82.8652 184.385 83.8613C183.122 84.8574 181.595 85.6289 179.805 86.1758L178.887 84.4766C180.846 83.8451 182.419 82.9857 183.604 81.8984C184.795 80.8112 185.488 79.5742 185.684 78.1875H179.805V76.4492H188.066C188.066 77.1523 187.988 77.862 187.832 78.5781H191.25V75.1016H193.418V88.1484ZM181.914 86.8594H184.121V90.6289H193.867V92.3867H181.914V86.8594ZM202.402 78.1094C202.402 78.8385 202.562 79.5482 202.881 80.2383C203.2 80.9219 203.672 81.5371 204.297 82.084C204.922 82.6243 205.677 83.0443 206.562 83.3438L205.469 85.0234C204.505 84.7109 203.672 84.2389 202.969 83.6074C202.272 82.9759 201.725 82.2337 201.328 81.3809C200.931 82.3314 200.365 83.1549 199.629 83.8516C198.893 84.5482 198.014 85.069 196.992 85.4141L195.879 83.6953C196.79 83.3958 197.568 82.9564 198.213 82.377C198.864 81.7975 199.355 81.14 199.688 80.4043C200.026 79.6621 200.195 78.9036 200.195 78.1289V77.8945H196.523V76.1562H206.055V77.8945H202.402V78.1094ZM198.672 86.4492H210.703V92.7383H208.535V88.1875H198.672V86.4492ZM205.527 79.457H208.535V75.082H210.703V85.6094H208.535V81.2344H205.527V79.457Z" fill="black"/>
<path d="M87.5684 121.236H86.4883V118.625H84.3828V117.75H86.4883V116.096H84.3828V115.207H86.4883V111.967H87.5684V121.236ZM77.5059 113.457H80.459V111.953H81.5254V113.457H84.3828V114.332H77.5059V113.457ZM78.2305 117.326C78.2259 116.866 78.3398 116.46 78.5723 116.109C78.8047 115.758 79.1283 115.487 79.543 115.296C79.9622 115.1 80.4408 115.002 80.9785 115.002C81.5163 115.002 81.9948 115.1 82.4141 115.296C82.8333 115.487 83.1615 115.758 83.3984 116.109C83.6354 116.46 83.7539 116.866 83.7539 117.326C83.7539 117.782 83.6354 118.185 83.3984 118.536C83.1615 118.887 82.8333 119.16 82.4141 119.356C81.9948 119.552 81.5163 119.65 80.9785 119.65C80.4408 119.65 79.9622 119.552 79.543 119.356C79.1283 119.16 78.8047 118.887 78.5723 118.536C78.3398 118.185 78.2259 117.782 78.2305 117.326ZM79.2285 117.326C79.2285 117.613 79.3014 117.868 79.4473 118.092C79.5931 118.315 79.7982 118.488 80.0625 118.611C80.3314 118.73 80.6367 118.789 80.9785 118.789C81.3203 118.789 81.6234 118.73 81.8877 118.611C82.1566 118.488 82.3662 118.315 82.5166 118.092C82.667 117.868 82.7422 117.613 82.7422 117.326C82.7422 117.039 82.667 116.784 82.5166 116.561C82.3662 116.337 82.1566 116.164 81.8877 116.041C81.6234 115.918 81.3203 115.854 80.9785 115.85C80.6367 115.854 80.3314 115.92 80.0625 116.048C79.7982 116.171 79.5931 116.344 79.4473 116.567C79.3014 116.786 79.2285 117.039 79.2285 117.326ZM79.707 120.416H80.7871V122.945H87.8418V123.848H79.707V120.416ZM93.707 114.264C93.707 114.788 93.8301 115.289 94.0762 115.768C94.3268 116.246 94.6777 116.668 95.1289 117.032C95.5801 117.392 96.0996 117.668 96.6875 117.859L96.1816 118.707C95.4844 118.475 94.8783 118.128 94.3633 117.668C93.8483 117.208 93.4587 116.67 93.1943 116.055C92.9346 116.752 92.5358 117.363 91.998 117.887C91.4603 118.406 90.8268 118.798 90.0977 119.062L89.5508 118.201C90.1523 117.996 90.6878 117.695 91.1572 117.299C91.6266 116.902 91.9912 116.442 92.251 115.918C92.5153 115.394 92.6497 114.842 92.6543 114.264V113.744H89.8789V112.855H96.4414V113.744H93.707V114.264ZM91.1641 121.838C91.1641 121.373 91.3258 120.977 91.6494 120.648C91.973 120.316 92.4378 120.063 93.0439 119.89C93.6501 119.712 94.3678 119.623 95.1973 119.623C96.0267 119.623 96.7422 119.712 97.3438 119.89C97.9453 120.063 98.4056 120.316 98.7246 120.648C99.0436 120.977 99.2031 121.373 99.2031 121.838C99.2031 122.307 99.0436 122.711 98.7246 123.048C98.4056 123.385 97.9453 123.64 97.3438 123.813C96.7422 123.991 96.0267 124.08 95.1973 124.08C94.3678 124.08 93.6501 123.991 93.0439 123.813C92.4378 123.64 91.973 123.385 91.6494 123.048C91.3258 122.711 91.1641 122.307 91.1641 121.838ZM92.2441 121.838C92.2396 122.125 92.3535 122.373 92.5859 122.583C92.8229 122.788 93.1602 122.945 93.5977 123.055C94.0397 123.164 94.5615 123.219 95.1631 123.219C95.7829 123.219 96.3161 123.164 96.7627 123.055C97.2139 122.95 97.5602 122.795 97.8018 122.59C98.0433 122.38 98.1641 122.13 98.1641 121.838C98.1641 121.555 98.0433 121.314 97.8018 121.113C97.5648 120.908 97.223 120.753 96.7764 120.648C96.3343 120.539 95.8079 120.484 95.1973 120.484C94.5911 120.484 94.0648 120.539 93.6182 120.648C93.1715 120.753 92.8298 120.908 92.5928 121.113C92.3558 121.318 92.2396 121.56 92.2441 121.838ZM98.0273 111.953H99.0938V115.057H100.926V115.959H99.0938V119.295H98.0273V111.953ZM116.32 119.268H111.371V121.646H110.305V119.268H105.191V118.393H116.32V119.268ZM106.613 120.525H107.68V122.945H115.076V123.848H106.613V120.525ZM106.682 112.35H107.748V113.908H113.764V112.35H114.83V117.203H106.682V112.35ZM113.764 116.328V114.729H107.748V116.328H113.764ZM121.447 113.908C121.447 114.46 121.573 114.991 121.823 115.501C122.078 116.011 122.434 116.463 122.89 116.854C123.35 117.242 123.872 117.536 124.455 117.736L123.867 118.598C123.197 118.347 122.607 117.976 122.097 117.483C121.586 116.991 121.201 116.419 120.941 115.768C120.686 116.483 120.294 117.112 119.766 117.654C119.242 118.192 118.622 118.602 117.906 118.885L117.318 117.996C117.929 117.782 118.465 117.47 118.925 117.06C119.39 116.645 119.75 116.164 120.005 115.617C120.26 115.066 120.39 114.482 120.395 113.867V112.582H121.447V113.908ZM119.205 119.814H127.381V124.107H126.301V120.676H119.205V119.814ZM123.594 114.51H126.301V111.953H127.381V119.145H126.301V115.412H123.594V114.51ZM142.994 118.174H141.914V116.902H138.674V116.055H141.914V114.592H138.852C138.478 115.535 137.835 116.333 136.924 116.984C136.012 117.632 134.873 118.119 133.506 118.447L133.123 117.559C134.613 117.212 135.778 116.688 136.616 115.986C137.459 115.28 137.933 114.437 138.038 113.457H133.738V112.568H139.221C139.221 112.965 139.182 113.352 139.104 113.73H141.914V111.953H142.994V118.174ZM135.119 118.721H142.994V121.688H136.213V123.109H143.404V123.998H135.146V120.867H141.914V119.596H135.119V118.721ZM151.758 113.936C151.753 114.724 151.73 115.48 151.689 116.205C151.648 116.93 151.553 117.782 151.402 118.762L150.322 118.666C150.559 117.217 150.678 115.799 150.678 114.414V114.182H145.578V113.307H151.758V113.936ZM144.895 120.539C146.057 120.53 146.932 120.519 147.52 120.505V116.779H148.572V120.471C150.072 120.416 151.402 120.32 152.564 120.184L152.619 120.99C150.737 121.282 148.399 121.428 145.605 121.428H145.031L144.895 120.539ZM153.33 111.953H154.396V117.039H156.365V117.969H154.396V124.107H153.33V111.953ZM168.232 118.447H157.104V117.6H168.232V118.447ZM158.443 119.418H166.838V122.002H159.537V123.164H167.234V123.943H158.457V121.264H165.771V120.225H158.443V119.418ZM158.512 112.322H166.797V114.838H159.619V115.904H167.016V116.684H158.553V114.1H165.717V113.102H158.512V112.322ZM182.137 116.738H184.174V117.668H182.137V124.107H181.07V111.953H182.137V116.738ZM173.236 112.992H174.303V116.205H177.857V112.992H178.924V121.195H173.236V112.992ZM177.857 120.293V117.066H174.303V120.293H177.857ZM194.332 115.125H196.164V116.014H194.332V119.432H193.266V111.953H194.332V115.125ZM185.404 112.814H190.996V113.689H186.471V115.248H190.764V116.109H186.471V117.723H186.806C187.922 117.723 188.845 117.7 189.574 117.654C190.308 117.609 191.046 117.522 191.789 117.395L191.912 118.256C191.188 118.388 190.465 118.479 189.745 118.529C189.03 118.575 188.12 118.598 187.018 118.598H186.32H185.404V112.814ZM186.43 121.92C186.425 121.464 186.585 121.072 186.908 120.744C187.232 120.416 187.697 120.168 188.303 119.999C188.909 119.83 189.629 119.746 190.463 119.746C191.292 119.746 192.006 119.83 192.603 119.999C193.204 120.168 193.664 120.416 193.983 120.744C194.307 121.068 194.469 121.46 194.469 121.92C194.469 122.376 194.307 122.765 193.983 123.089C193.664 123.412 193.204 123.659 192.603 123.827C192.006 123.996 191.292 124.08 190.463 124.08C189.629 124.08 188.909 123.996 188.303 123.827C187.697 123.659 187.232 123.412 186.908 123.089C186.585 122.765 186.425 122.376 186.43 121.92ZM187.496 121.92C187.496 122.193 187.612 122.43 187.845 122.631C188.077 122.827 188.414 122.977 188.856 123.082C189.299 123.191 189.823 123.246 190.429 123.246C191.039 123.246 191.568 123.194 192.015 123.089C192.466 122.984 192.81 122.831 193.047 122.631C193.284 122.43 193.402 122.193 193.402 121.92C193.402 121.646 193.284 121.41 193.047 121.209C192.814 121.008 192.477 120.856 192.035 120.751C191.593 120.646 191.069 120.594 190.463 120.594C189.848 120.594 189.317 120.646 188.87 120.751C188.424 120.856 188.082 121.008 187.845 121.209C187.612 121.405 187.496 121.642 187.496 121.92ZM202.467 112.746C203.31 112.746 204.069 112.887 204.743 113.17C205.418 113.448 205.946 113.84 206.329 114.346C206.716 114.847 206.91 115.426 206.91 116.082C206.91 116.743 206.716 117.328 206.329 117.839C205.946 118.345 205.418 118.737 204.743 119.015C204.069 119.288 203.31 119.423 202.467 119.418C201.624 119.423 200.865 119.288 200.19 119.015C199.516 118.737 198.985 118.345 198.598 117.839C198.215 117.328 198.023 116.743 198.023 116.082C198.023 115.426 198.215 114.847 198.598 114.346C198.985 113.84 199.516 113.448 200.19 113.17C200.865 112.887 201.624 112.746 202.467 112.746ZM196.93 121.592H208.059V122.494H196.93V121.592ZM199.049 116.082C199.044 116.565 199.19 116.993 199.486 117.367C199.783 117.741 200.19 118.03 200.71 118.235C201.229 118.44 201.815 118.543 202.467 118.543C203.114 118.543 203.695 118.44 204.21 118.235C204.729 118.03 205.135 117.741 205.427 117.367C205.723 116.993 205.871 116.565 205.871 116.082C205.871 115.604 205.723 115.177 205.427 114.804C205.131 114.43 204.723 114.141 204.203 113.936C203.688 113.726 203.109 113.621 202.467 113.621C201.82 113.621 201.234 113.726 200.71 113.936C200.19 114.141 199.783 114.43 199.486 114.804C199.19 115.177 199.044 115.604 199.049 116.082ZM220.158 122.604H209.029V121.701H214.033V119.404H210.424V115.658H217.697V113.744H210.396V112.855H218.75V116.533H211.49V118.516H219.037V119.404H215.086V121.701H220.158V122.604ZM229.25 120.607C230.604 120.535 231.766 120.425 232.736 120.279L232.818 121.072C231.665 121.282 230.476 121.421 229.25 121.489C228.024 121.558 226.732 121.592 225.374 121.592H224.861L224.711 120.703C226.224 120.694 227.386 120.676 228.197 120.648V118.365H229.25V120.607ZM225.08 117.941C225.682 117.764 226.213 117.504 226.673 117.162C227.138 116.816 227.5 116.41 227.76 115.945C228.024 115.476 228.161 114.975 228.17 114.441H225.381V113.553H228.197V112.049H229.25V113.553H232.107V114.441H229.25C229.259 114.952 229.398 115.433 229.667 115.884C229.936 116.33 230.305 116.72 230.774 117.053C231.244 117.381 231.779 117.632 232.381 117.805L231.875 118.652C231.146 118.434 230.506 118.099 229.954 117.647C229.407 117.192 228.997 116.659 228.724 116.048C228.464 116.695 228.061 117.253 227.514 117.723C226.971 118.192 226.333 118.538 225.6 118.762L225.08 117.941ZM233.543 111.953H234.609V124.135H233.543V111.953ZM240.967 114.195C240.967 114.715 241.092 115.221 241.343 115.713C241.593 116.205 241.947 116.643 242.402 117.025C242.858 117.408 243.378 117.7 243.961 117.9L243.4 118.748C242.721 118.502 242.124 118.137 241.609 117.654C241.099 117.171 240.714 116.615 240.454 115.986C240.19 116.684 239.786 117.301 239.244 117.839C238.706 118.372 238.077 118.771 237.357 119.035L236.797 118.188C237.389 117.973 237.92 117.663 238.39 117.258C238.859 116.848 239.226 116.378 239.49 115.85C239.755 115.321 239.887 114.774 239.887 114.209V113.676H237.139V112.801H243.688V113.676H240.967V114.195ZM238.643 119.883H246.818V124.107H245.738V120.771H238.643V119.883ZM243.305 115.139H245.738V111.953H246.818V119.24H245.738V116.041H243.305V115.139ZM252.82 112.842C253.449 112.842 254.01 112.963 254.502 113.204C254.999 113.446 255.386 113.783 255.664 114.216C255.947 114.649 256.088 115.143 256.088 115.699C256.088 116.255 255.947 116.75 255.664 117.183C255.386 117.616 254.999 117.953 254.502 118.194C254.01 118.436 253.449 118.557 252.82 118.557C252.187 118.557 251.619 118.436 251.118 118.194C250.621 117.953 250.234 117.616 249.956 117.183C249.678 116.75 249.539 116.255 249.539 115.699C249.539 115.143 249.678 114.649 249.956 114.216C250.234 113.783 250.621 113.446 251.118 113.204C251.619 112.963 252.187 112.842 252.82 112.842ZM249.478 120.539C250.858 120.539 252.169 120.512 253.408 120.457C254.652 120.402 255.828 120.293 256.936 120.129L257.018 120.922C255.792 121.15 254.545 121.296 253.278 121.359C252.011 121.423 250.605 121.455 249.061 121.455L248.91 120.539H249.478ZM250.592 115.699C250.592 116.073 250.685 116.406 250.872 116.697C251.063 116.984 251.328 117.21 251.665 117.374C252.007 117.534 252.392 117.613 252.82 117.613C253.244 117.613 253.625 117.534 253.962 117.374C254.299 117.21 254.561 116.984 254.748 116.697C254.939 116.406 255.035 116.073 255.035 115.699C255.035 115.33 254.939 115 254.748 114.708C254.561 114.416 254.299 114.191 253.962 114.031C253.625 113.867 253.244 113.785 252.82 113.785C252.392 113.785 252.007 113.867 251.665 114.031C251.328 114.191 251.063 114.416 250.872 114.708C250.685 115 250.592 115.33 250.592 115.699ZM257.742 111.953H258.809V124.135H257.742V111.953ZM268.775 115.221C268.775 115.941 268.924 116.656 269.22 117.367C269.516 118.074 269.915 118.702 270.416 119.254C270.922 119.805 271.473 120.215 272.07 120.484L271.414 121.332C270.717 120.995 270.088 120.487 269.527 119.808C268.967 119.124 268.541 118.352 268.249 117.49C267.971 118.406 267.549 119.227 266.984 119.951C266.419 120.676 265.781 121.218 265.07 121.578L264.387 120.676C264.988 120.402 265.542 119.981 266.048 119.411C266.554 118.841 266.955 118.19 267.251 117.456C267.552 116.718 267.704 115.973 267.709 115.221V113.006H268.775V115.221ZM273.396 111.953H274.477V124.135H273.396V111.953ZM282.611 113.744C282.611 114.41 282.835 115.05 283.281 115.665C283.728 116.28 284.298 116.804 284.99 117.237C285.688 117.666 286.394 117.946 287.109 118.078L286.617 118.98C285.993 118.835 285.38 118.598 284.778 118.27C284.181 117.941 283.644 117.536 283.165 117.053C282.687 116.57 282.32 116.041 282.064 115.467C281.809 116.041 281.442 116.57 280.964 117.053C280.485 117.531 279.945 117.937 279.344 118.27C278.747 118.598 278.136 118.835 277.512 118.98L277.02 118.078C277.735 117.941 278.437 117.659 279.125 117.23C279.818 116.802 280.385 116.28 280.827 115.665C281.269 115.05 281.49 114.41 281.49 113.744V112.814H282.611V113.744ZM276.555 121.564H287.684V122.453H276.555V121.564ZM293.863 113.648H290.254V115.152H293.357V116H290.254V117.654C291.161 117.65 291.92 117.627 292.53 117.586C293.146 117.54 293.772 117.458 294.41 117.34L294.52 118.201C293.845 118.329 293.182 118.415 292.53 118.461C291.883 118.502 291.038 118.525 289.994 118.529H289.229V112.746H293.863V113.648ZM290.951 119.842H298.977V123.943H290.951V119.842ZM297.924 123.068V120.717H292.004V123.068H297.924ZM293.932 115.016H295.572V112.172H296.611V119.172H295.572V115.904H293.932V115.016ZM297.951 111.953H298.977V119.281H297.951V111.953ZM83.0293 129.172C83.9271 129.172 84.6973 129.254 85.3398 129.418C85.9824 129.577 86.4723 129.814 86.8096 130.129C87.1514 130.439 87.3223 130.817 87.3223 131.264C87.3223 131.719 87.1514 132.107 86.8096 132.426C86.4723 132.745 85.9824 132.986 85.3398 133.15C84.7018 133.31 83.9316 133.392 83.0293 133.396C82.1224 133.392 81.3477 133.31 80.7051 133.15C80.0625 132.986 79.5703 132.745 79.2285 132.426C78.8913 132.107 78.7227 131.719 78.7227 131.264C78.7227 130.817 78.8913 130.439 79.2285 130.129C79.5703 129.814 80.0625 129.577 80.7051 129.418C81.3522 129.254 82.127 129.172 83.0293 129.172ZM77.4922 134.217H88.5664V135.092H77.4922V134.217ZM78.832 136.145H87.1445V138.865H79.9258V140.123H87.5137V140.971H78.8594V138.072H86.0918V136.965H78.832V136.145ZM79.8438 131.264C79.8392 131.683 80.1149 132.007 80.6709 132.234C81.2269 132.462 82.013 132.576 83.0293 132.576C84.041 132.576 84.8249 132.465 85.3809 132.241C85.9414 132.013 86.224 131.688 86.2285 131.264C86.2285 130.999 86.1009 130.771 85.8457 130.58C85.5951 130.389 85.2282 130.241 84.7451 130.136C84.2666 130.031 83.6947 129.979 83.0293 129.979C82.3594 129.979 81.7852 130.031 81.3066 130.136C80.8281 130.241 80.4635 130.389 80.2129 130.58C79.9622 130.771 79.8392 130.999 79.8438 131.264ZM103.182 135.242H102.102V132.084H99.3945V131.195H102.102V128.953H103.182V135.242ZM93.0918 134.408C93.6979 134.208 94.2334 133.914 94.6982 133.526C95.1676 133.134 95.5322 132.679 95.792 132.159C96.0563 131.635 96.1908 131.081 96.1953 130.498V129.35H97.248V130.498C97.2435 131.022 97.3688 131.526 97.624 132.009C97.8792 132.492 98.237 132.92 98.6973 133.294C99.1576 133.663 99.6816 133.943 100.27 134.135L99.6953 134.969C99.0208 134.727 98.4261 134.376 97.9111 133.916C97.3962 133.456 97.0042 132.918 96.7354 132.303C96.4756 132.995 96.0814 133.599 95.5527 134.114C95.0241 134.625 94.3997 135.01 93.6797 135.27L93.0918 134.408ZM95.3066 135.857H103.182V138.756H96.3867V140.082H103.633V140.943H95.334V137.936H102.115V136.719H95.3066V135.857ZM115.609 141.107H114.584V128.953H115.609V141.107ZM105.191 137.703C106.49 136.938 107.484 136.021 108.172 134.955C108.865 133.884 109.266 132.699 109.375 131.4H105.738V130.512H110.441C110.441 131.136 110.387 131.747 110.277 132.344H112.123V129.281H113.148V140.492H112.123V136.281H109.867V135.393H112.123V133.232H110.065C109.765 134.294 109.266 135.267 108.568 136.151C107.871 137.035 106.964 137.812 105.848 138.482L105.191 137.703ZM126.711 133.971H128.748V134.859H126.711V141.107H125.645V128.953H126.711V133.971ZM117.236 130.908H120.367V129.104H121.434V130.908H124.469V131.797H117.236V130.908ZM117.934 135.598C117.934 135.06 118.061 134.579 118.316 134.155C118.572 133.731 118.925 133.401 119.376 133.164C119.832 132.927 120.344 132.809 120.914 132.809C121.479 132.809 121.987 132.927 122.438 133.164C122.89 133.401 123.243 133.731 123.498 134.155C123.758 134.579 123.89 135.06 123.895 135.598C123.89 136.14 123.758 136.623 123.498 137.047C123.243 137.466 122.89 137.794 122.438 138.031C121.987 138.268 121.479 138.387 120.914 138.387C120.344 138.387 119.832 138.268 119.376 138.031C118.925 137.794 118.572 137.466 118.316 137.047C118.061 136.623 117.934 136.14 117.934 135.598ZM118.959 135.598C118.959 135.962 119.041 136.288 119.205 136.575C119.374 136.858 119.606 137.079 119.902 137.238C120.203 137.398 120.54 137.475 120.914 137.471C121.283 137.475 121.616 137.398 121.912 137.238C122.208 137.079 122.441 136.858 122.609 136.575C122.778 136.288 122.865 135.962 122.869 135.598C122.865 135.238 122.778 134.914 122.609 134.627C122.441 134.335 122.208 134.11 121.912 133.95C121.616 133.791 121.283 133.711 120.914 133.711C120.54 133.711 120.203 133.791 119.902 133.95C119.606 134.11 119.374 134.335 119.205 134.627C119.041 134.914 118.959 135.238 118.959 135.598ZM139.152 131.4V131.551C139.143 132.558 139.111 133.458 139.057 134.251C139.007 135.044 138.888 135.962 138.701 137.006L137.607 136.883C137.749 136.163 137.851 135.486 137.915 134.853C137.983 134.215 138.024 133.652 138.038 133.164C138.056 132.676 138.068 132.089 138.072 131.4V131.072H130.58V130.184H139.152V131.4ZM129.404 138.496H133.752V134.148H134.805V138.496H140.479V139.385H129.404V138.496ZM149.078 130.922C149.078 131.464 149.206 131.988 149.461 132.494C149.721 132.995 150.078 133.438 150.534 133.82C150.994 134.203 151.516 134.495 152.1 134.695L151.512 135.543C150.842 135.297 150.252 134.935 149.741 134.456C149.235 133.973 148.848 133.412 148.579 132.774C148.319 133.494 147.927 134.123 147.403 134.661C146.879 135.199 146.262 135.607 145.551 135.885L144.977 135.023C145.578 134.8 146.109 134.479 146.569 134.06C147.03 133.64 147.387 133.155 147.643 132.604C147.898 132.048 148.025 131.46 148.025 130.84V129.582H149.078V130.922ZM146.59 138.865C146.59 138.405 146.752 138.011 147.075 137.683C147.399 137.35 147.864 137.097 148.47 136.924C149.076 136.751 149.794 136.664 150.623 136.664C151.452 136.664 152.166 136.751 152.763 136.924C153.364 137.097 153.825 137.35 154.144 137.683C154.467 138.011 154.629 138.405 154.629 138.865C154.629 139.335 154.469 139.733 154.15 140.062C153.831 140.394 153.371 140.647 152.77 140.82C152.168 140.993 151.452 141.08 150.623 141.08C149.789 141.08 149.069 140.993 148.463 140.82C147.861 140.647 147.399 140.394 147.075 140.062C146.752 139.729 146.59 139.33 146.59 138.865ZM147.67 138.865C147.665 139.148 147.782 139.392 148.019 139.597C148.256 139.802 148.595 139.959 149.037 140.068C149.484 140.178 150.012 140.232 150.623 140.232C151.234 140.232 151.76 140.178 152.202 140.068C152.649 139.959 152.991 139.802 153.228 139.597C153.469 139.392 153.59 139.148 153.59 138.865C153.59 138.592 153.469 138.355 153.228 138.154C152.991 137.949 152.649 137.794 152.202 137.689C151.756 137.58 151.229 137.525 150.623 137.525C150.017 137.525 149.491 137.58 149.044 137.689C148.597 137.799 148.256 137.954 148.019 138.154C147.782 138.355 147.665 138.592 147.67 138.865ZM153.453 128.953H154.52V132.125H156.352V133.027H154.52V136.35H153.453V128.953ZM160.727 132.412C160.727 133.064 160.829 133.713 161.034 134.36C161.239 135.003 161.533 135.591 161.916 136.124C162.303 136.657 162.759 137.079 163.283 137.389L162.668 138.223C162.094 137.876 161.597 137.398 161.178 136.787C160.763 136.176 160.446 135.491 160.228 134.729C160 135.554 159.665 136.295 159.223 136.951C158.781 137.607 158.261 138.118 157.664 138.482L156.98 137.676C157.527 137.357 158.006 136.922 158.416 136.37C158.826 135.814 159.141 135.197 159.359 134.518C159.578 133.839 159.688 133.15 159.688 132.453V130.102H160.727V132.412ZM161.943 133.314H164.008V129.213H165.02V140.492H164.008V134.23H161.943V133.314ZM166.496 128.953H167.535V141.107H166.496V128.953ZM182.807 138.031H181.727V135.092H178.459V134.203H181.727V132.357H178.623C178.199 133.31 177.538 134.144 176.641 134.859C175.743 135.575 174.667 136.135 173.414 136.541L172.936 135.68C173.893 135.365 174.733 134.966 175.458 134.483C176.187 134 176.768 133.447 177.201 132.822C177.634 132.193 177.889 131.519 177.967 130.799H173.537V129.91H179.143C179.143 130.434 179.074 130.958 178.938 131.482H181.727V128.967H182.807V138.031ZM175.068 137.129H176.162V139.945H183.121V140.848H175.068V137.129ZM189.055 131.195C189.055 131.715 189.18 132.221 189.431 132.713C189.681 133.205 190.035 133.643 190.49 134.025C190.946 134.408 191.465 134.7 192.049 134.9L191.488 135.748C190.809 135.502 190.212 135.137 189.697 134.654C189.187 134.171 188.802 133.615 188.542 132.986C188.278 133.684 187.874 134.301 187.332 134.839C186.794 135.372 186.165 135.771 185.445 136.035L184.885 135.188C185.477 134.973 186.008 134.663 186.478 134.258C186.947 133.848 187.314 133.378 187.578 132.85C187.842 132.321 187.975 131.774 187.975 131.209V130.676H185.227V129.801H191.775V130.676H189.055V131.195ZM186.73 136.883H194.906V141.107H193.826V137.771H186.73V136.883ZM191.393 132.139H193.826V128.953H194.906V136.24H193.826V133.041H191.393V132.139ZM202.467 129.172C203.365 129.172 204.135 129.254 204.777 129.418C205.42 129.577 205.91 129.814 206.247 130.129C206.589 130.439 206.76 130.817 206.76 131.264C206.76 131.719 206.589 132.107 206.247 132.426C205.91 132.745 205.42 132.986 204.777 133.15C204.139 133.31 203.369 133.392 202.467 133.396C201.56 133.392 200.785 133.31 200.143 133.15C199.5 132.986 199.008 132.745 198.666 132.426C198.329 132.107 198.16 131.719 198.16 131.264C198.16 130.817 198.329 130.439 198.666 130.129C199.008 129.814 199.5 129.577 200.143 129.418C200.79 129.254 201.564 129.172 202.467 129.172ZM196.93 134.217H208.004V135.092H196.93V134.217ZM198.27 136.145H206.582V138.865H199.363V140.123H206.951V140.971H198.297V138.072H205.529V136.965H198.27V136.145ZM199.281 131.264C199.277 131.683 199.552 132.007 200.108 132.234C200.664 132.462 201.451 132.576 202.467 132.576C203.479 132.576 204.262 132.465 204.818 132.241C205.379 132.013 205.661 131.688 205.666 131.264C205.666 130.999 205.538 130.771 205.283 130.58C205.033 130.389 204.666 130.241 204.183 130.136C203.704 130.031 203.132 129.979 202.467 129.979C201.797 129.979 201.223 130.031 200.744 130.136C200.266 130.241 199.901 130.389 199.65 130.58C199.4 130.771 199.277 130.999 199.281 131.264ZM222.934 141.107H221.908V128.953H222.934V141.107ZM212.393 137.867C212.944 137.539 213.423 137.09 213.828 136.521C214.234 135.946 214.544 135.306 214.758 134.6C214.972 133.889 215.077 133.164 215.072 132.426V131.277H212.734V130.389H218.34V131.277H216.111V132.426C216.111 133.132 216.214 133.82 216.419 134.49C216.629 135.16 216.929 135.766 217.321 136.309C217.718 136.851 218.189 137.279 218.736 137.594L218.08 138.387C217.492 138.036 216.989 137.55 216.569 136.931C216.15 136.306 215.831 135.6 215.612 134.812C215.389 135.668 215.059 136.434 214.621 137.108C214.188 137.778 213.673 138.3 213.076 138.674L212.393 137.867ZM217.41 133.342H219.461V129.254H220.473V140.479H219.461V134.217H217.41V133.342ZM230.139 136.637C231.005 136.637 231.757 136.726 232.395 136.903C233.037 137.076 233.532 137.332 233.878 137.669C234.229 138.002 234.404 138.4 234.404 138.865C234.404 139.326 234.229 139.722 233.878 140.055C233.532 140.387 233.037 140.64 232.395 140.813C231.757 140.991 231.005 141.08 230.139 141.08C229.273 141.08 228.519 140.991 227.876 140.813C227.238 140.64 226.746 140.387 226.399 140.055C226.058 139.722 225.887 139.326 225.887 138.865C225.887 138.4 226.058 138.002 226.399 137.669C226.746 137.332 227.238 137.076 227.876 136.903C228.519 136.726 229.273 136.637 230.139 136.637ZM224.656 134.627H229.236V132.275H230.289V134.627H235.717V135.502H224.656V134.627ZM225.969 129.582H234.309V130.607C234.304 131.277 234.284 131.845 234.247 132.31C234.211 132.77 234.117 133.278 233.967 133.834L232.914 133.711C233.06 133.155 233.151 132.656 233.188 132.214C233.224 131.767 233.242 131.232 233.242 130.607V130.457H225.969V129.582ZM226.953 138.865C226.953 139.143 227.083 139.387 227.343 139.597C227.603 139.802 227.972 139.959 228.45 140.068C228.933 140.178 229.496 140.232 230.139 140.232C230.781 140.232 231.342 140.178 231.82 140.068C232.303 139.959 232.675 139.802 232.935 139.597C233.199 139.387 233.333 139.143 233.338 138.865C233.333 138.578 233.199 138.33 232.935 138.12C232.675 137.91 232.303 137.749 231.82 137.635C231.342 137.516 230.781 137.457 230.139 137.457C229.496 137.457 228.933 137.516 228.45 137.635C227.972 137.749 227.603 137.91 227.343 138.12C227.083 138.33 226.953 138.578 226.953 138.865ZM246.244 132.07H248.076V132.986H246.244V136.021H245.178V128.953H246.244V132.07ZM236.77 130.211H239.859V128.844H240.926V130.211H244.016V131.1H236.77V130.211ZM237.467 133.793C237.467 133.365 237.588 132.991 237.829 132.672C238.071 132.348 238.412 132.1 238.854 131.927C239.297 131.749 239.809 131.66 240.393 131.66C240.971 131.66 241.479 131.749 241.917 131.927C242.359 132.1 242.701 132.348 242.942 132.672C243.188 132.991 243.314 133.365 243.318 133.793C243.314 134.221 243.188 134.597 242.942 134.921C242.701 135.244 242.359 135.493 241.917 135.666C241.475 135.839 240.967 135.926 240.393 135.926C239.809 135.926 239.297 135.839 238.854 135.666C238.412 135.493 238.071 135.244 237.829 134.921C237.588 134.597 237.467 134.221 237.467 133.793ZM238.492 133.793C238.492 134.053 238.57 134.283 238.725 134.483C238.88 134.679 239.101 134.832 239.388 134.941C239.679 135.051 240.014 135.105 240.393 135.105C240.766 135.105 241.097 135.051 241.384 134.941C241.675 134.832 241.901 134.679 242.061 134.483C242.22 134.283 242.302 134.053 242.307 133.793C242.302 133.533 242.218 133.305 242.054 133.109C241.894 132.909 241.671 132.756 241.384 132.651C241.097 132.542 240.766 132.49 240.393 132.494C240.014 132.49 239.682 132.542 239.395 132.651C239.107 132.756 238.884 132.909 238.725 133.109C238.57 133.305 238.492 133.533 238.492 133.793ZM238.561 136.555H239.627V137.854H245.178V136.555H246.244V140.943H238.561V136.555ZM245.178 140.082V138.701H239.627V140.082H245.178ZM258.863 141.107H257.797V128.953H258.863V141.107ZM249.635 130.156H250.688V137.047C251.69 137.038 252.668 136.99 253.62 136.903C254.573 136.812 255.532 136.664 256.498 136.459L256.648 137.375C255.614 137.589 254.607 137.744 253.627 137.84C252.652 137.931 251.649 137.977 250.619 137.977H249.635V130.156ZM270.348 133.766H272.385V134.668H270.348V141.135H269.281V128.953H270.348V133.766ZM261.475 130.143H267.148V131.031H262.541V137.184C263.689 137.179 264.685 137.145 265.528 137.081C266.371 137.017 267.23 136.906 268.105 136.746L268.242 137.676C267.34 137.84 266.456 137.949 265.59 138.004C264.729 138.059 263.676 138.086 262.432 138.086H261.475V130.143ZM274.326 140.082C274.167 140.082 274.019 140.041 273.882 139.959C273.75 139.877 273.643 139.77 273.561 139.638C273.483 139.501 273.447 139.353 273.451 139.193C273.447 139.038 273.483 138.895 273.561 138.763C273.643 138.626 273.75 138.519 273.882 138.441C274.019 138.359 274.167 138.318 274.326 138.318C274.481 138.318 274.625 138.357 274.757 138.435C274.894 138.512 275.001 138.617 275.078 138.749C275.16 138.881 275.201 139.025 275.201 139.18C275.201 139.426 275.117 139.638 274.948 139.815C274.78 139.989 274.572 140.077 274.326 140.082Z" fill="#737373"/>
<path d="M93.1768 39.9776L96.6878 36.4424L93.9534 33.6834L93.0002 34.6366C92.7809 34.8559 92.5094 34.9721 92.1856 34.9853C91.8621 34.9985 91.5775 34.8823 91.3318 34.6366C91.0861 34.3909 90.9633 34.1088 90.9633 33.7903C90.9633 33.4715 91.0861 33.1893 91.3318 32.9436L92.2604 32.015L89.8245 29.579L86.2893 33.1142L93.1768 39.9776ZM105.871 52.6957L109.406 49.1605L106.97 46.7245L106.017 47.6536C105.782 47.889 105.506 48.0092 105.19 48.0142C104.875 48.0192 104.594 47.899 104.348 47.6536C104.103 47.4079 103.98 47.1297 103.98 46.8191C103.98 46.5086 104.103 46.2304 104.348 45.9847L105.277 45.032L102.534 42.3126L99.0228 45.8236L105.871 52.6957ZM85.973 54.4587C85.5648 54.4587 85.2242 54.3222 84.9514 54.049C84.6782 53.7762 84.5417 53.4356 84.5417 53.0274V49.1942C84.5417 49.0034 84.5762 48.8217 84.6454 48.6491C84.7142 48.4765 84.8228 48.3162 84.9711 48.1681L91.4842 41.6551L84.301 34.4569C83.9337 34.0895 83.75 33.642 83.75 33.1142C83.75 32.5864 83.9337 32.1389 84.301 31.7715L88.4818 27.5908C88.8491 27.2234 89.2967 27.0438 89.8245 27.052C90.3522 27.0599 90.7998 27.2477 91.1671 27.6153L98.4049 34.8131L104.93 28.2637C105.176 28.018 105.446 27.8363 105.74 27.7186C106.034 27.6009 106.342 27.5421 106.663 27.5421C106.983 27.5421 107.291 27.6009 107.585 27.7186C107.88 27.8363 108.15 28.018 108.395 28.2637L110.737 30.6755C110.982 30.9209 111.161 31.1909 111.274 31.4854C111.387 31.7796 111.443 32.087 111.443 32.4076C111.443 32.7285 111.387 33.0295 111.274 33.3105C111.161 33.5916 110.982 33.8549 110.737 34.1006L104.242 40.635L111.41 47.8333C111.777 48.2006 111.961 48.6482 111.961 49.1759C111.961 49.7037 111.777 50.1513 111.41 50.5186L107.229 54.6994C106.862 55.0667 106.414 55.2504 105.886 55.2504C105.358 55.2504 104.911 55.0667 104.544 54.6994L97.3453 47.5162L90.8323 54.0293C90.6842 54.1776 90.5239 54.2862 90.3513 54.355C90.1787 54.4242 89.997 54.4587 89.8063 54.4587H85.973ZM86.9167 52.0837H89.3922L104.924 36.5762L102.424 34.0765L86.9167 49.6082V52.0837ZM103.694 35.3309L102.424 34.0765L104.924 36.5762L103.694 35.3309Z" fill="#144D6E"/>
</svg>
