<svg width="432" height="107" viewBox="0 0 432 107" fill="none" xmlns="http://www.w3.org/2000/svg">
<path d="M172 2.5H260" stroke="#1DB8CE" stroke-width="5"/>
<path d="M83.3281 31.8125H80.1641V47.3203C81.7526 47.1901 83.1589 47.0469 84.3828 46.8906L84.6562 50.4844C81.4271 51.0443 78.0612 51.4219 74.5586 51.6172C71.056 51.7995 67.2474 51.9036 63.1328 51.9297L62.5859 47.8672C64.3438 47.8672 65.6979 47.8607 66.6484 47.8477V31.8125H63.4844V27.8281H83.3281V31.8125ZM71.4531 47.7695C72.3125 47.7435 73.6146 47.6914 75.3594 47.6133V31.8125H71.4531V47.7695ZM86.1016 24.5469H91.1016V38.0625H96.3359V42.125H91.1016V60.0938H86.1016V24.5469ZM125.828 34.7812H130.633V38.9609H125.828V50.7578H120.828V24.5859H125.828V34.7812ZM98.875 26.7344H115.203V37.8672H103.875V41.6172C106.896 41.6042 109.493 41.5195 111.668 41.3633C113.855 41.207 116.049 40.9271 118.25 40.5234L118.797 44.5469C116.414 44.9896 113.999 45.2826 111.551 45.4258C109.103 45.569 105.893 45.6406 101.922 45.6406H98.9141V34.1172H110.359V30.7188H98.875V26.7344ZM102.898 48.6484H107.938V55.4844H127.195V59.4688H102.898V48.6484ZM133.523 28.2188H152.508V33.0625H139.383V39.9375H151.531V44.7812H139.383V51.6562H152.547V56.5H133.523V28.2188ZM180.672 56.5H175.594L163.172 38.5312H162.938V56.5H157.078V28.2188H162.234L174.578 46.1875H174.852V28.2188H180.672V56.5ZM204.227 37.3203C203.823 35.9792 203.1 34.931 202.059 34.1758C201.017 33.4206 199.734 33.0365 198.211 33.0234C196.753 33.0365 195.47 33.4076 194.363 34.1367C193.257 34.8659 192.397 35.9271 191.785 37.3203C191.173 38.7135 190.867 40.3802 190.867 42.3203C190.867 44.2865 191.167 45.9727 191.766 47.3789C192.365 48.7852 193.217 49.8529 194.324 50.582C195.431 51.3112 196.74 51.6823 198.25 51.6953C199.578 51.6953 200.724 51.4544 201.688 50.9727C202.664 50.4909 203.413 49.8138 203.934 48.9414C204.467 48.056 204.747 47.0208 204.773 45.8359H198.641V41.4219H210.438V44.9375C210.438 47.3724 209.917 49.4948 208.875 51.3047C207.846 53.1016 206.401 54.4818 204.539 55.4453C202.69 56.4089 200.581 56.8906 198.211 56.8906C195.581 56.8906 193.257 56.3047 191.238 55.1328C189.233 53.9479 187.671 52.2682 186.551 50.0938C185.444 47.9062 184.891 45.3411 184.891 42.3984C184.891 39.4167 185.464 36.8255 186.609 34.625C187.755 32.4245 189.331 30.7448 191.336 29.5859C193.341 28.4141 195.594 27.8281 198.094 27.8281C200.19 27.8281 202.111 28.2318 203.855 29.0391C205.6 29.8464 207.02 30.9727 208.113 32.418C209.22 33.8503 209.904 35.4844 210.164 37.3203H204.227ZM255.047 45.1328H241.297V48.1797H251.18V59.7031H226.375V48.1797H236.336V45.1328H222.625V41.1875H255.047V45.1328ZM225.477 25.5234H252.156V29.5078H247.508V34.9375H251.922V38.9219H225.711V34.9375H230.086V29.5078H225.477V25.5234ZM246.297 55.7188V52.0469H231.297V55.7188H246.297ZM242.508 34.9375V29.5078H235.086V34.9375H242.508ZM286.922 42.7891H281.961V24.5469H286.922V42.7891ZM257.352 39.2344C259.135 38.7396 260.646 38.0299 261.883 37.1055C263.133 36.181 264.09 35.1263 264.754 33.9414C265.431 32.7435 265.828 31.487 265.945 30.1719H258.68V26.1875H278.211V30.1719H271.102C271.219 31.3828 271.603 32.5482 272.254 33.668C272.918 34.7747 273.862 35.7643 275.086 36.6367C276.323 37.4961 277.82 38.1536 279.578 38.6094L277.195 42.4375C275.19 41.8906 273.465 41.0508 272.02 39.918C270.574 38.7852 269.441 37.4375 268.621 35.875C267.788 37.6198 266.609 39.1237 265.086 40.3867C263.576 41.6367 261.753 42.5677 259.617 43.1797L257.352 39.2344ZM263.094 44.1953H286.961V53.6875H268.055V56.0312H287.938V59.8594H263.172V50.1328H282V47.9844H263.094V44.1953ZM333.523 55.9531H300.984V51.8906H314.695V45.3281H304.422V26.8125H309.422V32.3203H324.93V26.8125H329.891V45.3281H319.656V51.8906H333.523V55.9531ZM324.93 41.3438V36.3047H309.422V41.3438H324.93ZM367.977 44.9375H335.555V40.9141H367.977V44.9375ZM337 35.7188C339.135 35.5234 340.991 35.1523 342.566 34.6055C344.155 34.0586 345.411 33.401 346.336 32.6328C347.26 31.8646 347.866 31.0443 348.152 30.1719H338.523V26.1875H365.047V30.1719H355.34C355.613 31.0312 356.212 31.8451 357.137 32.6133C358.074 33.3815 359.337 34.0456 360.926 34.6055C362.527 35.1523 364.422 35.5234 366.609 35.7188L364.852 39.625C361.57 39.3125 358.803 38.5768 356.551 37.418C354.311 36.2461 352.703 34.7747 351.727 33.0039C350.763 34.7747 349.161 36.2461 346.922 37.418C344.695 38.5768 341.935 39.3125 338.641 39.625L337 35.7188ZM339.266 53.5312C339.266 52.151 339.76 50.9661 340.75 49.9766C341.753 48.987 343.185 48.2318 345.047 47.7109C346.922 47.1901 349.148 46.9297 351.727 46.9297C354.292 46.9297 356.499 47.1901 358.348 47.7109C360.197 48.2318 361.616 48.987 362.605 49.9766C363.595 50.9661 364.096 52.151 364.109 53.5312C364.096 54.9245 363.595 56.1094 362.605 57.0859C361.616 58.0755 360.197 58.8242 358.348 59.332C356.499 59.8398 354.292 60.0938 351.727 60.0938C349.148 60.0938 346.922 59.8398 345.047 59.332C343.185 58.8242 341.753 58.0755 340.75 57.0859C339.76 56.1094 339.266 54.9245 339.266 53.5312ZM344.344 53.5312C344.331 54.4427 344.936 55.1198 346.16 55.5625C347.397 56.0052 349.253 56.2266 351.727 56.2266C356.635 56.2266 359.096 55.3281 359.109 53.5312C359.096 51.7083 356.635 50.7969 351.727 50.7969C349.253 50.7969 347.397 51.0247 346.16 51.4805C344.936 51.9232 344.331 52.6068 344.344 53.5312Z" fill="black"/>
<path d="M14.8086 89.0586C14.8021 90.0677 14.7858 90.9303 14.7598 91.6465C14.7402 92.3561 14.6816 93.1862 14.584 94.1367C14.4928 95.0872 14.3464 96.1159 14.1445 97.2227L12.2695 97.0273C12.4779 95.9792 12.6309 94.9928 12.7285 94.0684C12.8262 93.1374 12.8848 92.3171 12.9043 91.6074C12.9303 90.8978 12.9466 90.0482 12.9531 89.0586V88.8438H2.32812V87.3398H14.8086V89.0586ZM0.648438 99.2539H6.72266V93.082H8.55859V99.2539H16.6055V100.797H0.648438V99.2539ZM32.8555 95.9727H31.0977V91.4805H28.9883V95.875H27.2305V85.9922H28.9883V89.9375H31.0977V85.6797H32.8555V95.9727ZM17.9336 94.7422C19.6849 94.0521 21.0423 93.1764 22.0059 92.1152C22.9759 91.0475 23.5423 89.8203 23.7051 88.4336H18.6953V86.9297H25.5898C25.5898 89.0521 25.0234 90.8848 23.8906 92.4277C22.7578 93.9642 21.0716 95.1979 18.832 96.1289L17.9336 94.7422ZM20.9023 96.7344H32.8555V103.16H31.0195V98.2383H20.9023V96.7344ZM40.9219 86.9102C41.8333 86.9102 42.6504 87.0859 43.373 87.4375C44.0957 87.7826 44.6621 88.2741 45.0723 88.9121C45.4824 89.5436 45.6875 90.263 45.6875 91.0703C45.6875 91.8776 45.4824 92.6003 45.0723 93.2383C44.6621 93.8698 44.0957 94.3646 43.373 94.7227C42.6504 95.0742 41.8333 95.25 40.9219 95.25C40.0104 95.25 39.1901 95.0742 38.4609 94.7227C37.7383 94.3646 37.1719 93.8698 36.7617 93.2383C36.3581 92.6003 36.1562 91.8776 36.1562 91.0703C36.1562 90.263 36.3581 89.5436 36.7617 88.9121C37.1719 88.2806 37.7383 87.7891 38.4609 87.4375C39.1901 87.0859 40.0104 86.9102 40.9219 86.9102ZM35.3164 97.8867C37.5169 97.8867 39.5482 97.8509 41.4102 97.7793C43.2721 97.7077 45.0495 97.5482 46.7422 97.3008L46.8789 98.6484C45.1341 98.987 43.36 99.2018 41.5566 99.293C39.7598 99.3841 37.7578 99.4297 35.5508 99.4297L35.3164 97.8867ZM37.9922 91.0703C37.9857 91.5781 38.1061 92.0273 38.3535 92.418C38.6074 92.8021 38.9557 93.1016 39.3984 93.3164C39.8477 93.5247 40.3555 93.6289 40.9219 93.6289C41.4883 93.6289 41.9928 93.5247 42.4355 93.3164C42.8848 93.1016 43.2363 92.8021 43.4902 92.418C43.7441 92.0273 43.8711 91.5781 43.8711 91.0703C43.8711 90.569 43.7441 90.1263 43.4902 89.7422C43.2363 89.3516 42.8848 89.0488 42.4355 88.834C41.9863 88.6191 41.4818 88.5117 40.9219 88.5117C40.3555 88.5117 39.8477 88.6191 39.3984 88.834C38.9557 89.0488 38.6074 89.3516 38.3535 89.7422C38.1061 90.1263 37.9857 90.569 37.9922 91.0703ZM47.8359 85.6602H49.6914V103.199H47.8359V85.6602ZM71.8984 98.4922H70.043V85.6797H71.8984V98.4922ZM57.4844 94.5469C58.3828 94.2148 59.1608 93.7331 59.8184 93.1016C60.4759 92.4701 60.9772 91.7441 61.3223 90.9238C61.6738 90.1035 61.8529 89.2539 61.8594 88.375V86.6367H63.7539V88.375C63.7539 89.2279 63.9264 90.0417 64.2715 90.8164C64.6165 91.5911 65.1146 92.2747 65.7656 92.8672C66.4167 93.4596 67.1849 93.9089 68.0703 94.2148L67.1133 95.6992C66.1107 95.3281 65.2415 94.7878 64.5059 94.0781C63.7767 93.362 63.2135 92.5254 62.8164 91.5684C62.4258 92.597 61.8561 93.4987 61.1074 94.2734C60.3652 95.0417 59.4896 95.6211 58.4805 96.0117L57.4844 94.5469ZM60.4531 97.2812H62.3281V101.285H72.4258V102.789H60.4531V97.2812ZM84.9062 92.0664H77.875V94.0391H85.3555V95.5039H81.4492V98.1797C83.3047 98.1016 84.8867 97.9909 86.1953 97.8477L86.332 99.2148C83.5521 99.638 80.1829 99.8496 76.2246 99.8496L75.0039 99.8398L74.7695 98.2969C76.5859 98.2969 78.2005 98.2806 79.6133 98.248V95.5039H76.0195V90.6797H83.0703V88.7266H76V87.2422H84.9062V92.0664ZM87.2891 85.6602H89.1445V103.199H87.2891V85.6602ZM107.953 95.1133H91.9375V93.6875H107.953V95.1133ZM93.832 96.3438H105.98V100.191H95.707V101.637H106.527V102.945H93.8516V98.9609H104.145V97.6719H93.832V96.3438ZM93.9492 86.1094H105.941V89.8984H95.8242V91.2266H106.234V92.5352H93.9883V88.668H104.086V87.418H93.9492V86.1094ZM120.902 97.9844C122.706 97.8867 124.288 97.737 125.648 97.5352L125.785 98.9023C124.04 99.2279 122.26 99.4362 120.443 99.5273C118.627 99.6185 116.632 99.6641 114.457 99.6641L114.223 98.1406C116.319 98.1276 117.927 98.1016 119.047 98.0625V94.957H120.902V97.9844ZM114.691 94.1172C115.551 93.8698 116.299 93.5117 116.938 93.043C117.582 92.5742 118.083 92.0273 118.441 91.4023C118.799 90.7773 118.995 90.1068 119.027 89.3906H115.16V87.8867H119.047V85.7969H120.902V87.8867H124.828V89.3906H120.902C120.935 90.0742 121.133 90.7188 121.498 91.3242C121.863 91.9232 122.367 92.4473 123.012 92.8965C123.663 93.3457 124.418 93.6875 125.277 93.9219L124.418 95.3672C123.383 95.0742 122.481 94.6217 121.713 94.0098C120.951 93.3978 120.372 92.6751 119.975 91.8418C119.59 92.7272 119.021 93.4889 118.266 94.127C117.51 94.765 116.612 95.2305 115.57 95.5234L114.691 94.1172ZM126.742 85.6602H128.598V103.199H126.742V85.6602ZM147.406 97.1445H140.258V103.16H138.441V97.1445H131.391V95.6016H147.406V97.1445ZM133.129 90.2109C133.129 89.4297 133.389 88.7461 133.91 88.1602C134.438 87.5677 135.17 87.1152 136.107 86.8027C137.045 86.4837 138.129 86.3242 139.359 86.3242C140.59 86.3242 141.674 86.4837 142.611 86.8027C143.555 87.1152 144.288 87.5677 144.809 88.1602C145.329 88.7461 145.59 89.4297 145.59 90.2109C145.59 90.9857 145.329 91.6628 144.809 92.2422C144.288 92.8216 143.555 93.2708 142.611 93.5898C141.674 93.9023 140.59 94.0586 139.359 94.0586C138.135 94.0586 137.051 93.9023 136.107 93.5898C135.17 93.2708 134.438 92.8216 133.91 92.2422C133.389 91.6628 133.129 90.9857 133.129 90.2109ZM135.043 90.2109C135.043 90.6927 135.219 91.1126 135.57 91.4707C135.928 91.8223 136.433 92.0957 137.084 92.291C137.742 92.4798 138.5 92.5742 139.359 92.5742C140.225 92.5742 140.984 92.4798 141.635 92.291C142.286 92.0957 142.79 91.8223 143.148 91.4707C143.513 91.1126 143.695 90.6927 143.695 90.2109C143.695 89.7227 143.513 89.2995 143.148 88.9414C142.79 88.5833 142.286 88.3066 141.635 88.1113C140.984 87.9095 140.225 87.8086 139.359 87.8086C138.5 87.8086 137.742 87.9095 137.084 88.1113C136.433 88.3066 135.928 88.5833 135.57 88.9414C135.219 89.2995 135.043 89.7227 135.043 90.2109ZM154.867 88.8633C154.874 89.6576 155.046 90.4258 155.385 91.168C155.723 91.9036 156.208 92.5579 156.84 93.1309C157.478 93.7038 158.227 94.1432 159.086 94.4492L158.07 95.8945C157.126 95.5299 156.303 95.0026 155.6 94.3125C154.896 93.6224 154.356 92.8216 153.979 91.9102C153.594 92.9323 153.035 93.8242 152.299 94.5859C151.563 95.3411 150.688 95.9141 149.672 96.3047L148.676 94.8398C149.568 94.5208 150.339 94.0586 150.99 93.4531C151.648 92.8411 152.149 92.1348 152.494 91.334C152.846 90.5267 153.025 89.6836 153.031 88.8047V86.7344H154.867V88.8633ZM151.859 97.2617H153.734V101.285H163.676V102.789H151.859V97.2617ZM157.738 89.6641H161.43V85.6797H163.285V98.7266H161.43V91.1875H157.738V89.6641ZM173.949 86.7148C175.167 86.7148 176.267 86.9199 177.25 87.3301C178.233 87.7337 179.005 88.3066 179.564 89.0488C180.131 89.7845 180.414 90.6341 180.414 91.5977C180.414 92.5612 180.131 93.4141 179.564 94.1562C179.005 94.8984 178.233 95.4714 177.25 95.875C176.267 96.2786 175.167 96.4805 173.949 96.4805C172.732 96.4805 171.632 96.2786 170.648 95.875C169.672 95.4714 168.904 94.8984 168.344 94.1562C167.784 93.4141 167.504 92.5612 167.504 91.5977C167.504 90.6406 167.784 89.791 168.344 89.0488C168.904 88.3066 169.672 87.7337 170.648 87.3301C171.632 86.9199 172.732 86.7148 173.949 86.7148ZM165.98 99.3516H181.996V100.895H165.98V99.3516ZM169.281 91.5977C169.281 92.2682 169.48 92.8574 169.877 93.3652C170.281 93.873 170.837 94.2669 171.547 94.5469C172.257 94.8203 173.057 94.957 173.949 94.957C174.841 94.957 175.639 94.8203 176.342 94.5469C177.051 94.2669 177.608 93.873 178.012 93.3652C178.415 92.8574 178.617 92.2682 178.617 91.5977C178.617 90.9336 178.415 90.3444 178.012 89.8301C177.608 89.3158 177.051 88.9186 176.342 88.6387C175.632 88.3587 174.835 88.2188 173.949 88.2188C173.057 88.2188 172.257 88.3587 171.547 88.6387C170.837 88.9186 170.281 89.3158 169.877 89.8301C169.48 90.3444 169.281 90.9336 169.281 91.5977ZM199.281 101.07H183.266V99.5078H190.316V96.4414H185.219V90.875H195.492V88.4141H185.18V86.8906H197.328V92.3594H187.055V94.918H197.738V96.4414H192.152V99.5078H199.281V101.07ZM202.133 105.543H200.473L201.508 100.152H203.695L202.133 105.543ZM226.586 100.973H210.57V99.4297H217.621V95.3867H212.406V87.0664H224.672V95.3867H219.457V99.4297H226.586V100.973ZM222.855 93.9219V88.5508H214.203V93.9219H222.855ZM243.832 95.9141H227.855V94.4297H243.832V95.9141ZM229.848 86.3828H241.859V87.8672H231.703V91.1484H242.035V92.6719H229.848V86.3828ZM229.867 97.6328H231.703V101.266H242.152V102.789H229.867V97.6328ZM256.449 90.1133C256.443 91.168 256.635 92.2064 257.025 93.2285C257.423 94.2507 257.973 95.1589 258.676 95.9531C259.385 96.7409 260.186 97.3333 261.078 97.7305L259.965 99.1953C258.969 98.7201 258.087 98.0169 257.318 97.0859C256.55 96.1549 255.958 95.0872 255.541 93.8828C255.131 95.1849 254.532 96.334 253.744 97.3301C252.963 98.3262 252.055 99.0781 251.02 99.5859L249.887 98.0234C250.792 97.6263 251.599 97.0176 252.309 96.1973C253.018 95.3704 253.572 94.4264 253.969 93.3652C254.372 92.2975 254.574 91.2135 254.574 90.1133V87.125H256.449V90.1133ZM262.66 85.6602H264.516V103.199H262.66V85.6602ZM275.199 96.6562C276.456 96.6562 277.549 96.7865 278.48 97.0469C279.411 97.3008 280.128 97.6719 280.629 98.1602C281.137 98.6484 281.391 99.2279 281.391 99.8984C281.391 100.569 281.137 101.145 280.629 101.627C280.128 102.115 279.411 102.486 278.48 102.74C277.549 102.994 276.456 103.121 275.199 103.121C273.956 103.121 272.868 102.994 271.938 102.74C271.013 102.486 270.3 102.115 269.799 101.627C269.298 101.145 269.047 100.569 269.047 99.8984C269.047 99.2279 269.298 98.6484 269.799 98.1602C270.3 97.6719 271.013 97.3008 271.938 97.0469C272.862 96.7865 273.949 96.6562 275.199 96.6562ZM267.328 93.707H273.715V90.4258H275.531V93.707H283.246V95.2109H267.328V93.707ZM269.184 86.5195H281.254V87.9844V88.502C281.254 89.2572 281.221 89.957 281.156 90.6016C281.098 91.2396 280.967 91.9167 280.766 92.6328L278.949 92.4375C279.158 91.6432 279.288 90.9303 279.34 90.2988C279.392 89.6608 279.418 88.8958 279.418 88.0039H269.184V86.5195ZM270.902 99.8984C270.896 100.27 271.065 100.592 271.41 100.865C271.762 101.132 272.26 101.337 272.904 101.48C273.555 101.624 274.32 101.695 275.199 101.695C276.091 101.695 276.863 101.624 277.514 101.48C278.165 101.337 278.666 101.132 279.018 100.865C279.369 100.592 279.548 100.27 279.555 99.8984C279.548 99.5208 279.369 99.1953 279.018 98.9219C278.666 98.6419 278.165 98.4303 277.514 98.2871C276.863 98.1374 276.091 98.0625 275.199 98.0625C274.32 98.0625 273.555 98.1374 272.904 98.2871C272.26 98.4303 271.762 98.6419 271.41 98.9219C271.065 99.1953 270.896 99.5208 270.902 99.8984ZM299.652 103.16H297.875V85.6602H299.652V103.16ZM284.789 93.2188C284.789 91.9688 284.942 90.8815 285.248 89.957C285.561 89.026 286 88.3132 286.566 87.8184C287.139 87.3171 287.803 87.0664 288.559 87.0664C289.262 87.0664 289.883 87.278 290.424 87.7012C290.971 88.1243 291.407 88.7363 291.732 89.5371C292.064 90.3314 292.266 91.2721 292.338 92.3594H294.32V85.9922H296.098V102.301H294.32V93.8633H292.348C292.296 94.9961 292.107 95.9792 291.781 96.8125C291.456 97.6393 291.016 98.2773 290.463 98.7266C289.91 99.1693 289.275 99.3906 288.559 99.3906C287.803 99.3906 287.139 99.1432 286.566 98.6484C286 98.1471 285.561 97.431 285.248 96.5C284.942 95.5625 284.789 94.4688 284.789 93.2188ZM286.508 93.2188C286.508 94.1367 286.589 94.9277 286.752 95.5918C286.921 96.2559 287.159 96.7637 287.465 97.1152C287.777 97.4603 288.142 97.6328 288.559 97.6328C288.988 97.6328 289.359 97.4603 289.672 97.1152C289.984 96.7637 290.225 96.2559 290.395 95.5918C290.564 94.9277 290.648 94.1367 290.648 93.2188C290.648 92.2943 290.564 91.5033 290.395 90.8457C290.225 90.1816 289.984 89.6771 289.672 89.332C289.359 88.9805 288.988 88.8047 288.559 88.8047C288.142 88.8047 287.777 88.9805 287.465 89.332C287.159 89.6771 286.921 90.1816 286.752 90.8457C286.589 91.5098 286.508 92.3008 286.508 93.2188ZM312.055 89.5078C312.055 90.1719 312.191 90.8132 312.465 91.4316C312.738 92.0501 313.135 92.6003 313.656 93.082C314.184 93.5638 314.809 93.9349 315.531 94.1953L314.652 95.6016C313.845 95.2891 313.152 94.8496 312.572 94.2832C311.993 93.7168 311.544 93.056 311.225 92.3008C310.906 93.1146 310.453 93.834 309.867 94.459C309.281 95.0775 308.572 95.556 307.738 95.8945L306.859 94.5273C307.582 94.2344 308.201 93.8307 308.715 93.3164C309.229 92.8021 309.62 92.2161 309.887 91.5586C310.154 90.901 310.29 90.2174 310.297 89.5078V89.3516H307.25V87.8672H310.297V85.8555H312.055V87.8672H315.062V89.3516H312.055V89.5078ZM309.789 97.2617H321.684V103.16H319.848V98.7656H309.789V97.2617ZM316.156 85.9727H317.934V90.25H319.926V85.6797H321.684V96.3828H319.926V91.7734H317.934V96.3047H316.156V85.9727ZM338.559 95.6406H336.703V85.6797H338.559V95.6406ZM324.398 90.6992C324.398 89.8919 324.6 89.1725 325.004 88.541C325.408 87.9095 325.964 87.4212 326.674 87.0762C327.383 86.7311 328.181 86.5586 329.066 86.5586C329.952 86.5586 330.746 86.7311 331.449 87.0762C332.159 87.4212 332.712 87.9095 333.109 88.541C333.513 89.1725 333.715 89.8919 333.715 90.6992C333.715 91.487 333.513 92.1934 333.109 92.8184C332.712 93.4434 332.159 93.9316 331.449 94.2832C330.746 94.6283 329.952 94.8008 329.066 94.8008C328.181 94.8008 327.383 94.6283 326.674 94.2832C325.964 93.9316 325.408 93.4434 325.004 92.8184C324.6 92.1934 324.398 91.487 324.398 90.6992ZM326.215 90.6992C326.215 91.194 326.335 91.6335 326.576 92.0176C326.817 92.4017 327.156 92.7012 327.592 92.916C328.028 93.1309 328.52 93.2383 329.066 93.2383C329.607 93.2383 330.092 93.1309 330.521 92.916C330.951 92.7012 331.286 92.4017 331.527 92.0176C331.775 91.6335 331.898 91.194 331.898 90.6992C331.898 90.1914 331.775 89.7422 331.527 89.3516C331.286 88.9544 330.951 88.6517 330.521 88.4434C330.092 88.2285 329.607 88.1211 329.066 88.1211C328.52 88.1211 328.028 88.2285 327.592 88.4434C327.156 88.6517 326.817 88.9544 326.576 89.3516C326.335 89.7422 326.215 90.1914 326.215 90.6992ZM327.055 96.5195H338.559V102.945H327.055V96.5195ZM336.742 101.441V98.0039H328.891V101.441H336.742ZM349.301 85.9531C350.616 85.9531 351.739 86.0671 352.67 86.2949C353.601 86.5228 354.314 86.8646 354.809 87.3203C355.303 87.7695 355.551 88.3164 355.551 88.9609C355.551 89.612 355.303 90.1654 354.809 90.6211C354.314 91.0703 353.601 91.4121 352.67 91.6465C351.739 91.8743 350.616 91.9883 349.301 91.9883C347.986 91.9883 346.859 91.8743 345.922 91.6465C344.991 91.4121 344.278 91.0703 343.783 90.6211C343.295 90.1654 343.051 89.612 343.051 88.9609C343.051 88.3164 343.295 87.7695 343.783 87.3203C344.278 86.8646 344.991 86.5228 345.922 86.2949C346.859 86.0671 347.986 85.9531 349.301 85.9531ZM341.332 93.0625H357.289V94.5469H341.332V93.0625ZM343.246 95.8945H355.277V99.9961H345.082V101.559H355.766V102.984H343.266V98.6484H353.441V97.2812H343.246V95.8945ZM344.984 88.9609C344.978 89.5013 345.346 89.9115 346.088 90.1914C346.83 90.4648 347.901 90.6016 349.301 90.6016C350.714 90.6016 351.791 90.4648 352.533 90.1914C353.275 89.9115 353.643 89.5013 353.637 88.9609C353.643 88.4401 353.269 88.0365 352.514 87.75C351.765 87.4635 350.694 87.3203 349.301 87.3203C347.914 87.3203 346.846 87.4635 346.098 87.75C345.349 88.0365 344.978 88.4401 344.984 88.9609ZM377.133 92.4375H379.945V93.9609H377.133V103.199H375.277V85.6602H377.133V92.4375ZM364.242 87.3398H372.426V88.8438H366.098V97.3008C367.647 97.2943 369.008 97.2487 370.18 97.1641C371.352 97.0794 372.536 96.9297 373.734 96.7148L373.969 98.2773C372.732 98.4987 371.518 98.6484 370.326 98.7266C369.141 98.8047 367.732 98.8438 366.098 98.8438H365.648H364.242V87.3398ZM394.535 90.0547H397.074V91.6172H394.535V95.8555H392.68V85.6602H394.535V90.0547ZM380.805 87.3789H385.102V85.5039H386.957V87.3789H391.234V88.8633H380.805V87.3789ZM381.762 92.6523C381.762 92.0404 381.938 91.5033 382.289 91.041C382.641 90.5723 383.139 90.2142 383.783 89.9668C384.434 89.7129 385.18 89.5859 386.02 89.5859C386.853 89.5859 387.589 89.7129 388.227 89.9668C388.871 90.2142 389.369 90.5723 389.721 91.041C390.079 91.5033 390.258 92.0404 390.258 92.6523C390.258 93.2643 390.079 93.8047 389.721 94.2734C389.369 94.7357 388.871 95.0938 388.227 95.3477C387.589 95.6016 386.853 95.7253 386.02 95.7188C385.18 95.7253 384.434 95.6048 383.783 95.3574C383.139 95.1035 382.641 94.7422 382.289 94.2734C381.938 93.8047 381.762 93.2643 381.762 92.6523ZM383.344 96.5781H385.18V98.2773H392.68V96.5781H394.535V102.945H383.344V96.5781ZM383.559 92.6523C383.552 92.9974 383.65 93.2969 383.852 93.5508C384.053 93.8047 384.34 94.0033 384.711 94.1465C385.089 94.2832 385.525 94.3516 386.02 94.3516C386.768 94.3451 387.37 94.1921 387.826 93.8926C388.282 93.5866 388.513 93.1732 388.52 92.6523C388.513 92.3203 388.406 92.0273 388.197 91.7734C387.989 91.5195 387.699 91.3242 387.328 91.1875C386.957 91.0443 386.531 90.9727 386.049 90.9727C385.554 90.9727 385.118 91.041 384.74 91.1777C384.363 91.3145 384.07 91.5098 383.861 91.7637C383.653 92.0176 383.552 92.3138 383.559 92.6523ZM392.68 101.461V99.7227H385.18V101.461H392.68ZM412.602 103.16H410.746V85.6602H412.602V103.16ZM399.145 87.3594H400.98V97.1055C403.754 97.0924 406.436 96.8255 409.027 96.3047L409.281 97.8672C407.797 98.1732 406.345 98.3913 404.926 98.5215C403.507 98.6517 402.068 98.7135 400.609 98.707H399.145V87.3594ZM428.988 92.4375H431.801V93.9609H428.988V103.199H427.133V85.6602H428.988V92.4375ZM416.098 87.3398H424.281V88.8438H417.953V97.3008C419.503 97.2943 420.863 97.2487 422.035 97.1641C423.207 97.0794 424.392 96.9297 425.59 96.7148L425.824 98.2773C424.587 98.4987 423.373 98.6484 422.182 98.7266C420.997 98.8047 419.587 98.8438 417.953 98.8438H417.504H416.098V87.3398Z" fill="#868686"/>
</svg>
