<svg width="326" height="167" viewBox="0 0 326 167" fill="none" xmlns="http://www.w3.org/2000/svg">
<rect width="326" height="167" rx="17" fill="white"/>
<path d="M31.97 58.4688C29.1419 58.4688 26.7044 57.7891 24.6575 56.4297C22.6106 55.0547 21.0403 53.0625 19.9466 50.4531C18.8684 47.8438 18.3294 44.7031 18.3294 41.0312C18.3294 37.375 18.8762 34.2422 19.97 31.6328C21.0637 29.0078 22.6341 27.0156 24.6809 25.6562C26.7278 24.2812 29.1575 23.5938 31.97 23.5938C34.7825 23.5938 37.2122 24.2812 39.2591 25.6562C41.3059 27.0156 42.8762 29.0078 43.97 31.6328C45.0637 34.2422 45.6106 37.375 45.6106 41.0312C45.6106 44.7188 45.0637 47.8672 43.97 50.4766C42.8762 53.0859 41.3059 55.0703 39.2591 56.4297C37.2278 57.7891 34.7981 58.4688 31.97 58.4688ZM25.5481 41.2422C25.5481 44.9922 26.1184 47.8359 27.2591 49.7734C28.3997 51.6953 29.97 52.6562 31.97 52.6562C33.9856 52.6562 35.5637 51.6797 36.7044 49.7266C37.845 47.7578 38.4075 44.8594 38.3919 41.0312C38.3919 38.5 38.1341 36.3672 37.6184 34.6328C37.1028 32.8828 36.3606 31.5703 35.3919 30.6953C34.4231 29.8203 33.2825 29.375 31.97 29.3594C29.9544 29.375 28.3762 30.3906 27.2356 32.4062C26.1106 34.4219 25.5481 37.3672 25.5481 41.2422ZM63.6706 58H56.5925V30.7656H56.405L48.6237 35.6406V29.4062L57.0144 24.0625H63.6706V58Z" fill="#D8DFE4"/>
<path d="M92.7539 88.5391H90.5859V85.0625H87.9688V83.3242H90.5859V81.3516H87.9688V79.5938H90.5859V75.1016H92.7539V88.5391ZM78.0078 77.0547H81.9531V75.082H84.1211V77.0547H87.8711V78.793H78.0078V77.0547ZM78.9258 82.9531C78.9258 82.2891 79.0983 81.6966 79.4434 81.1758C79.7949 80.6549 80.2799 80.248 80.8984 79.9551C81.5169 79.6621 82.2201 79.5156 83.0078 79.5156C83.8021 79.5156 84.5117 79.6621 85.1367 79.9551C85.7617 80.248 86.2533 80.6549 86.6113 81.1758C86.9694 81.6966 87.1484 82.2891 87.1484 82.9531C87.1484 83.6237 86.9694 84.2194 86.6113 84.7402C86.2598 85.2546 85.7682 85.6582 85.1367 85.9512C84.5117 86.2441 83.8021 86.3906 83.0078 86.3906C82.2201 86.3906 81.5137 86.2441 80.8887 85.9512C80.2702 85.6582 79.7884 85.2513 79.4434 84.7305C79.0983 84.2096 78.9258 83.6172 78.9258 82.9531ZM80.957 82.9531C80.9505 83.4935 81.1361 83.9232 81.5137 84.2422C81.8913 84.5547 82.3893 84.7109 83.0078 84.7109C83.6263 84.7109 84.1276 84.5547 84.5117 84.2422C84.8958 83.9232 85.0911 83.4935 85.0977 82.9531C85.0911 82.4258 84.8958 82.0059 84.5117 81.6934C84.1276 81.3809 83.6263 81.2214 83.0078 81.2148C82.3958 81.2214 81.8978 81.3809 81.5137 81.6934C81.1361 82.0059 80.9505 82.4258 80.957 82.9531ZM81.1133 87.3867H83.3203V90.6289H93.1445V92.3867H81.1133V87.3867ZM101.582 78.2656C101.582 78.9948 101.738 79.6914 102.051 80.3555C102.37 81.0195 102.839 81.6087 103.457 82.123C104.082 82.6374 104.844 83.0312 105.742 83.3047L104.707 85.0039C103.737 84.6979 102.9 84.2454 102.197 83.6465C101.494 83.0475 100.944 82.3411 100.547 81.5273C100.15 82.4779 99.5768 83.3014 98.8281 83.998C98.0859 84.6947 97.194 85.2188 96.1523 85.5703L95.0586 83.8516C95.9766 83.5521 96.7611 83.1159 97.4121 82.543C98.0697 81.9701 98.5645 81.3158 98.8965 80.5801C99.2285 79.8444 99.3945 79.0794 99.3945 78.2852V78.0703H95.6641V76.3125H105.254V78.0703H101.582V78.2656ZM97.4609 89.3398C97.4609 88.6432 97.7018 88.0443 98.1836 87.543C98.6654 87.0417 99.3555 86.6608 100.254 86.4004C101.152 86.1335 102.214 86 103.438 86C104.655 86 105.706 86.1335 106.592 86.4004C107.477 86.6608 108.158 87.0417 108.633 87.543C109.115 88.0443 109.355 88.6432 109.355 89.3398C109.355 90.043 109.115 90.6484 108.633 91.1562C108.158 91.6641 107.477 92.0514 106.592 92.3184C105.706 92.5853 104.655 92.7188 103.438 92.7188C102.214 92.7188 101.152 92.5853 100.254 92.3184C99.3555 92.0514 98.6654 91.6641 98.1836 91.1562C97.7018 90.6484 97.4609 90.043 97.4609 89.3398ZM99.6289 89.3398C99.6289 89.8802 99.9577 90.2936 100.615 90.5801C101.273 90.8665 102.214 91.013 103.438 91.0195C104.648 91.013 105.579 90.8665 106.23 90.5801C106.882 90.2936 107.207 89.8802 107.207 89.3398C107.207 88.806 106.882 88.3991 106.23 88.1191C105.579 87.8392 104.648 87.6992 103.438 87.6992C102.22 87.6992 101.279 87.8392 100.615 88.1191C99.9577 88.3991 99.6289 88.806 99.6289 89.3398ZM107.012 75.082H109.18V79.3203H111.641V81.0977H109.18V85.6094H107.012V75.082ZM125.469 85.9805C126.686 85.9805 127.738 86.1139 128.623 86.3809C129.508 86.6478 130.189 87.0319 130.664 87.5332C131.146 88.0345 131.387 88.6367 131.387 89.3398C131.387 90.0495 131.146 90.6582 130.664 91.166C130.189 91.6738 129.508 92.0612 128.623 92.3281C127.738 92.6016 126.686 92.7383 125.469 92.7383C124.238 92.7383 123.174 92.6016 122.275 92.3281C121.383 92.0612 120.697 91.6738 120.215 91.166C119.733 90.6582 119.492 90.0495 119.492 89.3398C119.492 88.6432 119.733 88.0443 120.215 87.543C120.697 87.0352 121.387 86.6478 122.285 86.3809C123.184 86.1139 124.245 85.9805 125.469 85.9805ZM117.891 76.1953H120.039V78.5781H124.16V76.1953H126.309V84.4375H117.891V76.1953ZM124.16 82.7188V80.2773H120.039V82.7188H124.16ZM121.66 89.3398C121.66 89.8802 121.986 90.2969 122.637 90.5898C123.288 90.8763 124.212 91.0195 125.41 91.0195C126.641 91.0195 127.585 90.8763 128.242 90.5898C128.906 90.3034 129.238 89.8867 129.238 89.3398C129.238 88.7995 128.913 88.3893 128.262 88.1094C127.617 87.8294 126.686 87.6862 125.469 87.6797C124.245 87.6862 123.304 87.8294 122.646 88.1094C121.989 88.3893 121.66 88.7995 121.66 89.3398ZM129.043 75.082H131.211V79.3008H133.672V81.1172H131.211V85.5508H129.043V75.082ZM150.684 85.6484H143.867V88.8906H141.719V85.6484H134.551V83.9102H150.684V85.6484ZM136.504 87.2695H138.672V90.6289H148.906V92.3867H136.504V87.2695ZM136.602 75.8828H148.613V82.2695H136.602V75.8828ZM146.465 80.5703V77.582H138.711V80.5703H146.465ZM166.016 83.5195H157.5V76.1758H166.016V83.5195ZM158.555 91.0195C159.642 90.9284 160.609 90.7201 161.455 90.3945C162.308 90.069 162.979 89.6784 163.467 89.2227C163.962 88.7604 164.242 88.2917 164.307 87.8164H159.277V86.1758H164.355V84.6328H166.543V86.1758H171.641V87.8164H166.602C166.667 88.2786 166.94 88.7376 167.422 89.1934C167.91 89.6426 168.574 90.0332 169.414 90.3652C170.26 90.6908 171.224 90.9089 172.305 91.0195L171.562 92.6797C170.163 92.5299 168.932 92.1979 167.871 91.6836C166.816 91.1693 166.012 90.5378 165.459 89.7891C164.906 90.5443 164.095 91.1758 163.027 91.6836C161.96 92.1914 160.716 92.5234 159.297 92.6797L158.555 91.0195ZM163.867 81.8203V77.8945H159.648V81.8203H163.867ZM169.121 75.082H171.27V85.1406H169.121V75.082ZM184.883 77.8945C184.883 78.6432 185.042 79.3594 185.361 80.043C185.68 80.7266 186.152 81.332 186.777 81.8594C187.402 82.3867 188.158 82.7904 189.043 83.0703L187.871 84.7695C186.934 84.4505 186.123 83.985 185.439 83.373C184.762 82.7611 184.225 82.0352 183.828 81.1953C183.438 82.1523 182.884 82.9824 182.168 83.6855C181.458 84.3822 180.605 84.9062 179.609 85.2578L178.438 83.5586C179.362 83.2396 180.143 82.7839 180.781 82.1914C181.419 81.5924 181.898 80.9089 182.217 80.1406C182.542 79.3659 182.708 78.5521 182.715 77.6992V76.0195H184.883V77.8945ZM180.84 89.3594C180.84 88.6693 181.081 88.0736 181.562 87.5723C182.044 87.071 182.734 86.6901 183.633 86.4297C184.531 86.1693 185.592 86.0391 186.816 86.0391C188.027 86.0391 189.076 86.1693 189.961 86.4297C190.853 86.6901 191.536 87.071 192.012 87.5723C192.493 88.0736 192.734 88.6693 192.734 89.3594C192.734 90.0625 192.493 90.6647 192.012 91.166C191.536 91.6738 190.856 92.0579 189.971 92.3184C189.085 92.5853 188.034 92.7188 186.816 92.7188C185.592 92.7188 184.531 92.5853 183.633 92.3184C182.734 92.0579 182.044 91.6738 181.562 91.166C181.081 90.6647 180.84 90.0625 180.84 89.3594ZM183.008 89.3594C183.008 89.8997 183.337 90.3099 183.994 90.5898C184.652 90.8633 185.592 91 186.816 91C188.034 91 188.965 90.8633 189.609 90.5898C190.26 90.3099 190.586 89.8997 190.586 89.3594C190.586 88.8385 190.257 88.4382 189.6 88.1582C188.949 87.8783 188.021 87.7383 186.816 87.7383C185.605 87.7383 184.668 87.8815 184.004 88.168C183.34 88.4479 183.008 88.8451 183.008 89.3594ZM190.391 75.082H192.559V79.3789H195.02V81.1758H192.559V85.6484H190.391V75.082ZM209.844 79.1836H212.305V80.9805H209.844V85.0234H207.676V75.082H209.844V79.1836ZM196.66 76.2148H204.512V77.9727H198.809V82.4844C200.508 82.4779 201.885 82.4388 202.939 82.3672C204.001 82.2891 205.046 82.1458 206.074 81.9375L206.309 83.6562C205.208 83.8971 204.079 84.0566 202.92 84.1348C201.768 84.2064 200.156 84.2422 198.086 84.2422H196.66V76.2148ZM198.438 85.8242H209.844V92.5039H198.438V85.8242ZM207.695 90.7852V87.5625H200.586V90.7852H207.695Z" fill="black"/>
<path d="M87.5684 120.881H86.4883V116.219H83.9863V115.33H86.4883V111.967H87.5684V120.881ZM77.5469 118.447C78.1393 118.238 78.6702 117.93 79.1396 117.524C79.609 117.119 79.9759 116.652 80.2402 116.123C80.5046 115.59 80.6367 115.038 80.6367 114.469V113.84H77.8887V112.951H84.4375V113.84H81.7168V114.469C81.7168 114.988 81.8421 115.494 82.0928 115.986C82.348 116.479 82.7012 116.916 83.1523 117.299C83.6081 117.682 84.1276 117.973 84.7109 118.174L84.1504 119.035C83.4714 118.789 82.8743 118.424 82.3594 117.941C81.849 117.454 81.4616 116.893 81.1973 116.26C80.9329 116.966 80.5319 117.586 79.9941 118.119C79.4564 118.652 78.8275 119.053 78.1074 119.322L77.5469 118.447ZM79.7617 120.074H80.8418V122.945H87.9102V123.848H79.7617V120.074ZM100.707 119.062H95.7578V121.551H94.6914V119.062H89.5781V118.174H100.707V119.062ZM91 120.348H92.0801V122.945H99.4629V123.848H91V120.348ZM91.0273 112.555H99.2578V116.779H91.0273V112.555ZM98.1914 115.918V113.402H92.0801V115.918H98.1914ZM115.254 124.107H114.174V111.953H115.254V124.107ZM105.355 120.949C106.978 120.179 108.22 119.222 109.081 118.078C109.947 116.934 110.441 115.626 110.564 114.154H105.916V113.279H111.658C111.649 115.111 111.184 116.759 110.264 118.222C109.343 119.685 107.903 120.885 105.943 121.824L105.355 120.949ZM123.402 112.486C123.402 112.969 123.61 113.418 124.024 113.833C124.439 114.248 124.981 114.594 125.651 114.872C126.326 115.15 127.035 115.335 127.777 115.426L127.395 116.246C126.743 116.16 126.116 116.007 125.515 115.788C124.918 115.569 124.384 115.294 123.915 114.961C123.446 114.624 123.088 114.243 122.842 113.819C122.591 114.243 122.229 114.624 121.755 114.961C121.285 115.294 120.752 115.569 120.155 115.788C119.558 116.007 118.936 116.16 118.289 116.246L117.92 115.426C118.663 115.335 119.369 115.15 120.039 114.872C120.714 114.594 121.258 114.248 121.673 113.833C122.088 113.418 122.295 112.969 122.295 112.486V112.021H123.402V112.486ZM117.305 117.039H128.379V117.914H123.361V119.131H126.957V121.893H119.738V123.123H127.326V123.971H118.672V121.086H125.904V119.979H118.645V119.131H122.295V117.914H117.305V117.039ZM133.52 115.686C133.515 116.324 133.652 116.971 133.93 117.627C134.212 118.283 134.595 118.878 135.078 119.411C135.561 119.94 136.094 120.343 136.678 120.621L136.062 121.469C135.383 121.136 134.771 120.635 134.224 119.965C133.677 119.295 133.267 118.545 132.993 117.716C132.806 118.304 132.553 118.864 132.234 119.397C131.915 119.931 131.551 120.402 131.141 120.812C130.735 121.218 130.307 121.537 129.855 121.77L129.199 120.922C129.778 120.639 130.316 120.215 130.812 119.65C131.314 119.085 131.713 118.452 132.009 117.75C132.31 117.048 132.462 116.36 132.467 115.686V114.1H129.637V113.211H136.254V114.1H133.52V115.686ZM137.744 111.953H138.811V116.875H140.848V117.791H138.811V124.107H137.744V111.953ZM150.91 116.902H152.879V117.805H150.91V124.107H149.844V111.953H150.91V116.902ZM141.586 120.949C143.145 120.174 144.352 119.213 145.209 118.064C146.066 116.916 146.556 115.617 146.679 114.168H142.146V113.266H147.766C147.761 115.07 147.305 116.709 146.398 118.181C145.492 119.653 144.088 120.858 142.188 121.797L141.586 120.949ZM167.193 121.236H166.113V118.625H164.008V117.75H166.113V116.096H164.008V115.207H166.113V111.967H167.193V121.236ZM157.131 113.457H160.084V111.953H161.15V113.457H164.008V114.332H157.131V113.457ZM157.855 117.326C157.851 116.866 157.965 116.46 158.197 116.109C158.43 115.758 158.753 115.487 159.168 115.296C159.587 115.1 160.066 115.002 160.604 115.002C161.141 115.002 161.62 115.1 162.039 115.296C162.458 115.487 162.786 115.758 163.023 116.109C163.26 116.46 163.379 116.866 163.379 117.326C163.379 117.782 163.26 118.185 163.023 118.536C162.786 118.887 162.458 119.16 162.039 119.356C161.62 119.552 161.141 119.65 160.604 119.65C160.066 119.65 159.587 119.552 159.168 119.356C158.753 119.16 158.43 118.887 158.197 118.536C157.965 118.185 157.851 117.782 157.855 117.326ZM158.854 117.326C158.854 117.613 158.926 117.868 159.072 118.092C159.218 118.315 159.423 118.488 159.688 118.611C159.956 118.73 160.262 118.789 160.604 118.789C160.945 118.789 161.248 118.73 161.513 118.611C161.782 118.488 161.991 118.315 162.142 118.092C162.292 117.868 162.367 117.613 162.367 117.326C162.367 117.039 162.292 116.784 162.142 116.561C161.991 116.337 161.782 116.164 161.513 116.041C161.248 115.918 160.945 115.854 160.604 115.85C160.262 115.854 159.956 115.92 159.688 116.048C159.423 116.171 159.218 116.344 159.072 116.567C158.926 116.786 158.854 117.039 158.854 117.326ZM159.332 120.416H160.412V122.945H167.467V123.848H159.332V120.416ZM173.332 114.264C173.332 114.788 173.455 115.289 173.701 115.768C173.952 116.246 174.303 116.668 174.754 117.032C175.205 117.392 175.725 117.668 176.312 117.859L175.807 118.707C175.109 118.475 174.503 118.128 173.988 117.668C173.473 117.208 173.084 116.67 172.819 116.055C172.56 116.752 172.161 117.363 171.623 117.887C171.085 118.406 170.452 118.798 169.723 119.062L169.176 118.201C169.777 117.996 170.313 117.695 170.782 117.299C171.252 116.902 171.616 116.442 171.876 115.918C172.14 115.394 172.275 114.842 172.279 114.264V113.744H169.504V112.855H176.066V113.744H173.332V114.264ZM170.789 121.838C170.789 121.373 170.951 120.977 171.274 120.648C171.598 120.316 172.063 120.063 172.669 119.89C173.275 119.712 173.993 119.623 174.822 119.623C175.652 119.623 176.367 119.712 176.969 119.89C177.57 120.063 178.031 120.316 178.35 120.648C178.669 120.977 178.828 121.373 178.828 121.838C178.828 122.307 178.669 122.711 178.35 123.048C178.031 123.385 177.57 123.64 176.969 123.813C176.367 123.991 175.652 124.08 174.822 124.08C173.993 124.08 173.275 123.991 172.669 123.813C172.063 123.64 171.598 123.385 171.274 123.048C170.951 122.711 170.789 122.307 170.789 121.838ZM171.869 121.838C171.865 122.125 171.979 122.373 172.211 122.583C172.448 122.788 172.785 122.945 173.223 123.055C173.665 123.164 174.187 123.219 174.788 123.219C175.408 123.219 175.941 123.164 176.388 123.055C176.839 122.95 177.185 122.795 177.427 122.59C177.668 122.38 177.789 122.13 177.789 121.838C177.789 121.555 177.668 121.314 177.427 121.113C177.19 120.908 176.848 120.753 176.401 120.648C175.959 120.539 175.433 120.484 174.822 120.484C174.216 120.484 173.69 120.539 173.243 120.648C172.797 120.753 172.455 120.908 172.218 121.113C171.981 121.318 171.865 121.56 171.869 121.838ZM177.652 111.953H178.719V115.057H180.551V115.959H178.719V119.295H177.652V111.953ZM186.854 112.172C187.751 112.172 188.521 112.254 189.164 112.418C189.807 112.577 190.297 112.814 190.634 113.129C190.976 113.439 191.146 113.817 191.146 114.264C191.146 114.719 190.976 115.107 190.634 115.426C190.297 115.745 189.807 115.986 189.164 116.15C188.526 116.31 187.756 116.392 186.854 116.396C185.947 116.392 185.172 116.31 184.529 116.15C183.887 115.986 183.395 115.745 183.053 115.426C182.715 115.107 182.547 114.719 182.547 114.264C182.547 113.817 182.715 113.439 183.053 113.129C183.395 112.814 183.887 112.577 184.529 112.418C185.176 112.254 185.951 112.172 186.854 112.172ZM181.316 117.217H192.391V118.092H181.316V117.217ZM182.656 119.145H190.969V121.865H183.75V123.123H191.338V123.971H182.684V121.072H189.916V119.965H182.656V119.145ZM183.668 114.264C183.663 114.683 183.939 115.007 184.495 115.234C185.051 115.462 185.837 115.576 186.854 115.576C187.865 115.576 188.649 115.465 189.205 115.241C189.766 115.013 190.048 114.688 190.053 114.264C190.053 113.999 189.925 113.771 189.67 113.58C189.419 113.389 189.052 113.241 188.569 113.136C188.091 113.031 187.519 112.979 186.854 112.979C186.184 112.979 185.609 113.031 185.131 113.136C184.652 113.241 184.288 113.389 184.037 113.58C183.786 113.771 183.663 113.999 183.668 114.264ZM201.305 114.209C201.305 114.747 201.437 115.264 201.701 115.761C201.97 116.253 202.339 116.688 202.809 117.066C203.283 117.445 203.82 117.732 204.422 117.928L203.875 118.762C203.169 118.52 202.547 118.16 202.009 117.682C201.471 117.203 201.063 116.643 200.785 116C200.516 116.693 200.111 117.301 199.568 117.825C199.026 118.345 198.393 118.734 197.668 118.994L197.107 118.16C197.714 117.946 198.251 117.638 198.721 117.237C199.19 116.836 199.557 116.374 199.821 115.85C200.09 115.321 200.225 114.774 200.225 114.209V113.689H197.381V112.814H204.107V113.689H201.305V114.209ZM198.789 119.951H206.965V124.107H205.898V120.84H198.789V119.951ZM205.898 111.953H206.965V119.309H205.898V111.953ZM219.092 118.557H218.025V115.809H215.564V114.906H218.025V111.953H219.092V118.557ZM209.084 117.914C209.676 117.7 210.207 117.39 210.677 116.984C211.146 116.574 211.513 116.105 211.777 115.576C212.042 115.048 212.174 114.501 212.174 113.936V113.58H209.426V112.691H215.975V113.58H213.254V113.936C213.254 114.451 213.379 114.954 213.63 115.446C213.885 115.938 214.238 116.378 214.689 116.766C215.145 117.148 215.665 117.44 216.248 117.641L215.688 118.475C215.008 118.229 214.411 117.864 213.896 117.381C213.386 116.898 212.999 116.342 212.734 115.713C212.475 116.415 212.074 117.032 211.531 117.565C210.993 118.099 210.365 118.497 209.645 118.762L209.084 117.914ZM211.271 119.145H212.352V120.662H218.025V119.145H219.092V123.943H211.271V119.145ZM218.025 123.068V121.523H212.352V123.068H218.025ZM230.248 119.596C231.077 119.596 231.793 119.685 232.395 119.862C232.996 120.035 233.456 120.291 233.775 120.628C234.094 120.965 234.254 121.368 234.254 121.838C234.254 122.312 234.094 122.717 233.775 123.055C233.456 123.396 232.996 123.656 232.395 123.834C231.793 124.012 231.077 124.103 230.248 124.107C229.414 124.103 228.694 124.012 228.088 123.834C227.486 123.656 227.024 123.396 226.7 123.055C226.377 122.717 226.215 122.312 226.215 121.838C226.215 121.368 226.377 120.965 226.7 120.628C227.024 120.291 227.489 120.035 228.095 119.862C228.701 119.685 229.419 119.596 230.248 119.596ZM225.162 112.719H226.215V114.578H229.756V112.719H230.822V118.324H225.162V112.719ZM229.756 117.449V115.426H226.215V117.449H229.756ZM227.295 121.838C227.29 122.125 227.407 122.373 227.644 122.583C227.881 122.793 228.222 122.952 228.669 123.062C229.116 123.175 229.642 123.232 230.248 123.232C230.859 123.232 231.385 123.175 231.827 123.062C232.274 122.952 232.616 122.793 232.853 122.583C233.094 122.373 233.215 122.125 233.215 121.838C233.215 121.551 233.094 121.305 232.853 121.1C232.616 120.89 232.274 120.73 231.827 120.621C231.385 120.507 230.859 120.448 230.248 120.443C229.637 120.448 229.109 120.507 228.662 120.621C228.22 120.73 227.881 120.89 227.644 121.1C227.407 121.305 227.29 121.551 227.295 121.838ZM233.078 111.953H234.145V115.016H235.977V115.932H234.145V119.268H233.078V111.953ZM247.857 119.062H242.908V121.551H241.842V119.062H236.729V118.174H247.857V119.062ZM238.15 120.348H239.23V122.945H246.613V123.848H238.15V120.348ZM238.178 112.555H246.408V116.779H238.178V112.555ZM245.342 115.918V113.402H239.23V115.918H245.342ZM258.248 116.971H260.285V117.859H258.248V124.107H257.182V111.953H258.248V116.971ZM248.773 113.908H251.904V112.104H252.971V113.908H256.006V114.797H248.773V113.908ZM249.471 118.598C249.471 118.06 249.598 117.579 249.854 117.155C250.109 116.731 250.462 116.401 250.913 116.164C251.369 115.927 251.882 115.809 252.451 115.809C253.016 115.809 253.524 115.927 253.976 116.164C254.427 116.401 254.78 116.731 255.035 117.155C255.295 117.579 255.427 118.06 255.432 118.598C255.427 119.14 255.295 119.623 255.035 120.047C254.78 120.466 254.427 120.794 253.976 121.031C253.524 121.268 253.016 121.387 252.451 121.387C251.882 121.387 251.369 121.268 250.913 121.031C250.462 120.794 250.109 120.466 249.854 120.047C249.598 119.623 249.471 119.14 249.471 118.598ZM250.496 118.598C250.496 118.962 250.578 119.288 250.742 119.575C250.911 119.858 251.143 120.079 251.439 120.238C251.74 120.398 252.077 120.475 252.451 120.471C252.82 120.475 253.153 120.398 253.449 120.238C253.745 120.079 253.978 119.858 254.146 119.575C254.315 119.288 254.402 118.962 254.406 118.598C254.402 118.238 254.315 117.914 254.146 117.627C253.978 117.335 253.745 117.11 253.449 116.95C253.153 116.791 252.82 116.711 252.451 116.711C252.077 116.711 251.74 116.791 251.439 116.95C251.143 117.11 250.911 117.335 250.742 117.627C250.578 117.914 250.496 118.238 250.496 118.598ZM264.209 112.896C264.765 112.901 265.262 113.058 265.699 113.368C266.141 113.674 266.494 114.109 266.759 114.674H269.951V111.953H271.018V124.135H269.951V119.418H266.834C266.579 120.038 266.223 120.519 265.768 120.86C265.312 121.198 264.792 121.364 264.209 121.359C263.612 121.359 263.081 121.188 262.616 120.847C262.156 120.5 261.798 120.008 261.543 119.37C261.288 118.732 261.16 117.987 261.16 117.135C261.16 116.287 261.288 115.544 261.543 114.906C261.798 114.264 262.156 113.769 262.616 113.423C263.081 113.072 263.612 112.896 264.209 112.896ZM262.186 117.135C262.186 117.786 262.27 118.361 262.438 118.857C262.612 119.35 262.851 119.73 263.156 119.999C263.462 120.268 263.812 120.402 264.209 120.402C264.601 120.402 264.95 120.268 265.255 119.999C265.565 119.73 265.804 119.347 265.973 118.851C266.146 118.354 266.232 117.782 266.232 117.135C266.232 116.488 266.146 115.916 265.973 115.419C265.804 114.922 265.565 114.537 265.255 114.264C264.95 113.99 264.601 113.854 264.209 113.854C263.812 113.854 263.462 113.99 263.156 114.264C262.851 114.537 262.612 114.922 262.438 115.419C262.27 115.911 262.186 116.483 262.186 117.135ZM267.066 115.576C267.185 116.059 267.244 116.579 267.244 117.135C267.244 117.632 267.199 118.096 267.107 118.529H269.951V115.576H267.066ZM282.051 119.637C282.917 119.637 283.669 119.726 284.307 119.903C284.949 120.076 285.444 120.332 285.79 120.669C286.141 121.002 286.316 121.4 286.316 121.865C286.316 122.326 286.141 122.722 285.79 123.055C285.444 123.387 284.949 123.64 284.307 123.813C283.669 123.991 282.917 124.08 282.051 124.08C281.185 124.08 280.431 123.991 279.788 123.813C279.15 123.64 278.658 123.387 278.312 123.055C277.97 122.722 277.799 122.326 277.799 121.865C277.799 121.4 277.97 121.002 278.312 120.669C278.658 120.332 279.15 120.076 279.788 119.903C280.431 119.726 281.185 119.637 282.051 119.637ZM276.568 117.627H281.148V115.275H282.201V117.627H287.629V118.502H276.568V117.627ZM277.881 112.582H286.221V113.607C286.216 114.277 286.196 114.845 286.159 115.31C286.123 115.77 286.029 116.278 285.879 116.834L284.826 116.711C284.972 116.155 285.063 115.656 285.1 115.214C285.136 114.767 285.154 114.232 285.154 113.607V113.457H277.881V112.582ZM278.865 121.865C278.865 122.143 278.995 122.387 279.255 122.597C279.515 122.802 279.884 122.959 280.362 123.068C280.845 123.178 281.408 123.232 282.051 123.232C282.693 123.232 283.254 123.178 283.732 123.068C284.215 122.959 284.587 122.802 284.847 122.597C285.111 122.387 285.245 122.143 285.25 121.865C285.245 121.578 285.111 121.33 284.847 121.12C284.587 120.91 284.215 120.749 283.732 120.635C283.254 120.516 282.693 120.457 282.051 120.457C281.408 120.457 280.845 120.516 280.362 120.635C279.884 120.749 279.515 120.91 279.255 121.12C278.995 121.33 278.865 121.578 278.865 121.865ZM298.156 115.658H299.988V116.561H298.156V120.854H297.076V111.953H298.156V115.658ZM288.668 118.584C289.643 118.279 290.495 117.889 291.225 117.415C291.954 116.941 292.53 116.396 292.954 115.781C293.382 115.166 293.633 114.505 293.706 113.799H289.174V112.896H294.875C294.875 113.922 294.643 114.863 294.178 115.72C293.713 116.576 293.05 117.319 292.188 117.948C291.327 118.577 290.309 119.076 289.133 119.445L288.668 118.584ZM290.541 119.951H291.607V122.945H298.717V123.848H290.541V119.951ZM88.5664 136.254H77.4785V135.393H88.5664V136.254ZM78.7227 137.443H87.1309V141.107H86.0371V138.305H78.7227V137.443ZM78.9551 129.281H87.1855V130.143H80.0352V131.305H86.8574V132.139H80.0352V133.383H87.2539V134.217H78.9551V129.281ZM93.7754 130.867C93.7708 131.437 93.8939 131.979 94.1445 132.494C94.3997 133.009 94.7552 133.463 95.2109 133.854C95.6667 134.242 96.1908 134.536 96.7832 134.736L96.1816 135.57C95.5117 135.32 94.9238 134.955 94.418 134.477C93.9121 133.998 93.527 133.44 93.2627 132.802C93.0029 133.531 92.6042 134.167 92.0664 134.709C91.5332 135.251 90.8997 135.661 90.166 135.939L89.5781 135.064C90.1979 134.846 90.7425 134.531 91.2119 134.121C91.6859 133.706 92.0527 133.223 92.3125 132.672C92.5723 132.116 92.7044 131.528 92.709 130.908V129.65H93.7754V130.867ZM91.5605 138.811C91.5605 138.327 91.7223 137.915 92.0459 137.573C92.374 137.227 92.8434 136.965 93.4541 136.787C94.0648 136.605 94.7917 136.514 95.6348 136.514C96.4733 136.514 97.1979 136.605 97.8086 136.787C98.4193 136.965 98.8887 137.227 99.2168 137.573C99.5449 137.915 99.709 138.327 99.709 138.811C99.709 139.289 99.5449 139.697 99.2168 140.034C98.8887 140.376 98.4193 140.636 97.8086 140.813C97.1979 140.991 96.4733 141.08 95.6348 141.08C94.7917 141.08 94.0648 140.991 93.4541 140.813C92.8434 140.636 92.374 140.376 92.0459 140.034C91.7223 139.697 91.5605 139.289 91.5605 138.811ZM92.627 138.811C92.627 139.098 92.7454 139.348 92.9824 139.562C93.2194 139.772 93.5612 139.934 94.0078 140.048C94.459 140.162 94.9899 140.219 95.6006 140.219C96.2249 140.219 96.765 140.162 97.2207 140.048C97.6764 139.938 98.0273 139.779 98.2734 139.569C98.5195 139.355 98.6426 139.102 98.6426 138.811C98.6426 138.51 98.5218 138.252 98.2803 138.038C98.0387 137.819 97.6901 137.653 97.2344 137.539C96.7832 137.421 96.25 137.361 95.6348 137.361C95.015 137.361 94.4772 137.421 94.0215 137.539C93.5703 137.653 93.224 137.819 92.9824 138.038C92.7454 138.252 92.627 138.51 92.627 138.811ZM95.8809 131.564H98.5879V128.953H99.668V136.158H98.5879V132.453H95.8809V131.564ZM108.432 130.936C108.427 131.724 108.404 132.48 108.363 133.205C108.322 133.93 108.227 134.782 108.076 135.762L106.996 135.666C107.233 134.217 107.352 132.799 107.352 131.414V131.182H102.252V130.307H108.432V130.936ZM101.568 137.539C102.73 137.53 103.605 137.519 104.193 137.505V133.779H105.246V137.471C106.745 137.416 108.076 137.32 109.238 137.184L109.293 137.99C107.411 138.282 105.073 138.428 102.279 138.428H101.705L101.568 137.539ZM110.004 128.953H111.07V134.039H113.039V134.969H111.07V141.107H110.004V128.953ZM127.053 131.4V131.551C127.044 132.558 127.012 133.458 126.957 134.251C126.907 135.044 126.788 135.962 126.602 137.006L125.508 136.883C125.649 136.163 125.752 135.486 125.815 134.853C125.884 134.215 125.925 133.652 125.938 133.164C125.957 132.676 125.968 132.089 125.973 131.4V131.072H118.48V130.184H127.053V131.4ZM117.305 138.496H121.652V134.148H122.705V138.496H128.379V139.385H117.305V138.496ZM139.727 136.131H138.701V132.918H137.047V136.049H136.021V129.199H137.047V132.029H138.701V128.967H139.727V136.131ZM129.473 135.461C130.73 134.951 131.71 134.294 132.412 133.492C133.118 132.686 133.524 131.77 133.629 130.744H129.965V129.855H134.736C134.732 131.305 134.328 132.572 133.526 133.656C132.724 134.741 131.551 135.611 130.006 136.268L129.473 135.461ZM131.523 136.691H139.727V141.107H138.674V137.566H131.523V136.691ZM156.146 139.549H145.018V138.646H147.779V135.372C147.251 135.099 146.84 134.745 146.549 134.312C146.257 133.88 146.111 133.392 146.111 132.85C146.111 132.234 146.3 131.69 146.679 131.216C147.057 130.742 147.581 130.375 148.251 130.115C148.925 129.855 149.693 129.723 150.555 129.719C151.416 129.723 152.182 129.855 152.852 130.115C153.526 130.375 154.052 130.742 154.431 131.216C154.809 131.69 154.998 132.234 154.998 132.85C154.998 133.383 154.857 133.864 154.574 134.292C154.292 134.716 153.895 135.064 153.385 135.338V138.646H156.146V139.549ZM147.15 132.85C147.15 133.296 147.294 133.693 147.581 134.039C147.868 134.381 148.269 134.647 148.784 134.839C149.304 135.026 149.894 135.119 150.555 135.119C151.211 135.119 151.797 135.026 152.312 134.839C152.826 134.647 153.23 134.381 153.521 134.039C153.813 133.693 153.959 133.296 153.959 132.85C153.959 132.403 153.813 132.009 153.521 131.667C153.23 131.325 152.826 131.063 152.312 130.881C151.797 130.694 151.211 130.603 150.555 130.607C149.894 130.603 149.304 130.694 148.784 130.881C148.269 131.063 147.868 131.325 147.581 131.667C147.294 132.009 147.15 132.403 147.15 132.85ZM152.305 138.646V135.755C151.762 135.896 151.179 135.967 150.555 135.967C149.926 135.967 149.352 135.898 148.832 135.762V138.646H152.305ZM166.729 130.812C166.729 131.596 166.708 132.294 166.667 132.904C166.631 133.51 166.535 134.199 166.38 134.969H168.191V135.857H163.174V141.135H162.094V135.857H157.117V134.969H165.293C165.457 134.194 165.56 133.504 165.601 132.897C165.642 132.287 165.662 131.592 165.662 130.812V130.635H158.512V129.746H166.729V130.812ZM173.291 132.221C173.291 132.918 173.43 133.615 173.708 134.312C173.991 135.005 174.371 135.625 174.85 136.172C175.333 136.719 175.861 137.133 176.436 137.416L175.779 138.277C175.109 137.931 174.508 137.418 173.975 136.739C173.446 136.06 173.047 135.297 172.778 134.449C172.509 135.347 172.104 136.158 171.562 136.883C171.019 137.603 170.406 138.145 169.723 138.51L169.039 137.648C169.627 137.361 170.162 136.931 170.646 136.356C171.133 135.782 171.518 135.133 171.801 134.408C172.088 133.679 172.234 132.95 172.238 132.221V130.006H173.291V132.221ZM177.557 128.953H178.623V133.889H180.66V134.818H178.623V141.107H177.557V128.953ZM190.818 132.344H192.65V133.26H190.818V136.801H189.752V128.953H190.818V132.344ZM181.344 130.348H184.434V128.857H185.5V130.348H188.59V131.195H181.344V130.348ZM182.041 133.971C182.041 133.542 182.162 133.166 182.403 132.843C182.645 132.519 182.987 132.269 183.429 132.091C183.871 131.913 184.383 131.824 184.967 131.824C185.546 131.824 186.054 131.913 186.491 132.091C186.933 132.269 187.275 132.519 187.517 132.843C187.763 133.166 187.888 133.542 187.893 133.971C187.888 134.404 187.763 134.782 187.517 135.105C187.275 135.429 186.933 135.68 186.491 135.857C186.054 136.031 185.546 136.117 184.967 136.117C184.383 136.117 183.871 136.031 183.429 135.857C182.987 135.68 182.645 135.429 182.403 135.105C182.162 134.782 182.041 134.404 182.041 133.971ZM182.998 138.988C182.998 138.551 183.155 138.175 183.47 137.86C183.789 137.546 184.247 137.304 184.844 137.136C185.441 136.967 186.152 136.883 186.977 136.883C187.797 136.883 188.506 136.967 189.103 137.136C189.7 137.304 190.158 137.546 190.477 137.86C190.796 138.175 190.955 138.551 190.955 138.988C190.955 139.426 190.796 139.799 190.477 140.109C190.158 140.424 189.7 140.663 189.103 140.827C188.506 140.996 187.797 141.08 186.977 141.08C186.152 141.08 185.441 140.996 184.844 140.827C184.247 140.663 183.789 140.424 183.47 140.109C183.155 139.799 182.998 139.426 182.998 138.988ZM183.066 133.971C183.066 134.235 183.144 134.467 183.299 134.668C183.454 134.864 183.675 135.017 183.962 135.126C184.254 135.231 184.589 135.283 184.967 135.283C185.34 135.283 185.671 135.231 185.958 135.126C186.25 135.017 186.475 134.864 186.635 134.668C186.794 134.467 186.876 134.235 186.881 133.971C186.876 133.706 186.794 133.474 186.635 133.273C186.475 133.073 186.25 132.918 185.958 132.809C185.671 132.695 185.34 132.635 184.967 132.631C184.589 132.635 184.254 132.695 183.962 132.809C183.675 132.918 183.454 133.073 183.299 133.273C183.144 133.474 183.066 133.706 183.066 133.971ZM184.064 138.988C184.06 139.248 184.172 139.474 184.399 139.665C184.632 139.852 184.965 139.995 185.397 140.096C185.83 140.196 186.343 140.246 186.936 140.246C187.546 140.246 188.073 140.196 188.515 140.096C188.961 139.995 189.301 139.852 189.533 139.665C189.77 139.474 189.889 139.248 189.889 138.988C189.893 138.587 189.636 138.277 189.116 138.059C188.601 137.84 187.888 137.73 186.977 137.73C186.061 137.73 185.345 137.84 184.83 138.059C184.315 138.277 184.06 138.587 184.064 138.988ZM198.953 129.172C199.851 129.172 200.621 129.254 201.264 129.418C201.906 129.577 202.396 129.814 202.733 130.129C203.075 130.439 203.246 130.817 203.246 131.264C203.246 131.719 203.075 132.107 202.733 132.426C202.396 132.745 201.906 132.986 201.264 133.15C200.626 133.31 199.855 133.392 198.953 133.396C198.046 133.392 197.271 133.31 196.629 133.15C195.986 132.986 195.494 132.745 195.152 132.426C194.815 132.107 194.646 131.719 194.646 131.264C194.646 130.817 194.815 130.439 195.152 130.129C195.494 129.814 195.986 129.577 196.629 129.418C197.276 129.254 198.051 129.172 198.953 129.172ZM193.416 134.217H204.49V135.092H193.416V134.217ZM194.756 136.145H203.068V138.865H195.85V140.123H203.438V140.971H194.783V138.072H202.016V136.965H194.756V136.145ZM195.768 131.264C195.763 131.683 196.039 132.007 196.595 132.234C197.151 132.462 197.937 132.576 198.953 132.576C199.965 132.576 200.749 132.465 201.305 132.241C201.865 132.013 202.148 131.688 202.152 131.264C202.152 130.999 202.025 130.771 201.77 130.58C201.519 130.389 201.152 130.241 200.669 130.136C200.19 130.031 199.618 129.979 198.953 129.979C198.283 129.979 197.709 130.031 197.23 130.136C196.752 130.241 196.387 130.389 196.137 130.58C195.886 130.771 195.763 130.999 195.768 131.264ZM220.145 136.268H215.195V138.646H214.129V136.268H209.016V135.393H220.145V136.268ZM210.438 137.525H211.504V139.945H218.9V140.848H210.438V137.525ZM210.506 129.35H211.572V130.908H217.588V129.35H218.654V134.203H210.506V129.35ZM217.588 133.328V131.729H211.572V133.328H217.588ZM225.271 130.908C225.271 131.46 225.397 131.991 225.647 132.501C225.903 133.011 226.258 133.463 226.714 133.854C227.174 134.242 227.696 134.536 228.279 134.736L227.691 135.598C227.021 135.347 226.431 134.976 225.921 134.483C225.41 133.991 225.025 133.419 224.766 132.768C224.51 133.483 224.118 134.112 223.59 134.654C223.066 135.192 222.446 135.602 221.73 135.885L221.143 134.996C221.753 134.782 222.289 134.47 222.749 134.06C223.214 133.645 223.574 133.164 223.829 132.617C224.084 132.066 224.214 131.482 224.219 130.867V129.582H225.271V130.908ZM223.029 136.814H231.205V141.107H230.125V137.676H223.029V136.814ZM227.418 131.51H230.125V128.953H231.205V136.145H230.125V132.412H227.418V131.51ZM242.73 132.07H244.562V132.986H242.73V136.021H241.664V128.953H242.73V132.07ZM233.256 130.211H236.346V128.844H237.412V130.211H240.502V131.1H233.256V130.211ZM233.953 133.793C233.953 133.365 234.074 132.991 234.315 132.672C234.557 132.348 234.899 132.1 235.341 131.927C235.783 131.749 236.296 131.66 236.879 131.66C237.458 131.66 237.966 131.749 238.403 131.927C238.845 132.1 239.187 132.348 239.429 132.672C239.675 132.991 239.8 133.365 239.805 133.793C239.8 134.221 239.675 134.597 239.429 134.921C239.187 135.244 238.845 135.493 238.403 135.666C237.961 135.839 237.453 135.926 236.879 135.926C236.296 135.926 235.783 135.839 235.341 135.666C234.899 135.493 234.557 135.244 234.315 134.921C234.074 134.597 233.953 134.221 233.953 133.793ZM234.979 133.793C234.979 134.053 235.056 134.283 235.211 134.483C235.366 134.679 235.587 134.832 235.874 134.941C236.166 135.051 236.501 135.105 236.879 135.105C237.253 135.105 237.583 135.051 237.87 134.941C238.162 134.832 238.387 134.679 238.547 134.483C238.706 134.283 238.788 134.053 238.793 133.793C238.788 133.533 238.704 133.305 238.54 133.109C238.381 132.909 238.157 132.756 237.87 132.651C237.583 132.542 237.253 132.49 236.879 132.494C236.501 132.49 236.168 132.542 235.881 132.651C235.594 132.756 235.37 132.909 235.211 133.109C235.056 133.305 234.979 133.533 234.979 133.793ZM235.047 136.555H236.113V137.854H241.664V136.555H242.73V140.943H235.047V136.555ZM241.664 140.082V138.701H236.113V140.082H241.664ZM255.35 141.107H254.283V128.953H255.35V141.107ZM246.121 130.156H247.174V137.047C248.176 137.038 249.154 136.99 250.106 136.903C251.059 136.812 252.018 136.664 252.984 136.459L253.135 137.375C252.1 137.589 251.093 137.744 250.113 137.84C249.138 137.931 248.135 137.977 247.105 137.977H246.121V130.156ZM266.834 133.766H268.871V134.668H266.834V141.135H265.768V128.953H266.834V133.766ZM257.961 130.143H263.635V131.031H259.027V137.184C260.176 137.179 261.172 137.145 262.015 137.081C262.858 137.017 263.717 136.906 264.592 136.746L264.729 137.676C263.826 137.84 262.942 137.949 262.076 138.004C261.215 138.059 260.162 138.086 258.918 138.086H257.961V130.143ZM270.812 140.082C270.653 140.082 270.505 140.041 270.368 139.959C270.236 139.877 270.129 139.77 270.047 139.638C269.969 139.501 269.933 139.353 269.938 139.193C269.933 139.038 269.969 138.895 270.047 138.763C270.129 138.626 270.236 138.519 270.368 138.441C270.505 138.359 270.653 138.318 270.812 138.318C270.967 138.318 271.111 138.357 271.243 138.435C271.38 138.512 271.487 138.617 271.564 138.749C271.646 138.881 271.688 139.025 271.688 139.18C271.688 139.426 271.603 139.638 271.435 139.815C271.266 139.989 271.059 140.077 270.812 140.082Z" fill="#737373"/>
<path d="M82.958 51.4437V37.8943C82.958 37.0944 83.2351 36.4174 83.7893 35.8633C84.3434 35.3091 85.0204 35.032 85.8203 35.032H90.4788V31.9873C90.4788 31.1874 90.7559 30.5104 91.3101 29.9563C91.8643 29.4021 92.5413 29.125 93.3411 29.125H102.658C103.458 29.125 104.135 29.4021 104.689 29.9563C105.243 30.5104 105.521 31.1874 105.521 31.9873V35.032H110.179C110.979 35.032 111.656 35.3091 112.21 35.8633C112.764 36.4174 113.041 37.0944 113.041 37.8943V51.4437C113.041 51.8493 112.904 52.1892 112.63 52.4633C112.355 52.7378 112.016 52.875 111.61 52.875H84.3893C83.9837 52.875 83.6439 52.7378 83.3697 52.4633C83.0952 52.1892 82.958 51.8493 82.958 51.4437ZM91.1791 45.1408V45.5366C91.1791 45.8731 91.0652 46.1552 90.8375 46.3829C90.6097 46.6104 90.3276 46.7241 89.9912 46.7241C89.6545 46.7241 89.3725 46.6104 89.1453 46.3829C88.9178 46.1552 88.8041 45.8731 88.8041 45.5366V45.1408H85.333V50.5H110.666V45.1408H107.195V45.5366C107.195 45.8731 107.081 46.1552 106.854 46.3829C106.626 46.6104 106.344 46.7241 106.007 46.7241C105.671 46.7241 105.389 46.6104 105.161 46.3829C104.934 46.1552 104.82 45.8731 104.82 45.5366V45.1408H91.1791ZM85.333 37.8943V42.7662H88.8041V42.37C88.8041 42.0338 88.9179 41.7518 89.1457 41.5241C89.3734 41.2966 89.6556 41.1829 89.9924 41.1829C90.3288 41.1829 90.6108 41.2966 90.8383 41.5241C91.0655 41.7518 91.1791 42.0338 91.1791 42.37V42.7662H104.82V42.37C104.82 42.0338 104.934 41.7518 105.162 41.5241C105.39 41.2966 105.672 41.1829 106.008 41.1829C106.345 41.1829 106.627 41.2966 106.854 41.5241C107.082 41.7518 107.195 42.0338 107.195 42.37V42.7662H110.666V37.8943C110.666 37.7724 110.616 37.6608 110.514 37.5594C110.413 37.4578 110.301 37.407 110.179 37.407H85.8203C85.6984 37.407 85.5867 37.4578 85.4854 37.5594C85.3838 37.6608 85.333 37.7724 85.333 37.8943ZM92.8538 35.032H103.146V31.9873C103.146 31.8654 103.095 31.7537 102.993 31.6524C102.892 31.5508 102.78 31.5 102.658 31.5H93.3411C93.2192 31.5 93.1076 31.5508 93.0062 31.6524C92.9046 31.7537 92.8538 31.8654 92.8538 31.9873V35.032Z" fill="#144D6E"/>
</svg>
