<svg width="469" height="47" viewBox="0 0 469 47" fill="none" xmlns="http://www.w3.org/2000/svg">
<rect width="469" height="47" fill="#043753"/>
<path d="M195.51 25.2793H183.439V23.9609H188.64V22.7891C187.829 22.7305 187.126 22.5864 186.53 22.3569C185.939 22.1274 185.483 21.8223 185.161 21.4414C184.843 21.0605 184.685 20.6162 184.685 20.1084C184.685 19.5615 184.88 19.0854 185.271 18.6802C185.666 18.2749 186.223 17.9648 186.94 17.75C187.658 17.5352 188.498 17.4277 189.46 17.4277C190.417 17.4277 191.254 17.5352 191.972 17.75C192.69 17.9648 193.247 18.2749 193.642 18.6802C194.038 19.0854 194.235 19.5615 194.235 20.1084C194.235 20.6162 194.074 21.0605 193.752 21.4414C193.43 21.8223 192.971 22.1274 192.375 22.3569C191.784 22.5864 191.086 22.7305 190.28 22.7891V23.9609H195.51V25.2793ZM184.934 26.1875H186.56V28.7217H194.147V30.04H184.934V26.1875ZM186.384 20.1084C186.379 20.5576 186.643 20.9019 187.175 21.1411C187.707 21.3804 188.454 21.5 189.416 21.5C190.412 21.5 191.184 21.3828 191.73 21.1484C192.277 20.9092 192.551 20.5625 192.551 20.1084C192.551 19.8203 192.426 19.5737 192.177 19.3687C191.933 19.1587 191.579 18.9976 191.115 18.8853C190.651 18.7729 190.1 18.7168 189.46 18.7168C188.82 18.7168 188.269 18.7729 187.805 18.8853C187.341 18.9976 186.987 19.1587 186.743 19.3687C186.499 19.5737 186.379 19.8203 186.384 20.1084ZM206.774 22.1445H208.811V23.5068H206.774V30.3184H205.163V17.0615H206.774V22.1445ZM196.931 18.2188H203.024V23.2139H198.571V25.8506C199.694 25.8408 200.686 25.8066 201.545 25.748C202.404 25.6846 203.273 25.5771 204.152 25.4258L204.299 26.7441C203.327 26.9199 202.363 27.0396 201.406 27.103C200.454 27.1665 199.333 27.1982 198.044 27.1982H196.96V21.9102H201.398V19.5371H196.931V18.2188ZM220.397 26.6416H218.757V17.0762H220.397V26.6416ZM209.602 21.251C209.602 20.6211 209.758 20.0547 210.07 19.5518C210.388 19.0488 210.817 18.6558 211.359 18.3726C211.906 18.0845 212.512 17.9404 213.176 17.9404C213.84 17.9404 214.443 18.0845 214.985 18.3726C215.532 18.6558 215.959 19.0488 216.267 19.5518C216.579 20.0547 216.735 20.6211 216.735 21.251C216.735 21.8906 216.579 22.4644 216.267 22.9722C215.959 23.4751 215.532 23.8682 214.985 24.1514C214.443 24.4346 213.84 24.5762 213.176 24.5762C212.512 24.5762 211.906 24.4346 211.359 24.1514C210.817 23.8682 210.388 23.4751 210.07 22.9722C209.758 22.4644 209.602 21.8906 209.602 21.251ZM211.198 21.251C211.198 21.6318 211.281 21.9663 211.447 22.2544C211.618 22.5425 211.853 22.7646 212.15 22.9209C212.453 23.0771 212.795 23.1553 213.176 23.1553C213.547 23.1553 213.881 23.0771 214.179 22.9209C214.477 22.7646 214.711 22.5425 214.882 22.2544C215.053 21.9663 215.139 21.6318 215.139 21.251C215.139 20.8799 215.053 20.5503 214.882 20.2622C214.711 19.9741 214.475 19.752 214.172 19.5957C213.874 19.4395 213.542 19.3613 213.176 19.3613C212.8 19.3613 212.46 19.4395 212.158 19.5957C211.855 19.752 211.618 19.9741 211.447 20.2622C211.281 20.5503 211.198 20.8799 211.198 21.251ZM211.638 25.6748H213.278V28.7217H220.764V30.04H211.638V25.6748ZM225.979 26.7588C225.979 25.9434 226.254 25.3525 226.806 24.9863C227.363 24.6201 228.073 24.4102 228.938 24.3564C229.382 24.3223 230.063 24.2856 230.981 24.2466L230.974 23.6094C230.974 23.2139 230.849 22.9087 230.6 22.6938C230.356 22.4741 230.002 22.3643 229.538 22.3643C229.133 22.3643 228.801 22.4497 228.542 22.6206C228.283 22.7915 228.117 23.0234 228.044 23.3164H226.242C226.286 22.8623 226.447 22.457 226.726 22.1006C227.004 21.7393 227.387 21.4561 227.875 21.251C228.364 21.0459 228.933 20.9434 229.582 20.9434C230.139 20.9434 230.661 21.0312 231.149 21.207C231.643 21.3779 232.045 21.6685 232.358 22.0786C232.675 22.4839 232.834 23.0186 232.834 23.6826V29H231.047V27.9014H230.988C230.793 28.2725 230.5 28.5752 230.109 28.8096C229.719 29.0439 229.23 29.1611 228.645 29.1611C228.132 29.1611 227.673 29.0684 227.268 28.8828C226.867 28.6973 226.552 28.4263 226.323 28.0698C226.093 27.7085 225.979 27.2715 225.979 26.7588ZM227.78 26.7441C227.78 27.0762 227.902 27.3325 228.146 27.5132C228.396 27.6938 228.723 27.7842 229.128 27.7842C229.494 27.7842 229.819 27.7109 230.102 27.5645C230.385 27.418 230.603 27.2202 230.754 26.9712C230.91 26.7173 230.988 26.4414 230.988 26.1436L230.981 25.4917C230.737 25.5015 230.446 25.5186 230.109 25.543C229.777 25.5625 229.484 25.582 229.23 25.6016C228.776 25.6406 228.42 25.7554 228.161 25.9458C227.907 26.1362 227.78 26.4023 227.78 26.7441ZM235.5 30.5967H233.859L237.287 17.8965H238.913L235.5 30.5967ZM244.479 23.3164C244.421 23.0137 244.27 22.7744 244.025 22.5986C243.786 22.4229 243.476 22.335 243.095 22.335C242.827 22.335 242.585 22.374 242.37 22.4521C242.16 22.5303 241.994 22.6401 241.872 22.7817C241.755 22.9233 241.696 23.0845 241.696 23.2651C241.696 23.48 241.784 23.6631 241.96 23.8145C242.141 23.9658 242.429 24.0879 242.824 24.1807L244.172 24.459C244.924 24.625 245.483 24.8862 245.849 25.2427C246.22 25.5942 246.408 26.0557 246.413 26.627C246.413 27.125 246.274 27.5669 245.996 27.9526C245.717 28.3335 245.322 28.6313 244.809 28.8462C244.296 29.0562 243.698 29.1611 243.015 29.1611C242.014 29.1611 241.218 28.9487 240.627 28.5239C240.041 28.0991 239.699 27.501 239.602 26.7295H241.506C241.56 27.0664 241.713 27.3203 241.967 27.4912C242.226 27.6621 242.575 27.7451 243.015 27.7402C243.469 27.7451 243.83 27.6621 244.099 27.4912C244.367 27.3203 244.504 27.0859 244.509 26.7881C244.504 26.5586 244.409 26.3682 244.223 26.2168C244.038 26.0654 243.747 25.9482 243.352 25.8652L242.077 25.5869C241.34 25.4355 240.781 25.1719 240.4 24.7959C240.019 24.4199 239.831 23.9463 239.836 23.375C239.836 22.8916 239.968 22.4668 240.231 22.1006C240.495 21.7295 240.869 21.4438 241.352 21.2437C241.84 21.0435 242.404 20.9434 243.044 20.9434C243.669 20.9434 244.213 21.041 244.677 21.2363C245.146 21.4268 245.512 21.7002 245.776 22.0566C246.044 22.4131 246.203 22.833 246.252 23.3164H244.479ZM258.469 24.2832H256.843V21.4561H254.558V20.1084H256.843V17.0615H258.469V24.2832ZM247.351 23.2285C248.029 22.999 248.61 22.6719 249.094 22.2471C249.582 21.8174 249.951 21.3291 250.2 20.7822C250.454 20.2305 250.583 19.6592 250.588 19.0684H247.834V17.7354H254.982V19.0684H252.243C252.248 19.6104 252.37 20.1377 252.609 20.6504C252.854 21.1631 253.208 21.6245 253.671 22.0347C254.14 22.4448 254.704 22.7598 255.363 22.9795L254.543 24.2393C253.82 23.9902 253.195 23.6289 252.668 23.1553C252.146 22.6816 251.735 22.125 251.438 21.4854C251.14 22.1982 250.715 22.8184 250.163 23.3457C249.616 23.8682 248.957 24.2588 248.186 24.5176L247.351 23.2285ZM249.738 24.8398H251.364V26.2168H256.843V24.8398H258.469V30.1426H249.738V24.8398ZM256.843 28.8242V27.4912H251.364V28.8242H256.843ZM267.243 18.1602C267.238 18.7168 267.431 19.2588 267.822 19.7861C268.217 20.3135 268.771 20.7651 269.484 21.1411C270.202 21.5171 271.018 21.7637 271.931 21.8809L271.286 23.1992C270.173 23.0332 269.187 22.6914 268.327 22.1738C267.468 21.6514 266.821 21.0142 266.386 20.2622C265.952 21.0142 265.307 21.6514 264.453 22.1738C263.598 22.6914 262.619 23.0332 261.516 23.1992L260.871 21.8809C261.779 21.7637 262.587 21.5171 263.295 21.1411C264.003 20.7651 264.553 20.3159 264.943 19.7935C265.334 19.2661 265.529 18.7217 265.529 18.1602V17.4863H267.243V18.1602ZM260.344 24.3418H272.414V25.6895H267.155V30.3037H265.544V25.6895H260.344V24.3418ZM279.196 28.3262L282.404 25.1328H274.626V23.5947H282.404L279.196 20.4014L280.266 19.3467L285.275 24.3564L280.266 29.3809L279.196 28.3262Z" fill="white"/>
</svg>
