<svg width="326" height="167" viewBox="0 0 326 167" fill="none" xmlns="http://www.w3.org/2000/svg">
<rect width="326" height="167" rx="17" fill="white"/>
<path d="M26.9466 55.4688C24.1184 55.4688 21.6809 54.7891 19.6341 53.4297C17.5872 52.0547 16.0169 50.0625 14.9231 47.4531C13.845 44.8438 13.3059 41.7031 13.3059 38.0312C13.3059 34.375 13.8528 31.2422 14.9466 28.6328C16.0403 26.0078 17.6106 24.0156 19.6575 22.6562C21.7044 21.2812 24.1341 20.5938 26.9466 20.5938C29.7591 20.5938 32.1887 21.2812 34.2356 22.6562C36.2825 24.0156 37.8528 26.0078 38.9466 28.6328C40.0403 31.2422 40.5872 34.375 40.5872 38.0312C40.5872 41.7188 40.0403 44.8672 38.9466 47.4766C37.8528 50.0859 36.2825 52.0703 34.2356 53.4297C32.2044 54.7891 29.7747 55.4688 26.9466 55.4688ZM20.5247 38.2422C20.5247 41.9922 21.095 44.8359 22.2356 46.7734C23.3762 48.6953 24.9466 49.6562 26.9466 49.6562C28.9622 49.6562 30.5403 48.6797 31.6809 46.7266C32.8216 44.7578 33.3841 41.8594 33.3684 38.0312C33.3684 35.5 33.1106 33.3672 32.595 31.6328C32.0794 29.8828 31.3372 28.5703 30.3684 27.6953C29.3997 26.8203 28.2591 26.375 26.9466 26.3594C24.9309 26.375 23.3528 27.3906 22.2122 29.4062C21.0872 31.4219 20.5247 34.3672 20.5247 38.2422ZM43.4597 43.4219L57.8034 21.0625H66.6628V43.3281H70.9753V49H66.6628V55H59.9597V49H43.4597V43.4219ZM60.0534 43.3281V28.7969H59.7253L50.5847 43.0469V43.3281H60.0534Z" fill="#D8DFE4"/>
<path d="M93.9199 91.1797H86.9277V92.8789H91.9668V98.5234H79.7207V92.8789H84.7793V91.1797H77.8262V89.4414H93.9199V91.1797ZM79.2715 81.6094H92.4355V83.3477H90.0137V86.375H92.3379V88.1328H79.3691V86.375H81.6934V83.3477H79.2715V81.6094ZM89.8574 96.7656V94.5586H81.8691V96.7656H89.8574ZM87.8262 86.375V83.3477H83.8613V86.375H87.8262ZM109.779 90.1836H107.631V81.082H109.779V90.1836ZM95.248 88.6016C96.14 88.3411 96.9049 87.9603 97.543 87.459C98.1875 86.9577 98.6823 86.3848 99.0273 85.7402C99.3789 85.0957 99.5742 84.4219 99.6133 83.7188H95.8145V81.9609H105.521V83.7188H101.82C101.853 84.3828 102.042 85.0176 102.387 85.623C102.732 86.222 103.223 86.7526 103.861 87.2148C104.499 87.6771 105.261 88.0286 106.146 88.2695L105.092 89.9492C104.083 89.6562 103.21 89.2135 102.475 88.6211C101.739 88.0221 101.166 87.3158 100.756 86.502C100.346 87.4069 99.7565 88.1914 98.9883 88.8555C98.2266 89.513 97.3118 90.0013 96.2441 90.3203L95.248 88.6016ZM98.0996 90.9258H109.818V95.4766H100.268V96.9023H110.346V98.582H98.1387V93.8945H107.65V92.5859H98.0996V90.9258ZM126.283 82.1562C126.283 83.6602 125.961 85.0176 125.316 86.2285C124.678 87.4329 123.751 88.4648 122.533 89.3242C121.322 90.1836 119.857 90.8542 118.139 91.3359L117.26 89.6367C119.226 89.1029 120.782 88.3411 121.928 87.3516C123.08 86.3555 123.757 85.2096 123.959 83.9141H118.217V82.1562H126.283ZM120.307 91.7461H131.928V98.5039H120.307V91.7461ZM129.779 96.7852V93.4648H122.436V96.7852H129.779ZM126.361 85.418H129.76V81.1016H131.928V91.043H129.76V87.1953H126.361V85.418ZM143.627 82.5469C143.62 83.2891 143.878 84.0117 144.398 84.7148C144.926 85.418 145.665 86.0202 146.615 86.5215C147.572 87.0228 148.66 87.3516 149.877 87.5078L149.018 89.2656C147.533 89.0443 146.218 88.5885 145.072 87.8984C143.926 87.2018 143.064 86.3522 142.484 85.3496C141.905 86.3522 141.046 87.2018 139.906 87.8984C138.767 88.5885 137.462 89.0443 135.99 89.2656L135.131 87.5078C136.342 87.3516 137.419 87.0228 138.363 86.5215C139.307 86.0202 140.04 85.4212 140.561 84.7246C141.081 84.0215 141.342 83.2956 141.342 82.5469V81.6484H143.627V82.5469ZM134.428 90.7891H150.521V92.5859H143.51V98.7383H141.361V92.5859H134.428V90.7891ZM165.873 89.5195H157.357V82.1758H165.873V89.5195ZM158.412 97.0195C159.499 96.9284 160.466 96.7201 161.312 96.3945C162.165 96.069 162.836 95.6784 163.324 95.2227C163.819 94.7604 164.099 94.2917 164.164 93.8164H159.135V92.1758H164.213V90.6328H166.4V92.1758H171.498V93.8164H166.459C166.524 94.2786 166.798 94.7376 167.279 95.1934C167.768 95.6426 168.432 96.0332 169.271 96.3652C170.118 96.6908 171.081 96.9089 172.162 97.0195L171.42 98.6797C170.02 98.5299 168.79 98.1979 167.729 97.6836C166.674 97.1693 165.87 96.5378 165.316 95.7891C164.763 96.5443 163.952 97.1758 162.885 97.6836C161.817 98.1914 160.574 98.5234 159.154 98.6797L158.412 97.0195ZM163.725 87.8203V83.8945H159.506V87.8203H163.725ZM168.979 81.082H171.127V91.1406H168.979V81.082ZM185.678 84.832H181.146V87.8594H184.936V89.5391H181.146V92.9668C182.234 92.9538 183.174 92.918 183.969 92.8594C184.763 92.7943 185.58 92.6901 186.42 92.5469L186.615 94.2852C185.678 94.4674 184.76 94.5846 183.861 94.6367C182.969 94.6888 181.758 94.7148 180.229 94.7148H179.076V83.1133H185.678V84.832ZM185.795 87.6055H187.982V81.4336H190.014V97.8789H187.982V89.3633H185.795V87.6055ZM191.615 81.082H193.725V98.7383H191.615V81.082ZM204.896 83.5039C204.896 84.4089 205.17 85.291 205.717 86.1504C206.27 87.0098 207.032 87.752 208.002 88.377C208.972 88.9954 210.059 89.4089 211.264 89.6172L210.287 91.4336C208.816 91.1276 207.504 90.5514 206.352 89.7051C205.199 88.8587 204.333 87.8398 203.754 86.6484C203.37 87.4297 202.852 88.1458 202.201 88.7969C201.55 89.4414 200.801 89.9915 199.955 90.4473C199.109 90.8965 198.197 91.2253 197.221 91.4336L196.264 89.6172C197.449 89.4023 198.523 88.9857 199.486 88.3672C200.456 87.7422 201.215 87 201.762 86.1406C202.315 85.2812 202.592 84.4023 202.592 83.5039V82.1953H204.896V83.5039ZM195.775 94.6953H211.908V96.4922H195.775V94.6953ZM227.416 92.0586H215.033V82.4688H227.26V84.2266H217.24V86.3555H226.85V88.0547H217.24V90.3398H227.416V92.0586ZM213.061 94.8125H229.193V96.5898H213.061V94.8125Z" fill="black"/>
<path d="M81.8125 121.221C81.8125 121.941 81.9606 122.656 82.2568 123.367C82.5531 124.074 82.9518 124.702 83.4531 125.254C83.959 125.805 84.5104 126.215 85.1074 126.484L84.4512 127.332C83.7539 126.995 83.125 126.487 82.5645 125.808C82.0039 125.124 81.5778 124.352 81.2861 123.49C81.0081 124.406 80.5866 125.227 80.0215 125.951C79.4564 126.676 78.8184 127.218 78.1074 127.578L77.4238 126.676C78.0254 126.402 78.5791 125.981 79.085 125.411C79.5908 124.841 79.9919 124.19 80.2881 123.456C80.5889 122.718 80.7415 121.973 80.7461 121.221V119.006H81.8125V121.221ZM86.4336 117.953H87.5137V130.135H86.4336V117.953ZM95.0879 125.637C95.9538 125.637 96.7057 125.726 97.3438 125.903C97.9863 126.076 98.4808 126.332 98.8271 126.669C99.1781 127.002 99.3535 127.4 99.3535 127.865C99.3535 128.326 99.1781 128.722 98.8271 129.055C98.4808 129.387 97.9863 129.64 97.3438 129.813C96.7057 129.991 95.9538 130.08 95.0879 130.08C94.222 130.08 93.4678 129.991 92.8252 129.813C92.1872 129.64 91.695 129.387 91.3486 129.055C91.0068 128.722 90.8359 128.326 90.8359 127.865C90.8359 127.4 91.0068 127.002 91.3486 126.669C91.695 126.332 92.1872 126.076 92.8252 125.903C93.4678 125.726 94.222 125.637 95.0879 125.637ZM89.6055 123.627H94.1855V121.275H95.2383V123.627H100.666V124.502H89.6055V123.627ZM90.918 118.582H99.2578V119.607C99.2533 120.277 99.2327 120.845 99.1963 121.31C99.1598 121.77 99.0664 122.278 98.916 122.834L97.8633 122.711C98.0091 122.155 98.1003 121.656 98.1367 121.214C98.1732 120.767 98.1914 120.232 98.1914 119.607V119.457H90.918V118.582ZM91.9023 127.865C91.9023 128.143 92.0322 128.387 92.292 128.597C92.5518 128.802 92.9209 128.959 93.3994 129.068C93.8825 129.178 94.4453 129.232 95.0879 129.232C95.7305 129.232 96.291 129.178 96.7695 129.068C97.2526 128.959 97.624 128.802 97.8838 128.597C98.1481 128.387 98.2826 128.143 98.2871 127.865C98.2826 127.578 98.1481 127.33 97.8838 127.12C97.624 126.91 97.2526 126.749 96.7695 126.635C96.291 126.516 95.7305 126.457 95.0879 126.457C94.4453 126.457 93.8825 126.516 93.3994 126.635C92.9209 126.749 92.5518 126.91 92.292 127.12C92.0322 127.33 91.9023 127.578 91.9023 127.865ZM108.91 118.527C109.498 118.527 110.02 118.628 110.476 118.828C110.931 119.029 111.287 119.311 111.542 119.676C111.802 120.036 111.932 120.455 111.932 120.934C111.932 121.348 111.829 121.722 111.624 122.055C111.419 122.387 111.132 122.661 110.763 122.875C110.394 123.085 109.967 123.219 109.484 123.278V124.468C110.729 124.399 111.845 124.292 112.834 124.146L112.916 124.953C111.827 125.145 110.678 125.274 109.471 125.343C108.263 125.411 107.007 125.445 105.704 125.445H105.328L105.191 124.557H105.82C106.814 124.557 107.675 124.543 108.404 124.516V123.285C107.908 123.23 107.468 123.098 107.085 122.889C106.707 122.679 106.415 122.406 106.21 122.068C106.005 121.731 105.902 121.353 105.902 120.934C105.902 120.455 106.028 120.036 106.278 119.676C106.534 119.311 106.889 119.029 107.345 118.828C107.8 118.628 108.322 118.527 108.91 118.527ZM106.914 120.934C106.91 121.239 106.992 121.51 107.16 121.747C107.329 121.979 107.563 122.162 107.864 122.294C108.17 122.426 108.518 122.492 108.91 122.492C109.302 122.492 109.648 122.426 109.949 122.294C110.255 122.162 110.492 121.979 110.66 121.747C110.833 121.51 110.92 121.239 110.92 120.934C110.92 120.624 110.833 120.35 110.66 120.113C110.492 119.872 110.255 119.687 109.949 119.56C109.648 119.427 109.302 119.361 108.91 119.361C108.518 119.361 108.17 119.427 107.864 119.56C107.563 119.692 107.329 119.876 107.16 120.113C106.992 120.35 106.91 120.624 106.914 120.934ZM106.969 126.457H108.049V128.932H115.131V129.834H106.969V126.457ZM113.613 117.967H114.693V122.082H116.512V122.998H114.693V127.264H113.613V117.967ZM128.434 128.604H117.305V127.701H120.436V125.391H118.699V121.645H125.973V119.744H118.672V118.855H127.025V122.533H119.766V124.502H127.312V125.391H125.412V127.701H128.434V128.604ZM124.359 127.701V125.391H121.488V127.701H124.359ZM143.35 120.236H133.492V119.348H137.922V117.885H138.975V119.348H143.35V120.236ZM132.918 125.828H144.047V126.717H138.975V130.135H137.922V126.717H132.918V125.828ZM134.49 122.971C134.486 122.538 134.641 122.169 134.955 121.863C135.27 121.558 135.723 121.328 136.315 121.173C136.912 121.013 137.626 120.934 138.455 120.934C139.275 120.934 139.982 121.013 140.574 121.173C141.171 121.328 141.627 121.558 141.941 121.863C142.26 122.169 142.42 122.538 142.42 122.971C142.42 123.395 142.26 123.757 141.941 124.058C141.627 124.358 141.171 124.589 140.574 124.748C139.982 124.908 139.275 124.99 138.455 124.994C137.626 124.99 136.912 124.908 136.315 124.748C135.723 124.589 135.27 124.358 134.955 124.058C134.641 123.757 134.486 123.395 134.49 122.971ZM135.598 122.971C135.593 123.217 135.7 123.429 135.919 123.606C136.142 123.784 136.466 123.921 136.89 124.017C137.313 124.112 137.822 124.16 138.414 124.16C139.326 124.16 140.034 124.058 140.54 123.853C141.05 123.643 141.308 123.349 141.312 122.971C141.308 122.588 141.055 122.292 140.554 122.082C140.052 121.868 139.353 121.758 138.455 121.754C137.548 121.758 136.844 121.868 136.343 122.082C135.841 122.292 135.593 122.588 135.598 122.971ZM152.674 120.346C152.674 120.783 152.811 121.2 153.084 121.597C153.362 121.989 153.74 122.33 154.219 122.622C154.702 122.914 155.244 123.13 155.846 123.271L155.354 124.092C154.62 123.914 153.975 123.629 153.419 123.237C152.863 122.841 152.448 122.371 152.175 121.829C151.906 122.422 151.491 122.937 150.931 123.374C150.375 123.812 149.725 124.133 148.982 124.338L148.49 123.504C149.092 123.34 149.63 123.103 150.104 122.793C150.577 122.479 150.949 122.109 151.218 121.686C151.487 121.262 151.621 120.815 151.621 120.346V120.059H148.873V119.184H151.621V117.898H152.701V119.184H155.422V120.059H152.674V120.346ZM150.719 124.926H158.594V127.797H151.812V129.109H159.059V129.971H150.746V126.977H157.527V125.773H150.719V124.926ZM155.053 120.988H157.527V117.953H158.594V124.338H157.527V121.863H155.053V120.988ZM170.707 130.135H169.627V123.271H166.961V122.383H169.627V117.953H170.707V130.135ZM160.521 126.867C161.105 126.585 161.643 126.163 162.135 125.603C162.632 125.037 163.026 124.399 163.317 123.688C163.614 122.978 163.762 122.269 163.762 121.562V120.1H160.986V119.211H167.631V120.1H164.842V121.562C164.842 122.223 164.988 122.893 165.279 123.572C165.571 124.247 165.963 124.853 166.455 125.391C166.947 125.928 167.485 126.329 168.068 126.594L167.426 127.455C166.738 127.113 166.116 126.601 165.56 125.917C165.008 125.229 164.593 124.459 164.315 123.606C164.042 124.509 163.623 125.327 163.058 126.061C162.497 126.79 161.87 127.337 161.178 127.701L160.521 126.867ZM182.232 121.973H184.064V122.875H182.232V127.072H181.166V117.967H182.232V121.973ZM172.758 119.457H175.848V117.967H176.914V119.457H180.004V120.332H172.758V119.457ZM173.455 123.271C173.455 122.816 173.576 122.417 173.817 122.075C174.059 121.733 174.401 121.469 174.843 121.282C175.285 121.095 175.798 121.002 176.381 121.002C176.955 121.002 177.461 121.095 177.898 121.282C178.34 121.469 178.685 121.733 178.931 122.075C179.177 122.417 179.302 122.816 179.307 123.271C179.302 123.723 179.177 124.119 178.931 124.461C178.685 124.798 178.34 125.058 177.898 125.24C177.461 125.423 176.955 125.514 176.381 125.514C175.798 125.514 175.285 125.423 174.843 125.24C174.401 125.058 174.059 124.798 173.817 124.461C173.576 124.119 173.455 123.723 173.455 123.271ZM174.48 123.271C174.48 123.554 174.558 123.802 174.713 124.017C174.868 124.226 175.089 124.388 175.376 124.502C175.668 124.616 176.003 124.671 176.381 124.666C176.755 124.671 177.085 124.616 177.372 124.502C177.664 124.388 177.889 124.226 178.049 124.017C178.208 123.802 178.29 123.554 178.295 123.271C178.29 122.989 178.208 122.741 178.049 122.526C177.889 122.308 177.666 122.141 177.379 122.027C177.096 121.909 176.771 121.85 176.401 121.85C176.019 121.85 175.681 121.909 175.39 122.027C175.098 122.141 174.872 122.305 174.713 122.52C174.558 122.734 174.48 122.984 174.48 123.271ZM174.631 126.348H175.684V128.945H182.793V129.848H174.631V126.348ZM199.418 124.721H194.4V126.156H198.064V129.943H189.697V126.156H193.348V124.721H188.344V123.832H199.418V124.721ZM189.383 118.35H198.365V119.238H196.492V121.795H198.324V122.684H189.424V121.795H191.256V119.238H189.383V118.35ZM197.012 129.068V127.004H190.764V129.068H197.012ZM195.426 121.795V119.238H192.322V121.795H195.426ZM210.465 124.27H209.412V117.953H210.465V124.27ZM200.621 123.436C201.223 123.235 201.758 122.946 202.228 122.567C202.701 122.185 203.071 121.745 203.335 121.248C203.604 120.747 203.738 120.223 203.738 119.676V119.539H200.895V118.65H207.621V119.539H204.818V119.676C204.818 120.195 204.951 120.69 205.215 121.159C205.484 121.629 205.855 122.041 206.329 122.396C206.803 122.747 207.343 123.012 207.949 123.189L207.416 124.023C206.696 123.796 206.062 123.451 205.516 122.991C204.973 122.526 204.568 121.984 204.299 121.364C204.035 122.043 203.624 122.638 203.068 123.148C202.517 123.654 201.87 124.033 201.127 124.283L200.621 123.436ZM202.576 124.857H210.479V127.756H203.656V129.109H210.916V129.971H202.604V126.949H209.412V125.705H202.576V124.857ZM222.332 118.746C222.332 119.749 222.102 120.66 221.642 121.48C221.186 122.296 220.532 123 219.68 123.593C218.832 124.181 217.82 124.643 216.645 124.98L216.193 124.133C217.164 123.859 218.009 123.502 218.729 123.06C219.45 122.618 220.019 122.107 220.438 121.528C220.862 120.95 221.113 120.318 221.19 119.635H216.822V118.746H222.332ZM218.244 125.418H226.133V129.943H218.244V125.418ZM225.066 129.068V126.279H219.283V129.068H225.066ZM222.359 121.098H225.053V117.967H226.133V124.898H225.053V122H222.359V121.098ZM234.254 119.088C234.254 119.639 234.466 120.166 234.89 120.667C235.318 121.164 235.872 121.583 236.551 121.925C237.234 122.262 237.945 122.483 238.684 122.588L238.246 123.463C237.608 123.358 236.991 123.176 236.394 122.916C235.797 122.652 235.261 122.324 234.787 121.932C234.318 121.535 233.958 121.095 233.707 120.612C233.456 121.1 233.096 121.54 232.627 121.932C232.158 122.324 231.624 122.652 231.027 122.916C230.43 123.176 229.811 123.358 229.168 123.463L228.73 122.588C229.473 122.483 230.184 122.262 230.863 121.925C231.542 121.588 232.091 121.171 232.511 120.674C232.935 120.177 233.146 119.648 233.146 119.088V118.391H234.254V119.088ZM228.156 124.803H239.23V125.705H234.199V130.107H233.146V125.705H228.156V124.803ZM243.92 118.746C244.54 118.751 245.093 118.874 245.581 119.115C246.073 119.357 246.458 119.694 246.736 120.127C247.019 120.555 247.16 121.048 247.16 121.604C247.16 122.105 247.046 122.556 246.818 122.957C246.59 123.358 246.271 123.684 245.861 123.935C245.456 124.185 244.991 124.345 244.467 124.413V126.478C245.725 126.423 246.837 126.334 247.803 126.211L247.871 127.018C246.837 127.195 245.75 127.316 244.61 127.38C243.471 127.439 242.275 127.469 241.021 127.469H240.283L240.105 126.566C241.541 126.557 242.635 126.541 243.387 126.519V124.413C242.849 124.349 242.375 124.192 241.965 123.941C241.559 123.691 241.243 123.365 241.015 122.964C240.791 122.558 240.68 122.105 240.68 121.604C240.68 121.048 240.816 120.555 241.09 120.127C241.363 119.694 241.746 119.357 242.238 119.115C242.73 118.874 243.291 118.751 243.92 118.746ZM241.732 121.604C241.728 121.977 241.819 122.312 242.006 122.608C242.193 122.9 242.452 123.128 242.785 123.292C243.118 123.451 243.496 123.531 243.92 123.531C244.335 123.531 244.706 123.451 245.034 123.292C245.367 123.128 245.627 122.9 245.813 122.608C246.005 122.312 246.103 121.977 246.107 121.604C246.103 121.23 246.005 120.897 245.813 120.605C245.627 120.314 245.367 120.086 245.034 119.922C244.706 119.758 244.335 119.676 243.92 119.676C243.496 119.676 243.118 119.758 242.785 119.922C242.452 120.086 242.193 120.314 242.006 120.605C241.819 120.897 241.728 121.23 241.732 121.604ZM248.582 117.953H249.648V122.971H251.631V123.9H249.648V130.107H248.582V117.953ZM260.053 119.867C260.048 120.437 260.171 120.979 260.422 121.494C260.677 122.009 261.033 122.463 261.488 122.854C261.944 123.242 262.468 123.536 263.061 123.736L262.459 124.57C261.789 124.32 261.201 123.955 260.695 123.477C260.189 122.998 259.804 122.44 259.54 121.802C259.28 122.531 258.882 123.167 258.344 123.709C257.811 124.251 257.177 124.661 256.443 124.939L255.855 124.064C256.475 123.846 257.02 123.531 257.489 123.121C257.963 122.706 258.33 122.223 258.59 121.672C258.85 121.116 258.982 120.528 258.986 119.908V118.65H260.053V119.867ZM257.838 127.811C257.838 127.327 258 126.915 258.323 126.573C258.651 126.227 259.121 125.965 259.731 125.787C260.342 125.605 261.069 125.514 261.912 125.514C262.751 125.514 263.475 125.605 264.086 125.787C264.697 125.965 265.166 126.227 265.494 126.573C265.822 126.915 265.986 127.327 265.986 127.811C265.986 128.289 265.822 128.697 265.494 129.034C265.166 129.376 264.697 129.636 264.086 129.813C263.475 129.991 262.751 130.08 261.912 130.08C261.069 130.08 260.342 129.991 259.731 129.813C259.121 129.636 258.651 129.376 258.323 129.034C258 128.697 257.838 128.289 257.838 127.811ZM258.904 127.811C258.904 128.098 259.023 128.348 259.26 128.562C259.497 128.772 259.839 128.934 260.285 129.048C260.736 129.162 261.267 129.219 261.878 129.219C262.502 129.219 263.042 129.162 263.498 129.048C263.954 128.938 264.305 128.779 264.551 128.569C264.797 128.355 264.92 128.102 264.92 127.811C264.92 127.51 264.799 127.252 264.558 127.038C264.316 126.819 263.967 126.653 263.512 126.539C263.061 126.421 262.527 126.361 261.912 126.361C261.292 126.361 260.755 126.421 260.299 126.539C259.848 126.653 259.501 126.819 259.26 127.038C259.023 127.252 258.904 127.51 258.904 127.811ZM262.158 120.564H264.865V117.953H265.945V125.158H264.865V121.453H262.158V120.564ZM277.785 122.246H269.486V118.199H270.553V121.357H277.785V122.246ZM267.969 123.668H279.057V124.557H267.969V123.668ZM269.309 127.852C269.309 127.382 269.475 126.983 269.808 126.655C270.14 126.323 270.621 126.072 271.25 125.903C271.879 125.735 272.631 125.65 273.506 125.65C274.372 125.65 275.117 125.735 275.741 125.903C276.366 126.072 276.844 126.323 277.177 126.655C277.514 126.983 277.685 127.382 277.689 127.852C277.685 128.316 277.514 128.713 277.177 129.041C276.844 129.374 276.366 129.624 275.741 129.793C275.117 129.966 274.372 130.053 273.506 130.053C272.631 130.053 271.879 129.966 271.25 129.793C270.621 129.624 270.14 129.374 269.808 129.041C269.475 128.713 269.309 128.316 269.309 127.852ZM270.402 127.852C270.398 128.134 270.519 128.378 270.765 128.583C271.011 128.784 271.366 128.938 271.831 129.048C272.3 129.162 272.859 129.219 273.506 129.219C274.144 129.219 274.695 129.162 275.16 129.048C275.625 128.938 275.983 128.784 276.233 128.583C276.484 128.378 276.609 128.134 276.609 127.852C276.605 127.423 276.329 127.093 275.782 126.86C275.235 126.623 274.477 126.503 273.506 126.498C272.526 126.503 271.763 126.623 271.216 126.86C270.669 127.093 270.398 127.423 270.402 127.852ZM288.586 120.305H285.086V122.711H288.025V123.572H285.086V126.307C285.993 126.298 286.747 126.27 287.349 126.225C287.955 126.174 288.577 126.092 289.215 125.979L289.311 126.854C288.654 126.986 288.009 127.072 287.376 127.113C286.747 127.154 285.897 127.177 284.826 127.182H284.061V119.443H288.586V120.305ZM288.682 122.574H290.473V118.254H291.498V129.479H290.473V123.463H288.682V122.574ZM292.947 117.953H293.986V130.107H292.947V117.953ZM83.5488 136.744C83.5488 137.41 83.7721 138.05 84.2188 138.665C84.6654 139.28 85.235 139.804 85.9277 140.237C86.625 140.666 87.3314 140.946 88.0469 141.078L87.5547 141.98C86.9303 141.835 86.3174 141.598 85.7158 141.27C85.1188 140.941 84.5811 140.536 84.1025 140.053C83.624 139.57 83.2572 139.041 83.002 138.467C82.7467 139.041 82.3799 139.57 81.9014 140.053C81.4229 140.531 80.8828 140.937 80.2812 141.27C79.6842 141.598 79.0736 141.835 78.4492 141.98L77.957 141.078C78.6725 140.941 79.3743 140.659 80.0625 140.23C80.7552 139.802 81.3226 139.28 81.7646 138.665C82.2067 138.05 82.4277 137.41 82.4277 136.744V135.814H83.5488V136.744ZM77.4922 144.564H88.6211V145.453H77.4922V144.564ZM99.4355 142.404H91.0273V136.006H99.2988V136.908H92.1211V138.713H99.0391V139.574H92.1211V141.529H99.4355V142.404ZM89.5918 144.633H100.721V145.521H89.5918V144.633ZM112.807 141.447H101.678V140.6H112.807V141.447ZM103.018 142.418H111.412V145.002H104.111V146.164H111.809V146.943H103.031V144.264H110.346V143.225H103.018V142.418ZM103.086 135.322H111.371V137.838H104.193V138.904H111.59V139.684H103.127V137.1H110.291V136.102H103.086V135.322ZM128.379 142.281H117.291V141.406H122.295V140.203H118.768V135.309H126.998V136.184H119.848V137.318H126.67V138.139H119.848V139.342H127.066V140.203H123.361V141.406H128.379V142.281ZM118.645 145.139C118.64 144.505 119 144.022 119.725 143.689C120.454 143.352 121.493 143.188 122.842 143.197C124.177 143.188 125.207 143.352 125.932 143.689C126.656 144.022 127.021 144.505 127.025 145.139C127.021 145.772 126.659 146.253 125.938 146.581C125.218 146.914 124.186 147.08 122.842 147.08C121.484 147.08 120.442 146.914 119.718 146.581C118.998 146.253 118.64 145.772 118.645 145.139ZM119.725 145.139C119.72 145.508 119.984 145.788 120.518 145.979C121.055 146.166 121.83 146.255 122.842 146.246C123.84 146.255 124.605 146.166 125.139 145.979C125.672 145.788 125.941 145.508 125.945 145.139C125.941 144.779 125.67 144.501 125.132 144.305C124.599 144.109 123.835 144.008 122.842 144.004C121.835 144.008 121.062 144.109 120.524 144.305C119.987 144.501 119.72 144.779 119.725 145.139ZM135.475 137.934H129.377V137.059H131.906V135.322H132.973V137.059H135.475V137.934ZM129.814 141.516C129.814 140.987 129.926 140.513 130.149 140.094C130.377 139.674 130.689 139.346 131.086 139.109C131.482 138.872 131.929 138.754 132.426 138.754C132.932 138.754 133.383 138.872 133.779 139.109C134.18 139.346 134.493 139.674 134.716 140.094C134.944 140.508 135.06 140.982 135.064 141.516C135.06 142.053 134.944 142.534 134.716 142.958C134.493 143.377 134.18 143.708 133.779 143.949C133.383 144.186 132.932 144.305 132.426 144.305C131.929 144.305 131.48 144.186 131.079 143.949C130.683 143.708 130.373 143.377 130.149 142.958C129.926 142.534 129.814 142.053 129.814 141.516ZM130.771 141.516C130.771 141.871 130.842 142.19 130.983 142.473C131.125 142.751 131.321 142.969 131.571 143.129C131.822 143.284 132.107 143.361 132.426 143.361C132.745 143.361 133.032 143.284 133.287 143.129C133.542 142.969 133.743 142.751 133.889 142.473C134.035 142.19 134.107 141.871 134.107 141.516C134.107 141.165 134.035 140.85 133.889 140.572C133.743 140.29 133.542 140.069 133.287 139.909C133.032 139.745 132.745 139.661 132.426 139.656C132.107 139.661 131.822 139.745 131.571 139.909C131.321 140.069 131.125 140.29 130.983 140.572C130.842 140.85 130.771 141.165 130.771 141.516ZM136.104 135.254H137.115V140.08H138.729V134.953H139.754V147.107H138.729V140.969H137.115V146.506H136.104V135.254ZM149.625 143.607C150.979 143.535 152.141 143.425 153.111 143.279L153.193 144.072C152.04 144.282 150.851 144.421 149.625 144.489C148.399 144.558 147.107 144.592 145.749 144.592H145.236L145.086 143.703C146.599 143.694 147.761 143.676 148.572 143.648V141.365H149.625V143.607ZM145.455 140.941C146.057 140.764 146.588 140.504 147.048 140.162C147.513 139.816 147.875 139.41 148.135 138.945C148.399 138.476 148.536 137.975 148.545 137.441H145.756V136.553H148.572V135.049H149.625V136.553H152.482V137.441H149.625C149.634 137.952 149.773 138.433 150.042 138.884C150.311 139.33 150.68 139.72 151.149 140.053C151.619 140.381 152.154 140.632 152.756 140.805L152.25 141.652C151.521 141.434 150.881 141.099 150.329 140.647C149.782 140.192 149.372 139.659 149.099 139.048C148.839 139.695 148.436 140.253 147.889 140.723C147.346 141.192 146.708 141.538 145.975 141.762L145.455 140.941ZM153.918 134.953H154.984V147.135H153.918V134.953ZM161.178 136.922C161.178 137.464 161.305 137.988 161.561 138.494C161.82 138.995 162.178 139.438 162.634 139.82C163.094 140.203 163.616 140.495 164.199 140.695L163.611 141.543C162.941 141.297 162.351 140.935 161.841 140.456C161.335 139.973 160.948 139.412 160.679 138.774C160.419 139.494 160.027 140.123 159.503 140.661C158.979 141.199 158.361 141.607 157.65 141.885L157.076 141.023C157.678 140.8 158.209 140.479 158.669 140.06C159.129 139.64 159.487 139.155 159.742 138.604C159.997 138.048 160.125 137.46 160.125 136.84V135.582H161.178V136.922ZM158.689 144.865C158.689 144.405 158.851 144.011 159.175 143.683C159.498 143.35 159.963 143.097 160.569 142.924C161.175 142.751 161.893 142.664 162.723 142.664C163.552 142.664 164.265 142.751 164.862 142.924C165.464 143.097 165.924 143.35 166.243 143.683C166.567 144.011 166.729 144.405 166.729 144.865C166.729 145.335 166.569 145.733 166.25 146.062C165.931 146.394 165.471 146.647 164.869 146.82C164.268 146.993 163.552 147.08 162.723 147.08C161.889 147.08 161.169 146.993 160.562 146.82C159.961 146.647 159.498 146.394 159.175 146.062C158.851 145.729 158.689 145.33 158.689 144.865ZM159.77 144.865C159.765 145.148 159.881 145.392 160.118 145.597C160.355 145.802 160.695 145.959 161.137 146.068C161.583 146.178 162.112 146.232 162.723 146.232C163.333 146.232 163.86 146.178 164.302 146.068C164.748 145.959 165.09 145.802 165.327 145.597C165.569 145.392 165.689 145.148 165.689 144.865C165.689 144.592 165.569 144.355 165.327 144.154C165.09 143.949 164.748 143.794 164.302 143.689C163.855 143.58 163.329 143.525 162.723 143.525C162.117 143.525 161.59 143.58 161.144 143.689C160.697 143.799 160.355 143.954 160.118 144.154C159.881 144.355 159.765 144.592 159.77 144.865ZM165.553 134.953H166.619V138.125H168.451V139.027H166.619V142.35H165.553V134.953ZM173.195 135.842C173.824 135.842 174.385 135.963 174.877 136.204C175.374 136.446 175.761 136.783 176.039 137.216C176.322 137.649 176.463 138.143 176.463 138.699C176.463 139.255 176.322 139.75 176.039 140.183C175.761 140.616 175.374 140.953 174.877 141.194C174.385 141.436 173.824 141.557 173.195 141.557C172.562 141.557 171.994 141.436 171.493 141.194C170.996 140.953 170.609 140.616 170.331 140.183C170.053 139.75 169.914 139.255 169.914 138.699C169.914 138.143 170.053 137.649 170.331 137.216C170.609 136.783 170.996 136.446 171.493 136.204C171.994 135.963 172.562 135.842 173.195 135.842ZM169.853 143.539C171.233 143.539 172.544 143.512 173.783 143.457C175.027 143.402 176.203 143.293 177.311 143.129L177.393 143.922C176.167 144.15 174.92 144.296 173.653 144.359C172.386 144.423 170.98 144.455 169.436 144.455L169.285 143.539H169.853ZM170.967 138.699C170.967 139.073 171.06 139.406 171.247 139.697C171.438 139.984 171.703 140.21 172.04 140.374C172.382 140.534 172.767 140.613 173.195 140.613C173.619 140.613 174 140.534 174.337 140.374C174.674 140.21 174.936 139.984 175.123 139.697C175.314 139.406 175.41 139.073 175.41 138.699C175.41 138.33 175.314 138 175.123 137.708C174.936 137.416 174.674 137.191 174.337 137.031C174 136.867 173.619 136.785 173.195 136.785C172.767 136.785 172.382 136.867 172.04 137.031C171.703 137.191 171.438 137.416 171.247 137.708C171.06 138 170.967 138.33 170.967 138.699ZM178.117 134.953H179.184V147.135H178.117V134.953ZM188.891 136.922C188.891 137.464 189.018 137.988 189.273 138.494C189.533 138.995 189.891 139.438 190.347 139.82C190.807 140.203 191.329 140.495 191.912 140.695L191.324 141.543C190.654 141.297 190.064 140.935 189.554 140.456C189.048 139.973 188.66 139.412 188.392 138.774C188.132 139.494 187.74 140.123 187.216 140.661C186.692 141.199 186.074 141.607 185.363 141.885L184.789 141.023C185.391 140.8 185.922 140.479 186.382 140.06C186.842 139.64 187.2 139.155 187.455 138.604C187.71 138.048 187.838 137.46 187.838 136.84V135.582H188.891V136.922ZM186.402 144.865C186.402 144.405 186.564 144.011 186.888 143.683C187.211 143.35 187.676 143.097 188.282 142.924C188.888 142.751 189.606 142.664 190.436 142.664C191.265 142.664 191.978 142.751 192.575 142.924C193.177 143.097 193.637 143.35 193.956 143.683C194.28 144.011 194.441 144.405 194.441 144.865C194.441 145.335 194.282 145.733 193.963 146.062C193.644 146.394 193.184 146.647 192.582 146.82C191.98 146.993 191.265 147.08 190.436 147.08C189.602 147.08 188.882 146.993 188.275 146.82C187.674 146.647 187.211 146.394 186.888 146.062C186.564 145.729 186.402 145.33 186.402 144.865ZM187.482 144.865C187.478 145.148 187.594 145.392 187.831 145.597C188.068 145.802 188.408 145.959 188.85 146.068C189.296 146.178 189.825 146.232 190.436 146.232C191.046 146.232 191.573 146.178 192.015 146.068C192.461 145.959 192.803 145.802 193.04 145.597C193.282 145.392 193.402 145.148 193.402 144.865C193.402 144.592 193.282 144.355 193.04 144.154C192.803 143.949 192.461 143.794 192.015 143.689C191.568 143.58 191.042 143.525 190.436 143.525C189.829 143.525 189.303 143.58 188.856 143.689C188.41 143.799 188.068 143.954 187.831 144.154C187.594 144.355 187.478 144.592 187.482 144.865ZM193.266 134.953H194.332V138.125H196.164V139.027H194.332V142.35H193.266V134.953ZM202.234 137.236H198.447V139.574H202.057V140.436H198.447V143.184C199.4 143.179 200.188 143.156 200.812 143.115C201.437 143.074 202.066 142.997 202.699 142.883L202.795 143.771C202.134 143.899 201.485 143.986 200.847 144.031C200.213 144.077 199.425 144.1 198.481 144.1H198.201H197.422V136.361H202.234V137.236ZM203.602 135.213H204.641V139.848H206.309V134.953H207.348V147.107H206.309V140.736H204.641V146.492H203.602V135.213ZM220.145 141.447H209.016V140.6H220.145V141.447ZM210.355 142.418H218.75V145.002H211.449V146.164H219.146V146.943H210.369V144.264H217.684V143.225H210.355V142.418ZM210.424 135.322H218.709V137.838H211.531V138.904H218.928V139.684H210.465V137.1H217.629V136.102H210.424V135.322ZM234.131 138.645H235.949V139.547H234.131V143.115H233.051V134.967H234.131V138.645ZM224.588 141.871C225.992 141.871 227.09 141.86 227.883 141.837V140.941C227.167 140.878 226.6 140.688 226.181 140.374C225.761 140.06 225.554 139.652 225.559 139.15C225.559 138.786 225.675 138.469 225.907 138.2C226.144 137.931 226.477 137.724 226.905 137.578C227.338 137.432 227.837 137.359 228.402 137.359C228.972 137.359 229.471 137.432 229.899 137.578C230.332 137.724 230.665 137.931 230.897 138.2C231.134 138.469 231.255 138.786 231.26 139.15C231.255 139.647 231.046 140.053 230.631 140.367C230.221 140.682 229.66 140.873 228.949 140.941V141.796C230.202 141.737 231.319 141.634 232.299 141.488L232.395 142.268C231.305 142.459 230.171 142.587 228.99 142.65C227.814 142.714 226.559 142.746 225.224 142.746H224.711L224.588 141.871ZM224.889 136.074H227.883V134.857H228.949V136.074H231.93V136.895H224.889V136.074ZM226.078 143.717H234.131V147.107H233.051V144.578H226.078V143.717ZM226.584 139.15C226.584 139.36 226.657 139.547 226.803 139.711C226.949 139.87 227.158 139.993 227.432 140.08C227.71 140.167 228.033 140.208 228.402 140.203C228.771 140.208 229.093 140.167 229.366 140.08C229.644 139.993 229.858 139.87 230.009 139.711C230.159 139.547 230.234 139.36 230.234 139.15C230.234 138.831 230.068 138.578 229.735 138.392C229.407 138.205 228.963 138.116 228.402 138.125C227.842 138.116 227.397 138.205 227.069 138.392C226.741 138.578 226.579 138.831 226.584 139.15ZM246.777 143.854H245.711V134.967H246.777V143.854ZM237.029 138.795C237.029 138.221 237.166 137.708 237.439 137.257C237.717 136.806 238.098 136.452 238.581 136.197C239.069 135.942 239.613 135.814 240.215 135.814C240.816 135.814 241.359 135.942 241.842 136.197C242.325 136.452 242.705 136.806 242.983 137.257C243.261 137.708 243.4 138.221 243.4 138.795C243.4 139.374 243.261 139.891 242.983 140.347C242.705 140.802 242.325 141.158 241.842 141.413C241.359 141.664 240.816 141.789 240.215 141.789C239.613 141.789 239.069 141.664 238.581 141.413C238.098 141.158 237.717 140.802 237.439 140.347C237.166 139.891 237.029 139.374 237.029 138.795ZM238.082 138.795C238.077 139.191 238.166 139.547 238.349 139.861C238.535 140.171 238.791 140.413 239.114 140.586C239.442 140.759 239.809 140.846 240.215 140.846C240.616 140.846 240.978 140.759 241.302 140.586C241.625 140.413 241.881 140.171 242.067 139.861C242.254 139.547 242.348 139.191 242.348 138.795C242.348 138.403 242.254 138.054 242.067 137.749C241.881 137.439 241.625 137.198 241.302 137.024C240.978 136.847 240.616 136.758 240.215 136.758C239.809 136.758 239.442 136.844 239.114 137.018C238.791 137.191 238.535 137.432 238.349 137.742C238.166 138.052 238.077 138.403 238.082 138.795ZM238.93 142.951H239.996V145.945H247.16V146.848H238.93V142.951ZM258.344 138.07H260.176V138.986H258.344V142.021H257.277V134.953H258.344V138.07ZM248.869 136.211H251.959V134.844H253.025V136.211H256.115V137.1H248.869V136.211ZM249.566 139.793C249.566 139.365 249.687 138.991 249.929 138.672C250.17 138.348 250.512 138.1 250.954 137.927C251.396 137.749 251.909 137.66 252.492 137.66C253.071 137.66 253.579 137.749 254.017 137.927C254.459 138.1 254.8 138.348 255.042 138.672C255.288 138.991 255.413 139.365 255.418 139.793C255.413 140.221 255.288 140.597 255.042 140.921C254.8 141.244 254.459 141.493 254.017 141.666C253.575 141.839 253.066 141.926 252.492 141.926C251.909 141.926 251.396 141.839 250.954 141.666C250.512 141.493 250.17 141.244 249.929 140.921C249.687 140.597 249.566 140.221 249.566 139.793ZM250.592 139.793C250.592 140.053 250.669 140.283 250.824 140.483C250.979 140.679 251.2 140.832 251.487 140.941C251.779 141.051 252.114 141.105 252.492 141.105C252.866 141.105 253.196 141.051 253.483 140.941C253.775 140.832 254.001 140.679 254.16 140.483C254.32 140.283 254.402 140.053 254.406 139.793C254.402 139.533 254.317 139.305 254.153 139.109C253.994 138.909 253.771 138.756 253.483 138.651C253.196 138.542 252.866 138.49 252.492 138.494C252.114 138.49 251.781 138.542 251.494 138.651C251.207 138.756 250.984 138.909 250.824 139.109C250.669 139.305 250.592 139.533 250.592 139.793ZM250.66 142.555H251.727V143.854H257.277V142.555H258.344V146.943H250.66V142.555ZM257.277 146.082V144.701H251.727V146.082H257.277ZM270.963 147.107H269.896V134.953H270.963V147.107ZM261.734 136.156H262.787V143.047C263.79 143.038 264.767 142.99 265.72 142.903C266.672 142.812 267.632 142.664 268.598 142.459L268.748 143.375C267.714 143.589 266.706 143.744 265.727 143.84C264.751 143.931 263.749 143.977 262.719 143.977H261.734V136.156ZM282.447 139.766H284.484V140.668H282.447V147.135H281.381V134.953H282.447V139.766ZM273.574 136.143H279.248V137.031H274.641V143.184C275.789 143.179 276.785 143.145 277.628 143.081C278.471 143.017 279.33 142.906 280.205 142.746L280.342 143.676C279.439 143.84 278.555 143.949 277.689 144.004C276.828 144.059 275.775 144.086 274.531 144.086H273.574V136.143ZM286.426 146.082C286.266 146.082 286.118 146.041 285.981 145.959C285.849 145.877 285.742 145.77 285.66 145.638C285.583 145.501 285.546 145.353 285.551 145.193C285.546 145.038 285.583 144.895 285.66 144.763C285.742 144.626 285.849 144.519 285.981 144.441C286.118 144.359 286.266 144.318 286.426 144.318C286.581 144.318 286.724 144.357 286.856 144.435C286.993 144.512 287.1 144.617 287.178 144.749C287.26 144.881 287.301 145.025 287.301 145.18C287.301 145.426 287.216 145.638 287.048 145.815C286.879 145.989 286.672 146.077 286.426 146.082Z" fill="#737373"/>
<path d="M85.8203 51.4587C85.0204 51.4587 84.3434 51.1816 83.7893 50.6274C83.2351 50.0732 82.958 49.3962 82.958 48.5964V27.4043C82.958 26.6044 83.2351 25.9274 83.7893 25.3732C84.3434 24.8191 85.0204 24.542 85.8203 24.542H110.179C110.979 24.542 111.656 24.8191 112.21 25.3732C112.764 25.9274 113.041 26.6044 113.041 27.4043V48.5964C113.041 49.3962 112.764 50.0732 112.21 50.6274C111.656 51.1816 110.979 51.4587 110.179 51.4587H85.8203ZM85.8203 49.0837H110.179C110.301 49.0837 110.413 49.0329 110.514 48.9313C110.616 48.8299 110.666 48.7183 110.666 48.5964V27.4043C110.666 27.2823 110.616 27.1707 110.514 27.0694C110.413 26.9678 110.301 26.917 110.179 26.917H85.8203C85.6984 26.917 85.5867 26.9678 85.4854 27.0694C85.3838 27.1707 85.333 27.2823 85.333 27.4043V48.5964C85.333 48.7183 85.3838 48.8299 85.4854 48.9313C85.5867 49.0329 85.6984 49.0837 85.8203 49.0837ZM93.2497 45.5212C93.5867 45.5212 93.8688 45.4074 94.096 45.18C94.3234 44.9527 94.4372 44.6706 94.4372 44.3337C94.4372 43.9967 94.3234 43.7146 94.096 43.4874C93.8688 43.2599 93.5867 43.1462 93.2497 43.1462H88.4997C88.1627 43.1462 87.8806 43.2599 87.6534 43.4874C87.4259 43.7146 87.3122 43.9967 87.3122 44.3337C87.3122 44.6706 87.4259 44.9527 87.6534 45.18C87.8806 45.4074 88.1627 45.5212 88.4997 45.5212H93.2497ZM102.037 38.8407L100.615 37.4188C100.38 37.1835 100.102 37.0672 99.7809 37.0701C99.4603 37.0733 99.1822 37.1976 98.9465 37.443C98.7275 37.6786 98.6164 37.9568 98.6132 38.2774C98.6103 38.598 98.7266 38.8762 98.9619 39.1118L101.035 41.1852C101.322 41.4715 101.656 41.6147 102.037 41.6147C102.419 41.6147 102.753 41.4715 103.039 41.1852L108.477 35.7472C108.712 35.5116 108.833 35.236 108.838 34.9203C108.843 34.6047 108.723 34.3241 108.477 34.0784C108.231 33.833 107.949 33.7103 107.631 33.7103C107.312 33.7103 107.03 33.833 106.784 34.0784L102.037 38.8407ZM93.2497 39.1878C93.5867 39.1878 93.8688 39.0741 94.096 38.8466C94.3234 38.6194 94.4372 38.3373 94.4372 38.0003C94.4372 37.6633 94.3234 37.3812 94.096 37.154C93.8688 36.9266 93.5867 36.8128 93.2497 36.8128H88.4997C88.1627 36.8128 87.8806 36.9266 87.6534 37.154C87.4259 37.3812 87.3122 37.6633 87.3122 38.0003C87.3122 38.3373 87.4259 38.6194 87.6534 38.8466C87.8806 39.0741 88.1627 39.1878 88.4997 39.1878H93.2497ZM93.2497 32.8545C93.5867 32.8545 93.8688 32.7408 94.096 32.5133C94.3234 32.2861 94.4372 32.004 94.4372 31.667C94.4372 31.33 94.3234 31.0479 94.096 30.8207C93.8688 30.5932 93.5867 30.4795 93.2497 30.4795H88.4997C88.1627 30.4795 87.8806 30.5932 87.6534 30.8207C87.4259 31.0479 87.3122 31.33 87.3122 31.667C87.3122 32.004 87.4259 32.2861 87.6534 32.5133C87.8806 32.7408 88.1627 32.8545 88.4997 32.8545H93.2497Z" fill="#144D6E"/>
</svg>
