<svg width="107" height="17" viewBox="0 0 107 17" fill="none" xmlns="http://www.w3.org/2000/svg">
<path d="M0.000164106 9.45023H14.7602V10.6742H0.000164106V9.45023ZM6.60616 10.2062H8.08216V16.2722H6.60616V10.2062ZM1.89016 0.90023H12.8702V7.25423H1.89016V0.90023ZM11.3942 2.10623H3.34816V6.06623H11.3942V2.10623ZM20.6988 9.54023H22.1568V13.5362H20.6988V9.54023ZM25.9008 9.52223H27.3588V13.5182H25.9008V9.52223ZM16.5768 13.0322H31.3368V14.2742H16.5768V13.0322ZM18.3768 1.20623H29.5008V6.13823H19.8888V9.39623H18.4128V4.93223H28.0248V2.43023H18.3768V1.20623ZM18.4128 8.74823H29.8788V9.97223H18.4128V8.74823ZM50.0959 0.0182298H51.5899V12.1322H50.0959V0.0182298ZM45.1279 1.27823H46.7119C46.7119 2.67023 46.3999 3.94823 45.7759 5.11223C45.1519 6.26423 44.2699 7.27223 43.1299 8.13623C41.9899 8.98823 40.6519 9.66623 39.1159 10.1702L38.4679 8.98223C39.7999 8.53823 40.9639 7.96823 41.9599 7.27223C42.9679 6.56423 43.7479 5.76023 44.2999 4.86023C44.8519 3.94823 45.1279 2.95823 45.1279 1.89023V1.27823ZM39.2779 1.27823H46.0459V2.50223H39.2779V1.27823ZM45.9559 3.34823H50.3119V4.59023H45.9559V3.34823ZM45.8119 7.02023H50.2579V8.24423H45.8119V7.02023ZM41.2939 14.7062H52.0039V15.9302H41.2939V14.7062ZM41.2939 10.9442H42.8059V15.4442H41.2939V10.9442ZM58.8964 1.65623H60.1204V2.98823C60.1204 3.97223 59.9284 4.89623 59.5444 5.76023C59.1724 6.62423 58.6444 7.38023 57.9604 8.02823C57.2764 8.66423 56.4844 9.15023 55.5844 9.48623L54.8104 8.29823C55.4104 8.08223 55.9564 7.79423 56.4484 7.43423C56.9524 7.07423 57.3904 6.66023 57.7624 6.19223C58.1344 5.71223 58.4164 5.20223 58.6084 4.66223C58.8004 4.11023 58.8964 3.55223 58.8964 2.98823V1.65623ZM59.1844 1.65623H60.4084V2.97023C60.4084 3.66623 60.5704 4.34423 60.8944 5.00423C61.2184 5.65223 61.6804 6.23423 62.2804 6.75023C62.8804 7.25423 63.5704 7.65023 64.3504 7.93823L63.5944 9.10823C62.7064 8.78423 61.9324 8.31623 61.2724 7.70423C60.6124 7.09223 60.0964 6.37823 59.7244 5.56223C59.3644 4.74623 59.1844 3.88223 59.1844 2.97023V1.65623ZM63.4684 4.24823H67.0864V5.49023H63.4684V4.24823ZM55.2784 1.11623H63.9724V2.34023H55.2784V1.11623ZM57.2764 10.6202H68.1484V16.2902H66.6544V11.8442H57.2764V10.6202ZM66.6544 0.000230074H68.1484V9.73823H66.6544V0.000230074ZM76.3595 8.31623H91.1195V9.54023H76.3595V8.31623ZM83.0915 9.09023H84.5855V12.8342H83.0915V9.09023ZM78.2675 0.77423H89.1935V6.48023H78.2675V0.77423ZM87.7355 1.96223H79.7255V5.29223H87.7355V1.96223ZM78.2315 14.7062H89.4815V15.9302H78.2315V14.7062ZM78.2315 11.2682H79.7255V15.1202H78.2315V11.2682ZM98.2101 1.18823C99.0621 1.18823 99.8121 1.35023 100.46 1.67423C101.12 1.98623 101.636 2.43023 102.008 3.00623C102.38 3.58223 102.566 4.25423 102.566 5.02223C102.566 5.77823 102.38 6.45023 102.008 7.03823C101.636 7.61423 101.12 8.06423 100.46 8.38823C99.8121 8.70023 99.0621 8.85623 98.2101 8.85623C97.3701 8.85623 96.6201 8.70023 95.9601 8.38823C95.3001 8.06423 94.7781 7.61423 94.3941 7.03823C94.0221 6.45023 93.8361 5.77823 93.8361 5.02223C93.8361 4.25423 94.0221 3.58223 94.3941 3.00623C94.7781 2.43023 95.3001 1.98623 95.9601 1.67423C96.6201 1.35023 97.3701 1.18823 98.2101 1.18823ZM98.2101 2.48423C97.6581 2.48423 97.1601 2.59223 96.7161 2.80823C96.2841 3.01223 95.9421 3.30623 95.6901 3.69023C95.4381 4.07423 95.3121 4.51823 95.3121 5.02223C95.3121 5.52623 95.4381 5.97023 95.6901 6.35423C95.9421 6.73823 96.2841 7.03823 96.7161 7.25423C97.1601 7.45823 97.6581 7.56023 98.2101 7.56023C98.7741 7.56023 99.2721 7.45823 99.7041 7.25423C100.136 7.03823 100.478 6.73823 100.73 6.35423C100.982 5.97023 101.108 5.52623 101.108 5.02223C101.108 4.51823 100.982 4.07423 100.73 3.69023C100.478 3.30623 100.136 3.01223 99.7041 2.80823C99.2721 2.59223 98.7741 2.48423 98.2101 2.48423ZM104.708 0.000230074H106.202V16.3082H104.708V0.000230074ZM93.2241 12.7442L93.0261 11.4842C94.0221 11.4842 95.1141 11.4782 96.3021 11.4662C97.4901 11.4422 98.7141 11.3942 99.9741 11.3222C101.246 11.2382 102.47 11.1062 103.646 10.9262L103.772 12.0242C102.548 12.2522 101.306 12.4202 100.046 12.5282C98.7981 12.6242 97.5921 12.6842 96.4281 12.7082C95.2641 12.7322 94.1961 12.7442 93.2241 12.7442Z" fill="black"/>
</svg>
