<svg width="273" height="13" viewBox="0 0 273 13" fill="none" xmlns="http://www.w3.org/2000/svg">
<path d="M4.98448 4.92812H7.36448V5.88012H4.98448V4.92812ZM9.49248 0.000124693H10.6125V12.6701H9.49248V0.000124693ZM6.97248 0.266125H8.07848V12.0261H6.97248V0.266125ZM2.68848 1.06412C3.23915 1.06412 3.71515 1.24146 4.11648 1.59612C4.52715 1.95079 4.84448 2.45946 5.06848 3.12212C5.29248 3.78479 5.40448 4.56412 5.40448 5.46012C5.40448 6.36546 5.29248 7.14946 5.06848 7.81212C4.84448 8.47479 4.52715 8.98812 4.11648 9.35212C3.71515 9.70679 3.23915 9.88412 2.68848 9.88412C2.15648 9.88412 1.68515 9.70679 1.27448 9.35212C0.873151 8.98812 0.560484 8.47479 0.336484 7.81212C0.112484 7.14946 0.000484437 6.36546 0.000484437 5.46012C0.000484437 4.56412 0.112484 3.78479 0.336484 3.12212C0.560484 2.45946 0.873151 1.95079 1.27448 1.59612C1.68515 1.24146 2.15648 1.06412 2.68848 1.06412ZM2.68848 2.14212C2.36182 2.14212 2.07715 2.27746 1.83448 2.54812C1.59182 2.81879 1.40515 3.20146 1.27448 3.69612C1.14382 4.19079 1.07848 4.77879 1.07848 5.46012C1.07848 6.14146 1.14382 6.73412 1.27448 7.23812C1.40515 7.73279 1.59182 8.11546 1.83448 8.38612C2.07715 8.65679 2.36182 8.79212 2.68848 8.79212C3.02448 8.79212 3.31382 8.65679 3.55648 8.38612C3.80848 8.11546 3.99982 7.73279 4.13048 7.23812C4.26115 6.73412 4.32648 6.14146 4.32648 5.46012C4.32648 4.77879 4.26115 4.19079 4.13048 3.69612C3.99982 3.20146 3.80848 2.81879 3.55648 2.54812C3.31382 2.27746 3.02448 2.14212 2.68848 2.14212ZM16.0994 0.980125C16.7154 0.980125 17.2614 1.16212 17.7374 1.52612C18.2134 1.88079 18.5821 2.38946 18.8434 3.05212C19.1141 3.71479 19.2494 4.49412 19.2494 5.39012C19.2494 6.28612 19.1141 7.06546 18.8434 7.72812C18.5821 8.39079 18.2134 8.90412 17.7374 9.26812C17.2614 9.63212 16.7154 9.81412 16.0994 9.81412C15.4927 9.81412 14.9467 9.63212 14.4614 9.26812C13.9854 8.90412 13.6121 8.39079 13.3414 7.72812C13.0801 7.06546 12.9494 6.28612 12.9494 5.39012C12.9494 4.49412 13.0801 3.71479 13.3414 3.05212C13.6121 2.38946 13.9854 1.88079 14.4614 1.52612C14.9467 1.16212 15.4927 0.980125 16.0994 0.980125ZM16.0994 2.01612C15.6981 2.01612 15.3434 2.15612 15.0354 2.43612C14.7274 2.70679 14.4847 3.09879 14.3074 3.61212C14.1394 4.11612 14.0554 4.70879 14.0554 5.39012C14.0554 6.07146 14.1394 6.66879 14.3074 7.18212C14.4847 7.68612 14.7274 8.07812 15.0354 8.35812C15.3434 8.63812 15.6981 8.77812 16.0994 8.77812C16.5101 8.77812 16.8694 8.63812 17.1774 8.35812C17.4854 8.07812 17.7234 7.68612 17.8914 7.18212C18.0687 6.66879 18.1574 6.07146 18.1574 5.39012C18.1574 4.70879 18.0687 4.11612 17.8914 3.61212C17.7234 3.09879 17.4854 2.70679 17.1774 2.43612C16.8694 2.15612 16.5101 2.01612 16.0994 2.01612ZM21.9934 0.000124693H23.1414V12.6841H21.9934V0.000124693ZM18.8714 4.83012H22.5114V5.76812H18.8714V4.83012ZM32.1003 4.03212H35.0543V4.99812H32.1003V4.03212ZM30.9243 1.02212H32.1283C32.1283 2.12346 31.9323 3.12679 31.5403 4.03212C31.1483 4.92812 30.5323 5.72146 29.6923 6.41212C28.8523 7.09346 27.7556 7.66279 26.4023 8.12012L25.9263 7.19612C26.841 6.89746 27.611 6.55212 28.2363 6.16012C28.871 5.76812 29.3843 5.32946 29.7763 4.84412C30.1776 4.34946 30.467 3.81746 30.6443 3.24812C30.831 2.67879 30.9243 2.07679 30.9243 1.44212V1.02212ZM26.5003 1.02212H31.6103V1.97412H26.5003V1.02212ZM30.9103 3.43012V4.24212L26.0663 4.62012L25.8703 3.66813L30.9103 3.43012ZM34.8583 0.0141245H36.0203V9.40812H34.8583V0.0141245ZM28.0683 11.4381H36.3983V12.3901H28.0683V11.4381ZM28.0683 8.48412H29.2303V11.9701H28.0683V8.48412ZM48.9167 2.29612H52.1647V3.24812H48.9167V2.29612ZM51.6747 0.000124693H52.8367V6.53812H51.6747V0.000124693ZM44.6887 7.18212H52.8367V10.2201H45.8507V12.1381H44.7167V9.33812H51.6887V8.10612H44.6887V7.18212ZM44.7167 11.5641H53.2987V12.5021H44.7167V11.5641ZM45.5847 0.406124H46.5227V1.58212C46.5227 2.35679 46.378 3.08012 46.0887 3.75212C45.7994 4.41479 45.3934 4.98879 44.8707 5.47412C44.348 5.95012 43.732 6.31412 43.0227 6.56612L42.4067 5.64212C43.0414 5.42746 43.5967 5.11946 44.0727 4.71812C44.5487 4.31679 44.9174 3.85012 45.1787 3.31812C45.4494 2.77679 45.5847 2.19812 45.5847 1.58212V0.406124ZM45.7667 0.406124H46.7187V1.58212C46.7187 1.99279 46.7934 2.39412 46.9427 2.78612C47.092 3.16879 47.302 3.52812 47.5727 3.86413C47.8527 4.20012 48.184 4.49879 48.5667 4.76012C48.9494 5.01212 49.3694 5.21279 49.8267 5.36212L49.2107 6.27212C48.5294 6.02946 47.9274 5.67946 47.4047 5.22212C46.8914 4.75546 46.49 4.21412 46.2007 3.59812C45.9114 2.97279 45.7667 2.30079 45.7667 1.58212V0.406124ZM64.4976 0.000124693H65.6736V12.6701H64.4976V0.000124693ZM58.8136 3.01012H59.7516V4.10212C59.7516 4.77412 59.6629 5.42746 59.4856 6.06212C59.3083 6.68746 59.0563 7.27079 58.7296 7.81212C58.4123 8.35346 58.0343 8.82946 57.5956 9.24012C57.1663 9.65079 56.6949 9.97746 56.1816 10.2201L55.5376 9.32412C56.0043 9.10946 56.4336 8.82012 56.8256 8.45612C57.2269 8.09212 57.5723 7.68146 57.8616 7.22412C58.1603 6.75746 58.3936 6.25812 58.5616 5.72612C58.7296 5.19412 58.8136 4.65279 58.8136 4.10212V3.01012ZM59.0236 3.01012H59.9616V4.10212C59.9616 4.62479 60.0456 5.14279 60.2136 5.65612C60.3816 6.16012 60.6149 6.63612 60.9136 7.08412C61.2123 7.52279 61.5623 7.91479 61.9636 8.26012C62.3649 8.60546 62.8036 8.88546 63.2796 9.10012L62.6356 9.99612C62.1223 9.76279 61.6463 9.45012 61.2076 9.05812C60.7689 8.65679 60.3863 8.19946 60.0596 7.68612C59.7329 7.16346 59.4763 6.59879 59.2896 5.99212C59.1123 5.38546 59.0236 4.75546 59.0236 4.10212V3.01012ZM55.8736 2.19812H62.8456V3.13612H55.8736V2.19812ZM58.7996 0.238124H59.9616V2.71612H58.7996V0.238124ZM78.822 3.50012H82.028V4.45212H78.822V3.50012ZM81.37 0.0141245H82.532V9.29612H81.37V0.0141245ZM74.454 11.4381H82.882V12.3901H74.454V11.4381ZM74.454 8.47012H75.602V11.9141H74.454V8.47012ZM75.336 1.58212H76.288V2.60412C76.288 3.36946 76.1387 4.09279 75.84 4.77412C75.5507 5.44612 75.14 6.03412 74.608 6.53812C74.076 7.03279 73.46 7.41546 72.76 7.68612L72.158 6.74812C72.6247 6.58012 73.0493 6.35612 73.432 6.07612C73.824 5.79612 74.1647 5.47412 74.454 5.11012C74.7433 4.74612 74.9627 4.34946 75.112 3.92012C75.2613 3.49079 75.336 3.05212 75.336 2.60412V1.58212ZM75.56 1.58212H76.512V2.60412C76.512 3.14546 76.638 3.67279 76.89 4.18613C77.142 4.69946 77.5013 5.15679 77.968 5.55812C78.4347 5.95012 78.9713 6.25346 79.578 6.46812L78.99 7.39212C78.2993 7.14012 77.6973 6.77612 77.184 6.30012C76.6707 5.81479 76.2693 5.25479 75.98 4.62012C75.7 3.98546 75.56 3.31346 75.56 2.60412V1.58212ZM72.522 1.03612H79.284V1.98812H72.522V1.03612ZM84.9809 6.46812H96.4609V7.42012H84.9809V6.46812ZM90.2169 7.07012H91.3789V9.98212H90.2169V7.07012ZM86.4649 0.602124H94.9629V5.04012H86.4649V0.602124ZM93.8289 1.52612H87.5989V4.11612H93.8289V1.52612ZM86.4369 11.4381H95.1869V12.3901H86.4369V11.4381ZM86.4369 8.76412H87.5989V11.7601H86.4369V8.76412ZM107.1 0.000124693H108.262V12.6701H107.1V0.000124693ZM103.39 1.37212H104.538C104.538 2.28679 104.426 3.16879 104.202 4.01812C103.987 4.86746 103.646 5.67479 103.18 6.44012C102.713 7.19612 102.106 7.90079 101.36 8.55412C100.613 9.20746 99.7078 9.79079 98.6438 10.3041L98.0278 9.36612C99.2505 8.77812 100.258 8.09212 101.052 7.30812C101.845 6.52412 102.433 5.65146 102.816 4.69012C103.198 3.71946 103.39 2.67412 103.39 1.55412V1.37212ZM98.6158 1.37212H103.88V2.31012H98.6158V1.37212ZM117.109 3.02412H120.511V3.97612H117.109V3.02412ZM114.211 0.588125C114.836 0.588125 115.391 0.714125 115.877 0.966125C116.371 1.20879 116.759 1.54946 117.039 1.98812C117.319 2.42679 117.459 2.93546 117.459 3.51412C117.459 4.09279 117.319 4.60612 117.039 5.05412C116.759 5.49279 116.371 5.83812 115.877 6.09012C115.391 6.33279 114.836 6.45412 114.211 6.45412C113.576 6.45412 113.011 6.33279 112.517 6.09012C112.031 5.83812 111.649 5.49279 111.369 5.05412C111.089 4.60612 110.949 4.09279 110.949 3.51412C110.949 2.93546 111.089 2.42679 111.369 1.98812C111.649 1.54946 112.031 1.20879 112.517 0.966125C113.011 0.714125 113.576 0.588125 114.211 0.588125ZM114.211 1.56812C113.791 1.56812 113.417 1.65212 113.091 1.82012C112.773 1.97879 112.521 2.20746 112.335 2.50612C112.148 2.79546 112.055 3.13146 112.055 3.51412C112.055 3.89679 112.148 4.23746 112.335 4.53612C112.521 4.82546 112.773 5.05412 113.091 5.22212C113.417 5.39012 113.791 5.47412 114.211 5.47412C114.621 5.47412 114.985 5.39012 115.303 5.22212C115.629 5.05412 115.886 4.82546 116.073 4.53612C116.259 4.23746 116.353 3.89679 116.353 3.51412C116.353 3.13146 116.259 2.79546 116.073 2.50612C115.886 2.20746 115.629 1.97879 115.303 1.82012C114.985 1.65212 114.621 1.56812 114.211 1.56812ZM120.007 0.000124693H121.169V6.80412H120.007V0.000124693ZM113.063 7.43412H114.211V9.01612H120.007V7.43412H121.169V12.5021H113.063V7.43412ZM114.211 9.94012V11.5501H120.007V9.94012H114.211ZM127.943 7.36222C127.943 7.15341 128.011 6.97609 128.147 6.83026C128.283 6.68111 128.48 6.60653 128.738 6.60653C128.997 6.60653 129.194 6.68111 129.33 6.83026C129.466 6.97609 129.534 7.15341 129.534 7.36222C129.534 7.57102 129.466 7.75 129.33 7.89915C129.194 8.04498 128.997 8.1179 128.738 8.1179C128.48 8.1179 128.283 8.04498 128.147 7.89915C128.011 7.75 127.943 7.57102 127.943 7.36222ZM143.807 0.000124693H144.969V12.6561H143.807V0.000124693ZM144.661 5.13812H146.985V6.10412H144.661V5.13812ZM140.573 1.35812H141.707C141.707 2.56212 141.511 3.71479 141.119 4.81612C140.727 5.90812 140.111 6.92079 139.271 7.85412C138.431 8.77812 137.325 9.58079 135.953 10.2621L135.309 9.36612C136.485 8.77812 137.46 8.09212 138.235 7.30812C139.019 6.51479 139.602 5.63746 139.985 4.67612C140.377 3.70546 140.573 2.66012 140.573 1.54012V1.35812ZM135.897 1.35812H141.161V2.32412H135.897V1.35812ZM154.88 3.29012H157.722V4.25612H154.88V3.29012ZM157.372 0.000124693H158.534V7.54612H157.372V0.000124693ZM154.362 7.93812C155.239 7.93812 155.991 8.03146 156.616 8.21812C157.251 8.40479 157.736 8.67546 158.072 9.03012C158.408 9.37546 158.576 9.80012 158.576 10.3041C158.576 11.0508 158.198 11.6295 157.442 12.0401C156.695 12.4508 155.669 12.6561 154.362 12.6561C153.055 12.6561 152.024 12.4508 151.268 12.0401C150.521 11.6295 150.148 11.0508 150.148 10.3041C150.148 9.80012 150.316 9.37546 150.652 9.03012C150.997 8.67546 151.483 8.40479 152.108 8.21812C152.743 8.03146 153.494 7.93812 154.362 7.93812ZM154.362 8.84812C153.727 8.84812 153.181 8.90412 152.724 9.01612C152.267 9.12812 151.912 9.29146 151.66 9.50612C151.417 9.72079 151.296 9.98679 151.296 10.3041C151.296 10.6028 151.417 10.8595 151.66 11.0741C151.912 11.2888 152.267 11.4568 152.724 11.5781C153.181 11.6901 153.727 11.7461 154.362 11.7461C155.006 11.7461 155.552 11.6901 156 11.5781C156.457 11.4568 156.807 11.2888 157.05 11.0741C157.302 10.8595 157.428 10.6028 157.428 10.3041C157.428 9.98679 157.302 9.72079 157.05 9.50612C156.807 9.29146 156.457 9.12812 156 9.01612C155.552 8.90412 155.006 8.84812 154.362 8.84812ZM151.338 1.28812H152.29V2.31012C152.29 3.08479 152.141 3.81279 151.842 4.49412C151.553 5.16612 151.142 5.75879 150.61 6.27212C150.078 6.77612 149.462 7.16346 148.762 7.43412L148.16 6.51012C148.636 6.34212 149.065 6.11346 149.448 5.82412C149.84 5.53479 150.176 5.20346 150.456 4.83012C150.745 4.45679 150.965 4.05546 151.114 3.62612C151.263 3.19679 151.338 2.75812 151.338 2.31012V1.28812ZM151.562 1.28812H152.514V2.29612C152.514 2.83746 152.64 3.36479 152.892 3.87812C153.144 4.39146 153.503 4.84412 153.97 5.23612C154.437 5.62812 154.973 5.93612 155.58 6.16012L154.992 7.08412C154.301 6.83212 153.699 6.46812 153.186 5.99212C152.673 5.50679 152.271 4.94679 151.982 4.31212C151.702 3.67746 151.562 3.00546 151.562 2.29612V1.28812ZM148.524 0.924124H155.286V1.87612H148.524V0.924124ZM163.811 4.29812H164.973V6.67812H163.811V4.29812ZM168.459 4.29812H169.607V6.67812H168.459V4.29812ZM160.997 6.25812H172.435V7.19612H160.997V6.25812ZM166.709 8.16212C168.062 8.16212 169.122 8.35346 169.887 8.73612C170.652 9.11879 171.035 9.66946 171.035 10.3881C171.035 11.1161 170.652 11.6715 169.887 12.0541C169.122 12.4461 168.062 12.6421 166.709 12.6421C165.356 12.6421 164.292 12.4461 163.517 12.0541C162.752 11.6715 162.369 11.1161 162.369 10.3881C162.369 9.66946 162.752 9.11879 163.517 8.73612C164.292 8.35346 165.356 8.16212 166.709 8.16212ZM166.709 9.05812C166.046 9.05812 165.477 9.10946 165.001 9.21212C164.534 9.31479 164.175 9.46879 163.923 9.67412C163.671 9.87012 163.545 10.1081 163.545 10.3881C163.545 10.6868 163.671 10.9388 163.923 11.1441C164.175 11.3401 164.534 11.4895 165.001 11.5921C165.477 11.6948 166.046 11.7461 166.709 11.7461C167.372 11.7461 167.936 11.6948 168.403 11.5921C168.879 11.4895 169.243 11.3401 169.495 11.1441C169.747 10.9388 169.873 10.6868 169.873 10.3881C169.873 10.1081 169.747 9.87012 169.495 9.67412C169.243 9.46879 168.879 9.31479 168.403 9.21212C167.936 9.10946 167.372 9.05812 166.709 9.05812ZM166.709 0.238124C167.624 0.238124 168.412 0.331458 169.075 0.518125C169.747 0.704791 170.26 0.975458 170.615 1.33012C170.979 1.67546 171.161 2.09546 171.161 2.59012C171.161 3.07546 170.979 3.49546 170.615 3.85012C170.26 4.20479 169.747 4.47546 169.075 4.66212C168.412 4.83946 167.624 4.92812 166.709 4.92812C165.794 4.92812 165.001 4.83946 164.329 4.66212C163.666 4.47546 163.153 4.20479 162.789 3.85012C162.434 3.49546 162.257 3.07546 162.257 2.59012C162.257 2.09546 162.434 1.67546 162.789 1.33012C163.153 0.975458 163.666 0.704791 164.329 0.518125C165.001 0.331458 165.794 0.238124 166.709 0.238124ZM166.709 1.14812C166.046 1.14812 165.468 1.20412 164.973 1.31612C164.488 1.42812 164.11 1.59146 163.839 1.80612C163.578 2.02079 163.447 2.28212 163.447 2.59012C163.447 2.88879 163.578 3.15012 163.839 3.37412C164.11 3.58879 164.488 3.75212 164.973 3.86413C165.468 3.97612 166.046 4.03212 166.709 4.03212C167.39 4.03212 167.974 3.97612 168.459 3.86413C168.944 3.75212 169.318 3.58879 169.579 3.37412C169.84 3.15012 169.971 2.88879 169.971 2.59012C169.971 2.28212 169.84 2.02079 169.579 1.80612C169.318 1.59146 168.944 1.42812 168.459 1.31612C167.974 1.20412 167.39 1.14812 166.709 1.14812ZM178.187 7.36222C178.187 7.15341 178.255 6.97609 178.391 6.83026C178.527 6.68111 178.724 6.60653 178.983 6.60653C179.241 6.60653 179.438 6.68111 179.574 6.83026C179.71 6.97609 179.778 7.15341 179.778 7.36222C179.778 7.57102 179.71 7.75 179.574 7.89915C179.438 8.04498 179.241 8.1179 178.983 8.1179C178.724 8.1179 178.527 8.04498 178.391 7.89915C178.255 7.75 178.187 7.57102 178.187 7.36222ZM188.563 0.658125H189.515V1.94612C189.515 2.75812 189.371 3.51412 189.081 4.21412C188.801 4.91412 188.4 5.52546 187.877 6.04812C187.355 6.56146 186.743 6.95346 186.043 7.22412L185.413 6.30012C186.057 6.06679 186.613 5.73079 187.079 5.29212C187.555 4.85346 187.919 4.34946 188.171 3.78012C188.433 3.20146 188.563 2.59012 188.563 1.94612V0.658125ZM188.773 0.658125H189.711V2.04412C189.711 2.46412 189.786 2.87946 189.935 3.29012C190.085 3.69146 190.295 4.06479 190.565 4.41012C190.845 4.75546 191.172 5.06346 191.545 5.33412C191.919 5.59546 192.334 5.80546 192.791 5.96412L192.175 6.87412C191.503 6.62212 190.911 6.25812 190.397 5.78212C189.884 5.29679 189.483 4.73679 189.193 4.10212C188.913 3.45812 188.773 2.77212 188.773 2.04412V0.658125ZM194.149 0.000124693H195.311V7.68612H194.149V0.000124693ZM194.989 3.27612H197.173V4.25612H194.989V3.27612ZM191.279 8.02212C192.138 8.02212 192.875 8.11546 193.491 8.30212C194.117 8.47946 194.597 8.74079 194.933 9.08612C195.269 9.43146 195.437 9.84679 195.437 10.3321C195.437 10.8175 195.269 11.2328 194.933 11.5781C194.597 11.9235 194.117 12.1848 193.491 12.3621C192.875 12.5488 192.138 12.6421 191.279 12.6421C190.421 12.6421 189.679 12.5488 189.053 12.3621C188.428 12.1848 187.947 11.9235 187.611 11.5781C187.275 11.2328 187.107 10.8175 187.107 10.3321C187.107 9.84679 187.275 9.43146 187.611 9.08612C187.947 8.74079 188.428 8.47946 189.053 8.30212C189.679 8.11546 190.421 8.02212 191.279 8.02212ZM191.279 8.94612C190.654 8.94612 190.113 9.00212 189.655 9.11412C189.207 9.22612 188.862 9.38479 188.619 9.59012C188.377 9.79546 188.255 10.0428 188.255 10.3321C188.255 10.6308 188.377 10.8828 188.619 11.0881C188.862 11.2935 189.207 11.4521 189.655 11.5641C190.113 11.6668 190.654 11.7181 191.279 11.7181C191.905 11.7181 192.441 11.6668 192.889 11.5641C193.337 11.4521 193.683 11.2935 193.925 11.0881C194.168 10.8828 194.289 10.6308 194.289 10.3321C194.289 10.0428 194.168 9.79546 193.925 9.59012C193.683 9.38479 193.337 9.22612 192.889 9.11412C192.441 9.00212 191.905 8.94612 191.279 8.94612ZM204.718 3.02412H208.12V3.97612H204.718V3.02412ZM201.82 0.588125C202.445 0.588125 203.001 0.714125 203.486 0.966125C203.981 1.20879 204.368 1.54946 204.648 1.98812C204.928 2.42679 205.068 2.93546 205.068 3.51412C205.068 4.09279 204.928 4.60612 204.648 5.05412C204.368 5.49279 203.981 5.83812 203.486 6.09012C203.001 6.33279 202.445 6.45412 201.82 6.45412C201.185 6.45412 200.621 6.33279 200.126 6.09012C199.641 5.83812 199.258 5.49279 198.978 5.05412C198.698 4.60612 198.558 4.09279 198.558 3.51412C198.558 2.93546 198.698 2.42679 198.978 1.98812C199.258 1.54946 199.641 1.20879 200.126 0.966125C200.621 0.714125 201.185 0.588125 201.82 0.588125ZM201.82 1.56812C201.4 1.56812 201.027 1.65212 200.7 1.82012C200.383 1.97879 200.131 2.20746 199.944 2.50612C199.757 2.79546 199.664 3.13146 199.664 3.51412C199.664 3.89679 199.757 4.23746 199.944 4.53612C200.131 4.82546 200.383 5.05412 200.7 5.22212C201.027 5.39012 201.4 5.47412 201.82 5.47412C202.231 5.47412 202.595 5.39012 202.912 5.22212C203.239 5.05412 203.495 4.82546 203.682 4.53612C203.869 4.23746 203.962 3.89679 203.962 3.51412C203.962 3.13146 203.869 2.79546 203.682 2.50612C203.495 2.20746 203.239 1.97879 202.912 1.82012C202.595 1.65212 202.231 1.56812 201.82 1.56812ZM207.616 0.000124693H208.778V6.80412H207.616V0.000124693ZM200.672 7.43412H201.82V9.01612H207.616V7.43412H208.778V12.5021H200.672V7.43412ZM201.82 9.94012V11.5501H207.616V9.94012H201.82ZM214.055 4.29812H215.217V6.67812H214.055V4.29812ZM218.703 4.29812H219.851V6.67812H218.703V4.29812ZM211.241 6.25812H222.679V7.19612H211.241V6.25812ZM216.953 8.16212C218.306 8.16212 219.366 8.35346 220.131 8.73612C220.896 9.11879 221.279 9.66946 221.279 10.3881C221.279 11.1161 220.896 11.6715 220.131 12.0541C219.366 12.4461 218.306 12.6421 216.953 12.6421C215.6 12.6421 214.536 12.4461 213.761 12.0541C212.996 11.6715 212.613 11.1161 212.613 10.3881C212.613 9.66946 212.996 9.11879 213.761 8.73612C214.536 8.35346 215.6 8.16212 216.953 8.16212ZM216.953 9.05812C216.29 9.05812 215.721 9.10946 215.245 9.21212C214.778 9.31479 214.419 9.46879 214.167 9.67412C213.915 9.87012 213.789 10.1081 213.789 10.3881C213.789 10.6868 213.915 10.9388 214.167 11.1441C214.419 11.3401 214.778 11.4895 215.245 11.5921C215.721 11.6948 216.29 11.7461 216.953 11.7461C217.616 11.7461 218.18 11.6948 218.647 11.5921C219.123 11.4895 219.487 11.3401 219.739 11.1441C219.991 10.9388 220.117 10.6868 220.117 10.3881C220.117 10.1081 219.991 9.87012 219.739 9.67412C219.487 9.46879 219.123 9.31479 218.647 9.21212C218.18 9.10946 217.616 9.05812 216.953 9.05812ZM216.953 0.238124C217.868 0.238124 218.656 0.331458 219.319 0.518125C219.991 0.704791 220.504 0.975458 220.859 1.33012C221.223 1.67546 221.405 2.09546 221.405 2.59012C221.405 3.07546 221.223 3.49546 220.859 3.85012C220.504 4.20479 219.991 4.47546 219.319 4.66212C218.656 4.83946 217.868 4.92812 216.953 4.92812C216.038 4.92812 215.245 4.83946 214.573 4.66212C213.91 4.47546 213.397 4.20479 213.033 3.85012C212.678 3.49546 212.501 3.07546 212.501 2.59012C212.501 2.09546 212.678 1.67546 213.033 1.33012C213.397 0.975458 213.91 0.704791 214.573 0.518125C215.245 0.331458 216.038 0.238124 216.953 0.238124ZM216.953 1.14812C216.29 1.14812 215.712 1.20412 215.217 1.31612C214.732 1.42812 214.354 1.59146 214.083 1.80612C213.822 2.02079 213.691 2.28212 213.691 2.59012C213.691 2.88879 213.822 3.15012 214.083 3.37412C214.354 3.58879 214.732 3.75212 215.217 3.86413C215.712 3.97612 216.29 4.03212 216.953 4.03212C217.634 4.03212 218.218 3.97612 218.703 3.86413C219.188 3.75212 219.562 3.58879 219.823 3.37412C220.084 3.15012 220.215 2.88879 220.215 2.59012C220.215 2.28212 220.084 2.02079 219.823 1.80612C219.562 1.59146 219.188 1.42812 218.703 1.31612C218.218 1.20412 217.634 1.14812 216.953 1.14812ZM228.431 7.36222C228.431 7.15341 228.499 6.97609 228.635 6.83026C228.771 6.68111 228.968 6.60653 229.227 6.60653C229.485 6.60653 229.682 6.68111 229.818 6.83026C229.954 6.97609 230.022 7.15341 230.022 7.36222C230.022 7.57102 229.954 7.75 229.818 7.89915C229.682 8.04498 229.485 8.1179 229.227 8.1179C228.968 8.1179 228.771 8.04498 228.635 7.89915C228.499 7.75 228.431 7.57102 228.431 7.36222ZM238.835 0.770125H239.801V2.32412C239.801 3.15479 239.657 3.92012 239.367 4.62012C239.078 5.31079 238.672 5.91279 238.149 6.42612C237.627 6.93946 237.011 7.33146 236.301 7.60212L235.671 6.67812C236.315 6.45412 236.875 6.12746 237.351 5.69812C237.827 5.25946 238.191 4.75079 238.443 4.17212C238.705 3.59346 238.835 2.97746 238.835 2.32412V0.770125ZM239.045 0.770125H239.983V2.36612C239.983 2.79546 240.058 3.21546 240.207 3.62612C240.366 4.03679 240.581 4.42412 240.851 4.78812C241.131 5.14279 241.458 5.45546 241.831 5.72612C242.214 5.98746 242.639 6.20212 243.105 6.37012L242.517 7.29412C241.827 7.03279 241.22 6.65946 240.697 6.17412C240.175 5.68879 239.769 5.11946 239.479 4.46612C239.19 3.81279 239.045 3.11279 239.045 2.36612V0.770125ZM244.393 0.000124693H245.555V9.35212H244.393V0.000124693ZM245.191 3.87812H247.417V4.85812H245.191V3.87812ZM237.687 11.4381H246.115V12.3901H237.687V11.4381ZM237.687 8.45612H238.863V11.9001H237.687V8.45612ZM254.962 3.02412H258.364V3.97612H254.962V3.02412ZM252.064 0.588125C252.69 0.588125 253.245 0.714125 253.73 0.966125C254.225 1.20879 254.612 1.54946 254.892 1.98812C255.172 2.42679 255.312 2.93546 255.312 3.51412C255.312 4.09279 255.172 4.60612 254.892 5.05412C254.612 5.49279 254.225 5.83812 253.73 6.09012C253.245 6.33279 252.69 6.45412 252.064 6.45412C251.43 6.45412 250.865 6.33279 250.37 6.09012C249.885 5.83812 249.502 5.49279 249.222 5.05412C248.942 4.60612 248.802 4.09279 248.802 3.51412C248.802 2.93546 248.942 2.42679 249.222 1.98812C249.502 1.54946 249.885 1.20879 250.37 0.966125C250.865 0.714125 251.43 0.588125 252.064 0.588125ZM252.064 1.56812C251.644 1.56812 251.271 1.65212 250.944 1.82012C250.627 1.97879 250.375 2.20746 250.188 2.50612C250.002 2.79546 249.908 3.13146 249.908 3.51412C249.908 3.89679 250.002 4.23746 250.188 4.53612C250.375 4.82546 250.627 5.05412 250.944 5.22212C251.271 5.39012 251.644 5.47412 252.064 5.47412C252.475 5.47412 252.839 5.39012 253.156 5.22212C253.483 5.05412 253.74 4.82546 253.926 4.53612C254.113 4.23746 254.206 3.89679 254.206 3.51412C254.206 3.13146 254.113 2.79546 253.926 2.50612C253.74 2.20746 253.483 1.97879 253.156 1.82012C252.839 1.65212 252.475 1.56812 252.064 1.56812ZM257.86 0.000124693H259.022V6.80412H257.86V0.000124693ZM250.916 7.43412H252.064V9.01612H257.86V7.43412H259.022V12.5021H250.916V7.43412ZM252.064 9.94012V11.5501H257.86V9.94012H252.064ZM264.299 4.29812H265.461V6.67812H264.299V4.29812ZM268.947 4.29812H270.095V6.67812H268.947V4.29812ZM261.485 6.25812H272.923V7.19612H261.485V6.25812ZM267.197 8.16212C268.55 8.16212 269.61 8.35346 270.375 8.73612C271.14 9.11879 271.523 9.66946 271.523 10.3881C271.523 11.1161 271.14 11.6715 270.375 12.0541C269.61 12.4461 268.55 12.6421 267.197 12.6421C265.844 12.6421 264.78 12.4461 264.005 12.0541C263.24 11.6715 262.857 11.1161 262.857 10.3881C262.857 9.66946 263.24 9.11879 264.005 8.73612C264.78 8.35346 265.844 8.16212 267.197 8.16212ZM267.197 9.05812C266.534 9.05812 265.965 9.10946 265.489 9.21212C265.022 9.31479 264.663 9.46879 264.411 9.67412C264.159 9.87012 264.033 10.1081 264.033 10.3881C264.033 10.6868 264.159 10.9388 264.411 11.1441C264.663 11.3401 265.022 11.4895 265.489 11.5921C265.965 11.6948 266.534 11.7461 267.197 11.7461C267.86 11.7461 268.424 11.6948 268.891 11.5921C269.367 11.4895 269.731 11.3401 269.983 11.1441C270.235 10.9388 270.361 10.6868 270.361 10.3881C270.361 10.1081 270.235 9.87012 269.983 9.67412C269.731 9.46879 269.367 9.31479 268.891 9.21212C268.424 9.10946 267.86 9.05812 267.197 9.05812ZM267.197 0.238124C268.112 0.238124 268.9 0.331458 269.563 0.518125C270.235 0.704791 270.748 0.975458 271.103 1.33012C271.467 1.67546 271.649 2.09546 271.649 2.59012C271.649 3.07546 271.467 3.49546 271.103 3.85012C270.748 4.20479 270.235 4.47546 269.563 4.66212C268.9 4.83946 268.112 4.92812 267.197 4.92812C266.282 4.92812 265.489 4.83946 264.817 4.66212C264.154 4.47546 263.641 4.20479 263.277 3.85012C262.922 3.49546 262.745 3.07546 262.745 2.59012C262.745 2.09546 262.922 1.67546 263.277 1.33012C263.641 0.975458 264.154 0.704791 264.817 0.518125C265.489 0.331458 266.282 0.238124 267.197 0.238124ZM267.197 1.14812C266.534 1.14812 265.956 1.20412 265.461 1.31612C264.976 1.42812 264.598 1.59146 264.327 1.80612C264.066 2.02079 263.935 2.28212 263.935 2.59012C263.935 2.88879 264.066 3.15012 264.327 3.37412C264.598 3.58879 264.976 3.75212 265.461 3.86413C265.956 3.97612 266.534 4.03212 267.197 4.03212C267.878 4.03212 268.462 3.97612 268.947 3.86413C269.432 3.75212 269.806 3.58879 270.067 3.37412C270.328 3.15012 270.459 2.88879 270.459 2.59012C270.459 2.28212 270.328 2.02079 270.067 1.80612C269.806 1.59146 269.432 1.42812 268.947 1.31612C268.462 1.20412 267.878 1.14812 267.197 1.14812Z" fill="white"/>
</svg>
