<svg width="219" height="58" viewBox="0 0 219 58" fill="none" xmlns="http://www.w3.org/2000/svg">
<path d="M18.625 13.3125C18.6042 16.2083 19.4271 18.8333 21.0938 21.1875C22.7604 23.5417 25.3125 25.25 28.75 26.3125L24.75 33C20.0833 31.4583 16.6771 28.6667 14.5312 24.625C12.3646 29.0833 8.875 32.1875 4.0625 33.9375L0 27.3125C3.41667 26.0625 5.94792 24.1979 7.59375 21.7188C9.23958 19.2188 10.0833 16.4167 10.125 13.3125V13.1875H1.75V6.1875H10.125V0.5625H18.625V6.1875H26.9375V13.1875H18.625V13.3125ZM9.6875 37.3125H49.625V57.375H40.625V44.5625H9.6875V37.3125ZM29 0.9375H37.5V14.1875H41.0625V0.0625H49.625V35.125H41.0625V21.375H37.5V35H29V0.9375ZM103.688 32.375H94.6875V0.0625H103.688V32.375ZM56.25 16.5C56.25 13.8125 56.9375 11.4167 58.3125 9.3125C59.6875 7.1875 61.5833 5.53125 64 4.34375C66.4375 3.15625 69.1458 2.5625 72.125 2.5625C75.1042 2.5625 77.8021 3.15625 80.2188 4.34375C82.6354 5.53125 84.5312 7.1875 85.9062 9.3125C87.3021 11.4167 88 13.8125 88 16.5C88 19.1042 87.3021 21.4583 85.9062 23.5625C84.5312 25.6667 82.625 27.3229 80.1875 28.5312C77.7708 29.7188 75.0833 30.3125 72.125 30.3125C69.1458 30.3125 66.4479 29.7188 64.0312 28.5312C61.6146 27.3229 59.7083 25.6667 58.3125 23.5625C56.9375 21.4583 56.25 19.1042 56.25 16.5ZM64.9375 34.8125H103.688V56.75H64.9375V34.8125ZM65 16.5C65 18.4375 65.6458 19.9688 66.9375 21.0938C68.25 22.1979 69.9479 22.75 72.0312 22.75C74.1354 22.75 75.8333 22.1979 77.125 21.0938C78.4375 19.9896 79.0833 18.4583 79.0625 16.5C79.0833 14.4792 78.4583 12.9167 77.1875 11.8125C75.9167 10.6875 74.2604 10.125 72.2188 10.125C70.0312 10.125 68.2812 10.6771 66.9688 11.7812C65.6562 12.8854 65 14.4583 65 16.5ZM94.875 49.5625V41.875H73.75V49.5625H94.875ZM133.75 12.1875C133.729 15.875 134.208 19.3854 135.188 22.7188C136.188 26.0521 137.75 29.0208 139.875 31.625C142 34.2083 144.688 36.1667 147.938 37.5L142.625 44.75C139.5 43.3542 136.833 41.3854 134.625 38.8438C132.417 36.3021 130.646 33.3125 129.312 29.875C128 33.7083 126.188 37.0208 123.875 39.8125C121.562 42.6042 118.708 44.75 115.312 46.25L109.938 38.75C113.292 37.375 116.062 35.3333 118.25 32.625C120.438 29.9167 122.042 26.8229 123.062 23.3438C124.083 19.8438 124.604 16.125 124.625 12.1875V4.25H133.75V12.1875ZM149.938 0H159V57.5H149.938V0ZM191.938 35.5625C196.125 35.5625 199.76 36 202.844 36.875C205.927 37.7292 208.302 38.9792 209.969 40.625C211.635 42.25 212.479 44.2083 212.5 46.5C212.479 48.75 211.635 50.6979 209.969 52.3438C208.302 53.9896 205.917 55.2396 202.812 56.0938C199.729 56.9688 196.104 57.3958 191.938 57.375C187.792 57.3958 184.167 56.9688 181.062 56.0938C177.979 55.2396 175.594 53.9896 173.906 52.3438C172.219 50.6979 171.375 48.75 171.375 46.5C171.375 44.2083 172.208 42.25 173.875 40.625C175.562 38.9792 177.948 37.7292 181.031 36.875C184.135 36 187.771 35.5625 191.938 35.5625ZM166.312 25.25H185.125V15.5H194V25.25H218.312V32.5H166.312V25.25ZM172.062 2.5H212.25V7.125V8.78125C212.25 11.3021 212.146 13.6354 211.938 15.7812C211.729 17.9271 211.292 20.1667 210.625 22.5L201.75 21.6875C202.312 19.4583 202.688 17.4062 202.875 15.5312C203.083 13.6354 203.198 11.625 203.219 9.5H172.062V2.5ZM180.375 46.5C180.354 47.8958 181.312 48.9271 183.25 49.5938C185.208 50.2604 188.104 50.6042 191.938 50.625C199.688 50.5833 203.562 49.2083 203.562 46.5C203.562 45.0833 202.583 44.0208 200.625 43.3125C198.688 42.6042 195.875 42.25 192.188 42.25C184.292 42.25 180.354 43.6667 180.375 46.5Z" fill="white"/>
</svg>
