<svg width="591" height="22" viewBox="0 0 591 22" fill="none" xmlns="http://www.w3.org/2000/svg">
<path d="M12.2812 4.17188H10.125V13.957C11.2734 13.8633 12.2891 13.7656 13.1719 13.6641L13.2891 15.2812C11.3359 15.6094 9.29297 15.8281 7.16016 15.9375C5.02734 16.0391 2.72656 16.0938 0.257812 16.1016L0 14.25C0.53125 14.25 1.42187 14.2422 2.67188 14.2266V4.17188H0.515625V2.34375H12.2812V4.17188ZM4.82812 14.1914C5.875 14.168 6.92188 14.1328 7.96875 14.0859V4.17188H4.82812V14.1914ZM14.3906 0.1875H16.6172V8.46094H19.9922V10.2891H16.6172V21.1875H14.3906V0.1875ZM37.02 6.51562H40.0903V8.39062H37.02V15.6562H34.7934V0.210938H37.02V6.51562ZM21.3638 1.54688H30.9263V7.73438H23.6138V10.6641C25.5044 10.6641 27.1528 10.6172 28.5591 10.5234C29.9653 10.4219 31.4106 10.2422 32.895 9.98438L33.1294 11.8125C31.6059 12.0781 30.0981 12.2578 28.6059 12.3516C27.1216 12.4375 25.2778 12.4844 23.0747 12.4922H21.3872V6.02344H28.7466V3.375H21.3638V1.54688ZM23.8247 14.4609H26.0747V18.9375H37.9575V20.7422H23.8247V14.4609ZM41.7431 2.22656H52.3838V4.45312H44.3213V9.58594H51.8213V11.7891H44.3213V16.9688H52.4775V19.1953H41.7431V2.22656ZM68.7553 19.1953H66.3881L57.7866 6.79688H57.6459V19.1953H55.0678V2.22656H57.4584L66.06 14.6484H66.2241V2.22656H68.7553V19.1953ZM83.205 7.59375C82.8847 6.57031 82.3456 5.77344 81.5878 5.20312C80.83 4.63281 79.9003 4.35156 78.7988 4.35938C77.8378 4.35156 76.9745 4.59766 76.2089 5.09766C75.4433 5.58984 74.8378 6.31641 74.3925 7.27734C73.955 8.23047 73.7363 9.375 73.7363 10.7109C73.7363 12.0469 73.955 13.1953 74.3925 14.1562C74.8378 15.1094 75.4511 15.8359 76.2323 16.3359C77.0136 16.8281 77.9081 17.0703 78.9159 17.0625C79.8144 17.0625 80.6034 16.8828 81.2831 16.5234C81.9628 16.1641 82.4902 15.6523 82.8652 14.9883C83.248 14.3164 83.4472 13.5312 83.4628 12.6328H79.2909V10.5H85.9706V12.4219C85.9706 13.8281 85.6698 15.0625 85.0683 16.125C84.4667 17.1797 83.6308 17.9961 82.5605 18.5742C81.4902 19.1445 80.2675 19.4297 78.8925 19.4297C77.3691 19.4297 76.0253 19.0781 74.8613 18.375C73.6972 17.6641 72.7909 16.6523 72.1425 15.3398C71.5019 14.0195 71.1816 12.4766 71.1816 10.7109C71.1816 8.94531 71.5058 7.40625 72.1542 6.09375C72.8027 4.77344 73.7011 3.76172 74.8495 3.05859C76.0058 2.34766 77.3144 1.99219 78.7753 1.99219C79.9863 1.99219 81.0917 2.23047 82.0917 2.70703C83.0995 3.17578 83.9316 3.83594 84.5878 4.6875C85.2441 5.53125 85.6659 6.5 85.8534 7.59375H83.205ZM104.498 8.10938H90.0375V0.9375H92.2406V6.32812H104.498V8.10938ZM87.4828 10.7578H106.702V12.5391H87.4828V10.7578ZM89.8734 14.5312H92.1V18.8672H104.639V20.6953H89.8734V14.5312ZM120.859 5.53125C120.851 6.79688 121.081 8.04297 121.55 9.26953C122.027 10.4961 122.687 11.5859 123.531 12.5391C124.382 13.4844 125.343 14.1953 126.413 14.6719L125.077 16.4297C123.882 15.8594 122.824 15.0156 121.902 13.8984C120.98 12.7812 120.269 11.5 119.769 10.0547C119.277 11.6172 118.558 12.9961 117.613 14.1914C116.675 15.3867 115.585 16.2891 114.343 16.8984L112.984 15.0234C114.07 14.5469 115.038 13.8164 115.89 12.832C116.742 11.8398 117.406 10.707 117.882 9.43359C118.367 8.15234 118.609 6.85156 118.609 5.53125V1.94531H120.859V5.53125ZM128.312 0.1875H130.538V21.2344H128.312V0.1875ZM142.879 13.3828C144.387 13.3828 145.699 13.5391 146.816 13.8516C147.933 14.1562 148.793 14.6016 149.394 15.1875C150.004 15.7734 150.308 16.4688 150.308 17.2734C150.308 18.0781 150.004 18.7695 149.394 19.3477C148.793 19.9336 147.933 20.3789 146.816 20.6836C145.699 20.9883 144.387 21.1406 142.879 21.1406C141.387 21.1406 140.082 20.9883 138.965 20.6836C137.855 20.3789 137 19.9336 136.398 19.3477C135.797 18.7695 135.496 18.0781 135.496 17.2734C135.496 16.4688 135.797 15.7734 136.398 15.1875C137 14.6016 137.855 14.1562 138.965 13.8516C140.074 13.5391 141.379 13.3828 142.879 13.3828ZM133.433 9.84375H141.098V5.90625H143.277V9.84375H152.535V11.6484H133.433V9.84375ZM135.66 1.21875H150.144V2.97656V3.59766C150.144 4.50391 150.105 5.34375 150.027 6.11719C149.957 6.88281 149.801 7.69531 149.558 8.55469L147.379 8.32031C147.629 7.36719 147.785 6.51172 147.848 5.75391C147.91 4.98828 147.941 4.07031 147.941 3H135.66V1.21875ZM137.723 17.2734C137.715 17.7188 137.918 18.1055 138.332 18.4336C138.754 18.7539 139.351 19 140.125 19.1719C140.906 19.3438 141.824 19.4297 142.879 19.4297C143.949 19.4297 144.875 19.3438 145.656 19.1719C146.437 19 147.039 18.7539 147.461 18.4336C147.883 18.1055 148.098 17.7188 148.105 17.2734C148.098 16.8203 147.883 16.4297 147.461 16.1016C147.039 15.7656 146.437 15.5117 145.656 15.3398C144.875 15.1602 143.949 15.0703 142.879 15.0703C141.824 15.0703 140.906 15.1602 140.125 15.3398C139.351 15.5117 138.754 15.7656 138.332 16.1016C137.918 16.4297 137.715 16.8203 137.723 17.2734ZM172.867 14.2969H164.289V21.1875H162.11V14.2969H153.649V12.5391H172.867V14.2969ZM156.039 1.03125H158.242V3.77344H168.227V1.03125H170.453V10.1484H156.039V1.03125ZM168.227 8.36719V5.55469H158.242V8.36719H168.227ZM191.442 21.2344H189.239V9.77344H185.067V7.94531H189.239V0.1875H191.442V21.2344ZM174.895 2.0625H184.716V3.86719H177.145V7.94531H183.825V9.72656H177.145V14.4141C179.028 14.4141 180.622 14.375 181.927 14.2969C183.239 14.2109 184.559 14.0547 185.887 13.8281L186.122 15.6328C184.653 15.8672 183.2 16.0312 181.762 16.125C180.325 16.2109 178.583 16.2578 176.536 16.2656H174.895V2.0625ZM206.865 5.53125C206.857 6.75781 207.076 7.97266 207.521 9.17578C207.967 10.3789 208.592 11.457 209.396 12.4102C210.201 13.3555 211.115 14.0781 212.138 14.5781L210.756 16.3594C209.631 15.7656 208.635 14.918 207.767 13.8164C206.908 12.707 206.244 11.4414 205.775 10.0195C205.299 11.5352 204.611 12.8867 203.713 14.0742C202.822 15.2539 201.787 16.1484 200.607 16.7578L199.224 14.9531C200.279 14.4453 201.217 13.6953 202.037 12.7031C202.857 11.7109 203.494 10.5859 203.947 9.32812C204.408 8.07031 204.638 6.80469 204.638 5.53125V1.94531H206.865V5.53125ZM213.709 0.1875H215.935V8.55469H219.31V10.4531H215.935V21.1875H213.709V0.1875ZM237.908 4.33594H220.822V2.50781H228.299V0.09375H230.502V2.50781H237.908V4.33594ZM219.838 13.7812H239.057V15.6094H230.502V21.2109H228.299V15.6094H219.838V13.7812ZM222.416 8.95312C222.416 8.19531 222.69 7.55078 223.237 7.01953C223.791 6.48828 224.592 6.08594 225.639 5.8125C226.686 5.53906 227.94 5.40625 229.401 5.41406C230.854 5.40625 232.104 5.53906 233.151 5.8125C234.197 6.08594 234.998 6.48828 235.553 7.01953C236.108 7.55078 236.385 8.19531 236.385 8.95312C236.385 9.69531 236.108 10.3281 235.553 10.8516C234.998 11.375 234.197 11.7773 233.151 12.0586C232.104 12.332 230.854 12.4688 229.401 12.4688C227.947 12.4688 226.697 12.332 225.651 12.0586C224.604 11.7773 223.803 11.375 223.248 10.8516C222.694 10.3281 222.416 9.69531 222.416 8.95312ZM224.713 8.95312C224.713 9.53125 225.112 9.98047 225.908 10.3008C226.705 10.6211 227.842 10.7812 229.319 10.7812C230.85 10.7812 232.026 10.625 232.846 10.3125C233.666 10 234.08 9.54688 234.088 8.95312C234.08 8.35156 233.67 7.89062 232.858 7.57031C232.053 7.24219 230.901 7.07812 229.401 7.07812C227.893 7.07812 226.733 7.24219 225.92 7.57031C225.115 7.89062 224.713 8.35156 224.713 8.95312ZM257.175 2.95312V3.22266C257.159 4.24609 257.116 5.21484 257.046 6.12891C256.984 7.03516 256.847 8.04688 256.636 9.16406L254.433 8.95312C254.636 7.91406 254.773 6.97656 254.843 6.14062C254.921 5.30469 254.968 4.46094 254.984 3.60938H246.581V1.78125H257.175V2.95312ZM245.316 10.9688C246.808 10.9688 248.238 10.9531 249.605 10.9219V6.49219H251.808V10.8516C254.417 10.7422 256.644 10.5547 258.488 10.2891L258.628 11.9062C256.683 12.25 254.628 12.4805 252.464 12.5977C250.3 12.707 247.988 12.7656 245.527 12.7734L245.316 10.9688ZM248.503 14.5312H250.73V18.9375H262.777V20.7422H248.503V14.5312ZM259.823 0.1875H262.097V6.86719H264.98V8.74219H262.097V15.9609H259.823V0.1875ZM283.179 21.2344H280.953V0.1875H283.179V21.2344ZM266.914 2.08594H276.758V9.75H269.211V14.3438C271.031 14.3359 272.715 14.2773 274.261 14.168C275.816 14.0586 277.429 13.8672 279.101 13.5938L279.312 15.4219C277.57 15.7109 275.879 15.9102 274.238 16.0195C272.597 16.1289 270.758 16.1875 268.718 16.1953H266.937V7.96875H274.484V3.89062H266.914V2.08594ZM302.692 8.71875H305.738V10.5469H302.692V21.1875H300.465V0.1875H302.692V8.71875ZM285.817 15.2812C287.285 13.75 288.356 12.0898 289.027 10.3008C289.707 8.51172 290.106 6.5 290.223 4.26562H286.567V2.4375H292.332C292.324 4.33594 292.184 6.08984 291.91 7.69922C291.637 9.30078 291.149 10.8477 290.445 12.3398C289.75 13.832 288.793 15.2266 287.574 16.5234L285.817 15.2812ZM291.817 16.6875C293.277 14.9844 294.32 13.1094 294.945 11.0625C295.57 9.01562 295.93 6.75 296.024 4.26562H293.012V2.4375H298.121C298.121 4.45312 298.004 6.33203 297.77 8.07422C297.535 9.81641 297.082 11.5312 296.41 13.2188C295.746 14.9062 294.809 16.4688 293.598 17.9062L291.817 16.6875ZM314.001 6.375C314.001 7.53125 314.235 8.67969 314.704 9.82031C315.18 10.9609 315.837 11.9805 316.672 12.8789C317.516 13.7773 318.469 14.4531 319.532 14.9062L318.313 16.6406C317.087 16.1016 316.001 15.2852 315.055 14.1914C314.11 13.0977 313.391 11.8438 312.899 10.4297C312.407 11.9453 311.688 13.3008 310.743 14.4961C309.797 15.6914 308.719 16.5859 307.508 17.1797L306.219 15.4219C307.258 14.9375 308.196 14.2148 309.032 13.2539C309.876 12.2852 310.536 11.1953 311.012 9.98438C311.497 8.77344 311.743 7.57031 311.751 6.375V4.14844H306.946V2.29688H318.782V4.14844H314.001V6.375ZM321.43 0.1875H323.657V21.1875H321.43V0.1875ZM351.127 18.5625H331.908V16.7109H340.369V11.8594H334.111V1.875H348.83V11.8594H342.572V16.7109H351.127V18.5625ZM346.65 10.1016V3.65625H336.267V10.1016H346.65ZM371.342 12.4922H352.17V10.7109H371.342V12.4922ZM354.561 1.05469H368.975V2.83594H356.787V6.77344H369.186V8.60156H354.561V1.05469ZM354.584 14.5547H356.787V18.9141H369.326V20.7422H354.584V14.5547ZM389.507 3.72656C389.499 5.125 389.46 6.4375 389.39 7.66406C389.319 8.89062 389.155 10.3203 388.897 11.9531L386.694 11.7891C386.937 10.2969 387.097 8.95703 387.175 7.76953C387.253 6.58203 387.296 5.40625 387.304 4.24219H378.772V2.4375H389.507V3.72656ZM377.601 14.8594C379.515 14.8438 380.952 14.8242 381.913 14.8008V8.4375H384.116V14.7305C386.78 14.6211 388.983 14.4531 390.726 14.2266L390.843 15.8906C387.647 16.4062 383.644 16.6641 378.831 16.6641H377.858L377.601 14.8594ZM391.921 0.1875H394.171V8.85938H397.382V10.7578H394.171V21.1875H391.921V0.1875ZM415.582 12.6797H413.355V7.35938H409.441V5.53125H413.355V0.1875H415.582V12.6797ZM398.074 10.7812C399.136 10.4062 400.066 9.86719 400.863 9.16406C401.66 8.45312 402.269 7.64453 402.691 6.73828C403.121 5.82422 403.332 4.88281 403.324 3.91406V3.44531H398.777V1.64062H410.097V3.44531H405.597V3.89062C405.589 4.78125 405.789 5.64453 406.195 6.48047C406.601 7.31641 407.187 8.0625 407.953 8.71875C408.718 9.36719 409.621 9.86719 410.66 10.2188L409.511 11.9766C408.355 11.5781 407.347 10.9844 406.488 10.1953C405.636 9.39844 404.976 8.46875 404.507 7.40625C404.046 8.59375 403.363 9.63672 402.457 10.5352C401.55 11.4336 400.48 12.1094 399.246 12.5625L398.074 10.7812ZM401.449 17.2266C401.449 16.3984 401.73 15.6914 402.293 15.1055C402.863 14.5117 403.679 14.0586 404.742 13.7461C405.812 13.4258 407.082 13.2656 408.55 13.2656C410.011 13.2656 411.273 13.4258 412.335 13.7461C413.398 14.0586 414.214 14.5117 414.785 15.1055C415.363 15.6914 415.652 16.3984 415.652 17.2266C415.652 18.0547 415.363 18.7617 414.785 19.3477C414.214 19.9414 413.398 20.3945 412.335 20.707C411.273 21.0273 410.011 21.1875 408.55 21.1875C407.082 21.1875 405.812 21.0273 404.742 20.707C403.679 20.3945 402.863 19.9414 402.293 19.3477C401.73 18.7617 401.449 18.0547 401.449 17.2266ZM403.652 17.2266C403.644 17.9375 404.07 18.4883 404.929 18.8789C405.796 19.2617 407.003 19.4453 408.55 19.4297C410.082 19.4453 411.277 19.2617 412.136 18.8789C413.003 18.4883 413.441 17.9375 413.449 17.2266C413.441 16.5234 413.011 15.9766 412.16 15.5859C411.316 15.1953 410.136 15 408.621 15C407.043 15 405.816 15.1914 404.941 15.5742C404.074 15.957 403.644 16.5078 403.652 17.2266ZM436.406 21.1875H434.273V0.1875H436.406V21.1875ZM418.57 9.25781C418.57 7.75781 418.754 6.45312 419.121 5.34375C419.496 4.22656 420.023 3.37109 420.703 2.77734C421.391 2.17578 422.188 1.875 423.094 1.875C423.938 1.875 424.684 2.12891 425.332 2.63672C425.988 3.14453 426.512 3.87891 426.902 4.83984C427.301 5.79297 427.543 6.92188 427.629 8.22656H430.008V0.585938H432.141V20.1562H430.008V10.0312H427.641C427.578 11.3906 427.352 12.5703 426.961 13.5703C426.57 14.5625 426.043 15.3281 425.379 15.8672C424.715 16.3984 423.953 16.6641 423.094 16.6641C422.188 16.6641 421.391 16.3672 420.703 15.7734C420.023 15.1719 419.496 14.3125 419.121 13.1953C418.754 12.0703 418.57 10.7578 418.57 9.25781ZM420.633 9.25781C420.633 10.3594 420.73 11.3086 420.926 12.1055C421.129 12.9023 421.414 13.5117 421.781 13.9336C422.156 14.3477 422.594 14.5547 423.094 14.5547C423.609 14.5547 424.055 14.3477 424.43 13.9336C424.805 13.5117 425.094 12.9023 425.297 12.1055C425.5 11.3086 425.602 10.3594 425.602 9.25781C425.602 8.14844 425.5 7.19922 425.297 6.41016C425.094 5.61328 424.805 5.00781 424.43 4.59375C424.055 4.17188 423.609 3.96094 423.094 3.96094C422.594 3.96094 422.156 4.17188 421.781 4.59375C421.414 5.00781 421.129 5.61328 420.926 6.41016C420.73 7.20703 420.633 8.15625 420.633 9.25781ZM450.329 4.80469C450.329 5.60156 450.493 6.37109 450.821 7.11328C451.149 7.85547 451.626 8.51562 452.251 9.09375C452.884 9.67188 453.634 10.1172 454.501 10.4297L453.446 12.1172C452.478 11.7422 451.645 11.2148 450.95 10.5352C450.255 9.85547 449.716 9.0625 449.333 8.15625C448.95 9.13281 448.407 9.99609 447.704 10.7461C447.001 11.4883 446.149 12.0625 445.149 12.4688L444.095 10.8281C444.962 10.4766 445.704 9.99219 446.321 9.375C446.938 8.75781 447.407 8.05469 447.728 7.26562C448.048 6.47656 448.212 5.65625 448.22 4.80469V4.61719H444.563V2.83594H448.22V0.421875H450.329V2.83594H453.938V4.61719H450.329V4.80469ZM447.61 14.1094H461.884V21.1875H459.681V15.9141H447.61V14.1094ZM455.251 0.5625H457.384V5.69531H459.774V0.210938H461.884V13.0547H459.774V7.52344H457.384V12.9609H455.251V0.5625ZM481.654 12.1641H479.427V0.210938H481.654V12.1641ZM464.662 6.23438C464.662 5.26562 464.904 4.40234 465.388 3.64453C465.872 2.88672 466.54 2.30078 467.392 1.88672C468.244 1.47266 469.201 1.26562 470.263 1.26562C471.326 1.26562 472.279 1.47266 473.122 1.88672C473.974 2.30078 474.638 2.88672 475.115 3.64453C475.599 4.40234 475.841 5.26562 475.841 6.23438C475.841 7.17969 475.599 8.02734 475.115 8.77734C474.638 9.52734 473.974 10.1133 473.122 10.5352C472.279 10.9492 471.326 11.1562 470.263 11.1562C469.201 11.1562 468.244 10.9492 467.392 10.5352C466.54 10.1133 465.872 9.52734 465.388 8.77734C464.904 8.02734 464.662 7.17969 464.662 6.23438ZM466.841 6.23438C466.841 6.82812 466.986 7.35547 467.275 7.81641C467.564 8.27734 467.97 8.63672 468.494 8.89453C469.017 9.15234 469.607 9.28125 470.263 9.28125C470.912 9.28125 471.494 9.15234 472.009 8.89453C472.525 8.63672 472.927 8.27734 473.216 7.81641C473.513 7.35547 473.662 6.82812 473.662 6.23438C473.662 5.625 473.513 5.08594 473.216 4.61719C472.927 4.14062 472.525 3.77734 472.009 3.52734C471.494 3.26953 470.912 3.14062 470.263 3.14062C469.607 3.14062 469.017 3.26953 468.494 3.52734C467.97 3.77734 467.564 4.14062 467.275 4.61719C466.986 5.08594 466.841 5.625 466.841 6.23438ZM467.849 13.2188H481.654V20.9297H467.849V13.2188ZM479.474 19.125V15H470.052V19.125H479.474ZM494.064 0.539062C495.642 0.539062 496.99 0.675781 498.107 0.949219C499.225 1.22266 500.08 1.63281 500.674 2.17969C501.267 2.71875 501.564 3.375 501.564 4.14844C501.564 4.92969 501.267 5.59375 500.674 6.14062C500.08 6.67969 499.225 7.08984 498.107 7.37109C496.99 7.64453 495.642 7.78125 494.064 7.78125C492.486 7.78125 491.135 7.64453 490.01 7.37109C488.892 7.08984 488.037 6.67969 487.443 6.14062C486.857 5.59375 486.564 4.92969 486.564 4.14844C486.564 3.375 486.857 2.71875 487.443 2.17969C488.037 1.63281 488.892 1.22266 490.01 0.949219C491.135 0.675781 492.486 0.539062 494.064 0.539062ZM484.502 9.07031H503.65V10.8516H484.502V9.07031ZM486.799 12.4688H501.236V17.3906H489.002V19.2656H501.822V20.9766H486.822V15.7734H499.033V14.1328H486.799V12.4688ZM488.885 4.14844C488.877 4.79688 489.318 5.28906 490.209 5.625C491.1 5.95312 492.385 6.11719 494.064 6.11719C495.76 6.11719 497.053 5.95312 497.943 5.625C498.834 5.28906 499.275 4.79688 499.267 4.14844C499.275 3.52344 498.826 3.03906 497.92 2.69531C497.021 2.35156 495.736 2.17969 494.064 2.17969C492.4 2.17969 491.119 2.35156 490.221 2.69531C489.322 3.03906 488.877 3.52344 488.885 4.14844ZM526.503 8.32031H529.878V10.1484H526.503V21.2344H524.276V0.1875H526.503V8.32031ZM511.034 2.20312H520.854V4.00781H513.261V14.1562C515.12 14.1484 516.753 14.0938 518.159 13.9922C519.565 13.8906 520.987 13.7109 522.425 13.4531L522.706 15.3281C521.222 15.5938 519.765 15.7734 518.335 15.8672C516.913 15.9609 515.222 16.0078 513.261 16.0078H512.722H511.034V2.20312ZM546.906 5.46094H549.953V7.33594H546.906V12.4219H544.679V0.1875H546.906V5.46094ZM530.429 2.25H535.585V0H537.812V2.25H542.945V4.03125H530.429V2.25ZM531.578 8.57812C531.578 7.84375 531.788 7.19922 532.21 6.64453C532.632 6.08203 533.23 5.65234 534.003 5.35547C534.785 5.05078 535.679 4.89844 536.687 4.89844C537.687 4.89844 538.57 5.05078 539.335 5.35547C540.109 5.65234 540.706 6.08203 541.128 6.64453C541.558 7.19922 541.773 7.84375 541.773 8.57812C541.773 9.3125 541.558 9.96094 541.128 10.5234C540.706 11.0781 540.109 11.5078 539.335 11.8125C538.57 12.1172 537.687 12.2656 536.687 12.2578C535.679 12.2656 534.785 12.1211 534.003 11.8242C533.23 11.5195 532.632 11.0859 532.21 10.5234C531.788 9.96094 531.578 9.3125 531.578 8.57812ZM533.476 13.2891H535.679V15.3281H544.679V13.2891H546.906V20.9297H533.476V13.2891ZM533.734 8.57812C533.726 8.99219 533.843 9.35156 534.085 9.65625C534.328 9.96094 534.671 10.1992 535.117 10.3711C535.57 10.5352 536.093 10.6172 536.687 10.6172C537.585 10.6094 538.308 10.4258 538.855 10.0664C539.402 9.69922 539.679 9.20312 539.687 8.57812C539.679 8.17969 539.55 7.82812 539.3 7.52344C539.05 7.21875 538.703 6.98438 538.257 6.82031C537.812 6.64844 537.3 6.5625 536.722 6.5625C536.128 6.5625 535.605 6.64453 535.152 6.80859C534.699 6.97266 534.347 7.20703 534.097 7.51172C533.847 7.81641 533.726 8.17188 533.734 8.57812ZM544.679 19.1484V17.0625H535.679V19.1484H544.679ZM568.105 21.1875H565.879V0.1875H568.105V21.1875ZM551.957 2.22656H554.16V13.9219C557.488 13.9062 560.707 13.5859 563.816 12.9609L564.121 14.8359C562.34 15.2031 560.597 15.4648 558.894 15.6211C557.191 15.7773 555.465 15.8516 553.715 15.8438H551.957V2.22656ZM587.289 8.32031H590.664V10.1484H587.289V21.2344H585.063V0.1875H587.289V8.32031ZM571.821 2.20312H581.641V4.00781H574.047V14.1562C575.907 14.1484 577.539 14.0938 578.946 13.9922C580.352 13.8906 581.774 13.7109 583.211 13.4531L583.492 15.3281C582.008 15.5938 580.551 15.7734 579.121 15.8672C577.7 15.9609 576.008 16.0078 574.047 16.0078H573.508H571.821V2.20312Z" fill="white"/>
</svg>
