<svg width="102" height="19" viewBox="0 0 102 19" fill="none" xmlns="http://www.w3.org/2000/svg">
<path d="M14.1406 17.6367H1.89453V12.5H14.1406V17.6367ZM0 9.74609H6.95312V8.7207C5.40365 8.64909 4.21875 8.40169 3.39844 7.97852C2.57812 7.55534 2.16797 6.97266 2.16797 6.23047C2.16797 5.41016 2.67253 4.78841 3.68164 4.36523C4.69076 3.94206 6.13932 3.73047 8.02734 3.73047C9.92839 3.73047 11.3802 3.94206 12.3828 4.36523C13.3919 4.7819 13.8997 5.40365 13.9062 6.23047C13.8997 6.97917 13.4896 7.5651 12.6758 7.98828C11.862 8.40495 10.6771 8.64909 9.12109 8.7207V9.74609H16.0938V11.4648H0V9.74609ZM0.800781 1.54297H6.95312V0H9.12109V1.54297H15.2148V3.18359H0.800781V1.54297ZM12.0312 15.9961V14.1406H4.04297V15.9961H12.0312ZM4.49219 6.23047C4.49219 6.92057 5.67057 7.26562 8.02734 7.26562C10.3906 7.26562 11.5755 6.92057 11.582 6.23047C11.5755 5.87891 11.2793 5.62174 10.6934 5.45898C10.1139 5.28971 9.22526 5.20182 8.02734 5.19531C6.84245 5.20182 5.95703 5.28971 5.37109 5.45898C4.78516 5.62174 4.49219 5.87891 4.49219 6.23047Z" fill="#C3C3C3"/>
<path d="M23.8477 18.2422H21.6602L26.2305 1.30859H28.3984L23.8477 18.2422ZM39.3945 4.16016C39.3945 4.79167 39.5215 5.40365 39.7754 5.99609C40.0293 6.58203 40.4069 7.10612 40.9082 7.56836C41.416 8.0306 42.0312 8.38542 42.7539 8.63281L41.7773 10.2734C40.9896 9.98698 40.3125 9.58008 39.7461 9.05273C39.1797 8.52539 38.7337 7.91016 38.4082 7.20703C38.0892 7.97526 37.6432 8.64909 37.0703 9.22852C36.5039 9.80143 35.8138 10.2474 35 10.5664L33.9844 8.96484C34.707 8.67839 35.319 8.28776 35.8203 7.79297C36.3216 7.29818 36.6992 6.74154 36.9531 6.12305C37.207 5.49805 37.3372 4.84375 37.3438 4.16016V4.02344H34.4336V2.32422H37.3438V0.390625H39.3945V2.32422H42.2656V4.02344H39.3945V4.16016ZM36.9531 11.8164H49.043V17.8516H46.875V13.5742H36.9531V11.8164ZM43.2227 0.507812H45.2734V4.74609H46.9727V0.214844H49.043V11.0156H46.9727V6.50391H45.2734V10.9375H43.2227V0.507812ZM65.9375 10.2148H63.75V0.214844H65.9375V10.2148ZM51.543 5.27344C51.543 4.45964 51.748 3.73372 52.1582 3.0957C52.5749 2.45117 53.1445 1.94987 53.8672 1.5918C54.5898 1.23372 55.4036 1.05469 56.3086 1.05469C57.207 1.05469 58.0176 1.23372 58.7402 1.5918C59.4629 1.94987 60.0293 2.45117 60.4395 3.0957C60.8496 3.73372 61.0547 4.45964 61.0547 5.27344C61.0547 6.07422 60.8496 6.79362 60.4395 7.43164C60.0293 8.06315 59.4629 8.55794 58.7402 8.91602C58.0176 9.27409 57.207 9.45312 56.3086 9.45312C55.4102 9.45312 54.5964 9.27409 53.8672 8.91602C53.1445 8.55794 52.5749 8.06315 52.1582 7.43164C51.748 6.79362 51.543 6.07422 51.543 5.27344ZM53.6719 5.27344C53.6719 5.74219 53.7826 6.1556 54.0039 6.51367C54.2253 6.86523 54.5345 7.13867 54.9316 7.33398C55.3353 7.52279 55.7943 7.61719 56.3086 7.61719C56.8099 7.61719 57.2591 7.52279 57.6562 7.33398C58.0534 7.13867 58.3626 6.86523 58.584 6.51367C58.8118 6.1556 58.9258 5.74219 58.9258 5.27344C58.9258 4.79167 58.8118 4.37174 58.584 4.01367C58.3626 3.6556 58.0534 3.37891 57.6562 3.18359C57.2591 2.98828 56.8099 2.89062 56.3086 2.89062C55.7943 2.89062 55.3353 2.98828 54.9316 3.18359C54.5345 3.37891 54.2253 3.6556 54.0039 4.01367C53.7826 4.37174 53.6719 4.79167 53.6719 5.27344ZM54.2188 11.0742H65.9375V17.6367H54.2188V11.0742ZM63.8086 15.8789V12.793H56.3672V15.8789H63.8086ZM75.1953 4.43359C75.1888 5.52083 75.3678 6.57878 75.7324 7.60742C76.097 8.63607 76.6243 9.55078 77.3145 10.3516C78.0046 11.1523 78.8151 11.7513 79.7461 12.1484L78.457 13.8867C77.4609 13.4245 76.5918 12.7539 75.8496 11.875C75.1139 10.9896 74.5378 9.95768 74.1211 8.7793C73.7044 10.0488 73.1152 11.1621 72.3535 12.1191C71.5983 13.0762 70.6966 13.8021 69.6484 14.2969L68.3203 12.4805C69.2773 12.0703 70.1074 11.4518 70.8105 10.625C71.5137 9.79167 72.0508 8.83789 72.4219 7.76367C72.793 6.68945 72.9818 5.57943 72.9883 4.43359V1.62109H75.1953V4.43359ZM81.0156 0.195312H83.2031V17.8711H81.0156V0.195312ZM93.75 11.2305C95.026 11.2305 96.1328 11.3639 97.0703 11.6309C98.0143 11.8913 98.7402 12.2721 99.248 12.7734C99.7624 13.2682 100.02 13.8607 100.02 14.5508C100.02 15.2279 99.7624 15.8105 99.248 16.2988C98.7402 16.7936 98.0143 17.1712 97.0703 17.4316C96.1328 17.6986 95.026 17.832 93.75 17.832C92.487 17.832 91.3835 17.6986 90.4395 17.4316C89.502 17.1712 88.776 16.7936 88.2617 16.2988C87.7539 15.8105 87.5 15.2279 87.5 14.5508C87.5 13.8607 87.7539 13.2682 88.2617 12.7734C88.776 12.2721 89.502 11.8913 90.4395 11.6309C91.3835 11.3639 92.487 11.2305 93.75 11.2305ZM85.8398 8.20312H92.0508V5H94.1992V8.20312H101.855V9.96094H85.8398V8.20312ZM87.6758 1.03516H99.9023V2.5V3.01758C99.9023 3.7793 99.8698 4.48568 99.8047 5.13672C99.7461 5.78776 99.6159 6.47135 99.4141 7.1875L97.2656 6.99219C97.4609 6.22396 97.5879 5.52409 97.6465 4.89258C97.7051 4.26107 97.7344 3.54818 97.7344 2.75391H87.6758V1.03516ZM89.6875 14.5508C89.681 15.0651 90.0326 15.4622 90.7422 15.7422C91.4583 16.0156 92.4609 16.1523 93.75 16.1523C95.0391 16.1523 96.0449 16.0156 96.7676 15.7422C97.4967 15.4622 97.8646 15.0651 97.8711 14.5508C97.8646 14.0169 97.4967 13.6035 96.7676 13.3105C96.0449 13.0176 95.0391 12.8711 93.75 12.8711C92.4674 12.8711 91.4681 13.0176 90.752 13.3105C90.0358 13.6035 89.681 14.0169 89.6875 14.5508Z" fill="white"/>
</svg>
