<svg width="101" height="19" viewBox="0 0 101 19" fill="none" xmlns="http://www.w3.org/2000/svg">
<path d="M14.1406 17.6367H1.89453V12.5H14.1406V17.6367ZM0 9.74609H6.95312V8.7207C5.40365 8.64909 4.21875 8.40169 3.39844 7.97852C2.57812 7.55534 2.16797 6.97266 2.16797 6.23047C2.16797 5.41016 2.67253 4.78841 3.68164 4.36523C4.69076 3.94206 6.13932 3.73047 8.02734 3.73047C9.92839 3.73047 11.3802 3.94206 12.3828 4.36523C13.3919 4.7819 13.8997 5.40365 13.9062 6.23047C13.8997 6.97917 13.4896 7.5651 12.6758 7.98828C11.862 8.40495 10.6771 8.64909 9.12109 8.7207V9.74609H16.0938V11.4648H0V9.74609ZM0.800781 1.54297H6.95312V0H9.12109V1.54297H15.2148V3.18359H0.800781V1.54297ZM12.0312 15.9961V14.1406H4.04297V15.9961H12.0312ZM4.49219 6.23047C4.49219 6.92057 5.67057 7.26562 8.02734 7.26562C10.3906 7.26562 11.5755 6.92057 11.582 6.23047C11.5755 5.87891 11.2793 5.62174 10.6934 5.45898C10.1139 5.28971 9.22526 5.20182 8.02734 5.19531C6.84245 5.20182 5.95703 5.28971 5.37109 5.45898C4.78516 5.62174 4.49219 5.87891 4.49219 6.23047Z" fill="#C3C3C3"/>
<path d="M23.8477 18.2422H21.6602L26.2305 1.30859H28.3984L23.8477 18.2422ZM40.625 4.43359C40.6185 5.52083 40.7975 6.57878 41.1621 7.60742C41.5267 8.63607 42.054 9.55078 42.7441 10.3516C43.4342 11.1523 44.2448 11.7513 45.1758 12.1484L43.8867 13.8867C42.8906 13.4245 42.0215 12.7539 41.2793 11.875C40.5436 10.9896 39.9674 9.95768 39.5508 8.7793C39.1341 10.0488 38.5449 11.1621 37.7832 12.1191C37.028 13.0762 36.1263 13.8021 35.0781 14.2969L33.75 12.4805C34.707 12.0703 35.5371 11.4518 36.2402 10.625C36.9434 9.79167 37.4805 8.83789 37.8516 7.76367C38.2227 6.68945 38.4115 5.57943 38.418 4.43359V1.62109H40.625V4.43359ZM46.4453 0.195312H48.6328V17.8711H46.4453V0.195312ZM59.1797 11.2305C60.4557 11.2305 61.5625 11.3639 62.5 11.6309C63.444 11.8913 64.1699 12.2721 64.6777 12.7734C65.1921 13.2682 65.4492 13.8607 65.4492 14.5508C65.4492 15.2279 65.1921 15.8105 64.6777 16.2988C64.1699 16.7936 63.444 17.1712 62.5 17.4316C61.5625 17.6986 60.4557 17.832 59.1797 17.832C57.9167 17.832 56.8132 17.6986 55.8691 17.4316C54.9316 17.1712 54.2057 16.7936 53.6914 16.2988C53.1836 15.8105 52.9297 15.2279 52.9297 14.5508C52.9297 13.8607 53.1836 13.2682 53.6914 12.7734C54.2057 12.2721 54.9316 11.8913 55.8691 11.6309C56.8132 11.3639 57.9167 11.2305 59.1797 11.2305ZM51.2695 8.20312H57.4805V5H59.6289V8.20312H67.2852V9.96094H51.2695V8.20312ZM53.1055 1.03516H65.332V2.5V3.01758C65.332 3.7793 65.2995 4.48568 65.2344 5.13672C65.1758 5.78776 65.0456 6.47135 64.8438 7.1875L62.6953 6.99219C62.8906 6.22396 63.0176 5.52409 63.0762 4.89258C63.1348 4.26107 63.1641 3.54818 63.1641 2.75391H53.1055V1.03516ZM55.1172 14.5508C55.1107 15.0651 55.4622 15.4622 56.1719 15.7422C56.888 16.0156 57.8906 16.1523 59.1797 16.1523C60.4688 16.1523 61.4746 16.0156 62.1973 15.7422C62.9264 15.4622 63.2943 15.0651 63.3008 14.5508C63.2943 14.0169 62.9264 13.6035 62.1973 13.3105C61.4746 13.0176 60.4688 12.8711 59.1797 12.8711C57.8971 12.8711 56.8978 13.0176 56.1816 13.3105C55.4655 13.6035 55.1107 14.0169 55.1172 14.5508ZM74.8242 4.43359C74.8177 5.49479 74.9837 6.52995 75.3223 7.53906C75.6673 8.54818 76.1621 9.45312 76.8066 10.2539C77.4577 11.0482 78.2292 11.6602 79.1211 12.0898L77.793 13.8281C76.8555 13.3529 76.0417 12.6758 75.3516 11.7969C74.668 10.918 74.1341 9.90234 73.75 8.75C73.3529 9.98047 72.793 11.0677 72.0703 12.0117C71.3542 12.9492 70.5013 13.6654 69.5117 14.1602L68.1836 12.4219C69.1016 11.9857 69.8958 11.3509 70.5664 10.5176C71.2435 9.67773 71.7578 8.73047 72.1094 7.67578C72.4674 6.61458 72.6497 5.53385 72.6562 4.43359V1.62109H74.8242V4.43359ZM80.1758 0.195312H82.3438V7.10938H85.0586V8.96484H82.3438V17.8516H80.1758V0.195312ZM92.3828 8.53516H88.418V11.9531C89.2578 11.9401 90.0716 11.901 90.8594 11.8359C91.6471 11.7643 92.474 11.6602 93.3398 11.5234L93.5156 13.3008C92.4805 13.4766 91.4941 13.597 90.5566 13.6621C89.6257 13.7207 88.6003 13.75 87.4805 13.75H86.3281V6.81641H90.2734V3.75H86.3086V1.99219H92.3828V8.53516ZM93.2617 9.00391H95.3125V6.38672H93.2617V4.64844H95.3125V0.507812H97.3828V16.9531H95.3125V10.7812H93.2617V9.00391ZM98.9258 0.195312H100.996V17.8516H98.9258V0.195312Z" fill="white"/>
</svg>
