<svg width="190" height="79" viewBox="0 0 190 79" fill="none" xmlns="http://www.w3.org/2000/svg">
<g filter="url(#filter0_d_12_745)">
<rect x="4" width="182" height="71" rx="20" fill="#2B6991"/>
<path d="M75.4141 28.9531H68.3594V38.8203C70.1016 38.8047 71.6016 38.75 72.8594 38.6562C74.1172 38.5625 75.375 38.3984 76.6328 38.1641L76.9141 40.2734C75.5 40.5547 74.0938 40.7422 72.6953 40.8359C71.2969 40.9297 69.5391 40.9766 67.4219 40.9766H65.7344V26.8203H75.4141V28.9531ZM74.2891 32.3516H79.8906V24.8984H82.4922V46.1094H79.8906V34.4844H74.2891V32.3516ZM104.805 43.5312H85.4453V41.3984H93.7891V37.2734H87.5781V26.3047H90.1797V29.7734H100V26.3047H102.602V37.2734H96.3672V41.3984H104.805V43.5312ZM100 35.1641V31.8594H90.1797V35.1641H100ZM123.883 46.0859H121.258V24.8984H123.883V46.0859ZM106.328 40.25C109.062 38.9531 111.113 37.4023 112.48 35.5977C113.855 33.793 114.664 31.6641 114.906 29.2109H107.406V27.1484H117.555C117.555 30.5156 116.793 33.4688 115.27 36.0078C113.746 38.5469 111.219 40.6562 107.688 42.3359L106.328 40.25Z" fill="white"/>
</g>
<defs>
<filter id="filter0_d_12_745" x="0" y="0" width="190" height="79" filterUnits="userSpaceOnUse" color-interpolation-filters="sRGB">
<feFlood flood-opacity="0" result="BackgroundImageFix"/>
<feColorMatrix in="SourceAlpha" type="matrix" values="0 0 0 0 0 0 0 0 0 0 0 0 0 0 0 0 0 0 127 0" result="hardAlpha"/>
<feOffset dy="4"/>
<feGaussianBlur stdDeviation="2"/>
<feComposite in2="hardAlpha" operator="out"/>
<feColorMatrix type="matrix" values="0 0 0 0 0 0 0 0 0 0 0 0 0 0 0 0 0 0 0.25 0"/>
<feBlend mode="normal" in2="BackgroundImageFix" result="effect1_dropShadow_12_745"/>
<feBlend mode="normal" in="SourceGraphic" in2="effect1_dropShadow_12_745" result="shape"/>
</filter>
</defs>
</svg>
