<svg width="789" height="92" viewBox="0 0 789 92" fill="none" xmlns="http://www.w3.org/2000/svg">
<path d="M10.8594 8.54688C12.4609 8.54688 13.9062 8.96354 15.1953 9.79688C16.4844 10.6302 17.5326 11.8151 18.3398 13.3516H26.1328V6.04688H31.0547V41.6719H26.1328V28.3516H18.7109C17.9167 30.1094 16.8359 31.4766 15.4688 32.4531C14.1146 33.4167 12.5781 33.8984 10.8594 33.8984C9.0625 33.8984 7.46094 33.3841 6.05469 32.3555C4.66146 31.3138 3.57422 29.8359 2.79297 27.9219C2.01172 25.9948 1.6276 23.7552 1.64062 21.2031C1.6276 18.6641 2.01172 16.4375 2.79297 14.5234C3.57422 12.6094 4.66146 11.138 6.05469 10.1094C7.46094 9.06771 9.0625 8.54688 10.8594 8.54688ZM6.40625 21.2031C6.40625 22.9349 6.58854 24.4193 6.95312 25.6562C7.31771 26.8802 7.83854 27.8112 8.51562 28.4492C9.19271 29.0742 9.97396 29.3802 10.8594 29.3672C11.7578 29.3802 12.5391 29.0742 13.2031 28.4492C13.8802 27.8112 14.401 26.8802 14.7656 25.6562C15.1302 24.4193 15.3125 22.9349 15.3125 21.2031C15.3125 19.4714 15.1302 17.9935 14.7656 16.7695C14.401 15.5456 13.8802 14.6211 13.2031 13.9961C12.5391 13.3581 11.7578 13.0391 10.8594 13.0391C9.97396 13.0391 9.19271 13.3581 8.51562 13.9961C7.83854 14.6211 7.31771 15.5521 6.95312 16.7891C6.58854 18.013 6.40625 19.4844 6.40625 21.2031ZM19.7266 17.375C19.9609 18.5469 20.0781 19.8229 20.0781 21.2031C20.0781 22.3099 20 23.3646 19.8438 24.3672H26.1328V17.375H19.7266ZM64.7859 41.6719H59.825V22.9219H54.0828V18.8594H59.825V6.04688H64.7859V41.6719ZM35.9969 9.01562H52.0906V22.3359H41.0359V29.2891C43.7703 29.263 46.1922 29.1849 48.3016 29.0547C50.4109 28.9115 52.5333 28.651 54.6688 28.2734L55.0594 32.3359C52.6766 32.7396 50.2872 33.0195 47.8914 33.1758C45.4956 33.319 42.7872 33.3906 39.7664 33.3906H39.0047H36.075V18.3906H47.2469V13.0391H35.9969V9.01562ZM101.095 28.1953H87.6969V33.9375H82.775V28.1953H68.5563V24.2891H101.095V28.1953ZM72.3844 31.125H77.3063V36.9844H97.5016V40.9688H72.3844V31.125ZM72.7359 7.17969H77.6578V10.8906H91.9156V7.17969H96.8766V21.7891H72.7359V7.17969ZM91.9156 17.8438V14.6016H77.6578V17.8438H91.9156ZM113.889 8.42969C115.751 8.42969 117.431 8.80078 118.928 9.54297C120.426 10.2852 121.597 11.3203 122.444 12.6484C123.303 13.9635 123.733 15.4609 123.733 17.1406C123.733 18.8203 123.303 20.3242 122.444 21.6523C121.597 22.9805 120.426 24.0221 118.928 24.7773C117.431 25.5195 115.751 25.8906 113.889 25.8906C112.04 25.8906 110.36 25.5195 108.85 24.7773C107.34 24.0221 106.155 22.9805 105.295 21.6523C104.436 20.3242 104.006 18.8203 104.006 17.1406C104.006 15.474 104.436 13.9766 105.295 12.6484C106.155 11.3203 107.34 10.2852 108.85 9.54297C110.36 8.80078 112.04 8.42969 113.889 8.42969ZM103.987 30.3438C107.893 30.3438 111.623 30.2656 115.178 30.1094C118.746 29.9531 122.105 29.6536 125.256 29.2109L125.647 32.8047C122.157 33.4818 118.609 33.918 115.002 34.1133C111.409 34.3086 107.444 34.4062 103.108 34.4062L102.522 30.3438H103.987ZM108.967 17.1406C108.967 18.0521 109.176 18.8464 109.592 19.5234C110.022 20.1875 110.608 20.6953 111.35 21.0469C112.105 21.3984 112.952 21.5677 113.889 21.5547C114.84 21.5677 115.692 21.3984 116.448 21.0469C117.203 20.6953 117.795 20.1875 118.225 19.5234C118.668 18.8464 118.889 18.0521 118.889 17.1406C118.889 16.2422 118.668 15.4609 118.225 14.7969C117.795 14.1198 117.203 13.6055 116.448 13.2539C115.692 12.9023 114.84 12.7266 113.889 12.7266C112.952 12.7266 112.105 12.9023 111.35 13.2539C110.608 13.6055 110.022 14.1198 109.592 14.7969C109.176 15.4609 108.967 16.2422 108.967 17.1406ZM127.287 6.04688H132.248V41.6719H127.287V6.04688ZM158.383 14.0938C158.37 16.3203 158.702 18.4688 159.379 20.5391C160.056 22.6094 161.072 24.4518 162.426 26.0664C163.78 27.681 165.427 28.8984 167.367 29.7188L164.438 33.7031C162.458 32.8047 160.753 31.5156 159.32 29.8359C157.901 28.1562 156.775 26.1836 155.941 23.918C155.121 26.3919 153.969 28.5469 152.484 30.3828C151 32.2057 149.203 33.599 147.094 34.5625L144.086 30.4219C146.091 29.5755 147.784 28.319 149.164 26.6523C150.557 24.9727 151.599 23.0521 152.289 20.8906C152.979 18.7161 153.331 16.4505 153.344 14.0938V8.78125H158.383V14.0938ZM169.281 6.04688H174.32V41.6719H169.281V6.04688ZM194.341 28.1953C196.932 28.1953 199.178 28.4622 201.079 28.9961C202.98 29.5169 204.445 30.2852 205.473 31.3008C206.502 32.3034 207.023 33.5078 207.036 34.9141C207.023 36.2943 206.502 37.4857 205.473 38.4883C204.445 39.5039 202.973 40.2721 201.059 40.793C199.158 41.3268 196.919 41.5938 194.341 41.5938C191.776 41.5938 189.536 41.3268 187.622 40.793C185.721 40.2721 184.256 39.5039 183.227 38.4883C182.199 37.4857 181.684 36.2943 181.684 34.9141C181.684 33.5078 182.199 32.3034 183.227 31.3008C184.256 30.2852 185.721 29.5169 187.622 28.9961C189.536 28.4622 191.776 28.1953 194.341 28.1953ZM178.403 21.9062H190.512V15.6953H195.434V21.9062H210.669V25.9297H178.403V21.9062ZM182.036 7.64844H206.841V10.5391V11.5742C206.841 13.1367 206.776 14.582 206.645 15.9102C206.515 17.2383 206.242 18.625 205.825 20.0703L200.942 19.6016C201.307 18.1432 201.548 16.8151 201.665 15.6172C201.782 14.4062 201.854 13.0521 201.88 11.5547H182.036V7.64844ZM186.645 34.9141C186.632 35.8646 187.29 36.5872 188.618 37.082C189.959 37.5638 191.867 37.8047 194.341 37.8047C196.815 37.8047 198.722 37.5638 200.063 37.082C201.404 36.5872 202.075 35.8646 202.075 34.9141C202.075 33.9375 201.411 33.1953 200.083 32.6875C198.768 32.1667 196.899 31.9062 194.477 31.9062C191.951 31.9062 190.011 32.1602 188.657 32.668C187.303 33.1758 186.632 33.9245 186.645 34.9141ZM225.181 14.0938C225.168 16.2682 225.474 18.3776 226.099 20.4219C226.724 22.4531 227.668 24.276 228.931 25.8906C230.194 27.5052 231.744 28.7552 233.58 29.6406L230.572 33.625C228.723 32.7005 227.141 31.4115 225.826 29.7578C224.511 28.0911 223.476 26.151 222.72 23.9375C221.913 26.3203 220.813 28.4036 219.42 30.1875C218.026 31.9583 216.353 33.3255 214.4 34.2891L211.314 30.2656C213.254 29.3802 214.888 28.0977 216.216 26.418C217.545 24.7253 218.534 22.8177 219.185 20.6953C219.849 18.5599 220.181 16.3594 220.181 14.0938V8.78125H225.181V14.0938ZM235.142 6.04688H240.142V19.7578H245.377V23.9766H240.142V41.5938H235.142V6.04688ZM258.991 23.1172H251.647V29.4258C254.837 29.3346 257.819 29.0677 260.592 28.625L260.983 32.6484C259.004 32.987 257.116 33.2214 255.319 33.3516C253.522 33.4688 251.478 33.5339 249.186 33.5469H246.881V19.2109H254.147V13.4688H246.842V9.52344H258.991V23.1172ZM260.631 23.625H264.538V18.7812H260.631V14.7969H264.538V6.63281H269.225V39.875H264.538V27.6094H260.631V23.625ZM271.881 6.04688H276.608V41.5938H271.881V6.04688ZM308.62 25.8906H298.308V33.4688H312.175V37.5312H279.636V33.4688H293.347V25.8906H283.464V8.54688H308.347V12.5312H288.464V21.9453H308.62V25.8906ZM342.098 13.3125H338.934V28.8203C340.523 28.6901 341.929 28.5469 343.153 28.3906L343.427 31.9844C340.197 32.5443 336.832 32.9219 333.329 33.1172C329.826 33.2995 326.018 33.4036 321.903 33.4297L321.356 29.3672C323.114 29.3672 324.468 29.3607 325.419 29.3477V13.3125H322.255V9.32812H342.098V13.3125ZM330.223 29.2695C331.083 29.2435 332.385 29.1914 334.13 29.1133V13.3125H330.223V29.2695ZM344.872 6.04688H349.872V19.5625H355.106V23.625H349.872V41.5938H344.872V6.04688ZM383.798 16.2812H388.603V20.4609H383.798V32.2578H378.798V6.08594H383.798V16.2812ZM356.845 8.23438H373.173V19.3672H361.845V23.1172C364.866 23.1042 367.464 23.0195 369.638 22.8633C371.826 22.707 374.02 22.4271 376.22 22.0234L376.767 26.0469C374.384 26.4896 371.969 26.7826 369.521 26.9258C367.073 27.069 363.864 27.1406 359.892 27.1406H356.884V15.6172H368.33V12.2188H356.845V8.23438ZM360.869 30.1484H365.908V36.9844H385.166V40.9688H360.869V30.1484ZM390.694 9.71875H409.678V14.5625H396.553V21.4375H408.702V26.2812H396.553V33.1562H409.717V38H390.694V9.71875ZM437.042 38H431.964L419.542 20.0312H419.308V38H413.448V9.71875H418.605L430.948 27.6875H431.222V9.71875H437.042V38ZM459.797 18.8203C459.393 17.4792 458.671 16.431 457.629 15.6758C456.587 14.9206 455.305 14.5365 453.781 14.5234C452.323 14.5365 451.04 14.9076 449.934 15.6367C448.827 16.3659 447.967 17.4271 447.355 18.8203C446.743 20.2135 446.438 21.8802 446.438 23.8203C446.438 25.7865 446.737 27.4727 447.336 28.8789C447.935 30.2852 448.788 31.3529 449.895 32.082C451.001 32.8112 452.31 33.1823 453.82 33.1953C455.148 33.1953 456.294 32.9544 457.258 32.4727C458.234 31.9909 458.983 31.3138 459.504 30.4414C460.038 29.556 460.318 28.5208 460.344 27.3359H454.211V22.9219H466.008V26.4375C466.008 28.8724 465.487 30.9948 464.445 32.8047C463.417 34.6016 461.971 35.9818 460.109 36.9453C458.26 37.9089 456.151 38.3906 453.781 38.3906C451.151 38.3906 448.827 37.8047 446.809 36.6328C444.803 35.4479 443.241 33.7682 442.121 31.5938C441.014 29.4062 440.461 26.8411 440.461 23.8984C440.461 20.9167 441.034 18.3255 442.18 16.125C443.326 13.9245 444.901 12.2448 446.906 11.0859C448.911 9.91406 451.164 9.32812 453.664 9.32812C455.76 9.32812 457.681 9.73177 459.426 10.5391C461.171 11.3464 462.59 12.4727 463.684 13.918C464.79 15.3503 465.474 16.9844 465.734 18.8203H459.797ZM478.763 8.15625C480.572 8.15625 482.22 8.53385 483.704 9.28906C485.188 10.0312 486.36 11.0664 487.22 12.3945C488.079 13.7096 488.515 15.2005 488.528 16.8672C488.515 18.2734 488.203 19.5625 487.591 20.7344C486.979 21.8932 486.126 22.8698 485.032 23.6641C483.951 24.4453 482.708 24.9922 481.302 25.3047V30.168C484.27 30.0247 487.018 29.7839 489.544 29.4453L489.895 33.1172C487.174 33.638 484.348 33.9961 481.419 34.1914C478.489 34.3737 475.423 34.4648 472.22 34.4648C470.475 34.4648 469.205 34.4583 468.411 34.4453L467.747 30.4219C471.419 30.4219 474.283 30.3958 476.341 30.3438V25.3438C474.895 25.0573 473.619 24.5234 472.513 23.7422C471.406 22.9479 470.54 21.9648 469.915 20.793C469.303 19.6081 468.997 18.2995 468.997 16.8672C468.997 15.2005 469.42 13.7096 470.266 12.3945C471.113 11.0664 472.278 10.0312 473.763 9.28906C475.247 8.53385 476.914 8.15625 478.763 8.15625ZM473.88 16.8672C473.88 17.7786 474.088 18.5729 474.505 19.25C474.921 19.9271 475.501 20.4479 476.243 20.8125C476.985 21.1771 477.825 21.3594 478.763 21.3594C479.687 21.3594 480.514 21.1771 481.243 20.8125C481.985 20.4479 482.565 19.9271 482.981 19.25C483.398 18.5729 483.606 17.7786 483.606 16.8672C483.606 15.9427 483.398 15.1484 482.981 14.4844C482.565 13.8073 481.985 13.293 481.243 12.9414C480.514 12.5768 479.687 12.388 478.763 12.375C477.825 12.388 476.985 12.5768 476.243 12.9414C475.501 13.293 474.921 13.8073 474.505 14.4844C474.088 15.1484 473.88 15.9427 473.88 16.8672ZM491.419 6.04688H496.419V19.9922H501.263V24.1719H496.419V41.5938H491.419V6.04688ZM538.569 14.7969H543.373V18.9766H538.569V27.4922H533.569V6.04688H538.569V14.7969ZM510.366 9.25H518.452V5.85156H523.413V9.25H531.459V13.1953H510.366V9.25ZM512.084 20.6562C512.084 19.4193 512.455 18.319 513.198 17.3555C513.94 16.3919 514.982 15.6432 516.323 15.1094C517.664 14.5625 519.194 14.2891 520.913 14.2891C522.618 14.2891 524.135 14.5625 525.463 15.1094C526.791 15.6432 527.82 16.3919 528.549 17.3555C529.291 18.319 529.663 19.4193 529.663 20.6562C529.663 21.9193 529.291 23.0391 528.549 24.0156C527.82 24.9922 526.791 25.7539 525.463 26.3008C524.135 26.8346 522.618 27.1016 520.913 27.1016C519.181 27.1016 517.644 26.8346 516.303 26.3008C514.975 25.7539 513.94 24.9922 513.198 24.0156C512.455 23.0391 512.084 21.9193 512.084 20.6562ZM515.327 29.0547H538.569V41.2031H515.327V29.0547ZM516.967 20.6562C516.954 21.5417 517.299 22.2253 518.002 22.707C518.718 23.1758 519.689 23.4167 520.913 23.4297C522.149 23.4167 523.126 23.1758 523.842 22.707C524.571 22.2253 524.936 21.5417 524.936 20.6562C524.936 19.8229 524.571 19.1784 523.842 18.7227C523.113 18.2539 522.136 18.026 520.913 18.0391C519.702 18.026 518.738 18.2539 518.022 18.7227C517.306 19.1784 516.954 19.8229 516.967 20.6562ZM533.647 37.2188V32.9609H520.248V37.2188H533.647ZM552.886 10.1094C552.873 13.4036 552.717 16.3919 552.417 19.0742C552.131 21.7435 551.59 24.3346 550.796 26.8477C550.015 29.3607 548.902 31.737 547.456 33.9766L543.589 31.9453C544.774 30.1484 545.718 28.3255 546.421 26.4766C547.124 24.6276 547.639 22.7201 547.964 20.7539C548.29 18.7747 548.491 16.5677 548.57 14.1328H544.761V10.1094H552.886ZM551.636 33.6641C552.899 31.737 553.882 29.7448 554.585 27.6875C555.301 25.6172 555.796 23.5143 556.07 21.3789C556.356 19.2305 556.532 16.8151 556.597 14.1328H553.902V10.1094H560.855C560.855 13.6901 560.737 16.776 560.503 19.3672H563.55V6.82812H568.237V40.0312H563.55V23.3906H559.995C559.605 25.6953 559.038 27.8763 558.296 29.9336C557.567 31.9909 556.61 33.9375 555.425 35.7734L551.636 33.6641ZM570.464 6.04688H575.23V41.5938H570.464V6.04688ZM604.45 26.0469H587.38V8.97656H604.45V26.0469ZM591.481 29.4453H596.442V36.9844H615.817V40.9688H591.481V29.4453ZM599.528 22.1406V12.9609H592.302V22.1406H599.528ZM609.528 6.04688H614.528V16.2812H619.333V20.3828H614.528V31.9844H609.528V6.04688ZM652.595 23.8203H620.095V19.9141H652.595V23.8203ZM623.845 25.9297H648.572V35.2266H628.767V37.4141H649.509V41.2812H623.884V31.6719H643.65V29.6797H623.845V25.9297ZM624.158 6.75H648.455V10.7344H629.119V14.0547H648.728V17.9609H624.158V6.75ZM663.67 8.54688C665.259 8.54688 666.698 8.96354 667.987 9.79688C669.289 10.6302 670.35 11.8281 671.17 13.3906C672.004 14.9531 672.537 16.7891 672.772 18.8984H678.944V6.04688H683.866V41.6719H678.944V22.8828H672.83C672.661 25.1224 672.166 27.0755 671.346 28.7422C670.526 30.4089 669.452 31.6849 668.123 32.5703C666.808 33.4557 665.324 33.8984 663.67 33.8984C661.873 33.8984 660.272 33.3841 658.866 32.3555C657.472 31.3138 656.385 29.8359 655.604 27.9219C654.823 25.9948 654.439 23.7552 654.452 21.2031C654.439 18.6641 654.823 16.4375 655.604 14.5234C656.385 12.6094 657.472 11.138 658.866 10.1094C660.272 9.06771 661.873 8.54688 663.67 8.54688ZM659.217 21.2031C659.217 22.9349 659.399 24.4193 659.764 25.6562C660.129 26.8802 660.649 27.8112 661.327 28.4492C662.004 29.0742 662.785 29.3802 663.67 29.3672C664.569 29.3802 665.35 29.0742 666.014 28.4492C666.691 27.8112 667.212 26.8802 667.577 25.6562C667.941 24.4193 668.123 22.9349 668.123 21.2031C668.123 19.4714 667.941 17.9935 667.577 16.7695C667.212 15.5456 666.691 14.6211 666.014 13.9961C665.35 13.3581 664.569 13.0391 663.67 13.0391C662.785 13.0391 662.004 13.3581 661.327 13.9961C660.649 14.6211 660.129 15.5521 659.764 16.7891C659.399 18.013 659.217 19.4844 659.217 21.2031ZM720.175 37.4531H687.636V33.3906H701.347V26.8281H691.073V8.3125H696.073V13.8203H711.581V8.3125H716.542V26.8281H706.308V33.3906H720.175V37.4531ZM711.581 22.8438V17.8047H696.073V22.8438H711.581ZM732.812 14.9922C732.799 18.1693 733.301 21.0664 734.316 23.6836C735.332 26.3008 736.979 28.3385 739.258 29.7969L736.562 33.6641C733.711 31.9453 731.66 29.0872 730.41 25.0898C729.746 27.1862 728.867 29.0352 727.773 30.6367C726.68 32.2383 725.352 33.5078 723.789 34.4453L720.742 30.7734C723.229 29.237 725.052 27.082 726.211 24.3086C727.383 21.5352 727.969 18.5078 727.969 15.2266V9.09375H732.812V14.9922ZM735.508 18.0391H740.117V6.55469H744.766V39.9531H740.117V22.1016H735.508V18.0391ZM747.461 6.04688H752.227V41.5938H747.461V6.04688ZM787.716 37.4531H755.177V33.3516H762.442V24.6406C761.036 23.7943 759.949 22.7526 759.18 21.5156C758.412 20.2656 758.028 18.8724 758.028 17.3359C758.028 15.4479 758.601 13.7812 759.747 12.3359C760.893 10.8906 762.475 9.77083 764.493 8.97656C766.524 8.16927 768.822 7.76562 771.388 7.76562C773.94 7.76562 776.231 8.16927 778.263 8.97656C780.294 9.77083 781.889 10.8906 783.048 12.3359C784.207 13.7812 784.786 15.4479 784.786 17.3359C784.773 18.8464 784.395 20.2135 783.653 21.4375C782.911 22.6615 781.856 23.6966 780.489 24.543V33.3516H787.716V37.4531ZM762.95 17.3359C762.95 18.4818 763.295 19.4779 763.985 20.3242C764.688 21.1706 765.671 21.8216 766.934 22.2773C768.21 22.7331 769.695 22.9609 771.388 22.9609C773.054 22.9609 774.526 22.7331 775.802 22.2773C777.078 21.8216 778.074 21.1706 778.79 20.3242C779.506 19.4779 779.864 18.4818 779.864 17.3359C779.864 16.1641 779.506 15.1549 778.79 14.3086C778.087 13.4622 777.097 12.8177 775.821 12.375C774.545 11.9193 773.067 11.6979 771.388 11.7109C769.695 11.7109 768.21 11.9323 766.934 12.375C765.671 12.8177 764.688 13.4622 763.985 14.3086C763.295 15.1549 762.95 16.1641 762.95 17.3359ZM775.45 33.3516V26.4375C774.148 26.6979 772.794 26.8281 771.388 26.8281C770.02 26.8281 768.679 26.7044 767.364 26.457V33.3516H775.45Z" fill="white"/>
<path d="M12.696 72.152H18.192V73.784H12.696V72.152ZM17.064 66.176H19.056V82.088H17.064V66.176ZM5.208 85.76H19.656V87.392H5.208V85.76ZM5.208 80.672H7.176V86.576H5.208V80.672ZM6.72 68.864H8.352V70.616C8.352 71.928 8.096 73.168 7.584 74.336C7.088 75.488 6.384 76.496 5.472 77.36C4.56 78.208 3.504 78.864 2.304 79.328L1.272 77.72C2.072 77.432 2.8 77.048 3.456 76.568C4.128 76.088 4.712 75.536 5.208 74.912C5.704 74.288 6.08 73.608 6.336 72.872C6.592 72.136 6.72 71.384 6.72 70.616V68.864ZM7.104 68.864H8.736V70.616C8.736 71.544 8.952 72.448 9.384 73.328C9.816 74.208 10.432 74.992 11.232 75.68C12.032 76.352 12.952 76.872 13.992 77.24L12.984 78.824C11.8 78.392 10.768 77.768 9.888 76.952C9.008 76.12 8.32 75.16 7.824 74.072C7.344 72.984 7.104 71.832 7.104 70.616V68.864ZM1.896 67.928H13.488V69.56H1.896V67.928ZM22.7741 77.24H42.4541V78.872H22.7741V77.24ZM31.7501 78.272H33.7421V83.264H31.7501V78.272ZM25.3181 67.184H39.8861V74.792H25.3181V67.184ZM37.9421 68.768H27.2621V73.208H37.9421V68.768ZM25.2701 85.76H40.2701V87.392H25.2701V85.76ZM25.2701 81.176H27.2621V86.312H25.2701V81.176ZM55.9463 67.28H57.5783V69.488C57.5783 70.88 57.3303 72.176 56.8343 73.376C56.3543 74.576 55.6663 75.624 54.7703 76.52C53.8743 77.4 52.8263 78.072 51.6263 78.536L50.5463 76.952C51.6503 76.552 52.6023 75.976 53.4023 75.224C54.2183 74.472 54.8423 73.608 55.2743 72.632C55.7223 71.64 55.9463 70.592 55.9463 69.488V67.28ZM56.3063 67.28H57.9143V69.656C57.9143 70.376 58.0423 71.088 58.2983 71.792C58.5543 72.48 58.9143 73.12 59.3783 73.712C59.8583 74.304 60.4183 74.832 61.0583 75.296C61.6983 75.744 62.4103 76.104 63.1943 76.376L62.1383 77.936C60.9863 77.504 59.9703 76.88 59.0903 76.064C58.2103 75.232 57.5223 74.272 57.0263 73.184C56.5463 72.08 56.3063 70.904 56.3063 69.656V67.28ZM65.5223 66.152H67.5143V79.328H65.5223V66.152ZM66.9623 71.768H70.7063V73.448H66.9623V71.768ZM60.6023 79.904C62.0743 79.904 63.3383 80.064 64.3943 80.384C65.4663 80.688 66.2903 81.136 66.8663 81.728C67.4423 82.32 67.7303 83.032 67.7303 83.864C67.7303 84.696 67.4423 85.408 66.8663 86C66.2903 86.592 65.4663 87.04 64.3943 87.344C63.3383 87.664 62.0743 87.824 60.6023 87.824C59.1303 87.824 57.8583 87.664 56.7863 87.344C55.7143 87.04 54.8903 86.592 54.3143 86C53.7383 85.408 53.4503 84.696 53.4503 83.864C53.4503 83.032 53.7383 82.32 54.3143 81.728C54.8903 81.136 55.7143 80.688 56.7863 80.384C57.8583 80.064 59.1303 79.904 60.6023 79.904ZM60.6023 81.488C59.5303 81.488 58.6023 81.584 57.8183 81.776C57.0503 81.968 56.4583 82.24 56.0423 82.592C55.6263 82.944 55.4183 83.368 55.4183 83.864C55.4183 84.376 55.6263 84.808 56.0423 85.16C56.4583 85.512 57.0503 85.784 57.8183 85.976C58.6023 86.152 59.5303 86.24 60.6023 86.24C61.6743 86.24 62.5943 86.152 63.3623 85.976C64.1303 85.784 64.7223 85.512 65.1383 85.16C65.5543 84.808 65.7623 84.376 65.7623 83.864C65.7623 83.368 65.5543 82.944 65.1383 82.592C64.7223 82.24 64.1303 81.968 63.3623 81.776C62.5943 81.584 61.6743 81.488 60.6023 81.488ZM87.1204 66.152H89.1124V78.44H87.1204V66.152ZM88.5604 71.456H92.3044V73.112H88.5604V71.456ZM73.2724 75.584H74.9524C76.4404 75.584 77.7444 75.568 78.8644 75.536C79.9844 75.488 81.0164 75.416 81.9604 75.32C82.9044 75.208 83.8564 75.056 84.8164 74.864L85.0564 76.472C84.0484 76.68 83.0564 76.84 82.0804 76.952C81.1204 77.064 80.0724 77.136 78.9364 77.168C77.8004 77.2 76.4724 77.216 74.9524 77.216H73.2724V75.584ZM73.2724 67.616H82.8004V69.224H75.2404V76.52H73.2724V67.616ZM75.4804 79.592H89.1124V87.56H75.4804V79.592ZM87.1444 81.2H77.4244V85.952H87.1444V81.2ZM100.006 77.096H101.998V81.92H100.006V77.096ZM109.63 66.176H111.622V82.664H109.63V66.176ZM96.8145 85.76H112.15V87.392H96.8145V85.76ZM96.8145 81.056H98.8065V86.192H96.8145V81.056ZM94.0065 77.84L93.7425 76.184C95.0865 76.184 96.5425 76.176 98.1105 76.16C99.6945 76.128 101.31 76.072 102.958 75.992C104.606 75.896 106.198 75.752 107.734 75.56L107.878 77C106.326 77.256 104.726 77.448 103.078 77.576C101.446 77.688 99.8545 77.76 98.3025 77.792C96.7505 77.824 95.3185 77.84 94.0065 77.84ZM105.214 78.992H110.158V80.432H105.214V78.992ZM100.798 67.04C101.87 67.04 102.806 67.2 103.606 67.52C104.406 67.824 105.022 68.264 105.454 68.84C105.902 69.4 106.126 70.064 106.126 70.832C106.126 71.584 105.902 72.248 105.454 72.824C105.022 73.4 104.406 73.84 103.606 74.144C102.806 74.448 101.87 74.6 100.798 74.6C99.7425 74.6 98.8065 74.448 97.9905 74.144C97.1905 73.84 96.5665 73.4 96.1185 72.824C95.6865 72.248 95.4705 71.584 95.4705 70.832C95.4705 70.064 95.6865 69.4 96.1185 68.84C96.5665 68.264 97.1905 67.824 97.9905 67.52C98.8065 67.2 99.7425 67.04 100.798 67.04ZM100.798 68.528C99.7745 68.528 98.9425 68.736 98.3025 69.152C97.6625 69.568 97.3425 70.128 97.3425 70.832C97.3425 71.52 97.6625 72.072 98.3025 72.488C98.9425 72.904 99.7745 73.112 100.798 73.112C101.806 73.112 102.63 72.904 103.27 72.488C103.91 72.072 104.23 71.52 104.23 70.832C104.23 70.352 104.086 69.944 103.798 69.608C103.51 69.272 103.11 69.008 102.598 68.816C102.086 68.624 101.486 68.528 100.798 68.528ZM131.229 66.152H133.221V87.896H131.229V66.152ZM121.773 67.832C122.845 67.832 123.789 68.144 124.605 68.768C125.437 69.376 126.085 70.248 126.549 71.384C127.029 72.52 127.269 73.856 127.269 75.392C127.269 76.928 127.029 78.264 126.549 79.4C126.085 80.536 125.437 81.416 124.605 82.04C123.789 82.664 122.845 82.976 121.773 82.976C120.701 82.976 119.749 82.664 118.917 82.04C118.085 81.416 117.429 80.536 116.949 79.4C116.485 78.264 116.253 76.928 116.253 75.392C116.253 73.856 116.485 72.52 116.949 71.384C117.429 70.248 118.085 69.376 118.917 68.768C119.749 68.144 120.701 67.832 121.773 67.832ZM121.773 69.608C121.053 69.608 120.421 69.848 119.877 70.328C119.349 70.792 118.933 71.464 118.629 72.344C118.325 73.208 118.173 74.224 118.173 75.392C118.173 76.56 118.325 77.584 118.629 78.464C118.933 79.328 119.349 80 119.877 80.48C120.421 80.96 121.053 81.2 121.773 81.2C122.477 81.2 123.093 80.96 123.621 80.48C124.165 80 124.589 79.328 124.893 78.464C125.197 77.584 125.349 76.56 125.349 75.392C125.349 74.224 125.197 73.208 124.893 72.344C124.589 71.464 124.165 70.792 123.621 70.328C123.093 69.848 122.477 69.608 121.773 69.608ZM149.545 77.624H151.537V82.352H149.545V77.624ZM149.521 69.992H151.129V70.496C151.129 71.76 150.873 72.92 150.361 73.976C149.849 75.016 149.137 75.912 148.225 76.664C147.313 77.4 146.249 77.96 145.033 78.344L144.097 76.808C145.169 76.472 146.113 76 146.929 75.392C147.745 74.768 148.377 74.04 148.825 73.208C149.289 72.36 149.521 71.456 149.521 70.496V69.992ZM149.905 69.992H151.537V70.496C151.537 71.424 151.769 72.296 152.233 73.112C152.697 73.912 153.337 74.616 154.153 75.224C154.985 75.816 155.937 76.264 157.009 76.568L156.097 78.128C154.881 77.76 153.809 77.208 152.881 76.472C151.953 75.736 151.225 74.864 150.697 73.856C150.169 72.832 149.905 71.712 149.905 70.496V69.992ZM144.625 68.984H156.529V70.616H144.625V68.984ZM149.545 66.32H151.537V69.704H149.545V66.32ZM159.025 66.152H161.017V87.896H159.025V66.152ZM143.713 83.408L143.449 81.752C144.761 81.752 146.209 81.744 147.793 81.728C149.393 81.696 151.033 81.632 152.713 81.536C154.409 81.424 156.041 81.24 157.609 80.984L157.777 82.472C156.145 82.776 154.489 82.992 152.809 83.12C151.145 83.248 149.537 83.328 147.985 83.36C146.433 83.392 145.009 83.408 143.713 83.408ZM170.447 68.36H172.079V70.136C172.079 71.448 171.823 72.68 171.311 73.832C170.815 74.984 170.111 75.992 169.199 76.856C168.287 77.704 167.231 78.352 166.031 78.8L164.999 77.216C165.799 76.928 166.527 76.544 167.183 76.064C167.855 75.584 168.439 75.032 168.935 74.408C169.431 73.768 169.807 73.088 170.063 72.368C170.319 71.632 170.447 70.888 170.447 70.136V68.36ZM170.831 68.36H172.463V70.112C172.463 71.04 172.679 71.944 173.111 72.824C173.543 73.688 174.159 74.464 174.959 75.152C175.759 75.824 176.679 76.352 177.719 76.736L176.711 78.296C175.527 77.864 174.495 77.24 173.615 76.424C172.735 75.608 172.047 74.656 171.551 73.568C171.071 72.48 170.831 71.328 170.831 70.112V68.36ZM176.543 71.816H181.367V73.472H176.543V71.816ZM165.623 67.64H177.215V69.272H165.623V67.64ZM168.287 80.312H182.783V87.872H180.791V81.944H168.287V80.312ZM180.791 66.152H182.783V79.136H180.791V66.152ZM193.557 67.736C194.693 67.736 195.693 67.952 196.557 68.384C197.437 68.8 198.125 69.392 198.621 70.16C199.117 70.928 199.365 71.824 199.365 72.848C199.365 73.856 199.117 74.752 198.621 75.536C198.125 76.304 197.437 76.904 196.557 77.336C195.693 77.752 194.693 77.96 193.557 77.96C192.437 77.96 191.437 77.752 190.557 77.336C189.677 76.904 188.981 76.304 188.469 75.536C187.973 74.752 187.725 73.856 187.725 72.848C187.725 71.824 187.973 70.928 188.469 70.16C188.981 69.392 189.677 68.8 190.557 68.384C191.437 67.952 192.437 67.736 193.557 67.736ZM193.557 69.464C192.821 69.464 192.157 69.608 191.565 69.896C190.989 70.168 190.533 70.56 190.197 71.072C189.861 71.584 189.693 72.176 189.693 72.848C189.693 73.52 189.861 74.112 190.197 74.624C190.533 75.136 190.989 75.536 191.565 75.824C192.157 76.096 192.821 76.232 193.557 76.232C194.309 76.232 194.973 76.096 195.549 75.824C196.125 75.536 196.581 75.136 196.917 74.624C197.253 74.112 197.421 73.52 197.421 72.848C197.421 72.176 197.253 71.584 196.917 71.072C196.581 70.56 196.125 70.168 195.549 69.896C194.973 69.608 194.309 69.464 193.557 69.464ZM202.221 66.152H204.213V87.896H202.221V66.152ZM186.909 83.144L186.645 81.464C187.973 81.464 189.429 81.456 191.013 81.44C192.597 81.408 194.229 81.344 195.909 81.248C197.605 81.136 199.237 80.96 200.805 80.72L200.973 82.184C199.341 82.488 197.685 82.712 196.005 82.856C194.341 82.984 192.733 83.064 191.181 83.096C189.629 83.128 188.205 83.144 186.909 83.144ZM223.201 72.8H225.169V76.136H223.201V72.8ZM223.177 66.32H224.881V67.112C224.881 67.88 224.721 68.584 224.401 69.224C224.097 69.864 223.665 70.448 223.105 70.976C222.561 71.504 221.921 71.968 221.185 72.368C220.449 72.752 219.657 73.08 218.809 73.352C217.961 73.608 217.081 73.8 216.169 73.928L215.473 72.392C216.273 72.296 217.049 72.144 217.801 71.936C218.569 71.728 219.273 71.464 219.913 71.144C220.553 70.824 221.121 70.456 221.617 70.04C222.113 69.624 222.497 69.176 222.769 68.696C223.041 68.2 223.177 67.672 223.177 67.112V66.32ZM223.489 66.32H225.193V67.112C225.193 67.672 225.329 68.2 225.601 68.696C225.873 69.176 226.249 69.624 226.729 70.04C227.225 70.456 227.793 70.824 228.433 71.144C229.089 71.464 229.793 71.728 230.545 71.936C231.297 72.144 232.073 72.296 232.873 72.392L232.177 73.928C231.281 73.8 230.409 73.608 229.561 73.352C228.713 73.08 227.921 72.752 227.185 72.368C226.449 71.968 225.801 71.504 225.241 70.976C224.697 70.448 224.265 69.864 223.945 69.224C223.641 68.584 223.489 67.88 223.489 67.112V66.32ZM214.393 75.608H234.001V77.216H214.393V75.608ZM216.769 78.992H231.481V83.96H218.761V86.504H216.817V82.496H229.537V80.528H216.769V78.992ZM216.817 86.072H232.129V87.632H216.817V86.072ZM238.319 67.016H253.271V72.704H240.383V76.424H238.391V71.168H251.255V68.624H238.319V67.016ZM238.391 75.464H253.751V77.096H238.391V75.464ZM235.967 79.328H255.647V80.96H235.967V79.328ZM244.775 79.952H246.767V87.896H244.775V79.952ZM269.085 69.368H273.957V71H269.085V69.368ZM269.085 73.808H273.957V75.44H269.085V73.808ZM263.037 67.376H264.645V70.136C264.645 71.56 264.397 72.896 263.901 74.144C263.405 75.376 262.709 76.456 261.813 77.384C260.933 78.296 259.893 79 258.693 79.496L257.637 77.912C258.453 77.592 259.189 77.176 259.845 76.664C260.501 76.136 261.061 75.528 261.525 74.84C262.005 74.152 262.373 73.416 262.629 72.632C262.901 71.832 263.037 71 263.037 70.136V67.376ZM263.397 67.376H265.005V70.136C265.005 70.936 265.125 71.712 265.365 72.464C265.621 73.216 265.981 73.92 266.445 74.576C266.909 75.232 267.461 75.816 268.101 76.328C268.757 76.84 269.469 77.248 270.237 77.552L269.133 79.112C267.997 78.648 266.997 77.968 266.133 77.072C265.269 76.16 264.597 75.112 264.117 73.928C263.637 72.744 263.397 71.48 263.397 70.136V67.376ZM273.453 66.176H275.445V82.376H273.453V66.176ZM261.501 85.76H275.949V87.392H261.501V85.76ZM261.501 80.72H263.493V86.624H261.501V80.72ZM288.979 66.536C291.379 66.536 293.251 66.864 294.595 67.52C295.939 68.16 296.611 69.08 296.611 70.28C296.611 71.496 295.939 72.432 294.595 73.088C293.251 73.728 291.379 74.048 288.979 74.048C286.595 74.048 284.723 73.728 283.363 73.088C282.019 72.432 281.347 71.496 281.347 70.28C281.347 69.08 282.019 68.16 283.363 67.52C284.723 66.864 286.595 66.536 288.979 66.536ZM288.979 68.024C287.811 68.024 286.811 68.112 285.979 68.288C285.147 68.464 284.507 68.72 284.059 69.056C283.627 69.392 283.411 69.8 283.411 70.28C283.411 70.76 283.627 71.176 284.059 71.528C284.507 71.864 285.147 72.12 285.979 72.296C286.811 72.456 287.811 72.536 288.979 72.536C290.163 72.536 291.171 72.456 292.003 72.296C292.835 72.12 293.467 71.864 293.899 71.528C294.347 71.176 294.571 70.76 294.571 70.28C294.571 69.8 294.347 69.392 293.899 69.056C293.467 68.72 292.835 68.464 292.003 68.288C291.171 68.112 290.163 68.024 288.979 68.024ZM279.187 75.512H298.795V77.12H279.187V75.512ZM281.563 78.968H296.275V83.864H283.555V86.48H281.611V82.4H294.331V80.504H281.563V78.968ZM281.611 86.072H296.923V87.632H281.611V86.072ZM321.912 66.152H323.904V82.136H321.912V66.152ZM323.28 72.752H327.096V74.408H323.28V72.752ZM310.392 85.76H324.864V87.392H310.392V85.76ZM310.392 80.504H312.36V86.408H310.392V80.504ZM313.104 67.688C314.192 67.688 315.16 67.92 316.008 68.384C316.856 68.832 317.528 69.456 318.024 70.256C318.52 71.056 318.768 71.984 318.768 73.04C318.768 74.064 318.52 74.984 318.024 75.8C317.528 76.616 316.856 77.256 316.008 77.72C315.16 78.168 314.192 78.392 313.104 78.392C312.032 78.392 311.064 78.168 310.2 77.72C309.352 77.256 308.68 76.616 308.184 75.8C307.688 74.984 307.44 74.064 307.44 73.04C307.44 71.984 307.688 71.056 308.184 70.256C308.68 69.456 309.352 68.832 310.2 68.384C311.064 67.92 312.032 67.688 313.104 67.688ZM313.104 69.416C312.4 69.416 311.768 69.568 311.208 69.872C310.648 70.176 310.2 70.6 309.864 71.144C309.544 71.688 309.384 72.32 309.384 73.04C309.384 73.744 309.544 74.368 309.864 74.912C310.2 75.456 310.648 75.88 311.208 76.184C311.768 76.488 312.4 76.64 313.104 76.64C313.808 76.64 314.44 76.488 315 76.184C315.576 75.88 316.024 75.456 316.344 74.912C316.68 74.368 316.848 73.744 316.848 73.04C316.848 72.32 316.68 71.688 316.344 71.144C316.024 70.6 315.576 70.176 315 69.872C314.44 69.568 313.808 69.416 313.104 69.416ZM345.118 66.152H347.038V87.872H345.118V66.152ZM341.494 74.984H345.67V76.64H341.494V74.984ZM340.198 66.632H342.07V86.744H340.198V66.632ZM329.71 68.768H331.702V81.296H329.71V68.768ZM329.71 80.504H331.078C332.214 80.504 333.406 80.464 334.654 80.384C335.902 80.288 337.23 80.096 338.638 79.808L338.878 81.56C337.406 81.848 336.03 82.04 334.75 82.136C333.47 82.216 332.246 82.256 331.078 82.256H329.71V80.504ZM350.204 69.872H360.98V71.504H350.204V69.872ZM355.604 72.944C356.516 72.944 357.316 73.152 358.004 73.568C358.708 73.984 359.26 74.568 359.66 75.32C360.06 76.056 360.26 76.912 360.26 77.888C360.26 78.864 360.06 79.728 359.66 80.48C359.26 81.216 358.708 81.8 358.004 82.232C357.316 82.648 356.516 82.856 355.604 82.856C354.708 82.856 353.908 82.648 353.204 82.232C352.5 81.8 351.948 81.216 351.548 80.48C351.148 79.728 350.948 78.864 350.948 77.888C350.948 76.912 351.148 76.056 351.548 75.32C351.948 74.584 352.5 74.008 353.204 73.592C353.908 73.16 354.708 72.944 355.604 72.944ZM355.604 74.624C355.06 74.624 354.564 74.768 354.116 75.056C353.684 75.328 353.34 75.712 353.084 76.208C352.844 76.688 352.724 77.248 352.724 77.888C352.724 78.528 352.844 79.096 353.084 79.592C353.34 80.088 353.684 80.472 354.116 80.744C354.564 81.016 355.06 81.152 355.604 81.152C356.164 81.152 356.66 81.016 357.092 80.744C357.524 80.472 357.86 80.088 358.1 79.592C358.356 79.096 358.484 78.528 358.484 77.888C358.484 77.248 358.356 76.688 358.1 76.208C357.86 75.712 357.524 75.328 357.092 75.056C356.66 74.768 356.164 74.624 355.604 74.624ZM366.716 66.152H368.612V87.872H366.716V66.152ZM363.236 75.296H367.34V76.928H363.236V75.296ZM362.06 66.656H363.932V86.816H362.06V66.656ZM354.62 66.8H356.588V70.856H354.62V66.8ZM374.346 76.568H389.25V78.2H374.346V76.568ZM371.85 83.264H391.53V84.92H371.85V83.264ZM374.346 68.168H389.034V69.8H376.314V77.288H374.346V68.168ZM409.24 66.176H411.232V78.104H409.24V66.176ZM394.576 75.992H396.328C397.64 75.992 398.856 75.976 399.976 75.944C401.112 75.912 402.216 75.848 403.288 75.752C404.36 75.64 405.472 75.496 406.624 75.32L406.864 76.952C405.664 77.144 404.512 77.288 403.408 77.384C402.32 77.48 401.2 77.552 400.048 77.6C398.912 77.632 397.672 77.648 396.328 77.648H394.576V75.992ZM394.528 67.208H404.368V73.112H396.52V77.072H394.576V71.552H402.424V68.84H394.528V67.208ZM397.216 79.184H399.184V81.728H409.264V79.184H411.232V87.584H397.216V79.184ZM399.184 83.312V85.952H409.264V83.312H399.184ZM430.838 66.152H432.806V87.872H430.838V66.152ZM416.414 68.288H418.382V81.728H416.414V68.288ZM416.414 80.552H418.19C419.854 80.552 421.542 80.48 423.254 80.336C424.982 80.176 426.758 79.912 428.582 79.544L428.846 81.224C426.958 81.624 425.142 81.904 423.398 82.064C421.654 82.208 419.918 82.28 418.19 82.28H416.414V80.552ZM451.332 66.152H453.324V87.896H451.332V66.152ZM452.868 74.72H456.876V76.376H452.868V74.72ZM437.58 80.792H439.284C440.612 80.792 441.828 80.776 442.932 80.744C444.052 80.696 445.124 80.616 446.148 80.504C447.188 80.392 448.244 80.24 449.316 80.048L449.556 81.752C448.436 81.944 447.348 82.096 446.292 82.208C445.252 82.32 444.164 82.392 443.028 82.424C441.892 82.456 440.644 82.472 439.284 82.472H437.58V80.792ZM437.58 68.264H447.636V69.896H439.548V81.56H437.58V68.264ZM460.349 86.1364C459.929 86.1364 459.568 85.9858 459.267 85.6847C458.966 85.3835 458.815 85.0227 458.815 84.6023C458.815 84.1818 458.966 83.821 459.267 83.5199C459.568 83.2187 459.929 83.0682 460.349 83.0682C460.77 83.0682 461.131 83.2187 461.432 83.5199C461.733 83.821 461.883 84.1818 461.883 84.6023C461.883 84.8807 461.812 85.1364 461.67 85.3693C461.534 85.6023 461.349 85.7898 461.116 85.9318C460.889 86.0682 460.633 86.1364 460.349 86.1364Z" fill="white"/>
</svg>
