<svg width="187" height="69" viewBox="0 0 187 69" fill="none" xmlns="http://www.w3.org/2000/svg">
<rect width="187" height="69" rx="14" fill="#1DB8CE"/>
<path d="M22.176 35.752H41.856V37.384H22.176V35.752ZM30.984 36.76H32.952V44.848H30.984V36.76ZM24.696 24.352H39.336V32.824H24.696V24.352ZM37.368 25.96H26.64V31.24H37.368V25.96ZM49.7741 35.872H51.7181V41.2H49.7741V35.872ZM56.7101 35.848H58.6541V41.176H56.7101V35.848ZM44.2781 40.528H63.9581V42.184H44.2781V40.528ZM46.6781 24.76H61.5101V31.336H48.6941V35.68H46.7261V29.728H59.5421V26.392H46.6781V24.76ZM46.7261 34.816H62.0141V36.448H46.7261V34.816ZM88.9703 23.176H90.9623V39.328H88.9703V23.176ZM82.3463 24.856H84.4583C84.4583 26.712 84.0423 28.416 83.2103 29.968C82.3783 31.504 81.2023 32.848 79.6823 34C78.1623 35.136 76.3783 36.04 74.3303 36.712L73.4663 35.128C75.2423 34.536 76.7943 33.776 78.1223 32.848C79.4663 31.904 80.5063 30.832 81.2423 29.632C81.9783 28.416 82.3463 27.096 82.3463 25.672V24.856ZM74.5463 24.856H83.5703V26.488H74.5463V24.856ZM83.4503 27.616H89.2583V29.272H83.4503V27.616ZM83.2583 32.512H89.1863V34.144H83.2583V32.512ZM77.2343 42.76H91.5143V44.392H77.2343V42.76ZM77.2343 37.744H79.2503V43.744H77.2343V37.744ZM100.704 25.36H102.336V27.136C102.336 28.448 102.08 29.68 101.568 30.832C101.072 31.984 100.368 32.992 99.4564 33.856C98.5444 34.704 97.4884 35.352 96.2884 35.8L95.2564 34.216C96.0564 33.928 96.7844 33.544 97.4404 33.064C98.1124 32.584 98.6964 32.032 99.1924 31.408C99.6884 30.768 100.064 30.088 100.32 29.368C100.576 28.632 100.704 27.888 100.704 27.136V25.36ZM101.088 25.36H102.72V27.112C102.72 28.04 102.936 28.944 103.368 29.824C103.8 30.688 104.416 31.464 105.216 32.152C106.016 32.824 106.936 33.352 107.976 33.736L106.968 35.296C105.784 34.864 104.752 34.24 103.872 33.424C102.992 32.608 102.304 31.656 101.808 30.568C101.328 29.48 101.088 28.328 101.088 27.112V25.36ZM106.8 28.816H111.624V30.472H106.8V28.816ZM95.8804 24.64H107.472V26.272H95.8804V24.64ZM98.5444 37.312H113.04V44.872H111.048V38.944H98.5444V37.312ZM111.048 23.152H113.04V36.136H111.048V23.152ZM123.989 34.24H143.669V35.872H123.989V34.24ZM132.965 35.272H134.957V40.264H132.965V35.272ZM126.533 24.184H141.101V31.792H126.533V24.184ZM139.157 25.768H128.477V30.208H139.157V25.768ZM126.485 42.76H141.485V44.392H126.485V42.76ZM126.485 38.176H128.477V43.312H126.485V38.176ZM153.123 24.736C154.259 24.736 155.259 24.952 156.123 25.384C157.003 25.8 157.691 26.392 158.187 27.16C158.683 27.928 158.931 28.824 158.931 29.848C158.931 30.856 158.683 31.752 158.187 32.536C157.691 33.304 157.003 33.904 156.123 34.336C155.259 34.752 154.259 34.96 153.123 34.96C152.003 34.96 151.003 34.752 150.123 34.336C149.243 33.904 148.547 33.304 148.035 32.536C147.539 31.752 147.291 30.856 147.291 29.848C147.291 28.824 147.539 27.928 148.035 27.16C148.547 26.392 149.243 25.8 150.123 25.384C151.003 24.952 152.003 24.736 153.123 24.736ZM153.123 26.464C152.387 26.464 151.723 26.608 151.131 26.896C150.555 27.168 150.099 27.56 149.763 28.072C149.427 28.584 149.259 29.176 149.259 29.848C149.259 30.52 149.427 31.112 149.763 31.624C150.099 32.136 150.555 32.536 151.131 32.824C151.723 33.096 152.387 33.232 153.123 33.232C153.875 33.232 154.539 33.096 155.115 32.824C155.691 32.536 156.147 32.136 156.483 31.624C156.819 31.112 156.987 30.52 156.987 29.848C156.987 29.176 156.819 28.584 156.483 28.072C156.147 27.56 155.691 27.168 155.115 26.896C154.539 26.608 153.875 26.464 153.123 26.464ZM161.787 23.152H163.779V44.896H161.787V23.152ZM146.475 40.144L146.211 38.464C147.539 38.464 148.995 38.456 150.579 38.44C152.163 38.408 153.795 38.344 155.475 38.248C157.171 38.136 158.803 37.96 160.371 37.72L160.539 39.184C158.907 39.488 157.251 39.712 155.571 39.856C153.907 39.984 152.299 40.064 150.747 40.096C149.195 40.128 147.771 40.144 146.475 40.144Z" fill="white"/>
</svg>
