<svg width="61" height="22" viewBox="0 0 61 22" fill="none" xmlns="http://www.w3.org/2000/svg">
<path d="M16.7109 8.27344H19.8516V10.4531H16.7109V21.1406H14.1094V0H16.7109V8.27344ZM0 15.3516C2.58594 14.0625 4.57812 12.5117 5.97656 10.6992C7.375 8.87891 8.20312 6.76562 8.46094 4.35938H1.14844V2.20312H11.1094C11.0938 9.15625 7.88281 14.2109 1.47656 17.3672L0 15.3516ZM38.6016 12.5859H36V7.40625H32.3906V5.27344H36V0H38.6016V12.5859ZM20.7891 10.4766C21.8906 10.1016 22.832 9.55859 23.6133 8.84766C24.4023 8.13672 24.9961 7.33203 25.3945 6.43359C25.793 5.53516 25.9922 4.60938 25.9922 3.65625V3.49219H21.5859V1.38281H33.0234V3.49219H28.6406V3.63281C28.6406 4.50781 28.832 5.35938 29.2148 6.1875C29.5977 7.00781 30.1641 7.74609 30.9141 8.40234C31.6641 9.05078 32.5703 9.55469 33.6328 9.91406L32.3203 11.9766C31.1719 11.5859 30.1797 11.0117 29.3438 10.2539C28.5078 9.48828 27.8477 8.59375 27.3633 7.57031C26.8867 8.72656 26.207 9.73438 25.3242 10.5938C24.4414 11.4531 23.3828 12.1016 22.1484 12.5391L20.7891 10.4766ZM24.2344 17.1562C24.2266 16.3203 24.5117 15.6016 25.0898 15C25.668 14.3906 26.4961 13.9258 27.5742 13.6055C28.6602 13.2852 29.9453 13.125 31.4297 13.125C32.9219 13.125 34.2109 13.2852 35.2969 13.6055C36.3828 13.9258 37.2148 14.3867 37.793 14.9883C38.3789 15.5898 38.6719 16.3125 38.6719 17.1562C38.6719 18 38.3789 18.7227 37.793 19.3242C37.2148 19.9258 36.3828 20.3867 35.2969 20.707C34.2109 21.0273 32.9219 21.1875 31.4297 21.1875C29.9453 21.1875 28.6602 21.0273 27.5742 20.707C26.4961 20.3867 25.668 19.9219 25.0898 19.3125C24.5117 18.7109 24.2266 17.9922 24.2344 17.1562ZM26.8125 17.1562C26.8047 17.8047 27.1953 18.3047 27.9844 18.6562C28.7812 19 29.9062 19.1719 31.3594 19.1719C32.875 19.1719 34.0391 19 34.8516 18.6562C35.6641 18.3125 36.0703 17.8125 36.0703 17.1562C36.0703 16.5 35.668 15.9961 34.8633 15.6445C34.0664 15.293 32.9219 15.1172 31.4297 15.1172C29.9531 15.1172 28.8125 15.293 28.0078 15.6445C27.2031 15.9961 26.8047 16.5 26.8125 17.1562ZM60.9141 12.2812H41.6016V10.1953H46.1016V7.51172C45.2891 7.16797 44.668 6.73438 44.2383 6.21094C43.8086 5.67969 43.5938 5.07031 43.5938 4.38281C43.5938 3.54688 43.9023 2.82812 44.5195 2.22656C45.1445 1.61719 46.0312 1.15234 47.1797 0.832031C48.3281 0.511719 49.6797 0.351562 51.2344 0.351562C52.7891 0.351562 54.1367 0.511719 55.2773 0.832031C56.4258 1.15234 57.3125 1.61719 57.9375 2.22656C58.5625 2.82812 58.875 3.54688 58.875 4.38281C58.8672 5.07031 58.6445 5.67969 58.207 6.21094C57.7773 6.74219 57.1562 7.17578 56.3438 7.51172V10.1953H60.9141V12.2812ZM43.8516 17.3438C43.8516 16.5391 44.1445 15.8555 44.7305 15.293C45.3164 14.7227 46.1602 14.293 47.2617 14.0039C48.3711 13.707 49.6953 13.5625 51.2344 13.5703C52.75 13.5625 54.0547 13.707 55.1484 14.0039C56.25 14.293 57.0938 14.7227 57.6797 15.293C58.2734 15.8555 58.5703 16.5391 58.5703 17.3438C58.5703 18.1562 58.2773 18.8438 57.6914 19.4062C57.1055 19.9766 56.2617 20.4062 55.1602 20.6953C54.0664 20.9922 52.7578 21.1406 51.2344 21.1406C49.6875 21.1406 48.3633 20.9922 47.2617 20.6953C46.1602 20.4062 45.3164 19.9766 44.7305 19.4062C44.1445 18.8438 43.8516 18.1562 43.8516 17.3438ZM46.3125 4.38281C46.3047 5.01562 46.7188 5.50391 47.5547 5.84766C48.3984 6.18359 49.5977 6.35156 51.1523 6.35156C52.7617 6.35156 54 6.18359 54.8672 5.84766C55.7422 5.51172 56.1797 5.02344 56.1797 4.38281C56.1797 3.74219 55.75 3.24609 54.8906 2.89453C54.0391 2.54297 52.8438 2.36719 51.3047 2.36719C49.7031 2.36719 48.4688 2.54297 47.6016 2.89453C46.7344 3.23828 46.3047 3.73438 46.3125 4.38281ZM46.5 17.3438C46.4922 17.9375 46.8867 18.3906 47.6836 18.7031C48.4805 19.0156 49.6367 19.1719 51.1523 19.1719C52.707 19.1719 53.8945 19.0195 54.7148 18.7148C55.543 18.4023 55.9609 17.9453 55.9688 17.3438C55.9609 16.7578 55.5508 16.3125 54.7383 16.0078C53.9258 15.7031 52.7578 15.5469 51.2344 15.5391C49.6875 15.5469 48.5078 15.7031 47.6953 16.0078C46.8906 16.3125 46.4922 16.7578 46.5 17.3438ZM53.7422 10.1953V8.17969C52.9531 8.28906 52.1172 8.34375 51.2344 8.34375C50.3516 8.34375 49.5156 8.28906 48.7266 8.17969V10.1953H53.7422Z" fill="white"/>
</svg>
