<svg width="60" height="16" viewBox="0 0 60 16" fill="none" xmlns="http://www.w3.org/2000/svg">
<path d="M12.9727 2.98828V3.17285C12.9668 4.05762 12.9492 4.8252 12.9199 5.47559C12.8965 6.12012 12.8408 6.87012 12.7529 7.72559C12.665 8.5752 12.5273 9.49805 12.3398 10.4941L10.3711 10.2832C10.5645 9.32812 10.7051 8.42871 10.793 7.58496C10.8867 6.73535 10.9424 5.98828 10.96 5.34375C10.9834 4.69922 10.998 3.92578 11.0039 3.02344H1.51172V1.45898H12.9727V2.98828ZM0 12.2344H5.34375V6.71484H7.27734V12.2344H14.4844V13.834H0V12.2344ZM29.1445 9.33398H27.2812V5.37891H25.6113V9.26367H23.7656V0.316406H25.6113V3.7793H27.2812V0.0175781H29.1445V9.33398ZM15.4688 8.01562C18.498 6.85547 20.1738 5.08594 20.4961 2.70703H16.1895V1.125H22.4824C22.4883 3.09375 21.9873 4.76953 20.9795 6.15234C19.9775 7.53516 18.4512 8.64258 16.4004 9.47461L15.4688 8.01562ZM18.1934 9.98438H29.1445V15.8906H27.1934V11.5664H18.1934V9.98438ZM44.7012 11.9004H42.8379V0H44.7012V11.9004ZM31.0078 8.2793C31.6875 7.95117 32.2588 7.51758 32.7217 6.97852C33.1904 6.43359 33.5391 5.83887 33.7676 5.19434C34.002 4.5498 34.1191 3.90234 34.1191 3.25195V1.08984H36.0176V3.25195C36.0176 3.89063 36.123 4.50586 36.334 5.09766C36.5508 5.68359 36.8789 6.2168 37.3184 6.69727C37.7578 7.17773 38.3027 7.56445 38.9531 7.85742L37.8633 9.36914C37.2129 9.06445 36.6533 8.65723 36.1846 8.14746C35.7217 7.6377 35.3555 7.04883 35.0859 6.38086C34.793 7.13672 34.3945 7.80762 33.8906 8.39355C33.3867 8.97363 32.7832 9.42773 32.0801 9.75586L31.0078 8.2793ZM34.0664 10.4766H36.0176V13.9922H45.1406V15.5742H34.0664V10.4766ZM37.5293 3.7793H39.6562V0.28125H41.5195V11.4258H39.6562V5.37891H37.5293V3.7793ZM59.9941 15.9082H58.0605V7.33008H55.0723V5.74805H58.0605V0H59.9941V15.9082ZM47.3906 1.37109H54.8262V2.9707H49.3594V5.81836H54.1934V7.36523H49.3594V10.6348C50.6426 10.6289 51.7646 10.5967 52.7256 10.5381C53.6865 10.4795 54.6562 10.3711 55.6348 10.2129L55.8281 11.7949C54.7324 11.959 53.6396 12.0732 52.5498 12.1377C51.4658 12.2021 50.1621 12.2402 48.6387 12.252H47.3906V1.37109Z" fill="white"/>
</svg>
