<svg width="217" height="58" viewBox="0 0 217 58" fill="none" xmlns="http://www.w3.org/2000/svg">
<path d="M23.8125 12.1875C23.7917 15.875 24.2708 19.3854 25.25 22.7188C26.25 26.0521 27.8125 29.0208 29.9375 31.625C32.0625 34.2083 34.75 36.1667 38 37.5L32.6875 44.75C29.5625 43.3542 26.8958 41.3854 24.6875 38.8438C22.4792 36.3021 20.7083 33.3125 19.375 29.875C18.0625 33.7083 16.25 37.0208 13.9375 39.8125C11.625 42.6042 8.77083 44.75 5.375 46.25L0 38.75C3.35417 37.375 6.125 35.3333 8.3125 32.625C10.5 29.9167 12.1042 26.8229 13.125 23.3438C14.1458 19.8438 14.6667 16.125 14.6875 12.1875V4.25H23.8125V12.1875ZM40 0H49.0625V57.5H40V0ZM82 35.5625C86.1875 35.5625 89.8229 36 92.9062 36.875C95.9896 37.7292 98.3646 38.9792 100.031 40.625C101.698 42.25 102.542 44.2083 102.562 46.5C102.542 48.75 101.698 50.6979 100.031 52.3438C98.3646 53.9896 95.9792 55.2396 92.875 56.0938C89.7917 56.9688 86.1667 57.3958 82 57.375C77.8542 57.3958 74.2292 56.9688 71.125 56.0938C68.0417 55.2396 65.6562 53.9896 63.9688 52.3438C62.2812 50.6979 61.4375 48.75 61.4375 46.5C61.4375 44.2083 62.2708 42.25 63.9375 40.625C65.625 38.9792 68.0104 37.7292 71.0938 36.875C74.1979 36 77.8333 35.5625 82 35.5625ZM56.375 25.25H75.1875V15.5H84.0625V25.25H108.375V32.5H56.375V25.25ZM62.125 2.5H102.312V7.125V8.78125C102.312 11.3021 102.208 13.6354 102 15.7812C101.792 17.9271 101.354 20.1667 100.688 22.5L91.8125 21.6875C92.375 19.4583 92.75 17.4062 92.9375 15.5312C93.1458 13.6354 93.2604 11.625 93.2812 9.5H62.125V2.5ZM70.4375 46.5C70.4167 47.8958 71.375 48.9271 73.3125 49.5938C75.2708 50.2604 78.1667 50.6042 82 50.625C89.75 50.5833 93.625 49.2083 93.625 46.5C93.625 45.0833 92.6458 44.0208 90.6875 43.3125C88.75 42.6042 85.9375 42.25 82.25 42.25C74.3542 42.25 70.4167 43.6667 70.4375 46.5ZM133.188 12.1875C133.167 15.8125 133.604 19.2708 134.5 22.5625C135.396 25.8333 136.823 28.7708 138.781 31.375C140.76 33.9792 143.271 36.0208 146.312 37.5L140.938 44.625C135.292 41.8958 131.219 37.0104 128.719 29.9688C127.448 33.5938 125.729 36.75 123.562 39.4375C121.396 42.125 118.75 44.2292 115.625 45.75L110.125 38.4375C113.354 36.9792 116.01 34.8958 118.094 32.1875C120.198 29.4792 121.729 26.4167 122.688 23C123.667 19.5625 124.167 15.9583 124.188 12.1875V4.25H133.188V12.1875ZM148 0H157V21.75H165.125V29.3125H157V57.375H148V0ZM187.812 28H176.938V37.25C181.417 37.0833 185.708 36.6667 189.812 36L190.5 43.25C187.479 43.7917 184.562 44.1667 181.75 44.375C178.938 44.5625 175.729 44.6667 172.125 44.6875H168.312V21H179V12.5H168.25V5.375H187.812V28ZM190.25 28.0625H196.062V21H190.25V13.875H196.062V0.875H204.562V54.625H196.062V35.25H190.25V28.0625ZM208.062 0H216.562V57.375H208.062V0Z" fill="white"/>
</svg>
