<svg width="62" height="16" viewBox="0 0 62 16" fill="none" xmlns="http://www.w3.org/2000/svg">
<path d="M4.86914 3.56836C4.86914 4.13672 4.9834 4.6875 5.21191 5.2207C5.44043 5.74805 5.78027 6.21973 6.23145 6.63574C6.68848 7.05176 7.24219 7.37109 7.89258 7.59375L7.01367 9.07031C6.30469 8.8125 5.69531 8.44629 5.18555 7.97168C4.67578 7.49707 4.27441 6.94336 3.98145 6.31055C3.69434 7.00195 3.29297 7.6084 2.77734 8.12988C2.26758 8.64551 1.64648 9.04688 0.914062 9.33398L0 7.89258C0.650391 7.63477 1.20117 7.2832 1.65234 6.83789C2.10352 6.39258 2.44336 5.8916 2.67188 5.33496C2.90039 4.77246 3.01758 4.18359 3.02344 3.56836V3.44531H0.404297V1.91602H3.02344V0.175781H4.86914V1.91602H7.45312V3.44531H4.86914V3.56836ZM2.67188 10.459H13.5527V15.8906H11.6016V12.041H2.67188V10.459ZM8.31445 0.28125H10.1602V4.0957H11.6895V0.0175781H13.5527V9.73828H11.6895V5.67773H10.1602V9.66797H8.31445V0.28125ZM28.7578 9.01758H26.7891V0.0175781H28.7578V9.01758ZM15.8027 4.57031C15.8027 3.83789 15.9873 3.18457 16.3564 2.61035C16.7314 2.03027 17.2441 1.5791 17.8945 1.25684C18.5449 0.93457 19.2773 0.773438 20.0918 0.773438C20.9004 0.773438 21.6299 0.93457 22.2803 1.25684C22.9307 1.5791 23.4404 2.03027 23.8096 2.61035C24.1787 3.18457 24.3633 3.83789 24.3633 4.57031C24.3633 5.29102 24.1787 5.93848 23.8096 6.5127C23.4404 7.08105 22.9307 7.52637 22.2803 7.84863C21.6299 8.1709 20.9004 8.33203 20.0918 8.33203C19.2832 8.33203 18.5508 8.1709 17.8945 7.84863C17.2441 7.52637 16.7314 7.08105 16.3564 6.5127C15.9873 5.93848 15.8027 5.29102 15.8027 4.57031ZM17.7188 4.57031C17.7188 4.99219 17.8184 5.36426 18.0176 5.68652C18.2168 6.00293 18.4951 6.24902 18.8525 6.4248C19.2158 6.59473 19.6289 6.67969 20.0918 6.67969C20.543 6.67969 20.9473 6.59473 21.3047 6.4248C21.6621 6.24902 21.9404 6.00293 22.1396 5.68652C22.3447 5.36426 22.4473 4.99219 22.4473 4.57031C22.4473 4.13672 22.3447 3.75879 22.1396 3.43652C21.9404 3.11426 21.6621 2.86523 21.3047 2.68945C20.9473 2.51367 20.543 2.42578 20.0918 2.42578C19.6289 2.42578 19.2158 2.51367 18.8525 2.68945C18.4951 2.86523 18.2168 3.11426 18.0176 3.43652C17.8184 3.75879 17.7188 4.13672 17.7188 4.57031ZM18.2109 9.79102H28.7578V15.6973H18.2109V9.79102ZM26.8418 14.1152V11.3379H20.1445V14.1152H26.8418ZM37.0898 3.81445C37.084 4.79297 37.2451 5.74512 37.5732 6.6709C37.9014 7.59668 38.376 8.41992 38.9971 9.14062C39.6182 9.86133 40.3477 10.4004 41.1855 10.7578L40.0254 12.3223C39.1289 11.9062 38.3467 11.3027 37.6787 10.5117C37.0166 9.71484 36.498 8.78613 36.123 7.72559C35.748 8.86816 35.2178 9.87012 34.5322 10.7314C33.8525 11.5928 33.041 12.2461 32.0977 12.6914L30.9023 11.0566C31.7637 10.6875 32.5107 10.1309 33.1436 9.38672C33.7764 8.63672 34.2598 7.77832 34.5938 6.81152C34.9277 5.84473 35.0977 4.8457 35.1035 3.81445V1.2832H37.0898V3.81445ZM42.3281 0H44.2969V15.9082H42.3281V0ZM53.7891 9.93164C54.9375 9.93164 55.9336 10.0518 56.7773 10.292C57.627 10.5264 58.2803 10.8691 58.7373 11.3203C59.2002 11.7656 59.4316 12.2988 59.4316 12.9199C59.4316 13.5293 59.2002 14.0537 58.7373 14.4932C58.2803 14.9385 57.627 15.2783 56.7773 15.5127C55.9336 15.7529 54.9375 15.873 53.7891 15.873C52.6523 15.873 51.6592 15.7529 50.8096 15.5127C49.9658 15.2783 49.3125 14.9385 48.8496 14.4932C48.3926 14.0537 48.1641 13.5293 48.1641 12.9199C48.1641 12.2988 48.3926 11.7656 48.8496 11.3203C49.3125 10.8691 49.9658 10.5264 50.8096 10.292C51.6592 10.0518 52.6523 9.93164 53.7891 9.93164ZM46.6699 7.20703H52.2598V4.32422H54.1934V7.20703H61.084V8.78906H46.6699V7.20703ZM48.3223 0.755859H59.3262V2.07422V2.54004C59.3262 3.22559 59.2969 3.86133 59.2383 4.44727C59.1855 5.0332 59.0684 5.64844 58.8867 6.29297L56.9531 6.11719C57.1289 5.42578 57.2432 4.7959 57.2959 4.22754C57.3486 3.65918 57.375 3.01758 57.375 2.30273H48.3223V0.755859ZM50.1328 12.9199C50.127 13.3828 50.4434 13.7402 51.082 13.9922C51.7266 14.2383 52.6289 14.3613 53.7891 14.3613C54.9492 14.3613 55.8545 14.2383 56.5049 13.9922C57.1611 13.7402 57.4922 13.3828 57.498 12.9199C57.4922 12.4395 57.1611 12.0674 56.5049 11.8037C55.8545 11.54 54.9492 11.4082 53.7891 11.4082C52.6348 11.4082 51.7354 11.54 51.0908 11.8037C50.4463 12.0674 50.127 12.4395 50.1328 12.9199Z" fill="white"/>
</svg>
