<svg width="479" height="22" viewBox="0 0 479 22" fill="none" xmlns="http://www.w3.org/2000/svg">
<path d="M12.2812 4.14844H10.125V13.9336C11.2734 13.8398 12.2891 13.7422 13.1719 13.6406L13.2891 15.2578C11.3359 15.5859 9.29297 15.8047 7.16016 15.9141C5.02734 16.0156 2.72656 16.0703 0.257812 16.0781L0 14.2266C0.53125 14.2266 1.42187 14.2188 2.67188 14.2031V4.14844H0.515625V2.32031H12.2812V4.14844ZM4.82812 14.168C5.875 14.1445 6.92188 14.1094 7.96875 14.0625V4.14844H4.82812V14.168ZM14.3906 0.164062H16.6172V8.4375H19.9922V10.2656H16.6172V21.1641H14.3906V0.164062ZM37.02 6.49219H40.0903V8.36719H37.02V15.6328H34.7934V0.1875H37.02V6.49219ZM21.3638 1.52344H30.9263V7.71094H23.6138V10.6406C25.5044 10.6406 27.1528 10.5938 28.5591 10.5C29.9653 10.3984 31.4106 10.2188 32.895 9.96094L33.1294 11.7891C31.6059 12.0547 30.0981 12.2344 28.6059 12.3281C27.1216 12.4141 25.2778 12.4609 23.0747 12.4688H21.3872V6H28.7466V3.35156H21.3638V1.52344ZM23.8247 14.4375H26.0747V18.9141H37.9575V20.7188H23.8247V14.4375ZM41.7431 2.20312H52.3838V4.42969H44.3213V9.5625H51.8213V11.7656H44.3213V16.9453H52.4775V19.1719H41.7431V2.20312ZM68.7553 19.1719H66.3881L57.7866 6.77344H57.6459V19.1719H55.0678V2.20312H57.4584L66.06 14.625H66.2241V2.20312H68.7553V19.1719ZM83.205 7.57031C82.8847 6.54688 82.3456 5.75 81.5878 5.17969C80.83 4.60938 79.9003 4.32812 78.7988 4.33594C77.8378 4.32812 76.9745 4.57422 76.2089 5.07422C75.4433 5.56641 74.8378 6.29297 74.3925 7.25391C73.955 8.20703 73.7363 9.35156 73.7363 10.6875C73.7363 12.0234 73.955 13.1719 74.3925 14.1328C74.8378 15.0859 75.4511 15.8125 76.2323 16.3125C77.0136 16.8047 77.9081 17.0469 78.9159 17.0391C79.8144 17.0391 80.6034 16.8594 81.2831 16.5C81.9628 16.1406 82.4902 15.6289 82.8652 14.9648C83.248 14.293 83.4472 13.5078 83.4628 12.6094H79.2909V10.4766H85.9706V12.3984C85.9706 13.8047 85.6698 15.0391 85.0683 16.1016C84.4667 17.1562 83.6308 17.9727 82.5605 18.5508C81.4902 19.1211 80.2675 19.4062 78.8925 19.4062C77.3691 19.4062 76.0253 19.0547 74.8613 18.3516C73.6972 17.6406 72.7909 16.6289 72.1425 15.3164C71.5019 13.9961 71.1816 12.4531 71.1816 10.6875C71.1816 8.92188 71.5058 7.38281 72.1542 6.07031C72.8027 4.75 73.7011 3.73828 74.8495 3.03516C76.0058 2.32422 77.3144 1.96875 78.7753 1.96875C79.9863 1.96875 81.0917 2.20703 82.0917 2.68359C83.0995 3.15234 83.9316 3.8125 84.5878 4.66406C85.2441 5.50781 85.6659 6.47656 85.8534 7.57031H83.205ZM103.866 8.53125H107.123V10.3828H103.866V21.1406H101.639V0.164062H103.866V8.53125ZM87.5297 15.5391C90.1547 14.2266 92.182 12.625 93.6117 10.7344C95.0492 8.84375 95.8812 6.67188 96.1078 4.21875H88.5844V2.36719H98.3812C98.3656 5.57031 97.5883 8.44922 96.0492 11.0039C94.5102 13.5508 92.0844 15.6406 88.7719 17.2734L87.5297 15.5391ZM119.523 1.10156C120.538 1.10156 121.441 1.27734 122.23 1.62891C123.027 1.98047 123.648 2.47266 124.093 3.10547C124.538 3.73828 124.765 4.46875 124.773 5.29688C124.765 6 124.589 6.63672 124.245 7.20703C123.91 7.77734 123.437 8.25 122.827 8.625C122.218 9 121.507 9.25 120.695 9.375V11.25C122.679 11.1406 124.499 10.9609 126.156 10.7109L126.32 12.3516C124.445 12.6875 122.464 12.918 120.378 13.043C118.3 13.1602 116.156 13.2188 113.945 13.2188H113.359L113.124 11.4141H114.179C115.827 11.4141 117.257 11.3906 118.468 11.3438V9.39844C117.632 9.28125 116.898 9.03516 116.265 8.66016C115.64 8.28516 115.156 7.80859 114.812 7.23047C114.468 6.65234 114.296 6.00781 114.296 5.29688C114.296 4.46875 114.515 3.73828 114.952 3.10547C115.398 2.47266 116.015 1.98047 116.804 1.62891C117.601 1.27734 118.507 1.10156 119.523 1.10156ZM116.101 14.8359H118.327V18.8906H130.421V20.7188H116.101V14.8359ZM116.382 5.29688C116.374 5.78125 116.503 6.21094 116.769 6.58594C117.035 6.96094 117.406 7.25 117.882 7.45312C118.359 7.65625 118.906 7.75781 119.523 7.75781C120.14 7.75781 120.687 7.65625 121.163 7.45312C121.64 7.25 122.007 6.96484 122.265 6.59766C122.531 6.22266 122.663 5.78906 122.663 5.29688C122.663 4.79688 122.531 4.35938 122.265 3.98438C122.007 3.60938 121.64 3.32031 121.163 3.11719C120.687 2.91406 120.14 2.8125 119.523 2.8125C118.906 2.8125 118.359 2.91406 117.882 3.11719C117.406 3.32031 117.035 3.60938 116.769 3.98438C116.503 4.35938 116.374 4.79688 116.382 5.29688ZM127.445 0.1875H129.671V7.125H132.671V9H129.671V16.2422H127.445V0.1875ZM140.863 3.30469C140.863 4.28125 141.066 5.21094 141.473 6.09375C141.879 6.96875 142.465 7.73828 143.23 8.40234C143.996 9.06641 144.902 9.57031 145.949 9.91406L144.73 11.6484C143.582 11.2266 142.59 10.625 141.754 9.84375C140.918 9.0625 140.269 8.14062 139.808 7.07812C139.348 8.29688 138.668 9.35547 137.769 10.2539C136.871 11.1523 135.793 11.8281 134.535 12.2812L133.34 10.5C134.441 10.125 135.39 9.58203 136.187 8.87109C136.984 8.15234 137.594 7.32422 138.015 6.38672C138.437 5.44922 138.652 4.45312 138.66 3.39844V1.33594H140.863V3.30469ZM136.785 17.1562C136.785 16.3125 137.066 15.5898 137.629 14.9883C138.199 14.3867 139.015 13.9297 140.078 13.6172C141.148 13.3047 142.418 13.1484 143.887 13.1484C145.348 13.1484 146.609 13.3047 147.672 13.6172C148.734 13.9297 149.551 14.3867 150.121 14.9883C150.699 15.5898 150.988 16.3125 150.988 17.1562C150.988 17.9922 150.699 18.707 150.121 19.3008C149.551 19.8945 148.734 20.3438 147.672 20.6484C146.609 20.9609 145.348 21.1172 143.887 21.1172C142.418 21.1172 141.148 20.9609 140.078 20.6484C139.015 20.3438 138.199 19.8945 137.629 19.3008C137.066 18.707 136.785 17.9922 136.785 17.1562ZM138.988 17.1562C138.988 17.6172 139.176 18.0117 139.551 18.3398C139.933 18.668 140.488 18.9219 141.215 19.1016C141.941 19.2734 142.808 19.3594 143.816 19.3594C145.379 19.3594 146.594 19.168 147.461 18.7852C148.336 18.4023 148.777 17.8594 148.785 17.1562C148.777 16.4375 148.34 15.8789 147.473 15.4805C146.613 15.082 145.418 14.8828 143.887 14.8828C142.34 14.8828 141.133 15.082 140.265 15.4805C139.406 15.8789 138.98 16.4375 138.988 17.1562ZM144.262 4.42969H148.691V0.164062H150.918V12.5625H148.691V6.25781H144.262V4.42969ZM170.172 6.9375H173.219V8.78906H170.172V15.8906H167.946V0.1875H170.172V6.9375ZM153.696 2.625H158.852V0.164062H161.078V2.625H166.211V4.42969H153.696V2.625ZM154.844 9.39844C154.844 8.60938 155.055 7.91406 155.477 7.3125C155.907 6.71094 156.508 6.25 157.282 5.92969C158.055 5.60156 158.946 5.4375 159.953 5.4375C160.953 5.4375 161.836 5.60156 162.602 5.92969C163.375 6.25 163.973 6.71094 164.395 7.3125C164.825 7.91406 165.039 8.60938 165.039 9.39844C165.039 10.1797 164.825 10.8672 164.395 11.4609C163.973 12.0547 163.375 12.5156 162.602 12.8438C161.836 13.1719 160.953 13.3359 159.953 13.3359C158.946 13.3359 158.055 13.1719 157.282 12.8438C156.508 12.5156 155.907 12.0547 155.477 11.4609C155.055 10.8672 154.844 10.1797 154.844 9.39844ZM156.86 14.6484H159.086V18.9141H171.063V20.7188H156.86V14.6484ZM157 9.39844C156.992 9.84375 157.11 10.2344 157.352 10.5703C157.594 10.8984 157.934 11.1523 158.371 11.332C158.817 11.5117 159.332 11.6016 159.918 11.6016C160.825 11.6016 161.555 11.4062 162.11 11.0156C162.664 10.625 162.946 10.0859 162.953 9.39844C162.946 8.71094 162.668 8.16797 162.121 7.76953C161.575 7.36328 160.852 7.15625 159.953 7.14844C159.36 7.14844 158.836 7.24219 158.383 7.42969C157.938 7.60938 157.594 7.87109 157.352 8.21484C157.11 8.55078 156.992 8.94531 157 9.39844ZM195.673 8.29688H199.048V10.125H195.673V21.2109H193.447V0.164062H195.673V8.29688ZM180.204 2.17969H190.025V3.98438H182.431V14.1328C184.29 14.125 185.923 14.0703 187.329 13.9688C188.736 13.8672 190.158 13.6875 191.595 13.4297L191.876 15.3047C190.392 15.5703 188.935 15.75 187.505 15.8438C186.083 15.9375 184.392 15.9844 182.431 15.9844H181.892H180.204V2.17969ZM219.053 4.96875H216.076V7.64062H219.053V9.49219H216.076V12.5625H213.849V0.164062H216.076V3.14062H219.053V4.96875ZM199.904 6.375C199.896 5.40625 200.131 4.54297 200.607 3.78516C201.092 3.02734 201.76 2.4375 202.611 2.01562C203.463 1.59375 204.42 1.38281 205.482 1.38281C206.545 1.38281 207.498 1.59375 208.342 2.01562C209.193 2.4375 209.861 3.02734 210.345 3.78516C210.83 4.54297 211.076 5.40625 211.084 6.375C211.076 7.33594 210.83 8.19531 210.345 8.95312C209.861 9.71094 209.193 10.3047 208.342 10.7344C207.498 11.1562 206.545 11.3672 205.482 11.3672C204.42 11.3672 203.463 11.1562 202.611 10.7344C201.76 10.3047 201.092 9.71094 200.607 8.95312C200.131 8.19531 199.896 7.33594 199.904 6.375ZM202.084 6.375C202.076 6.98438 202.217 7.52344 202.506 7.99219C202.803 8.46094 203.209 8.82812 203.724 9.09375C204.24 9.35156 204.826 9.48438 205.482 9.49219C206.138 9.48438 206.724 9.35156 207.24 9.09375C207.756 8.82812 208.162 8.46094 208.459 7.99219C208.756 7.52344 208.904 6.98438 208.904 6.375C208.904 5.76562 208.756 5.22656 208.459 4.75781C208.162 4.28125 207.752 3.91406 207.228 3.65625C206.713 3.39062 206.131 3.25781 205.482 3.25781C204.834 3.25781 204.248 3.39062 203.724 3.65625C203.209 3.91406 202.803 4.28125 202.506 4.75781C202.217 5.22656 202.076 5.76562 202.084 6.375ZM202.248 17.1328C202.248 16.3047 202.533 15.5898 203.103 14.9883C203.674 14.3867 204.486 13.9258 205.541 13.6055C206.603 13.2852 207.857 13.125 209.303 13.125C210.724 13.125 211.959 13.2852 213.006 13.6055C214.053 13.9258 214.857 14.3867 215.42 14.9883C215.982 15.5898 216.263 16.3047 216.263 17.1328C216.263 17.9609 215.982 18.6758 215.42 19.2773C214.857 19.8789 214.053 20.3359 213.006 20.6484C211.959 20.9609 210.724 21.1172 209.303 21.1172C207.865 21.1172 206.615 20.9609 205.553 20.6484C204.49 20.3359 203.674 19.8789 203.103 19.2773C202.533 18.6758 202.248 17.9609 202.248 17.1328ZM204.474 17.1328C204.467 17.8359 204.881 18.3789 205.717 18.7617C206.553 19.1445 207.724 19.3359 209.232 19.3359C210.779 19.3359 211.974 19.1484 212.818 18.7734C213.67 18.3906 214.092 17.8438 214.084 17.1328C214.092 16.4375 213.678 15.8984 212.842 15.5156C212.013 15.125 210.853 14.9297 209.361 14.9297C207.814 14.9297 206.611 15.1211 205.752 15.5039C204.892 15.8867 204.467 16.4297 204.474 17.1328ZM236.338 6.9375H239.385V8.78906H236.338V15.8906H234.112V0.1875H236.338V6.9375ZM219.862 2.625H225.018V0.164062H227.244V2.625H232.377V4.42969H219.862V2.625ZM221.01 9.39844C221.01 8.60938 221.221 7.91406 221.643 7.3125C222.072 6.71094 222.674 6.25 223.447 5.92969C224.221 5.60156 225.112 5.4375 226.119 5.4375C227.119 5.4375 228.002 5.60156 228.768 5.92969C229.541 6.25 230.139 6.71094 230.561 7.3125C230.99 7.91406 231.205 8.60938 231.205 9.39844C231.205 10.1797 230.99 10.8672 230.561 11.4609C230.139 12.0547 229.541 12.5156 228.768 12.8438C228.002 13.1719 227.119 13.3359 226.119 13.3359C225.112 13.3359 224.221 13.1719 223.447 12.8438C222.674 12.5156 222.072 12.0547 221.643 11.4609C221.221 10.8672 221.01 10.1797 221.01 9.39844ZM223.026 14.6484H225.252V18.9141H237.229V20.7188H223.026V14.6484ZM223.166 9.39844C223.158 9.84375 223.276 10.2344 223.518 10.5703C223.76 10.8984 224.1 11.1523 224.537 11.332C224.983 11.5117 225.498 11.6016 226.084 11.6016C226.99 11.6016 227.721 11.4062 228.276 11.0156C228.83 10.625 229.112 10.0859 229.119 9.39844C229.112 8.71094 228.834 8.16797 228.287 7.76953C227.74 7.36328 227.018 7.15625 226.119 7.14844C225.526 7.14844 225.002 7.24219 224.549 7.42969C224.104 7.60938 223.76 7.87109 223.518 8.21484C223.276 8.55078 223.158 8.94531 223.166 9.39844ZM253.191 5.50781C253.183 6.77344 253.413 8.01953 253.882 9.24609C254.359 10.4727 255.019 11.5625 255.863 12.5156C256.714 13.4609 257.675 14.1719 258.745 14.6484L257.409 16.4062C256.214 15.8359 255.155 14.9922 254.234 13.875C253.312 12.7578 252.601 11.4766 252.101 10.0312C251.609 11.5938 250.89 12.9727 249.945 14.168C249.007 15.3633 247.917 16.2656 246.675 16.875L245.316 15C246.402 14.5234 247.37 13.793 248.222 12.8086C249.073 11.8164 249.738 10.6836 250.214 9.41016C250.698 8.12891 250.941 6.82812 250.941 5.50781V1.92188H253.191V5.50781ZM260.644 0.164062H262.87V21.2109H260.644V0.164062ZM275.211 13.3594C276.718 13.3594 278.031 13.5156 279.148 13.8281C280.265 14.1328 281.125 14.5781 281.726 15.1641C282.336 15.75 282.64 16.4453 282.64 17.25C282.64 18.0547 282.336 18.7461 281.726 19.3242C281.125 19.9102 280.265 20.3555 279.148 20.6602C278.031 20.9648 276.718 21.1172 275.211 21.1172C273.718 21.1172 272.414 20.9648 271.297 20.6602C270.187 20.3555 269.332 19.9102 268.73 19.3242C268.129 18.7461 267.828 18.0547 267.828 17.25C267.828 16.4453 268.129 15.75 268.73 15.1641C269.332 14.5781 270.187 14.1328 271.297 13.8281C272.406 13.5156 273.711 13.3594 275.211 13.3594ZM265.765 9.82031H273.429V5.88281H275.609V9.82031H284.867V11.625H265.765V9.82031ZM267.992 1.19531H282.476V2.95312V3.57422C282.476 4.48047 282.437 5.32031 282.359 6.09375C282.289 6.85938 282.133 7.67188 281.89 8.53125L279.711 8.29688C279.961 7.34375 280.117 6.48828 280.179 5.73047C280.242 4.96484 280.273 4.04687 280.273 2.97656H267.992V1.19531ZM270.054 17.25C270.047 17.6953 270.25 18.082 270.664 18.4102C271.086 18.7305 271.683 18.9766 272.457 19.1484C273.238 19.3203 274.156 19.4062 275.211 19.4062C276.281 19.4062 277.207 19.3203 277.988 19.1484C278.769 18.9766 279.371 18.7305 279.793 18.4102C280.215 18.082 280.429 17.6953 280.437 17.25C280.429 16.7969 280.215 16.4062 279.793 16.0781C279.371 15.7422 278.769 15.4883 277.988 15.3164C277.207 15.1367 276.281 15.0469 275.211 15.0469C274.156 15.0469 273.238 15.1367 272.457 15.3164C271.683 15.4883 271.086 15.7422 270.664 16.0781C270.25 16.4062 270.047 16.7969 270.054 17.25ZM308.891 16.1953H306.665V11.8594H303.29V10.0781H306.665V7.47656H303.29V5.64844H306.665V0.1875H308.891V16.1953ZM291.407 2.625H296.329V0.164062H298.532V2.625H303.219V4.42969H291.407V2.625ZM292.579 9.46875C292.579 8.67969 292.782 7.98047 293.188 7.37109C293.602 6.75391 294.172 6.27734 294.899 5.94141C295.633 5.60547 296.469 5.4375 297.407 5.4375C298.337 5.4375 299.169 5.60547 299.903 5.94141C300.637 6.27734 301.212 6.75391 301.626 7.37109C302.047 7.98047 302.258 8.67969 302.258 9.46875C302.258 10.2656 302.047 10.9727 301.626 11.5898C301.212 12.1992 300.637 12.6758 299.903 13.0195C299.169 13.3555 298.337 13.5234 297.407 13.5234C296.469 13.5234 295.633 13.3555 294.899 13.0195C294.172 12.6758 293.602 12.1992 293.188 11.5898C292.782 10.9727 292.579 10.2656 292.579 9.46875ZM294.665 9.46875C294.665 9.9375 294.778 10.3477 295.005 10.6992C295.231 11.0508 295.551 11.3203 295.965 11.5078C296.387 11.6953 296.868 11.7891 297.407 11.7891C297.938 11.7891 298.411 11.6953 298.825 11.5078C299.247 11.3203 299.575 11.0508 299.809 10.6992C300.044 10.3477 300.165 9.9375 300.172 9.46875C300.165 9.01562 300.044 8.61719 299.809 8.27344C299.575 7.92969 299.247 7.66406 298.825 7.47656C298.411 7.28125 297.938 7.17969 297.407 7.17188C296.868 7.17969 296.387 7.28125 295.965 7.47656C295.551 7.66406 295.231 7.92969 295.005 8.27344C294.778 8.61719 294.665 9.01562 294.665 9.46875ZM295.18 14.7891H297.43V18.9141H309.36V20.7188H295.18V14.7891ZM318.982 4.03125C318.974 4.92188 319.169 5.77344 319.568 6.58594C319.974 7.39062 320.556 8.10547 321.314 8.73047C322.071 9.34766 322.974 9.82031 324.021 10.1484L322.966 11.8828C321.786 11.5078 320.763 10.9453 319.896 10.1953C319.036 9.44531 318.372 8.5625 317.903 7.54688C317.443 8.71094 316.759 9.72656 315.853 10.5938C314.946 11.4531 313.872 12.1016 312.63 12.5391L311.482 10.7578C312.552 10.4062 313.485 9.89062 314.282 9.21094C315.079 8.53125 315.689 7.74609 316.11 6.85547C316.532 5.96484 316.747 5.03125 316.755 4.05469V3.46875H312.138V1.66406H323.505V3.46875H318.982V4.03125ZM314.318 17.1797C314.318 16.3672 314.599 15.668 315.161 15.082C315.732 14.4961 316.544 14.0508 317.599 13.7461C318.661 13.4414 319.919 13.2891 321.372 13.2891C322.81 13.2891 324.048 13.4414 325.087 13.7461C326.134 14.0508 326.935 14.4961 327.489 15.082C328.052 15.668 328.333 16.3672 328.333 17.1797C328.333 18.0078 328.052 18.7148 327.489 19.3008C326.935 19.8945 326.134 20.3438 325.087 20.6484C324.048 20.9609 322.81 21.1172 321.372 21.1172C319.919 21.1172 318.661 20.9609 317.599 20.6484C316.544 20.3438 315.732 19.8945 315.161 19.3008C314.599 18.7148 314.318 18.0078 314.318 17.1797ZM316.544 17.1797C316.536 17.875 316.95 18.4141 317.786 18.7969C318.63 19.1719 319.802 19.3594 321.302 19.3594C322.841 19.3594 324.036 19.1719 324.888 18.7969C325.739 18.4219 326.161 17.8828 326.153 17.1797C326.161 16.5 325.751 15.9766 324.923 15.6094C324.095 15.2344 322.935 15.0469 321.443 15.0469C319.888 15.0469 318.681 15.2305 317.821 15.5977C316.962 15.9648 316.536 16.4922 316.544 17.1797ZM325.919 0.164062H328.146V5.36719H331.193V7.19531H328.146V12.7734H325.919V0.164062ZM341.47 0.515625C343.048 0.515625 344.396 0.652344 345.513 0.925781C346.63 1.19922 347.486 1.60937 348.08 2.15625C348.673 2.69531 348.97 3.35156 348.97 4.125C348.97 4.90625 348.673 5.57031 348.08 6.11719C347.486 6.65625 346.63 7.06641 345.513 7.34766C344.396 7.62109 343.048 7.75781 341.47 7.75781C339.892 7.75781 338.541 7.62109 337.416 7.34766C336.298 7.06641 335.443 6.65625 334.849 6.11719C334.263 5.57031 333.97 4.90625 333.97 4.125C333.97 3.35156 334.263 2.69531 334.849 2.15625C335.443 1.60937 336.298 1.19922 337.416 0.925781C338.541 0.652344 339.892 0.515625 341.47 0.515625ZM331.908 9.04688H351.056V10.8281H331.908V9.04688ZM334.205 12.4453H348.642V17.3672H336.408V19.2422H349.228V20.9531H334.228V15.75H346.439V14.1094H334.205V12.4453ZM336.291 4.125C336.283 4.77344 336.724 5.26562 337.615 5.60156C338.505 5.92969 339.791 6.09375 341.47 6.09375C343.166 6.09375 344.459 5.92969 345.349 5.60156C346.24 5.26562 346.681 4.77344 346.673 4.125C346.681 3.5 346.232 3.01562 345.326 2.67188C344.427 2.32813 343.142 2.15625 341.47 2.15625C339.806 2.15625 338.525 2.32813 337.627 2.67188C336.728 3.01562 336.283 3.5 336.291 4.125ZM374.073 6.42188H377.073V8.25H374.073V14.3203H371.846V0.1875H374.073V6.42188ZM357.409 11.9766C359.753 11.9766 361.581 11.9609 362.893 11.9297V10.5117C361.682 10.3789 360.729 10.043 360.034 9.50391C359.338 8.95703 358.995 8.26562 359.003 7.42969C358.995 6.79688 359.198 6.24609 359.612 5.77734C360.026 5.30859 360.608 4.94922 361.358 4.69922C362.116 4.44922 362.995 4.32812 363.995 4.33594C364.995 4.32812 365.87 4.44922 366.62 4.69922C367.37 4.94922 367.952 5.30859 368.366 5.77734C368.78 6.24609 368.987 6.79688 368.987 7.42969C368.979 8.25781 368.631 8.94531 367.944 9.49219C367.256 10.0312 366.315 10.3711 365.12 10.5117V11.8477C367.237 11.7383 369.081 11.5703 370.651 11.3438L370.838 12.9375C368.846 13.2812 366.788 13.5039 364.663 13.6055C362.538 13.707 360.198 13.7578 357.643 13.7578L357.409 11.9766ZM357.948 1.96875H362.893V0H365.12V1.96875H370.065V3.63281H357.948V1.96875ZM360.034 15.3047H374.073V21.1641H371.846V17.0391H360.034V15.3047ZM361.112 7.42969C361.112 7.92188 361.366 8.31641 361.874 8.61328C362.381 8.90234 363.073 9.04688 363.948 9.04688C364.846 9.04688 365.557 8.90234 366.081 8.61328C366.604 8.32422 366.862 7.92969 366.854 7.42969C366.862 6.92969 366.608 6.53906 366.092 6.25781C365.585 5.97656 364.885 5.84375 363.995 5.85938C363.096 5.84375 362.389 5.97656 361.874 6.25781C361.366 6.53906 361.112 6.92969 361.112 7.42969ZM395.226 15.4453H392.999V0.1875H395.226V15.4453ZM378.233 6.79688C378.233 5.80469 378.48 4.91406 378.972 4.125C379.464 3.33594 380.136 2.71875 380.987 2.27344C381.839 1.82031 382.788 1.59375 383.835 1.59375C384.882 1.59375 385.827 1.82031 386.671 2.27344C387.522 2.71875 388.19 3.33594 388.675 4.125C389.167 4.91406 389.413 5.80469 389.413 6.79688C389.413 7.80469 389.167 8.70703 388.675 9.50391C388.19 10.293 387.522 10.9102 386.671 11.3555C385.827 11.8008 384.882 12.0234 383.835 12.0234C382.788 12.0234 381.839 11.8008 380.987 11.3555C380.136 10.9102 379.464 10.293 378.972 9.50391C378.48 8.70703 378.233 7.80469 378.233 6.79688ZM380.413 6.79688C380.413 7.44531 380.558 8.01953 380.847 8.51953C381.144 9.01172 381.554 9.39453 382.077 9.66797C382.601 9.94141 383.187 10.0781 383.835 10.0781C384.476 10.0781 385.054 9.94141 385.569 9.66797C386.085 9.39453 386.491 9.01172 386.788 8.51953C387.085 8.01953 387.233 7.44531 387.233 6.79688C387.233 6.16406 387.085 5.60156 386.788 5.10938C386.491 4.60938 386.085 4.22266 385.569 3.94922C385.054 3.67578 384.476 3.53906 383.835 3.53906C383.187 3.53906 382.601 3.67578 382.077 3.94922C381.554 4.22266 381.144 4.60938 380.847 5.10938C380.558 5.60156 380.413 6.16406 380.413 6.79688ZM381.491 13.8984H383.741V18.9141H395.858V20.7188H381.491V13.8984ZM408.457 5.4375H398.027V3.63281H402.152V0.773438H404.355V3.63281H408.457V5.4375ZM398.707 11.5312C398.707 10.6016 398.898 9.76953 399.281 9.03516C399.671 8.30078 400.214 7.73047 400.91 7.32422C401.605 6.91016 402.386 6.70312 403.253 6.70312C404.128 6.70312 404.91 6.91016 405.597 7.32422C406.293 7.73047 406.835 8.30078 407.226 9.03516C407.625 9.76953 407.824 10.6016 407.824 11.5312C407.824 12.4766 407.625 13.3203 407.226 14.0625C406.835 14.8047 406.293 15.3828 405.597 15.7969C404.91 16.2031 404.128 16.4062 403.253 16.4062C402.386 16.4062 401.605 16.2031 400.91 15.7969C400.214 15.3828 399.671 14.8047 399.281 14.0625C398.898 13.3203 398.707 12.4766 398.707 11.5312ZM400.675 11.5312C400.675 12.1172 400.785 12.6367 401.003 13.0898C401.222 13.5352 401.527 13.8828 401.918 14.1328C402.308 14.3828 402.753 14.5078 403.253 14.5078C403.753 14.5078 404.199 14.3828 404.589 14.1328C404.988 13.8828 405.296 13.5352 405.515 13.0898C405.742 12.6367 405.855 12.1172 405.855 11.5312C405.855 10.9609 405.742 10.4492 405.515 9.99609C405.296 9.54297 404.988 9.19141 404.589 8.94141C404.199 8.68359 403.753 8.55469 403.253 8.55469C402.753 8.55469 402.308 8.68359 401.918 8.94141C401.527 9.19141 401.222 9.54297 401.003 9.99609C400.785 10.4492 400.675 10.9609 400.675 11.5312ZM409.418 0.632812H411.527V8.90625H413.941V0.164062H416.05V21.1641H413.941V10.7344H411.527V20.1797H409.418V0.632812ZM437.555 18.5625H418.336V16.7109H426.797V12.3984H420.539V1.59375H422.766V5.20312H433.078V1.59375H435.281V12.3984H429V16.7109H437.555V18.5625ZM433.078 10.5938V7.00781H422.766V10.5938H433.078ZM444.997 5.90625C444.997 7.04688 445.157 8.17578 445.477 9.29297C445.797 10.4023 446.274 11.418 446.907 12.3398C447.54 13.2617 448.309 14 449.215 14.5547L447.973 16.2656C447.02 15.6953 446.204 14.918 445.524 13.9336C444.852 12.9414 444.329 11.8164 443.954 10.5586C443.563 11.9258 443.004 13.1445 442.278 14.2148C441.559 15.2852 440.7 16.125 439.7 16.7344L438.317 15.0703C439.278 14.4922 440.098 13.7227 440.778 12.7617C441.465 11.8008 441.981 10.7383 442.325 9.57422C442.676 8.40234 442.848 7.21094 442.84 6V2.08594H444.997V5.90625ZM446.942 7.54688H450.2V0.5625H452.309V20.1328H450.2V9.39844H446.942V7.54688ZM454.536 0.164062H456.668V21.1641H454.536V0.164062ZM478.079 18.5391H458.86V16.6875H463.454V11.2031C462.571 10.7188 461.888 10.1055 461.403 9.36328C460.919 8.62109 460.681 7.78906 460.688 6.86719C460.688 5.78125 461.017 4.82422 461.673 3.99609C462.329 3.16797 463.243 2.52734 464.415 2.07422C465.595 1.61328 466.931 1.38281 468.423 1.38281C469.915 1.38281 471.251 1.61328 472.431 2.07422C473.61 2.52734 474.528 3.16797 475.185 3.99609C475.849 4.82422 476.181 5.78125 476.181 6.86719C476.181 7.78125 475.946 8.60547 475.478 9.33984C475.009 10.0664 474.345 10.6719 473.485 11.1562V16.6875H478.079V18.5391ZM462.845 6.86719C462.845 7.60938 463.079 8.26172 463.548 8.82422C464.017 9.38672 464.673 9.82422 465.517 10.1367C466.36 10.4414 467.329 10.5938 468.423 10.5938C469.509 10.5938 470.474 10.4375 471.317 10.125C472.169 9.8125 472.833 9.37891 473.31 8.82422C473.786 8.26172 474.024 7.60938 474.024 6.86719C474.024 6.125 473.786 5.47656 473.31 4.92188C472.833 4.35938 472.169 3.92578 471.317 3.62109C470.474 3.31641 469.509 3.16406 468.423 3.16406C467.329 3.16406 466.36 3.31641 465.517 3.62109C464.673 3.92578 464.017 4.35938 463.548 4.92188C463.079 5.47656 462.845 6.125 462.845 6.86719ZM471.235 16.6875V12.0234C470.36 12.2266 469.423 12.3281 468.423 12.3281C467.438 12.3281 466.517 12.2266 465.657 12.0234V16.6875H471.235Z" fill="white"/>
</svg>
