<svg width="101" height="19" viewBox="0 0 101 19" fill="none" xmlns="http://www.w3.org/2000/svg">
<path d="M14.1406 17.6367H1.89453V12.5H14.1406V17.6367ZM0 9.74609H6.95312V8.7207C5.40365 8.64909 4.21875 8.40169 3.39844 7.97852C2.57812 7.55534 2.16797 6.97266 2.16797 6.23047C2.16797 5.41016 2.67253 4.78841 3.68164 4.36523C4.69076 3.94206 6.13932 3.73047 8.02734 3.73047C9.92839 3.73047 11.3802 3.94206 12.3828 4.36523C13.3919 4.7819 13.8997 5.40365 13.9062 6.23047C13.8997 6.97917 13.4896 7.5651 12.6758 7.98828C11.862 8.40495 10.6771 8.64909 9.12109 8.7207V9.74609H16.0938V11.4648H0V9.74609ZM0.800781 1.54297H6.95312V0H9.12109V1.54297H15.2148V3.18359H0.800781V1.54297ZM12.0312 15.9961V14.1406H4.04297V15.9961H12.0312ZM4.49219 6.23047C4.49219 6.92057 5.67057 7.26562 8.02734 7.26562C10.3906 7.26562 11.5755 6.92057 11.582 6.23047C11.5755 5.87891 11.2793 5.62174 10.6934 5.45898C10.1139 5.28971 9.22526 5.20182 8.02734 5.19531C6.84245 5.20182 5.95703 5.28971 5.37109 5.45898C4.78516 5.62174 4.49219 5.87891 4.49219 6.23047Z" fill="#C3C3C3"/>
<path d="M23.8477 18.2422H21.6602L26.2305 1.30859H28.3984L23.8477 18.2422ZM48.3594 3.51562V3.7207C48.3529 4.70378 48.3333 5.55664 48.3008 6.2793C48.2747 6.99544 48.2129 7.82878 48.1152 8.7793C48.0176 9.72331 47.8646 10.7487 47.6562 11.8555L45.4688 11.6211C45.6836 10.5599 45.8398 9.56055 45.9375 8.62305C46.0417 7.67904 46.1035 6.84896 46.123 6.13281C46.1491 5.41667 46.1654 4.55729 46.1719 3.55469H35.625V1.81641H48.3594V3.51562ZM33.9453 13.7891H39.8828V7.65625H42.0312V13.7891H50.0391V15.5664H33.9453V13.7891ZM66.3281 10.5664H64.2578V6.17188H62.4023V10.4883H60.3516V0.546875H62.4023V4.39453H64.2578V0.214844H66.3281V10.5664ZM51.1328 9.10156C54.4987 7.8125 56.3607 5.84635 56.7188 3.20312H51.9336V1.44531H58.9258C58.9323 3.63281 58.3757 5.49479 57.2559 7.03125C56.1426 8.56771 54.4466 9.79818 52.168 10.7227L51.1328 9.10156ZM54.1602 11.2891H66.3281V17.8516H64.1602V13.0469H54.1602V11.2891ZM83.6133 13.418H81.543V0.195312H83.6133V13.418ZM68.3984 9.39453C69.1536 9.02995 69.7884 8.54818 70.3027 7.94922C70.8236 7.34375 71.2109 6.68294 71.4648 5.9668C71.7253 5.25065 71.8555 4.53125 71.8555 3.80859V1.40625H73.9648V3.80859C73.9648 4.51823 74.082 5.20182 74.3164 5.85938C74.5573 6.51042 74.9219 7.10286 75.4102 7.63672C75.8984 8.17057 76.5039 8.60026 77.2266 8.92578L76.0156 10.6055C75.293 10.2669 74.6712 9.81445 74.1504 9.24805C73.6361 8.68164 73.2292 8.02734 72.9297 7.28516C72.6042 8.125 72.1615 8.87044 71.6016 9.52148C71.0417 10.166 70.3711 10.6706 69.5898 11.0352L68.3984 9.39453ZM71.7969 11.8359H73.9648V15.7422H84.1016V17.5H71.7969V11.8359ZM75.6445 4.39453H78.0078V0.507812H80.0781V12.8906H78.0078V6.17188H75.6445V4.39453ZM100.605 17.8711H98.457V8.33984H95.1367V6.58203H98.457V0.195312H100.605V17.8711ZM86.6016 1.71875H94.8633V3.49609H88.7891V6.66016H94.1602V8.37891H88.7891V12.0117C90.2148 12.0052 91.4616 11.9694 92.5293 11.9043C93.597 11.8392 94.6745 11.7188 95.7617 11.543L95.9766 13.3008C94.7591 13.4831 93.5449 13.61 92.334 13.6816C91.1296 13.7533 89.681 13.7956 87.9883 13.8086H86.6016V1.71875Z" fill="white"/>
</svg>
