<svg width="436" height="19" viewBox="0 0 436 19" fill="none" xmlns="http://www.w3.org/2000/svg">
<circle cx="7" cy="9.5" r="6.5" stroke="#1AA8BF"/>
<path d="M5.11179 13.5939L2 10.4821L2.62358 9.85833L5.11179 12.3465L10.4583 7L11.0819 7.62373L5.11179 13.5939Z" fill="#1AA8BF"/>
<path d="M31.1875 12.5938H29.7031V7.32812H27.0312V6.125H29.7031V2.34375H31.1875V12.5938ZM19.5312 9.67188C20.2344 9.43229 20.849 9.08333 21.375 8.625C21.9062 8.16146 22.3125 7.63021 22.5938 7.03125C22.875 6.43229 23.0156 5.8125 23.0156 5.17188V4.625H19.9844V3.40625H27.5312V4.625H24.5312V5.17188C24.526 5.75521 24.6589 6.32552 24.9297 6.88281C25.2057 7.4401 25.599 7.9375 26.1094 8.375C26.6198 8.8125 27.2188 9.14583 27.9062 9.375L27.1406 10.5625C26.3698 10.2917 25.6979 9.89062 25.125 9.35938C24.5521 8.82812 24.1094 8.20833 23.7969 7.5C23.4896 8.28125 23.0339 8.96615 22.4297 9.55469C21.8307 10.1432 21.1198 10.5833 20.2969 10.875L19.5312 9.67188ZM22.0938 11.6719H23.5781V14.8281H31.5625V16.0312H22.0938V11.6719ZM44.5312 4.03125V4.45312C44.5312 5.03125 44.5078 5.59635 44.4609 6.14844C44.4193 6.69531 44.3359 7.28646 44.2109 7.92188H46.1562V9.125H40.4688V11.5156H44.5938V16.3281H43.1094V12.7031H34.6562V11.5156H38.9844V9.125H33.3438V7.92188H42.7188C42.8646 7.22396 42.9583 6.59115 43 6.02344C43.0417 5.45573 43.0625 4.84375 43.0625 4.1875H34.9531V2.98438H44.5312V4.03125ZM63.8281 9.57812H58.1875V10.75H62.2344V13.9062H54.0781V15.0625H62.625V16.1875H52.625V12.875H60.7656V11.8281H52.6094V10.75H56.7188V9.57812H51.0938V8.46875H63.8281V9.57812ZM51.7188 6.79688C52.6094 6.75 53.4036 6.63021 54.1016 6.4375C54.7995 6.24479 55.3646 5.99479 55.7969 5.6875C56.2292 5.38021 56.4948 5.03125 56.5938 4.64062H52.3594V3.5H56.7188V2.26562H58.1875V3.5H62.5625V4.64062H58.3047C58.4036 5.03125 58.6667 5.38021 59.0938 5.6875C59.526 5.99479 60.0938 6.24479 60.7969 6.4375C61.5052 6.63021 62.3073 6.75 63.2031 6.79688L62.75 7.92188C61.5 7.82812 60.4115 7.60156 59.4844 7.24219C58.5573 6.88281 57.8802 6.40365 57.4531 5.80469C57.026 6.40365 56.3464 6.88281 55.4141 7.24219C54.487 7.60156 53.3958 7.82812 52.1406 7.92188L51.7188 6.79688ZM69.7969 4.90625C69.7917 5.5 69.9219 6.06771 70.1875 6.60938C70.4583 7.14583 70.8464 7.6224 71.3516 8.03906C71.8568 8.45052 72.4583 8.76562 73.1562 8.98438L72.4531 10.1406C71.6667 9.89062 70.9844 9.51562 70.4062 9.01562C69.8333 8.51562 69.3906 7.92708 69.0781 7.25C68.7708 8.02604 68.3151 8.70312 67.7109 9.28125C67.1068 9.85417 66.3906 10.2865 65.5625 10.5781L64.7969 9.39062C65.5104 9.15625 66.1328 8.8125 66.6641 8.35938C67.1953 7.90625 67.6016 7.38281 67.8828 6.78906C68.1641 6.19531 68.3073 5.57292 68.3125 4.92188V4.53125H65.2344V3.32812H72.8125V4.53125H69.7969V4.90625ZM66.6875 13.6719C66.6875 13.1302 66.875 12.6641 67.25 12.2734C67.6302 11.8828 68.1719 11.5859 68.875 11.3828C69.5833 11.1797 70.4219 11.0781 71.3906 11.0781C72.349 11.0781 73.1745 11.1797 73.8672 11.3828C74.5651 11.5859 75.099 11.8828 75.4688 12.2734C75.8438 12.6641 76.0312 13.1302 76.0312 13.6719C76.0312 14.224 75.8438 14.6953 75.4688 15.0859C75.099 15.4818 74.5651 15.7812 73.8672 15.9844C73.1745 16.1927 72.349 16.2969 71.3906 16.2969C70.4219 16.2969 69.5833 16.1927 68.875 15.9844C68.1719 15.7812 67.6302 15.4818 67.25 15.0859C66.875 14.6953 66.6875 14.224 66.6875 13.6719ZM68.1719 13.6719C68.1667 14.1354 68.4427 14.4948 69 14.75C69.5625 15 70.3438 15.125 71.3438 15.125C72.3698 15.125 73.1667 15 73.7344 14.75C74.3021 14.5 74.5833 14.1406 74.5781 13.6719C74.5833 13.2188 74.3099 12.8698 73.7578 12.625C73.2057 12.375 72.4323 12.25 71.4375 12.25C70.401 12.25 69.5964 12.3724 69.0234 12.6172C68.4505 12.862 68.1667 13.2135 68.1719 13.6719ZM74.4219 2.32812H75.9062V5.79688H77.9375V7.01562H75.9062V10.7344H74.4219V2.32812ZM87.6875 5.89062C87.6875 6.73958 87.8359 7.57292 88.1328 8.39062C88.4349 9.20312 88.8568 9.92448 89.3984 10.5547C89.9401 11.1849 90.5625 11.6562 91.2656 11.9688L90.3594 13.1562C89.5781 12.7604 88.8932 12.1901 88.3047 11.4453C87.7161 10.6953 87.2656 9.83594 86.9531 8.86719C86.6406 9.89323 86.1849 10.8073 85.5859 11.6094C84.9922 12.4062 84.2969 13.0104 83.5 13.4219L82.5625 12.2188C83.2708 11.8802 83.8984 11.3802 84.4453 10.7188C84.9974 10.0521 85.4245 9.29688 85.7266 8.45312C86.0339 7.60417 86.1875 6.75 86.1875 5.89062V3.5H87.6875V5.89062ZM89.7188 6.98438H92.8438V2.32812H94.3125V16.3594H92.8438V8.1875H89.7188V6.98438ZM108.062 16.3594H106.578V2.32812H108.062V16.3594ZM97.25 3.5H98.7344V7.09375H102.5V3.5H103.969V13H97.25V3.5ZM102.5 11.7812V8.26562H98.7344V11.7812H102.5ZM117.406 4.3125C117.406 5.05208 117.643 5.77083 118.117 6.46875C118.591 7.16667 119.221 7.76302 120.008 8.25781C120.799 8.7474 121.641 9.07292 122.531 9.23438L121.844 10.4688C121.094 10.3073 120.378 10.0417 119.695 9.67188C119.013 9.30208 118.406 8.85156 117.875 8.32031C117.349 7.78385 116.938 7.19271 116.641 6.54688C116.339 7.1875 115.922 7.77604 115.391 8.3125C114.859 8.84375 114.253 9.29427 113.57 9.66406C112.888 10.0339 112.172 10.3021 111.422 10.4688L110.766 9.23438C111.646 9.06771 112.474 8.73958 113.25 8.25C114.031 7.75521 114.659 7.16146 115.133 6.46875C115.607 5.77083 115.844 5.05208 115.844 4.3125V3.25H117.406V4.3125ZM110.297 13.25H123.109V14.4844H110.297V13.25Z" fill="white"/>
<circle cx="179" cy="9.5" r="6.5" stroke="#1AA8BF"/>
<path d="M177.571 12.798L174.459 9.68616L175.083 9.06243L177.571 11.5506L182.917 6.2041L183.541 6.82783L177.571 12.798Z" fill="#1AA8BF"/>
<path d="M202.531 5.875H204.547V7.09375H202.531V10.5938H201.031V2.32812H202.531V5.875ZM192.109 3.35938H198.359V4.5625H193.578V8.375C195.036 8.36458 196.203 8.33073 197.078 8.27344C197.953 8.21094 198.812 8.09375 199.656 7.92188L199.797 9.125C198.901 9.30729 197.982 9.42969 197.039 9.49219C196.102 9.54948 194.828 9.57812 193.219 9.57812H192.109V3.35938ZM193.297 13.5781C193.297 13.0156 193.487 12.5312 193.867 12.125C194.247 11.7135 194.789 11.401 195.492 11.1875C196.201 10.9688 197.036 10.8594 198 10.8594C198.953 10.8594 199.776 10.9688 200.469 11.1875C201.167 11.401 201.703 11.7135 202.078 12.125C202.453 12.5312 202.641 13.0156 202.641 13.5781C202.641 14.1458 202.453 14.6328 202.078 15.0391C201.703 15.4505 201.167 15.763 200.469 15.9766C199.771 16.1901 198.948 16.2969 198 16.2969C197.036 16.2969 196.201 16.1901 195.492 15.9766C194.789 15.763 194.247 15.4505 193.867 15.0391C193.487 14.6328 193.297 14.1458 193.297 13.5781ZM194.766 13.5781C194.766 13.8958 194.891 14.1693 195.141 14.3984C195.396 14.6276 195.763 14.8047 196.242 14.9297C196.727 15.0495 197.299 15.1094 197.961 15.1094C198.628 15.1094 199.206 15.0495 199.695 14.9297C200.185 14.8099 200.56 14.6354 200.82 14.4062C201.086 14.1771 201.219 13.901 201.219 13.5781C201.219 13.2604 201.089 12.9896 200.828 12.7656C200.573 12.5365 200.206 12.362 199.727 12.2422C199.253 12.1224 198.69 12.0625 198.039 12.0625C197.008 12.0625 196.203 12.1953 195.625 12.4609C195.047 12.7214 194.76 13.0938 194.766 13.5781ZM209.312 2.79688C210.01 2.80208 210.638 2.9401 211.195 3.21094C211.753 3.47656 212.19 3.84635 212.508 4.32031C212.826 4.79427 212.984 5.33333 212.984 5.9375C212.984 6.54167 212.826 7.08073 212.508 7.55469C212.19 8.02865 211.753 8.39844 211.195 8.66406C210.638 8.92969 210.01 9.0625 209.312 9.0625C208.609 9.0625 207.977 8.92969 207.414 8.66406C206.857 8.39844 206.419 8.02865 206.102 7.55469C205.784 7.08073 205.625 6.54167 205.625 5.9375C205.625 5.33333 205.784 4.79427 206.102 4.32031C206.419 3.84635 206.857 3.47656 207.414 3.21094C207.977 2.9401 208.609 2.80208 209.312 2.79688ZM207.078 5.9375C207.078 6.31771 207.172 6.65365 207.359 6.94531C207.552 7.23177 207.818 7.45573 208.156 7.61719C208.5 7.77865 208.885 7.85938 209.312 7.85938C209.74 7.85938 210.122 7.77865 210.461 7.61719C210.799 7.45573 211.065 7.23177 211.258 6.94531C211.451 6.65365 211.547 6.31771 211.547 5.9375C211.547 5.5625 211.451 5.23177 211.258 4.94531C211.065 4.65365 210.797 4.42969 210.453 4.27344C210.115 4.11719 209.734 4.04167 209.312 4.04688C208.885 4.04167 208.5 4.11719 208.156 4.27344C207.818 4.42969 207.552 4.65365 207.359 4.94531C207.172 5.23177 207.078 5.5625 207.078 5.9375ZM207.75 10.0938H216.953V13.625H209.234V14.9688H217.422V16.1562H207.797V12.5156H215.484V11.2812H207.75V10.0938ZM215.469 2.32812H216.953V9.45312H215.469V2.32812ZM234.75 9.53125H233.266V5.9375H230.312V4.73438H233.266V2.32812H234.75V9.53125ZM223.031 8.40625C223.75 8.17708 224.372 7.84375 224.898 7.40625C225.424 6.96354 225.828 6.45052 226.109 5.86719C226.391 5.27865 226.531 4.65625 226.531 4V2.78125H228V4C228 4.59375 228.135 5.16406 228.406 5.71094C228.682 6.2526 229.076 6.73438 229.586 7.15625C230.096 7.57292 230.698 7.89062 231.391 8.10938L230.609 9.26562C229.849 9 229.182 8.61458 228.609 8.10938C228.042 7.60417 227.602 7.01562 227.289 6.34375C226.982 7.10938 226.531 7.77344 225.938 8.33594C225.349 8.89323 224.646 9.3125 223.828 9.59375L223.031 8.40625ZM225.594 10.1875H234.75V13.6719H227.078V14.9688H235.234V16.1562H225.625V12.5469H233.281V11.3594H225.594V10.1875ZM248.5 16.3281H247.016V2.32812H248.5V16.3281ZM237.109 12.5C237.818 12.1823 238.445 11.7266 238.992 11.1328C239.539 10.5391 239.964 9.86719 240.266 9.11719C240.568 8.36719 240.719 7.60417 240.719 6.82812V5.90625H237.531V4.71875H240.703V2.60938H242.172V4.71875H245.312V5.90625H242.172V6.82812C242.172 7.56771 242.326 8.29948 242.633 9.02344C242.94 9.74219 243.37 10.388 243.922 10.9609C244.479 11.5286 245.115 11.9635 245.828 12.2656L245.016 13.4062C244.214 13.0573 243.503 12.5391 242.883 11.8516C242.268 11.1589 241.797 10.3672 241.469 9.47656C241.151 10.4245 240.682 11.2656 240.062 12C239.448 12.7292 238.74 13.276 237.938 13.6406L237.109 12.5ZM265.547 7.90625H267.719V9.14062H265.547V16.3125H264.062V2.32812H265.547V7.90625ZM254.656 12.5781C256.406 11.7031 257.758 10.6354 258.711 9.375C259.669 8.11458 260.224 6.66667 260.375 5.03125H255.359V3.79688H261.891C261.88 5.93229 261.362 7.85156 260.336 9.55469C259.31 11.2526 257.693 12.6458 255.484 13.7344L254.656 12.5781ZM279.781 7.3125H270.172V2.57812H271.641V6.10938H279.781V7.3125ZM268.469 8.79688H281.25V10.0156H268.469V8.79688ZM269.984 13.7031C269.984 13.1615 270.177 12.7005 270.562 12.3203C270.948 11.9401 271.505 11.651 272.234 11.4531C272.964 11.2552 273.833 11.1562 274.844 11.1562C275.849 11.1562 276.711 11.2552 277.43 11.4531C278.154 11.651 278.708 11.9401 279.094 12.3203C279.479 12.7005 279.672 13.1615 279.672 13.7031C279.672 14.2448 279.479 14.7057 279.094 15.0859C278.708 15.4714 278.154 15.763 277.43 15.9609C276.711 16.1641 275.849 16.2656 274.844 16.2656C273.833 16.2656 272.964 16.1641 272.234 15.9609C271.505 15.763 270.948 15.4714 270.562 15.0859C270.177 14.7057 269.984 14.2448 269.984 13.7031ZM271.484 13.7031C271.479 14.151 271.768 14.5 272.352 14.75C272.94 14.9948 273.771 15.1198 274.844 15.125C275.901 15.1198 276.721 14.9948 277.305 14.75C277.893 14.5 278.188 14.151 278.188 13.7031C278.188 13.2552 277.896 12.9141 277.312 12.6797C276.734 12.4401 275.911 12.3177 274.844 12.3125C273.766 12.3177 272.935 12.4401 272.352 12.6797C271.768 12.9141 271.479 13.2552 271.484 13.7031Z" fill="white"/>
<circle cx="337" cy="9.5" r="6.5" stroke="#1AA8BF"/>
<path d="M335.571 12.798L332.459 9.68616L333.083 9.06243L335.571 11.5506L340.917 6.2041L341.541 6.82783L335.571 12.798Z" fill="#1AA8BF"/>
<path d="M350 13.75L353.922 9.79688C354.396 9.30729 354.758 8.91146 355.008 8.60938C355.258 8.30208 355.448 8.00521 355.578 7.71875C355.714 7.42708 355.781 7.11979 355.781 6.79688C355.781 6.43229 355.69 6.11198 355.508 5.83594C355.326 5.5599 355.076 5.34635 354.758 5.19531C354.44 5.04427 354.083 4.96875 353.688 4.96875C353.271 4.96875 352.906 5.05208 352.594 5.21875C352.286 5.38542 352.047 5.61979 351.875 5.92188C351.708 6.21875 351.625 6.56771 351.625 6.96875H350C349.995 6.29167 350.151 5.69271 350.469 5.17188C350.786 4.65104 351.229 4.2474 351.797 3.96094C352.365 3.67448 353.005 3.53125 353.719 3.53125C354.432 3.53125 355.068 3.67188 355.625 3.95312C356.188 4.22917 356.625 4.61198 356.938 5.10156C357.255 5.59115 357.417 6.14062 357.422 6.75C357.417 7.18229 357.333 7.59896 357.172 8C357.01 8.39583 356.734 8.83854 356.344 9.32812C355.953 9.8125 355.401 10.4062 354.688 11.1094L352.391 13.4375V13.5312H357.609V15H350V13.75ZM370.703 12.6875H369.219V7.92188H365.375V6.73438H369.219V5.26562H365.375V4.07812H369.219V2.34375H370.703V12.6875ZM359.859 3.3125H361.328V9.4375C362.344 9.43229 363.299 9.39583 364.195 9.32812C365.091 9.25521 366.01 9.13021 366.953 8.95312L367.109 10.1719C366.083 10.3646 365.089 10.4974 364.125 10.5703C363.167 10.638 362.104 10.6771 360.938 10.6875H359.859V3.3125ZM361.578 11.7812H363.078V14.8281H371.062V16.0312H361.578V11.7812ZM389.531 10.2188H383.875V11.7188H387.969V16.1562H378.297V11.7188H382.406V10.2188H376.766V9.03125H389.531V10.2188ZM377.938 2.76562H388.328V3.96875H386.297V6.64062H388.266V7.84375H378V6.64062H379.984V3.96875H377.938V2.76562ZM386.531 14.9531V12.8906H379.766V14.9531H386.531ZM384.812 6.64062V3.96875H381.453V6.64062H384.812ZM402.188 9.5625H400.719V2.32812H402.188V9.5625ZM390.75 8.45312C391.464 8.23438 392.086 7.91406 392.617 7.49219C393.148 7.0651 393.557 6.57552 393.844 6.02344C394.135 5.46615 394.281 4.88542 394.281 4.28125H391.141V3.07812H398.859V4.28125H395.781C395.781 4.84896 395.922 5.39323 396.203 5.91406C396.49 6.4349 396.898 6.89323 397.43 7.28906C397.961 7.6849 398.583 7.98438 399.297 8.1875L398.578 9.32812C397.76 9.08333 397.049 8.71094 396.445 8.21094C395.841 7.71094 395.378 7.11979 395.055 6.4375C394.742 7.1875 394.273 7.84115 393.648 8.39844C393.029 8.95052 392.292 9.35938 391.438 9.625L390.75 8.45312ZM393 10.2031H402.203V13.6719H394.484V15.0312H402.672V16.1875H393.047V12.5938H400.734V11.3438H393V10.2031ZM421.141 14.5938H408.328V13.3594H413.969V10.4844H409.797V3.28125H411.281V5.6875H418.156V3.28125H419.625V10.4844H415.438V13.3594H421.141V14.5938ZM418.156 9.28125V6.89062H411.281V9.28125H418.156ZM434.922 10.125H422.156V8.92188H434.922V10.125ZM422.828 7.01562C423.667 6.92708 424.435 6.75 425.133 6.48438C425.831 6.21354 426.393 5.88281 426.82 5.49219C427.247 5.10156 427.487 4.68229 427.539 4.23438H423.328V3.01562H433.781V4.23438H429.523C429.581 4.68229 429.82 5.10156 430.242 5.49219C430.669 5.88281 431.232 6.21354 431.93 6.48438C432.633 6.75 433.411 6.92708 434.266 7.01562L433.734 8.1875C432.922 8.09375 432.167 7.92188 431.469 7.67188C430.776 7.41667 430.177 7.09635 429.672 6.71094C429.167 6.32552 428.789 5.89062 428.539 5.40625C428.284 5.89062 427.904 6.32552 427.398 6.71094C426.893 7.09635 426.292 7.41667 425.594 7.67188C424.901 7.92188 424.151 8.09375 423.344 8.1875L422.828 7.01562ZM423.672 13.7656C423.672 13.2292 423.865 12.7682 424.25 12.3828C424.635 11.9974 425.193 11.7057 425.922 11.5078C426.651 11.3047 427.521 11.2031 428.531 11.2031C429.531 11.2031 430.393 11.3047 431.117 11.5078C431.841 11.7057 432.396 11.9974 432.781 12.3828C433.167 12.7682 433.359 13.2292 433.359 13.7656C433.359 14.3021 433.167 14.7604 432.781 15.1406C432.396 15.5208 431.841 15.8073 431.117 16C430.398 16.1979 429.536 16.2969 428.531 16.2969C427.521 16.2969 426.651 16.1979 425.922 16C425.193 15.8073 424.635 15.5208 424.25 15.1406C423.865 14.7604 423.672 14.3021 423.672 13.7656ZM425.172 13.7656C425.167 14.2031 425.451 14.5391 426.023 14.7734C426.602 15.0078 427.419 15.125 428.477 15.125C429.56 15.125 430.396 15.0104 430.984 14.7812C431.578 14.5469 431.875 14.2083 431.875 13.7656C431.875 13.3177 431.583 12.974 431 12.7344C430.422 12.4948 429.599 12.3698 428.531 12.3594C427.453 12.3698 426.622 12.4948 426.039 12.7344C425.456 12.974 425.167 13.3177 425.172 13.7656Z" fill="white"/>
</svg>
