<svg width="179" height="42" viewBox="0 0 179 42" fill="none" xmlns="http://www.w3.org/2000/svg">
<rect x="0.75" y="0.75" width="177.5" height="40.5" rx="20.25" stroke="white" stroke-width="1.5"/>
<path d="M33.6562 28.3906H31.9844V14.2656H33.6562V28.3906ZM21.6094 20.375C21.6094 19.349 21.7344 18.4583 21.9844 17.7031C22.2344 16.9427 22.5885 16.3594 23.0469 15.9531C23.5104 15.5469 24.0469 15.3438 24.6562 15.3438C25.224 15.3438 25.7266 15.513 26.1641 15.8516C26.6068 16.1901 26.9609 16.6771 27.2266 17.3125C27.4974 17.9479 27.6667 18.7031 27.7344 19.5781H29.0938V14.5156H30.75V27.7031H29.0938V20.9844H27.75C27.6979 21.8958 27.5365 22.6875 27.2656 23.3594C27 24.026 26.6432 24.5365 26.1953 24.8906C25.7474 25.2448 25.2344 25.4219 24.6562 25.4219C24.0469 25.4219 23.5104 25.2188 23.0469 24.8125C22.5885 24.4062 22.2344 23.8229 21.9844 23.0625C21.7344 22.2969 21.6094 21.401 21.6094 20.375ZM23.2188 20.4219C23.2188 21.5 23.3438 22.3281 23.5938 22.9062C23.849 23.4844 24.2031 23.7708 24.6562 23.7656C25.1302 23.7708 25.4974 23.4818 25.7578 22.8984C26.0182 22.3151 26.151 21.474 26.1562 20.375C26.151 19.2812 26.0182 18.4427 25.7578 17.8594C25.4974 17.2708 25.1302 16.9792 24.6562 16.9844C24.1979 16.9792 23.8438 17.2734 23.5938 17.8672C23.3438 18.4609 23.2188 19.3125 23.2188 20.4219ZM39.1562 15.2969C39.7865 15.2969 40.3568 15.4661 40.8672 15.8047C41.3776 16.1432 41.7943 16.6276 42.1172 17.2578C42.4401 17.8828 42.6432 18.6198 42.7266 19.4688H45.4219V14.2656H47.1406V28.4062H45.4219V20.875H42.7422C42.6797 21.7708 42.4896 22.5521 42.1719 23.2188C41.8542 23.8802 41.4349 24.3906 40.9141 24.75C40.3932 25.1042 39.8073 25.2812 39.1562 25.2812C38.4479 25.2812 37.8177 25.0781 37.2656 24.6719C36.7188 24.2604 36.2917 23.6771 35.9844 22.9219C35.6823 22.1667 35.5312 21.2865 35.5312 20.2812C35.5312 19.2812 35.6823 18.4062 35.9844 17.6562C36.2917 16.901 36.7214 16.3203 37.2734 15.9141C37.8255 15.5026 38.4531 15.2969 39.1562 15.2969ZM37.2031 20.2812C37.2031 20.9948 37.2839 21.6094 37.4453 22.125C37.6068 22.6406 37.8333 23.0339 38.125 23.3047C38.4219 23.5755 38.7656 23.7135 39.1562 23.7188C39.5469 23.7135 39.8906 23.5755 40.1875 23.3047C40.4844 23.0339 40.7135 22.6406 40.875 22.125C41.0417 21.6094 41.125 20.9948 41.125 20.2812C41.125 19.5729 41.0417 18.9609 40.875 18.4453C40.7135 17.9297 40.4844 17.5365 40.1875 17.2656C39.8906 16.9948 39.5469 16.8594 39.1562 16.8594C38.7656 16.8594 38.4219 16.9974 38.125 17.2734C37.8333 17.5443 37.6068 17.9375 37.4453 18.4531C37.2839 18.9635 37.2031 19.5729 37.2031 20.2812ZM56.5312 15.3594C56.5312 16.6771 56.3151 17.8464 55.8828 18.8672C55.4557 19.8828 54.7656 20.7734 53.8125 21.5391C52.8646 22.3047 51.6198 22.9375 50.0781 23.4375L49.4062 22.0781C50.4688 21.7344 51.3542 21.3359 52.0625 20.8828C52.776 20.4297 53.3385 19.9193 53.75 19.3516L49.6406 19.6875L49.375 18.3125L54.4062 18.1094C54.5521 17.6979 54.6484 17.25 54.6953 16.7656H50.0938V15.3594H56.5312ZM51.7969 23.6875H53.5469V26.7031H61.3281V28.1094H51.7969V23.6875ZM56.4688 18.625H59.2188V14.2812H60.9531V24.7188H59.2188V20.0469H56.4688V18.625ZM78.5781 21.5H76.8438V17.9219H74.0312V16.5312H76.8438V14.2656H78.5781V21.5ZM66.6719 20.1875C67.4115 19.9635 68.0391 19.6354 68.5547 19.2031C69.0755 18.7656 69.4661 18.2604 69.7266 17.6875C69.9922 17.1094 70.125 16.5 70.125 15.8594V14.7344H71.875V15.8594C71.8698 16.4479 71.9948 17.0104 72.25 17.5469C72.5052 18.0833 72.8828 18.5599 73.3828 18.9766C73.8828 19.388 74.4896 19.7031 75.2031 19.9219L74.2812 21.2656C73.526 21.0156 72.8724 20.651 72.3203 20.1719C71.7682 19.6927 71.3333 19.1276 71.0156 18.4766C70.7031 19.2057 70.2552 19.8385 69.6719 20.375C69.0938 20.9062 68.3958 21.3073 67.5781 21.5781L66.6719 20.1875ZM69.2812 22.1094H78.5781V25.7656H71V26.8438H79.0312V28.2188H69.2969V24.4688H76.8594V23.4688H69.2812V22.1094ZM92.3125 28.3906H90.5781V14.2656H92.3125V28.3906ZM80.7188 24.375C81.4479 24.0521 82.0807 23.5938 82.6172 23C83.1536 22.4062 83.5625 21.7396 83.8438 21C84.125 20.2604 84.2656 19.5104 84.2656 18.75V18.0156H81.1562V16.625H84.2656V14.5625H85.9844V16.625H89.0312V18.0156H86V18.75C85.9948 19.474 86.1354 20.1927 86.4219 20.9062C86.7083 21.6198 87.1224 22.263 87.6641 22.8359C88.2109 23.4089 88.8542 23.849 89.5938 24.1562L88.6406 25.4844C87.8438 25.1458 87.1458 24.6458 86.5469 23.9844C85.9479 23.3229 85.4844 22.5573 85.1562 21.6875C84.8333 22.6094 84.3698 23.4245 83.7656 24.1328C83.1667 24.8359 82.4635 25.3646 81.6562 25.7188L80.7188 24.375ZM110.031 24.5938H108.297V19.4219H105.797V18.0156H108.297V14.2812H110.031V24.5938ZM98.1719 21.5469C98.901 21.3073 99.526 20.9583 100.047 20.5C100.568 20.0365 100.961 19.5104 101.227 18.9219C101.492 18.3281 101.625 17.7135 101.625 17.0781V16.7031H98.6875V15.2969H106.312V16.7031H103.391V17.0938C103.391 17.6719 103.518 18.237 103.773 18.7891C104.029 19.3359 104.406 19.8281 104.906 20.2656C105.406 20.6979 106.01 21.0312 106.719 21.2656L105.844 22.6562C105.073 22.3906 104.406 22.0052 103.844 21.5C103.286 20.9896 102.849 20.3906 102.531 19.7031C102.214 20.4635 101.76 21.125 101.172 21.6875C100.583 22.25 99.8802 22.6719 99.0625 22.9531L98.1719 21.5469ZM100.766 23.6875H102.5V26.7031H110.391V28.1094H100.766V23.6875ZM124.922 22.7188H119.469V25.3125H117.75V22.7188H112.016V21.3281H124.922V22.7188ZM113.578 24.0156H115.312V26.7031H123.5V28.1094H113.578V24.0156ZM113.656 14.9062H123.266V20.0156H113.656V14.9062ZM121.547 18.6562V16.2656H115.344V18.6562H121.547ZM141.453 28.3906H139.703V14.2656H141.453V28.3906ZM129.75 24.5C131.573 23.6354 132.94 22.6016 133.852 21.3984C134.768 20.1953 135.307 18.776 135.469 17.1406H130.469V15.7656H137.234C137.234 18.0104 136.727 19.9792 135.711 21.6719C134.695 23.3646 133.01 24.7708 130.656 25.8906L129.75 24.5ZM147.406 14.8906C148.01 14.8906 148.565 15 149.07 15.2188C149.576 15.4323 149.997 15.737 150.336 16.1328C150.68 16.5234 150.909 16.974 151.023 17.4844H153.578V14.2656H155.312V21.8438H153.578V18.8906H151.039C150.93 19.4167 150.703 19.8802 150.359 20.2812C150.021 20.6823 149.596 20.9948 149.086 21.2188C148.576 21.4375 148.016 21.5469 147.406 21.5469C146.693 21.5469 146.052 21.4036 145.484 21.1172C144.917 20.8307 144.471 20.4349 144.148 19.9297C143.831 19.4193 143.672 18.8438 143.672 18.2031C143.672 17.5677 143.831 16.9974 144.148 16.4922C144.471 15.987 144.917 15.5938 145.484 15.3125C146.052 15.0312 146.693 14.8906 147.406 14.8906ZM145.328 18.2031C145.328 18.5729 145.417 18.901 145.594 19.1875C145.771 19.474 146.016 19.6953 146.328 19.8516C146.646 20.0026 147.005 20.0781 147.406 20.0781C147.797 20.0781 148.146 20.0026 148.453 19.8516C148.766 19.6953 149.01 19.474 149.188 19.1875C149.365 18.901 149.453 18.5729 149.453 18.2031C149.453 17.8333 149.365 17.5078 149.188 17.2266C149.01 16.9401 148.768 16.7214 148.461 16.5703C148.154 16.4193 147.802 16.3438 147.406 16.3438C147 16.3438 146.641 16.4193 146.328 16.5703C146.016 16.7214 145.771 16.9401 145.594 17.2266C145.417 17.5078 145.328 17.8333 145.328 18.2031ZM146 22.5H147.719V24H153.578V22.5H155.312V28.2188H146V22.5ZM153.578 26.8125V25.3438H147.719V26.8125H153.578Z" fill="#1DB8CE"/>
</svg>
