<svg width="1103" height="267" viewBox="0 0 1103 267" fill="none" xmlns="http://www.w3.org/2000/svg">
<path d="M287.922 47.125H279.062V41.9219H287.922V33.0625H293.078V41.9219H301.984V47.125H293.078V55.9844H287.922V47.125Z" fill="#1DB8CE"/>
<path d="M85.7492 65H75.7219V26.418H75.4563L64.4328 33.3242V24.4922L76.3195 16.9219H85.7492V65ZM112.846 65.6641C108.839 65.6641 105.386 64.7012 102.486 62.7754C99.5865 60.8275 97.3619 58.0052 95.8124 54.3086C94.2851 50.612 93.5214 46.1628 93.5214 40.9609C93.5214 35.7812 94.2961 31.3431 95.8456 27.6465C97.3951 23.9277 99.6197 21.1055 102.519 19.1797C105.419 17.2318 108.861 16.2578 112.846 16.2578C116.83 16.2578 120.272 17.2318 123.172 19.1797C126.072 21.1055 128.296 23.9277 129.846 27.6465C131.395 31.3431 132.17 35.7812 132.17 40.9609C132.17 46.1849 131.395 50.6452 129.846 54.3418C128.296 58.0384 126.072 60.8496 123.172 62.7754C120.294 64.7012 116.852 65.6641 112.846 65.6641ZM103.748 41.2598C103.748 46.5723 104.556 50.6009 106.172 53.3457C107.788 56.0684 110.012 57.4297 112.846 57.4297C115.701 57.4297 117.937 56.0462 119.553 53.2793C121.169 50.4902 121.965 46.3841 121.943 40.9609C121.943 37.375 121.578 34.3535 120.848 31.8965C120.117 29.4173 119.066 27.5579 117.693 26.3184C116.321 25.0788 114.705 24.4479 112.846 24.4258C109.99 24.4479 107.754 25.8867 106.139 28.7422C104.545 31.5977 103.748 35.7702 103.748 41.2598ZM139.477 79.0117H132.438L135.758 60.0859H145.188L139.477 79.0117ZM167.968 65.6641C163.962 65.6641 160.508 64.7012 157.609 62.7754C154.709 60.8275 152.484 58.0052 150.935 54.3086C149.408 50.612 148.644 46.1628 148.644 40.9609C148.644 35.7812 149.419 31.3431 150.968 27.6465C152.518 23.9277 154.742 21.1055 157.642 19.1797C160.542 17.2318 163.984 16.2578 167.968 16.2578C171.952 16.2578 175.395 17.2318 178.294 19.1797C181.194 21.1055 183.419 23.9277 184.968 27.6465C186.518 31.3431 187.292 35.7812 187.292 40.9609C187.292 46.1849 186.518 50.6452 184.968 54.3418C183.419 58.0384 181.194 60.8496 178.294 62.7754C175.417 64.7012 171.975 65.6641 167.968 65.6641ZM158.87 41.2598C158.87 46.5723 159.678 50.6009 161.294 53.3457C162.91 56.0684 165.135 57.4297 167.968 57.4297C170.824 57.4297 173.059 56.0462 174.675 53.2793C176.291 50.4902 177.088 46.3841 177.066 40.9609C177.066 37.375 176.701 34.3535 175.97 31.8965C175.24 29.4173 174.188 27.5579 172.816 26.3184C171.443 25.0788 169.827 24.4479 167.968 24.4258C165.113 24.4479 162.877 25.8867 161.261 28.7422C159.667 31.5977 158.87 35.7702 158.87 41.2598ZM210.139 65.6641C206.132 65.6641 202.679 64.7012 199.779 62.7754C196.88 60.8275 194.655 58.0052 193.106 54.3086C191.578 50.612 190.815 46.1628 190.815 40.9609C190.815 35.7812 191.589 31.3431 193.139 27.6465C194.688 23.9277 196.913 21.1055 199.813 19.1797C202.712 17.2318 206.154 16.2578 210.139 16.2578C214.123 16.2578 217.565 17.2318 220.465 19.1797C223.365 21.1055 225.589 23.9277 227.139 27.6465C228.688 31.3431 229.463 35.7812 229.463 40.9609C229.463 46.1849 228.688 50.6452 227.139 54.3418C225.589 58.0384 223.365 60.8496 220.465 62.7754C217.587 64.7012 214.145 65.6641 210.139 65.6641ZM201.041 41.2598C201.041 46.5723 201.849 50.6009 203.465 53.3457C205.081 56.0684 207.305 57.4297 210.139 57.4297C212.994 57.4297 215.23 56.0462 216.846 53.2793C218.462 50.4902 219.259 46.3841 219.236 40.9609C219.236 37.375 218.871 34.3535 218.141 31.8965C217.41 29.4173 216.359 27.5579 214.986 26.3184C213.614 25.0788 211.998 24.4479 210.139 24.4258C207.283 24.4479 205.048 25.8867 203.432 28.7422C201.838 31.5977 201.041 35.7702 201.041 41.2598ZM252.309 65.6641C248.303 65.6641 244.85 64.7012 241.95 62.7754C239.05 60.8275 236.826 58.0052 235.276 54.3086C233.749 50.612 232.985 46.1628 232.985 40.9609C232.985 35.7812 233.76 31.3431 235.309 27.6465C236.859 23.9277 239.083 21.1055 241.983 19.1797C244.883 17.2318 248.325 16.2578 252.309 16.2578C256.294 16.2578 259.736 17.2318 262.636 19.1797C265.535 21.1055 267.76 23.9277 269.309 27.6465C270.859 31.3431 271.634 35.7812 271.634 40.9609C271.634 46.1849 270.859 50.6452 269.309 54.3418C267.76 58.0384 265.535 60.8496 262.636 62.7754C259.758 64.7012 256.316 65.6641 252.309 65.6641ZM243.212 41.2598C243.212 46.5723 244.02 50.6009 245.636 53.3457C247.251 56.0684 249.476 57.4297 252.309 57.4297C255.165 57.4297 257.401 56.0462 259.016 53.2793C260.632 50.4902 261.429 46.3841 261.407 40.9609C261.407 37.375 261.042 34.3535 260.311 31.8965C259.581 29.4173 258.529 27.5579 257.157 26.3184C255.785 25.0788 254.169 24.4479 252.309 24.4258C249.454 24.4479 247.218 25.8867 245.602 28.7422C244.009 31.5977 243.212 35.7702 243.212 41.2598Z" fill="white"/>
<path d="M142.113 100.582H129.574V93.8242H132.074V98.5898H142.113V100.582ZM127.562 102.613H143.832V104.645H136.859V110.797H134.359V104.645H127.562V102.613ZM155.102 95.9922H151.566C151.573 96.7148 151.723 97.4147 152.016 98.0918C152.315 98.7624 152.771 99.3678 153.383 99.9082C153.995 100.449 154.75 100.868 155.648 101.168L154.418 103.082C153.467 102.783 152.647 102.333 151.957 101.734C151.267 101.129 150.723 100.413 150.326 99.5859C149.916 100.504 149.35 101.298 148.627 101.969C147.904 102.633 147.035 103.128 146.02 103.453L144.75 101.48C145.688 101.181 146.475 100.745 147.113 100.172C147.751 99.599 148.227 98.9512 148.539 98.2285C148.858 97.4993 149.021 96.7539 149.027 95.9922H145.453V94.0195H155.102V95.9922ZM147.621 104.391H159.828V110.797H157.348V106.383H147.621V104.391ZM154.594 97.3008H157.348V93.0234H159.828V103.609H157.348V99.332H154.594V97.3008ZM173.656 97.0469C173.65 98.1602 173.816 99.2344 174.154 100.27C174.493 101.305 175.001 102.226 175.678 103.033C176.355 103.84 177.178 104.449 178.148 104.859L176.684 106.852C175.694 106.402 174.841 105.758 174.125 104.918C173.415 104.078 172.852 103.092 172.436 101.959C172.025 103.196 171.449 104.273 170.707 105.191C169.965 106.103 169.066 106.799 168.012 107.281L166.508 105.211C167.51 104.788 168.357 104.16 169.047 103.326C169.743 102.486 170.264 101.526 170.609 100.445C170.954 99.3581 171.13 98.2253 171.137 97.0469V94.3906H173.656V97.0469ZM179.105 93.0234H181.625V110.836H179.105V93.0234ZM192.035 104.098C193.331 104.098 194.454 104.231 195.404 104.498C196.355 104.758 197.087 105.143 197.602 105.65C198.116 106.152 198.376 106.754 198.383 107.457C198.376 108.147 198.116 108.743 197.602 109.244C197.087 109.752 196.352 110.136 195.395 110.396C194.444 110.663 193.324 110.797 192.035 110.797C190.753 110.797 189.633 110.663 188.676 110.396C187.725 110.136 186.993 109.752 186.479 109.244C185.964 108.743 185.707 108.147 185.707 107.457C185.707 106.754 185.964 106.152 186.479 105.65C186.993 105.143 187.725 104.758 188.676 104.498C189.633 104.231 190.753 104.098 192.035 104.098ZM184.066 100.953H190.121V97.8477H192.582V100.953H200.199V102.965H184.066V100.953ZM185.883 93.8242H198.285V95.2695V95.7871C198.285 96.5684 198.253 97.291 198.188 97.9551C198.122 98.6191 197.986 99.3125 197.777 100.035L195.336 99.8008C195.518 99.0716 195.639 98.4076 195.697 97.8086C195.756 97.2031 195.792 96.526 195.805 95.7773H185.883V93.8242ZM188.188 107.457C188.181 107.932 188.51 108.294 189.174 108.541C189.844 108.782 190.798 108.902 192.035 108.902C193.272 108.902 194.226 108.782 194.896 108.541C195.567 108.294 195.902 107.932 195.902 107.457C195.902 106.969 195.57 106.598 194.906 106.344C194.249 106.083 193.314 105.953 192.104 105.953C190.84 105.953 189.87 106.08 189.193 106.334C188.516 106.588 188.181 106.962 188.188 107.457ZM220.902 106.031H218.422V100.23H215.238V98.1797H218.422V93.043H220.902V106.031ZM206.156 102.281C207.38 101.897 208.454 101.412 209.379 100.826C210.303 100.234 211.046 99.5632 211.605 98.8145C212.172 98.0592 212.53 97.2487 212.68 96.3828H207.074V94.3516H215.395C215.395 95.9271 215.069 97.3659 214.418 98.668C213.773 99.9635 212.836 101.087 211.605 102.037C210.382 102.981 208.904 103.72 207.172 104.254L206.156 102.281ZM209.184 104.723H211.723V108.492H221.352V110.484H209.184V104.723ZM232.641 94.4102C232.634 95.1328 232.872 95.8424 233.354 96.5391C233.842 97.2292 234.555 97.8281 235.492 98.3359C236.43 98.8372 237.549 99.1693 238.852 99.332L237.875 101.344C236.352 101.122 235.027 100.68 233.9 100.016C232.781 99.3451 231.924 98.5182 231.332 97.5352C230.733 98.5182 229.874 99.3451 228.754 100.016C227.641 100.68 226.332 101.122 224.828 101.344L223.832 99.332C225.121 99.1693 226.231 98.8372 227.162 98.3359C228.1 97.8281 228.809 97.2292 229.291 96.5391C229.773 95.8424 230.017 95.1328 230.023 94.4102V93.5508H232.641V94.4102ZM223.207 102.691H239.418V104.723H232.504V110.797H230.043V104.723H223.207V102.691Z" fill="#C8C8C8"/>
<path d="M619.357 47.7969H614.893V37.3203H606.947V33.8047H614.893V31.3438H606.947V27.8281H614.893V24.2773H619.357V47.7969ZM594.186 26.2812H598.615V39.957C600.713 39.9336 602.693 39.8457 604.557 39.6934C606.42 39.5293 608.295 39.2773 610.182 38.9375L610.639 42.5586C608.424 42.9805 606.238 43.2676 604.082 43.4199C601.938 43.5605 599.494 43.6367 596.752 43.6484H594.186V26.2812ZM598.088 45.6875H602.588V52.0859H620.131V55.6719H598.088V45.6875Z" fill="#1DB8CE"/>
<path d="M509.01 57.7617L526.276 41.8906C527.98 40.2526 529.298 38.9023 530.227 37.8398C531.179 36.7552 531.909 35.6816 532.419 34.6191C532.928 33.5345 533.182 32.3724 533.182 31.1328C533.182 29.7383 532.85 28.5208 532.186 27.4805C531.544 26.418 530.637 25.61 529.464 25.0566C528.312 24.5033 527.006 24.2266 525.546 24.2266C523.266 24.2044 521.45 24.8685 520.1 26.2188C518.75 27.5469 518.086 29.362 518.108 31.6641H508.612C508.612 28.5872 509.32 25.8867 510.737 23.5625C512.176 21.2161 514.179 19.4121 516.747 18.1504C519.337 16.8887 522.314 16.2578 525.678 16.2578C529.065 16.2578 532.053 16.8665 534.643 18.084C537.233 19.2793 539.236 20.9505 540.653 23.0977C542.092 25.2448 542.811 27.7018 542.811 30.4688C542.811 32.3724 542.446 34.1986 541.715 35.9473C540.985 37.6738 539.712 39.5996 537.897 41.7246C536.104 43.8496 533.559 46.4062 530.26 49.3945L522.956 56.5V56.7656H543.475V65H509.077L509.01 57.7617ZM565.525 65.6641C562.227 65.6641 559.249 65.0553 556.593 63.8379C553.959 62.6204 551.878 60.9382 550.351 58.791C548.824 56.6217 548.038 54.1758 547.994 51.4531H557.689C557.755 52.6706 558.143 53.7663 558.851 54.7402C559.581 55.6921 560.522 56.4336 561.673 56.9648C562.846 57.4961 564.13 57.7617 565.525 57.7617C567.163 57.7617 568.624 57.4076 569.908 56.6992C571.214 55.9688 572.221 54.9616 572.929 53.6777C573.66 52.3939 574.025 50.9219 574.025 49.2617C574.025 47.5794 573.66 46.0853 572.929 44.7793C572.199 43.4512 571.169 42.4219 569.841 41.6914C568.535 40.9388 567.052 40.5625 565.392 40.5625C561.784 40.5625 559.26 41.9128 557.822 44.6133H548.79L551.38 16.9219H580.997V25.0898H559.615L558.286 37.2422H558.685C559.57 36.0247 560.887 35.0508 562.636 34.3203C564.385 33.5677 566.3 33.1914 568.38 33.1914C571.28 33.1914 573.892 33.8665 576.216 35.2168C578.563 36.5671 580.4 38.4486 581.728 40.8613C583.056 43.2741 583.72 45.9857 583.72 48.9961C583.72 52.2057 582.956 55.0833 581.429 57.6289C579.902 60.1523 577.755 62.1224 574.988 63.5391C572.243 64.9557 569.089 65.6641 565.525 65.6641Z" fill="white"/>
<path d="M532.613 93.7852C533.355 93.7786 534.042 93.9089 534.674 94.1758C535.312 94.4427 535.846 94.8171 536.275 95.2988C536.712 95.7806 537.011 96.3372 537.174 96.9688H540.152V93.0234H542.633V102.574H540.152V98.9609H537.184C537.034 99.6055 536.741 100.178 536.305 100.68C535.875 101.174 535.341 101.559 534.703 101.832C534.065 102.105 533.368 102.242 532.613 102.242C531.715 102.242 530.904 102.06 530.182 101.695C529.459 101.331 528.893 100.826 528.482 100.182C528.079 99.5306 527.88 98.7982 527.887 97.9844C527.88 97.1836 528.079 96.4642 528.482 95.8262C528.893 95.1816 529.459 94.6803 530.182 94.3223C530.904 93.9577 531.715 93.7786 532.613 93.7852ZM530.25 97.9844C530.25 98.4206 530.348 98.8047 530.543 99.1367C530.745 99.4622 531.025 99.7129 531.383 99.8887C531.741 100.064 532.151 100.152 532.613 100.152C533.062 100.152 533.463 100.064 533.814 99.8887C534.166 99.7064 534.439 99.4525 534.635 99.127C534.837 98.8014 534.938 98.4206 534.938 97.9844C534.938 97.5482 534.837 97.1706 534.635 96.8516C534.439 96.526 534.166 96.2786 533.814 96.1094C533.463 95.9401 533.062 95.8555 532.613 95.8555C532.151 95.8555 531.741 95.9401 531.383 96.1094C531.025 96.2786 530.745 96.526 530.543 96.8516C530.348 97.1706 530.25 97.5482 530.25 97.9844ZM530.777 103.355H533.238V105.074H540.152V103.355H542.633V110.602H530.777V103.355ZM540.152 108.59V106.988H533.238V108.59H540.152ZM560.348 110.797H558.004V93.0234H560.348V110.797ZM544.664 105.348C546.435 104.306 547.753 103.124 548.619 101.803C549.492 100.475 550.016 98.9219 550.191 97.1445H545.699V95.1328H552.672C552.672 95.9987 552.617 96.8581 552.506 97.7109H554.273V93.4141H556.637V110.016H554.273V104.156H551.754V102.145H554.273V99.7227H552.096C551.666 101.24 550.966 102.61 549.996 103.834C549.033 105.051 547.743 106.142 546.129 107.105L544.664 105.348ZM581.812 103.277H579.332V101.539H575.328V99.5469H579.332V97.8477H575.514C574.4 100.66 571.884 102.6 567.965 103.668L566.988 101.695C568.974 101.174 570.497 100.449 571.559 99.5176C572.626 98.5801 573.251 97.4831 573.434 96.2266H567.945V94.2344H576.148C576.148 94.8333 576.106 95.3867 576.021 95.8945H579.332V93.043H581.812V103.277ZM569.82 107.086C569.82 106.363 570.071 105.732 570.572 105.191C571.074 104.651 571.783 104.234 572.701 103.941C573.619 103.642 574.684 103.492 575.895 103.492C577.092 103.492 578.147 103.642 579.059 103.941C579.97 104.234 580.68 104.651 581.188 105.191C581.695 105.732 581.949 106.363 581.949 107.086C581.949 107.815 581.695 108.453 581.188 109C580.68 109.553 579.967 109.977 579.049 110.27C578.137 110.569 577.086 110.719 575.895 110.719C574.684 110.719 573.619 110.569 572.701 110.27C571.783 109.977 571.074 109.557 570.572 109.01C570.071 108.463 569.82 107.822 569.82 107.086ZM572.301 107.086C572.301 107.633 572.613 108.046 573.238 108.326C573.863 108.606 574.749 108.746 575.895 108.746C577.014 108.746 577.883 108.606 578.502 108.326C579.127 108.04 579.443 107.626 579.449 107.086C579.443 106.546 579.127 106.135 578.502 105.855C577.883 105.569 577.014 105.432 575.895 105.445C574.755 105.432 573.87 105.569 573.238 105.855C572.613 106.135 572.301 106.546 572.301 107.086ZM592.652 99.6055H587.281V101.5C588.648 101.5 589.775 101.471 590.66 101.412C591.546 101.347 592.424 101.233 593.297 101.07L593.531 103.062C592.555 103.238 591.549 103.352 590.514 103.404C589.485 103.456 588.03 103.486 586.148 103.492H584.82V97.75H590.152V96.0117H584.781V94.0586H592.652V99.6055ZM586.852 104.781H599.098V110.797H596.617V106.773H586.852V104.781ZM593.668 99.2734H596.617V97.4766H593.668V95.5039H596.617V93.043H599.098V103.98H596.617V101.246H593.668V99.2734Z" fill="#C8C8C8"/>
<path d="M980.859 40.6875C979.755 40.6875 978.807 40.4375 978.016 39.9375C977.234 39.4271 976.641 38.7188 976.234 37.8125C975.839 36.9062 975.641 35.8542 975.641 34.6562C975.641 33.4583 975.849 32.4062 976.266 31.5C976.682 30.5833 977.281 29.8698 978.062 29.3594C978.844 28.849 979.776 28.5938 980.859 28.5938C981.964 28.5938 982.906 28.849 983.688 29.3594C984.469 29.8594 985.057 30.5677 985.453 31.4844C985.859 32.3906 986.068 33.4479 986.078 34.6562C986.068 35.8646 985.859 36.9219 985.453 37.8281C985.047 38.7344 984.453 39.4375 983.672 39.9375C982.891 40.4375 981.953 40.6875 980.859 40.6875ZM978.828 34.6562C978.839 35.6562 979.016 36.4479 979.359 37.0312C979.714 37.6042 980.214 37.8958 980.859 37.9062C981.516 37.8958 982.016 37.6042 982.359 37.0312C982.703 36.4479 982.88 35.6562 982.891 34.6562C982.88 33.6354 982.708 32.8333 982.375 32.25C982.042 31.6667 981.536 31.375 980.859 31.375C980.214 31.3854 979.714 31.6875 979.359 32.2812C979.016 32.875 978.839 33.6667 978.828 34.6562ZM994.453 29.375H997.953L982.391 52H978.891L994.453 29.375ZM990.922 46.7188C990.922 45.5208 991.125 44.4688 991.531 43.5625C991.948 42.6458 992.547 41.9323 993.328 41.4219C994.109 40.9115 995.036 40.6562 996.109 40.6562C997.224 40.6562 998.172 40.9115 998.953 41.4219C999.745 41.9323 1000.34 42.6406 1000.73 43.5469C1001.14 44.4531 1001.35 45.5104 1001.36 46.7188C1001.35 47.9271 1001.14 48.9844 1000.73 49.8906C1000.33 50.7969 999.729 51.5 998.938 52C998.156 52.5 997.214 52.75 996.109 52.75C995.016 52.75 994.078 52.5 993.297 52C992.516 51.4896 991.922 50.7812 991.516 49.875C991.12 48.9688 990.922 47.9167 990.922 46.7188ZM994.109 46.7188C994.12 47.7188 994.297 48.5104 994.641 49.0938C994.995 49.6771 995.484 49.9688 996.109 49.9688C996.776 49.9688 997.281 49.6823 997.625 49.1094C997.979 48.526 998.161 47.7292 998.172 46.7188C998.161 45.6979 997.984 44.901 997.641 44.3281C997.307 43.7448 996.797 43.4583 996.109 43.4688C995.474 43.4583 994.984 43.75 994.641 44.3438C994.297 44.9375 994.12 45.7292 994.109 46.7188Z" fill="#1DB8CE"/>
<path d="M907.381 16.2578C910.923 16.2578 914.155 17.0326 917.077 18.582C919.999 20.1094 922.356 22.6217 924.149 26.1191C925.942 29.5944 926.839 34.1211 926.839 39.6992C926.839 45.0781 926.031 49.7266 924.415 53.6445C922.821 57.5404 920.53 60.5176 917.542 62.5762C914.575 64.6348 911.078 65.6641 907.049 65.6641C903.906 65.6641 901.084 65.0553 898.583 63.8379C896.081 62.5983 894.067 60.9049 892.54 58.7578C891.034 56.6107 890.116 54.1758 889.784 51.4531H899.612C900.033 53.224 900.896 54.6074 902.202 55.6035C903.508 56.5996 905.124 57.0977 907.049 57.0977C910.281 57.0977 912.749 55.7363 914.454 53.0137C916.18 50.291 917.055 46.4948 917.077 41.625H916.678C915.549 43.7279 913.878 45.388 911.665 46.6055C909.473 47.8008 907.027 48.3984 904.327 48.3984C901.493 48.3984 898.926 47.7344 896.624 46.4062C894.344 45.0781 892.551 43.2409 891.245 40.8945C889.939 38.526 889.275 35.8698 889.253 32.9258C889.253 29.7383 890.005 26.8828 891.51 24.3594C893.038 21.8138 895.174 19.8327 897.919 18.416C900.686 16.9772 903.84 16.2578 907.381 16.2578ZM899.014 32.5273C899.014 34.1211 899.368 35.571 900.077 36.877C900.807 38.1829 901.803 39.2122 903.065 39.9648C904.349 40.7174 905.81 41.0938 907.448 41.0938C909.042 41.0938 910.492 40.7064 911.798 39.9316C913.126 39.1569 914.166 38.1276 914.919 36.8438C915.693 35.5378 916.081 34.1211 916.081 32.5938C916.059 31.0664 915.671 29.6608 914.919 28.377C914.188 27.071 913.17 26.0306 911.864 25.2559C910.558 24.4811 909.108 24.0938 907.514 24.0938C905.921 24.0938 904.471 24.4701 903.165 25.2227C901.881 25.9753 900.863 26.9935 900.11 28.2773C899.38 29.5612 899.014 30.9779 899.014 32.5273ZM948.954 65.6641C945.346 65.6641 942.104 65.0775 939.226 63.9043C936.37 62.7311 934.135 61.1152 932.519 59.0566C930.903 56.9759 930.095 54.6406 930.095 52.0508C930.095 50.0807 930.56 48.2435 931.49 46.5391C932.419 44.8346 933.692 43.429 935.308 42.3223C936.946 41.1934 938.75 40.474 940.72 40.1641V39.832C938.994 39.5 937.466 38.8359 936.138 37.8398C934.81 36.8216 933.781 35.571 933.05 34.0879C932.32 32.5827 931.954 30.9557 931.954 29.207C931.954 26.75 932.685 24.5365 934.146 22.5664C935.607 20.5964 937.632 19.0579 940.222 17.9512C942.812 16.8223 945.723 16.2578 948.954 16.2578C952.186 16.2578 955.097 16.8223 957.687 17.9512C960.277 19.0579 962.313 20.5964 963.796 22.5664C965.279 24.5365 966.021 26.75 966.021 29.207C966.021 30.9336 965.633 32.5495 964.859 34.0547C964.106 35.5599 963.066 36.8216 961.738 37.8398C960.41 38.8359 958.915 39.5 957.255 39.832V40.1641C959.203 40.474 960.974 41.1934 962.568 42.3223C964.184 43.429 965.456 44.8346 966.386 46.5391C967.338 48.2435 967.814 50.0807 967.814 52.0508C967.814 54.6406 967.006 56.9759 965.39 59.0566C963.774 61.1152 961.527 62.7311 958.65 63.9043C955.794 65.0775 952.563 65.6641 948.954 65.6641ZM940.521 51.0547C940.521 52.4049 940.864 53.6113 941.55 54.6738C942.258 55.7363 943.255 56.5664 944.538 57.1641C945.822 57.7396 947.294 58.0273 948.954 58.0273C950.615 58.0273 952.087 57.7396 953.37 57.1641C954.654 56.5664 955.639 55.7363 956.326 54.6738C957.034 53.6113 957.388 52.4049 957.388 51.0547C957.388 49.6823 957.023 48.4538 956.292 47.3691C955.584 46.2624 954.588 45.3991 953.304 44.7793C952.02 44.1374 950.57 43.8164 948.954 43.8164C947.339 43.8164 945.889 44.1374 944.605 44.7793C943.321 45.3991 942.314 46.2624 941.583 47.3691C940.875 48.4538 940.521 49.6823 940.521 51.0547ZM941.716 30.2031C941.716 31.4648 942.015 32.5938 942.613 33.5898C943.232 34.5859 944.096 35.3717 945.202 35.9473C946.309 36.5007 947.56 36.7773 948.954 36.7773C950.349 36.7773 951.6 36.5007 952.706 35.9473C953.813 35.3717 954.676 34.5859 955.296 33.5898C955.938 32.5938 956.259 31.4648 956.259 30.2031C956.259 28.9635 955.938 27.8678 955.296 26.916C954.676 25.9421 953.813 25.1895 952.706 24.6582C951.622 24.1048 950.371 23.8281 948.954 23.8281C947.538 23.8281 946.276 24.1048 945.169 24.6582C944.063 25.1895 943.21 25.9421 942.613 26.916C942.015 27.8678 941.716 28.9635 941.716 30.2031Z" fill="white"/>
<path d="M914.658 96.2461C914.652 97.2812 914.635 98.1699 914.609 98.9121C914.59 99.6478 914.528 100.514 914.424 101.51C914.32 102.499 914.157 103.577 913.936 104.742L911.436 104.488C911.742 102.997 911.937 101.656 912.021 100.465C912.106 99.2669 912.152 97.9583 912.158 96.5391H901.689V94.5664H914.658V96.2461ZM900.01 106.598H905.811V100.484H908.291V106.598H916.221V108.629H900.01V106.598ZM932.568 103.453H930.205V99.1562H928.604V103.375H926.26V93.3555H928.604V97.125H930.205V93.043H932.568V103.453ZM917.1 101.715C918.753 101.116 920.02 100.364 920.898 99.459C921.777 98.5475 922.314 97.4766 922.51 96.2461H917.959V94.2539H925.049C925.049 96.5 924.495 98.388 923.389 99.918C922.288 101.441 920.583 102.659 918.271 103.57L917.1 101.715ZM920.166 104.137H932.568V110.797H930.088V106.148H920.166V104.137ZM948.252 103.023H939.717V94.4883H948.252V103.023ZM941.768 104.723H944.248V108.492H953.936V110.484H941.768V104.723ZM945.791 101.07V96.4805H942.178V101.07H945.791ZM950.791 93.0234H953.291V98.1406H955.693V100.191H953.291V105.992H950.791V93.0234ZM971.221 95.6406H966.357C966.488 96.0898 966.784 96.513 967.246 96.9102C967.715 97.3073 968.35 97.6491 969.15 97.9355C969.958 98.2155 970.908 98.4076 972.002 98.5117L971.104 100.465C969.469 100.296 968.089 99.918 966.963 99.332C965.843 98.7461 965.042 98.0072 964.561 97.1152C964.079 98.0072 963.285 98.7461 962.178 99.332C961.071 99.918 959.704 100.296 958.076 100.465L957.197 98.5117C958.278 98.4076 959.212 98.2122 960 97.9258C960.794 97.6393 961.423 97.3008 961.885 96.9102C962.347 96.513 962.646 96.0898 962.783 95.6406H957.959V93.668H971.221V95.6406ZM956.475 101.676H963.33V99.3516H965.791V101.676H972.686V103.668H956.475V101.676ZM958.271 104.938H970.713V110.797H968.232V106.93H958.271V104.938ZM988.252 102.945H983.096V106.734H990.029V108.766H973.76V106.734H980.615V102.945H975.674V94.2734H988.115V96.2656H978.174V100.973H988.252V102.945Z" fill="#C8C8C8"/>
<rect x="0.5" y="179.5" width="341" height="87" rx="4.5" fill="#0D1F30" stroke="#213541"/>
<rect x="380.5" y="179.5" width="341" height="87" rx="4.5" fill="#0D1F30" stroke="#213541"/>
<rect x="761.5" y="179.5" width="341" height="87" rx="4.5" fill="#0D1F30" stroke="#213541"/>
<path d="M68.9375 217.531L72.9375 213.672C73.3698 213.24 73.7031 212.885 73.9375 212.609C74.1771 212.328 74.3594 212.052 74.4844 211.781C74.6094 211.505 74.6719 211.214 74.6719 210.906C74.6719 210.562 74.5859 210.26 74.4141 210C74.2474 209.74 74.0156 209.539 73.7188 209.398C73.4271 209.258 73.099 209.188 72.7344 209.188C72.349 209.188 72.0104 209.266 71.7188 209.422C71.4323 209.573 71.2109 209.789 71.0547 210.07C70.9036 210.352 70.8281 210.682 70.8281 211.062H68.8906C68.8906 210.359 69.0521 209.742 69.375 209.211C69.7031 208.674 70.1589 208.26 70.7422 207.969C71.3307 207.677 72 207.531 72.75 207.531C73.5104 207.531 74.1823 207.672 74.7656 207.953C75.3542 208.234 75.8099 208.625 76.1328 209.125C76.4609 209.62 76.625 210.182 76.625 210.812C76.6198 211.25 76.5339 211.672 76.3672 212.078C76.2005 212.479 75.9141 212.927 75.5078 213.422C75.1016 213.917 74.526 214.516 73.7812 215.219L71.7656 217.219V217.297H76.7969V219H68.9375V217.531ZM89.9375 216.688H88.2031V211.984H84.5156V210.609H88.2031V209.328H84.5156V207.953H88.2031V206.281H89.9375V216.688ZM78.9219 207.219H80.6406V213.328C81.6094 213.318 82.526 213.279 83.3906 213.211C84.2552 213.138 85.1354 213.021 86.0312 212.859L86.2031 214.266C85.1979 214.458 84.2161 214.589 83.2578 214.656C82.2995 214.724 81.224 214.76 80.0312 214.766H78.9219V207.219ZM80.6562 215.766H82.4062V218.703H90.2969V220.109H80.6562V215.766ZM108.609 214.344H103.016V215.703H107.047V220.219H97.25V215.703H101.297V214.344H95.7344V212.953H108.609V214.344ZM96.8906 206.688H107.422V208.078H105.484V210.5H107.344V211.906H96.9688V210.5H98.8281V208.078H96.8906V206.688ZM105.359 218.812V217.047H98.9688V218.812H105.359ZM103.734 210.5V208.078H100.562V210.5H103.734ZM121.297 213.547H119.578V206.266H121.297V213.547ZM109.672 212.281C110.385 212.073 110.997 211.768 111.508 211.367C112.023 210.966 112.419 210.508 112.695 209.992C112.977 209.477 113.133 208.938 113.164 208.375H110.125V206.969H117.891V208.375H114.93C114.956 208.906 115.107 209.414 115.383 209.898C115.659 210.378 116.052 210.802 116.562 211.172C117.073 211.542 117.682 211.823 118.391 212.016L117.547 213.359C116.74 213.125 116.042 212.771 115.453 212.297C114.865 211.818 114.406 211.253 114.078 210.602C113.75 211.326 113.279 211.953 112.664 212.484C112.055 213.01 111.323 213.401 110.469 213.656L109.672 212.281ZM111.953 214.141H121.328V217.781H113.688V218.922H121.75V220.266H111.984V216.516H119.594V215.469H111.953V214.141ZM136.297 218.688H123.391V217.266H128.953V214.516H124.812V207.203H126.547V209.516H133.094V207.203H134.828V214.516H130.672V217.266H136.297V218.688ZM133.094 213.109V210.906H126.547V213.109H133.094ZM150.094 214.25H137.219V212.844H150.094V214.25ZM137.844 210.844C138.693 210.76 139.448 210.599 140.109 210.359C140.771 210.115 141.299 209.82 141.695 209.477C142.096 209.128 142.341 208.755 142.43 208.359H138.391V206.938H148.938V208.359H144.859C144.948 208.75 145.19 209.12 145.586 209.469C145.982 209.818 146.513 210.115 147.18 210.359C147.846 210.599 148.615 210.76 149.484 210.844L148.875 212.219C147.599 212.089 146.503 211.784 145.586 211.305C144.674 210.82 144.026 210.219 143.641 209.5C143.255 210.224 142.609 210.826 141.703 211.305C140.797 211.784 139.708 212.089 138.438 212.219L137.844 210.844ZM138.719 217.781C138.719 217.24 138.914 216.776 139.305 216.391C139.701 216 140.266 215.703 141 215.5C141.74 215.292 142.62 215.188 143.641 215.188C144.651 215.188 145.523 215.292 146.258 215.5C146.992 215.703 147.555 216 147.945 216.391C148.336 216.776 148.531 217.24 148.531 217.781C148.531 218.333 148.336 218.802 147.945 219.188C147.555 219.578 146.992 219.872 146.258 220.07C145.529 220.273 144.656 220.375 143.641 220.375C142.62 220.375 141.74 220.273 141 220.07C140.266 219.872 139.701 219.578 139.305 219.188C138.914 218.797 138.719 218.328 138.719 217.781ZM140.484 217.781C140.479 218.188 140.745 218.495 141.281 218.703C141.818 218.906 142.604 219.01 143.641 219.016C144.661 219.01 145.44 218.906 145.977 218.703C146.518 218.495 146.792 218.188 146.797 217.781C146.792 217.375 146.518 217.068 145.977 216.859C145.44 216.651 144.661 216.547 143.641 216.547C142.609 216.547 141.823 216.651 141.281 216.859C140.745 217.068 140.479 217.375 140.484 217.781Z" fill="white"/>
<path d="M79.8818 238.549H68.7529V237.646H73.7568V234.68H70.0654V228.979H78.501V234.68H74.8096V237.646H79.8818V238.549ZM77.4619 233.818V229.84H71.1182V233.818H77.4619ZM91.9404 234.967H80.8525V234.092H91.9404V234.967ZM82.2607 228.486H90.5596V229.361H83.3271V231.863H90.6689V232.752H82.2607V228.486ZM82.2881 236.279H83.3545V238.932H90.7646V239.834H82.2881V236.279ZM100.786 231.221C100.786 231.941 100.934 232.656 101.23 233.367C101.527 234.074 101.925 234.702 102.427 235.254C102.933 235.805 103.484 236.215 104.081 236.484L103.425 237.332C102.728 236.995 102.099 236.487 101.538 235.808C100.978 235.124 100.551 234.352 100.26 233.49C99.9818 234.406 99.5602 235.227 98.9951 235.951C98.43 236.676 97.792 237.218 97.0811 237.578L96.3975 236.676C96.999 236.402 97.5527 235.981 98.0586 235.411C98.5645 234.841 98.9655 234.19 99.2617 233.456C99.5625 232.718 99.7152 231.973 99.7197 231.221V229.006H100.786V231.221ZM105.407 227.953H106.487V240.135H105.407V227.953ZM114.062 235.637C114.927 235.637 115.679 235.726 116.317 235.903C116.96 236.076 117.454 236.332 117.801 236.669C118.152 237.002 118.327 237.4 118.327 237.865C118.327 238.326 118.152 238.722 117.801 239.055C117.454 239.387 116.96 239.64 116.317 239.813C115.679 239.991 114.927 240.08 114.062 240.08C113.196 240.08 112.441 239.991 111.799 239.813C111.161 239.64 110.669 239.387 110.322 239.055C109.98 238.722 109.81 238.326 109.81 237.865C109.81 237.4 109.98 237.002 110.322 236.669C110.669 236.332 111.161 236.076 111.799 235.903C112.441 235.726 113.196 235.637 114.062 235.637ZM108.579 233.627H113.159V231.275H114.212V233.627H119.64V234.502H108.579V233.627ZM109.892 228.582H118.231V229.607C118.227 230.277 118.206 230.845 118.17 231.31C118.133 231.77 118.04 232.278 117.89 232.834L116.837 232.711C116.983 232.155 117.074 231.656 117.11 231.214C117.147 230.767 117.165 230.232 117.165 229.607V229.457H109.892V228.582ZM110.876 237.865C110.876 238.143 111.006 238.387 111.266 238.597C111.525 238.802 111.895 238.959 112.373 239.068C112.856 239.178 113.419 239.232 114.062 239.232C114.704 239.232 115.265 239.178 115.743 239.068C116.226 238.959 116.598 238.802 116.857 238.597C117.122 238.387 117.256 238.143 117.261 237.865C117.256 237.578 117.122 237.33 116.857 237.12C116.598 236.91 116.226 236.749 115.743 236.635C115.265 236.516 114.704 236.457 114.062 236.457C113.419 236.457 112.856 236.516 112.373 236.635C111.895 236.749 111.525 236.91 111.266 237.12C111.006 237.33 110.876 237.578 110.876 237.865ZM131.083 240.107H130.044V227.953H131.083V240.107ZM120.815 233.203C120.815 232.351 120.923 231.608 121.137 230.975C121.355 230.337 121.661 229.844 122.053 229.498C122.445 229.152 122.903 228.979 123.427 228.979C123.914 228.979 124.347 229.131 124.726 229.437C125.104 229.737 125.405 230.168 125.628 230.729C125.856 231.285 125.993 231.941 126.038 232.697H127.61V228.213H128.636V239.492H127.61V233.586H126.045C126.013 234.365 125.883 235.047 125.655 235.63C125.432 236.209 125.129 236.653 124.746 236.963C124.363 237.273 123.924 237.428 123.427 237.428C122.903 237.428 122.445 237.257 122.053 236.915C121.661 236.569 121.355 236.076 121.137 235.438C120.923 234.8 120.815 234.055 120.815 233.203ZM121.827 233.203C121.823 233.855 121.884 234.422 122.012 234.905C122.144 235.388 122.331 235.76 122.572 236.02C122.818 236.279 123.103 236.407 123.427 236.402C123.75 236.407 124.033 236.282 124.274 236.026C124.521 235.767 124.71 235.397 124.842 234.919C124.974 234.44 125.04 233.88 125.04 233.237C125.04 232.576 124.974 232.002 124.842 231.515C124.714 231.027 124.527 230.651 124.281 230.387C124.04 230.122 123.755 229.99 123.427 229.99C123.099 229.99 122.814 230.122 122.572 230.387C122.331 230.646 122.144 231.018 122.012 231.501C121.884 231.984 121.823 232.551 121.827 233.203ZM146.669 240.107H145.644V233.736H143.853V239.479H142.868V228.227H143.853V232.848H145.644V227.953H146.669V240.107ZM136.729 229.443H141.282V230.332H137.796V236.184C138.694 236.179 139.455 236.154 140.079 236.108C140.703 236.058 141.337 235.969 141.979 235.842L142.075 236.744C141.392 236.885 140.717 236.979 140.052 237.024C139.386 237.07 138.539 237.095 137.509 237.1H136.729V229.443ZM154.448 230.934H148.351V230.059H150.88V228.322H151.946V230.059H154.448V230.934ZM148.788 234.516C148.788 233.987 148.9 233.513 149.123 233.094C149.351 232.674 149.663 232.346 150.06 232.109C150.456 231.872 150.903 231.754 151.399 231.754C151.905 231.754 152.356 231.872 152.753 232.109C153.154 232.346 153.466 232.674 153.689 233.094C153.917 233.508 154.034 233.982 154.038 234.516C154.034 235.053 153.917 235.534 153.689 235.958C153.466 236.377 153.154 236.708 152.753 236.949C152.356 237.186 151.905 237.305 151.399 237.305C150.903 237.305 150.454 237.186 150.053 236.949C149.656 236.708 149.346 236.377 149.123 235.958C148.9 235.534 148.788 235.053 148.788 234.516ZM149.745 234.516C149.745 234.871 149.816 235.19 149.957 235.473C150.098 235.751 150.294 235.969 150.545 236.129C150.796 236.284 151.08 236.361 151.399 236.361C151.718 236.361 152.006 236.284 152.261 236.129C152.516 235.969 152.716 235.751 152.862 235.473C153.008 235.19 153.081 234.871 153.081 234.516C153.081 234.165 153.008 233.85 152.862 233.572C152.716 233.29 152.516 233.069 152.261 232.909C152.006 232.745 151.718 232.661 151.399 232.656C151.08 232.661 150.796 232.745 150.545 232.909C150.294 233.069 150.098 233.29 149.957 233.572C149.816 233.85 149.745 234.165 149.745 234.516ZM155.077 228.254H156.089V233.08H157.702V227.953H158.728V240.107H157.702V233.969H156.089V239.506H155.077V228.254ZM164.415 238.098L167.792 234.543C168.234 234.069 168.571 233.688 168.804 233.401C169.041 233.11 169.221 232.829 169.344 232.561C169.467 232.292 169.528 232.009 169.528 231.713C169.528 231.38 169.442 231.089 169.269 230.838C169.095 230.583 168.858 230.384 168.558 230.243C168.261 230.102 167.929 230.031 167.56 230.031C167.172 230.031 166.833 230.111 166.541 230.271C166.249 230.425 166.024 230.642 165.864 230.92C165.709 231.198 165.632 231.521 165.632 231.891H164.47C164.465 231.316 164.597 230.808 164.866 230.366C165.14 229.924 165.516 229.58 165.994 229.334C166.473 229.088 167.008 228.965 167.601 228.965C168.188 228.965 168.715 229.086 169.18 229.327C169.649 229.569 170.016 229.899 170.28 230.318C170.545 230.738 170.677 231.202 170.677 231.713C170.672 232.091 170.602 232.453 170.465 232.8C170.333 233.142 170.105 233.522 169.781 233.941C169.458 234.361 169 234.876 168.407 235.486L166.138 237.824V237.906H170.854V239H164.429L164.415 238.098ZM182.284 236.963H181.204V232.752H177.704V231.891H181.204V230.428H177.704V229.566H181.204V227.967H182.284V236.963ZM172.933 228.842H174.013V234.242C174.92 234.238 175.783 234.203 176.604 234.14C177.428 234.076 178.278 233.964 179.153 233.805L179.263 234.693C178.347 234.867 177.465 234.985 176.617 235.049C175.774 235.113 174.851 235.149 173.849 235.158H172.933V228.842ZM174.45 236.197H175.53V238.945H182.612V239.848H174.45V236.197ZM193.81 231.658H195.642V232.561H193.81V236.854H192.729V227.953H193.81V231.658ZM184.321 234.584C185.297 234.279 186.149 233.889 186.878 233.415C187.607 232.941 188.184 232.396 188.607 231.781C189.036 231.166 189.286 230.505 189.359 229.799H184.827V228.896H190.528C190.528 229.922 190.296 230.863 189.831 231.72C189.366 232.576 188.703 233.319 187.842 233.948C186.98 234.577 185.962 235.076 184.786 235.445L184.321 234.584ZM186.194 235.951H187.261V238.945H194.37V239.848H186.194V235.951ZM210.995 234.721H205.978V236.156H209.642V239.943H201.274V236.156H204.925V234.721H199.921V233.832H210.995V234.721ZM200.96 228.35H209.942V229.238H208.069V231.795H209.901V232.684H201.001V231.795H202.833V229.238H200.96V228.35ZM208.589 239.068V237.004H202.341V239.068H208.589ZM207.003 231.795V229.238H203.899V231.795H207.003ZM222.042 234.27H220.989V227.953H222.042V234.27ZM212.198 233.436C212.8 233.235 213.335 232.946 213.805 232.567C214.279 232.185 214.648 231.745 214.912 231.248C215.181 230.747 215.315 230.223 215.315 229.676V229.539H212.472V228.65H219.198V229.539H216.396V229.676C216.396 230.195 216.528 230.69 216.792 231.159C217.061 231.629 217.432 232.041 217.906 232.396C218.38 232.747 218.92 233.012 219.526 233.189L218.993 234.023C218.273 233.796 217.64 233.451 217.093 232.991C216.55 232.526 216.145 231.984 215.876 231.364C215.612 232.043 215.201 232.638 214.646 233.148C214.094 233.654 213.447 234.033 212.704 234.283L212.198 233.436ZM214.153 234.857H222.056V237.756H215.233V239.109H222.493V239.971H214.181V236.949H220.989V235.705H214.153V234.857ZM229.657 228.172C230.555 228.172 231.325 228.254 231.968 228.418C232.61 228.577 233.1 228.814 233.438 229.129C233.779 229.439 233.95 229.817 233.95 230.264C233.95 230.719 233.779 231.107 233.438 231.426C233.1 231.745 232.61 231.986 231.968 232.15C231.33 232.31 230.56 232.392 229.657 232.396C228.75 232.392 227.976 232.31 227.333 232.15C226.69 231.986 226.198 231.745 225.856 231.426C225.519 231.107 225.351 230.719 225.351 230.264C225.351 229.817 225.519 229.439 225.856 229.129C226.198 228.814 226.69 228.577 227.333 228.418C227.98 228.254 228.755 228.172 229.657 228.172ZM224.12 233.217H235.194V234.092H224.12V233.217ZM225.46 235.145H233.772V237.865H226.554V239.123H234.142V239.971H225.487V237.072H232.72V235.965H225.46V235.145ZM226.472 230.264C226.467 230.683 226.743 231.007 227.299 231.234C227.855 231.462 228.641 231.576 229.657 231.576C230.669 231.576 231.453 231.465 232.009 231.241C232.569 231.013 232.852 230.688 232.856 230.264C232.856 229.999 232.729 229.771 232.474 229.58C232.223 229.389 231.856 229.241 231.373 229.136C230.895 229.031 230.323 228.979 229.657 228.979C228.987 228.979 228.413 229.031 227.935 229.136C227.456 229.241 227.091 229.389 226.841 229.58C226.59 229.771 226.467 229.999 226.472 230.264ZM250.862 238.549H239.733V237.66H244.737V235.035H241.046V228.814H242.126V231.016H248.442V228.814H249.495V235.035H245.79V237.66H250.862V238.549ZM248.442 234.16V231.891H242.126V234.16H248.442ZM262.907 234.625H251.833V233.736H262.907V234.625ZM252.462 232.15C253.182 232.068 253.861 231.902 254.499 231.651C255.137 231.401 255.654 231.086 256.051 230.708C256.452 230.33 256.659 229.917 256.673 229.471H252.845V228.582H261.923V229.471H258.067C258.081 229.913 258.286 230.323 258.683 230.701C259.079 231.079 259.596 231.396 260.234 231.651C260.877 231.902 261.563 232.068 262.292 232.15L261.896 233.012C261.221 232.925 260.581 232.77 259.975 232.547C259.368 232.324 258.838 232.039 258.382 231.692C257.926 231.346 257.589 230.954 257.37 230.517C257.151 230.954 256.814 231.346 256.358 231.692C255.907 232.039 255.379 232.324 254.772 232.547C254.166 232.77 253.524 232.925 252.845 233.012L252.462 232.15ZM253.173 237.893C253.173 237.432 253.339 237.038 253.672 236.71C254.005 236.377 254.485 236.124 255.114 235.951C255.748 235.778 256.5 235.691 257.37 235.691C258.236 235.691 258.981 235.778 259.605 235.951C260.23 236.124 260.708 236.377 261.041 236.71C261.378 237.038 261.549 237.432 261.554 237.893C261.549 238.357 261.381 238.754 261.048 239.082C260.715 239.41 260.234 239.659 259.605 239.827C258.981 239.996 258.236 240.08 257.37 240.08C256.495 240.08 255.743 239.996 255.114 239.827C254.485 239.659 254.005 239.41 253.672 239.082C253.339 238.754 253.173 238.357 253.173 237.893ZM254.267 237.893C254.262 238.171 254.381 238.41 254.622 238.61C254.868 238.806 255.221 238.957 255.682 239.062C256.142 239.166 256.691 239.219 257.329 239.219C258.313 239.219 259.081 239.105 259.633 238.877C260.189 238.645 260.469 238.316 260.474 237.893C260.469 237.469 260.193 237.141 259.646 236.908C259.1 236.671 258.341 236.548 257.37 236.539C256.39 236.548 255.627 236.671 255.08 236.908C254.533 237.141 254.262 237.469 254.267 237.893ZM273.435 231.07H275.267V231.986H273.435V235.021H272.368V227.953H273.435V231.07ZM263.96 229.211H267.05V227.844H268.116V229.211H271.206V230.1H263.96V229.211ZM264.657 232.793C264.657 232.365 264.778 231.991 265.02 231.672C265.261 231.348 265.603 231.1 266.045 230.927C266.487 230.749 267 230.66 267.583 230.66C268.162 230.66 268.67 230.749 269.107 230.927C269.549 231.1 269.891 231.348 270.133 231.672C270.379 231.991 270.504 232.365 270.509 232.793C270.504 233.221 270.379 233.597 270.133 233.921C269.891 234.244 269.549 234.493 269.107 234.666C268.665 234.839 268.157 234.926 267.583 234.926C267 234.926 266.487 234.839 266.045 234.666C265.603 234.493 265.261 234.244 265.02 233.921C264.778 233.597 264.657 233.221 264.657 232.793ZM265.683 232.793C265.683 233.053 265.76 233.283 265.915 233.483C266.07 233.679 266.291 233.832 266.578 233.941C266.87 234.051 267.205 234.105 267.583 234.105C267.957 234.105 268.287 234.051 268.574 233.941C268.866 233.832 269.091 233.679 269.251 233.483C269.41 233.283 269.493 233.053 269.497 232.793C269.493 232.533 269.408 232.305 269.244 232.109C269.085 231.909 268.861 231.756 268.574 231.651C268.287 231.542 267.957 231.49 267.583 231.494C267.205 231.49 266.872 231.542 266.585 231.651C266.298 231.756 266.075 231.909 265.915 232.109C265.76 232.305 265.683 232.533 265.683 232.793ZM265.751 235.555H266.817V236.854H272.368V235.555H273.435V239.943H265.751V235.555ZM272.368 239.082V237.701H266.817V239.082H272.368ZM286.054 240.107H284.987V227.953H286.054V240.107ZM276.825 229.156H277.878V236.047C278.881 236.038 279.858 235.99 280.811 235.903C281.763 235.812 282.722 235.664 283.688 235.459L283.839 236.375C282.804 236.589 281.797 236.744 280.817 236.84C279.842 236.931 278.84 236.977 277.81 236.977H276.825V229.156ZM297.538 232.766H299.575V233.668H297.538V240.135H296.472V227.953H297.538V232.766ZM288.665 229.143H294.339V230.031H289.731V236.184C290.88 236.179 291.876 236.145 292.719 236.081C293.562 236.017 294.421 235.906 295.296 235.746L295.433 236.676C294.53 236.84 293.646 236.949 292.78 237.004C291.919 237.059 290.866 237.086 289.622 237.086H288.665V229.143Z" fill="#D9D9D9"/>
<path d="M454.828 215.094C455.849 215.094 456.734 215.201 457.484 215.414C458.24 215.622 458.82 215.927 459.227 216.328C459.638 216.724 459.844 217.198 459.844 217.75C459.844 218.292 459.638 218.758 459.227 219.148C458.82 219.544 458.24 219.846 457.484 220.055C456.734 220.268 455.849 220.375 454.828 220.375C453.818 220.375 452.935 220.268 452.18 220.055C451.43 219.846 450.849 219.544 450.438 219.148C450.031 218.758 449.828 218.292 449.828 217.75C449.828 217.198 450.031 216.724 450.438 216.328C450.849 215.927 451.43 215.622 452.18 215.414C452.935 215.201 453.818 215.094 454.828 215.094ZM448.5 212.672H453.469V210.109H455.188V212.672H461.312V214.078H448.5V212.672ZM449.969 206.938H459.75V208.109V208.523C459.75 209.133 459.724 209.698 459.672 210.219C459.625 210.74 459.521 211.286 459.359 211.859L457.641 211.703C457.797 211.089 457.898 210.529 457.945 210.023C457.992 209.518 458.016 208.948 458.016 208.312H449.969V206.938ZM451.578 217.75C451.573 218.161 451.854 218.479 452.422 218.703C452.995 218.922 453.797 219.031 454.828 219.031C455.859 219.031 456.664 218.922 457.242 218.703C457.826 218.479 458.12 218.161 458.125 217.75C458.12 217.323 457.826 216.992 457.242 216.758C456.664 216.523 455.859 216.406 454.828 216.406C453.802 216.406 453.003 216.523 452.43 216.758C451.857 216.992 451.573 217.323 451.578 217.75ZM474.062 216.484H472.312V206.281H474.062V216.484ZM462.547 210.734C462.547 210.062 462.714 209.458 463.047 208.922C463.385 208.385 463.844 207.966 464.422 207.664C465.005 207.357 465.651 207.203 466.359 207.203C467.068 207.203 467.711 207.357 468.289 207.664C468.872 207.966 469.328 208.385 469.656 208.922C469.99 209.458 470.156 210.062 470.156 210.734C470.156 211.417 469.99 212.029 469.656 212.57C469.328 213.107 468.872 213.526 468.289 213.828C467.711 214.13 467.068 214.281 466.359 214.281C465.651 214.281 465.005 214.13 464.422 213.828C463.844 213.526 463.385 213.107 463.047 212.57C462.714 212.029 462.547 211.417 462.547 210.734ZM464.25 210.734C464.25 211.141 464.339 211.497 464.516 211.805C464.698 212.112 464.948 212.349 465.266 212.516C465.589 212.682 465.953 212.766 466.359 212.766C466.755 212.766 467.112 212.682 467.43 212.516C467.747 212.349 467.997 212.112 468.18 211.805C468.362 211.497 468.453 211.141 468.453 210.734C468.453 210.339 468.362 209.987 468.18 209.68C467.997 209.372 467.745 209.135 467.422 208.969C467.104 208.802 466.75 208.719 466.359 208.719C465.958 208.719 465.596 208.802 465.273 208.969C464.951 209.135 464.698 209.372 464.516 209.68C464.339 209.987 464.25 210.339 464.25 210.734ZM464.719 215.453H466.469V218.703H474.453V220.109H464.719V215.453ZM484.984 210.281C484.979 211.016 485.117 211.758 485.398 212.508C485.685 213.258 486.096 213.943 486.633 214.562C487.169 215.177 487.797 215.651 488.516 215.984L487.547 217.359C486.771 216.995 486.091 216.461 485.508 215.758C484.924 215.049 484.469 214.24 484.141 213.328C483.812 214.323 483.346 215.206 482.742 215.977C482.138 216.747 481.438 217.323 480.641 217.703L479.625 216.344C480.354 216 480.992 215.503 481.539 214.852C482.086 214.201 482.505 213.474 482.797 212.672C483.094 211.87 483.245 211.073 483.25 210.281V209.094H480.172V207.656H487.938V209.094H484.984V210.281ZM489.25 206.266H490.984V211.766H493.156V213.219H490.984V220.391H489.25V206.266ZM501.266 207.172C501.266 207.682 501.219 208.172 501.125 208.641H503.844V206.281H505.578V214.672H503.844V213.031H500.453V211.625H503.844V210.031H500.695C500.221 211.125 499.466 212.057 498.43 212.828C497.393 213.599 496.115 214.188 494.594 214.594L493.938 213.203C495.01 212.922 495.938 212.555 496.719 212.102C497.505 211.643 498.122 211.117 498.57 210.523C499.023 209.93 499.299 209.286 499.398 208.594H494.703V207.172H501.266ZM495.953 215.266H505.578V220.344H503.844V216.641H495.953V215.266ZM524.281 218.688H511.375V217.266H516.938V214.516H512.797V207.203H514.531V209.516H521.078V207.203H522.812V214.516H518.656V217.266H524.281V218.688ZM521.078 213.109V210.906H514.531V213.109H521.078ZM538.094 215.594H534.953V220.391H533.188V215.594H530.062V220.391H528.281V215.594H525.188V214.188H538.094V215.594ZM526.547 209.922C526.547 209.292 526.758 208.74 527.18 208.266C527.602 207.786 528.195 207.417 528.961 207.156C529.732 206.896 530.615 206.766 531.609 206.766C532.609 206.766 533.492 206.896 534.258 207.156C535.029 207.417 535.628 207.786 536.055 208.266C536.487 208.74 536.703 209.292 536.703 209.922C536.703 210.547 536.487 211.094 536.055 211.562C535.628 212.026 535.029 212.385 534.258 212.641C533.492 212.891 532.609 213.016 531.609 213.016C530.609 213.016 529.727 212.891 528.961 212.641C528.195 212.385 527.602 212.026 527.18 211.562C526.758 211.094 526.547 210.547 526.547 209.922ZM528.328 209.922C528.328 210.276 528.461 210.583 528.727 210.844C528.997 211.099 529.38 211.297 529.875 211.438C530.37 211.573 530.948 211.641 531.609 211.641C532.276 211.641 532.857 211.573 533.352 211.438C533.846 211.297 534.229 211.099 534.5 210.844C534.771 210.583 534.906 210.276 534.906 209.922C534.906 209.557 534.771 209.245 534.5 208.984C534.229 208.719 533.846 208.518 533.352 208.383C532.857 208.242 532.276 208.172 531.609 208.172C530.948 208.172 530.37 208.242 529.875 208.383C529.38 208.518 528.997 208.719 528.727 208.984C528.461 209.245 528.328 209.557 528.328 209.922Z" fill="white"/>
<path d="M458.568 236.881H457.488V232.219H454.986V231.33H457.488V227.967H458.568V236.881ZM448.547 234.447C449.139 234.238 449.67 233.93 450.14 233.524C450.609 233.119 450.976 232.652 451.24 232.123C451.505 231.59 451.637 231.038 451.637 230.469V229.84H448.889V228.951H455.438V229.84H452.717V230.469C452.717 230.988 452.842 231.494 453.093 231.986C453.348 232.479 453.701 232.916 454.152 233.299C454.608 233.682 455.128 233.973 455.711 234.174L455.15 235.035C454.471 234.789 453.874 234.424 453.359 233.941C452.849 233.454 452.462 232.893 452.197 232.26C451.933 232.966 451.532 233.586 450.994 234.119C450.456 234.652 449.827 235.053 449.107 235.322L448.547 234.447ZM450.762 236.074H451.842V238.945H458.91V239.848H450.762V236.074ZM471.707 235.062H466.758V237.551H465.691V235.062H460.578V234.174H471.707V235.062ZM462 236.348H463.08V238.945H470.463V239.848H462V236.348ZM462.027 228.555H470.258V232.779H462.027V228.555ZM469.191 231.918V229.402H463.08V231.918H469.191ZM480.32 231.686C480.316 232.324 480.452 232.971 480.73 233.627C481.013 234.283 481.396 234.878 481.879 235.411C482.362 235.94 482.895 236.343 483.479 236.621L482.863 237.469C482.184 237.136 481.571 236.635 481.024 235.965C480.478 235.295 480.067 234.545 479.794 233.716C479.607 234.304 479.354 234.864 479.035 235.397C478.716 235.931 478.352 236.402 477.941 236.812C477.536 237.218 477.107 237.537 476.656 237.77L476 236.922C476.579 236.639 477.117 236.215 477.613 235.65C478.115 235.085 478.513 234.452 478.81 233.75C479.11 233.048 479.263 232.36 479.268 231.686V230.1H476.438V229.211H483.055V230.1H480.32V231.686ZM484.545 227.953H485.611V232.875H487.648V233.791H485.611V240.107H484.545V227.953ZM494.717 228.787C494.717 229.238 494.667 229.689 494.566 230.141H497.301V227.967H498.381V235.213H497.301V233.6H494.074V232.711H497.301V231.029H494.272C493.867 231.977 493.204 232.795 492.283 233.483C491.367 234.167 490.246 234.689 488.92 235.049L488.496 234.188C489.485 233.914 490.346 233.556 491.08 233.114C491.814 232.668 492.393 232.153 492.816 231.569C493.24 230.986 493.489 230.35 493.562 229.662H489.111V228.787H494.717ZM490.205 235.746H498.381V240.094H497.301V236.607H490.205V235.746ZM515.047 238.549H503.918V237.66H508.922V235.035H505.23V228.814H506.311V231.016H512.627V228.814H513.68V235.035H509.975V237.66H515.047V238.549ZM512.627 234.16V231.891H506.311V234.16H512.627ZM527.133 235.773H524.193V240.107H523.113V235.773H519.996V240.107H518.889V235.773H516.004V234.885H527.133V235.773ZM517.262 231.098C517.262 230.564 517.439 230.1 517.795 229.703C518.155 229.302 518.656 228.992 519.299 228.773C519.946 228.555 520.693 228.445 521.541 228.445C522.389 228.445 523.134 228.555 523.776 228.773C524.424 228.992 524.925 229.302 525.28 229.703C525.64 230.1 525.82 230.564 525.82 231.098C525.82 231.631 525.64 232.096 525.28 232.492C524.925 232.889 524.424 233.194 523.776 233.408C523.134 233.618 522.389 233.723 521.541 233.723C520.693 233.723 519.946 233.618 519.299 233.408C518.656 233.194 518.155 232.889 517.795 232.492C517.439 232.096 517.262 231.631 517.262 231.098ZM518.369 231.098C518.365 231.449 518.494 231.758 518.759 232.027C519.023 232.292 519.395 232.497 519.873 232.643C520.356 232.788 520.912 232.861 521.541 232.861C522.17 232.861 522.724 232.788 523.202 232.643C523.681 232.497 524.054 232.292 524.323 232.027C524.592 231.763 524.727 231.453 524.727 231.098C524.727 230.742 524.592 230.43 524.323 230.161C524.054 229.892 523.681 229.685 523.202 229.539C522.724 229.393 522.17 229.32 521.541 229.32C520.912 229.32 520.356 229.393 519.873 229.539C519.395 229.685 519.023 229.892 518.759 230.161C518.494 230.43 518.365 230.742 518.369 231.098Z" fill="#D9D9D9"/>
<path d="M829.938 217.531L833.938 213.672C834.37 213.24 834.703 212.885 834.938 212.609C835.177 212.328 835.359 212.052 835.484 211.781C835.609 211.505 835.672 211.214 835.672 210.906C835.672 210.562 835.586 210.26 835.414 210C835.247 209.74 835.016 209.539 834.719 209.398C834.427 209.258 834.099 209.188 833.734 209.188C833.349 209.188 833.01 209.266 832.719 209.422C832.432 209.573 832.211 209.789 832.055 210.07C831.904 210.352 831.828 210.682 831.828 211.062H829.891C829.891 210.359 830.052 209.742 830.375 209.211C830.703 208.674 831.159 208.26 831.742 207.969C832.331 207.677 833 207.531 833.75 207.531C834.51 207.531 835.182 207.672 835.766 207.953C836.354 208.234 836.81 208.625 837.133 209.125C837.461 209.62 837.625 210.182 837.625 210.812C837.62 211.25 837.534 211.672 837.367 212.078C837.201 212.479 836.914 212.927 836.508 213.422C836.102 213.917 835.526 214.516 834.781 215.219L832.766 217.219V217.297H837.797V219H829.938V217.531ZM839.125 215.266L844.016 207.688H846.547V215.219H848.031V216.891H846.547V219H844.609V216.891H839.125V215.266ZM844.641 215.219V210H844.516L841.203 215.141V215.219H844.641ZM854.531 209.656C854.526 210.526 854.669 211.372 854.961 212.195C855.253 213.018 855.674 213.75 856.227 214.391C856.779 215.031 857.427 215.51 858.172 215.828L857.141 217.219C856.344 216.849 855.648 216.312 855.055 215.609C854.466 214.901 854.005 214.076 853.672 213.133C853.339 214.148 852.867 215.039 852.258 215.805C851.654 216.57 850.932 217.151 850.094 217.547L849.031 216.094C849.797 215.766 850.461 215.271 851.023 214.609C851.586 213.943 852.016 213.18 852.312 212.32C852.609 211.461 852.76 210.573 852.766 209.656V207.406H854.531V209.656ZM859.188 206.266H860.938V220.406H859.188V206.266ZM874.156 210.328H876.125V211.781H874.156V216.453H872.391V206.266H874.156V210.328ZM862.969 213.609C864.036 213.302 864.961 212.906 865.742 212.422C866.523 211.938 867.138 211.388 867.586 210.773C868.039 210.154 868.315 209.484 868.414 208.766H863.562V207.344H870.312C870.312 208.583 870.052 209.706 869.531 210.711C869.01 211.711 868.255 212.573 867.266 213.297C866.276 214.016 865.083 214.578 863.688 214.984L862.969 213.609ZM865.078 215.406H866.844V218.703H874.688V220.109H865.078V215.406ZM892.375 216.531H890.625V206.281H892.375V216.531ZM880.859 213.656C882.474 213.182 883.755 212.521 884.703 211.672C885.656 210.823 886.214 209.849 886.375 208.75H881.641V207.328H888.266C888.26 208.573 887.992 209.701 887.461 210.711C886.93 211.721 886.161 212.591 885.156 213.32C884.156 214.049 882.948 214.625 881.531 215.047L880.859 213.656ZM883.016 215.656H884.766V218.703H892.703V220.109H883.016V215.656ZM897.766 215.938H904.031V214.312H905.75V220.219H896.062V214.312H897.766V215.938ZM894.469 211.875H903.734C903.87 211.203 903.958 210.589 904 210.031C904.042 209.469 904.062 208.88 904.062 208.266H896.062V206.875H905.797V207.969V208.391C905.797 208.979 905.773 209.544 905.727 210.086C905.685 210.628 905.594 211.224 905.453 211.875H907.375V213.266H894.469V211.875ZM904.031 218.812V217.281H897.766V218.812H904.031ZM924.938 213.656H919.375V214.688H923.359V218H915.328V218.969H923.75V220.266H913.625V216.812H921.656V215.938H913.609V214.688H917.656V213.656H912.125V212.375H924.938V213.656ZM912.688 210.609C913.599 210.562 914.391 210.456 915.062 210.289C915.74 210.117 916.281 209.898 916.688 209.633C917.094 209.362 917.357 209.057 917.477 208.719H913.359V207.422H917.656V206.234H919.375V207.422H923.703V208.719H919.555C919.669 209.057 919.927 209.362 920.328 209.633C920.734 209.898 921.276 210.117 921.953 210.289C922.635 210.456 923.438 210.562 924.359 210.609L923.844 211.906C922.568 211.828 921.471 211.62 920.555 211.281C919.638 210.943 918.958 210.49 918.516 209.922C918.073 210.49 917.393 210.943 916.477 211.281C915.56 211.62 914.458 211.828 913.172 211.906L912.688 210.609ZM938.812 214.422H925.922V213.031H931.516V211.688H927.5V206.906H937.25V208.266H929.234V210.312H937.328V211.688H933.219V213.031H938.812V214.422ZM927.422 217.812C927.422 217.266 927.617 216.799 928.008 216.414C928.404 216.023 928.969 215.729 929.703 215.531C930.443 215.333 931.323 215.234 932.344 215.234C933.359 215.234 934.232 215.333 934.961 215.531C935.695 215.729 936.258 216.023 936.648 216.414C937.039 216.799 937.234 217.266 937.234 217.812C937.234 218.354 937.039 218.818 936.648 219.203C936.258 219.589 935.695 219.883 934.961 220.086C934.232 220.289 933.359 220.391 932.344 220.391C931.323 220.391 930.443 220.289 929.703 220.086C928.969 219.883 928.404 219.589 928.008 219.203C927.617 218.818 927.422 218.354 927.422 217.812ZM929.188 217.812C929.182 218.219 929.443 218.526 929.969 218.734C930.5 218.943 931.273 219.047 932.289 219.047C933.331 219.047 934.125 218.945 934.672 218.742C935.219 218.534 935.495 218.224 935.5 217.812C935.495 217.406 935.221 217.096 934.68 216.883C934.138 216.669 933.359 216.562 932.344 216.562C931.318 216.562 930.534 216.669 929.992 216.883C929.451 217.096 929.182 217.406 929.188 217.812Z" fill="white"/>
<path d="M839.514 236.799H838.434V227.967H839.514V236.799ZM829.697 234.598C830.682 234.297 831.543 233.91 832.281 233.436C833.02 232.957 833.605 232.408 834.038 231.788C834.471 231.168 834.726 230.501 834.804 229.785H830.34V228.883H835.986C835.982 229.917 835.743 230.865 835.269 231.727C834.795 232.588 834.12 233.335 833.245 233.969C832.37 234.602 831.333 235.104 830.135 235.473L829.697 234.598ZM831.598 236.074H832.678V238.945H839.842V239.848H831.598V236.074ZM844.107 236.525H850.191V234.912H851.258V239.943H843.041V234.912H844.107V236.525ZM841.592 232.93H849.87C849.998 232.333 850.082 231.788 850.123 231.296C850.169 230.799 850.191 230.289 850.191 229.765V229.402H843V228.514H851.258V229.402C851.258 230.045 851.237 230.626 851.196 231.146C851.16 231.665 851.069 232.26 850.923 232.93H852.721V233.818H841.592V232.93ZM850.191 239.068V237.373H844.107V239.068H850.191ZM861.266 229.922C861.266 230.464 861.393 230.988 861.648 231.494C861.908 231.995 862.266 232.438 862.722 232.82C863.182 233.203 863.704 233.495 864.287 233.695L863.699 234.543C863.029 234.297 862.439 233.935 861.929 233.456C861.423 232.973 861.035 232.412 860.767 231.774C860.507 232.494 860.115 233.123 859.591 233.661C859.067 234.199 858.449 234.607 857.738 234.885L857.164 234.023C857.766 233.8 858.297 233.479 858.757 233.06C859.217 232.64 859.575 232.155 859.83 231.604C860.085 231.048 860.213 230.46 860.213 229.84V228.582H861.266V229.922ZM858.777 237.865C858.777 237.405 858.939 237.011 859.263 236.683C859.586 236.35 860.051 236.097 860.657 235.924C861.263 235.751 861.981 235.664 862.811 235.664C863.64 235.664 864.353 235.751 864.95 235.924C865.552 236.097 866.012 236.35 866.331 236.683C866.655 237.011 866.816 237.405 866.816 237.865C866.816 238.335 866.657 238.733 866.338 239.062C866.019 239.394 865.559 239.647 864.957 239.82C864.355 239.993 863.64 240.08 862.811 240.08C861.977 240.08 861.257 239.993 860.65 239.82C860.049 239.647 859.586 239.394 859.263 239.062C858.939 238.729 858.777 238.33 858.777 237.865ZM859.857 237.865C859.853 238.148 859.969 238.392 860.206 238.597C860.443 238.802 860.783 238.959 861.225 239.068C861.671 239.178 862.2 239.232 862.811 239.232C863.421 239.232 863.948 239.178 864.39 239.068C864.836 238.959 865.178 238.802 865.415 238.597C865.657 238.392 865.777 238.148 865.777 237.865C865.777 237.592 865.657 237.355 865.415 237.154C865.178 236.949 864.836 236.794 864.39 236.689C863.943 236.58 863.417 236.525 862.811 236.525C862.204 236.525 861.678 236.58 861.231 236.689C860.785 236.799 860.443 236.954 860.206 237.154C859.969 237.355 859.853 237.592 859.857 237.865ZM865.641 227.953H866.707V231.125H868.539V232.027H866.707V235.35H865.641V227.953ZM878.793 231.631H880.611V232.533H878.793V236.211H877.713V227.967H878.793V231.631ZM869.25 234.789C870.658 234.789 871.757 234.775 872.545 234.748V233.784C871.82 233.72 871.251 233.538 870.836 233.237C870.421 232.937 870.216 232.547 870.221 232.068C870.221 231.713 870.337 231.405 870.569 231.146C870.802 230.886 871.132 230.688 871.561 230.551C871.989 230.414 872.49 230.346 873.064 230.346C873.639 230.346 874.14 230.414 874.568 230.551C874.997 230.688 875.327 230.886 875.56 231.146C875.797 231.401 875.917 231.708 875.922 232.068C875.917 232.542 875.71 232.93 875.3 233.23C874.89 233.531 874.327 233.714 873.611 233.777V234.707C874.842 234.648 875.958 234.548 876.961 234.406L877.057 235.158C875.945 235.35 874.78 235.479 873.563 235.548C872.351 235.616 871.082 235.65 869.756 235.65H869.373L869.25 234.789ZM869.551 229.006H872.545V227.857H873.611V229.006H876.592V229.84H869.551V229.006ZM870.877 238.234C870.877 237.833 871.032 237.492 871.342 237.209C871.656 236.926 872.112 236.715 872.709 236.573C873.306 236.427 874.026 236.357 874.869 236.361C875.712 236.357 876.432 236.427 877.029 236.573C877.626 236.715 878.082 236.926 878.396 237.209C878.715 237.492 878.875 237.833 878.875 238.234C878.87 238.836 878.52 239.296 877.822 239.615C877.13 239.934 876.145 240.098 874.869 240.107C873.593 240.098 872.606 239.934 871.909 239.615C871.216 239.296 870.872 238.836 870.877 238.234ZM871.246 232.068C871.242 232.374 871.403 232.615 871.731 232.793C872.06 232.966 872.504 233.053 873.064 233.053C873.625 233.053 874.069 232.966 874.397 232.793C874.73 232.615 874.896 232.374 874.896 232.068C874.896 231.877 874.821 231.708 874.671 231.562C874.525 231.412 874.315 231.298 874.042 231.221C873.773 231.139 873.456 231.098 873.092 231.098C872.522 231.098 872.071 231.187 871.738 231.364C871.406 231.537 871.242 231.772 871.246 232.068ZM871.957 238.234C871.948 238.562 872.199 238.82 872.709 239.007C873.219 239.194 873.939 239.287 874.869 239.287C875.794 239.287 876.51 239.194 877.016 239.007C877.521 238.82 877.777 238.562 877.781 238.234C877.777 237.893 877.521 237.628 877.016 237.441C876.51 237.255 875.794 237.163 874.869 237.168C873.935 237.163 873.213 237.255 872.702 237.441C872.196 237.628 871.948 237.893 871.957 238.234ZM886.49 230.223H890.031V228.473H891.098V233.764H885.438V228.473H886.49V230.223ZM890.031 232.889V231.057H886.49V232.889H890.031ZM886.668 234.816H894.42V237.756H887.748V239.096H894.871V239.971H886.695V236.936H893.354V235.678H886.668V234.816ZM893.354 227.953H894.42V230.592H896.252V231.494H894.42V234.242H893.354V227.953ZM900.641 230.373C900.645 230.824 900.748 231.266 900.948 231.699C901.149 232.132 901.438 232.522 901.816 232.868C902.195 233.21 902.637 233.477 903.143 233.668L902.582 234.488C902.008 234.265 901.511 233.948 901.092 233.538C900.677 233.128 900.358 232.656 900.135 232.123C899.907 232.72 899.576 233.258 899.144 233.736C898.711 234.215 898.202 234.579 897.619 234.83L897.031 233.996C897.551 233.773 898.004 233.463 898.392 233.066C898.784 232.67 899.084 232.237 899.294 231.768C899.504 231.294 899.611 230.829 899.615 230.373V228.719H900.641V230.373ZM899.246 237.92C899.242 237.464 899.401 237.075 899.725 236.751C900.053 236.423 900.524 236.174 901.14 236.006C901.755 235.833 902.482 235.746 903.32 235.746C904.154 235.746 904.877 235.833 905.487 236.006C906.103 236.174 906.576 236.423 906.909 236.751C907.242 237.075 907.408 237.464 907.408 237.92C907.408 238.371 907.242 238.758 906.909 239.082C906.576 239.406 906.103 239.652 905.487 239.82C904.877 239.993 904.154 240.08 903.32 240.08C902.482 240.08 901.755 239.993 901.14 239.82C900.524 239.652 900.053 239.406 899.725 239.082C899.401 238.758 899.242 238.371 899.246 237.92ZM900.312 237.92C900.308 238.193 900.424 238.43 900.661 238.631C900.903 238.827 901.247 238.977 901.693 239.082C902.145 239.191 902.675 239.246 903.286 239.246C903.906 239.246 904.444 239.194 904.899 239.089C905.355 238.984 905.708 238.831 905.959 238.631C906.21 238.43 906.337 238.193 906.342 237.92C906.337 237.642 906.212 237.403 905.966 237.202C905.72 236.997 905.369 236.84 904.913 236.73C904.462 236.621 903.931 236.566 903.32 236.566C902.701 236.566 902.163 236.621 901.707 236.73C901.256 236.84 900.91 236.997 900.668 237.202C900.426 237.403 900.308 237.642 900.312 237.92ZM903.689 228.199H904.701V231.234H906.314V227.967H907.34V235.473H906.314V232.123H904.701V235.09H903.689V228.199ZM916.951 231.221C916.951 231.941 917.099 232.656 917.396 233.367C917.692 234.074 918.09 234.702 918.592 235.254C919.098 235.805 919.649 236.215 920.246 236.484L919.59 237.332C918.893 236.995 918.264 236.487 917.703 235.808C917.143 235.124 916.716 234.352 916.425 233.49C916.147 234.406 915.725 235.227 915.16 235.951C914.595 236.676 913.957 237.218 913.246 237.578L912.562 236.676C913.164 236.402 913.718 235.981 914.224 235.411C914.729 234.841 915.131 234.19 915.427 233.456C915.728 232.718 915.88 231.973 915.885 231.221V229.006H916.951V231.221ZM921.572 227.953H922.652V240.135H921.572V227.953ZM928.668 238.098L932.045 234.543C932.487 234.069 932.824 233.688 933.057 233.401C933.294 233.11 933.474 232.829 933.597 232.561C933.72 232.292 933.781 232.009 933.781 231.713C933.781 231.38 933.695 231.089 933.521 230.838C933.348 230.583 933.111 230.384 932.811 230.243C932.514 230.102 932.182 230.031 931.812 230.031C931.425 230.031 931.086 230.111 930.794 230.271C930.502 230.425 930.277 230.642 930.117 230.92C929.962 231.198 929.885 231.521 929.885 231.891H928.723C928.718 231.316 928.85 230.808 929.119 230.366C929.393 229.924 929.769 229.58 930.247 229.334C930.726 229.088 931.261 228.965 931.854 228.965C932.441 228.965 932.968 229.086 933.433 229.327C933.902 229.569 934.269 229.899 934.533 230.318C934.798 230.738 934.93 231.202 934.93 231.713C934.925 232.091 934.854 232.453 934.718 232.8C934.586 233.142 934.358 233.522 934.034 233.941C933.711 234.361 933.253 234.876 932.66 235.486L930.391 237.824V237.906H935.107V239H928.682L928.668 238.098ZM936.434 235.965L940.891 229.102H942.408V235.896H943.789V236.977H942.408V239H941.232V236.977H936.434V235.965ZM941.232 235.896V230.66H941.109L937.76 235.814V235.896H941.232ZM949.299 231.221C949.299 231.941 949.447 232.656 949.743 233.367C950.039 234.074 950.438 234.702 950.939 235.254C951.445 235.805 951.997 236.215 952.594 236.484L951.938 237.332C951.24 236.995 950.611 236.487 950.051 235.808C949.49 235.124 949.064 234.352 948.772 233.49C948.494 234.406 948.073 235.227 947.508 235.951C946.943 236.676 946.305 237.218 945.594 237.578L944.91 236.676C945.512 236.402 946.065 235.981 946.571 235.411C947.077 234.841 947.478 234.19 947.774 233.456C948.075 232.718 948.228 231.973 948.232 231.221V229.006H949.299V231.221ZM953.92 227.953H955V240.135H953.92V227.953ZM971.666 234.201H966.648V235.336H970.244V237.961H963.025V239.15H970.613V239.971H961.959V237.195H969.191V236.143H961.932V235.336H965.596V234.201H960.605V233.367H971.666V234.201ZM961.193 231.986C961.95 231.936 962.643 231.82 963.271 231.638C963.905 231.455 964.422 231.214 964.823 230.913C965.224 230.608 965.457 230.259 965.521 229.867H961.74V229.02H965.596V227.885H966.648V229.02H970.545V229.867H966.73C966.794 230.259 967.024 230.608 967.421 230.913C967.822 231.214 968.339 231.455 968.973 231.638C969.606 231.82 970.303 231.936 971.064 231.986L970.736 232.807C969.665 232.715 968.717 232.506 967.893 232.178C967.072 231.85 966.484 231.408 966.129 230.852C965.769 231.408 965.176 231.85 964.352 232.178C963.531 232.506 962.583 232.715 961.508 232.807L961.193 231.986ZM983.779 234.83H972.691V233.969H977.709V232.547H974.1V228.527H982.398V229.389H975.152V231.672H982.48V232.547H978.748V233.969H983.779V234.83ZM974.031 237.906C974.031 237.446 974.198 237.054 974.53 236.73C974.863 236.402 975.344 236.152 975.973 235.979C976.602 235.805 977.354 235.719 978.229 235.719C979.094 235.719 979.84 235.805 980.464 235.979C981.088 236.152 981.567 236.402 981.899 236.73C982.237 237.054 982.408 237.446 982.412 237.906C982.408 238.371 982.239 238.765 981.906 239.089C981.574 239.417 981.093 239.668 980.464 239.841C979.84 240.014 979.094 240.103 978.229 240.107C977.354 240.103 976.602 240.014 975.973 239.841C975.344 239.668 974.863 239.417 974.53 239.089C974.198 238.761 974.031 238.367 974.031 237.906ZM975.125 237.906C975.12 238.184 975.239 238.426 975.48 238.631C975.727 238.831 976.08 238.984 976.54 239.089C977 239.194 977.549 239.246 978.188 239.246C979.172 239.246 979.94 239.13 980.491 238.897C981.047 238.665 981.327 238.335 981.332 237.906C981.332 237.628 981.207 237.389 980.956 237.188C980.705 236.988 980.348 236.835 979.883 236.73C979.418 236.621 978.867 236.566 978.229 236.566C977.581 236.566 977.023 236.621 976.554 236.73C976.089 236.835 975.733 236.988 975.487 237.188C975.241 237.389 975.12 237.628 975.125 237.906ZM992.584 231.221C992.584 231.941 992.723 232.652 993.001 233.354C993.284 234.055 993.666 234.68 994.149 235.227C994.637 235.769 995.173 236.174 995.756 236.443L995.113 237.318C994.421 236.963 993.803 236.443 993.261 235.76C992.723 235.072 992.32 234.295 992.051 233.429C991.777 234.345 991.369 235.167 990.827 235.896C990.289 236.626 989.676 237.173 988.988 237.537L988.291 236.676C988.879 236.389 989.417 235.958 989.904 235.384C990.392 234.805 990.777 234.151 991.06 233.422C991.347 232.688 991.49 231.954 991.49 231.221V229.006H992.584V231.221ZM994.43 232.109H997.314V227.953H998.381V240.135H997.314V232.984H994.43V232.109ZM1010.43 240.135H1009.35V227.953H1010.43V240.135ZM1001.12 228.992H1002.18V232.205H1005.8V228.992H1006.86V237.195H1001.12V228.992ZM1005.8 236.293V233.066H1002.18V236.293H1005.8ZM1018.56 229.744C1018.56 230.41 1018.78 231.05 1019.23 231.665C1019.68 232.28 1020.25 232.804 1020.94 233.237C1021.64 233.666 1022.34 233.946 1023.06 234.078L1022.57 234.98C1021.94 234.835 1021.33 234.598 1020.73 234.27C1020.13 233.941 1019.59 233.536 1019.11 233.053C1018.64 232.57 1018.27 232.041 1018.01 231.467C1017.76 232.041 1017.39 232.57 1016.91 233.053C1016.43 233.531 1015.89 233.937 1015.29 234.27C1014.7 234.598 1014.09 234.835 1013.46 234.98L1012.97 234.078C1013.68 233.941 1014.39 233.659 1015.07 233.23C1015.77 232.802 1016.33 232.28 1016.78 231.665C1017.22 231.05 1017.44 230.41 1017.44 229.744V228.814H1018.56V229.744ZM1012.5 237.564H1023.63V238.453H1012.5V237.564ZM1038.51 240.107H1037.48V227.953H1038.51V240.107ZM1027.97 236.867C1028.52 236.539 1029 236.09 1029.4 235.521C1029.81 234.946 1030.12 234.306 1030.33 233.6C1030.55 232.889 1030.65 232.164 1030.65 231.426V230.277H1028.31V229.389H1033.91V230.277H1031.69V231.426C1031.69 232.132 1031.79 232.82 1031.99 233.49C1032.2 234.16 1032.5 234.766 1032.9 235.309C1033.29 235.851 1033.76 236.279 1034.31 236.594L1033.65 237.387C1033.07 237.036 1032.56 236.55 1032.14 235.931C1031.72 235.306 1031.41 234.6 1031.19 233.812C1030.96 234.668 1030.63 235.434 1030.2 236.108C1029.76 236.778 1029.25 237.3 1028.65 237.674L1027.97 236.867ZM1032.98 232.342H1035.04V228.254H1036.05V239.479H1035.04V233.217H1032.98V232.342ZM1045.71 235.637C1046.58 235.637 1047.33 235.726 1047.97 235.903C1048.61 236.076 1049.11 236.332 1049.45 236.669C1049.8 237.002 1049.98 237.4 1049.98 237.865C1049.98 238.326 1049.8 238.722 1049.45 239.055C1049.11 239.387 1048.61 239.64 1047.97 239.813C1047.33 239.991 1046.58 240.08 1045.71 240.08C1044.85 240.08 1044.09 239.991 1043.45 239.813C1042.81 239.64 1042.32 239.387 1041.97 239.055C1041.63 238.722 1041.46 238.326 1041.46 237.865C1041.46 237.4 1041.63 237.002 1041.97 236.669C1042.32 236.332 1042.81 236.076 1043.45 235.903C1044.09 235.726 1044.85 235.637 1045.71 235.637ZM1040.23 233.627H1044.81V231.275H1045.86V233.627H1051.29V234.502H1040.23V233.627ZM1041.54 228.582H1049.88V229.607C1049.88 230.277 1049.86 230.845 1049.82 231.31C1049.78 231.77 1049.69 232.278 1049.54 232.834L1048.49 232.711C1048.63 232.155 1048.73 231.656 1048.76 231.214C1048.8 230.767 1048.82 230.232 1048.82 229.607V229.457H1041.54V228.582ZM1042.53 237.865C1042.53 238.143 1042.66 238.387 1042.92 238.597C1043.18 238.802 1043.55 238.959 1044.02 239.068C1044.51 239.178 1045.07 239.232 1045.71 239.232C1046.36 239.232 1046.92 239.178 1047.39 239.068C1047.88 238.959 1048.25 238.802 1048.51 238.597C1048.77 238.387 1048.91 238.143 1048.91 237.865C1048.91 237.578 1048.77 237.33 1048.51 237.12C1048.25 236.91 1047.88 236.749 1047.39 236.635C1046.92 236.516 1046.36 236.457 1045.71 236.457C1045.07 236.457 1044.51 236.516 1044.02 236.635C1043.55 236.749 1043.18 236.91 1042.92 237.12C1042.66 237.33 1042.53 237.578 1042.53 237.865Z" fill="#D9D9D9"/>
<path d="M36.5125 223.992L34.5292 222.008C34.2458 221.725 33.9153 221.583 33.5375 221.583C33.1597 221.583 32.8292 221.725 32.5458 222.008C32.2625 222.292 32.1208 222.628 32.1208 223.018C32.1208 223.407 32.2625 223.744 32.5458 224.027L35.5208 227.038C35.8042 227.321 36.1347 227.463 36.5125 227.463C36.8903 227.463 37.2208 227.321 37.5042 227.038L43.525 221.017C43.8083 220.733 43.95 220.397 43.95 220.007C43.95 219.618 43.8083 219.281 43.525 218.998C43.2417 218.715 42.9052 218.573 42.5156 218.573C42.126 218.573 41.7896 218.715 41.5062 218.998L36.5125 223.992ZM37.5396 236.99C37.3979 236.966 37.2562 236.931 37.1146 236.883C33.9271 235.821 31.3889 233.855 29.5 230.987C27.6111 228.118 26.6667 225.031 26.6667 221.725V215.031C26.6667 214.441 26.8378 213.91 27.1802 213.438C27.5226 212.965 27.9653 212.623 28.5083 212.41L37.0083 209.223C37.3389 209.105 37.6694 209.046 38 209.046C38.3305 209.046 38.6611 209.105 38.9917 209.223L47.4917 212.41C48.0347 212.623 48.4774 212.965 48.8198 213.438C49.1621 213.91 49.3333 214.441 49.3333 215.031V221.725C49.3333 225.031 48.3889 228.118 46.5 230.987C44.6111 233.855 42.0729 235.821 38.8854 236.883C38.7437 236.931 38.6021 236.966 38.4604 236.99C38.3187 237.013 38.1653 237.025 38 237.025C37.8347 237.025 37.6812 237.013 37.5396 236.99ZM38 234.192C40.4555 233.413 42.4861 231.854 44.0917 229.517C45.6972 227.179 46.5 224.582 46.5 221.725V215.031L38 211.844L29.5 215.031V221.725C29.5 224.582 30.3028 227.179 31.9083 229.517C33.5139 231.854 35.5444 233.413 38 234.192Z" fill="#1DB8CE"/>
<path d="M407.5 231.5H416V230.862C416 230.461 415.888 230.089 415.664 229.747C415.439 229.404 415.126 229.139 414.725 228.95C414.253 228.737 413.775 228.578 413.291 228.472C412.807 228.365 412.293 228.312 411.75 228.312C411.207 228.312 410.693 228.365 410.209 228.472C409.725 228.578 409.247 228.737 408.775 228.95C408.374 229.139 408.061 229.404 407.836 229.747C407.612 230.089 407.5 230.461 407.5 230.862V231.5ZM419.896 229.375H423.437C423.744 229.375 423.998 229.274 424.199 229.074C424.4 228.873 424.5 228.619 424.5 228.312C424.5 228.005 424.4 227.751 424.199 227.551C423.998 227.35 423.744 227.25 423.437 227.25H419.896C419.589 227.25 419.335 227.35 419.134 227.551C418.934 227.751 418.833 228.005 418.833 228.312C418.833 228.619 418.934 228.873 419.134 229.074C419.335 229.274 419.589 229.375 419.896 229.375ZM413.255 226.63C413.668 226.217 413.875 225.715 413.875 225.125C413.875 224.534 413.668 224.033 413.255 223.619C412.842 223.206 412.34 223 411.75 223C411.16 223 410.658 223.206 410.245 223.619C409.832 224.033 409.625 224.534 409.625 225.125C409.625 225.715 409.832 226.217 410.245 226.63C410.658 227.043 411.16 227.25 411.75 227.25C412.34 227.25 412.842 227.043 413.255 226.63ZM419.896 225.125H423.437C423.744 225.125 423.998 225.024 424.199 224.824C424.4 224.623 424.5 224.369 424.5 224.062C424.5 223.755 424.4 223.501 424.199 223.301C423.998 223.1 423.744 223 423.437 223H419.896C419.589 223 419.335 223.1 419.134 223.301C418.934 223.501 418.833 223.755 418.833 224.062C418.833 224.369 418.934 224.623 419.134 224.824C419.335 225.024 419.589 225.125 419.896 225.125ZM404.667 237.166C403.887 237.166 403.22 236.889 402.666 236.334C402.111 235.779 401.833 235.112 401.833 234.333V218.75C401.833 217.971 402.111 217.303 402.666 216.749C403.22 216.194 403.887 215.916 404.667 215.916H411.75V211.666C411.75 210.887 412.027 210.22 412.582 209.665C413.137 209.11 413.804 208.833 414.583 208.833H417.417C418.196 208.833 418.863 209.11 419.418 209.665C419.973 210.22 420.25 210.887 420.25 211.666V215.916H427.333C428.112 215.916 428.779 216.194 429.334 216.749C429.889 217.303 430.167 217.971 430.167 218.75V234.333C430.167 235.112 429.889 235.779 429.334 236.334C428.779 236.889 428.112 237.166 427.333 237.166H404.667ZM404.667 234.333H427.333V218.75H420.25C420.25 219.529 419.973 220.196 419.418 220.751C418.863 221.306 418.196 221.583 417.417 221.583H414.583C413.804 221.583 413.137 221.306 412.582 220.751C412.027 220.196 411.75 219.529 411.75 218.75H404.667V234.333ZM414.583 218.75H417.417V211.666H414.583V218.75Z" fill="#1DB8CE"/>
<path d="M796 235C795.622 235 795.306 234.872 795.05 234.617C794.794 234.361 794.667 234.044 794.667 233.667C794.667 233.289 794.794 232.972 795.05 232.717C795.306 232.461 795.622 232.333 796 232.333H805.333V222.867C805.333 220.267 804.428 218.061 802.617 216.25C800.806 214.439 798.6 213.533 796 213.533C793.4 213.533 791.194 214.439 789.383 216.25C787.572 218.061 786.667 220.267 786.667 222.867V229.667C786.667 230.044 786.539 230.361 786.283 230.617C786.028 230.872 785.711 231 785.333 231C784.6 231 783.972 230.739 783.45 230.217C782.928 229.694 782.667 229.067 782.667 228.333V225.667C782.667 225.2 782.783 224.761 783.017 224.35C783.25 223.939 783.578 223.611 784 223.367L784.1 221.6C784.278 220.089 784.717 218.689 785.417 217.4C786.117 216.111 786.994 214.989 788.05 214.033C789.106 213.078 790.317 212.333 791.683 211.8C793.05 211.267 794.489 211 796 211C797.511 211 798.944 211.267 800.3 211.8C801.656 212.333 802.867 213.072 803.933 214.017C805 214.961 805.878 216.078 806.567 217.367C807.256 218.656 807.7 220.056 807.9 221.567L808 223.3C808.422 223.5 808.75 223.8 808.983 224.2C809.217 224.6 809.333 225.022 809.333 225.467V228.533C809.333 228.978 809.217 229.4 808.983 229.8C808.75 230.2 808.422 230.5 808 230.7V232.333C808 233.067 807.739 233.694 807.217 234.217C806.694 234.739 806.067 235 805.333 235H796ZM791.05 225.283C790.794 225.028 790.667 224.711 790.667 224.333C790.667 223.956 790.794 223.639 791.05 223.383C791.306 223.128 791.622 223 792 223C792.378 223 792.694 223.128 792.95 223.383C793.206 223.639 793.333 223.956 793.333 224.333C793.333 224.711 793.206 225.028 792.95 225.283C792.694 225.539 792.378 225.667 792 225.667C791.622 225.667 791.306 225.539 791.05 225.283ZM799.05 225.283C798.794 225.028 798.667 224.711 798.667 224.333C798.667 223.956 798.794 223.639 799.05 223.383C799.306 223.128 799.622 223 800 223C800.378 223 800.694 223.128 800.95 223.383C801.206 223.639 801.333 223.956 801.333 224.333C801.333 224.711 801.206 225.028 800.95 225.283C800.694 225.539 800.378 225.667 800 225.667C799.622 225.667 799.306 225.539 799.05 225.283ZM788.033 223.6C787.878 221.244 788.589 219.222 790.167 217.533C791.744 215.844 793.711 215 796.067 215C798.044 215 799.783 215.628 801.283 216.883C802.783 218.139 803.689 219.744 804 221.7C801.978 221.678 800.117 221.133 798.417 220.067C796.717 219 795.411 217.556 794.5 215.733C794.144 217.511 793.394 219.094 792.25 220.483C791.106 221.872 789.7 222.911 788.033 223.6Z" fill="#1DB8CE"/>
</svg>
