<svg width="74" height="15" viewBox="0 0 74 15" fill="none" xmlns="http://www.w3.org/2000/svg">
<path d="M8.26172 3.92578C8.19661 3.27474 7.90039 2.76693 7.37305 2.40234C6.8457 2.03776 6.17188 1.85547 5.35156 1.85547C4.78516 1.85547 4.28711 1.94661 3.85742 2.12891C3.43424 2.30469 3.10547 2.55208 2.87109 2.87109C2.63672 3.1901 2.51953 3.54818 2.51953 3.94531C2.51953 4.54427 2.76693 5.00651 3.26172 5.33203C3.75651 5.65755 4.36849 5.90495 5.09766 6.07422L6.46484 6.44531C9.17969 7.10286 10.5404 8.43099 10.5469 10.4297C10.5404 11.2305 10.3288 11.9434 9.91211 12.5684C9.50195 13.1934 8.89974 13.6849 8.10547 14.043C7.31771 14.3945 6.38021 14.5703 5.29297 14.5703C4.24479 14.5703 3.33008 14.4043 2.54883 14.0723C1.77409 13.7337 1.16536 13.252 0.722656 12.627C0.286458 12.002 0.0455729 11.263 0 10.4102H2.14844C2.20703 11.1523 2.52604 11.7188 3.10547 12.1094C3.69141 12.4935 4.42057 12.6888 5.29297 12.6953C5.89193 12.6953 6.42578 12.6009 6.89453 12.4121C7.36979 12.2168 7.74089 11.9466 8.00781 11.6016C8.28125 11.25 8.41797 10.8464 8.41797 10.3906C8.41797 10 8.30404 9.67122 8.07617 9.4043C7.84831 9.13737 7.54232 8.91927 7.1582 8.75C6.7806 8.57422 6.30859 8.41146 5.74219 8.26172L4.0625 7.8125C2.8776 7.48698 1.96615 7.01823 1.32812 6.40625C0.696615 5.79427 0.377604 5.01302 0.371094 4.0625C0.371094 3.26172 0.589193 2.55534 1.02539 1.94336C1.4681 1.32487 2.07031 0.846354 2.83203 0.507812C3.60026 0.169271 4.45964 0 5.41016 0C6.35417 0 7.19727 0.169271 7.93945 0.507812C8.68164 0.839844 9.26432 1.30534 9.6875 1.9043C10.1107 2.49674 10.332 3.17057 10.3516 3.92578H8.26172ZM22.4219 4.80469C22.3112 4.21224 22.0801 3.70117 21.7285 3.27148C21.3835 2.8418 20.9538 2.51628 20.4395 2.29492C19.9316 2.07357 19.375 1.96615 18.7695 1.97266C17.9492 1.96615 17.2168 2.17122 16.5723 2.58789C15.9342 2.99805 15.4297 3.60352 15.0586 4.4043C14.694 5.19857 14.5117 6.15234 14.5117 7.26562C14.5117 8.38542 14.694 9.3457 15.0586 10.1465C15.4297 10.9408 15.9342 11.543 16.5723 11.9531C17.2168 12.3633 17.9492 12.5651 18.7695 12.5586C19.3685 12.5651 19.9219 12.4609 20.4297 12.2461C20.9375 12.0247 21.3639 11.7025 21.709 11.2793C22.0605 10.8561 22.2982 10.3516 22.4219 9.76562L24.5898 9.78516C24.4401 10.7096 24.0983 11.5332 23.5645 12.2559C23.0371 12.972 22.3568 13.5319 21.5234 13.9355C20.6966 14.3327 19.7721 14.5312 18.75 14.5312C17.5195 14.5312 16.4225 14.2383 15.459 13.6523C14.4954 13.0664 13.7402 12.2266 13.1934 11.1328C12.653 10.0326 12.3828 8.74349 12.3828 7.26562C12.3828 5.78776 12.6562 4.50195 13.2031 3.4082C13.75 2.30794 14.5052 1.46484 15.4688 0.878906C16.4323 0.292969 17.526 0 18.75 0C19.7461 0 20.6576 0.192057 21.4844 0.576172C22.3112 0.953776 22.9948 1.50391 23.5352 2.22656C24.082 2.94922 24.4336 3.80859 24.5898 4.80469H22.4219ZM26.9141 0.195312H31.9531C33.0208 0.195312 33.9225 0.380859 34.6582 0.751953C35.3939 1.12305 35.944 1.64062 36.3086 2.30469C36.6732 2.96875 36.8555 3.74349 36.8555 4.62891C36.8555 5.59245 36.6374 6.41927 36.2012 7.10938C35.765 7.79297 35.1237 8.29753 34.2773 8.62305L37.4023 14.3359H34.9609L32.0898 9.00391H31.9531H29.0625V14.3359H26.9141V0.195312ZM31.7383 7.14844C32.7539 7.14193 33.4993 6.92708 33.9746 6.50391C34.4499 6.07422 34.6875 5.44922 34.6875 4.62891C34.6875 3.80208 34.4466 3.16406 33.9648 2.71484C33.4896 2.26562 32.7474 2.03776 31.7383 2.03125H29.0625V7.14844H31.7383ZM51.5234 7.26562C51.5234 8.74349 51.25 10.0326 50.7031 11.1328C50.1562 12.2266 49.3978 13.0664 48.4277 13.6523C47.4642 14.2383 46.3737 14.5312 45.1562 14.5312C43.9258 14.5312 42.8255 14.2383 41.8555 13.6523C40.8919 13.0599 40.1367 12.2168 39.5898 11.123C39.043 10.0228 38.7695 8.73698 38.7695 7.26562C38.7695 5.78776 39.043 4.50195 39.5898 3.4082C40.1367 2.30794 40.8919 1.46484 41.8555 0.878906C42.8255 0.292969 43.9258 0 45.1562 0C46.3737 0 47.4642 0.292969 48.4277 0.878906C49.3978 1.46484 50.1562 2.30794 50.7031 3.4082C51.25 4.50195 51.5234 5.78776 51.5234 7.26562ZM40.8984 7.26562C40.8984 8.38542 41.0807 9.3457 41.4453 10.1465C41.8164 10.9408 42.321 11.543 42.959 11.9531C43.6035 12.3633 44.3359 12.5651 45.1562 12.5586C45.9701 12.5651 46.696 12.3633 47.334 11.9531C47.9785 11.543 48.4831 10.9408 48.8477 10.1465C49.2122 9.3457 49.3945 8.38542 49.3945 7.26562C49.3945 6.14583 49.2122 5.1888 48.8477 4.39453C48.4831 3.59375 47.9785 2.98828 47.334 2.57812C46.696 2.16797 45.9701 1.96615 45.1562 1.97266C44.3359 1.96615 43.6035 2.16797 42.959 2.57812C42.321 2.98828 41.8164 3.59375 41.4453 4.39453C41.0807 5.1888 40.8984 6.14583 40.8984 7.26562ZM53.9453 0.195312H56.0938V12.4805H62.4805V14.3359H53.9453V0.195312ZM64.6875 0.195312H66.8359V12.4805H73.2227V14.3359H64.6875V0.195312Z" fill="white" fill-opacity="0.52"/>
</svg>
