<svg width="482" height="42" viewBox="0 0 482 42" fill="none" xmlns="http://www.w3.org/2000/svg">
<path d="M12.9326 6.77246H15.5117V8.23828H12.9326V16.7549H11.1699V0.148438H12.9326V6.77246ZM0 12.3203C2.07812 11.2812 3.68311 10.0133 4.81494 8.5166C5.95296 7.01986 6.61165 5.30046 6.79102 3.3584H0.834961V1.89258H8.59082C8.57845 4.42839 7.96305 6.70752 6.74463 8.72998C5.5262 10.7463 3.60579 12.4007 0.983398 13.6934L0 12.3203ZM30.2627 10.0381H28.5V5.82617H25.4014V4.37891H28.5V0.148438H30.2627V10.0381ZM16.4023 8.53516C17.2435 8.23828 17.9795 7.81152 18.6104 7.25488C19.2412 6.69206 19.7236 6.05192 20.0576 5.33447C20.3978 4.61084 20.5648 3.86556 20.5586 3.09863V2.72754H16.959V1.29883H25.9209V2.72754H22.3584V3.08008C22.3522 3.78516 22.5099 4.46859 22.8315 5.13037C23.1532 5.79215 23.617 6.38281 24.2231 6.90234C24.8293 7.41569 25.5436 7.81152 26.3662 8.08984L25.457 9.48145C24.5417 9.16602 23.7438 8.69596 23.0635 8.07129C22.3893 7.44043 21.8667 6.70443 21.4956 5.86328C21.1307 6.80339 20.5895 7.62907 19.8721 8.34033C19.1546 9.0516 18.3073 9.58659 17.3301 9.94531L16.4023 8.53516ZM19.0742 13.6377C19.0742 12.9821 19.2969 12.4224 19.7422 11.9585C20.1937 11.4884 20.84 11.1297 21.6812 10.8823C22.5285 10.6287 23.5335 10.502 24.6963 10.502C25.8529 10.502 26.8517 10.6287 27.6929 10.8823C28.534 11.1297 29.1803 11.4884 29.6318 11.9585C30.0895 12.4224 30.3184 12.9821 30.3184 13.6377C30.3184 14.2933 30.0895 14.853 29.6318 15.3169C29.1803 15.7869 28.534 16.1457 27.6929 16.3931C26.8517 16.6466 25.8529 16.7734 24.6963 16.7734C23.5335 16.7734 22.5285 16.6466 21.6812 16.3931C20.84 16.1457 20.1937 15.7869 19.7422 15.3169C19.2969 14.853 19.0742 14.2933 19.0742 13.6377ZM20.8184 13.6377C20.8122 14.2005 21.1493 14.6366 21.8296 14.9458C22.5161 15.2489 23.4717 15.3942 24.6963 15.3818C25.9085 15.3942 26.8548 15.2489 27.5352 14.9458C28.2217 14.6366 28.568 14.2005 28.5742 13.6377C28.568 13.0811 28.2279 12.6481 27.5537 12.3389C26.8857 12.0296 25.9518 11.875 24.752 11.875C23.5026 11.875 22.5316 12.0265 21.8389 12.3296C21.1523 12.6326 20.8122 13.0687 20.8184 13.6377ZM47.9824 9.68555H32.8232V8.25684H36.46V6.021C35.8044 5.75505 35.3034 5.41488 34.957 5.00049C34.6169 4.5861 34.4499 4.10677 34.4561 3.5625C34.4561 2.91309 34.6942 2.35335 35.1704 1.8833C35.6528 1.41325 36.3394 1.05762 37.23 0.816406C38.1268 0.56901 39.1813 0.445312 40.3936 0.445312C41.6058 0.445312 42.6572 0.56901 43.5479 0.816406C44.4385 1.05762 45.125 1.41325 45.6074 1.8833C46.0898 2.35335 46.3311 2.91309 46.3311 3.5625C46.3249 4.10677 46.1486 4.58919 45.8022 5.00977C45.4559 5.42415 44.958 5.76432 44.3086 6.03027V8.25684H47.9824V9.68555ZM34.623 13.7676C34.623 13.1367 34.8519 12.6017 35.3096 12.1626C35.7673 11.7235 36.4259 11.3895 37.2856 11.1606C38.1515 10.9318 39.1875 10.8174 40.3936 10.8174C41.5811 10.8174 42.6047 10.9318 43.4644 11.1606C44.3241 11.3895 44.9827 11.7266 45.4404 12.1719C45.8981 12.611 46.127 13.1429 46.127 13.7676C46.127 14.3984 45.8981 14.9365 45.4404 15.3818C44.9827 15.8271 44.3241 16.1642 43.4644 16.3931C42.6108 16.6219 41.5872 16.7363 40.3936 16.7363C39.1875 16.7363 38.1515 16.6219 37.2856 16.3931C36.4259 16.1642 35.7673 15.8271 35.3096 15.3818C34.8519 14.9427 34.623 14.4046 34.623 13.7676ZM36.2744 3.5625C36.2682 4.11296 36.627 4.53971 37.3506 4.84277C38.0742 5.14583 39.0885 5.30046 40.3936 5.30664C41.6924 5.30046 42.7036 5.14583 43.4272 4.84277C44.1571 4.53971 44.5189 4.11296 44.5127 3.5625C44.5127 3.19759 44.3488 2.88216 44.021 2.61621C43.6932 2.35026 43.2201 2.14925 42.6016 2.01318C41.9831 1.87093 41.2471 1.7998 40.3936 1.7998C39.0947 1.80599 38.0804 1.9637 37.3506 2.27295C36.627 2.57601 36.2682 3.00586 36.2744 3.5625ZM36.4043 13.7676C36.3981 14.2871 36.7445 14.6891 37.4434 14.9736C38.1423 15.252 39.1257 15.388 40.3936 15.3818C41.6491 15.3942 42.6232 15.2581 43.3159 14.9736C44.0148 14.6891 44.3643 14.2871 44.3643 13.7676C44.3643 13.2604 44.0148 12.8677 43.3159 12.5894C42.6232 12.311 41.6491 12.1719 40.3936 12.1719C39.1195 12.1719 38.133 12.311 37.4341 12.5894C36.7414 12.8677 36.3981 13.2604 36.4043 13.7676ZM42.5645 8.25684V6.48486C41.8965 6.59001 41.1729 6.64258 40.3936 6.64258C39.6514 6.64258 38.9339 6.5931 38.2412 6.49414V8.25684H42.5645ZM59.9873 4.37891C59.9811 5.38086 60.1636 6.36735 60.5347 7.33838C60.9119 8.30941 61.4346 9.1722 62.1025 9.92676C62.7767 10.6751 63.5374 11.238 64.3848 11.6152L63.3271 13.0068C62.3809 12.5553 61.5428 11.8874 60.813 11.0029C60.0832 10.1185 59.5203 9.10417 59.1245 7.95996C58.7349 9.19694 58.1659 10.2886 57.4175 11.2349C56.6753 12.1812 55.8125 12.8955 54.8291 13.3779L53.7529 11.8936C54.6126 11.5163 55.3796 10.938 56.0537 10.1587C56.7279 9.37321 57.2536 8.4764 57.6309 7.46826C58.0143 6.45394 58.2061 5.42415 58.2061 4.37891V1.54004H59.9873V4.37891ZM65.8877 0.148438H67.6504V16.8105H65.8877V0.148438ZM78.7461 2.50488C78.7461 3.38314 79.0275 4.23665 79.5903 5.06543C80.1532 5.89421 80.9015 6.60238 81.8354 7.18994C82.7756 7.77132 83.7744 8.15788 84.832 8.34961L84.0156 9.81543C83.125 9.6237 82.2746 9.30827 81.4644 8.86914C80.6541 8.43001 79.9336 7.89502 79.3027 7.26416C78.6781 6.62712 78.1895 5.92513 77.8369 5.1582C77.4782 5.91895 76.9834 6.61784 76.3525 7.25488C75.7217 7.88574 75.0011 8.42074 74.1909 8.85986C73.3807 9.29899 72.5303 9.61751 71.6396 9.81543L70.8604 8.34961C71.9056 8.15169 72.889 7.76204 73.8105 7.18066C74.7383 6.5931 75.4836 5.88802 76.0464 5.06543C76.6092 4.23665 76.8906 3.38314 76.8906 2.50488V1.24316H78.7461V2.50488ZM70.3037 13.1182H85.5186V14.584H70.3037V13.1182ZM93.7939 2.65332H89.1553V4.45312H93.1445V5.82617H89.1553V7.81152C90.3057 7.79915 91.2767 7.76514 92.0684 7.70947C92.8662 7.65381 93.6764 7.55176 94.499 7.40332L94.666 8.79492C93.7568 8.9681 92.86 9.08252 91.9756 9.13818C91.0973 9.19385 89.9531 9.22168 88.543 9.22168H87.4668V1.20605H93.7939V2.65332ZM89.7861 10.873H100.9V16.5693H89.7861V10.873ZM99.1748 15.1406V12.2646H91.5488V15.1406H99.1748ZM93.9053 4.26758H95.9648V0.426758H97.6348V10.001H95.9648V5.69629H93.9053V4.26758ZM99.2305 0.148438H100.9V10.1309H99.2305V0.148438ZM117.451 16.7734H115.763V0.148438H117.451V16.7734ZM103.331 7.3291C103.331 6.1416 103.476 5.10872 103.767 4.23047C104.064 3.34603 104.481 2.66878 105.02 2.19873C105.564 1.72249 106.195 1.48438 106.912 1.48438C107.58 1.48438 108.171 1.68538 108.684 2.0874C109.204 2.48942 109.618 3.0708 109.927 3.83154C110.243 4.5861 110.434 5.47982 110.502 6.5127H112.386V0.463867H114.074V15.957H112.386V7.94141H110.512C110.462 9.01758 110.283 9.9515 109.974 10.7432C109.664 11.5286 109.247 12.1348 108.721 12.5615C108.195 12.9821 107.592 13.1924 106.912 13.1924C106.195 13.1924 105.564 12.9574 105.02 12.4873C104.481 12.0111 104.064 11.3307 103.767 10.4463C103.476 9.55566 103.331 8.5166 103.331 7.3291ZM104.964 7.3291C104.964 8.20117 105.041 8.95264 105.196 9.5835C105.357 10.2144 105.582 10.6968 105.873 11.0308C106.17 11.3586 106.516 11.5225 106.912 11.5225C107.32 11.5225 107.673 11.3586 107.97 11.0308C108.267 10.6968 108.495 10.2144 108.656 9.5835C108.817 8.95264 108.897 8.20117 108.897 7.3291C108.897 6.45085 108.817 5.69938 108.656 5.07471C108.495 4.44385 108.267 3.96452 107.97 3.63672C107.673 3.30273 107.32 3.13574 106.912 3.13574C106.516 3.13574 106.17 3.30273 105.873 3.63672C105.582 3.96452 105.357 4.44385 105.196 5.07471C105.041 5.70557 104.964 6.45703 104.964 7.3291ZM124.075 1.3916C124.824 1.3916 125.498 1.5957 126.098 2.00391C126.698 2.41211 127.183 2.9904 127.554 3.73877C127.931 4.48714 128.163 5.36849 128.25 6.38281H131.683V0.148438H133.427V16.8105H131.683V7.81152H128.269C128.207 8.88151 127.99 9.81234 127.619 10.604C127.248 11.3957 126.756 12.0049 126.144 12.4316C125.532 12.8522 124.842 13.0625 124.075 13.0625C123.253 13.0625 122.52 12.8244 121.876 12.3481C121.239 11.8719 120.742 11.1916 120.383 10.3071C120.03 9.42269 119.857 8.3929 119.863 7.21777C119.857 6.05501 120.03 5.03451 120.383 4.15625C120.742 3.27181 121.239 2.59147 121.876 2.11523C122.52 1.63281 123.253 1.3916 124.075 1.3916ZM121.533 7.21777C121.533 8.08366 121.638 8.83822 121.849 9.48145C122.065 10.1247 122.365 10.6195 122.749 10.9658C123.132 11.3122 123.574 11.4854 124.075 11.4854C124.576 11.4854 125.018 11.3122 125.402 10.9658C125.785 10.6195 126.082 10.1247 126.292 9.48145C126.509 8.83822 126.617 8.08366 126.617 7.21777C126.617 6.36426 126.509 5.61898 126.292 4.98193C126.076 4.3387 125.776 3.84391 125.393 3.49756C125.015 3.14502 124.576 2.96875 124.075 2.96875C123.574 2.96875 123.132 3.14502 122.749 3.49756C122.371 3.84391 122.074 4.3387 121.858 4.98193C121.641 5.61898 121.533 6.36426 121.533 7.21777ZM144.671 1.46582C144.665 3.74186 144.059 5.65918 142.853 7.21777C141.653 8.77637 139.729 9.99479 137.082 10.873L136.377 9.48145C138.968 8.6403 140.768 7.45898 141.776 5.9375L136.6 6.36426L136.321 4.93555L142.426 4.67578C142.63 4.10677 142.76 3.51302 142.815 2.89453H137.156V1.46582H144.671ZM139.197 11.2627H140.979V14.9922H150.312V16.4209H139.197V11.2627ZM144.615 5.3623H148.085V0.166992H149.848V12.4688H148.085V6.80957H144.615V5.3623ZM167.604 11.3184H160.813V16.7734H159.088V11.3184H152.39V9.92676H167.604V11.3184ZM154.282 0.816406H156.026V2.9873H163.931V0.816406H165.693V8.03418H154.282V0.816406ZM163.931 6.62402V4.39746H156.026V6.62402H163.931ZM182.689 16.8105H180.945V7.7373H177.643V6.29004H180.945V0.148438H182.689V16.8105ZM169.59 1.63281H177.364V3.06152H171.371V6.29004H176.659V7.7002H171.371V11.4111C172.862 11.4111 174.123 11.3802 175.156 11.3184C176.195 11.2503 177.241 11.1266 178.292 10.9473L178.478 12.376C177.315 12.5615 176.164 12.6914 175.026 12.7656C173.888 12.8337 172.509 12.8708 170.889 12.877H169.59V1.63281ZM204.157 16.7734H202.469V8.18262H200.316V15.9199H198.702V0.482422H200.316V6.73535H202.469V0.148438H204.157V16.7734ZM190.445 2.15234H196.68V3.58105H192.208V11.2812C193.29 11.2751 194.24 11.241 195.056 11.1792C195.879 11.1174 196.717 11.0029 197.57 10.8359L197.7 12.2832C196.772 12.4749 195.857 12.6048 194.954 12.6729C194.057 12.7347 192.925 12.7718 191.559 12.7842H190.445V2.15234ZM215.68 3.30273H206.328V1.89258H210.225V0H211.969V1.89258H215.68V3.30273ZM207.256 7.16211C207.256 6.5498 207.417 6.01172 207.738 5.54785C208.06 5.0778 208.508 4.71289 209.083 4.45312C209.665 4.19336 210.33 4.06348 211.078 4.06348C211.82 4.06348 212.482 4.19336 213.063 4.45312C213.645 4.71289 214.099 5.0778 214.427 5.54785C214.755 6.0179 214.919 6.55599 214.919 7.16211C214.919 7.76823 214.755 8.30632 214.427 8.77637C214.099 9.24023 213.645 9.60205 213.063 9.86182C212.482 10.1154 211.82 10.2422 211.078 10.2422C210.33 10.2422 209.665 10.1154 209.083 9.86182C208.508 9.60205 208.06 9.24023 207.738 8.77637C207.417 8.3125 207.256 7.77441 207.256 7.16211ZM208.907 7.16211C208.907 7.51465 208.994 7.82389 209.167 8.08984C209.346 8.34961 209.597 8.55062 209.918 8.69287C210.24 8.83512 210.617 8.90625 211.05 8.90625C211.718 8.90625 212.256 8.75163 212.665 8.44238C213.073 8.12695 213.28 7.7002 213.286 7.16211C213.28 6.80957 213.184 6.50033 212.999 6.23438C212.813 5.96842 212.553 5.76432 212.219 5.62207C211.891 5.47363 211.511 5.39941 211.078 5.39941C210.645 5.39941 210.262 5.47363 209.928 5.62207C209.6 5.76432 209.346 5.96842 209.167 6.23438C208.994 6.50033 208.907 6.80957 208.907 7.16211ZM209 13.8789C209 13.279 209.223 12.7656 209.668 12.3389C210.119 11.9121 210.769 11.5874 211.616 11.3647C212.464 11.1359 213.472 11.0215 214.641 11.0215C215.797 11.0215 216.796 11.1359 217.637 11.3647C218.485 11.5874 219.134 11.9121 219.585 12.3389C220.037 12.7656 220.263 13.279 220.263 13.8789C220.263 14.4788 220.037 14.9922 219.585 15.4189C219.134 15.8519 218.485 16.1797 217.637 16.4023C216.796 16.625 215.797 16.7363 214.641 16.7363C213.472 16.7363 212.464 16.625 211.616 16.4023C210.769 16.1797 210.119 15.8519 209.668 15.4189C209.223 14.9922 209 14.4788 209 13.8789ZM210.837 13.8789C210.831 14.3613 211.162 14.7355 211.83 15.0015C212.504 15.2674 213.441 15.3942 214.641 15.3818C215.816 15.3942 216.734 15.2674 217.396 15.0015C218.058 14.7355 218.389 14.3613 218.389 13.8789C218.389 13.3965 218.058 13.0254 217.396 12.7656C216.74 12.5059 215.822 12.376 214.641 12.376C213.435 12.376 212.498 12.5059 211.83 12.7656C211.162 13.0254 210.831 13.3965 210.837 13.8789ZM215.717 7.29199H218.407V5.45508H215.735V4.02637H218.407V0.148438H220.17V10.8545H218.407V8.7207H215.717V7.29199ZM233.14 3.19141C233.14 3.93359 233.304 4.64795 233.631 5.33447C233.965 6.021 234.438 6.63021 235.051 7.16211C235.669 7.68783 236.393 8.08984 237.222 8.36816L236.312 9.75977C235.391 9.43815 234.587 8.96191 233.9 8.33105C233.22 7.69401 232.694 6.95182 232.323 6.10449C231.958 7.05078 231.423 7.87337 230.718 8.57227C230.019 9.26497 229.188 9.79069 228.223 10.1494L227.239 8.75781C228.099 8.46094 228.841 8.03109 229.466 7.46826C230.09 6.89925 230.567 6.24365 230.895 5.50146C231.222 4.75309 231.389 3.96452 231.396 3.13574V1.16895H233.14V3.19141ZM229.911 11.207H231.711V14.9922H241.155V16.4209H229.911V11.207ZM238.669 0.129883H240.432V5.13965H242.844V6.64258H240.432V12.3945H238.669V0.129883ZM248.392 0.90918C249.115 0.902995 249.777 1.02979 250.377 1.28955C250.977 1.54932 251.475 1.91732 251.871 2.39355C252.266 2.86361 252.523 3.40788 252.641 4.02637H255.888V0.148438H257.65V9.07324H255.888V5.47363H252.65C252.539 6.10449 252.285 6.66113 251.889 7.14355C251.493 7.62598 250.992 8.00016 250.386 8.26611C249.786 8.53206 249.121 8.66504 248.392 8.66504C247.55 8.66504 246.799 8.50114 246.137 8.17334C245.475 7.83936 244.959 7.37858 244.588 6.79102C244.217 6.19727 244.031 5.52311 244.031 4.76855C244.031 4.02637 244.217 3.36149 244.588 2.77393C244.959 2.18018 245.475 1.7194 246.137 1.3916C246.805 1.0638 247.557 0.902995 248.392 0.90918ZM245.72 4.76855C245.72 5.23242 245.831 5.6499 246.054 6.021C246.283 6.3859 246.598 6.67041 247 6.87451C247.408 7.07861 247.872 7.18066 248.392 7.18066C248.899 7.18066 249.35 7.07861 249.746 6.87451C250.148 6.67041 250.46 6.3859 250.683 6.021C250.912 5.65609 251.026 5.23861 251.026 4.76855C251.026 4.2985 250.912 3.88102 250.683 3.51611C250.46 3.1512 250.148 2.86979 249.746 2.67188C249.35 2.47396 248.899 2.375 248.392 2.375C247.872 2.375 247.408 2.47396 247 2.67188C246.598 2.86979 246.283 3.1512 246.054 3.51611C245.831 3.88102 245.72 4.2985 245.72 4.76855ZM246.814 9.87109H248.559V11.8008H255.888V9.87109H257.65V16.5693H246.814V9.87109ZM255.888 15.1221V13.1924H248.559V15.1221H255.888ZM275.37 9.68555H260.211V8.25684H263.848V6.021C263.192 5.75505 262.691 5.41488 262.345 5.00049C262.005 4.5861 261.838 4.10677 261.844 3.5625C261.844 2.91309 262.082 2.35335 262.558 1.8833C263.041 1.41325 263.727 1.05762 264.618 0.816406C265.514 0.56901 266.569 0.445312 267.781 0.445312C268.993 0.445312 270.045 0.56901 270.936 0.816406C271.826 1.05762 272.513 1.41325 272.995 1.8833C273.478 2.35335 273.719 2.91309 273.719 3.5625C273.713 4.10677 273.536 4.58919 273.19 5.00977C272.844 5.42415 272.346 5.76432 271.696 6.03027V8.25684H275.37V9.68555ZM262.011 13.7676C262.011 13.1367 262.24 12.6017 262.697 12.1626C263.155 11.7235 263.814 11.3895 264.673 11.1606C265.539 10.9318 266.575 10.8174 267.781 10.8174C268.969 10.8174 269.992 10.9318 270.852 11.1606C271.712 11.3895 272.37 11.7266 272.828 12.1719C273.286 12.611 273.515 13.1429 273.515 13.7676C273.515 14.3984 273.286 14.9365 272.828 15.3818C272.37 15.8271 271.712 16.1642 270.852 16.3931C269.999 16.6219 268.975 16.7363 267.781 16.7363C266.575 16.7363 265.539 16.6219 264.673 16.3931C263.814 16.1642 263.155 15.8271 262.697 15.3818C262.24 14.9427 262.011 14.4046 262.011 13.7676ZM263.662 3.5625C263.656 4.11296 264.015 4.53971 264.738 4.84277C265.462 5.14583 266.476 5.30046 267.781 5.30664C269.08 5.30046 270.091 5.14583 270.815 4.84277C271.545 4.53971 271.907 4.11296 271.9 3.5625C271.9 3.19759 271.736 2.88216 271.409 2.61621C271.081 2.35026 270.608 2.14925 269.989 2.01318C269.371 1.87093 268.635 1.7998 267.781 1.7998C266.482 1.80599 265.468 1.9637 264.738 2.27295C264.015 2.57601 263.656 3.00586 263.662 3.5625ZM263.792 13.7676C263.786 14.2871 264.132 14.6891 264.831 14.9736C265.53 15.252 266.513 15.388 267.781 15.3818C269.037 15.3942 270.011 15.2581 270.704 14.9736C271.403 14.6891 271.752 14.2871 271.752 13.7676C271.752 13.2604 271.403 12.8677 270.704 12.5894C270.011 12.311 269.037 12.1719 267.781 12.1719C266.507 12.1719 265.521 12.311 264.822 12.5894C264.129 12.8677 263.786 13.2604 263.792 13.7676ZM269.952 8.25684V6.48486C269.284 6.59001 268.561 6.64258 267.781 6.64258C267.039 6.64258 266.322 6.5931 265.629 6.49414V8.25684H269.952ZM295.131 8.70215H293.368V4.43457H289.861V3.00586H293.368V0.148438H295.131V8.70215ZM281.215 7.36621C282.068 7.09408 282.807 6.69824 283.432 6.17871C284.057 5.65299 284.536 5.04378 284.87 4.35107C285.204 3.65218 285.371 2.91309 285.371 2.13379V0.686523H287.115V2.13379C287.115 2.83887 287.276 3.51611 287.598 4.16553C287.925 4.80876 288.392 5.38086 288.999 5.88184C289.605 6.37663 290.319 6.75391 291.142 7.01367L290.214 8.38672C289.311 8.07129 288.519 7.61361 287.839 7.01367C287.165 6.41374 286.642 5.71484 286.271 4.91699C285.906 5.82617 285.371 6.61475 284.666 7.28271C283.967 7.9445 283.132 8.44238 282.161 8.77637L281.215 7.36621ZM284.258 9.48145H295.131V13.6191H286.021V15.1592H295.706V16.5693H284.295V12.2832H293.387V10.873H284.258V9.48145ZM311.459 16.8105H309.696V0.148438H311.459V16.8105ZM298.619 1.54004H300.382V5.80762H304.854V1.54004H306.598V12.8213H298.619V1.54004ZM304.854 11.374V7.19922H300.382V11.374H304.854ZM327.323 6.90234H329.735V8.34961H327.323V16.7734H325.561V0.148438H327.323V6.90234ZM313.964 12.0977C315.127 10.8854 315.974 9.57113 316.506 8.15479C317.044 6.73844 317.359 5.14583 317.452 3.37695H314.558V1.92969H319.122C319.116 3.43262 319.005 4.82113 318.788 6.09521C318.572 7.36312 318.185 8.58773 317.628 9.76904C317.078 10.9504 316.32 12.0544 315.355 13.0811L313.964 12.0977ZM318.714 13.2109C319.87 11.8626 320.696 10.3783 321.191 8.75781C321.686 7.13737 321.97 5.34375 322.044 3.37695H319.66V1.92969H323.705C323.705 3.52539 323.612 5.01286 323.427 6.39209C323.241 7.77132 322.882 9.12891 322.351 10.4648C321.825 11.8008 321.083 13.0378 320.124 14.1758L318.714 13.2109ZM336.656 5.04688C336.656 5.96224 336.842 6.87142 337.213 7.77441C337.59 8.67741 338.11 9.48454 338.771 10.1958C339.439 10.9071 340.194 11.4421 341.035 11.8008L340.07 13.1738C339.099 12.7471 338.24 12.1007 337.491 11.2349C336.743 10.369 336.174 9.3763 335.784 8.25684C335.395 9.45671 334.826 10.5298 334.077 11.4761C333.329 12.4224 332.475 13.1305 331.517 13.6006L330.496 12.209C331.319 11.8255 332.061 11.2534 332.723 10.4927C333.391 9.72575 333.913 8.86296 334.291 7.9043C334.674 6.94564 334.869 5.99316 334.875 5.04688V3.28418H331.071V1.81836H340.441V3.28418H336.656V5.04688ZM342.538 0.148438H344.301V16.7734H342.538V0.148438ZM348.457 19.0371H346.88L347.863 13.916H349.941L348.457 19.0371ZM0.556641 38.7119L5.21387 34.0176C5.77669 33.4362 6.20654 32.9661 6.50342 32.6074C6.80029 32.2425 7.02604 31.89 7.18066 31.5498C7.34147 31.2035 7.42188 30.8385 7.42188 30.4551C7.42188 30.0221 7.31364 29.6418 7.09717 29.314C6.8807 28.9862 6.58382 28.7326 6.20654 28.5532C5.82926 28.3739 5.4056 28.2842 4.93555 28.2842C4.44076 28.2842 4.00781 28.3831 3.63672 28.5811C3.27181 28.779 2.9873 29.0573 2.7832 29.416C2.58529 29.7686 2.48633 30.1829 2.48633 30.6592H0.556641C0.550456 29.8551 0.736003 29.1439 1.11328 28.5254C1.49056 27.9069 2.01628 27.4276 2.69043 27.0874C3.36458 26.7472 4.12533 26.5771 4.97266 26.5771C5.81999 26.5771 6.57454 26.7441 7.23633 27.0781C7.9043 27.4059 8.42383 27.8605 8.79492 28.4419C9.1722 29.0233 9.36393 29.6758 9.37012 30.3994C9.36393 30.9128 9.26497 31.4076 9.07324 31.8838C8.88151 32.3538 8.55371 32.8796 8.08984 33.4609C7.62598 34.0361 6.97038 34.7412 6.12305 35.5762L3.39551 38.3408V38.4521H9.59277V40.1963H0.556641V38.7119ZM16.4209 40.3818C15.5859 40.3818 14.8283 40.2241 14.1479 39.9087C13.4676 39.5933 12.9264 39.1541 12.5244 38.5913C12.1224 38.0285 11.9059 37.3945 11.875 36.6895H13.8604C13.8975 37.0667 14.0335 37.4069 14.2686 37.71C14.5036 38.0068 14.8097 38.2419 15.187 38.415C15.5643 38.5882 15.9756 38.6748 16.4209 38.6748C16.959 38.6748 17.4383 38.5542 17.8589 38.313C18.2856 38.0718 18.6196 37.7409 18.8608 37.3203C19.1021 36.8936 19.2227 36.4173 19.2227 35.8916C19.2227 35.3535 19.099 34.8711 18.8516 34.4443C18.6042 34.0114 18.2609 33.6743 17.8218 33.4331C17.3826 33.1857 16.8848 33.0589 16.3281 33.0527C15.1901 33.0527 14.4046 33.4486 13.9717 34.2402H12.042L12.9141 26.7627H20.5215V28.5068H14.6025L14.1572 32.2734H14.2871C14.5716 32.0013 14.9365 31.7848 15.3818 31.624C15.8333 31.457 16.3096 31.3704 16.8105 31.3643C17.6455 31.3643 18.397 31.5591 19.0649 31.9487C19.7329 32.3322 20.2555 32.8641 20.6328 33.5444C21.0163 34.2186 21.208 34.9824 21.208 35.8359C21.208 36.708 21.0039 37.4904 20.5957 38.1831C20.1875 38.8696 19.6185 39.4077 18.8887 39.7974C18.165 40.187 17.3424 40.3818 16.4209 40.3818ZM36.6641 37.4502H34.9014V31.791H30.3369V30.3809H34.9014V28.6367H30.3369V27.2266H34.9014V25.167H36.6641V37.4502ZM23.7871 26.3174H25.5312V33.5908C26.7373 33.5846 27.8722 33.5413 28.936 33.4609C29.9998 33.3743 31.0915 33.2259 32.2109 33.0156L32.3965 34.4629C31.1781 34.6917 29.9967 34.8494 28.8525 34.936C27.7145 35.0164 26.4528 35.0628 25.0674 35.0752H23.7871V26.3174ZM25.8281 36.374H27.6094V39.9922H37.0908V41.4209H25.8281V36.374ZM57.6309 41.8105H55.8682V25.1484H57.6309V41.8105ZM44.4385 32.2178C44.4385 31.055 44.6209 30.0345 44.9858 29.1562C45.3507 28.2718 45.8579 27.5915 46.5073 27.1152C47.1629 26.6328 47.9082 26.3916 48.7432 26.3916C49.5658 26.3916 50.3018 26.6328 50.9512 27.1152C51.6006 27.5915 52.1077 28.2718 52.4727 29.1562C52.8438 30.0345 53.0293 31.055 53.0293 32.2178C53.0293 33.3929 52.8438 34.4227 52.4727 35.3071C52.1077 36.1916 51.6006 36.8719 50.9512 37.3481C50.3018 37.8244 49.5658 38.0625 48.7432 38.0625C47.9082 38.0625 47.1629 37.8244 46.5073 37.3481C45.8579 36.8719 45.3507 36.1916 44.9858 35.3071C44.6209 34.4227 44.4385 33.3929 44.4385 32.2178ZM46.1455 32.2178C46.1455 33.0837 46.2537 33.8382 46.4702 34.4814C46.6867 35.1247 46.9897 35.6195 47.3794 35.9658C47.7752 36.3122 48.2298 36.4854 48.7432 36.4854C49.2503 36.4854 49.6987 36.3122 50.0884 35.9658C50.478 35.6195 50.7811 35.1247 50.9976 34.4814C51.214 33.8382 51.3223 33.0837 51.3223 32.2178C51.3223 31.3643 51.214 30.619 50.9976 29.9819C50.7811 29.3387 50.478 28.8439 50.0884 28.4976C49.6987 28.145 49.2503 27.9688 48.7432 27.9688C48.2298 27.9688 47.7752 28.145 47.3794 28.4976C46.9897 28.8439 46.6867 29.3387 46.4702 29.9819C46.2537 30.619 46.1455 31.3643 46.1455 32.2178ZM66.0176 27.8018C66.0176 28.5254 66.1784 29.2212 66.5 29.8892C66.8278 30.5571 67.2948 31.1478 67.9009 31.6611C68.507 32.1745 69.2152 32.5641 70.0254 32.8301L69.0791 34.2217C68.1823 33.9062 67.3968 33.4393 66.7227 32.8208C66.0547 32.1961 65.5382 31.4694 65.1733 30.6406C64.8084 31.5869 64.2765 32.4095 63.5776 33.1084C62.8849 33.8073 62.0592 34.333 61.1006 34.6855L60.1543 33.2754C61.0078 32.9723 61.7407 32.5394 62.353 31.9766C62.9715 31.4137 63.4447 30.7612 63.7725 30.019C64.1003 29.2707 64.2673 28.4821 64.2734 27.6533V26.0205H66.0176V27.8018ZM62.3994 38.6562C62.3994 38.013 62.6221 37.4595 63.0674 36.9956C63.5189 36.5317 64.1621 36.1792 64.9971 35.938C65.8382 35.6968 66.834 35.5762 67.9844 35.5762C69.1162 35.5762 70.0965 35.6968 70.9253 35.938C71.7541 36.1792 72.388 36.5317 72.8271 36.9956C73.2725 37.4595 73.4951 38.013 73.4951 38.6562C73.4951 39.3057 73.2725 39.8623 72.8271 40.3262C72.388 40.79 71.7541 41.1395 70.9253 41.3745C70.1027 41.6157 69.1224 41.7363 67.9844 41.7363C66.834 41.7363 65.8382 41.6157 64.9971 41.3745C64.1621 41.1395 63.5189 40.79 63.0674 40.3262C62.6221 39.8623 62.3994 39.3057 62.3994 38.6562ZM64.1621 38.6562C64.1559 39.2005 64.4868 39.618 65.1548 39.9087C65.8289 40.1994 66.7721 40.3509 67.9844 40.3633C69.1904 40.3509 70.1243 40.1994 70.7861 39.9087C71.4479 39.618 71.7757 39.2005 71.7695 38.6562C71.7695 38.3037 71.6211 38.0007 71.3242 37.7471C71.0273 37.4935 70.5944 37.3018 70.0254 37.1719C69.4564 37.0358 68.776 36.9678 67.9844 36.9678C67.1865 36.9678 66.5 37.0358 65.9248 37.1719C65.3558 37.3018 64.9198 37.4935 64.6167 37.7471C64.3136 38.0007 64.1621 38.3037 64.1621 38.6562ZM71.584 25.1484H73.3467V29.3232H75.7588V30.8076H73.3467V35.1865H71.584V25.1484ZM82.123 26.3359C82.9889 26.3359 83.7651 26.5029 84.4517 26.8369C85.1382 27.1647 85.6763 27.6317 86.0659 28.2378C86.4556 28.8377 86.6504 29.5212 86.6504 30.2881C86.6504 31.055 86.4556 31.7415 86.0659 32.3477C85.6763 32.9476 85.1382 33.4176 84.4517 33.7578C83.7651 34.0918 82.9889 34.2588 82.123 34.2588C81.2572 34.2588 80.4779 34.0918 79.7852 33.7578C79.0986 33.4176 78.5605 32.9476 78.1709 32.3477C77.7874 31.7415 77.5957 31.055 77.5957 30.2881C77.5957 29.5212 77.7874 28.8377 78.1709 28.2378C78.5605 27.6379 79.0986 27.1709 79.7852 26.8369C80.4779 26.5029 81.2572 26.3359 82.123 26.3359ZM76.7979 36.7637C78.8883 36.7637 80.818 36.7297 82.5869 36.6616C84.3558 36.5936 86.0443 36.4421 87.6523 36.207L87.7822 37.4873C86.1247 37.8089 84.4393 38.013 82.7261 38.0996C81.019 38.1862 79.1172 38.2295 77.0205 38.2295L76.7979 36.7637ZM79.3398 30.2881C79.3337 30.7705 79.4481 31.1973 79.6831 31.5684C79.9243 31.9333 80.2552 32.2178 80.6758 32.4219C81.1025 32.6198 81.585 32.7188 82.123 32.7188C82.6611 32.7188 83.1405 32.6198 83.561 32.4219C83.9878 32.2178 84.3218 31.9333 84.563 31.5684C84.8042 31.1973 84.9248 30.7705 84.9248 30.2881C84.9248 29.8118 84.8042 29.3913 84.563 29.0264C84.3218 28.6553 83.9878 28.3677 83.561 28.1636C83.1343 27.9595 82.6549 27.8574 82.123 27.8574C81.585 27.8574 81.1025 27.9595 80.6758 28.1636C80.2552 28.3677 79.9243 28.6553 79.6831 29.0264C79.4481 29.3913 79.3337 29.8118 79.3398 30.2881ZM88.6914 25.1484H90.4541V41.8105H88.6914V25.1484ZM111.625 37.3389H109.862V31.0859H106.689V29.6572H109.862V25.167H111.625V37.3389ZM97.7832 33.8691C98.6182 33.5846 99.348 33.1702 99.9727 32.626C100.604 32.0755 101.086 31.4447 101.42 30.7334C101.754 30.0221 101.921 29.2861 101.921 28.5254V27.876H98.3213V26.4287H107.283V27.876H103.721V28.5254C103.715 29.2181 103.872 29.8953 104.194 30.5571C104.522 31.2189 104.989 31.8096 105.595 32.3291C106.201 32.8486 106.912 33.2445 107.729 33.5166L106.819 34.9268C105.904 34.6051 105.106 34.1289 104.426 33.498C103.745 32.8672 103.22 32.1312 102.849 31.29C102.484 32.2178 101.943 33.0311 101.225 33.73C100.514 34.4289 99.6696 34.9515 98.6924 35.2979L97.7832 33.8691ZM100.826 36.2441H102.589V39.9922H112.07V41.4209H100.826V36.2441ZM129.382 34.9824H122.776V38.2109H121.032V34.9824H114.167V33.5537H129.382V34.9824ZM116.06 36.6338H117.822V39.9922H127.693V41.4209H116.06V36.6338ZM116.115 25.9277H127.415V31.8281H116.115V25.9277ZM125.671 30.4365V27.3193H117.841V30.4365H125.671ZM149.068 41.7734H147.287V25.1484H149.068V41.7734ZM135.412 37.3203C137.589 36.2812 139.244 35.0164 140.375 33.5259C141.507 32.0353 142.16 30.3066 142.333 28.3398H136.21V26.9297H144.114C144.114 29.5026 143.499 31.7879 142.268 33.7856C141.043 35.7834 139.067 37.4378 136.34 38.749L135.412 37.3203ZM160.146 25.7793C160.146 26.404 160.408 26.9915 160.934 27.542C161.46 28.0863 162.171 28.547 163.068 28.9243C163.965 29.2954 164.951 29.5397 166.027 29.6572L165.415 30.9932C164.03 30.8262 162.783 30.4644 161.676 29.9077C160.575 29.3449 159.762 28.646 159.236 27.811C158.704 28.646 157.888 29.3418 156.787 29.8984C155.686 30.4551 154.449 30.82 153.076 30.9932L152.464 29.6572C153.54 29.5397 154.527 29.2954 155.423 28.9243C156.32 28.547 157.031 28.0863 157.557 27.542C158.083 26.9915 158.346 26.404 158.346 25.7793V25.2227H160.146V25.7793ZM151.666 31.958H166.825V33.3682H160.108V34.8525H164.914V38.7861H155.229V40.252H165.378V41.6064H153.503V37.5059H163.17V36.207H153.484V34.8525H158.346V33.3682H151.666V31.958ZM176.01 30.9932H170.518V33.2939C172.045 33.2939 173.261 33.2692 174.164 33.2197C175.067 33.1641 175.966 33.0527 176.863 32.8857L177.03 34.3145C176.065 34.4753 175.091 34.5835 174.108 34.6392C173.125 34.6886 171.748 34.7165 169.979 34.7227H168.773V29.6572H174.247V27.5605H168.755V26.1504H176.01V30.9932ZM170.666 36.2256H181.947V41.792H180.185V37.6543H170.666V36.2256ZM177.067 31.0488H180.185V28.9893H177.067V27.5791H180.185V25.167H181.947V35.3906H180.185V32.459H177.067V31.0488ZM192.078 26.1504C193.235 26.1504 194.28 26.3452 195.214 26.7349C196.148 27.1183 196.881 27.6626 197.413 28.3677C197.951 29.0666 198.22 29.8737 198.22 30.7891C198.22 31.7044 197.951 32.5146 197.413 33.2197C196.881 33.9248 196.148 34.4691 195.214 34.8525C194.28 35.236 193.235 35.4277 192.078 35.4277C190.922 35.4277 189.876 35.236 188.942 34.8525C188.015 34.4691 187.285 33.9248 186.753 33.2197C186.221 32.5146 185.955 31.7044 185.955 30.7891C185.955 29.8799 186.221 29.0728 186.753 28.3677C187.285 27.6626 188.015 27.1183 188.942 26.7349C189.876 26.3452 190.922 26.1504 192.078 26.1504ZM184.508 38.1553H199.723V39.6211H184.508V38.1553ZM187.644 30.7891C187.644 31.4261 187.832 31.9858 188.209 32.4683C188.593 32.9507 189.122 33.3249 189.796 33.5908C190.47 33.8506 191.231 33.9805 192.078 33.9805C192.925 33.9805 193.683 33.8506 194.351 33.5908C195.025 33.3249 195.554 32.9507 195.938 32.4683C196.321 31.9858 196.513 31.4261 196.513 30.7891C196.513 30.1582 196.321 29.5985 195.938 29.1099C195.554 28.6213 195.025 28.244 194.351 27.978C193.677 27.7121 192.919 27.5791 192.078 27.5791C191.231 27.5791 190.47 27.7121 189.796 27.978C189.122 28.244 188.593 28.6213 188.209 29.1099C187.832 29.5985 187.644 30.1582 187.644 30.7891ZM216.144 39.7881H200.929V38.3037H207.627V35.3906H202.784V30.1025H212.544V27.7646H202.747V26.3174H214.288V31.5127H204.528V33.9434H214.678V35.3906H209.371V38.3037H216.144V39.7881ZM228.427 36.8564C230.14 36.7637 231.643 36.6214 232.936 36.4297L233.065 37.7285C231.408 38.0378 229.716 38.2357 227.991 38.3223C226.265 38.4089 224.369 38.4521 222.304 38.4521L222.081 37.0049C224.073 36.9925 225.6 36.9678 226.664 36.9307V33.9805H228.427V36.8564ZM222.526 33.1826C223.343 32.9476 224.054 32.6074 224.66 32.1621C225.272 31.7168 225.749 31.1973 226.089 30.6035C226.429 30.0098 226.615 29.3727 226.646 28.6924H222.972V27.2637H226.664V25.2783H228.427V27.2637H232.156V28.6924H228.427C228.458 29.3418 228.646 29.9541 228.993 30.5293C229.339 31.0983 229.818 31.5962 230.431 32.0229C231.049 32.4497 231.767 32.7744 232.583 32.9971L231.767 34.3701C230.783 34.0918 229.927 33.6619 229.197 33.0806C228.473 32.4992 227.923 31.8127 227.545 31.021C227.181 31.8621 226.639 32.5858 225.922 33.1919C225.204 33.798 224.351 34.2402 223.361 34.5186L222.526 33.1826ZM233.975 25.1484H235.737V41.8105H233.975V25.1484ZM244.365 28.0986C244.359 28.7975 244.517 29.4779 244.838 30.1396C245.16 30.8014 245.624 31.3921 246.23 31.9116C246.836 32.425 247.55 32.8239 248.373 33.1084L247.464 34.4814C246.549 34.166 245.751 33.6929 245.07 33.062C244.39 32.4312 243.864 31.6982 243.493 30.8633C243.128 31.791 242.587 32.6043 241.87 33.3032C241.158 33.9959 240.314 34.5124 239.337 34.8525L238.428 33.4609C239.263 33.1764 239.993 32.759 240.617 32.2085C241.242 31.6519 241.721 31.0179 242.055 30.3066C242.395 29.5954 242.565 28.8656 242.565 28.1172V27.6533H238.966V26.2246H247.928V27.6533H244.365V28.0986ZM241.007 35.9287H252.27V41.7734H250.507V37.3574H241.007V35.9287ZM247.427 29.3789H250.507V25.1484H252.27V35.0938H250.507V30.8262H247.427V29.3789ZM260.248 26.3359C261.114 26.3359 261.89 26.5029 262.577 26.8369C263.263 27.1647 263.801 27.6317 264.191 28.2378C264.581 28.8377 264.775 29.5212 264.775 30.2881C264.775 31.055 264.581 31.7415 264.191 32.3477C263.801 32.9476 263.263 33.4176 262.577 33.7578C261.89 34.0918 261.114 34.2588 260.248 34.2588C259.382 34.2588 258.603 34.0918 257.91 33.7578C257.224 33.4176 256.686 32.9476 256.296 32.3477C255.912 31.7415 255.721 31.055 255.721 30.2881C255.721 29.5212 255.912 28.8377 256.296 28.2378C256.686 27.6379 257.224 27.1709 257.91 26.8369C258.603 26.5029 259.382 26.3359 260.248 26.3359ZM254.923 36.7637C257.013 36.7637 258.943 36.7297 260.712 36.6616C262.481 36.5936 264.169 36.4421 265.777 36.207L265.907 37.4873C264.25 37.8089 262.564 38.013 260.851 38.0996C259.144 38.1862 257.242 38.2295 255.146 38.2295L254.923 36.7637ZM257.465 30.2881C257.459 30.7705 257.573 31.1973 257.808 31.5684C258.049 31.9333 258.38 32.2178 258.801 32.4219C259.228 32.6198 259.71 32.7188 260.248 32.7188C260.786 32.7188 261.265 32.6198 261.686 32.4219C262.113 32.2178 262.447 31.9333 262.688 31.5684C262.929 31.1973 263.05 30.7705 263.05 30.2881C263.05 29.8118 262.929 29.3913 262.688 29.0264C262.447 28.6553 262.113 28.3677 261.686 28.1636C261.259 27.9595 260.78 27.8574 260.248 27.8574C259.71 27.8574 259.228 27.9595 258.801 28.1636C258.38 28.3677 258.049 28.6553 257.808 29.0264C257.573 29.3913 257.459 29.8118 257.465 30.2881ZM266.816 25.1484H268.579V41.8105H266.816V25.1484ZM290.065 35.1865H288.396V30.8447H286.28V34.5928H284.647V25.4639H286.28V29.3975H288.396V25.167H290.065V35.1865ZM276.669 26.4658H278.432V32.3291C279.335 32.3167 280.194 32.2734 281.011 32.1992C281.833 32.125 282.687 32.0013 283.571 31.8281L283.738 33.2754C282.724 33.4733 281.75 33.6094 280.816 33.6836C279.888 33.7578 278.871 33.7949 277.764 33.7949H276.669V26.4658ZM278.877 38.582C278.871 37.9264 279.093 37.3605 279.545 36.8843C280.003 36.408 280.655 36.0431 281.502 35.7896C282.35 35.536 283.349 35.4092 284.499 35.4092C285.643 35.4092 286.639 35.536 287.486 35.7896C288.34 36.0431 288.999 36.408 289.462 36.8843C289.926 37.3605 290.158 37.9264 290.158 38.582C290.158 39.2314 289.926 39.7943 289.462 40.2705C288.999 40.7467 288.34 41.1086 287.486 41.356C286.639 41.6095 285.643 41.7363 284.499 41.7363C283.349 41.7363 282.35 41.6095 281.502 41.356C280.655 41.1086 280.003 40.7467 279.545 40.2705C279.093 39.7943 278.871 39.2314 278.877 38.582ZM280.621 38.582C280.615 38.9469 280.763 39.2624 281.066 39.5283C281.376 39.7943 281.818 39.9984 282.393 40.1406C282.974 40.2767 283.661 40.3447 284.453 40.3447C285.683 40.3447 286.645 40.1932 287.338 39.8901C288.037 39.5809 288.389 39.1449 288.396 38.582C288.396 38.2109 288.238 37.8924 287.922 37.6265C287.607 37.3543 287.159 37.1471 286.577 37.0049C285.996 36.8564 285.303 36.7822 284.499 36.7822C283.695 36.7822 282.999 36.8564 282.412 37.0049C281.83 37.1471 281.385 37.3543 281.076 37.6265C280.766 37.8924 280.615 38.2109 280.621 38.582ZM294.834 32.7373C296.071 32.7373 297.277 32.6878 298.452 32.5889C299.627 32.4837 300.821 32.3044 302.033 32.0508L302.237 33.498C300.926 33.7702 299.633 33.9619 298.359 34.0732C297.085 34.1784 295.774 34.2279 294.426 34.2217H293.071V26.3359H294.834V32.7373ZM294.871 35.9844H296.652V39.9922H305.948V41.4209H294.871V35.9844ZM303.61 25.167H305.373V30.0098H307.785V31.5127H305.373V37.1533H303.61V25.167ZM316.432 35.502C317.57 35.502 318.55 35.6257 319.373 35.873C320.201 36.1204 320.835 36.4792 321.274 36.9492C321.72 37.4131 321.942 37.9697 321.942 38.6191C321.942 39.2747 321.72 39.8376 321.274 40.3076C320.835 40.7839 320.201 41.1457 319.373 41.3931C318.55 41.6466 317.57 41.7734 316.432 41.7734C315.281 41.7734 314.285 41.6466 313.444 41.3931C312.609 41.1457 311.966 40.7839 311.515 40.3076C311.069 39.8376 310.847 39.2747 310.847 38.6191C310.847 37.9697 311.069 37.4131 311.515 36.9492C311.966 36.4792 312.609 36.1204 313.444 35.873C314.285 35.6257 315.281 35.502 316.432 35.502ZM309.381 26.1875H311.106V28.5811H315.467V26.1875H317.211V33.9062H309.381V26.1875ZM315.467 32.4961V29.9727H311.106V32.4961H315.467ZM312.609 38.6191C312.603 39.1758 312.937 39.6056 313.611 39.9087C314.285 40.2118 315.226 40.3633 316.432 40.3633C317.632 40.3633 318.562 40.2118 319.224 39.9087C319.892 39.6056 320.223 39.1758 320.217 38.6191C320.223 38.0687 319.892 37.645 319.224 37.3481C318.562 37.0451 317.632 36.8936 316.432 36.8936C315.226 36.8936 314.285 37.0451 313.611 37.3481C312.937 37.645 312.603 38.0687 312.609 38.6191ZM320.031 25.1484H321.794V29.2119H324.206V30.7148H321.794V35.0752H320.031V25.1484ZM338.233 32.2549H344.95V33.665H329.791V32.2549H336.489V30.1953H338.233V32.2549ZM330.589 29.7686C331.69 29.6572 332.686 29.416 333.576 29.0449C334.473 28.6738 335.178 28.21 335.691 27.6533C336.211 27.0905 336.471 26.4782 336.471 25.8164V25.2783H338.252V25.8164C338.252 26.4782 338.506 27.0905 339.013 27.6533C339.526 28.21 340.228 28.6738 341.119 29.0449C342.009 29.416 343.002 29.6572 344.097 29.7686L343.484 31.123C342.087 30.9375 340.843 30.5726 339.755 30.0283C338.673 29.484 337.872 28.7913 337.352 27.9502C336.833 28.7913 336.028 29.484 334.94 30.0283C333.858 30.5726 332.618 30.9375 331.22 31.123L330.589 29.7686ZM331.609 34.8711H343.039V38.8232H333.354V40.252H343.503V41.6064H331.628V37.543H341.295V36.2256H331.609V34.8711ZM359.608 30.2881H349.812V32.1992H359.961V33.6279H348.049V28.9336H357.809V27.1895H347.993V25.7607H359.608V30.2881ZM346.193 35.2051H361.408V36.6152H354.654V41.8105H352.892V36.6152H346.193V35.2051ZM368.496 28.1543C368.502 28.9521 368.663 29.7253 368.979 30.4736C369.3 31.2158 369.758 31.8776 370.352 32.459C370.951 33.0404 371.657 33.4857 372.467 33.7949L371.502 35.168C370.611 34.8092 369.835 34.2835 369.173 33.5908C368.512 32.8981 368.001 32.0941 367.643 31.1787C367.278 32.1621 366.749 33.0218 366.056 33.7578C365.363 34.4938 364.538 35.0505 363.579 35.4277L362.633 34.0176C363.474 33.7083 364.204 33.2568 364.822 32.6631C365.441 32.0632 365.917 31.3735 366.251 30.5942C366.585 29.8149 366.752 29.0016 366.752 28.1543V26.0947H368.496V28.1543ZM365.639 36.2998H367.42V39.9922H376.864V41.4209H365.639V36.2998ZM371.502 30.8818H374.73V28.9521H371.502V27.5234H374.73V25.167H376.493V37.543H374.73V32.3105H371.502V30.8818ZM386.624 25.4268C387.873 25.4268 388.94 25.535 389.825 25.7515C390.709 25.9679 391.386 26.2926 391.856 26.7256C392.326 27.1523 392.562 27.6719 392.562 28.2842C392.562 28.9027 392.326 29.4284 391.856 29.8613C391.386 30.2881 390.709 30.6128 389.825 30.8354C388.94 31.0519 387.873 31.1602 386.624 31.1602C385.375 31.1602 384.305 31.0519 383.414 30.8354C382.53 30.6128 381.852 30.2881 381.382 29.8613C380.918 29.4284 380.687 28.9027 380.687 28.2842C380.687 27.6719 380.918 27.1523 381.382 26.7256C381.852 26.2926 382.53 25.9679 383.414 25.7515C384.305 25.535 385.375 25.4268 386.624 25.4268ZM379.054 32.1807H394.213V33.5908H379.054V32.1807ZM380.872 34.8711H392.302V38.7676H382.616V40.252H392.766V41.6064H380.891V37.4873H390.558V36.1885H380.872V34.8711ZM382.523 28.2842C382.517 28.7975 382.867 29.1872 383.572 29.4531C384.277 29.7129 385.294 29.8428 386.624 29.8428C387.966 29.8428 388.99 29.7129 389.695 29.4531C390.4 29.1872 390.749 28.7975 390.743 28.2842C390.749 27.7894 390.394 27.4059 389.676 27.1338C388.965 26.8617 387.948 26.7256 386.624 26.7256C385.307 26.7256 384.292 26.8617 383.581 27.1338C382.87 27.4059 382.517 27.7894 382.523 28.2842ZM414.382 41.7734H412.693V25.1484H414.382V41.7734ZM399.872 37.1904C400.633 36.7327 401.279 36.1143 401.811 35.335C402.349 34.5557 402.751 33.6898 403.017 32.7373C403.289 31.7786 403.428 30.7952 403.435 29.7871V28.4512H400.373V27.0225H407.98V28.4512H405.123V29.7871C405.123 30.752 405.253 31.689 405.513 32.5981C405.779 33.5073 406.171 34.3299 406.691 35.0659C407.217 35.8019 407.857 36.3864 408.611 36.8193L407.554 38.1182C406.781 37.6605 406.119 37.0296 405.568 36.2256C405.024 35.4215 404.6 34.5031 404.297 33.4702C403.994 34.5897 403.558 35.5854 402.989 36.4575C402.42 37.3296 401.74 38.013 400.948 38.5078L399.872 37.1904ZM406.756 31.0303H409.335V25.501H411.005V40.9385H409.335V32.4775H406.756V31.0303ZM424.03 35.5947C425.224 35.5947 426.263 35.7184 427.147 35.9658C428.032 36.207 428.712 36.5596 429.188 37.0234C429.671 37.4873 429.912 38.0378 429.912 38.6748C429.912 39.3118 429.671 39.8592 429.188 40.3169C428.712 40.7808 428.032 41.1333 427.147 41.3745C426.263 41.6157 425.224 41.7363 424.03 41.7363C422.849 41.7363 421.816 41.6157 420.932 41.3745C420.053 41.1333 419.376 40.7808 418.9 40.3169C418.424 39.8592 418.186 39.3118 418.186 38.6748C418.186 38.0378 418.424 37.4873 418.9 37.0234C419.376 36.5596 420.053 36.207 420.932 35.9658C421.81 35.7184 422.843 35.5947 424.03 35.5947ZM416.553 32.793H422.62V29.6758H424.346V32.793H431.675V34.2217H416.553V32.793ZM418.315 25.9648H429.782V27.3564V27.8481C429.782 28.5656 429.751 29.2305 429.689 29.8428C429.634 30.4489 429.51 31.0921 429.318 31.7725L427.593 31.5869C427.791 30.8324 427.914 30.1551 427.964 29.5552C428.013 28.9491 428.038 28.2223 428.038 27.375H418.315V25.9648ZM419.948 38.6748C419.942 39.0273 420.103 39.3335 420.431 39.5933C420.765 39.8468 421.238 40.0417 421.85 40.1777C422.469 40.3138 423.195 40.3818 424.03 40.3818C424.878 40.3818 425.611 40.3138 426.229 40.1777C426.847 40.0417 427.324 39.8468 427.658 39.5933C427.992 39.3335 428.162 39.0273 428.168 38.6748C428.162 38.3161 427.992 38.0068 427.658 37.7471C427.324 37.4811 426.847 37.2801 426.229 37.144C425.611 37.0018 424.878 36.9307 424.03 36.9307C423.195 36.9307 422.469 37.0018 421.85 37.144C421.238 37.2801 420.765 37.4811 420.431 37.7471C420.103 38.0068 419.942 38.3161 419.948 38.6748ZM446.018 29.3232H448.43V30.8076H446.018V34.834H444.255V25.1484H446.018V29.3232ZM432.974 26.7812H437.056V25H438.818V26.7812H442.882V28.1914H432.974V26.7812ZM433.883 31.791C433.883 31.2096 434.05 30.6994 434.384 30.2603C434.718 29.8149 435.191 29.4748 435.803 29.2397C436.422 28.9985 437.13 28.8779 437.928 28.8779C438.719 28.8779 439.418 28.9985 440.024 29.2397C440.637 29.4748 441.11 29.8149 441.444 30.2603C441.784 30.6994 441.954 31.2096 441.954 31.791C441.954 32.3724 441.784 32.8857 441.444 33.3311C441.11 33.7702 440.637 34.1104 440.024 34.3516C439.418 34.5928 438.719 34.7103 437.928 34.7041C437.13 34.7103 436.422 34.5959 435.803 34.3608C435.191 34.1196 434.718 33.7764 434.384 33.3311C434.05 32.8857 433.883 32.3724 433.883 31.791ZM435.386 35.5205H437.13V37.1348H444.255V35.5205H446.018V41.5693H435.386V35.5205ZM435.59 31.791C435.584 32.1188 435.676 32.4033 435.868 32.6445C436.06 32.8857 436.332 33.0744 436.685 33.2104C437.043 33.3403 437.458 33.4053 437.928 33.4053C438.639 33.3991 439.211 33.2537 439.644 32.9692C440.077 32.6785 440.297 32.2858 440.303 31.791C440.297 31.4756 440.194 31.1973 439.997 30.9561C439.799 30.7148 439.523 30.5293 439.171 30.3994C438.818 30.2633 438.413 30.1953 437.956 30.1953C437.486 30.1953 437.071 30.2603 436.712 30.3901C436.354 30.52 436.075 30.7056 435.877 30.9468C435.68 31.188 435.584 31.4694 435.59 31.791ZM444.255 40.1592V38.5078H437.13V40.1592H444.255ZM463.181 41.7734H461.418V25.1484H463.181V41.7734ZM450.396 26.7627H452.141V36.0215C454.775 36.0091 457.324 35.7555 459.785 35.2607L460.026 36.7451C458.616 37.0358 457.237 37.243 455.889 37.3667C454.54 37.4904 453.174 37.5492 451.788 37.543H450.396V26.7627ZM478.748 31.5869H481.42V33.0342H478.748V41.8105H476.985V25.1484H478.748V31.5869ZM466.502 26.7441H474.276V28.1729H468.265V36.207C469.737 36.2008 471.029 36.1576 472.143 36.0771C473.256 35.9967 474.382 35.8545 475.52 35.6504L475.742 37.1348C474.567 37.3451 473.414 37.4873 472.282 37.5615C471.156 37.6357 469.817 37.6729 468.265 37.6729H467.838H466.502V26.7441Z" fill="white"/>
</svg>
