<svg width="121" height="17" viewBox="0 0 121 17" fill="none" xmlns="http://www.w3.org/2000/svg">
<path d="M14.6426 10.7402H8.38477V15.9785H6.16992V10.7402H0V8.94727H14.6426V10.7402ZM1.72266 0.773438H12.8848V7.22461H1.72266V0.773438ZM10.6523 5.4668V2.54883H3.9375V5.4668H10.6523ZM30.2168 14.2207H15.5742V12.375H19.3184V9.93164H17.2617V4.55273H26.3145V2.83008H17.2441V1.03711H28.5293V6.3457H19.5117V8.12109H28.8984V9.93164H26.6309V12.375H30.2168V14.2207ZM24.4336 12.375V9.93164H21.498V12.375H24.4336ZM48.7441 11.8125H46.5293V8.47266H42.873V6.67969H46.5293V4.88672H43.1016C42.5332 6.10547 41.6807 7.15723 40.5439 8.04199C39.4072 8.92676 38.0332 9.60938 36.4219 10.0898L35.4902 8.34961C37.1953 7.81055 38.5605 7.08105 39.5859 6.16113C40.6172 5.23535 41.2324 4.18359 41.4316 3.00586H36.3516V1.21289H43.8926C43.8926 1.83984 43.8281 2.4668 43.6992 3.09375H46.5293V0.0175781H48.7441V11.8125ZM38.2148 10.6348H40.5V13.9219H49.166V15.7148H38.2148V10.6348ZM60.0645 2.67188H56.8828C56.8887 3.32227 57.0234 3.95215 57.2871 4.56152C57.5566 5.16504 57.9668 5.70996 58.5176 6.19629C59.0684 6.68262 59.748 7.06055 60.5566 7.33008L59.4492 9.05273C58.5938 8.7832 57.8555 8.37891 57.2344 7.83984C56.6133 7.29492 56.124 6.65039 55.7666 5.90625C55.3975 6.73242 54.8877 7.44727 54.2373 8.05078C53.5869 8.64844 52.8047 9.09375 51.8906 9.38672L50.748 7.61133C51.5918 7.3418 52.3008 6.94922 52.875 6.43359C53.4492 5.91797 53.877 5.33496 54.1582 4.68457C54.4453 4.02832 54.5918 3.35742 54.5977 2.67188H51.3809V0.896484H60.0645V2.67188ZM53.332 10.2305H64.3184V15.9961H62.0859V12.0234H53.332V10.2305ZM59.6074 3.84961H62.0859V0H64.3184V9.52734H62.0859V5.67773H59.6074V3.84961ZM85.166 9.68555H79.1367V12.4453H76.9219V9.68555H70.5234V7.91016H85.166V9.68555ZM72.2461 11.0566H74.4785V13.9219H83.5488V15.7148H72.2461V11.0566ZM72.3516 0.703125H83.2852V6.5918H72.3516V0.703125ZM81.0879 4.85156V2.44336H74.5488V4.85156H81.0879ZM91.2832 1.07227C92.1211 1.07227 92.877 1.23926 93.5508 1.57324C94.2246 1.90723 94.752 2.37305 95.1328 2.9707C95.5195 3.5625 95.7129 4.23633 95.7129 4.99219C95.7129 5.74805 95.5195 6.4248 95.1328 7.02246C94.752 7.62012 94.2246 8.08887 93.5508 8.42871C92.877 8.7627 92.1211 8.92969 91.2832 8.92969C90.4512 8.92969 89.6953 8.7627 89.0156 8.42871C88.3359 8.08887 87.8027 7.62012 87.416 7.02246C87.0293 6.4248 86.8359 5.74805 86.8359 4.99219C86.8359 4.24219 87.0293 3.56836 87.416 2.9707C87.8027 2.37305 88.3359 1.90723 89.0156 1.57324C89.6953 1.23926 90.4512 1.07227 91.2832 1.07227ZM86.8271 10.9336C88.585 10.9336 90.2637 10.8984 91.8633 10.8281C93.4688 10.7578 94.9805 10.623 96.3984 10.4238L96.5742 12.041C95.0039 12.3457 93.4072 12.542 91.7842 12.6299C90.167 12.7178 88.3828 12.7617 86.4316 12.7617L86.168 10.9336H86.8271ZM89.0684 4.99219C89.0684 5.40234 89.1621 5.75977 89.3496 6.06445C89.543 6.36328 89.8066 6.5918 90.1406 6.75C90.4805 6.9082 90.8613 6.98438 91.2832 6.97852C91.7109 6.98438 92.0947 6.9082 92.4346 6.75C92.7744 6.5918 93.041 6.36328 93.2344 6.06445C93.4336 5.75977 93.5332 5.40234 93.5332 4.99219C93.5332 4.58789 93.4336 4.23633 93.2344 3.9375C93.041 3.63281 92.7744 3.40137 92.4346 3.24316C92.0947 3.08496 91.7109 3.00586 91.2832 3.00586C90.8613 3.00586 90.4805 3.08496 90.1406 3.24316C89.8066 3.40137 89.543 3.63281 89.3496 3.9375C89.1621 4.23633 89.0684 4.58789 89.0684 4.99219ZM97.3125 0H99.5449V16.0312H97.3125V0ZM112.588 13.6406L116.385 9.84375H107.455V7.76953H116.385L112.588 3.99023L114.012 2.58398L120.252 8.80664L114.012 15.0469L112.588 13.6406Z" fill="white"/>
</svg>
