<svg width="107" height="17" viewBox="0 0 107 17" fill="none" xmlns="http://www.w3.org/2000/svg">
<path d="M4.20362e-05 9.45023H14.76V10.6742H4.20362e-05V9.45023ZM6.60604 10.2062H8.08204V16.2722H6.60604V10.2062ZM1.89004 0.90023H12.87V7.25423H1.89004V0.90023ZM11.394 2.10623H3.34804V6.06623H11.394V2.10623ZM20.6986 9.54023H22.1566V13.5362H20.6986V9.54023ZM25.9006 9.52223H27.3586V13.5182H25.9006V9.52223ZM16.5766 13.0322H31.3366V14.2742H16.5766V13.0322ZM18.3766 1.20623H29.5006V6.13823H19.8886V9.39623H18.4126V4.93223H28.0246V2.43023H18.3766V1.20623ZM18.4126 8.74823H29.8786V9.97223H18.4126V8.74823ZM50.0957 0.0182298H51.5897V12.1322H50.0957V0.0182298ZM45.1277 1.27823H46.7117C46.7117 2.67023 46.3997 3.94823 45.7757 5.11223C45.1517 6.26423 44.2697 7.27223 43.1297 8.13623C41.9897 8.98823 40.6517 9.66623 39.1157 10.1702L38.4677 8.98223C39.7997 8.53823 40.9637 7.96823 41.9597 7.27223C42.9677 6.56423 43.7477 5.76023 44.2997 4.86023C44.8517 3.94823 45.1277 2.95823 45.1277 1.89023V1.27823ZM39.2777 1.27823H46.0457V2.50223H39.2777V1.27823ZM45.9557 3.34823H50.3117V4.59023H45.9557V3.34823ZM45.8117 7.02023H50.2577V8.24423H45.8117V7.02023ZM41.2937 14.7062H52.0037V15.9302H41.2937V14.7062ZM41.2937 10.9442H42.8057V15.4442H41.2937V10.9442ZM58.8963 1.65623H60.1203V2.98823C60.1203 3.97223 59.9283 4.89623 59.5443 5.76023C59.1723 6.62423 58.6443 7.38023 57.9603 8.02823C57.2763 8.66423 56.4843 9.15023 55.5843 9.48623L54.8103 8.29823C55.4103 8.08223 55.9563 7.79423 56.4483 7.43423C56.9523 7.07423 57.3903 6.66023 57.7623 6.19223C58.1343 5.71223 58.4163 5.20223 58.6083 4.66223C58.8003 4.11023 58.8963 3.55223 58.8963 2.98823V1.65623ZM59.1843 1.65623H60.4083V2.97023C60.4083 3.66623 60.5703 4.34423 60.8943 5.00423C61.2183 5.65223 61.6803 6.23423 62.2803 6.75023C62.8803 7.25423 63.5703 7.65023 64.3503 7.93823L63.5943 9.10823C62.7063 8.78423 61.9323 8.31623 61.2723 7.70423C60.6123 7.09223 60.0963 6.37823 59.7243 5.56223C59.3643 4.74623 59.1843 3.88223 59.1843 2.97023V1.65623ZM63.4683 4.24823H67.0863V5.49023H63.4683V4.24823ZM55.2783 1.11623H63.9723V2.34023H55.2783V1.11623ZM57.2763 10.6202H68.1483V16.2902H66.6543V11.8442H57.2763V10.6202ZM66.6543 0.000230074H68.1483V9.73823H66.6543V0.000230074ZM76.3594 8.31623H91.1194V9.54023H76.3594V8.31623ZM83.0914 9.09023H84.5854V12.8342H83.0914V9.09023ZM78.2674 0.77423H89.1934V6.48023H78.2674V0.77423ZM87.7354 1.96223H79.7254V5.29223H87.7354V1.96223ZM78.2314 14.7062H89.4814V15.9302H78.2314V14.7062ZM78.2314 11.2682H79.7254V15.1202H78.2314V11.2682ZM98.21 1.18823C99.062 1.18823 99.812 1.35023 100.46 1.67423C101.12 1.98623 101.636 2.43023 102.008 3.00623C102.38 3.58223 102.566 4.25423 102.566 5.02223C102.566 5.77823 102.38 6.45023 102.008 7.03823C101.636 7.61423 101.12 8.06423 100.46 8.38823C99.812 8.70023 99.062 8.85623 98.21 8.85623C97.37 8.85623 96.62 8.70023 95.96 8.38823C95.3 8.06423 94.778 7.61423 94.394 7.03823C94.022 6.45023 93.836 5.77823 93.836 5.02223C93.836 4.25423 94.022 3.58223 94.394 3.00623C94.778 2.43023 95.3 1.98623 95.96 1.67423C96.62 1.35023 97.37 1.18823 98.21 1.18823ZM98.21 2.48423C97.658 2.48423 97.16 2.59223 96.716 2.80823C96.284 3.01223 95.942 3.30623 95.69 3.69023C95.438 4.07423 95.312 4.51823 95.312 5.02223C95.312 5.52623 95.438 5.97023 95.69 6.35423C95.942 6.73823 96.284 7.03823 96.716 7.25423C97.16 7.45823 97.658 7.56023 98.21 7.56023C98.774 7.56023 99.272 7.45823 99.704 7.25423C100.136 7.03823 100.478 6.73823 100.73 6.35423C100.982 5.97023 101.108 5.52623 101.108 5.02223C101.108 4.51823 100.982 4.07423 100.73 3.69023C100.478 3.30623 100.136 3.01223 99.704 2.80823C99.272 2.59223 98.774 2.48423 98.21 2.48423ZM104.708 0.000230074H106.202V16.3082H104.708V0.000230074ZM93.224 12.7442L93.026 11.4842C94.022 11.4842 95.114 11.4782 96.302 11.4662C97.49 11.4422 98.714 11.3942 99.974 11.3222C101.246 11.2382 102.47 11.1062 103.646 10.9262L103.772 12.0242C102.548 12.2522 101.306 12.4202 100.046 12.5282C98.798 12.6242 97.592 12.6842 96.428 12.7082C95.264 12.7322 94.196 12.7442 93.224 12.7442Z" fill="black"/>
</svg>
