<svg width="334" height="18" viewBox="0 0 334 18" fill="none" xmlns="http://www.w3.org/2000/svg">
<path d="M15.9961 9.39453H8.86719V11.2695H7.03125V9.39453H0V7.87109H15.9961V9.39453ZM0.859375 5.27344C1.97917 5.14323 3.01107 4.86654 3.95508 4.44336C4.89909 4.01367 5.64779 3.49284 6.20117 2.88086C6.75456 2.26888 7.03125 1.6276 7.03125 0.957031V0.195312H8.92578V0.957031C8.92578 1.62109 9.20247 2.25911 9.75586 2.87109C10.3158 3.48307 11.0677 4.00391 12.0117 4.43359C12.9557 4.86328 13.9844 5.14323 15.0977 5.27344L14.4336 6.71875C13.4896 6.59505 12.5944 6.37044 11.748 6.04492C10.9082 5.7194 10.1628 5.3125 9.51172 4.82422C8.86719 4.33594 8.35938 3.78906 7.98828 3.18359C7.42839 4.10156 6.57227 4.87305 5.41992 5.49805C4.27409 6.11654 2.98177 6.52344 1.54297 6.71875L0.859375 5.27344ZM1.11328 16.0156C2.22005 15.9115 3.2194 15.6934 4.11133 15.3613C5.00977 15.0228 5.70964 14.6061 6.21094 14.1113C6.71875 13.6165 6.97266 13.0859 6.97266 12.5195V12.0312H8.88672V12.5195C8.88672 13.099 9.13737 13.6361 9.63867 14.1309C10.14 14.6191 10.8366 15.0293 11.7285 15.3613C12.6204 15.6934 13.6263 15.9115 14.7461 16.0156L14.1797 17.4219C12.7344 17.2656 11.4616 16.9336 10.3613 16.4258C9.26107 15.9245 8.45052 15.2865 7.92969 14.5117C7.40234 15.2865 6.5918 15.9277 5.49805 16.4355C4.4043 16.9434 3.14453 17.2721 1.71875 17.4219L1.11328 16.0156ZM23.3789 5.15625C23.3789 6.07422 23.5677 7.00521 23.9453 7.94922C24.3229 8.88672 24.8503 9.73958 25.5273 10.5078C26.2109 11.2695 26.9857 11.8555 27.8516 12.2656L26.7969 13.7109C25.8333 13.2487 24.974 12.5586 24.2188 11.6406C23.4635 10.7161 22.8841 9.67448 22.4805 8.51562C22.0768 9.77214 21.4811 10.9049 20.6934 11.9141C19.9121 12.9167 19.0299 13.6654 18.0469 14.1602L16.9531 12.6953C17.819 12.2786 18.6003 11.6667 19.2969 10.8594C20 10.0456 20.5501 9.13737 20.9473 8.13477C21.3444 7.12565 21.543 6.13281 21.543 5.15625V3.30078H17.5977V1.75781H27.1875V3.30078H23.3789V5.15625ZM29.0625 0H30.918V6.93359H33.7305V8.49609H30.918V17.5H29.0625V0ZM50.5859 15.4102H34.5703V13.8477H41.6211V10.7812H36.5234V5.21484H46.7969V2.75391H36.4844V1.23047H48.6328V6.69922H38.3594V9.25781H49.043V10.7812H43.457V13.8477H50.5859V15.4102ZM72.6953 9.74609H56.7383V8.24219H72.6953V9.74609ZM57.5781 5.85938C58.6263 5.7487 59.5866 5.52734 60.459 5.19531C61.3314 4.85677 62.0345 4.44336 62.5684 3.95508C63.1022 3.4668 63.4017 2.94271 63.4668 2.38281H58.2031V0.859375H71.2695V2.38281H65.9473C66.0189 2.94271 66.3184 3.4668 66.8457 3.95508C67.3796 4.44336 68.0827 4.85677 68.9551 5.19531C69.834 5.52734 70.8073 5.7487 71.875 5.85938L71.2109 7.32422C70.1953 7.20703 69.2513 6.99219 68.3789 6.67969C67.513 6.36068 66.7643 5.96029 66.1328 5.47852C65.5013 4.99674 65.0293 4.45312 64.7168 3.84766C64.3978 4.45312 63.9225 4.99674 63.291 5.47852C62.6595 5.96029 61.9076 6.36068 61.0352 6.67969C60.1693 6.99219 59.2318 7.20703 58.2227 7.32422L57.5781 5.85938ZM58.6328 14.2969C58.6328 13.6263 58.8737 13.0501 59.3555 12.5684C59.8372 12.0866 60.5339 11.722 61.4453 11.4746C62.3568 11.2207 63.444 11.0938 64.707 11.0938C65.957 11.0938 67.0345 11.2207 67.9395 11.4746C68.8444 11.722 69.5378 12.0866 70.0195 12.5684C70.5013 13.0501 70.7422 13.6263 70.7422 14.2969C70.7422 14.9674 70.5013 15.5404 70.0195 16.0156C69.5378 16.4909 68.8444 16.849 67.9395 17.0898C67.041 17.3372 65.9635 17.4609 64.707 17.4609C63.444 17.4609 62.3568 17.3372 61.4453 17.0898C60.5339 16.849 59.8372 16.4909 59.3555 16.0156C58.8737 15.5404 58.6328 14.9674 58.6328 14.2969ZM60.5078 14.2969C60.5013 14.8438 60.8561 15.2637 61.5723 15.5566C62.2949 15.8496 63.3171 15.9961 64.6387 15.9961C65.9928 15.9961 67.0378 15.8529 67.7734 15.5664C68.5156 15.2734 68.8867 14.8503 68.8867 14.2969C68.8867 13.737 68.5221 13.3073 67.793 13.0078C67.0703 12.7083 66.0417 12.5521 64.707 12.5391C63.3594 12.5521 62.321 12.7083 61.5918 13.0078C60.8626 13.3073 60.5013 13.737 60.5078 14.2969ZM88.6133 10.332H86.7578V7.73438H82.9492V9.16016H74.8242V1.30859H82.9492V2.75391H86.7578V0H88.6133V10.332ZM81.1328 7.67578V2.79297H76.6602V7.67578H81.1328ZM76.8359 14.1602C76.8359 13.457 77.0703 12.8548 77.5391 12.3535C78.0143 11.8522 78.6947 11.4714 79.5801 11.2109C80.472 10.9505 81.5299 10.8203 82.7539 10.8203C83.9714 10.8203 85.0228 10.9505 85.9082 11.2109C86.7936 11.4714 87.474 11.8522 87.9492 12.3535C88.431 12.8548 88.6719 13.457 88.6719 14.1602C88.6719 14.8568 88.431 15.4525 87.9492 15.9473C87.474 16.4421 86.7936 16.8164 85.9082 17.0703C85.0228 17.3307 83.9714 17.4609 82.7539 17.4609C81.5299 17.4609 80.472 17.3307 79.5801 17.0703C78.6947 16.8164 78.0143 16.4421 77.5391 15.9473C77.0703 15.4525 76.8359 14.8568 76.8359 14.1602ZM78.6719 14.1602C78.6719 14.5508 78.8314 14.8861 79.1504 15.166C79.4759 15.446 79.9447 15.6608 80.5566 15.8105C81.1686 15.9603 81.901 16.0352 82.7539 16.0352C83.6003 16.0352 84.3294 15.9603 84.9414 15.8105C85.5534 15.6608 86.0221 15.446 86.3477 15.166C86.6732 14.8861 86.8359 14.5508 86.8359 14.1602C86.8294 13.5482 86.4681 13.0794 85.752 12.7539C85.0358 12.4219 84.0365 12.2526 82.7539 12.2461C81.4583 12.2526 80.4525 12.4219 79.7363 12.7539C79.0202 13.0794 78.6654 13.5482 78.6719 14.1602ZM86.7578 6.23047V4.23828H82.9492V6.23047H86.7578ZM104.941 7.08984H107.754V8.63281H104.941V17.5H103.105V0H104.941V7.08984ZM91.2109 2.73438H95.5273V0.234375H97.3828V2.73438H101.582V4.25781H91.2109V2.73438ZM92.1094 9.60938C92.1094 8.82812 92.2949 8.12826 92.666 7.50977C93.0436 6.89128 93.5612 6.40951 94.2188 6.06445C94.8828 5.7194 95.6315 5.54688 96.4648 5.54688C97.2917 5.54688 98.0339 5.7194 98.6914 6.06445C99.3555 6.40951 99.8763 6.89128 100.254 7.50977C100.632 8.12826 100.82 8.82812 100.82 9.60938C100.82 10.3971 100.632 11.1003 100.254 11.7188C99.8763 12.3372 99.3555 12.8223 98.6914 13.1738C98.0339 13.5189 97.2917 13.6914 96.4648 13.6914C95.6315 13.6914 94.8828 13.5189 94.2188 13.1738C93.5612 12.8223 93.0436 12.3372 92.666 11.7188C92.2949 11.1003 92.1094 10.3971 92.1094 9.60938ZM93.8867 9.60938C93.8867 10.1107 93.9941 10.5534 94.209 10.9375C94.4303 11.3216 94.7363 11.6178 95.127 11.8262C95.5241 12.0345 95.9701 12.1354 96.4648 12.1289C96.9531 12.1354 97.3926 12.0345 97.7832 11.8262C98.1738 11.6178 98.4798 11.3216 98.7012 10.9375C98.929 10.5534 99.043 10.1107 99.043 9.60938C99.043 9.12109 98.929 8.6849 98.7012 8.30078C98.4798 7.91667 98.1738 7.61719 97.7832 7.40234C97.3926 7.18099 96.9531 7.07031 96.4648 7.07031C95.9701 7.07031 95.5241 7.18099 95.127 7.40234C94.7363 7.61719 94.4303 7.91667 94.209 8.30078C93.9941 8.6849 93.8867 9.12109 93.8867 9.60938ZM122.754 6.60156H110.703V0.625H112.539V5.11719H122.754V6.60156ZM108.574 8.80859H124.59V10.293H108.574V8.80859ZM110.566 11.9531H112.422V15.5664H122.871V17.0898H110.566V11.9531ZM140.781 3.32031H138.984V11.4746C139.941 11.3965 140.788 11.3151 141.523 11.2305L141.621 12.5781C139.993 12.8516 138.291 13.0339 136.514 13.125C134.736 13.2096 132.819 13.2552 130.762 13.2617L130.547 11.7188C130.99 11.7188 131.732 11.7122 132.773 11.6992V3.32031H130.977V1.79688H140.781V3.32031ZM134.57 11.6699C135.443 11.6504 136.315 11.6211 137.188 11.582V3.32031H134.57V11.6699ZM142.539 0H144.395V6.89453H147.207V8.41797H144.395V17.5H142.539V0ZM161.797 5.27344H164.355V6.83594H161.797V12.8906H159.941V0.0195312H161.797V5.27344ZM148.75 1.13281H156.719V6.28906H150.625V8.73047C152.201 8.73047 153.574 8.69141 154.746 8.61328C155.918 8.52865 157.122 8.37891 158.359 8.16406L158.555 9.6875C157.285 9.90885 156.029 10.0586 154.785 10.1367C153.548 10.2083 152.012 10.2474 150.176 10.2539H148.77V4.86328H154.902V2.65625H148.75V1.13281ZM150.801 11.8945H152.676V15.625H162.578V17.1289H150.801V11.8945ZM166.133 1.69922H175V3.55469H168.281V7.83203H174.531V9.66797H168.281V13.9844H175.078V15.8398H166.133V1.69922ZM189.043 15.8398H187.07L179.902 5.50781H179.785V15.8398H177.637V1.69922H179.629L186.797 12.0508H186.934V1.69922H189.043V15.8398ZM201.484 6.17188C201.217 5.31901 200.768 4.65495 200.137 4.17969C199.505 3.70443 198.73 3.47005 197.812 3.47656C197.012 3.47005 196.292 3.67513 195.654 4.0918C195.016 4.50195 194.512 5.10742 194.141 5.9082C193.776 6.70247 193.594 7.65625 193.594 8.76953C193.594 9.88281 193.776 10.8398 194.141 11.6406C194.512 12.4349 195.023 13.0404 195.674 13.457C196.325 13.8672 197.07 14.069 197.91 14.0625C198.659 14.0625 199.316 13.9128 199.883 13.6133C200.449 13.3138 200.889 12.8874 201.201 12.334C201.52 11.7741 201.686 11.1198 201.699 10.3711H198.223V8.59375H203.789V10.1953C203.789 11.3672 203.538 12.3958 203.037 13.2812C202.536 14.1602 201.839 14.8405 200.947 15.3223C200.055 15.7975 199.036 16.0352 197.891 16.0352C196.621 16.0352 195.501 15.7422 194.531 15.1562C193.561 14.5638 192.806 13.7207 192.266 12.627C191.732 11.5267 191.465 10.2409 191.465 8.76953C191.465 7.29818 191.735 6.01562 192.275 4.92188C192.816 3.82161 193.564 2.97852 194.521 2.39258C195.485 1.80013 196.576 1.50391 197.793 1.50391C198.802 1.50391 199.723 1.70247 200.557 2.09961C201.396 2.49023 202.09 3.04036 202.637 3.75C203.184 4.45312 203.535 5.26042 203.691 6.17188H201.484ZM211.172 1.25C212.083 1.25 212.9 1.42578 213.623 1.77734C214.346 2.1224 214.912 2.61393 215.322 3.25195C215.732 3.88346 215.938 4.60286 215.938 5.41016C215.938 6.21745 215.732 6.9401 215.322 7.57812C214.912 8.20964 214.346 8.70443 213.623 9.0625C212.9 9.41406 212.083 9.58984 211.172 9.58984C210.26 9.58984 209.44 9.41406 208.711 9.0625C207.988 8.70443 207.422 8.20964 207.012 7.57812C206.608 6.9401 206.406 6.21745 206.406 5.41016C206.406 4.60286 206.608 3.88346 207.012 3.25195C207.422 2.62044 207.988 2.12891 208.711 1.77734C209.44 1.42578 210.26 1.25 211.172 1.25ZM205.566 12.2266C207.767 12.2266 209.798 12.1908 211.66 12.1191C213.522 12.0475 215.299 11.888 216.992 11.6406L217.129 12.9883C215.384 13.3268 213.61 13.5417 211.807 13.6328C210.01 13.724 208.008 13.7695 205.801 13.7695L205.566 12.2266ZM208.242 5.41016C208.236 5.91797 208.356 6.36719 208.604 6.75781C208.857 7.14193 209.206 7.44141 209.648 7.65625C210.098 7.86458 210.605 7.96875 211.172 7.96875C211.738 7.96875 212.243 7.86458 212.686 7.65625C213.135 7.44141 213.486 7.14193 213.74 6.75781C213.994 6.36719 214.121 5.91797 214.121 5.41016C214.121 4.90885 213.994 4.46615 213.74 4.08203C213.486 3.69141 213.135 3.38867 212.686 3.17383C212.236 2.95898 211.732 2.85156 211.172 2.85156C210.605 2.85156 210.098 2.95898 209.648 3.17383C209.206 3.38867 208.857 3.69141 208.604 4.08203C208.356 4.46615 208.236 4.90885 208.242 5.41016ZM218.086 0H219.941V17.5391H218.086V0ZM242.227 12.832H240.371V6.25H237.031V4.74609H240.371V0.0195312H242.227V12.832ZM227.656 9.17969C228.535 8.88021 229.303 8.44401 229.961 7.87109C230.625 7.29167 231.133 6.6276 231.484 5.87891C231.836 5.13021 232.012 4.35547 232.012 3.55469V2.87109H228.223V1.34766H237.656V2.87109H233.906V3.55469C233.9 4.28385 234.066 4.99674 234.404 5.69336C234.749 6.38997 235.241 7.01172 235.879 7.55859C236.517 8.10547 237.266 8.52214 238.125 8.80859L237.168 10.293C236.204 9.95443 235.365 9.45312 234.648 8.78906C233.932 8.125 233.379 7.35026 232.988 6.46484C232.604 7.44141 232.035 8.29753 231.279 9.0332C230.531 9.76888 229.642 10.319 228.613 10.6836L227.656 9.17969ZM230.859 11.6797H232.715V15.625H242.695V17.1289H230.859V11.6797ZM260.918 10.3516H253.965V13.75H252.129V10.3516H244.902V8.84766H260.918V10.3516ZM246.895 12.0898H248.75V15.625H259.141V17.1289H246.895V12.0898ZM246.953 0.820312H258.848V7.03125H246.953V0.820312ZM257.012 5.56641V2.28516H248.77V5.56641H257.012ZM268.418 2.61719C268.418 3.43099 268.587 4.20573 268.926 4.94141C269.264 5.67057 269.753 6.31185 270.391 6.86523C271.029 7.41862 271.784 7.83854 272.656 8.125L271.641 9.57031C270.684 9.21875 269.857 8.71745 269.16 8.06641C268.464 7.41536 267.923 6.64714 267.539 5.76172C267.155 6.77734 266.589 7.65951 265.84 8.4082C265.091 9.1569 264.193 9.72005 263.145 10.0977L262.148 8.61328C263.066 8.30078 263.857 7.84831 264.521 7.25586C265.186 6.6569 265.693 5.9668 266.045 5.18555C266.396 4.4043 266.576 3.57422 266.582 2.69531V0.976562H268.418V2.61719ZM265.02 14.1602C265.02 13.457 265.254 12.8548 265.723 12.3535C266.198 11.8522 266.878 11.4714 267.764 11.2109C268.656 10.9505 269.714 10.8203 270.938 10.8203C272.155 10.8203 273.206 10.9505 274.092 11.2109C274.977 11.4714 275.658 11.8522 276.133 12.3535C276.615 12.8548 276.855 13.457 276.855 14.1602C276.855 14.8568 276.615 15.4525 276.133 15.9473C275.658 16.4421 274.977 16.8164 274.092 17.0703C273.206 17.3307 272.155 17.4609 270.938 17.4609C269.714 17.4609 268.656 17.3307 267.764 17.0703C266.878 16.8164 266.198 16.4421 265.723 15.9473C265.254 15.4525 265.02 14.8568 265.02 14.1602ZM266.855 14.1602C266.855 14.5443 267.012 14.873 267.324 15.1465C267.643 15.4199 268.105 15.6315 268.711 15.7812C269.316 15.9245 270.039 15.9961 270.879 15.9961C272.181 15.9961 273.193 15.8366 273.916 15.5176C274.645 15.1986 275.013 14.7461 275.02 14.1602C275.013 13.5612 274.648 13.0957 273.926 12.7637C273.21 12.4316 272.214 12.2656 270.938 12.2656C269.648 12.2656 268.643 12.4316 267.92 12.7637C267.204 13.0957 266.849 13.5612 266.855 14.1602ZM271.25 3.55469H274.941V0H276.797V10.332H274.941V5.07812H271.25V3.55469ZM289.238 2.94922C289.232 4.11458 289.199 5.20833 289.141 6.23047C289.082 7.2526 288.945 8.44401 288.73 9.80469L286.895 9.66797C287.096 8.42448 287.23 7.30794 287.295 6.31836C287.36 5.32878 287.396 4.34896 287.402 3.37891H280.293V1.875H289.238V2.94922ZM279.316 12.2266C280.911 12.2135 282.109 12.1973 282.91 12.1777V6.875H284.746V12.1191C286.966 12.028 288.802 11.888 290.254 11.6992L290.352 13.0859C287.689 13.5156 284.352 13.7305 280.342 13.7305H279.531L279.316 12.2266ZM291.25 0H293.125V7.22656H295.801V8.80859H293.125V17.5H291.25V0ZM316.172 12.832H314.316V0.0195312H316.172V12.832ZM301.758 8.88672C302.656 8.55469 303.434 8.07292 304.092 7.44141C304.749 6.8099 305.251 6.08398 305.596 5.26367C305.947 4.44336 306.126 3.59375 306.133 2.71484V0.976562H308.027V2.71484C308.027 3.56771 308.2 4.38151 308.545 5.15625C308.89 5.93099 309.388 6.61458 310.039 7.20703C310.69 7.79948 311.458 8.2487 312.344 8.55469L311.387 10.0391C310.384 9.66797 309.515 9.1276 308.779 8.41797C308.05 7.70182 307.487 6.86523 307.09 5.9082C306.699 6.93685 306.13 7.83854 305.381 8.61328C304.639 9.38151 303.763 9.96094 302.754 10.3516L301.758 8.88672ZM304.727 11.6211H306.602V15.625H316.699V17.1289H304.727V11.6211ZM329.18 6.40625H322.148V8.37891H329.629V9.84375H325.723V12.5195C327.578 12.4414 329.16 12.3307 330.469 12.1875L330.605 13.5547C327.826 13.9779 324.456 14.1895 320.498 14.1895L319.277 14.1797L319.043 12.6367C320.859 12.6367 322.474 12.6204 323.887 12.5879V9.84375H320.293V5.01953H327.344V3.06641H320.273V1.58203H329.18V6.40625ZM331.562 0H333.418V17.5391H331.562V0Z" fill="white"/>
</svg>
