<svg width="96" height="17" viewBox="0 0 96 17" fill="none" xmlns="http://www.w3.org/2000/svg">
<path d="M6.43359 3.62109C6.42773 4.62305 6.57715 5.58984 6.88184 6.52148C7.18652 7.45312 7.64355 8.28223 8.25293 9.00879C8.8623 9.73535 9.60352 10.2832 10.4766 10.6523L9.1582 12.4453C8.26758 12.041 7.5 11.4609 6.85547 10.7051C6.2168 9.94922 5.70996 9.06152 5.33496 8.04199C4.96582 9.15527 4.44727 10.125 3.7793 10.9512C3.11133 11.7715 2.30273 12.3984 1.35352 12.832L0 10.9688C0.902344 10.5879 1.66406 10.0225 2.28516 9.27246C2.91211 8.5166 3.38086 7.65234 3.69141 6.67969C4.00195 5.70117 4.16016 4.68164 4.16602 3.62109V1.23047H6.43359V3.62109ZM11.3379 0H13.6055V16.0312H11.3379V0ZM22.9746 9.9668C24.1406 9.9668 25.1514 10.0869 26.0068 10.3271C26.8623 10.5615 27.5215 10.9072 27.9844 11.3643C28.4473 11.8154 28.6816 12.3574 28.6875 12.9902C28.6816 13.6113 28.4473 14.1475 27.9844 14.5986C27.5215 15.0557 26.8594 15.4014 25.998 15.6357C25.1426 15.876 24.1348 15.9961 22.9746 15.9961C21.8203 15.9961 20.8125 15.876 19.9512 15.6357C19.0957 15.4014 18.4365 15.0557 17.9736 14.5986C17.5107 14.1475 17.2793 13.6113 17.2793 12.9902C17.2793 12.3574 17.5107 11.8154 17.9736 11.3643C18.4365 10.9072 19.0957 10.5615 19.9512 10.3271C20.8125 10.0869 21.8203 9.9668 22.9746 9.9668ZM15.8027 7.13672H21.252V4.3418H23.4668V7.13672H30.3223V8.94727H15.8027V7.13672ZM17.4375 0.720703H28.5996V2.02148V2.4873C28.5996 3.19043 28.5703 3.84082 28.5117 4.43848C28.4531 5.03613 28.3301 5.66016 28.1426 6.31055L25.9453 6.09961C26.1094 5.44336 26.2178 4.8457 26.2705 4.30664C26.3232 3.76172 26.3555 3.15234 26.3672 2.47852H17.4375V0.720703ZM19.5117 12.9902C19.5059 13.418 19.8018 13.7432 20.3994 13.9658C21.0029 14.1826 21.8613 14.291 22.9746 14.291C24.0879 14.291 24.9463 14.1826 25.5498 13.9658C26.1533 13.7432 26.4551 13.418 26.4551 12.9902C26.4551 12.5508 26.1562 12.2168 25.5586 11.9883C24.9668 11.7539 24.126 11.6367 23.0361 11.6367C21.8994 11.6367 21.0264 11.751 20.417 11.9795C19.8076 12.208 19.5059 12.5449 19.5117 12.9902ZM41.3613 3.62109C41.3555 4.59961 41.4932 5.54883 41.7744 6.46875C42.0557 7.38281 42.4805 8.20312 43.0488 8.92969C43.6172 9.65625 44.3145 10.2188 45.1406 10.6172L43.7871 12.4102C42.9551 11.9941 42.2432 11.4141 41.6514 10.6699C41.0596 9.91992 40.5938 9.04688 40.2539 8.05078C39.8906 9.12305 39.3955 10.0605 38.7686 10.8633C38.1416 11.6602 37.3887 12.2754 36.5098 12.709L35.1211 10.8984C35.9941 10.5 36.7295 9.92285 37.3271 9.16699C37.9248 8.40527 38.3701 7.54688 38.6631 6.5918C38.9619 5.63086 39.1113 4.64062 39.1113 3.62109V1.23047H41.3613V3.62109ZM45.8438 0H48.0938V6.16992H50.4492V8.06836H48.0938V15.9961H45.8438V0ZM56.9355 7.68164H53.6309V10.5205C55.0664 10.4795 56.4082 10.3594 57.6562 10.1602L57.832 11.9707C56.9414 12.123 56.0918 12.2285 55.2832 12.2871C54.4746 12.3398 53.5547 12.3691 52.5234 12.375H51.4863V5.92383H54.7559V3.33984H51.4688V1.56445H56.9355V7.68164ZM57.6738 7.91016H59.4316V5.73047H57.6738V3.9375H59.4316V0.263672H61.541V15.2227H59.4316V9.70312H57.6738V7.91016ZM62.7363 0H64.8633V15.9961H62.7363V0ZM81.2285 14.1328H66.5859V12.3047H72.7559V9.35156H68.1328V1.01953H70.3828V3.49805H77.3613V1.01953H79.5938V9.35156H74.9883V12.3047H81.2285V14.1328ZM77.3613 7.55859V5.29102H70.3828V7.55859H77.3613ZM95.5898 15.9961H93.3223V0H95.5898V15.9961ZM82.1953 11.4609C83.5605 10.8164 84.6855 10.0986 85.5703 9.30762C86.4609 8.5166 87.1406 7.64062 87.6094 6.67969C88.084 5.71289 88.3828 4.62891 88.5059 3.42773H83.0566V1.66992H90.791C90.7852 3.38086 90.5537 4.93652 90.0967 6.33691C89.6396 7.7373 88.8633 9.02344 87.7676 10.1953C86.6777 11.3672 85.2129 12.3867 83.373 13.2539L82.1953 11.4609Z" fill="white"/>
</svg>
