<svg width="410" height="215" viewBox="0 0 410 215" fill="none" xmlns="http://www.w3.org/2000/svg">
<path d="M29.0195 11.3555C29.0195 15.6497 28.931 19.5234 28.7539 22.9766C28.5768 26.4297 28.1341 30.3477 27.4258 34.7305L19.7227 34C20.2318 30.8346 20.6191 27.3815 20.8848 23.6406L2.25781 25.2344L1.26172 18.3945L21.1504 17.5312C21.1725 16.3581 21.1836 14.6979 21.1836 12.5508H2.92188V5.77734H29.0195V11.3555ZM0 40.5078C2.58984 40.5078 5.48958 40.4746 8.69922 40.4082V28.0898H16.3359V40.1758C21.8034 39.9544 26.4297 39.6003 30.2148 39.1133L30.6797 45.2891C26.4518 46.1302 21.8366 46.6725 16.834 46.916C11.8535 47.1595 6.59635 47.2812 1.0625 47.2812L0 40.5078ZM33.0039 1.0625H40.9062V24.3047H45.6875V0.0664062H53.6562V60.4961H45.6875V31.1445H40.9062V57.707H33.0039V1.0625ZM94.4297 10.1602H82.4102C82.4323 12.6172 82.9414 14.9967 83.9375 17.2988C84.9557 19.5788 86.5052 21.6374 88.5859 23.4746C90.6667 25.3118 93.2344 26.7396 96.2891 27.7578L92.1055 34.2656C88.8737 33.2474 86.0846 31.7201 83.7383 29.6836C81.3919 27.625 79.5436 25.1901 78.1934 22.3789C76.7988 25.5 74.873 28.2005 72.416 30.4805C69.959 32.7383 67.0039 34.4206 63.5508 35.5273L59.2344 28.8203C62.4219 27.8021 65.1003 26.319 67.2695 24.3711C69.4388 22.4232 71.0547 20.2207 72.1172 17.7637C73.2018 15.2845 73.7552 12.75 73.7773 10.1602H61.625V3.45312H94.4297V10.1602ZM68.9961 38.7148H110.5V60.4961H102.066V45.4883H68.9961V38.7148ZM92.7031 14.6094H102.066V0.0664062H110.5V36.0586H102.066V21.5156H92.7031V14.6094ZM166.281 18.6602H174.449V25.5664H166.281V45.2227H157.781V0.132812H166.281V18.6602ZM118.336 6.44141H132.082V0H140.516V6.44141H154.195V13.1484H118.336V6.44141ZM121.258 26.9609C121.258 24.6589 121.889 22.6224 123.15 20.8516C124.434 19.0807 126.216 17.7083 128.496 16.7344C130.776 15.7604 133.366 15.2734 136.266 15.2734C139.165 15.2734 141.733 15.7604 143.969 16.7344C146.227 17.7083 147.986 19.0807 149.248 20.8516C150.51 22.6224 151.141 24.6589 151.141 26.9609C151.141 29.263 150.51 31.2884 149.248 33.0371C148.008 34.7637 146.26 36.1139 144.002 37.0879C141.744 38.0397 139.165 38.5156 136.266 38.5156C133.344 38.5156 130.743 38.0397 128.463 37.0879C126.205 36.1139 124.434 34.7526 123.15 33.0039C121.889 31.2552 121.258 29.2409 121.258 26.9609ZM127.102 41.7695H135.535V52.6602H168.473V59.4336H127.102V41.7695ZM129.559 26.9609C129.536 28.599 130.134 29.8607 131.352 30.7461C132.569 31.6315 134.207 32.0742 136.266 32.0742C138.346 32.0742 140.007 31.6315 141.246 30.7461C142.486 29.8607 143.105 28.599 143.105 26.9609C143.105 25.3229 142.486 24.0501 141.246 23.1426C140.007 22.2129 138.346 21.737 136.266 21.7148C134.207 21.737 132.569 22.2129 131.352 23.1426C130.134 24.0501 129.536 25.3229 129.559 26.9609ZM220.004 37.7188C224.409 37.7188 228.227 38.1725 231.459 39.0801C234.691 39.9655 237.181 41.2715 238.93 42.998C240.678 44.7025 241.564 46.75 241.586 49.1406C241.564 51.487 240.678 53.5124 238.93 55.2168C237.181 56.9434 234.68 58.2493 231.426 59.1348C228.194 60.0423 224.387 60.4961 220.004 60.4961C215.643 60.4961 211.836 60.0423 208.582 59.1348C205.35 58.2493 202.86 56.9434 201.111 55.2168C199.363 53.5124 198.488 51.487 198.488 49.1406C198.488 46.75 199.363 44.7025 201.111 42.998C202.86 41.2715 205.35 39.9655 208.582 39.0801C211.836 38.1725 215.643 37.7188 220.004 37.7188ZM192.91 27.0273H213.496V16.4688H221.863V27.0273H247.762V33.8672H192.91V27.0273ZM199.086 2.78906H241.254V7.70312V9.46289C241.254 12.1191 241.143 14.5762 240.922 16.834C240.701 19.0918 240.236 21.4492 239.527 23.9062L231.227 23.1094C231.846 20.6302 232.256 18.3724 232.455 16.3359C232.654 14.2773 232.776 11.9753 232.82 9.42969H199.086V2.78906ZM206.922 49.1406C206.9 50.7565 208.018 51.985 210.275 52.8262C212.555 53.6452 215.798 54.0547 220.004 54.0547C224.21 54.0547 227.452 53.6452 229.732 52.8262C232.012 51.985 233.152 50.7565 233.152 49.1406C233.152 47.4805 232.023 46.2188 229.766 45.3555C227.53 44.4701 224.354 44.0273 220.236 44.0273C215.942 44.0273 212.644 44.459 210.342 45.3223C208.04 46.1855 206.9 47.4583 206.922 49.1406ZM299.492 17H307.66V23.9727H299.492V43.3633H290.926V0.0664062H299.492V17ZM251.148 30.7461C257.833 28.8867 263.09 26.2969 266.92 22.9766C270.771 19.6341 273.029 15.8047 273.693 11.4883H253.805V4.58203H283.023C283.023 9.98307 281.917 14.8529 279.703 19.1914C277.512 23.5078 274.302 27.2044 270.074 30.2812C265.846 33.3581 260.711 35.7487 254.668 37.4531L251.148 30.7461ZM260.18 38.9141H268.746V52.6602H301.551V59.4336H260.18V38.9141ZM337.875 0.929688C342.501 0.929688 346.452 1.32812 349.729 2.125C353.027 2.92188 355.539 4.09505 357.266 5.64453C358.992 7.17188 359.855 9.03125 359.855 11.2227C359.855 13.4583 358.992 15.3509 357.266 16.9004C355.539 18.4277 353.038 19.5898 349.762 20.3867C346.486 21.1836 342.523 21.582 337.875 21.582C333.227 21.582 329.253 21.1836 325.955 20.3867C322.657 19.5898 320.145 18.4277 318.418 16.9004C316.691 15.3509 315.828 13.4583 315.828 11.2227C315.828 9.03125 316.691 7.17188 318.418 5.64453C320.145 4.09505 322.657 2.92188 325.955 2.125C329.253 1.32812 333.227 0.929688 337.875 0.929688ZM310.316 24.4375H365.434V31.1445H310.316V24.4375ZM316.691 34.6641H358.727V50.0703H325.059V53.7227H360.32V60.0977H316.758V44.1602H350.359V40.8398H316.691V34.6641ZM324.727 11.2227C324.704 12.6836 325.756 13.735 327.881 14.377C330.028 15.0189 333.359 15.3398 337.875 15.3398C342.413 15.3398 345.744 15.0189 347.869 14.377C350.016 13.735 351.09 12.6836 351.09 11.2227C351.09 8.47786 346.685 7.10547 337.875 7.10547C333.47 7.10547 330.172 7.45964 327.98 8.16797C325.789 8.85417 324.704 9.8724 324.727 11.2227ZM304.074 100.242H312.641V107.215H304.074V137.363H295.574V77.0664H304.074V100.242ZM255.73 120.43C262.924 116.822 268.458 112.549 272.332 107.613C276.206 102.677 278.541 96.8555 279.338 90.1484H259.184V83.2422H287.938C287.893 92.8711 285.724 101.371 281.43 108.742C277.158 116.113 270.185 122.178 260.512 126.938L255.73 120.43ZM31.6094 188.066H2.58984V159.047H31.6094V188.066ZM9.5625 193.844H17.9961V206.66H50.9336V213.434H9.5625V193.844ZM23.2422 181.426V165.82H10.957V181.426H23.2422ZM40.2422 154.066H48.7422V171.465H56.9102V178.438H48.7422V198.16H40.2422V154.066ZM114.816 184.281H59.5664V177.641H114.816V184.281ZM65.9414 187.867H107.977V203.672H74.3086V207.391H109.57V213.965H66.0078V197.629H99.6094V194.242H65.9414V187.867ZM66.4727 155.262H107.777V162.035H74.9062V167.68H108.242V174.32H66.4727V155.262ZM135.004 158.316C137.704 158.316 140.15 159.025 142.342 160.441C144.555 161.858 146.359 163.895 147.754 166.551C149.171 169.207 150.078 172.328 150.477 175.914H160.969V154.066H169.336V214.629H160.969V182.688H150.576C150.288 186.495 149.447 189.815 148.053 192.648C146.658 195.482 144.832 197.651 142.574 199.156C140.339 200.661 137.815 201.414 135.004 201.414C131.949 201.414 129.227 200.54 126.836 198.791C124.467 197.02 122.619 194.508 121.291 191.254C119.963 187.978 119.31 184.171 119.332 179.832C119.31 175.516 119.963 171.73 121.291 168.477C122.619 165.223 124.467 162.721 126.836 160.973C129.227 159.202 131.949 158.316 135.004 158.316ZM127.434 179.832C127.434 182.776 127.743 185.299 128.363 187.402C128.983 189.483 129.868 191.066 131.02 192.15C132.171 193.213 133.499 193.733 135.004 193.711C136.531 193.733 137.859 193.213 138.988 192.15C140.139 191.066 141.025 189.483 141.645 187.402C142.264 185.299 142.574 182.776 142.574 179.832C142.574 176.888 142.264 174.376 141.645 172.295C141.025 170.214 140.139 168.643 138.988 167.58C137.859 166.495 136.531 165.953 135.004 165.953C133.499 165.953 132.171 166.495 131.02 167.58C129.868 168.643 128.983 170.225 128.363 172.328C127.743 174.409 127.434 176.91 127.434 179.832ZM226.379 188.797H183.613V159.113H225.914V165.953H191.98V182.023H226.379V188.797ZM177.105 200.152H232.422V207.125H177.105V200.152ZM286.477 187.801H277.977V154.133H286.477V187.801ZM238.996 156.789H267.02V174.785H247.363V179.832C253.096 179.788 257.811 179.666 261.508 179.467C265.227 179.245 268.967 178.814 272.73 178.172L273.793 184.945C269.454 185.676 265.127 186.163 260.811 186.406C256.494 186.628 251.016 186.738 244.375 186.738H239.062V168.344H258.586V163.562H238.996V156.789ZM246.035 190.324H254.469V195.504H278.043V190.324H286.477V213.832H246.035V190.324ZM278.043 207.059V202.078H254.469V207.059H278.043ZM345.445 214.496H337.012V154.066H345.445V214.496ZM297.898 159.844H306.266V192.35C315.23 192.195 323.841 191.32 332.098 189.727L333.16 196.699C323.908 198.647 313.924 199.599 303.211 199.555H297.898V159.844ZM401.094 176.512H409.992V183.418H401.094V214.629H392.594V154.066H401.094V176.512ZM355.805 159.645H384.16V166.484H364.238V192.98C368.842 192.936 373.026 192.77 376.789 192.482C380.574 192.195 384.404 191.719 388.277 191.055L389.207 198.16C385.046 198.868 380.928 199.344 376.855 199.588C372.805 199.831 368.079 199.953 362.678 199.953H360.918H355.805V159.645Z" fill="white"/>
<path d="M35.2617 89.418H29.8828V115.781C32.5833 115.56 34.974 115.316 37.0547 115.051L37.5195 121.16C32.0299 122.112 26.3079 122.754 20.3535 123.086C14.3991 123.396 7.92448 123.573 0.929688 123.617L0 116.711C2.98828 116.711 5.29036 116.7 6.90625 116.678V89.418H1.52734V82.6445H35.2617V89.418ZM15.0742 116.545C16.5352 116.501 18.7487 116.412 21.7148 116.279V89.418H15.0742V116.545ZM39.9766 77.0664H48.4766V100.043H57.375V106.949H48.4766V137.496H39.9766V77.0664ZM107.512 94.4648H115.68V101.57H107.512V121.625H99.0117V77.1328H107.512V94.4648ZM61.6914 80.7852H89.4492V99.7109H70.1914V106.086C75.3268 106.064 79.7428 105.92 83.4395 105.654C87.1582 105.389 90.888 104.913 94.6289 104.227L95.5586 111.066C91.5078 111.819 87.4017 112.317 83.2402 112.561C79.0788 112.804 73.6224 112.926 66.8711 112.926H61.7578V93.3359H81.2148V87.5586H61.6914V80.7852ZM68.5312 118.039H77.0977V129.66H109.836V136.434H68.5312V118.039ZM120.594 83.3086H152.867V91.543H130.555V103.23H151.207V111.465H130.555V123.152H152.934V131.387H120.594V83.3086ZM200.746 131.387H192.113L170.996 100.84H170.598V131.387H160.637V83.3086H169.402L190.387 113.855H190.852V83.3086H200.746V131.387ZM240.789 98.7812C240.103 96.5013 238.874 94.7194 237.104 93.4355C235.333 92.1517 233.152 91.4987 230.562 91.4766C228.083 91.4987 225.903 92.1296 224.021 93.3691C222.14 94.6087 220.679 96.4128 219.639 98.7812C218.598 101.15 218.078 103.983 218.078 107.281C218.078 110.624 218.587 113.49 219.605 115.881C220.624 118.271 222.074 120.087 223.955 121.326C225.837 122.566 228.061 123.197 230.629 123.219C232.887 123.219 234.835 122.809 236.473 121.99C238.133 121.171 239.406 120.02 240.291 118.537C241.199 117.032 241.674 115.272 241.719 113.258H231.293V105.754H251.348V111.73C251.348 115.87 250.462 119.478 248.691 122.555C246.943 125.609 244.486 127.956 241.32 129.594C238.177 131.232 234.591 132.051 230.562 132.051C226.091 132.051 222.14 131.055 218.709 129.062C215.3 127.048 212.644 124.193 210.74 120.496C208.859 116.777 207.918 112.417 207.918 107.414C207.918 102.345 208.892 97.9401 210.84 94.1992C212.788 90.4583 215.466 87.6029 218.875 85.6328C222.284 83.6406 226.113 82.6445 230.363 82.6445C233.927 82.6445 237.192 83.3307 240.158 84.7031C243.124 86.0755 245.537 87.9902 247.396 90.4473C249.278 92.8822 250.44 95.6602 250.883 98.7812H240.789Z" fill="#1DB8CE"/>
</svg>
