<svg width="260" height="36" viewBox="0 0 260 36" fill="none" xmlns="http://www.w3.org/2000/svg">
<path d="M20.7422 7.26562H17.5781V22.7734C19.1667 22.6432 20.5729 22.5 21.7969 22.3438L22.0703 25.9375C18.8411 26.4974 15.4753 26.875 11.9727 27.0703C8.47005 27.2526 4.66146 27.3568 0.546875 27.3828L0 23.3203C1.75781 23.3203 3.11198 23.3138 4.0625 23.3008V7.26562H0.898438V3.28125H20.7422V7.26562ZM8.86719 23.2227C9.72656 23.1966 11.0286 23.1445 12.7734 23.0664V7.26562H8.86719V23.2227ZM23.5156 0H28.5156V13.5156H33.75V17.5781H28.5156V35.5469H23.5156V0ZM63.2422 10.2344H68.0469V14.4141H63.2422V26.2109H58.2422V0.0390625H63.2422V10.2344ZM36.2891 2.1875H52.6172V13.3203H41.2891V17.0703C44.3099 17.0573 46.9076 16.9727 49.082 16.8164C51.2695 16.6602 53.4635 16.3802 55.6641 15.9766L56.2109 20C53.8281 20.4427 51.4128 20.7357 48.9648 20.8789C46.5169 21.0221 43.3073 21.0938 39.3359 21.0938H36.3281V9.57031H47.7734V6.17188H36.2891V2.1875ZM40.3125 24.1016H45.3516V30.9375H64.6094V34.9219H40.3125V24.1016ZM70.9375 3.67188H89.9219V8.51562H76.7969V15.3906H88.9453V20.2344H76.7969V27.1094H89.9609V31.9531H70.9375V3.67188ZM118.086 31.9531H113.008L100.586 13.9844H100.352V31.9531H94.4922V3.67188H99.6484L111.992 21.6406H112.266V3.67188H118.086V31.9531ZM141.641 12.7734C141.237 11.4323 140.514 10.3841 139.473 9.62891C138.431 8.8737 137.148 8.48958 135.625 8.47656C134.167 8.48958 132.884 8.86068 131.777 9.58984C130.671 10.319 129.811 11.3802 129.199 12.7734C128.587 14.1667 128.281 15.8333 128.281 17.7734C128.281 19.7396 128.581 21.4258 129.18 22.832C129.779 24.2383 130.632 25.306 131.738 26.0352C132.845 26.7643 134.154 27.1354 135.664 27.1484C136.992 27.1484 138.138 26.9076 139.102 26.4258C140.078 25.944 140.827 25.2669 141.348 24.3945C141.882 23.5091 142.161 22.474 142.188 21.2891H136.055V16.875H147.852V20.3906C147.852 22.8255 147.331 24.9479 146.289 26.7578C145.26 28.5547 143.815 29.9349 141.953 30.8984C140.104 31.862 137.995 32.3438 135.625 32.3438C132.995 32.3438 130.671 31.7578 128.652 30.5859C126.647 29.401 125.085 27.7214 123.965 25.5469C122.858 23.3594 122.305 20.7943 122.305 17.8516C122.305 14.8698 122.878 12.2786 124.023 10.0781C125.169 7.8776 126.745 6.19792 128.75 5.03906C130.755 3.86719 133.008 3.28125 135.508 3.28125C137.604 3.28125 139.525 3.6849 141.27 4.49219C143.014 5.29948 144.434 6.42578 145.527 7.87109C146.634 9.30339 147.318 10.9375 147.578 12.7734H141.641ZM162.344 2.38281C164.206 2.38281 165.885 2.75391 167.383 3.49609C168.88 4.23828 170.052 5.27344 170.898 6.60156C171.758 7.91667 172.188 9.41406 172.188 11.0938C172.188 12.7734 171.758 14.2773 170.898 15.6055C170.052 16.9336 168.88 17.9753 167.383 18.7305C165.885 19.4727 164.206 19.8438 162.344 19.8438C160.495 19.8438 158.815 19.4727 157.305 18.7305C155.794 17.9753 154.609 16.9336 153.75 15.6055C152.891 14.2773 152.461 12.7734 152.461 11.0938C152.461 9.42708 152.891 7.92969 153.75 6.60156C154.609 5.27344 155.794 4.23828 157.305 3.49609C158.815 2.75391 160.495 2.38281 162.344 2.38281ZM152.441 24.2969C156.348 24.2969 160.078 24.2188 163.633 24.0625C167.201 23.9062 170.56 23.6068 173.711 23.1641L174.102 26.7578C170.612 27.4349 167.064 27.8711 163.457 28.0664C159.863 28.2617 155.898 28.3594 151.562 28.3594L150.977 24.2969H152.441ZM157.422 11.0938C157.422 12.0052 157.63 12.7995 158.047 13.4766C158.477 14.1406 159.062 14.6484 159.805 15C160.56 15.3516 161.406 15.5208 162.344 15.5078C163.294 15.5208 164.147 15.3516 164.902 15C165.658 14.6484 166.25 14.1406 166.68 13.4766C167.122 12.7995 167.344 12.0052 167.344 11.0938C167.344 10.1953 167.122 9.41406 166.68 8.75C166.25 8.07292 165.658 7.55859 164.902 7.20703C164.147 6.85547 163.294 6.67969 162.344 6.67969C161.406 6.67969 160.56 6.85547 159.805 7.20703C159.062 7.55859 158.477 8.07292 158.047 8.75C157.63 9.41406 157.422 10.1953 157.422 11.0938ZM175.742 0H180.703V35.625H175.742V0ZM224.336 18.0078H219.375V0H224.336V18.0078ZM194.453 14.1797C196.354 13.6068 197.949 12.7734 199.238 11.6797C200.527 10.5729 201.484 9.31641 202.109 7.91016C202.734 6.50391 203.047 5.03906 203.047 3.51562V0.78125H208.242V3.51562C208.229 5 208.522 6.40625 209.121 7.73438C209.72 9.0625 210.645 10.2409 211.895 11.2695C213.158 12.2982 214.727 13.0859 216.602 13.6328L214.18 17.4609C212.188 16.888 210.475 16.0156 209.043 14.8438C207.624 13.6719 206.497 12.2721 205.664 10.6445C204.844 12.4284 203.698 13.9583 202.227 15.2344C200.755 16.5104 198.984 17.4609 196.914 18.0859L194.453 14.1797ZM200.508 19.5312H224.375V29.1797H205.469V31.3672H225.352V35.3125H200.586V25.4688H219.414V23.3984H200.508V19.5312ZM249.688 5.9375H242.617C242.63 7.38281 242.93 8.78255 243.516 10.1367C244.115 11.4779 245.026 12.6888 246.25 13.7695C247.474 14.8503 248.984 15.6901 250.781 16.2891L248.32 20.1172C246.419 19.5182 244.779 18.6198 243.398 17.4219C242.018 16.2109 240.931 14.7786 240.137 13.125C239.316 14.9609 238.184 16.5495 236.738 17.8906C235.293 19.2188 233.555 20.2083 231.523 20.8594L228.984 16.9141C230.859 16.3151 232.435 15.4427 233.711 14.2969C234.987 13.151 235.938 11.8555 236.562 10.4102C237.201 8.95182 237.526 7.46094 237.539 5.9375H230.391V1.99219H249.688V5.9375ZM234.727 22.7344H259.141V35.5469H254.18V26.7188H234.727V22.7344ZM248.672 8.55469H254.18V0H259.141V21.1719H254.18V12.6172H248.672V8.55469Z" fill="white"/>
</svg>
