<svg width="108" height="11" viewBox="0 0 108 11" fill="none" xmlns="http://www.w3.org/2000/svg">
<path d="M3.70605 10.8984C2.9248 10.8984 2.25586 10.686 1.69922 10.2612C1.14746 9.83643 0.725098 9.21631 0.432129 8.40088C0.144043 7.58545 0 6.60156 0 5.44922C0 4.31152 0.144043 3.33496 0.432129 2.51953C0.725098 1.69922 1.1499 1.07422 1.70654 0.644531C2.26318 0.214844 2.92969 0 3.70605 0C4.47754 0 5.1416 0.214844 5.69824 0.644531C6.25488 1.07422 6.67969 1.69922 6.97266 2.51953C7.26562 3.33496 7.41211 4.31152 7.41211 5.44922C7.41211 6.60156 7.26562 7.58545 6.97266 8.40088C6.68457 9.21631 6.26221 9.83643 5.70557 10.2612C5.15381 10.686 4.4873 10.8984 3.70605 10.8984ZM1.27441 5.44922C1.27441 6.35742 1.36963 7.13135 1.56006 7.771C1.75537 8.41064 2.03369 8.89648 2.39502 9.22852C2.75635 9.56055 3.19336 9.72656 3.70605 9.72656C4.21387 9.72656 4.64844 9.56055 5.00977 9.22852C5.37598 8.89648 5.65186 8.41064 5.8374 7.771C6.02783 7.13135 6.12305 6.35742 6.12305 5.44922C6.12305 4.54102 6.02783 3.76465 5.8374 3.12012C5.64697 2.47559 5.37109 1.98486 5.00977 1.64795C4.64844 1.31104 4.21387 1.14258 3.70605 1.14258C3.19824 1.14258 2.76367 1.31104 2.40234 1.64795C2.04102 1.98486 1.7627 2.47559 1.56738 3.12012C1.37207 3.76465 1.27441 4.54102 1.27441 5.44922ZM12.9199 10.752H11.5869V1.52344H11.5283L8.9502 3.2373V1.9043L11.5869 0.146484H12.9199V10.752ZM19.2188 10.8984C18.4375 10.8984 17.7686 10.686 17.2119 10.2612C16.6602 9.83643 16.2378 9.21631 15.9448 8.40088C15.6567 7.58545 15.5127 6.60156 15.5127 5.44922C15.5127 4.31152 15.6567 3.33496 15.9448 2.51953C16.2378 1.69922 16.6626 1.07422 17.2192 0.644531C17.7759 0.214844 18.4424 0 19.2188 0C19.9902 0 20.6543 0.214844 21.2109 0.644531C21.7676 1.07422 22.1924 1.69922 22.4854 2.51953C22.7783 3.33496 22.9248 4.31152 22.9248 5.44922C22.9248 6.60156 22.7783 7.58545 22.4854 8.40088C22.1973 9.21631 21.7749 9.83643 21.2183 10.2612C20.6665 10.686 20 10.8984 19.2188 10.8984ZM16.7871 5.44922C16.7871 6.35742 16.8823 7.13135 17.0728 7.771C17.2681 8.41064 17.5464 8.89648 17.9077 9.22852C18.269 9.56055 18.7061 9.72656 19.2188 9.72656C19.7266 9.72656 20.1611 9.56055 20.5225 9.22852C20.8887 8.89648 21.1646 8.41064 21.3501 7.771C21.5405 7.13135 21.6357 6.35742 21.6357 5.44922C21.6357 4.54102 21.5405 3.76465 21.3501 3.12012C21.1597 2.47559 20.8838 1.98486 20.5225 1.64795C20.1611 1.31104 19.7266 1.14258 19.2188 1.14258C18.7109 1.14258 18.2764 1.31104 17.915 1.64795C17.5537 1.98486 17.2754 2.47559 17.0801 3.12012C16.8848 3.76465 16.7871 4.54102 16.7871 5.44922ZM29.2529 6.03516H24.6094V4.87793H29.2529V6.03516ZM34.6436 10.8984C33.8623 10.8984 33.1934 10.686 32.6367 10.2612C32.085 9.83643 31.6626 9.21631 31.3696 8.40088C31.0815 7.58545 30.9375 6.60156 30.9375 5.44922C30.9375 4.31152 31.0815 3.33496 31.3696 2.51953C31.6626 1.69922 32.0874 1.07422 32.644 0.644531C33.2007 0.214844 33.8672 0 34.6436 0C35.415 0 36.0791 0.214844 36.6357 0.644531C37.1924 1.07422 37.6172 1.69922 37.9102 2.51953C38.2031 3.33496 38.3496 4.31152 38.3496 5.44922C38.3496 6.60156 38.2031 7.58545 37.9102 8.40088C37.6221 9.21631 37.1997 9.83643 36.6431 10.2612C36.0913 10.686 35.4248 10.8984 34.6436 10.8984ZM32.2119 5.44922C32.2119 6.35742 32.3071 7.13135 32.4976 7.771C32.6929 8.41064 32.9712 8.89648 33.3325 9.22852C33.6938 9.56055 34.1309 9.72656 34.6436 9.72656C35.1514 9.72656 35.5859 9.56055 35.9473 9.22852C36.3135 8.89648 36.5894 8.41064 36.7749 7.771C36.9653 7.13135 37.0605 6.35742 37.0605 5.44922C37.0605 4.54102 36.9653 3.76465 36.7749 3.12012C36.5845 2.47559 36.3086 1.98486 35.9473 1.64795C35.5859 1.31104 35.1514 1.14258 34.6436 1.14258C34.1357 1.14258 33.7012 1.31104 33.3398 1.64795C32.9785 1.98486 32.7002 2.47559 32.5049 3.12012C32.3096 3.76465 32.2119 4.54102 32.2119 5.44922ZM43.5791 10.8984C42.7979 10.8984 42.1289 10.686 41.5723 10.2612C41.0205 9.83643 40.5981 9.21631 40.3052 8.40088C40.0171 7.58545 39.873 6.60156 39.873 5.44922C39.873 4.31152 40.0171 3.33496 40.3052 2.51953C40.5981 1.69922 41.0229 1.07422 41.5796 0.644531C42.1362 0.214844 42.8027 0 43.5791 0C44.3506 0 45.0146 0.214844 45.5713 0.644531C46.1279 1.07422 46.5527 1.69922 46.8457 2.51953C47.1387 3.33496 47.2852 4.31152 47.2852 5.44922C47.2852 6.60156 47.1387 7.58545 46.8457 8.40088C46.5576 9.21631 46.1353 9.83643 45.5786 10.2612C45.0269 10.686 44.3604 10.8984 43.5791 10.8984ZM41.1475 5.44922C41.1475 6.35742 41.2427 7.13135 41.4331 7.771C41.6284 8.41064 41.9067 8.89648 42.2681 9.22852C42.6294 9.56055 43.0664 9.72656 43.5791 9.72656C44.0869 9.72656 44.5215 9.56055 44.8828 9.22852C45.249 8.89648 45.5249 8.41064 45.7104 7.771C45.9009 7.13135 45.9961 6.35742 45.9961 5.44922C45.9961 4.54102 45.9009 3.76465 45.7104 3.12012C45.52 2.47559 45.2441 1.98486 44.8828 1.64795C44.5215 1.31104 44.0869 1.14258 43.5791 1.14258C43.0713 1.14258 42.6367 1.31104 42.2754 1.64795C41.9141 1.98486 41.6357 2.47559 41.4404 3.12012C41.2451 3.76465 41.1475 4.54102 41.1475 5.44922ZM52.5146 10.8984C51.7334 10.8984 51.0645 10.686 50.5078 10.2612C49.9561 9.83643 49.5337 9.21631 49.2407 8.40088C48.9526 7.58545 48.8086 6.60156 48.8086 5.44922C48.8086 4.31152 48.9526 3.33496 49.2407 2.51953C49.5337 1.69922 49.9585 1.07422 50.5151 0.644531C51.0718 0.214844 51.7383 0 52.5146 0C53.2861 0 53.9502 0.214844 54.5068 0.644531C55.0635 1.07422 55.4883 1.69922 55.7812 2.51953C56.0742 3.33496 56.2207 4.31152 56.2207 5.44922C56.2207 6.60156 56.0742 7.58545 55.7812 8.40088C55.4932 9.21631 55.0708 9.83643 54.5142 10.2612C53.9624 10.686 53.2959 10.8984 52.5146 10.8984ZM50.083 5.44922C50.083 6.35742 50.1782 7.13135 50.3687 7.771C50.564 8.41064 50.8423 8.89648 51.2036 9.22852C51.5649 9.56055 52.002 9.72656 52.5146 9.72656C53.0225 9.72656 53.457 9.56055 53.8184 9.22852C54.1846 8.89648 54.4604 8.41064 54.646 7.771C54.8364 7.13135 54.9316 6.35742 54.9316 5.44922C54.9316 4.54102 54.8364 3.76465 54.646 3.12012C54.4556 2.47559 54.1797 1.98486 53.8184 1.64795C53.457 1.31104 53.0225 1.14258 52.5146 1.14258C52.0068 1.14258 51.5723 1.31104 51.2109 1.64795C50.8496 1.98486 50.5713 2.47559 50.376 3.12012C50.1807 3.76465 50.083 4.54102 50.083 5.44922ZM61.4502 10.8984C60.6689 10.8984 60 10.686 59.4434 10.2612C58.8916 9.83643 58.4692 9.21631 58.1763 8.40088C57.8882 7.58545 57.7441 6.60156 57.7441 5.44922C57.7441 4.31152 57.8882 3.33496 58.1763 2.51953C58.4692 1.69922 58.894 1.07422 59.4507 0.644531C60.0073 0.214844 60.6738 0 61.4502 0C62.2217 0 62.8857 0.214844 63.4424 0.644531C63.999 1.07422 64.4238 1.69922 64.7168 2.51953C65.0098 3.33496 65.1562 4.31152 65.1562 5.44922C65.1562 6.60156 65.0098 7.58545 64.7168 8.40088C64.4287 9.21631 64.0063 9.83643 63.4497 10.2612C62.8979 10.686 62.2314 10.8984 61.4502 10.8984ZM59.0186 5.44922C59.0186 6.35742 59.1138 7.13135 59.3042 7.771C59.4995 8.41064 59.7778 8.89648 60.1392 9.22852C60.5005 9.56055 60.9375 9.72656 61.4502 9.72656C61.958 9.72656 62.3926 9.56055 62.7539 9.22852C63.1201 8.89648 63.396 8.41064 63.5815 7.771C63.772 7.13135 63.8672 6.35742 63.8672 5.44922C63.8672 4.54102 63.772 3.76465 63.5815 3.12012C63.3911 2.47559 63.1152 1.98486 62.7539 1.64795C62.3926 1.31104 61.958 1.14258 61.4502 1.14258C60.9424 1.14258 60.5078 1.31104 60.1465 1.64795C59.7852 1.98486 59.5068 2.47559 59.3115 3.12012C59.1162 3.76465 59.0186 4.54102 59.0186 5.44922ZM71.4844 6.03516H66.8408V4.87793H71.4844V6.03516ZM76.875 10.8984C76.0938 10.8984 75.4248 10.686 74.8682 10.2612C74.3164 9.83643 73.894 9.21631 73.6011 8.40088C73.313 7.58545 73.1689 6.60156 73.1689 5.44922C73.1689 4.31152 73.313 3.33496 73.6011 2.51953C73.894 1.69922 74.3188 1.07422 74.8755 0.644531C75.4321 0.214844 76.0986 0 76.875 0C77.6465 0 78.3105 0.214844 78.8672 0.644531C79.4238 1.07422 79.8486 1.69922 80.1416 2.51953C80.4346 3.33496 80.5811 4.31152 80.5811 5.44922C80.5811 6.60156 80.4346 7.58545 80.1416 8.40088C79.8535 9.21631 79.4312 9.83643 78.8745 10.2612C78.3228 10.686 77.6562 10.8984 76.875 10.8984ZM74.4434 5.44922C74.4434 6.35742 74.5386 7.13135 74.729 7.771C74.9243 8.41064 75.2026 8.89648 75.564 9.22852C75.9253 9.56055 76.3623 9.72656 76.875 9.72656C77.3828 9.72656 77.8174 9.56055 78.1787 9.22852C78.5449 8.89648 78.8208 8.41064 79.0063 7.771C79.1968 7.13135 79.292 6.35742 79.292 5.44922C79.292 4.54102 79.1968 3.76465 79.0063 3.12012C78.8159 2.47559 78.54 1.98486 78.1787 1.64795C77.8174 1.31104 77.3828 1.14258 76.875 1.14258C76.3672 1.14258 75.9326 1.31104 75.5713 1.64795C75.21 1.98486 74.9316 2.47559 74.7363 3.12012C74.541 3.76465 74.4434 4.54102 74.4434 5.44922ZM85.8105 10.8984C85.0293 10.8984 84.3604 10.686 83.8037 10.2612C83.252 9.83643 82.8296 9.21631 82.5366 8.40088C82.2485 7.58545 82.1045 6.60156 82.1045 5.44922C82.1045 4.31152 82.2485 3.33496 82.5366 2.51953C82.8296 1.69922 83.2544 1.07422 83.811 0.644531C84.3677 0.214844 85.0342 0 85.8105 0C86.582 0 87.2461 0.214844 87.8027 0.644531C88.3594 1.07422 88.7842 1.69922 89.0771 2.51953C89.3701 3.33496 89.5166 4.31152 89.5166 5.44922C89.5166 6.60156 89.3701 7.58545 89.0771 8.40088C88.7891 9.21631 88.3667 9.83643 87.8101 10.2612C87.2583 10.686 86.5918 10.8984 85.8105 10.8984ZM83.3789 5.44922C83.3789 6.35742 83.4741 7.13135 83.6646 7.771C83.8599 8.41064 84.1382 8.89648 84.4995 9.22852C84.8608 9.56055 85.2979 9.72656 85.8105 9.72656C86.3184 9.72656 86.7529 9.56055 87.1143 9.22852C87.4805 8.89648 87.7563 8.41064 87.9419 7.771C88.1323 7.13135 88.2275 6.35742 88.2275 5.44922C88.2275 4.54102 88.1323 3.76465 87.9419 3.12012C87.7515 2.47559 87.4756 1.98486 87.1143 1.64795C86.7529 1.31104 86.3184 1.14258 85.8105 1.14258C85.3027 1.14258 84.8682 1.31104 84.5068 1.64795C84.1455 1.98486 83.8672 2.47559 83.6719 3.12012C83.4766 3.76465 83.3789 4.54102 83.3789 5.44922ZM94.7461 10.8984C93.9648 10.8984 93.2959 10.686 92.7393 10.2612C92.1875 9.83643 91.7651 9.21631 91.4722 8.40088C91.1841 7.58545 91.04 6.60156 91.04 5.44922C91.04 4.31152 91.1841 3.33496 91.4722 2.51953C91.7651 1.69922 92.1899 1.07422 92.7466 0.644531C93.3032 0.214844 93.9697 0 94.7461 0C95.5176 0 96.1816 0.214844 96.7383 0.644531C97.2949 1.07422 97.7197 1.69922 98.0127 2.51953C98.3057 3.33496 98.4521 4.31152 98.4521 5.44922C98.4521 6.60156 98.3057 7.58545 98.0127 8.40088C97.7246 9.21631 97.3022 9.83643 96.7456 10.2612C96.1938 10.686 95.5273 10.8984 94.7461 10.8984ZM92.3145 5.44922C92.3145 6.35742 92.4097 7.13135 92.6001 7.771C92.7954 8.41064 93.0737 8.89648 93.4351 9.22852C93.7964 9.56055 94.2334 9.72656 94.7461 9.72656C95.2539 9.72656 95.6885 9.56055 96.0498 9.22852C96.416 8.89648 96.6919 8.41064 96.8774 7.771C97.0679 7.13135 97.1631 6.35742 97.1631 5.44922C97.1631 4.54102 97.0679 3.76465 96.8774 3.12012C96.687 2.47559 96.4111 1.98486 96.0498 1.64795C95.6885 1.31104 95.2539 1.14258 94.7461 1.14258C94.2383 1.14258 93.8037 1.31104 93.4424 1.64795C93.0811 1.98486 92.8027 2.47559 92.6074 3.12012C92.4121 3.76465 92.3145 4.54102 92.3145 5.44922ZM103.682 10.8984C102.9 10.8984 102.231 10.686 101.675 10.2612C101.123 9.83643 100.701 9.21631 100.408 8.40088C100.12 7.58545 99.9756 6.60156 99.9756 5.44922C99.9756 4.31152 100.12 3.33496 100.408 2.51953C100.701 1.69922 101.125 1.07422 101.682 0.644531C102.239 0.214844 102.905 0 103.682 0C104.453 0 105.117 0.214844 105.674 0.644531C106.23 1.07422 106.655 1.69922 106.948 2.51953C107.241 3.33496 107.388 4.31152 107.388 5.44922C107.388 6.60156 107.241 7.58545 106.948 8.40088C106.66 9.21631 106.238 9.83643 105.681 10.2612C105.129 10.686 104.463 10.8984 103.682 10.8984ZM101.25 5.44922C101.25 6.35742 101.345 7.13135 101.536 7.771C101.731 8.41064 102.009 8.89648 102.371 9.22852C102.732 9.56055 103.169 9.72656 103.682 9.72656C104.189 9.72656 104.624 9.56055 104.985 9.22852C105.352 8.89648 105.627 8.41064 105.813 7.771C106.003 7.13135 106.099 6.35742 106.099 5.44922C106.099 4.54102 106.003 3.76465 105.813 3.12012C105.623 2.47559 105.347 1.98486 104.985 1.64795C104.624 1.31104 104.189 1.14258 103.682 1.14258C103.174 1.14258 102.739 1.31104 102.378 1.64795C102.017 1.98486 101.738 2.47559 101.543 3.12012C101.348 3.76465 101.25 4.54102 101.25 5.44922Z" fill="#C3C3C3"/>
</svg>
