<svg width="68" height="11" viewBox="0 0 68 11" fill="none" xmlns="http://www.w3.org/2000/svg">
<path d="M3.70508 10.0352H2.46094V1.42188H2.40625L0 3.02148V1.77734L2.46094 0.136719H3.70508V10.0352ZM9.57031 10.1719C8.98242 10.1719 8.44694 10.0602 7.96387 9.83691C7.48535 9.60905 7.10254 9.29688 6.81543 8.90039C6.53288 8.49935 6.38021 8.04818 6.35742 7.54688H7.54688C7.57422 7.83854 7.68132 8.10059 7.86816 8.33301C8.05501 8.56543 8.29655 8.75 8.59277 8.88672C8.89355 9.02344 9.2194 9.0918 9.57031 9.0918C9.99414 9.0918 10.3724 8.99609 10.7051 8.80469C11.0423 8.61328 11.3066 8.35124 11.498 8.01855C11.6895 7.68587 11.7852 7.31445 11.7852 6.9043C11.7852 6.48047 11.6849 6.09993 11.4844 5.7627C11.2884 5.4209 11.015 5.15202 10.6641 4.95605C10.3177 4.76009 9.92578 4.66211 9.48828 4.66211C8.59961 4.64844 7.98438 4.94466 7.64258 5.55078H6.45312L7.15039 0.136719H12.5098V1.23047H8.17578L7.80664 4.12891H7.90234C8.13021 3.95573 8.40137 3.81673 8.71582 3.71191C9.03483 3.6071 9.36523 3.55469 9.70703 3.55469C10.3268 3.55469 10.8851 3.69824 11.3818 3.98535C11.8831 4.2679 12.2751 4.66211 12.5576 5.16797C12.8447 5.67383 12.9883 6.24349 12.9883 6.87695C12.9883 7.50586 12.8402 8.07096 12.5439 8.57227C12.2477 9.07357 11.8398 9.46549 11.3203 9.74805C10.8053 10.0306 10.222 10.1719 9.57031 10.1719ZM18.1152 10.1719C17.4635 10.1719 16.8802 10.0625 16.3652 9.84375C15.8503 9.625 15.4424 9.31738 15.1416 8.9209C14.8454 8.51986 14.6882 8.06185 14.6699 7.54688H15.9141C15.9368 7.85677 16.0462 8.12793 16.2422 8.36035C16.4382 8.58822 16.6979 8.76595 17.0215 8.89355C17.3451 9.0166 17.7051 9.07812 18.1016 9.07812C18.5345 9.07812 18.9219 9.00521 19.2637 8.85938C19.6055 8.71354 19.8721 8.50846 20.0635 8.24414C20.2594 7.97982 20.3574 7.67904 20.3574 7.3418C20.3529 6.98177 20.2572 6.66276 20.0703 6.38477C19.8835 6.10677 19.6077 5.8903 19.2432 5.73535C18.8831 5.57585 18.4525 5.49609 17.9512 5.49609H17.1445V4.41602H17.9512C18.3477 4.41602 18.7008 4.34538 19.0107 4.2041C19.3206 4.06283 19.5599 3.86458 19.7285 3.60938C19.9017 3.34961 19.9883 3.05339 19.9883 2.7207C19.9883 2.39258 19.9131 2.10547 19.7627 1.85938C19.6123 1.60872 19.3981 1.41504 19.1201 1.27832C18.8421 1.13704 18.5163 1.06641 18.1426 1.06641C17.7871 1.07096 17.4521 1.13704 17.1377 1.26465C16.8278 1.3877 16.5749 1.56771 16.3789 1.80469C16.1875 2.03711 16.0827 2.31055 16.0645 2.625H14.875C14.8932 2.11458 15.0505 1.66113 15.3467 1.26465C15.6475 0.863607 16.0439 0.553711 16.5361 0.334961C17.0329 0.111654 17.5729 0 18.1562 0C18.7669 0 19.3001 0.120768 19.7559 0.362305C20.2161 0.603841 20.5693 0.927409 20.8154 1.33301C21.0615 1.73861 21.1823 2.17839 21.1777 2.65234C21.1823 3.20833 21.0342 3.68457 20.7334 4.08105C20.4326 4.47298 20.0202 4.74414 19.4961 4.89453V4.96289C19.9199 5.02669 20.2868 5.16797 20.5967 5.38672C20.9111 5.60091 21.1504 5.87663 21.3145 6.21387C21.4785 6.54655 21.5605 6.92253 21.5605 7.3418C21.5605 7.875 21.4102 8.35807 21.1094 8.79102C20.8132 9.2194 20.403 9.55664 19.8789 9.80273C19.3548 10.0488 18.7669 10.1719 18.1152 10.1719ZM26.7559 10.1719C26.1042 10.1719 25.5208 10.0625 25.0059 9.84375C24.4909 9.625 24.083 9.31738 23.7822 8.9209C23.486 8.51986 23.3288 8.06185 23.3105 7.54688H24.5547C24.5775 7.85677 24.6868 8.12793 24.8828 8.36035C25.0788 8.58822 25.3385 8.76595 25.6621 8.89355C25.9857 9.0166 26.3457 9.07812 26.7422 9.07812C27.1751 9.07812 27.5625 9.00521 27.9043 8.85938C28.2461 8.71354 28.5127 8.50846 28.7041 8.24414C28.9001 7.97982 28.998 7.67904 28.998 7.3418C28.9935 6.98177 28.8978 6.66276 28.7109 6.38477C28.5241 6.10677 28.2484 5.8903 27.8838 5.73535C27.5238 5.57585 27.0931 5.49609 26.5918 5.49609H25.7852V4.41602H26.5918C26.9883 4.41602 27.3415 4.34538 27.6514 4.2041C27.9613 4.06283 28.2005 3.86458 28.3691 3.60938C28.5423 3.34961 28.6289 3.05339 28.6289 2.7207C28.6289 2.39258 28.5537 2.10547 28.4033 1.85938C28.2529 1.60872 28.0387 1.41504 27.7607 1.27832C27.4827 1.13704 27.1569 1.06641 26.7832 1.06641C26.4277 1.07096 26.0928 1.13704 25.7783 1.26465C25.4684 1.3877 25.2155 1.56771 25.0195 1.80469C24.8281 2.03711 24.7233 2.31055 24.7051 2.625H23.5156C23.5339 2.11458 23.6911 1.66113 23.9873 1.26465C24.2881 0.863607 24.6846 0.553711 25.1768 0.334961C25.6735 0.111654 26.2135 0 26.7969 0C27.4076 0 27.9408 0.120768 28.3965 0.362305C28.8568 0.603841 29.21 0.927409 29.4561 1.33301C29.7021 1.73861 29.8229 2.17839 29.8184 2.65234C29.8229 3.20833 29.6748 3.68457 29.374 4.08105C29.0732 4.47298 28.6608 4.74414 28.1367 4.89453V4.96289C28.5605 5.02669 28.9274 5.16797 29.2373 5.38672C29.5518 5.60091 29.791 5.87663 29.9551 6.21387C30.1191 6.54655 30.2012 6.92253 30.2012 7.3418C30.2012 7.875 30.0508 8.35807 29.75 8.79102C29.4538 9.2194 29.0436 9.55664 28.5195 9.80273C27.9954 10.0488 27.4076 10.1719 26.7559 10.1719ZM36.2441 5.63281H31.9102V4.55273H36.2441V5.63281ZM41.3438 10.1719C40.6602 10.1719 40.0495 10.0534 39.5117 9.81641C38.9785 9.57943 38.5638 9.2513 38.2676 8.83203C37.9759 8.41276 37.8301 7.9388 37.8301 7.41016C37.8301 6.99089 37.9167 6.60124 38.0898 6.24121C38.2676 5.87663 38.5091 5.57585 38.8145 5.33887C39.1243 5.10189 39.4661 4.95378 39.8398 4.89453V4.83984C39.5163 4.76693 39.2314 4.62337 38.9854 4.40918C38.7393 4.19499 38.5479 3.93294 38.4111 3.62305C38.279 3.31315 38.2129 2.98047 38.2129 2.625C38.2129 2.12826 38.3473 1.68164 38.6162 1.28516C38.8851 0.884115 39.2565 0.569661 39.7305 0.341797C40.209 0.113932 40.7467 0 41.3438 0C41.9362 0 42.4694 0.113932 42.9434 0.341797C43.4219 0.569661 43.7979 0.884115 44.0713 1.28516C44.3447 1.68164 44.4837 2.12826 44.4883 2.625C44.4837 2.98047 44.4108 3.31315 44.2695 3.62305C44.1328 3.93294 43.9414 4.19499 43.6953 4.40918C43.4492 4.62337 43.1667 4.76693 42.8477 4.83984V4.89453C43.2168 4.95378 43.554 5.10189 43.8594 5.33887C44.1693 5.57585 44.4131 5.87663 44.5908 6.24121C44.7731 6.60124 44.8665 6.99089 44.8711 7.41016C44.8665 7.9388 44.7139 8.41276 44.4131 8.83203C44.1123 9.2513 43.6953 9.57943 43.1621 9.81641C42.6289 10.0534 42.0228 10.1719 41.3438 10.1719ZM39.0605 7.3418C39.056 7.68815 39.1449 7.99349 39.3271 8.25781C39.5094 8.51758 39.7738 8.72266 40.1201 8.87305C40.4665 9.01888 40.8743 9.0918 41.3438 9.0918C41.8086 9.0918 42.2142 9.01888 42.5605 8.87305C42.9069 8.72266 43.1735 8.51758 43.3604 8.25781C43.5472 7.99349 43.6406 7.68815 43.6406 7.3418C43.6406 6.98177 43.5404 6.6582 43.3398 6.37109C43.1439 6.07943 42.8704 5.85156 42.5195 5.6875C42.1732 5.52344 41.7812 5.44141 41.3438 5.44141C40.9062 5.44141 40.512 5.52344 40.1611 5.6875C39.8148 5.85156 39.5436 6.07943 39.3477 6.37109C39.1517 6.6582 39.056 6.98177 39.0605 7.3418ZM39.4023 2.7207C39.4023 3.04883 39.4844 3.34049 39.6484 3.5957C39.8171 3.84635 40.0472 4.0446 40.3389 4.19043C40.6351 4.33171 40.9701 4.40234 41.3438 4.40234C41.7174 4.40234 42.0501 4.33171 42.3418 4.19043C42.638 4.0446 42.8682 3.84635 43.0322 3.5957C43.2008 3.34049 43.2852 3.04883 43.2852 2.7207C43.2852 2.39258 43.2031 2.10319 43.0391 1.85254C42.8796 1.60189 42.6517 1.4082 42.3555 1.27148C42.0638 1.13477 41.7266 1.06641 41.3438 1.06641C40.9564 1.06641 40.6169 1.13477 40.3252 1.27148C40.0335 1.4082 39.8057 1.60189 39.6416 1.85254C39.4821 2.10319 39.4023 2.39258 39.4023 2.7207ZM46.5117 9.13281L49.8887 5.57812C50.3307 5.10417 50.668 4.72363 50.9004 4.43652C51.1374 4.14486 51.3174 3.86458 51.4404 3.5957C51.5635 3.32682 51.625 3.04427 51.625 2.74805C51.625 2.41536 51.5384 2.1237 51.3652 1.87305C51.1921 1.61784 50.9551 1.4196 50.6543 1.27832C50.3581 1.13704 50.0254 1.06641 49.6562 1.06641C49.2689 1.06641 48.9294 1.14616 48.6377 1.30566C48.346 1.46061 48.1204 1.67708 47.9609 1.95508C47.806 2.23307 47.7285 2.55664 47.7285 2.92578H46.5664C46.5618 2.35156 46.694 1.84342 46.9629 1.40137C47.2363 0.95931 47.6123 0.615234 48.0908 0.369141C48.5693 0.123047 49.1048 0 49.6973 0C50.2852 0 50.8115 0.120768 51.2764 0.362305C51.7458 0.603841 52.1126 0.934245 52.377 1.35352C52.6413 1.77279 52.7734 2.23763 52.7734 2.74805C52.7689 3.1263 52.6982 3.48861 52.5615 3.83496C52.4294 4.17676 52.2015 4.55729 51.8779 4.97656C51.5544 5.39583 51.0964 5.91081 50.5039 6.52148L48.2344 8.85938V8.94141H52.9512V10.0352H46.5254L46.5117 9.13281ZM58.2422 10.0352H56.998V1.42188H56.9434L54.5371 3.02148V1.77734L56.998 0.136719H58.2422V10.0352ZM60.8672 9.13281L64.2441 5.57812C64.6862 5.10417 65.0234 4.72363 65.2559 4.43652C65.4928 4.14486 65.6729 3.86458 65.7959 3.5957C65.9189 3.32682 65.9805 3.04427 65.9805 2.74805C65.9805 2.41536 65.8939 2.1237 65.7207 1.87305C65.5475 1.61784 65.3105 1.4196 65.0098 1.27832C64.7135 1.13704 64.3809 1.06641 64.0117 1.06641C63.6243 1.06641 63.2848 1.14616 62.9932 1.30566C62.7015 1.46061 62.4759 1.67708 62.3164 1.95508C62.1615 2.23307 62.084 2.55664 62.084 2.92578H60.9219C60.9173 2.35156 61.0495 1.84342 61.3184 1.40137C61.5918 0.95931 61.9678 0.615234 62.4463 0.369141C62.9248 0.123047 63.4603 0 64.0527 0C64.6406 0 65.167 0.120768 65.6318 0.362305C66.1012 0.603841 66.4681 0.934245 66.7324 1.35352C66.9967 1.77279 67.1289 2.23763 67.1289 2.74805C67.1243 3.1263 67.0537 3.48861 66.917 3.83496C66.7848 4.17676 66.557 4.55729 66.2334 4.97656C65.9098 5.39583 65.4518 5.91081 64.8594 6.52148L62.5898 8.85938V8.94141H67.3066V10.0352H60.8809L60.8672 9.13281Z" fill="white"/>
</svg>
