<svg width="140" height="14" viewBox="0 0 140 14" fill="none" xmlns="http://www.w3.org/2000/svg">
<path d="M3.7793 10.7666C3.00781 10.7666 2.33643 10.5981 1.76514 10.2612C1.19385 9.92432 0.756836 9.44824 0.454102 8.83301C0.151367 8.21777 0 7.5 0 6.67969C0 5.86914 0.151367 5.15137 0.454102 4.52637C0.756836 3.90137 1.18652 3.41553 1.74316 3.06885C2.2998 2.72217 2.94434 2.54883 3.67676 2.54883C4.31641 2.54883 4.90234 2.68799 5.43457 2.96631C5.9668 3.24463 6.39404 3.68408 6.71631 4.28467C7.04346 4.88037 7.20703 5.63477 7.20703 6.54785V7.10449H1.55273C1.56738 7.60254 1.66992 8.02979 1.86035 8.38623C2.05078 8.74268 2.31201 9.01367 2.64404 9.19922C2.97607 9.38477 3.35937 9.47754 3.79395 9.47754C4.21387 9.47754 4.57031 9.39941 4.86328 9.24316C5.16113 9.08203 5.38086 8.87207 5.52246 8.61328H7.10449C6.9873 9.04297 6.77734 9.42139 6.47461 9.74854C6.17188 10.0708 5.79102 10.3223 5.33203 10.5029C4.87305 10.6787 4.35547 10.7666 3.7793 10.7666ZM5.66895 5.93262C5.66895 5.53223 5.58594 5.17334 5.41992 4.85596C5.25879 4.53369 5.02686 4.28467 4.72412 4.10889C4.42627 3.92822 4.08203 3.83789 3.69141 3.83789C3.28613 3.83789 2.9248 3.93311 2.60742 4.12354C2.29492 4.30908 2.04834 4.56299 1.86768 4.88525C1.68701 5.20752 1.58447 5.55664 1.56006 5.93262H5.66895ZM11.5723 5.74219L13.3301 2.65137H15.0439L12.5684 6.62109L15.0586 10.6055H13.3594L11.5723 7.63184L9.7998 10.6055H8.08594L10.5469 6.62109L8.10059 2.65137H9.8291L11.5723 5.74219ZM16.0986 8.36426C16.0938 7.53906 16.3696 6.95068 16.9263 6.59912C17.4878 6.24756 18.2031 6.04004 19.0723 5.97656C20.2002 5.91309 20.896 5.87646 21.1597 5.8667L21.1523 5.22949C21.1572 4.77539 21.0205 4.42627 20.7422 4.18213C20.4688 3.93311 20.0684 3.80859 19.541 3.80859C19.0967 3.80859 18.7329 3.90137 18.4497 4.08691C18.1665 4.26758 17.9834 4.51172 17.9004 4.81934H16.3477C16.3965 4.37988 16.5601 3.98926 16.8384 3.64746C17.1167 3.30078 17.4927 3.03223 17.9663 2.8418C18.4399 2.64648 18.9844 2.54883 19.5996 2.54883C20.1025 2.54883 20.5859 2.62695 21.0498 2.7832C21.5186 2.93457 21.9141 3.21777 22.2363 3.63281C22.5586 4.04297 22.7197 4.60449 22.7197 5.31738V10.6055H21.1963V9.52148H21.1377C20.957 9.86816 20.6689 10.166 20.2734 10.415C19.8779 10.6592 19.3799 10.7812 18.7793 10.7812C18.2715 10.7812 17.8125 10.686 17.4023 10.4956C16.9971 10.3052 16.6772 10.0293 16.4429 9.66797C16.2134 9.30176 16.0986 8.86719 16.0986 8.36426ZM17.6221 8.37891C17.6221 8.75 17.7588 9.03564 18.0322 9.23584C18.3105 9.43115 18.6768 9.53125 19.1309 9.53613C19.541 9.53613 19.8999 9.45312 20.2075 9.28711C20.5151 9.12109 20.752 8.90137 20.918 8.62793C21.084 8.34961 21.167 8.05176 21.167 7.73438L21.1597 7.00928L19.292 7.13379C18.7598 7.17285 18.3472 7.29492 18.0542 7.5C17.7661 7.70508 17.6221 7.99805 17.6221 8.37891ZM24.6094 2.65137H26.1182V3.95508H26.2061C26.377 3.51074 26.6504 3.1665 27.0264 2.92236C27.4023 2.67334 27.8516 2.54883 28.374 2.54883C28.8965 2.54883 29.3408 2.6709 29.707 2.91504C30.0732 3.15918 30.3418 3.50586 30.5127 3.95508H30.6006C30.791 3.52051 31.0938 3.17871 31.5088 2.92969C31.9287 2.67578 32.4219 2.54883 32.9883 2.54883C33.4766 2.54883 33.9038 2.65137 34.27 2.85645C34.6411 3.05664 34.9292 3.36182 35.1343 3.77197C35.3442 4.18213 35.4492 4.68262 35.4492 5.27344V10.6055H33.8818V5.41992C33.8818 4.90723 33.7427 4.52637 33.4644 4.27734C33.186 4.02344 32.8271 3.89648 32.3877 3.89648C32.0605 3.89648 31.7773 3.96729 31.5381 4.10889C31.2988 4.24561 31.1157 4.43848 30.9888 4.6875C30.8667 4.93652 30.8057 5.21973 30.8057 5.53711V10.6055H29.2529V5.33203C29.2529 5.04395 29.1919 4.79248 29.0698 4.57764C28.9478 4.35791 28.7769 4.18945 28.5571 4.07227C28.3374 3.95508 28.0859 3.89648 27.8027 3.89648C27.5098 3.89648 27.2388 3.97461 26.9897 4.13086C26.7407 4.28223 26.543 4.49463 26.3965 4.76807C26.25 5.0415 26.1768 5.35156 26.1768 5.69824V10.6055H24.6094V2.65137ZM37.3389 2.65137H38.8623V3.94043H38.9941C39.1309 3.70117 39.2798 3.48389 39.4409 3.28857C39.6069 3.09326 39.8413 2.92236 40.144 2.77588C40.4517 2.62451 40.8301 2.54883 41.2793 2.54883C41.9238 2.54883 42.4976 2.7124 43.0005 3.03955C43.5083 3.3667 43.9038 3.84033 44.187 4.46045C44.4751 5.07568 44.6191 5.80566 44.6191 6.65039C44.6191 7.48535 44.4775 8.21533 44.1943 8.84033C43.9111 9.46045 43.5181 9.93652 43.0151 10.2686C42.5122 10.5957 41.9385 10.7617 41.2939 10.7666C40.6641 10.7617 40.1758 10.6226 39.8291 10.3491C39.4824 10.0757 39.2041 9.74609 38.9941 9.36035H38.9062V13.5938H37.3389V2.65137ZM38.877 6.62109C38.877 7.18262 38.9575 7.67578 39.1187 8.10059C39.2798 8.52051 39.5142 8.84766 39.8218 9.08203C40.1343 9.31641 40.5078 9.43359 40.9424 9.43359C41.3867 9.43359 41.7651 9.31152 42.0776 9.06738C42.395 8.82324 42.6343 8.49121 42.7954 8.07129C42.9565 7.64648 43.0371 7.16309 43.0371 6.62109C43.0371 6.08887 42.9565 5.61768 42.7954 5.20752C42.6392 4.79248 42.4048 4.46777 42.0923 4.2334C41.7798 3.99902 41.3965 3.88184 40.9424 3.88184C40.5029 3.88184 40.127 3.99414 39.8145 4.21875C39.5068 4.43848 39.2725 4.75586 39.1113 5.1709C38.9551 5.58105 38.877 6.06445 38.877 6.62109ZM47.7393 10.6055H46.1719V0H47.7393V10.6055ZM53.0713 10.7666C52.2998 10.7666 51.6284 10.5981 51.0571 10.2612C50.4858 9.92432 50.0488 9.44824 49.7461 8.83301C49.4434 8.21777 49.292 7.5 49.292 6.67969C49.292 5.86914 49.4434 5.15137 49.7461 4.52637C50.0488 3.90137 50.4785 3.41553 51.0352 3.06885C51.5918 2.72217 52.2363 2.54883 52.9688 2.54883C53.6084 2.54883 54.1943 2.68799 54.7266 2.96631C55.2588 3.24463 55.686 3.68408 56.0083 4.28467C56.3354 4.88037 56.499 5.63477 56.499 6.54785V7.10449H50.8447C50.8594 7.60254 50.9619 8.02979 51.1523 8.38623C51.3428 8.74268 51.604 9.01367 51.936 9.19922C52.2681 9.38477 52.6514 9.47754 53.0859 9.47754C53.5059 9.47754 53.8623 9.39941 54.1553 9.24316C54.4531 9.08203 54.6729 8.87207 54.8145 8.61328H56.3965C56.2793 9.04297 56.0693 9.42139 55.7666 9.74854C55.4639 10.0708 55.083 10.3223 54.624 10.5029C54.165 10.6787 53.6475 10.7666 53.0713 10.7666ZM54.9609 5.93262C54.9609 5.53223 54.8779 5.17334 54.7119 4.85596C54.5508 4.53369 54.3188 4.28467 54.0161 4.10889C53.7183 3.92822 53.374 3.83789 52.9834 3.83789C52.5781 3.83789 52.2168 3.93311 51.8994 4.12354C51.5869 4.30908 51.3403 4.56299 51.1597 4.88525C50.979 5.20752 50.8765 5.55664 50.8521 5.93262H54.9609ZM63.2666 9.16992C62.793 9.16992 62.3682 9.04785 61.9922 8.80371C61.6211 8.55957 61.3281 8.20801 61.1133 7.74902C60.8984 7.29004 60.791 6.74805 60.791 6.12305C60.791 5.49805 60.9009 4.9585 61.1206 4.50439C61.3403 4.04541 61.6357 3.69629 62.0068 3.45703C62.3828 3.21289 62.8027 3.09082 63.2666 3.09082C63.7109 3.09082 64.0625 3.19336 64.3213 3.39844C64.5801 3.59863 64.7754 3.82812 64.9072 4.08691H64.9805V3.20801H66.2549V7.30957C66.2646 7.58301 66.3232 7.7832 66.4307 7.91016C66.543 8.03711 66.7114 8.10059 66.936 8.10059C67.2095 8.10059 67.4487 8.00049 67.6538 7.80029C67.8638 7.6001 68.0249 7.31934 68.1372 6.95801C68.2495 6.5918 68.3057 6.17188 68.3057 5.69824C68.3057 4.8291 68.1104 4.06494 67.7197 3.40576C67.334 2.74658 66.792 2.23633 66.0938 1.875C65.3955 1.51367 64.5947 1.33301 63.6914 1.33301C62.7734 1.33301 61.9629 1.54541 61.2598 1.97021C60.5615 2.39014 60.022 2.96387 59.6411 3.69141C59.2603 4.41895 59.0674 5.22949 59.0625 6.12305C59.0625 7.09473 59.2334 7.94189 59.5752 8.66455C59.9219 9.38232 60.4346 9.93896 61.1133 10.3345C61.792 10.73 62.6147 10.9277 63.5815 10.9277C64.1235 10.9277 64.5972 10.9033 65.0024 10.8545C65.4077 10.8057 65.8252 10.7227 66.2549 10.6055V11.7773C65.4346 12.0117 64.5605 12.1289 63.6328 12.1289C62.4365 12.1289 61.4014 11.8848 60.5273 11.3965C59.6582 10.9131 58.9917 10.2197 58.5278 9.31641C58.064 8.41309 57.832 7.34863 57.832 6.12305C57.832 4.98047 58.0811 3.95508 58.5791 3.04688C59.0771 2.13379 59.7705 1.4209 60.6592 0.908203C61.5527 0.390625 62.5635 0.131836 63.6914 0.131836C64.8242 0.131836 65.835 0.371094 66.7236 0.849609C67.6123 1.32812 68.3032 1.98975 68.7964 2.83447C69.2896 3.67432 69.5361 4.61914 69.5361 5.66895C69.5361 6.39648 69.4214 7.02881 69.1919 7.56592C68.9624 8.10303 68.6426 8.51562 68.2324 8.80371C67.8271 9.08691 67.3633 9.22852 66.8408 9.22852C66.5234 9.22852 66.2354 9.17969 65.9766 9.08203C65.7227 8.98438 65.5127 8.84766 65.3467 8.67188C65.1855 8.49609 65.0879 8.2959 65.0537 8.07129H64.9805C64.8438 8.35449 64.6387 8.6084 64.3652 8.83301C64.0967 9.05762 63.7305 9.16992 63.2666 9.16992ZM62.168 6.08643C62.168 6.63818 62.2925 7.08984 62.5415 7.44141C62.7905 7.78809 63.1396 7.96387 63.5889 7.96875C64.043 7.96387 64.3921 7.79541 64.6362 7.46338C64.8804 7.13135 65.0049 6.67969 65.0098 6.1084C65.0049 5.54688 64.8804 5.10498 64.6362 4.78271C64.397 4.46045 64.0479 4.29688 63.5889 4.29199C63.1445 4.29688 62.7954 4.46533 62.5415 4.79736C62.2925 5.12939 62.168 5.55908 62.168 6.08643ZM72.7881 10.6055H71.2207V2.65137H72.7295V3.95508H72.8174C73.0078 3.51074 73.3008 3.1665 73.6963 2.92236C74.0967 2.67334 74.585 2.54883 75.1611 2.54883C75.708 2.54883 76.1841 2.66357 76.5894 2.89307C76.9995 3.12256 77.3145 3.46191 77.5342 3.91113C77.7588 4.36035 77.8711 4.90723 77.8711 5.55176V10.6055H76.3184V5.74219C76.3135 5.16113 76.1621 4.70947 75.8643 4.38721C75.5713 4.06006 75.1611 3.89648 74.6338 3.89648C74.2725 3.89648 73.9526 3.97461 73.6743 4.13086C73.396 4.28711 73.1787 4.5166 73.0225 4.81934C72.8662 5.11719 72.7881 5.47363 72.7881 5.88867V10.6055ZM79.4092 8.36426C79.4043 7.53906 79.6802 6.95068 80.2368 6.59912C80.7983 6.24756 81.5137 6.04004 82.3828 5.97656C83.5107 5.91309 84.2065 5.87646 84.4702 5.8667L84.4629 5.22949C84.4678 4.77539 84.3311 4.42627 84.0527 4.18213C83.7793 3.93311 83.3789 3.80859 82.8516 3.80859C82.4072 3.80859 82.0435 3.90137 81.7603 4.08691C81.4771 4.26758 81.2939 4.51172 81.2109 4.81934H79.6582C79.707 4.37988 79.8706 3.98926 80.1489 3.64746C80.4272 3.30078 80.8032 3.03223 81.2769 2.8418C81.7505 2.64648 82.2949 2.54883 82.9102 2.54883C83.4131 2.54883 83.8965 2.62695 84.3604 2.7832C84.8291 2.93457 85.2246 3.21777 85.5469 3.63281C85.8691 4.04297 86.0303 4.60449 86.0303 5.31738V10.6055H84.5068V9.52148H84.4482C84.2676 9.86816 83.9795 10.166 83.584 10.415C83.1885 10.6592 82.6904 10.7812 82.0898 10.7812C81.582 10.7812 81.123 10.686 80.7129 10.4956C80.3076 10.3052 79.9878 10.0293 79.7534 9.66797C79.5239 9.30176 79.4092 8.86719 79.4092 8.36426ZM80.9326 8.37891C80.9326 8.75 81.0693 9.03564 81.3428 9.23584C81.6211 9.43115 81.9873 9.53125 82.4414 9.53613C82.8516 9.53613 83.2104 9.45312 83.5181 9.28711C83.8257 9.12109 84.0625 8.90137 84.2285 8.62793C84.3945 8.34961 84.4775 8.05176 84.4775 7.73438L84.4702 7.00928L82.6025 7.13379C82.0703 7.17285 81.6577 7.29492 81.3647 7.5C81.0767 7.70508 80.9326 7.99805 80.9326 8.37891ZM91.5674 10.6055H89.8828L86.9971 2.65137H88.6816L90.6885 8.75977H90.7617L92.7686 2.65137H94.4531L91.5674 10.6055ZM98.877 10.7666C98.1055 10.7666 97.4341 10.5981 96.8628 10.2612C96.2915 9.92432 95.8545 9.44824 95.5518 8.83301C95.249 8.21777 95.0977 7.5 95.0977 6.67969C95.0977 5.86914 95.249 5.15137 95.5518 4.52637C95.8545 3.90137 96.2842 3.41553 96.8408 3.06885C97.3975 2.72217 98.042 2.54883 98.7744 2.54883C99.4141 2.54883 100 2.68799 100.532 2.96631C101.064 3.24463 101.492 3.68408 101.814 4.28467C102.141 4.88037 102.305 5.63477 102.305 6.54785V7.10449H96.6504C96.665 7.60254 96.7676 8.02979 96.958 8.38623C97.1484 8.74268 97.4097 9.01367 97.7417 9.19922C98.0737 9.38477 98.457 9.47754 98.8916 9.47754C99.3115 9.47754 99.668 9.39941 99.9609 9.24316C100.259 9.08203 100.479 8.87207 100.62 8.61328H102.202C102.085 9.04297 101.875 9.42139 101.572 9.74854C101.27 10.0708 100.889 10.3223 100.43 10.5029C99.9707 10.6787 99.4531 10.7666 98.877 10.7666ZM100.767 5.93262C100.767 5.53223 100.684 5.17334 100.518 4.85596C100.356 4.53369 100.125 4.28467 99.8218 4.10889C99.5239 3.92822 99.1797 3.83789 98.7891 3.83789C98.3838 3.83789 98.0225 3.93311 97.7051 4.12354C97.3926 4.30908 97.146 4.56299 96.9653 4.88525C96.7847 5.20752 96.6821 5.55664 96.6577 5.93262H100.767ZM103.857 2.65137H105.366V3.91113H105.454C105.601 3.49121 105.854 3.15674 106.216 2.90771C106.582 2.65869 106.995 2.53418 107.454 2.53418C107.683 2.53418 107.91 2.54395 108.135 2.56348V4.05762C108.047 4.03809 107.92 4.01855 107.754 3.99902C107.593 3.97949 107.441 3.96973 107.3 3.96973C106.943 3.96973 106.624 4.04785 106.34 4.2041C106.057 4.35547 105.833 4.56787 105.667 4.84131C105.505 5.10986 105.425 5.41504 105.425 5.75684V10.6055H103.857V2.65137ZM109.424 10.708C109.238 10.708 109.065 10.6616 108.904 10.5688C108.748 10.4761 108.621 10.3516 108.523 10.1953C108.43 10.0391 108.384 9.86816 108.384 9.68262C108.384 9.49219 108.43 9.31641 108.523 9.15527C108.616 8.99414 108.74 8.86719 108.896 8.77441C109.058 8.67676 109.233 8.62793 109.424 8.62793C109.609 8.62793 109.78 8.67432 109.937 8.76709C110.098 8.85986 110.225 8.98682 110.317 9.14795C110.415 9.30908 110.464 9.48242 110.464 9.66797C110.464 9.85352 110.415 10.0269 110.317 10.188C110.225 10.3442 110.098 10.4712 109.937 10.5688C109.78 10.6616 109.609 10.708 109.424 10.708ZM115.723 10.7666C114.961 10.7666 114.299 10.5933 113.738 10.2466C113.176 9.8999 112.747 9.4165 112.449 8.79639C112.151 8.17139 112.002 7.46094 112.002 6.66504C112.002 5.86426 112.153 5.15137 112.456 4.52637C112.759 3.90137 113.188 3.41553 113.745 3.06885C114.307 2.72217 114.956 2.54883 115.693 2.54883C116.294 2.54883 116.833 2.66113 117.312 2.88574C117.791 3.10547 118.176 3.41797 118.469 3.82324C118.762 4.22852 118.936 4.69727 118.989 5.22949H117.466C117.378 4.83398 117.183 4.50684 116.88 4.24805C116.582 3.98926 116.196 3.85742 115.723 3.85254C115.293 3.85254 114.915 3.96729 114.587 4.19678C114.265 4.42139 114.014 4.74365 113.833 5.16357C113.657 5.57861 113.569 6.06445 113.569 6.62109C113.569 7.19238 113.657 7.69043 113.833 8.11523C114.009 8.54004 114.258 8.86719 114.58 9.09668C114.902 9.32129 115.278 9.43359 115.708 9.43359C116.157 9.43359 116.538 9.31641 116.851 9.08203C117.163 8.84766 117.368 8.51562 117.466 8.08594H118.989C118.931 8.60352 118.76 9.06494 118.477 9.47021C118.198 9.87549 117.822 10.1929 117.349 10.4224C116.875 10.6519 116.333 10.7666 115.723 10.7666ZM123.838 10.7666C123.096 10.7666 122.441 10.5957 121.875 10.2539C121.313 9.91211 120.879 9.43359 120.571 8.81836C120.269 8.19824 120.117 7.48047 120.117 6.66504C120.117 5.84961 120.269 5.13184 120.571 4.51172C120.879 3.88672 121.313 3.40332 121.875 3.06152C122.441 2.71973 123.096 2.54883 123.838 2.54883C124.575 2.54883 125.225 2.71973 125.786 3.06152C126.348 3.40332 126.78 3.88672 127.083 4.51172C127.39 5.13184 127.544 5.84961 127.544 6.66504C127.544 7.48047 127.39 8.19824 127.083 8.81836C126.78 9.43359 126.348 9.91211 125.786 10.2539C125.225 10.5957 124.575 10.7666 123.838 10.7666ZM121.685 6.66504C121.685 7.1875 121.765 7.66113 121.926 8.08594C122.087 8.50586 122.329 8.84033 122.651 9.08936C122.974 9.33838 123.369 9.46289 123.838 9.46289C124.297 9.46289 124.685 9.33838 125.002 9.08936C125.325 8.84033 125.564 8.50586 125.72 8.08594C125.881 7.66113 125.962 7.1875 125.962 6.66504C125.962 6.14258 125.881 5.66895 125.72 5.24414C125.564 4.81445 125.325 4.47266 125.002 4.21875C124.685 3.96484 124.297 3.83789 123.838 3.83789C123.369 3.83789 122.974 3.96484 122.651 4.21875C122.329 4.47266 122.087 4.81445 121.926 5.24414C121.765 5.66895 121.685 6.14258 121.685 6.66504ZM129.082 2.65137H130.591V3.95508H130.679C130.85 3.51074 131.123 3.1665 131.499 2.92236C131.875 2.67334 132.324 2.54883 132.847 2.54883C133.369 2.54883 133.813 2.6709 134.18 2.91504C134.546 3.15918 134.814 3.50586 134.985 3.95508H135.073C135.264 3.52051 135.566 3.17871 135.981 2.92969C136.401 2.67578 136.895 2.54883 137.461 2.54883C137.949 2.54883 138.376 2.65137 138.743 2.85645C139.114 3.05664 139.402 3.36182 139.607 3.77197C139.817 4.18213 139.922 4.68262 139.922 5.27344V10.6055H138.354V5.41992C138.354 4.90723 138.215 4.52637 137.937 4.27734C137.659 4.02344 137.3 3.89648 136.86 3.89648C136.533 3.89648 136.25 3.96729 136.011 4.10889C135.771 4.24561 135.588 4.43848 135.461 4.6875C135.339 4.93652 135.278 5.21973 135.278 5.53711V10.6055H133.726V5.33203C133.726 5.04395 133.665 4.79248 133.542 4.57764C133.42 4.35791 133.25 4.18945 133.03 4.07227C132.81 3.95508 132.559 3.89648 132.275 3.89648C131.982 3.89648 131.711 3.97461 131.462 4.13086C131.213 4.28223 131.016 4.49463 130.869 4.76807C130.723 5.0415 130.649 5.35156 130.649 5.69824V10.6055H129.082V2.65137Z" fill="#C3C3C3"/>
</svg>
