<svg width="442" height="19" viewBox="0 0 442 19" fill="none" xmlns="http://www.w3.org/2000/svg">
<path d="M30.8516 10.8105H29.6455V4.7041H30.8516V10.8105ZM21.6475 7.86523C21.6475 7.35319 21.7786 6.89616 22.041 6.49414C22.3034 6.09212 22.6652 5.78109 23.1265 5.56104C23.5877 5.33675 24.1061 5.22461 24.6816 5.22461C25.2572 5.22461 25.7734 5.33675 26.2305 5.56104C26.6917 5.78109 27.0514 6.09212 27.3096 6.49414C27.5719 6.89616 27.7031 7.35319 27.7031 7.86523C27.7031 8.37728 27.5719 8.83431 27.3096 9.23633C27.0514 9.63411 26.6917 9.94515 26.2305 10.1694C25.7734 10.3895 25.2572 10.4974 24.6816 10.4932C24.1061 10.4974 23.5877 10.3895 23.1265 10.1694C22.6652 9.94515 22.3034 9.63411 22.041 9.23633C21.7786 8.83431 21.6475 8.37728 21.6475 7.86523ZM22.8281 7.86523C22.8281 8.18685 22.9064 8.47249 23.063 8.72217C23.2196 8.96761 23.4396 9.16016 23.7231 9.2998C24.0067 9.43522 24.3262 9.50293 24.6816 9.50293C25.0329 9.50293 25.3481 9.43522 25.6274 9.2998C25.9067 9.16016 26.1247 8.96761 26.2812 8.72217C26.4421 8.47249 26.5225 8.18685 26.5225 7.86523C26.5225 7.54785 26.4421 7.26644 26.2812 7.021C26.1247 6.77132 25.9067 6.57878 25.6274 6.44336C25.3481 6.30794 25.0329 6.24023 24.6816 6.24023C24.3262 6.24023 24.0067 6.30794 23.7231 6.44336C23.4396 6.57878 23.2196 6.77132 23.063 7.021C22.9064 7.26644 22.8281 7.54785 22.8281 7.86523ZM23.4121 11.3564H24.5928V12.6387H29.6582V11.3564H30.8516V15.9395H23.4121V11.3564ZM29.6582 14.9492V13.5908H24.5928V14.9492H29.6582ZM38.0752 8.70312H34.3174V10.2773C35.3626 10.2773 36.1942 10.2604 36.812 10.2266C37.4299 10.1885 38.0456 10.1123 38.6592 9.99805L38.7734 10.9756C38.1133 11.0856 37.4468 11.1597 36.7739 11.1978C36.1011 11.2316 35.1595 11.2507 33.9492 11.2549H33.124V7.78906H36.8691V6.35449H33.1113V5.38965H38.0752V8.70312ZM34.4189 12.2832H42.1377V16.0918H40.9316V13.2607H34.4189V12.2832ZM38.7988 8.74121H40.9316V7.33203H38.7988V6.36719H40.9316V4.7168H42.1377V11.7119H40.9316V9.70605H38.7988V8.74121ZM52.751 9.3125H54.5791V10.3154H52.751V16.0791H51.5576V4.7041H52.751V9.3125ZM43.8262 6.48145H46.6318V4.85645H47.8379V6.48145H50.5674V7.47168H43.8262V6.48145ZM44.4102 10.9502C44.4102 10.4424 44.5308 9.98747 44.772 9.58545C45.0174 9.18343 45.3538 8.87028 45.7812 8.646C46.2129 8.42171 46.6995 8.30957 47.2412 8.30957C47.7786 8.30957 48.2611 8.42171 48.6885 8.646C49.1201 8.87028 49.4587 9.18343 49.7041 9.58545C49.9495 9.98747 50.0723 10.4424 50.0723 10.9502C50.0723 11.4622 49.9495 11.9193 49.7041 12.3213C49.4587 12.7233 49.1201 13.0386 48.6885 13.2671C48.2611 13.4914 47.7786 13.6035 47.2412 13.6035C46.6995 13.6035 46.2129 13.4914 45.7812 13.2671C45.3538 13.0386 45.0174 12.7233 44.772 12.3213C44.5308 11.9193 44.4102 11.4622 44.4102 10.9502ZM45.5654 10.9502C45.5654 11.276 45.6353 11.5638 45.7749 11.8135C45.9188 12.0632 46.1177 12.2557 46.3716 12.3911C46.6297 12.5265 46.9196 12.5921 47.2412 12.5879C47.5586 12.5921 47.8442 12.5265 48.0981 12.3911C48.3521 12.2557 48.5509 12.0632 48.6948 11.8135C48.8429 11.5638 48.917 11.276 48.917 10.9502C48.917 10.6328 48.8429 10.3493 48.6948 10.0996C48.5509 9.84993 48.3521 9.65527 48.0981 9.51562C47.8442 9.37174 47.5586 9.2998 47.2412 9.2998C46.9196 9.2998 46.6297 9.37174 46.3716 9.51562C46.1177 9.65527 45.9188 9.84993 45.7749 10.0996C45.6353 10.3493 45.5654 10.6328 45.5654 10.9502ZM64.5576 13.0449H63.3516V4.7168H64.5576V13.0449ZM55.1885 10.4805C55.7725 10.2646 56.2782 9.9515 56.7056 9.54102C57.133 9.13053 57.4588 8.65869 57.6831 8.12549C57.9116 7.59229 58.028 7.04004 58.0322 6.46875V5.33887H59.2637V6.46875C59.2637 7.02311 59.3758 7.55208 59.6001 8.05566C59.8244 8.55924 60.1481 9.00358 60.5713 9.38867C60.9945 9.77376 61.4938 10.0658 62.0693 10.2646L61.4473 11.2295C60.7956 10.9883 60.2306 10.637 59.7524 10.1758C59.2785 9.71029 58.9124 9.1665 58.6543 8.54443C58.4004 9.21305 58.0301 9.79915 57.5435 10.3027C57.061 10.8021 56.4919 11.1787 55.8359 11.4326L55.1885 10.4805ZM57.1182 12.2578H58.3369V14.8604H64.9004V15.8379H57.1182V12.2578ZM79.2715 16.0791H78.1162V10.1758H76.707V15.5332H75.5771V5.00879H76.707V9.19824H78.1162V4.7041H79.2715V16.0791ZM69.4961 12.8291C70.7148 12.1351 71.6247 11.3162 72.2256 10.3726C72.8265 9.42887 73.1756 8.35189 73.2729 7.1416H69.9785V6.15137H74.4473C74.443 7.77214 74.1172 9.21305 73.4697 10.4741C72.8223 11.7352 71.7305 12.7995 70.1943 13.667L69.4961 12.8291ZM90.2021 12.9814H88.9961V4.7168H90.2021V12.9814ZM80.998 8.29688C80.998 7.75944 81.1313 7.27702 81.3979 6.84961C81.6646 6.4222 82.0285 6.08789 82.4897 5.84668C82.951 5.60124 83.4652 5.47852 84.0322 5.47852C84.5993 5.47852 85.1113 5.60124 85.5684 5.84668C86.0296 6.08789 86.3914 6.4222 86.6538 6.84961C86.9204 7.27702 87.0537 7.75944 87.0537 8.29688C87.0537 8.84277 86.9204 9.33154 86.6538 9.76318C86.3914 10.1906 86.0296 10.5249 85.5684 10.7661C85.1113 11.0073 84.5993 11.1279 84.0322 11.1279C83.4652 11.1279 82.951 11.0073 82.4897 10.7661C82.0285 10.5249 81.6646 10.1906 81.3979 9.76318C81.1313 9.33154 80.998 8.84277 80.998 8.29688ZM82.1787 8.29688C82.1787 8.64811 82.257 8.95915 82.4136 9.22998C82.5744 9.49658 82.7965 9.70394 83.0801 9.85205C83.3636 10.0002 83.681 10.0742 84.0322 10.0742C84.3792 10.0742 84.6924 10.0002 84.9717 9.85205C85.251 9.70394 85.471 9.49658 85.6318 9.22998C85.7926 8.95915 85.873 8.64811 85.873 8.29688C85.873 7.9541 85.7926 7.64941 85.6318 7.38281C85.471 7.11198 85.251 6.90251 84.9717 6.75439C84.6924 6.60628 84.3792 6.53223 84.0322 6.53223C83.681 6.53223 83.3636 6.60628 83.0801 6.75439C82.7965 6.90251 82.5744 7.11198 82.4136 7.38281C82.257 7.64941 82.1787 7.9541 82.1787 8.29688ZM82.7627 12.1436H83.9814V14.8604H90.5449V15.8379H82.7627V12.1436ZM101.488 11.4707H100.282V8.58887H98.1621V7.59863H100.282V4.7041H101.488V11.4707ZM92.0049 10.4424C92.5804 10.2393 93.084 9.94727 93.5156 9.56641C93.9473 9.18132 94.2773 8.74333 94.5059 8.25244C94.7386 7.75732 94.8529 7.2474 94.8486 6.72266V6.46875H92.3857V5.49121H98.5176V6.46875H96.0801V6.70996C96.0758 7.19238 96.1838 7.65999 96.4038 8.11279C96.6239 8.56559 96.9412 8.96973 97.356 9.3252C97.7707 9.67643 98.2594 9.94727 98.8223 10.1377L98.2002 11.0898C97.5739 10.874 97.028 10.5524 96.5625 10.125C96.1012 9.69336 95.7437 9.18978 95.4897 8.61426C95.2401 9.25749 94.8698 9.82243 94.3789 10.3091C93.888 10.7957 93.3083 11.1618 92.6396 11.4072L92.0049 10.4424ZM93.833 13.9336C93.833 13.485 93.9854 13.1021 94.29 12.7847C94.599 12.4631 95.0412 12.2176 95.6167 12.0483C96.1965 11.8748 96.8841 11.7881 97.6797 11.7881C98.471 11.7881 99.1545 11.8748 99.73 12.0483C100.306 12.2176 100.748 12.4631 101.057 12.7847C101.37 13.1021 101.526 13.485 101.526 13.9336C101.526 14.3822 101.37 14.7651 101.057 15.0825C100.748 15.4041 100.306 15.6496 99.73 15.8188C99.1545 15.9924 98.471 16.0791 97.6797 16.0791C96.8841 16.0791 96.1965 15.9924 95.6167 15.8188C95.0412 15.6496 94.599 15.4041 94.29 15.0825C93.9854 14.7651 93.833 14.3822 93.833 13.9336ZM95.0264 13.9336C95.0221 14.3187 95.2528 14.617 95.7183 14.8286C96.188 15.036 96.8418 15.1354 97.6797 15.127C98.5091 15.1354 99.1566 15.036 99.6221 14.8286C100.092 14.617 100.329 14.3187 100.333 13.9336C100.329 13.5527 100.096 13.2565 99.6348 13.0449C99.1777 12.8333 98.5387 12.7275 97.7178 12.7275C96.863 12.7275 96.1986 12.8312 95.7246 13.0386C95.2549 13.2459 95.0221 13.5443 95.0264 13.9336ZM113.65 14.6699H103.24V13.667H107.823V11.3311H104.434V5.47852H105.64V7.43359H111.226V5.47852H112.419V11.3311H109.017V13.667H113.65V14.6699ZM111.226 10.3535V8.41113H105.64V10.3535H111.226ZM123.68 8.99512H115.847V5.11035H117.04V8.03027H123.68V8.99512ZM114.463 10.4297H124.873V11.3945H114.463V10.4297ZM115.758 12.4736H116.964V14.8223H123.756V15.8125H115.758V12.4736ZM139.282 11.4326H134.763V13.6416H133.569V11.4326H128.872V10.4551H139.282V11.4326ZM130.167 12.5625H131.373V14.8604H138.127V15.8379H130.167V12.5625ZM130.205 5.2373H137.937V9.27441H130.205V5.2373ZM136.743 8.32227V6.18945H131.386V8.32227H136.743ZM143.827 5.5166C144.42 5.5166 144.951 5.63086 145.42 5.85938C145.89 6.08366 146.258 6.40316 146.525 6.81787C146.792 7.22835 146.925 7.69596 146.925 8.2207C146.925 8.74544 146.792 9.21517 146.525 9.62988C146.258 10.0404 145.89 10.362 145.42 10.5947C144.951 10.8232 144.42 10.9375 143.827 10.9375C143.235 10.9375 142.701 10.8232 142.228 10.5947C141.758 10.362 141.39 10.0404 141.123 9.62988C140.861 9.21517 140.729 8.74544 140.729 8.2207C140.729 7.69596 140.861 7.22835 141.123 6.81787C141.39 6.40739 141.758 6.08789 142.228 5.85938C142.701 5.63086 143.235 5.5166 143.827 5.5166ZM140.184 12.6514C141.614 12.6514 142.934 12.6281 144.145 12.5815C145.355 12.535 146.51 12.4313 147.61 12.2705L147.699 13.1465C146.565 13.3665 145.412 13.5062 144.24 13.5654C143.072 13.6247 141.771 13.6543 140.336 13.6543L140.184 12.6514ZM141.923 8.2207C141.919 8.55078 141.997 8.84277 142.158 9.09668C142.323 9.34635 142.549 9.54102 142.837 9.68066C143.129 9.81608 143.459 9.88379 143.827 9.88379C144.195 9.88379 144.523 9.81608 144.811 9.68066C145.103 9.54102 145.332 9.34635 145.497 9.09668C145.662 8.84277 145.744 8.55078 145.744 8.2207C145.744 7.89486 145.662 7.6071 145.497 7.35742C145.332 7.10352 145.103 6.90674 144.811 6.76709C144.519 6.62744 144.191 6.55762 143.827 6.55762C143.459 6.55762 143.129 6.62744 142.837 6.76709C142.549 6.90674 142.323 7.10352 142.158 7.35742C141.997 7.6071 141.919 7.89486 141.923 8.2207ZM148.321 4.7041H149.527V16.1045H148.321V4.7041ZM164.025 16.1045H162.819V10.1885H160.471V9.21094H162.819V4.7041H164.025V16.1045ZM154.529 12.9688C155.092 12.7106 155.589 12.3382 156.021 11.8516C156.453 11.3649 156.785 10.8169 157.018 10.2075C157.255 9.59814 157.373 8.98242 157.373 8.36035V7.61133H154.847V6.64648H157.386V4.93262H158.592V6.64648H161.055V7.61133H158.566V8.36035C158.566 8.95703 158.687 9.54736 158.928 10.1313C159.174 10.7111 159.516 11.2337 159.957 11.6992C160.397 12.1647 160.902 12.5244 161.474 12.7783L160.801 13.7051C160.158 13.4215 159.593 13.0005 159.106 12.4419C158.619 11.8791 158.247 11.2358 157.989 10.5122C157.735 11.2824 157.365 11.9658 156.878 12.5625C156.396 13.1549 155.833 13.5993 155.189 13.8955L154.529 12.9688ZM175.21 16.1045H174.004V4.7041H175.21V16.1045ZM166.399 5.73242H171.731V9.88379H167.644V12.3721C168.63 12.3678 169.542 12.3361 170.379 12.2769C171.222 12.2176 172.095 12.1139 173.001 11.9658L173.115 12.9561C172.172 13.1126 171.255 13.2205 170.367 13.2798C169.478 13.339 168.481 13.3708 167.377 13.375H166.412V8.91895H170.5V6.70996H166.399V5.73242ZM189.226 9.07129H185.95V10.3916H190.546V11.3691H180.174V10.3916H184.757V9.07129H181.494V5.17383H189.226V9.07129ZM181.329 12.4482H189.276V16.0791H188.058V13.4004H181.329V12.4482ZM188.032 8.10645V6.12598H182.675V8.10645H188.032ZM195.484 6.72266C195.48 7.20085 195.588 7.66634 195.808 8.11914C196.028 8.57194 196.346 8.97607 196.76 9.33154C197.175 9.68278 197.664 9.95573 198.227 10.1504L197.604 11.0898C196.978 10.874 196.432 10.5503 195.967 10.1187C195.501 9.68701 195.142 9.18555 194.888 8.61426C194.638 9.24902 194.268 9.8055 193.777 10.2837C193.29 10.7576 192.713 11.111 192.044 11.3438L191.422 10.3916C191.993 10.1969 192.493 9.9113 192.92 9.53467C193.347 9.15381 193.675 8.72005 193.904 8.2334C194.137 7.74674 194.253 7.2474 194.253 6.73535V6.41797H191.79V5.44043H197.922V6.41797H195.484V6.72266ZM193.187 12.0801H200.893V16.0791H199.687V13.0576H193.187V12.0801ZM197.579 7.59863H199.687V4.7041H200.893V11.5088H199.687V8.58887H197.579V7.59863ZM207.824 5.38965C208.616 5.38965 209.331 5.52295 209.97 5.78955C210.609 6.05192 211.11 6.42432 211.474 6.90674C211.842 7.38493 212.026 7.93717 212.026 8.56348C212.026 9.18978 211.842 9.74414 211.474 10.2266C211.11 10.709 210.609 11.0814 209.97 11.3438C209.331 11.6061 208.616 11.7373 207.824 11.7373C207.033 11.7373 206.318 11.6061 205.679 11.3438C205.044 11.0814 204.545 10.709 204.181 10.2266C203.817 9.74414 203.635 9.18978 203.635 8.56348C203.635 7.94141 203.817 7.38916 204.181 6.90674C204.545 6.42432 205.044 6.05192 205.679 5.78955C206.318 5.52295 207.033 5.38965 207.824 5.38965ZM202.645 13.6035H213.055V14.6064H202.645V13.6035ZM204.79 8.56348C204.79 8.99935 204.919 9.38232 205.177 9.7124C205.44 10.0425 205.801 10.2985 206.263 10.4805C206.724 10.6582 207.244 10.7471 207.824 10.7471C208.404 10.7471 208.922 10.6582 209.379 10.4805C209.841 10.2985 210.202 10.0425 210.465 9.7124C210.727 9.38232 210.858 8.99935 210.858 8.56348C210.858 8.13184 210.727 7.74886 210.465 7.41455C210.202 7.08024 209.841 6.8221 209.379 6.64014C208.918 6.45817 208.4 6.36719 207.824 6.36719C207.244 6.36719 206.724 6.45817 206.263 6.64014C205.801 6.8221 205.44 7.08024 205.177 7.41455C204.919 7.74886 204.79 8.13184 204.79 8.56348ZM224.29 14.7207H213.88V13.7051H218.463V11.7119H215.149V8.09375H221.827V6.49414H215.124V5.50391H223.021V9.05859H216.343V10.7217H223.287V11.7119H219.656V13.7051H224.29V14.7207ZM230.879 11.0137H225.56V5.70703H230.879V11.0137ZM229.698 10.0615V6.68457H226.74V10.0615H229.698ZM226.842 12.2324H228.048V14.8604H234.535V15.8379H226.842V12.2324ZM232.847 4.69141H234.053V8.09375H235.703V9.10938H234.053V13.0322H232.847V4.69141ZM243.473 7.59863C243.468 8.26302 243.587 8.92106 243.828 9.57275C244.069 10.2244 244.408 10.8084 244.844 11.3247C245.28 11.8368 245.775 12.2282 246.329 12.499L245.58 13.4639C244.971 13.1423 244.431 12.6831 243.961 12.0864C243.496 11.4855 243.136 10.8 242.882 10.0298C242.624 10.8507 242.252 11.5828 241.765 12.2261C241.283 12.8651 240.722 13.3496 240.083 13.6797L239.334 12.7021C239.905 12.4271 240.413 12.0208 240.857 11.4834C241.302 10.946 241.647 10.3366 241.892 9.65527C242.142 8.97396 242.267 8.28841 242.267 7.59863V5.65625H243.473V7.59863ZM247.18 4.7041H248.386V9.23633H250.214V10.2646H248.386V16.0791H247.18V4.7041ZM261.132 11.2295H250.76V10.252H253.248V8.72217C252.799 8.5402 252.457 8.30745 252.22 8.02393C251.987 7.7404 251.873 7.41243 251.877 7.04004C251.877 6.5957 252.04 6.21273 252.366 5.89111C252.696 5.5695 253.166 5.32617 253.775 5.16113C254.389 4.99186 255.11 4.90723 255.939 4.90723C256.769 4.90723 257.488 4.99186 258.098 5.16113C258.707 5.32617 259.177 5.5695 259.507 5.89111C259.837 6.21273 260.002 6.5957 260.002 7.04004C259.998 7.41243 259.877 7.74251 259.64 8.03027C259.403 8.3138 259.062 8.54655 258.618 8.72852V10.252H261.132V11.2295ZM251.991 14.0225C251.991 13.5908 252.148 13.2248 252.461 12.9243C252.774 12.6239 253.225 12.3953 253.813 12.2388C254.405 12.0822 255.114 12.0039 255.939 12.0039C256.752 12.0039 257.452 12.0822 258.041 12.2388C258.629 12.3953 259.079 12.626 259.393 12.9307C259.706 13.2311 259.862 13.5951 259.862 14.0225C259.862 14.4541 259.706 14.8223 259.393 15.127C259.079 15.4316 258.629 15.6623 258.041 15.8188C257.457 15.9754 256.756 16.0537 255.939 16.0537C255.114 16.0537 254.405 15.9754 253.813 15.8188C253.225 15.6623 252.774 15.4316 252.461 15.127C252.148 14.8265 251.991 14.4583 251.991 14.0225ZM253.121 7.04004C253.117 7.41667 253.362 7.70866 253.857 7.91602C254.353 8.12337 255.047 8.22917 255.939 8.2334C256.828 8.22917 257.52 8.12337 258.015 7.91602C258.514 7.70866 258.762 7.41667 258.758 7.04004C258.758 6.79036 258.646 6.57454 258.421 6.39258C258.197 6.21061 257.873 6.07308 257.45 5.97998C257.027 5.88265 256.523 5.83398 255.939 5.83398C255.051 5.83822 254.357 5.94613 253.857 6.15771C253.362 6.36507 253.117 6.65918 253.121 7.04004ZM253.21 14.0225C253.206 14.3779 253.443 14.653 253.921 14.8477C254.399 15.0381 255.072 15.1312 255.939 15.127C256.799 15.1354 257.465 15.0423 257.939 14.8477C258.417 14.653 258.656 14.3779 258.656 14.0225C258.656 13.6755 258.417 13.4067 257.939 13.2163C257.465 13.0259 256.799 12.9307 255.939 12.9307C255.068 12.9307 254.393 13.0259 253.915 13.2163C253.441 13.4067 253.206 13.6755 253.21 14.0225ZM257.425 10.252V9.03955C256.968 9.11149 256.473 9.14746 255.939 9.14746C255.432 9.14746 254.941 9.11361 254.467 9.0459V10.252H257.425ZM268.774 10.5059H266.375V12.6133C267.551 12.5625 268.588 12.4863 269.485 12.3848L269.574 13.2734C268.457 13.4385 267.304 13.5485 266.115 13.6035C264.926 13.6585 263.624 13.6882 262.211 13.6924L262.059 12.6895C263.222 12.6895 264.259 12.6789 265.169 12.6577V10.5059H262.884V5.75781H268.724V6.73535H264.077V9.51562H268.774V10.5059ZM270.196 4.7041H271.402V16.1045H270.196V4.7041ZM278.956 7.38281H281.521V4.7041H282.714V16.1045H281.521V11.4834H278.956V13.2354H273.675V5.7959H278.956V7.38281ZM277.775 12.2705V6.73535H274.868V12.2705H277.775ZM281.521 10.5059V8.37305H278.956V10.5059H281.521ZM285.494 17.6279H284.415L285.088 14.124H286.51L285.494 17.6279ZM300.475 16.1045H299.269V10.1885H296.92V9.21094H299.269V4.7041H300.475V16.1045ZM290.979 12.9688C291.541 12.7106 292.039 12.3382 292.47 11.8516C292.902 11.3649 293.234 10.8169 293.467 10.2075C293.704 9.59814 293.822 8.98242 293.822 8.36035V7.61133H291.296V6.64648H293.835V4.93262H295.041V6.64648H297.504V7.61133H295.016V8.36035C295.016 8.95703 295.136 9.54736 295.377 10.1313C295.623 10.7111 295.966 11.2337 296.406 11.6992C296.846 12.1647 297.352 12.5244 297.923 12.7783L297.25 13.7051C296.607 13.4215 296.042 13.0005 295.555 12.4419C295.069 11.8791 294.696 11.2358 294.438 10.5122C294.184 11.2824 293.814 11.9658 293.327 12.5625C292.845 13.1549 292.282 13.5993 291.639 13.8955L290.979 12.9688ZM311.659 16.1045H310.453V4.7041H311.659V16.1045ZM302.849 5.73242H308.181V9.88379H304.093V12.3721C305.079 12.3678 305.991 12.3361 306.829 12.2769C307.671 12.2176 308.545 12.1139 309.45 11.9658L309.564 12.9561C308.621 13.1126 307.705 13.2205 306.816 13.2798C305.927 13.339 304.931 13.3708 303.826 13.375H302.861V8.91895H306.949V6.70996H302.849V5.73242ZM320.076 5.21191C320.626 5.21191 321.115 5.30713 321.542 5.49756C321.974 5.68799 322.311 5.95459 322.552 6.29736C322.793 6.64014 322.916 7.03581 322.92 7.48438C322.916 7.86523 322.82 8.21012 322.634 8.51904C322.452 8.82796 322.196 9.08398 321.866 9.28711C321.536 9.49023 321.151 9.62565 320.711 9.69336V10.709C321.786 10.6497 322.772 10.5524 323.669 10.417L323.758 11.3057C322.742 11.4876 321.669 11.6125 320.54 11.6802C319.414 11.7437 318.252 11.7754 317.055 11.7754H316.737L316.61 10.7979H317.182C318.075 10.7979 318.849 10.7852 319.505 10.7598V9.70605C319.052 9.64258 318.654 9.50928 318.312 9.30615C317.973 9.10303 317.711 8.84489 317.524 8.53174C317.338 8.21859 317.245 7.86947 317.245 7.48438C317.245 7.03581 317.364 6.64014 317.601 6.29736C317.842 5.95459 318.176 5.68799 318.604 5.49756C319.035 5.30713 319.526 5.21191 320.076 5.21191ZM318.223 12.6514H319.429V14.8477H325.979V15.8379H318.223V12.6514ZM318.375 7.48438C318.371 7.74674 318.441 7.97949 318.584 8.18262C318.728 8.38574 318.929 8.54232 319.188 8.65234C319.446 8.76237 319.742 8.81738 320.076 8.81738C320.41 8.81738 320.707 8.76237 320.965 8.65234C321.223 8.54232 321.422 8.38786 321.562 8.18896C321.705 7.98584 321.777 7.75098 321.777 7.48438C321.777 7.21354 321.705 6.97656 321.562 6.77344C321.422 6.57031 321.223 6.41374 320.965 6.30371C320.707 6.19368 320.41 6.13867 320.076 6.13867C319.742 6.13867 319.446 6.19368 319.188 6.30371C318.929 6.41374 318.728 6.57031 318.584 6.77344C318.441 6.97656 318.371 7.21354 318.375 7.48438ZM324.367 4.7168H325.573V8.47461H327.198V9.49023H325.573V13.4131H324.367V4.7168ZM338.269 14.7207H327.858V13.7051H330.702V11.6992H329.128V8.08105H335.806V6.49414H329.103V5.50391H336.999V9.05859H330.321V10.709H337.266V11.6992H335.539V13.7051H338.269V14.7207ZM334.358 13.7051V11.6992H331.87V13.7051H334.358ZM352.056 6.95117H342.801V5.96094H346.851V4.65332H348.044V5.96094H352.056V6.95117ZM342.268 12.0674H352.678V13.0576H348.044V16.0918H346.851V13.0576H342.268V12.0674ZM343.664 9.45215C343.664 9.04167 343.812 8.69255 344.108 8.40479C344.409 8.11702 344.843 7.89909 345.41 7.75098C345.977 7.60286 346.656 7.53092 347.447 7.53516C348.234 7.53092 348.911 7.60286 349.479 7.75098C350.046 7.89909 350.479 8.11702 350.78 8.40479C351.08 8.69255 351.23 9.04167 351.23 9.45215C351.23 9.85417 351.08 10.1969 350.78 10.4805C350.479 10.764 350.046 10.9819 349.479 11.1343C348.911 11.2824 348.234 11.3564 347.447 11.3564C346.66 11.3564 345.983 11.2824 345.416 11.1343C344.849 10.9819 344.415 10.764 344.115 10.4805C343.814 10.1969 343.664 9.85417 343.664 9.45215ZM344.908 9.45215C344.908 9.7653 345.124 10.0086 345.556 10.1821C345.987 10.3556 346.603 10.4424 347.403 10.4424C348.232 10.4424 348.869 10.3577 349.313 10.1885C349.758 10.0192 349.982 9.77376 349.986 9.45215C349.982 9.1263 349.76 8.87663 349.32 8.70312C348.884 8.52539 348.26 8.43652 347.447 8.43652C346.631 8.43652 346.002 8.52539 345.562 8.70312C345.126 8.87663 344.908 9.1263 344.908 9.45215ZM366.122 6.17676H362.663C362.696 6.55339 362.885 6.90885 363.228 7.24316C363.575 7.57324 364.034 7.85254 364.605 8.08105C365.181 8.30534 365.817 8.45345 366.516 8.52539L366.071 9.46484C365.415 9.3929 364.806 9.25537 364.243 9.05225C363.68 8.84489 363.192 8.58252 362.777 8.26514C362.366 7.94775 362.06 7.58805 361.856 7.18604C361.653 7.58805 361.347 7.94775 360.936 8.26514C360.526 8.58252 360.039 8.84489 359.476 9.05225C358.913 9.25537 358.306 9.3929 357.654 9.46484L357.223 8.52539C357.912 8.44922 358.543 8.29688 359.114 8.06836C359.686 7.83984 360.143 7.56055 360.485 7.23047C360.832 6.90039 361.021 6.54915 361.05 6.17676H357.629V5.21191H366.122V6.17676ZM356.677 10.1377H367.074V11.1152H356.677V10.1377ZM357.832 12.1689H365.779V16.0791H364.561V13.1465H357.832V12.1689ZM372.089 7.59863C372.085 8.28418 372.209 8.95915 372.463 9.62354C372.722 10.2879 373.079 10.8783 373.536 11.3945C373.997 11.9066 374.518 12.2917 375.098 12.5498L374.374 13.502C373.727 13.193 373.153 12.736 372.654 12.1309C372.154 11.5257 371.769 10.8317 371.499 10.0488C371.232 10.8952 370.843 11.6421 370.331 12.2896C369.823 12.937 369.232 13.4258 368.56 13.7559L367.823 12.7402C368.411 12.4821 368.936 12.0864 369.397 11.5532C369.859 11.0158 370.218 10.4022 370.477 9.7124C370.739 9.01839 370.87 8.3138 370.87 7.59863V5.65625H372.089V7.59863ZM376.126 4.7041H377.332V16.1045H376.126V4.7041ZM388.834 6.8623H387.666V12.1626C388.288 12.1118 388.838 12.0589 389.316 12.0039L389.38 12.8799C388.322 13.0576 387.215 13.1761 386.06 13.2354C384.905 13.2904 383.659 13.32 382.321 13.3242L382.182 12.3213C382.469 12.3213 382.952 12.3171 383.629 12.3086V6.8623H382.461V5.87207H388.834V6.8623ZM384.797 12.2896C385.364 12.2769 385.931 12.2578 386.498 12.2324V6.8623H384.797V12.2896ZM389.977 4.7041H391.183V9.18555H393.011V10.1758H391.183V16.0791H389.977V4.7041ZM403.015 16.0791H401.796V4.7041H403.015V16.0791ZM393.671 13.0322C395.16 12.3213 396.292 11.4559 397.067 10.436C397.841 9.41618 398.288 8.2334 398.406 6.8877H394.217V5.92285H399.625C399.625 7.68327 399.204 9.24691 398.362 10.6138C397.524 11.9806 396.172 13.1126 394.306 14.0098L393.671 13.0322ZM414.25 11.2676H413.031V4.7168H414.25V11.2676ZM404.817 10.0615C406.023 10.0615 407.081 10.0488 407.991 10.0234V8.90625H405.833V5.25H411.267V6.24023H407.039V7.9541H411.368V8.90625H409.185V9.97266C410.34 9.91341 411.334 9.82878 412.168 9.71875L412.231 10.5693C411.14 10.7555 410.01 10.8783 408.842 10.9375C407.674 10.9967 406.392 11.0306 404.995 11.0391L404.817 10.0615ZM406.658 11.7627H407.864V12.8545H413.057V11.7627H414.25V15.9395H406.658V11.7627ZM413.057 14.9619V13.7812H407.864V14.9619H413.057ZM425.473 16.0791H424.267V4.7041H425.473V16.0791ZM416.726 5.80859H417.919V12.1436C419.722 12.1351 421.465 11.9616 423.149 11.623L423.314 12.6387C422.35 12.8376 421.406 12.9793 420.483 13.064C419.561 13.1486 418.626 13.1888 417.678 13.1846H416.726V5.80859ZM436.124 9.10938H437.952V10.0996H436.124V16.1045H434.918V4.7041H436.124V9.10938ZM427.745 5.7959H433.064V6.77344H428.951V12.2705C429.958 12.2663 430.843 12.2367 431.604 12.1816C432.366 12.1266 433.136 12.0293 433.915 11.8896L434.067 12.9053C433.263 13.0492 432.474 13.1465 431.7 13.1973C430.93 13.248 430.013 13.2734 428.951 13.2734H428.659H427.745V5.7959ZM439.793 15.0889C439.632 15.0889 439.482 15.0487 439.342 14.9683C439.207 14.8879 439.097 14.7799 439.012 14.6445C438.932 14.5091 438.892 14.361 438.892 14.2002C438.892 14.0352 438.932 13.8828 439.012 13.7432C439.093 13.6035 439.201 13.4935 439.336 13.4131C439.476 13.3285 439.628 13.2861 439.793 13.2861C439.954 13.2861 440.102 13.3263 440.237 13.4067C440.377 13.4871 440.487 13.5972 440.567 13.7368C440.652 13.8765 440.694 14.0267 440.694 14.1875C440.694 14.3483 440.652 14.4985 440.567 14.6382C440.487 14.7736 440.377 14.8836 440.237 14.9683C440.102 15.0487 439.954 15.0889 439.793 15.0889Z" fill="#868686"/>
<path d="M2.15753 16.625C2.01239 16.625 1.88045 16.5887 1.7617 16.5161C1.64295 16.4436 1.55059 16.3479 1.48462 16.2292C1.41864 16.1104 1.38236 15.9818 1.37576 15.8432C1.36916 15.7047 1.40545 15.5694 1.48462 15.4375L8.80753 2.77083C8.8867 2.63889 8.98896 2.53993 9.1143 2.47396C9.23965 2.40799 9.3683 2.375 9.50024 2.375C9.63218 2.375 9.76083 2.40799 9.88618 2.47396C10.0115 2.53993 10.1138 2.63889 10.1929 2.77083L17.5159 15.4375C17.595 15.5694 17.6313 15.7047 17.6247 15.8432C17.6181 15.9818 17.5818 16.1104 17.5159 16.2292C17.4499 16.3479 17.3575 16.4436 17.2388 16.5161C17.12 16.5887 16.9881 16.625 16.8429 16.625H2.15753ZM3.52316 15.0417H15.4773L9.50024 4.75L3.52316 15.0417ZM10.0643 14.0224C10.216 13.8707 10.2919 13.6826 10.2919 13.4583C10.2919 13.234 10.216 13.046 10.0643 12.8943C9.91257 12.7425 9.72455 12.6667 9.50024 12.6667C9.27593 12.6667 9.08791 12.7425 8.93618 12.8943C8.78444 13.046 8.70857 13.234 8.70857 13.4583C8.70857 13.6826 8.78444 13.8707 8.93618 14.0224C9.08791 14.1741 9.27593 14.25 9.50024 14.25C9.72455 14.25 9.91257 14.1741 10.0643 14.0224ZM10.0643 11.6474C10.216 11.4957 10.2919 11.3076 10.2919 11.0833V8.70833C10.2919 8.48403 10.216 8.29601 10.0643 8.14427C9.91257 7.99253 9.72455 7.91667 9.50024 7.91667C9.27593 7.91667 9.08791 7.99253 8.93618 8.14427C8.78444 8.29601 8.70857 8.48403 8.70857 8.70833V11.0833C8.70857 11.3076 8.78444 11.4957 8.93618 11.6474C9.08791 11.7991 9.27593 11.875 9.50024 11.875C9.72455 11.875 9.91257 11.7991 10.0643 11.6474Z" fill="#868686"/>
</svg>
