<svg width="183" height="67" viewBox="0 0 183 67" fill="none" xmlns="http://www.w3.org/2000/svg">
<path d="M0 2.5H88" stroke="#1DB8CE" stroke-width="5"/>
<path d="M33.4766 46.8516H1.05469V42.8672H14.7266V40.0156C12.5911 39.8333 10.7422 39.4297 9.17969 38.8047C7.61719 38.1667 6.41276 37.3333 5.56641 36.3047C4.72005 35.263 4.29688 34.0651 4.29688 32.7109C4.29688 31.2396 4.83073 29.957 5.89844 28.8633C6.96615 27.7695 8.47656 26.9297 10.4297 26.3438C12.3958 25.7448 14.6745 25.4453 17.2656 25.4453C19.8438 25.4453 22.1029 25.7448 24.043 26.3438C25.9961 26.9297 27.5065 27.7695 28.5742 28.8633C29.6549 29.957 30.1953 31.2396 30.1953 32.7109C30.1953 34.0781 29.7656 35.2826 28.9062 36.3242C28.0599 37.3529 26.849 38.1862 25.2734 38.8242C23.7109 39.4492 21.862 39.8529 19.7266 40.0352V42.8672H33.4766V46.8516ZM4.96094 49.0781H9.96094V55.4844H29.8047V59.4688H4.96094V49.0781ZM9.49219 32.7109C9.47917 33.8307 10.1432 34.6771 11.4844 35.25C12.8255 35.8229 14.7526 36.1094 17.2656 36.1094C19.7526 36.1094 21.6667 35.8229 23.0078 35.25C24.362 34.6771 25.0391 33.8307 25.0391 32.7109C25.0391 31.6562 24.3555 30.8424 22.9883 30.2695C21.6341 29.6966 19.7266 29.4036 17.2656 29.3906C14.7786 29.4036 12.8581 29.6966 11.5039 30.2695C10.1497 30.8424 9.47917 31.6562 9.49219 32.7109ZM63.6719 37.9844H68.9062V42.0859H63.6719V60.1719H58.75V24.5469H63.6719V37.9844ZM37.0703 27.5156H53.5156V41.3047H42.0703V47.75C44.8177 47.737 47.3047 47.6523 49.5312 47.4961C51.7578 47.3398 53.9974 47.0729 56.25 46.6953L56.6797 50.6797C54.1276 51.1484 51.5755 51.4674 49.0234 51.6367C46.4844 51.806 43.5156 51.8906 40.1172 51.8906H37.1094V37.3594H48.5547V31.5391H37.0703V27.5156ZM99.9609 50.1328H94.9609V24.5859H99.9609V50.1328ZM70.7422 35.7969C70.7422 34.0911 71.1719 32.5547 72.0312 31.1875C72.8906 29.8203 74.056 28.7591 75.5273 28.0039C77.0117 27.2357 78.6589 26.8516 80.4688 26.8516C82.2656 26.8516 83.9062 27.2357 85.3906 28.0039C86.875 28.7591 88.0469 29.8203 88.9062 31.1875C89.7656 32.5547 90.1953 34.0911 90.1953 35.7969C90.1953 37.5286 89.7656 39.0846 88.9062 40.4648C88.0469 41.832 86.875 42.8997 85.3906 43.668C83.9062 44.4362 82.2656 44.8203 80.4688 44.8203C78.6589 44.8203 77.0117 44.4362 75.5273 43.668C74.043 42.8997 72.8711 41.832 72.0117 40.4648C71.1654 39.0846 70.7422 37.5286 70.7422 35.7969ZM75.625 35.7969C75.612 36.7604 75.8138 37.6003 76.2305 38.3164C76.6471 39.0195 77.2201 39.5599 77.9492 39.9375C78.6914 40.3021 79.5312 40.4844 80.4688 40.4844C81.3802 40.4844 82.194 40.3021 82.9102 39.9375C83.6393 39.5599 84.2122 39.0195 84.6289 38.3164C85.0586 37.6003 85.2734 36.7604 85.2734 35.7969C85.2734 34.8594 85.0586 34.0391 84.6289 33.3359C84.2122 32.6328 83.6393 32.099 82.9102 31.7344C82.181 31.3568 81.3672 31.1745 80.4688 31.1875C79.5312 31.1745 78.6914 31.3568 77.9492 31.7344C77.2201 32.099 76.6471 32.6328 76.2305 33.3359C75.8138 34.0391 75.612 34.8594 75.625 35.7969ZM76.1328 47.5547H81.1719V55.4844H100.898V59.4688H76.1328V47.5547ZM146.484 46.0703H133.086V52.2031H128.164V46.0703H113.945V42.125H146.484V46.0703ZM117.773 49.1172H122.734V55.4844H142.891V59.4688H117.773V49.1172ZM118.008 26.1094H142.305V39.1953H118.008V26.1094ZM137.422 35.3281V29.9766H122.891V35.3281H137.422ZM160.078 26.9297C161.94 26.9297 163.62 27.3008 165.117 28.043C166.615 28.7852 167.786 29.8203 168.633 31.1484C169.492 32.4635 169.922 33.9609 169.922 35.6406C169.922 37.3203 169.492 38.8242 168.633 40.1523C167.786 41.4805 166.615 42.5221 165.117 43.2773C163.62 44.0195 161.94 44.3906 160.078 44.3906C158.229 44.3906 156.549 44.0195 155.039 43.2773C153.529 42.5221 152.344 41.4805 151.484 40.1523C150.625 38.8242 150.195 37.3203 150.195 35.6406C150.195 33.974 150.625 32.4766 151.484 31.1484C152.344 29.8203 153.529 28.7852 155.039 28.043C156.549 27.3008 158.229 26.9297 160.078 26.9297ZM150.176 48.8438C154.082 48.8438 157.812 48.7656 161.367 48.6094C164.935 48.4531 168.294 48.1536 171.445 47.7109L171.836 51.3047C168.346 51.9818 164.798 52.418 161.191 52.6133C157.598 52.8086 153.633 52.9062 149.297 52.9062L148.711 48.8438H150.176ZM155.156 35.6406C155.156 36.5521 155.365 37.3464 155.781 38.0234C156.211 38.6875 156.797 39.1953 157.539 39.5469C158.294 39.8984 159.141 40.0677 160.078 40.0547C161.029 40.0677 161.882 39.8984 162.637 39.5469C163.392 39.1953 163.984 38.6875 164.414 38.0234C164.857 37.3464 165.078 36.5521 165.078 35.6406C165.078 34.7422 164.857 33.9609 164.414 33.2969C163.984 32.6198 163.392 32.1055 162.637 31.7539C161.882 31.4023 161.029 31.2266 160.078 31.2266C159.141 31.2266 158.294 31.4023 157.539 31.7539C156.797 32.1055 156.211 32.6198 155.781 33.2969C155.365 33.9609 155.156 34.7422 155.156 35.6406ZM173.477 24.5469H178.438V60.1719H173.477V24.5469Z" fill="black"/>
</svg>
