<svg width="580" height="62" viewBox="0 0 580 62" fill="none" xmlns="http://www.w3.org/2000/svg">
<rect width="580" height="62" fill="#00273E"/>
<path d="M265.777 32.7852H259.078V35.8516H256.617V32.7852H249.508V30.8125H265.777V32.7852ZM251.422 34.3086H253.902V37.4922H263.98V39.4844H251.422V34.3086ZM251.539 22.8047H263.688V29.3477H251.539V22.8047ZM261.246 27.4141V24.7383H253.98V27.4141H261.246ZM272.574 23.2148C273.505 23.2148 274.345 23.4004 275.094 23.7715C275.842 24.1426 276.428 24.6602 276.852 25.3242C277.281 25.9818 277.496 26.7305 277.496 27.5703C277.496 28.4102 277.281 29.1621 276.852 29.8262C276.428 30.4902 275.842 31.0111 275.094 31.3887C274.345 31.7598 273.505 31.9453 272.574 31.9453C271.65 31.9453 270.81 31.7598 270.055 31.3887C269.299 31.0111 268.707 30.4902 268.277 29.8262C267.848 29.1621 267.633 28.4102 267.633 27.5703C267.633 26.737 267.848 25.9883 268.277 25.3242C268.707 24.6602 269.299 24.1426 270.055 23.7715C270.81 23.4004 271.65 23.2148 272.574 23.2148ZM267.623 34.1719C269.576 34.1719 271.441 34.1328 273.219 34.0547C275.003 33.9766 276.682 33.8268 278.258 33.6055L278.453 35.4023C276.708 35.7409 274.934 35.959 273.131 36.0566C271.334 36.1543 269.352 36.2031 267.184 36.2031L266.891 34.1719H267.623ZM270.113 27.5703C270.113 28.026 270.217 28.4232 270.426 28.7617C270.641 29.0938 270.934 29.3477 271.305 29.5234C271.682 29.6992 272.105 29.7839 272.574 29.7773C273.049 29.7839 273.476 29.6992 273.854 29.5234C274.231 29.3477 274.527 29.0938 274.742 28.7617C274.964 28.4232 275.074 28.026 275.074 27.5703C275.074 27.1211 274.964 26.7305 274.742 26.3984C274.527 26.0599 274.231 25.8027 273.854 25.627C273.476 25.4512 273.049 25.3633 272.574 25.3633C272.105 25.3633 271.682 25.4512 271.305 25.627C270.934 25.8027 270.641 26.0599 270.426 26.3984C270.217 26.7305 270.113 27.1211 270.113 27.5703ZM279.273 22.0234H281.754V39.8359H279.273V22.0234ZM303.688 31.75H301.207V28.0391H298.395V26.0078H301.207V22.0234H303.688V31.75ZM288.609 30.1094C289.508 29.8099 290.27 29.39 290.895 28.8496C291.52 28.3027 291.995 27.6875 292.32 27.0039C292.646 26.3203 292.831 25.6042 292.877 24.8555H289.312V22.8242H298.961V24.8555H295.436C295.475 25.5391 295.647 26.2031 295.953 26.8477C296.266 27.4857 296.721 28.0618 297.32 28.5762C297.919 29.0905 298.648 29.4909 299.508 29.7773L298.277 31.6914C297.32 31.3789 296.497 30.9199 295.807 30.3145C295.123 29.709 294.583 28.9961 294.186 28.1758C293.775 29.0938 293.209 29.888 292.486 30.5586C291.77 31.2292 290.901 31.7305 289.879 32.0625L288.609 30.1094ZM291.832 32.4336H294.293V34.1133H301.207V32.4336H303.688V39.6016H291.832V32.4336ZM301.207 37.6094V36.0273H294.293V37.6094H301.207ZM315.426 23.4102C315.419 24.1328 315.657 24.8424 316.139 25.5391C316.627 26.2292 317.34 26.8281 318.277 27.3359C319.215 27.8372 320.335 28.1693 321.637 28.332L320.66 30.3438C319.137 30.1224 317.812 29.6797 316.686 29.0156C315.566 28.3451 314.71 27.5182 314.117 26.5352C313.518 27.5182 312.659 28.3451 311.539 29.0156C310.426 29.6797 309.117 30.1224 307.613 30.3438L306.617 28.332C307.906 28.1693 309.016 27.8372 309.947 27.3359C310.885 26.8281 311.594 26.2292 312.076 25.5391C312.558 24.8424 312.802 24.1328 312.809 23.4102V22.5508H315.426V23.4102ZM305.992 31.6914H322.203V33.7227H315.289V39.7969H312.828V33.7227H305.992V31.6914ZM337.301 28.9766H339.918V31.0273H337.301V39.7969H334.84V22.0234H337.301V28.9766ZM323.18 24.6797H327.203V22.2969H329.703V24.6797H333.629V26.6719H323.18V24.6797ZM323.902 31.9062C323.902 31.0924 324.098 30.3633 324.488 29.7188C324.879 29.0742 325.419 28.5729 326.109 28.2148C326.806 27.8503 327.587 27.668 328.453 27.668C329.306 27.668 330.077 27.8503 330.768 28.2148C331.458 28.5729 331.998 29.0742 332.389 29.7188C332.786 30.3633 332.984 31.0924 332.984 31.9062C332.984 32.7201 332.786 33.4492 332.389 34.0938C331.998 34.7318 331.458 35.2331 330.768 35.5977C330.077 35.9622 329.306 36.1445 328.453 36.1445C327.587 36.1445 326.806 35.9622 326.109 35.5977C325.419 35.2331 324.879 34.7318 324.488 34.0938C324.098 33.4492 323.902 32.7201 323.902 31.9062ZM326.285 31.9062C326.285 32.3555 326.376 32.7461 326.559 33.0781C326.747 33.4102 327.005 33.6641 327.33 33.8398C327.656 34.0156 328.03 34.1003 328.453 34.0938C328.87 34.1003 329.241 34.0156 329.566 33.8398C329.892 33.6641 330.146 33.4102 330.328 33.0781C330.51 32.7461 330.602 32.3555 330.602 31.9062C330.602 31.457 330.51 31.0664 330.328 30.7344C330.146 30.4023 329.892 30.1452 329.566 29.9629C329.241 29.7806 328.87 29.6862 328.453 29.6797C328.03 29.6862 327.656 29.7806 327.33 29.9629C327.005 30.1452 326.747 30.4023 326.559 30.7344C326.376 31.0664 326.285 31.457 326.285 31.9062ZM355.504 39.7969H352.984V22.0234H355.504V39.7969ZM340.621 34.7578C342.138 34.0417 343.388 33.2441 344.371 32.3652C345.361 31.4863 346.116 30.513 346.637 29.4453C347.164 28.3711 347.496 27.1667 347.633 25.832H341.578V23.8789H350.172C350.165 25.7799 349.908 27.5085 349.4 29.0645C348.893 30.6204 348.03 32.0495 346.812 33.3516C345.602 34.6536 343.974 35.7865 341.93 36.75L340.621 34.7578Z" fill="white"/>
</svg>
