<svg width="32" height="18" viewBox="0 0 32 18" fill="none" xmlns="http://www.w3.org/2000/svg">
<path d="M14.6094 10.332H12.4414V8.37891H8.24219V6.62109H12.4414V4.72656H8.4082C7.85482 6.11979 6.94336 7.30794 5.67383 8.29102C4.4043 9.26758 2.80599 10.026 0.878906 10.5664L0 8.84766C2.03125 8.30078 3.60677 7.52604 4.72656 6.52344C5.85286 5.51432 6.50065 4.34245 6.66992 3.00781H0.9375V1.25H9.04297C9.04297 1.86198 8.99414 2.44792 8.89648 3.00781H12.4414V0.0195312H14.6094V10.332ZM2.77344 14.043C2.77344 13.3268 3.02083 12.7051 3.51562 12.1777C4.01042 11.6504 4.70703 11.2435 5.60547 10.957C6.51042 10.6706 7.5651 10.5273 8.76953 10.5273C9.95443 10.5273 10.9961 10.6706 11.8945 10.957C12.793 11.2435 13.4896 11.6504 13.9844 12.1777C14.4792 12.7051 14.7266 13.3268 14.7266 14.043C14.7266 14.7591 14.4792 15.3841 13.9844 15.918C13.4896 16.4453 12.793 16.849 11.8945 17.1289C10.9961 17.4154 9.95443 17.5586 8.76953 17.5586C7.57161 17.5586 6.52018 17.4154 5.61523 17.1289C4.71029 16.849 4.01042 16.4453 3.51562 15.918C3.02083 15.3841 2.77344 14.7591 2.77344 14.043ZM4.94141 14.043C4.94141 14.6159 5.27995 15.0586 5.95703 15.3711C6.63411 15.6836 7.57161 15.8398 8.76953 15.8398C9.94792 15.8398 10.8724 15.6836 11.543 15.3711C12.2135 15.0586 12.5521 14.6159 12.5586 14.043C12.5521 13.457 12.2135 13.0078 11.543 12.6953C10.8789 12.3828 9.95443 12.2266 8.76953 12.2266C7.57161 12.2266 6.63411 12.3828 5.95703 12.6953C5.27995 13.0078 4.94141 13.457 4.94141 14.043ZM31.8555 17.6562H29.668V0H31.8555V17.6562ZM17.2266 12.793C19.5052 11.7122 21.2142 10.4199 22.3535 8.91602C23.4993 7.41211 24.1732 5.63802 24.375 3.59375H18.125V1.875H26.582C26.582 4.68099 25.9473 7.14193 24.6777 9.25781C23.4082 11.3737 21.3021 13.1315 18.3594 14.5312L17.2266 12.793Z" fill="black"/>
</svg>
