<svg width="215" height="58" viewBox="0 0 215 58" fill="none" xmlns="http://www.w3.org/2000/svg">
<path d="M47.625 10.0625C47.625 13.3333 47.5833 16.1979 47.5 18.6562C47.4375 21.0938 47.2292 23.9375 46.875 27.1875C46.5417 30.4375 46.0208 33.9792 45.3125 37.8125L36.1875 36.875C37.1458 32.2083 37.7708 27.9896 38.0625 24.2188C38.375 20.4479 38.5625 16.3125 38.625 11.8125H5.375V4.6875H47.625V10.0625ZM0 43.4375H18.1875V23.9375H27.125V43.4375H52.3125V50.6875H0V43.4375ZM104.75 33.5625H96.1875V20.125H91.9375V33.375H83.5V1.0625H91.9375V12.8125H96.1875V0.0625H104.75V33.5625ZM54.3125 27.25C59.4583 25.4375 63.375 23.2083 66.0625 20.5625C68.75 17.8958 70.4167 14.7292 71.0625 11.0625H57.3125V3.875H80.25C80.2708 8.8125 79.5104 13.1771 77.9688 16.9688C76.4479 20.7396 74.0833 24.0208 70.875 26.8125C67.6875 29.6042 63.5833 31.9792 58.5625 33.9375L54.3125 27.25ZM64.375 35.6875H104.75V57.375H95.75V42.875H64.375V35.6875ZM160.062 42.9375H151.5V0H160.062V42.9375ZM109.625 28.9375C113.354 27.125 116.062 24.6146 117.75 21.4062C119.438 18.1979 120.292 14.7083 120.312 10.9375V3.75H129.062V10.9375C129.042 14.5417 129.792 17.7917 131.312 20.6875C132.854 23.5625 135.354 25.8125 138.812 27.4375L133.875 34.375C129.771 32.4375 126.729 29.2708 124.75 24.875C122.583 29.9583 119.188 33.5625 114.562 35.6875L109.625 28.9375ZM120.812 37.9375H129.812V49.25H161.438V56.4375H120.812V37.9375ZM133.5 12.6875H139.875V0.8125H148.375V41.1875H139.875V20H133.5V12.6875ZM214.562 57.5H205.688V27H196.25V19.8125H205.688V0H214.562V57.5ZM168.562 4.6875H195.375V11.9375H177.562V20.625H193.438V27.625H177.562V37.4688C181.479 37.4271 185.021 37.3125 188.188 37.125C191.375 36.9375 194.562 36.6042 197.75 36.125L198.625 43.25C194.729 43.8333 190.833 44.2292 186.938 44.4375C183.062 44.6458 178.479 44.7708 173.188 44.8125H168.562V4.6875Z" fill="white"/>
</svg>
