<svg width="34" height="18" viewBox="0 0 34 18" fill="none" xmlns="http://www.w3.org/2000/svg">
<path d="M10.0586 2.10938C10.0586 2.9362 10.0326 3.70768 9.98047 4.42383C9.9349 5.13346 9.81771 5.92448 9.62891 6.79688L7.5 6.62109C7.64323 5.90495 7.74089 5.24414 7.79297 4.63867C7.85156 4.0332 7.88737 3.41797 7.90039 2.79297H1.05469V1.01562H10.0586V2.10938ZM0 8.20312C1.07422 8.20312 2.22656 8.19336 3.45703 8.17383V4.92188H5.60547V8.11523C7.71484 8.03711 9.51823 7.90365 11.0156 7.71484L11.1328 9.23828C8.32682 9.72005 4.80794 9.96094 0.576172 9.96094H0.195312L0 8.20312ZM2.30469 14.2969C2.30469 13.6328 2.54883 13.0599 3.03711 12.5781C3.52539 12.0898 4.22526 11.7155 5.13672 11.4551C6.04818 11.1882 7.1224 11.0547 8.35938 11.0547C9.59635 11.0547 10.6706 11.1882 11.582 11.4551C12.4935 11.7155 13.1934 12.0898 13.6816 12.5781C14.1699 13.0599 14.4141 13.6328 14.4141 14.2969C14.4141 14.987 14.1699 15.5794 13.6816 16.0742C13.1934 16.5755 12.4935 16.9531 11.582 17.207C10.6771 17.4674 9.60286 17.5977 8.35938 17.5977C7.11589 17.5977 6.03841 17.4674 5.12695 17.207C4.22201 16.9531 3.52539 16.5755 3.03711 16.0742C2.54883 15.5794 2.30469 14.987 2.30469 14.2969ZM4.51172 14.2969C4.50521 14.8307 4.83398 15.2311 5.49805 15.498C6.16862 15.765 7.1224 15.8984 8.35938 15.8984C9.58984 15.8984 10.5339 15.765 11.1914 15.498C11.849 15.2311 12.181 14.8307 12.1875 14.2969C12.181 13.8021 11.8424 13.418 11.1719 13.1445C10.5078 12.8711 9.57031 12.7344 8.35938 12.7344C7.14193 12.7344 6.19466 12.8711 5.51758 13.1445C4.84049 13.418 4.50521 13.8021 4.51172 14.2969ZM12.0508 0H14.2773V4.51172H16.5625V6.32812H14.2773V10.8594H12.0508V0ZM33.5742 11.6016H26.5625V17.6367H24.4141V11.6016H17.4805V9.84375H33.5742V11.6016ZM18.3203 6.95312C19.4466 6.8099 20.4492 6.52669 21.3281 6.10352C22.2135 5.68034 22.9102 5.17253 23.418 4.58008C23.9323 3.98112 24.2155 3.35938 24.2676 2.71484H18.9648V0.996094H32.0898V2.71484H26.7871C26.8392 3.35938 27.1159 3.98112 27.6172 4.58008C28.125 5.17253 28.8216 5.68034 29.707 6.10352C30.5924 6.52669 31.6016 6.8099 32.7344 6.95312L31.9531 8.65234C30.4557 8.4375 29.1439 8.00456 28.0176 7.35352C26.8978 6.70247 26.0677 5.89844 25.5273 4.94141C24.9805 5.89844 24.1504 6.70247 23.0371 7.35352C21.9238 8.00456 20.625 8.4375 19.1406 8.65234L18.3203 6.95312Z" fill="black"/>
</svg>
