<svg width="432" height="22" viewBox="0 0 432 22" fill="none" xmlns="http://www.w3.org/2000/svg">
<path d="M16.7812 2.39062V3.03516C16.7812 3.92578 16.7461 4.78906 16.6758 5.625C16.6133 6.46094 16.4844 7.35156 16.2891 8.29688H19.2188V10.0781H10.6641V13.1367C11.9688 13.207 13.0859 13.4062 14.0156 13.7344C14.9531 14.0625 15.6719 14.5039 16.1719 15.0586C16.6719 15.6133 16.9219 16.2656 16.9219 17.0156C16.9219 17.8516 16.625 18.5664 16.0312 19.1602C15.4453 19.7539 14.6016 20.1992 13.5 20.4961C12.3984 20.8008 11.0859 20.9531 9.5625 20.9531C8.03125 20.9531 6.71094 20.8008 5.60156 20.4961C4.5 20.1992 3.65234 19.7539 3.05859 19.1602C2.47266 18.5664 2.17969 17.8516 2.17969 17.0156C2.17969 16.2656 2.42578 15.6133 2.91797 15.0586C3.41797 14.5039 4.13672 14.0625 5.07422 13.7344C6.01953 13.4062 7.14844 13.207 8.46094 13.1367V10.0781H0V8.29688H14.0508C14.2773 7.24219 14.4219 6.29297 14.4844 5.44922C14.5469 4.59766 14.5781 3.66406 14.5781 2.64844H2.41406V0.867188H16.7812V2.39062ZM4.42969 17.0156C4.42188 17.7109 4.85938 18.2461 5.74219 18.6211C6.625 18.9883 7.875 19.1719 9.49219 19.1719C11.1406 19.1719 12.418 18.9883 13.3242 18.6211C14.2305 18.2539 14.6875 17.7188 14.6953 17.0156C14.6875 16.3359 14.2344 15.8164 13.3359 15.457C12.4375 15.0898 11.1797 14.9062 9.5625 14.9062C7.92188 14.9062 6.65234 15.0898 5.75391 15.457C4.86328 15.8164 4.42188 16.3359 4.42969 17.0156ZM37.0434 2.64844V3.29297C37.0434 4.20703 37.0083 5.08984 36.938 5.94141C36.8677 6.79297 36.7231 7.71875 36.5044 8.71875H39.4809V10.5469H20.2622V8.71875H34.2544C34.5044 7.625 34.6645 6.64062 34.7348 5.76562C34.8052 4.89062 34.8403 3.92969 34.8403 2.88281H22.6763V1.05469H37.0434V2.64844ZM22.6059 13.2188H37.0669V20.7422H22.6059V13.2188ZM34.8638 18.9375V14.9766H24.7856V18.9375H34.8638ZM57.0244 6.77344H60.0713V8.625H57.0244V15.7266H54.7978V0.0234375H57.0244V6.77344ZM40.5478 2.46094H45.7041V0H47.9306V2.46094H53.0634V4.26562H40.5478V2.46094ZM41.6963 9.23438C41.6963 8.44531 41.9072 7.75 42.3291 7.14844C42.7588 6.54688 43.3603 6.08594 44.1338 5.76562C44.9072 5.4375 45.7978 5.27344 46.8056 5.27344C47.8056 5.27344 48.6884 5.4375 49.4541 5.76562C50.2275 6.08594 50.8252 6.54688 51.247 7.14844C51.6767 7.75 51.8916 8.44531 51.8916 9.23438C51.8916 10.0156 51.6767 10.7031 51.247 11.2969C50.8252 11.8906 50.2275 12.3516 49.4541 12.6797C48.6884 13.0078 47.8056 13.1719 46.8056 13.1719C45.7978 13.1719 44.9072 13.0078 44.1338 12.6797C43.3603 12.3516 42.7588 11.8906 42.3291 11.2969C41.9072 10.7031 41.6963 10.0156 41.6963 9.23438ZM43.7119 14.4844H45.9384V18.75H57.915V20.5547H43.7119V14.4844ZM43.8525 9.23438C43.8447 9.67969 43.9619 10.0703 44.2041 10.4062C44.4463 10.7344 44.7861 10.9883 45.2236 11.168C45.6689 11.3477 46.1845 11.4375 46.7705 11.4375C47.6767 11.4375 48.4072 11.2422 48.9619 10.8516C49.5166 10.4609 49.7978 9.92188 49.8056 9.23438C49.7978 8.54688 49.5205 8.00391 48.9736 7.60547C48.4267 7.19922 47.7041 6.99219 46.8056 6.98438C46.2119 6.98438 45.6884 7.07812 45.2353 7.26562C44.79 7.44531 44.4463 7.70703 44.2041 8.05078C43.9619 8.38672 43.8447 8.78125 43.8525 9.23438ZM83.6738 12.2344H81.4472V6.96094H77.5097V5.10938H81.4472V0H83.6738V12.2344ZM66.1894 10.3594C67.2441 10 68.1659 9.47266 68.955 8.77734C69.7441 8.07422 70.3495 7.27344 70.7714 6.375C71.2011 5.46875 71.4159 4.53906 71.4159 3.58594V3.09375H66.8691V1.26562H78.1894V3.09375H73.6894V3.58594C73.6816 4.46094 73.8808 5.31641 74.287 6.15234C74.6933 6.98047 75.2792 7.72656 76.0448 8.39062C76.8105 9.04688 77.7128 9.55469 78.7519 9.91406L77.6034 11.6719C76.4472 11.2656 75.4394 10.6641 74.58 9.86719C73.7206 9.07031 73.0566 8.14062 72.5878 7.07812C72.1269 8.25 71.4433 9.27344 70.537 10.1484C69.6386 11.0234 68.5722 11.6797 67.3378 12.1172L66.1894 10.3594ZM69.8222 13.2188H83.6738V20.7422H69.8222V13.2188ZM81.4941 18.9375V14.9766H72.0253V18.9375H81.4941ZM103.819 21.0469H101.592V0H103.819V21.0469ZM87.1547 8.92969C87.1547 7.46094 87.3852 6.17188 87.8461 5.0625C88.307 3.94531 88.9477 3.08594 89.768 2.48438C90.5961 1.875 91.5375 1.57031 92.5922 1.57031C93.6312 1.57031 94.5609 1.875 95.3812 2.48438C96.2016 3.08594 96.8422 3.94531 97.3031 5.0625C97.7719 6.17188 98.0062 7.46094 98.0062 8.92969C98.0062 10.4141 97.7719 11.7148 97.3031 12.832C96.8422 13.9492 96.2016 14.8086 95.3812 15.4102C94.5609 16.0117 93.6312 16.3125 92.5922 16.3125C91.5375 16.3125 90.5961 16.0117 89.768 15.4102C88.9477 14.8086 88.307 13.9492 87.8461 12.832C87.3852 11.7148 87.1547 10.4141 87.1547 8.92969ZM89.3109 8.92969C89.3109 10.0234 89.4477 10.9766 89.7211 11.7891C89.9945 12.6016 90.3773 13.2266 90.8695 13.6641C91.3695 14.1016 91.9437 14.3203 92.5922 14.3203C93.2328 14.3203 93.7992 14.1016 94.2914 13.6641C94.7836 13.2266 95.1664 12.6016 95.4398 11.7891C95.7133 10.9766 95.85 10.0234 95.85 8.92969C95.85 7.85156 95.7133 6.91016 95.4398 6.10547C95.1664 5.29297 94.7836 4.66797 94.2914 4.23047C93.7992 3.78516 93.2328 3.5625 92.5922 3.5625C91.9437 3.5625 91.3695 3.78516 90.8695 4.23047C90.3773 4.66797 89.9945 5.29297 89.7211 6.10547C89.4477 6.91016 89.3109 7.85156 89.3109 8.92969ZM126.308 10.0781H123.05V20.9766H120.823V0H123.05V8.25H126.308V10.0781ZM107.487 2.03906H109.69V13.8516C112.901 13.8359 116.011 13.5234 119.018 12.9141L119.276 14.7891C117.573 15.125 115.897 15.3633 114.249 15.5039C112.6 15.6445 110.925 15.7109 109.222 15.7031H107.487V2.03906ZM149.84 15.6094H147.613V10.7812H142.246V8.95312H147.613V6.07031H142.539C141.797 7.69531 140.66 9.11328 139.129 10.3242C137.605 11.5273 135.769 12.4688 133.621 13.1484L132.66 11.3906C134.262 10.875 135.664 10.2227 136.867 9.43359C138.078 8.63672 139.043 7.73047 139.762 6.71484C140.48 5.69922 140.914 4.60156 141.062 3.42188H133.738V1.64062H143.488C143.488 2.50781 143.383 3.38281 143.172 4.26562H147.613V0.0234375H149.84V15.6094ZM136.316 14.0625H138.566V18.75H150.379V20.5547H136.316V14.0625ZM160.117 3.72656C160.11 4.60938 160.309 5.46875 160.715 6.30469C161.121 7.14062 161.707 7.88672 162.473 8.54297C163.239 9.19141 164.141 9.69531 165.18 10.0547L164.032 11.7891C162.875 11.3906 161.867 10.793 161.008 9.99609C160.149 9.19922 159.485 8.27344 159.016 7.21875C158.555 8.39062 157.871 9.41797 156.965 10.3008C156.067 11.1758 155 11.8281 153.766 12.2578L152.617 10.5C153.672 10.1406 154.594 9.61328 155.383 8.91797C156.172 8.21484 156.778 7.41406 157.2 6.51562C157.629 5.61719 157.844 4.69531 157.844 3.75V3.16406H153.297V1.35938H164.617V3.16406H160.117V3.72656ZM155.875 13.6172H170.102V21H167.875V15.4219H155.875V13.6172ZM163.985 5.34375H167.875V0H170.102V12.5625H167.875V7.17188H163.985V5.34375ZM197.431 12.4219H189.087V16.5H186.884V12.4219H178.212V10.6172H197.431V12.4219ZM180.603 14.5078H182.829V18.75H195.298V20.5547H180.603V14.5078ZM180.673 0.984375H194.947V8.4375H180.673V0.984375ZM192.743 6.67969V2.74219H182.853V6.67969H192.743ZM205.342 1.5C206.435 1.5 207.416 1.71094 208.283 2.13281C209.15 2.54687 209.83 3.13672 210.322 3.90234C210.814 4.66016 211.06 5.52344 211.06 6.49219C211.06 7.46094 210.814 8.32812 210.322 9.09375C209.83 9.85156 209.15 10.4453 208.283 10.875C207.416 11.2969 206.435 11.5078 205.342 11.5078C204.248 11.5078 203.263 11.2969 202.388 10.875C201.521 10.4453 200.842 9.85156 200.349 9.09375C199.865 8.32812 199.623 7.46094 199.623 6.49219C199.623 5.52344 199.865 4.66016 200.349 3.90234C200.842 3.14453 201.521 2.55469 202.388 2.13281C203.263 1.71094 204.248 1.5 205.342 1.5ZM198.615 14.6719C201.256 14.6719 203.693 14.6289 205.928 14.543C208.162 14.457 210.295 14.2656 212.326 13.9688L212.49 15.5859C210.396 15.9922 208.267 16.25 206.103 16.3594C203.947 16.4688 201.545 16.5234 198.896 16.5234L198.615 14.6719ZM201.826 6.49219C201.818 7.10156 201.963 7.64062 202.26 8.10938C202.564 8.57031 202.982 8.92969 203.513 9.1875C204.053 9.4375 204.662 9.5625 205.342 9.5625C206.021 9.5625 206.627 9.4375 207.158 9.1875C207.697 8.92969 208.119 8.57031 208.424 8.10938C208.728 7.64062 208.881 7.10156 208.881 6.49219C208.881 5.89062 208.728 5.35938 208.424 4.89844C208.119 4.42969 207.697 4.06641 207.158 3.80859C206.619 3.55078 206.013 3.42188 205.342 3.42188C204.662 3.42188 204.053 3.55078 203.513 3.80859C202.982 4.06641 202.564 4.42969 202.26 4.89844C201.963 5.35938 201.818 5.89062 201.826 6.49219ZM213.638 0H215.865V21.0469H213.638V0ZM235.752 7.92188H221.291V0.75H223.494V6.14062H235.752V7.92188ZM218.737 10.5703H237.955V12.3516H218.737V10.5703ZM221.127 14.3438H223.354V18.6797H235.893V20.5078H221.127V14.3438ZM261.909 15.4453H259.683V7.57031H255.581C255.425 8.39844 255.093 9.13672 254.585 9.78516C254.085 10.4258 253.456 10.9258 252.698 11.2852C251.941 11.6367 251.113 11.8125 250.214 11.8125C249.167 11.8125 248.226 11.5898 247.39 11.1445C246.554 10.6914 245.898 10.0664 245.421 9.26953C244.945 8.46484 244.706 7.5625 244.706 6.5625C244.706 5.55469 244.941 4.65625 245.409 3.86719C245.886 3.07031 246.542 2.44922 247.378 2.00391C248.222 1.55859 249.167 1.33594 250.214 1.33594C251.136 1.33594 251.984 1.52344 252.757 1.89844C253.53 2.26562 254.167 2.78125 254.667 3.44531C255.167 4.10938 255.484 4.875 255.616 5.74219H259.683V0.0234375H261.909V15.4453ZM246.839 6.5625C246.839 7.20312 246.984 7.77734 247.273 8.28516C247.562 8.78516 247.964 9.17969 248.48 9.46875C248.995 9.75 249.573 9.89062 250.214 9.89062C250.839 9.89062 251.405 9.75 251.913 9.46875C252.421 9.17969 252.82 8.78516 253.109 8.28516C253.398 7.77734 253.542 7.20312 253.542 6.5625C253.542 5.92188 253.398 5.35547 253.109 4.86328C252.82 4.36328 252.421 3.97656 251.913 3.70312C251.405 3.42188 250.839 3.28125 250.214 3.28125C249.573 3.28125 248.995 3.42188 248.48 3.70312C247.964 3.97656 247.562 4.36328 247.273 4.86328C246.984 5.35547 246.839 5.92188 246.839 6.5625ZM248.269 13.875H250.495V18.75H262.472V20.5547H248.269V13.875ZM282.687 21H280.554V0H282.687V21ZM264.359 15.2109C265.32 14.6328 266.136 13.8516 266.808 12.8672C267.488 11.8828 267.996 10.7891 268.332 9.58594C268.675 8.375 268.851 7.13281 268.859 5.85938V4.17188H264.992V2.36719H274.601V4.17188H270.992V5.85938C270.992 7.07812 271.156 8.26172 271.484 9.41016C271.82 10.5586 272.316 11.5977 272.972 12.5273C273.636 13.457 274.445 14.1953 275.398 14.7422L274.062 16.3828C273.086 15.8047 272.25 15.0078 271.554 13.9922C270.867 12.9766 270.332 11.8164 269.949 10.5117C269.566 11.9258 269.015 13.1836 268.297 14.2852C267.578 15.3867 266.718 16.25 265.718 16.875L264.359 15.2109ZM273.054 7.42969H276.312V0.445312H278.422V19.9453H276.312V9.25781H273.054V7.42969ZM304.098 12.3047H284.926V10.5234H304.098V12.3047ZM287.317 0.867188H301.731V2.64844H289.543V6.58594H301.942V8.41406H287.317V0.867188ZM287.34 14.3672H289.543V18.7266H302.082V20.5547H287.34V14.3672ZM312.922 6.1875C312.922 7.34375 313.157 8.49219 313.626 9.63281C314.102 10.7734 314.758 11.793 315.594 12.6914C316.438 13.5898 317.391 14.2656 318.454 14.7188L317.235 16.4531C316.008 15.9141 314.922 15.0977 313.977 14.0039C313.032 12.9102 312.313 11.6562 311.821 10.2422C311.329 11.7578 310.61 13.1133 309.665 14.3086C308.719 15.5039 307.641 16.3984 306.43 16.9922L305.141 15.2344C306.18 14.75 307.118 14.0273 307.954 13.0664C308.797 12.0977 309.458 11.0078 309.934 9.79688C310.419 8.58594 310.665 7.38281 310.672 6.1875V3.96094H305.868V2.10938H317.704V3.96094H312.922V6.1875ZM320.352 0H322.579V21H320.352V0ZM348.337 15.4922H346.111V10.0312H340.896C340.396 10.6328 339.779 11.1016 339.045 11.4375C338.31 11.7656 337.509 11.9297 336.642 11.9297C335.595 11.9297 334.654 11.7031 333.818 11.25C332.982 10.7969 332.326 10.168 331.849 9.36328C331.373 8.55078 331.134 7.64062 331.134 6.63281C331.134 5.61719 331.369 4.70312 331.837 3.89062C332.314 3.07813 332.97 2.44531 333.806 1.99219C334.65 1.53125 335.595 1.29688 336.642 1.28906C337.502 1.29688 338.295 1.46875 339.021 1.80469C339.755 2.13281 340.373 2.59375 340.873 3.1875H346.111V0.0234375H348.337V15.4922ZM333.267 6.63281C333.267 7.28125 333.408 7.85938 333.689 8.36719C333.978 8.875 334.38 9.26953 334.896 9.55078C335.412 9.82422 335.994 9.96094 336.642 9.96094C337.267 9.96094 337.834 9.82422 338.341 9.55078C338.849 9.26953 339.248 8.875 339.537 8.36719C339.826 7.85938 339.97 7.28125 339.97 6.63281C339.97 5.98438 339.826 5.40625 339.537 4.89844C339.248 4.39062 338.849 3.99609 338.341 3.71484C337.834 3.42578 337.267 3.28125 336.642 3.28125C335.994 3.28125 335.412 3.42578 334.896 3.71484C334.38 3.99609 333.978 4.39062 333.689 4.89844C333.408 5.40625 333.267 5.98438 333.267 6.63281ZM334.697 13.875H336.923V18.75H348.9V20.5547H334.697V13.875ZM341.857 4.99219C342.021 5.50781 342.103 6.05469 342.103 6.63281C342.103 7.1875 342.025 7.71875 341.869 8.22656H346.111V4.99219H341.857ZM361.498 7.24219H354.186V9.9375C356.154 9.92188 357.83 9.87109 359.213 9.78516C360.604 9.69141 362.022 9.52344 363.467 9.28125L363.701 11.0859C362.186 11.3438 360.697 11.5234 359.236 11.625C357.775 11.7188 356.061 11.7656 354.092 11.7656H353.647H351.959V5.50781H359.318V3.04688H351.936V1.24219H361.498V7.24219ZM353.717 13.8281H367.592V20.9766H365.365V15.6328H353.717V13.8281ZM365.365 0.0234375H367.592V5.27344H370.662V7.125H367.592V12.7734H365.365V0.0234375ZM390.503 13.6406H381.971V20.9766H379.792V13.6406H371.354V11.8359H390.503V13.6406ZM372.432 8.48438C373.729 8.30469 374.924 7.94922 376.018 7.41797C377.12 6.87891 377.999 6.22266 378.655 5.44922C379.311 4.67578 379.651 3.86719 379.674 3.02344H373.135V1.24219H388.698V3.02344H382.206C382.213 3.86719 382.542 4.67578 383.19 5.44922C383.846 6.22266 384.725 6.87891 385.827 7.41797C386.928 7.94922 388.135 8.30469 389.448 8.48438L388.628 10.2422C387.479 10.0625 386.397 9.76172 385.381 9.33984C384.366 8.91016 383.475 8.37891 382.71 7.74609C381.944 7.10547 381.35 6.39453 380.928 5.61328C380.506 6.39453 379.913 7.10547 379.147 7.74609C378.381 8.37891 377.495 8.91016 376.487 9.33984C375.479 9.76172 374.409 10.0625 373.276 10.2422L372.432 8.48438ZM398.015 5.74219C398.015 6.88281 398.175 8.01172 398.495 9.12891C398.815 10.2383 399.292 11.2539 399.925 12.1758C400.558 13.0977 401.327 13.8359 402.233 14.3906L400.991 16.1016C400.038 15.5312 399.222 14.7539 398.542 13.7695C397.87 12.7773 397.347 11.6523 396.972 10.3945C396.581 11.7617 396.022 12.9805 395.296 14.0508C394.577 15.1211 393.718 15.9609 392.718 16.5703L391.335 14.9062C392.296 14.3281 393.116 13.5586 393.796 12.5977C394.483 11.6367 394.999 10.5742 395.343 9.41016C395.694 8.23828 395.866 7.04688 395.858 5.83594V1.92188H398.015V5.74219ZM399.96 7.38281H403.218V0.398438H405.327V19.9688H403.218V9.23438H399.96V7.38281ZM407.554 0H409.687V21H407.554V0ZM431.097 18.375H411.878V16.5234H416.472V11.0391C415.589 10.5547 414.906 9.94141 414.421 9.19922C413.937 8.45703 413.699 7.625 413.707 6.70312C413.707 5.61719 414.035 4.66016 414.691 3.83203C415.347 3.00391 416.261 2.36328 417.433 1.91016C418.613 1.44922 419.949 1.21875 421.441 1.21875C422.933 1.21875 424.269 1.44922 425.449 1.91016C426.628 2.36328 427.546 3.00391 428.203 3.83203C428.867 4.66016 429.199 5.61719 429.199 6.70312C429.199 7.61719 428.964 8.44141 428.496 9.17578C428.027 9.90234 427.363 10.5078 426.503 10.9922V16.5234H431.097V18.375ZM415.863 6.70312C415.863 7.44531 416.097 8.09766 416.566 8.66016C417.035 9.22266 417.691 9.66016 418.535 9.97266C419.378 10.2773 420.347 10.4297 421.441 10.4297C422.527 10.4297 423.492 10.2734 424.335 9.96094C425.187 9.64844 425.851 9.21484 426.328 8.66016C426.804 8.09766 427.043 7.44531 427.043 6.70312C427.043 5.96094 426.804 5.3125 426.328 4.75781C425.851 4.19531 425.187 3.76172 424.335 3.45703C423.492 3.15234 422.527 3 421.441 3C420.347 3 419.378 3.15234 418.535 3.45703C417.691 3.76172 417.035 4.19531 416.566 4.75781C416.097 5.3125 415.863 5.96094 415.863 6.70312ZM424.253 16.5234V11.8594C423.378 12.0625 422.441 12.1641 421.441 12.1641C420.457 12.1641 419.535 12.0625 418.675 11.8594V16.5234H424.253Z" fill="white"/>
</svg>
