<svg width="33" height="18" viewBox="0 0 33 18" fill="none" xmlns="http://www.w3.org/2000/svg">
<path d="M14.6484 17.6562H12.5781V8.65234H10.5859V16.7578H8.59375V0.332031H10.5859V6.91406H12.5781V0H14.6484V17.6562ZM0 2.08984H6.60156V3.84766H2.1875V11.6992C3.20964 11.6862 4.13411 11.6471 4.96094 11.582C5.78776 11.5169 6.6276 11.4062 7.48047 11.25L7.63672 13.0273C6.65365 13.2227 5.68685 13.3529 4.73633 13.418C3.79232 13.4831 2.61068 13.5221 1.19141 13.5352H0V2.08984ZM30.8594 2.65625C30.8529 3.8151 30.8236 4.82422 30.7715 5.68359C30.7194 6.53646 30.5924 7.51302 30.3906 8.61328H32.832V10.3711H25.8203V17.6758H23.6328V10.3711H16.7383V8.61328H28.1836C28.3984 7.54557 28.5352 6.57552 28.5938 5.70312C28.6589 4.83073 28.6914 3.8737 28.6914 2.83203H18.6328V1.07422H30.8594V2.65625Z" fill="black"/>
</svg>
