<svg width="32" height="18" viewBox="0 0 32 18" fill="none" xmlns="http://www.w3.org/2000/svg">
<path d="M14.6484 17.6562H12.5781V8.65234H10.5859V16.7578H8.59375V0.332031H10.5859V6.91406H12.5781V0H14.6484V17.6562ZM0 2.08984H6.60156V3.84766H2.1875V11.6992C3.20964 11.6862 4.13411 11.6471 4.96094 11.582C5.78776 11.5169 6.6276 11.4062 7.48047 11.25L7.63672 13.0273C6.65365 13.2227 5.68685 13.3529 4.73633 13.418C3.79232 13.4831 2.61068 13.5221 1.19141 13.5352H0V2.08984ZM31.5234 12.9102H29.3555V6.44531H26.2305V4.6875H29.3555V0.0195312H31.5234V12.9102ZM16.6992 9.10156C17.6107 8.80208 18.3919 8.36589 19.043 7.79297C19.694 7.21354 20.1855 6.55599 20.5176 5.82031C20.8496 5.07812 21.0156 4.3099 21.0156 3.51562V3.04688H17.3438V1.28906H26.875V3.04688H23.2227V3.53516C23.2227 4.25781 23.3822 4.96419 23.7012 5.6543C24.0202 6.33789 24.4922 6.95312 25.1172 7.5C25.7422 8.04036 26.4974 8.45703 27.3828 8.75L26.2891 10.4883C25.3255 10.1562 24.4922 9.67448 23.7891 9.04297C23.0924 8.40495 22.5456 7.65625 22.1484 6.79688C21.7513 7.7474 21.1849 8.57422 20.4492 9.27734C19.7135 9.98047 18.8346 10.5078 17.8125 10.8594L16.6992 9.10156ZM19.9414 11.7773H22.1094V15.5469H31.9727V17.3047H19.9414V11.7773Z" fill="black"/>
</svg>
