<svg width="434" height="16" viewBox="0 0 434 16" fill="none" xmlns="http://www.w3.org/2000/svg">
<path d="M12.0117 7.86621H6.79688V10.415H5.41992V7.86621H0V6.73828H12.0117V7.86621ZM1.49414 9.16992H2.88574V11.8213H10.6787V12.9492H1.49414V9.16992ZM1.53809 0.717773H10.459V5.37598H1.53809V0.717773ZM9.08203 4.27734V1.81641H2.90039V4.27734H9.08203ZM17.2559 1.04004C17.9395 1.04004 18.5522 1.17188 19.0942 1.43555C19.6362 1.69434 20.061 2.06299 20.3687 2.5415C20.6763 3.01514 20.8301 3.55469 20.8301 4.16016C20.8301 4.76562 20.6763 5.30762 20.3687 5.78613C20.061 6.25977 19.6362 6.63086 19.0942 6.89941C18.5522 7.16309 17.9395 7.29492 17.2559 7.29492C16.5723 7.29492 15.957 7.16309 15.4102 6.89941C14.8682 6.63086 14.4434 6.25977 14.1357 5.78613C13.833 5.30762 13.6816 4.76562 13.6816 4.16016C13.6816 3.55469 13.833 3.01514 14.1357 2.5415C14.4434 2.06787 14.8682 1.69922 15.4102 1.43555C15.957 1.17188 16.5723 1.04004 17.2559 1.04004ZM13.0518 9.27246C14.7021 9.27246 16.2256 9.24561 17.6221 9.19189C19.0186 9.13818 20.3516 9.01855 21.6211 8.83301L21.7236 9.84375C20.415 10.0977 19.0845 10.2588 17.7319 10.3271C16.3843 10.3955 14.8828 10.4297 13.2275 10.4297L13.0518 9.27246ZM15.0586 4.16016C15.0537 4.54102 15.144 4.87793 15.3296 5.1709C15.52 5.45898 15.7812 5.68359 16.1133 5.84473C16.4502 6.00098 16.8311 6.0791 17.2559 6.0791C17.6807 6.0791 18.0591 6.00098 18.3911 5.84473C18.728 5.68359 18.9917 5.45898 19.1821 5.1709C19.3726 4.87793 19.4678 4.54102 19.4678 4.16016C19.4678 3.78418 19.3726 3.45215 19.1821 3.16406C18.9917 2.87109 18.728 2.64404 18.3911 2.48291C18.0542 2.32178 17.6758 2.24121 17.2559 2.24121C16.8311 2.24121 16.4502 2.32178 16.1133 2.48291C15.7812 2.64404 15.52 2.87109 15.3296 3.16406C15.144 3.45215 15.0537 3.78418 15.0586 4.16016ZM22.4414 0.102539H23.833V13.2568H22.4414V0.102539ZM36.167 5.41992H38.2764V6.57715H36.167V13.2275H34.79V0.102539H36.167V5.41992ZM25.8691 2.15332H29.1064V0.27832H30.498V2.15332H33.6475V3.2959H25.8691V2.15332ZM26.543 7.30957C26.543 6.72363 26.6821 6.19873 26.9604 5.73486C27.2437 5.271 27.6318 4.90967 28.125 4.65088C28.623 4.39209 29.1846 4.2627 29.8096 4.2627C30.4297 4.2627 30.9863 4.39209 31.4795 4.65088C31.9775 4.90967 32.3682 5.271 32.6514 5.73486C32.9346 6.19873 33.0762 6.72363 33.0762 7.30957C33.0762 7.90039 32.9346 8.42773 32.6514 8.8916C32.3682 9.35547 31.9775 9.71924 31.4795 9.98291C30.9863 10.2417 30.4297 10.3711 29.8096 10.3711C29.1846 10.3711 28.623 10.2417 28.125 9.98291C27.6318 9.71924 27.2437 9.35547 26.9604 8.8916C26.6821 8.42773 26.543 7.90039 26.543 7.30957ZM27.876 7.30957C27.876 7.68555 27.9565 8.01758 28.1177 8.30566C28.2837 8.59375 28.5132 8.81592 28.8062 8.97217C29.104 9.12842 29.4385 9.2041 29.8096 9.19922C30.1758 9.2041 30.5054 9.12842 30.7983 8.97217C31.0913 8.81592 31.3208 8.59375 31.4868 8.30566C31.6577 8.01758 31.7432 7.68555 31.7432 7.30957C31.7432 6.94336 31.6577 6.61621 31.4868 6.32812C31.3208 6.04004 31.0913 5.81543 30.7983 5.6543C30.5054 5.48828 30.1758 5.40527 29.8096 5.40527C29.4385 5.40527 29.104 5.48828 28.8062 5.6543C28.5132 5.81543 28.2837 6.04004 28.1177 6.32812C27.9565 6.61621 27.876 6.94336 27.876 7.30957ZM49.7754 6.85547H48.3984V0.102539H49.7754V6.85547ZM38.9502 5.68359C39.6191 5.45898 40.2026 5.13184 40.7007 4.70215C41.2036 4.27246 41.5869 3.77686 41.8506 3.21533C42.1191 2.65381 42.2559 2.07031 42.2607 1.46484V0.454102H43.6816V1.46484C43.6816 2.0459 43.8135 2.60254 44.0771 3.13477C44.3408 3.66699 44.7192 4.13574 45.2124 4.54102C45.7056 4.94141 46.2842 5.24414 46.9482 5.44922L46.2598 6.5332C45.498 6.28418 44.8364 5.91309 44.2749 5.41992C43.7134 4.92676 43.2837 4.34326 42.9858 3.66943C42.6831 4.39697 42.2437 5.03174 41.6675 5.57373C41.0962 6.11572 40.4248 6.51855 39.6533 6.78223L38.9502 5.68359ZM41.1621 7.48535H49.79V10.7666H42.5537V11.9824H50.2295V13.0957H41.2061V9.71191H48.4131V8.58398H41.1621V7.48535ZM66.7676 13.2275H65.4346V6.50391H63.75V12.5537H62.4463V0.366211H63.75V5.36133H65.4346V0.102539H66.7676V13.2275ZM56.1475 1.65527H57.5391V8.66455C58.9404 8.6499 60.2832 8.51562 61.5674 8.26172L61.7139 9.47754C60.8594 9.62891 60.0488 9.73633 59.2822 9.7998C58.5156 9.86328 57.7539 9.89258 56.9971 9.8877H56.1475V1.65527ZM80.4639 7.63184H68.4961V6.50391H71.3672V4.73877C70.8496 4.52881 70.4541 4.26025 70.1807 3.93311C69.9121 3.60596 69.7803 3.22754 69.7852 2.79785C69.7852 2.28516 69.9731 1.84326 70.3491 1.47217C70.73 1.10107 71.272 0.820312 71.9751 0.629883C72.6831 0.43457 73.5156 0.336914 74.4727 0.336914C75.4297 0.336914 76.2598 0.43457 76.9629 0.629883C77.666 0.820312 78.208 1.10107 78.5889 1.47217C78.9697 1.84326 79.1602 2.28516 79.1602 2.79785C79.1553 3.22754 79.0161 3.6084 78.7427 3.94043C78.4692 4.26758 78.0762 4.53613 77.5635 4.74609V6.50391H80.4639V7.63184ZM69.917 10.8545C69.917 10.3564 70.0977 9.93408 70.459 9.5874C70.8203 9.24072 71.3403 8.97705 72.019 8.79639C72.7026 8.61572 73.5205 8.52539 74.4727 8.52539C75.4102 8.52539 76.2183 8.61572 76.897 8.79639C77.5757 8.97705 78.0957 9.24316 78.457 9.59473C78.8184 9.94141 78.999 10.3613 78.999 10.8545C78.999 11.3525 78.8184 11.7773 78.457 12.1289C78.0957 12.4805 77.5757 12.7466 76.897 12.9272C76.2231 13.1079 75.415 13.1982 74.4727 13.1982C73.5205 13.1982 72.7026 13.1079 72.019 12.9272C71.3403 12.7466 70.8203 12.4805 70.459 12.1289C70.0977 11.7822 69.917 11.3574 69.917 10.8545ZM71.2207 2.79785C71.2158 3.23242 71.499 3.56934 72.0703 3.80859C72.6416 4.04785 73.4424 4.16992 74.4727 4.1748C75.498 4.16992 76.2964 4.04785 76.8677 3.80859C77.4438 3.56934 77.7295 3.23242 77.7246 2.79785C77.7246 2.50977 77.5952 2.26074 77.3364 2.05078C77.0776 1.84082 76.7041 1.68213 76.2158 1.57471C75.7275 1.4624 75.1465 1.40625 74.4727 1.40625C73.4473 1.41113 72.6465 1.53564 72.0703 1.77979C71.499 2.01904 71.2158 2.3584 71.2207 2.79785ZM71.3232 10.8545C71.3184 11.2646 71.5918 11.582 72.1436 11.8066C72.6953 12.0264 73.4717 12.1338 74.4727 12.1289C75.4639 12.1387 76.2329 12.0312 76.7798 11.8066C77.3315 11.582 77.6074 11.2646 77.6074 10.8545C77.6074 10.4541 77.3315 10.144 76.7798 9.92432C76.2329 9.70459 75.4639 9.59473 74.4727 9.59473C73.4668 9.59473 72.688 9.70459 72.1362 9.92432C71.5894 10.144 71.3184 10.4541 71.3232 10.8545ZM76.1865 6.50391V5.10498C75.6592 5.18799 75.0879 5.22949 74.4727 5.22949C73.8867 5.22949 73.3203 5.19043 72.7734 5.1123V6.50391H76.1865ZM87.4365 0.322266C88.4229 0.322266 89.2651 0.407715 89.9634 0.578613C90.6616 0.749512 91.1963 1.00586 91.5674 1.34766C91.9385 1.68457 92.124 2.09473 92.124 2.57812C92.124 3.06641 91.9385 3.48145 91.5674 3.82324C91.1963 4.16016 90.6616 4.4165 89.9634 4.59229C89.2651 4.76318 88.4229 4.84863 87.4365 4.84863C86.4502 4.84863 85.6055 4.76318 84.9023 4.59229C84.2041 4.4165 83.6694 4.16016 83.2983 3.82324C82.9321 3.48145 82.749 3.06641 82.749 2.57812C82.749 2.09473 82.9321 1.68457 83.2983 1.34766C83.6694 1.00586 84.2041 0.749512 84.9023 0.578613C85.6055 0.407715 86.4502 0.322266 87.4365 0.322266ZM81.46 5.6543H93.4277V6.76758H81.46V5.6543ZM82.8955 7.77832H91.9189V10.8545H84.2725V12.0264H92.2852V13.0957H82.9102V9.84375H90.542V8.81836H82.8955V7.77832ZM84.1992 2.57812C84.1943 2.9834 84.4702 3.29102 85.0269 3.50098C85.5835 3.70605 86.3867 3.80859 87.4365 3.80859C88.4961 3.80859 89.3042 3.70605 89.8608 3.50098C90.4175 3.29102 90.6934 2.9834 90.6885 2.57812C90.6934 2.1875 90.4126 1.88477 89.8462 1.66992C89.2847 1.45508 88.4814 1.34766 87.4365 1.34766C86.3965 1.34766 85.5957 1.45508 85.0342 1.66992C84.4727 1.88477 84.1943 2.1875 84.1992 2.57812ZM102.656 3.96973C102.656 4.6582 102.798 5.35645 103.081 6.06445C103.364 6.76758 103.76 7.40723 104.268 7.9834C104.78 8.55469 105.361 8.99414 106.011 9.30176L105.22 10.3857C104.497 10.0391 103.853 9.52148 103.286 8.83301C102.72 8.13965 102.285 7.3584 101.982 6.48926C101.68 7.43164 101.233 8.28125 100.642 9.03809C100.056 9.79004 99.3945 10.3516 98.6572 10.7227L97.8369 9.62402C98.4863 9.31152 99.0723 8.85254 99.5947 8.24707C100.122 7.63672 100.535 6.95557 100.833 6.20361C101.13 5.44678 101.279 4.70215 101.279 3.96973V2.57812H98.3203V1.4209H105.513V2.57812H102.656V3.96973ZM106.919 0.102539H108.311V5.30273H110.42V6.47461H108.311V13.2275H106.919V0.102539ZM115.049 3.69141C115.049 4.4043 115.149 5.10986 115.349 5.80811C115.549 6.50146 115.847 7.13623 116.243 7.7124C116.638 8.28857 117.119 8.75 117.686 9.09668L116.909 10.166C116.313 9.80957 115.803 9.32373 115.378 8.7085C114.958 8.08838 114.631 7.38525 114.397 6.59912C114.153 7.45361 113.804 8.21533 113.35 8.88428C112.9 9.55322 112.363 10.0781 111.738 10.459L110.874 9.41895C111.475 9.05762 111.987 8.57666 112.412 7.97607C112.842 7.37549 113.164 6.71143 113.379 5.98389C113.599 5.25146 113.706 4.50684 113.701 3.75V1.30371H115.049V3.69141ZM116.265 4.7168H118.301V0.351562H119.619V12.583H118.301V5.87402H116.265V4.7168ZM121.011 0.102539H122.344V13.2275H121.011V0.102539ZM134.883 13.2275H133.491V0.102539H134.883V13.2275ZM124.307 2.18262H127.544V0.234375H128.95V2.18262H132.217V3.31055H124.307V2.18262ZM124.98 7.30957C124.98 6.72363 125.12 6.19873 125.398 5.73486C125.681 5.271 126.074 4.90967 126.577 4.65088C127.08 4.39209 127.646 4.2627 128.276 4.2627C128.906 4.2627 129.473 4.39209 129.976 4.65088C130.479 4.90967 130.872 5.271 131.155 5.73486C131.443 6.19873 131.587 6.72363 131.587 7.30957C131.587 7.90039 131.443 8.42773 131.155 8.8916C130.872 9.35547 130.479 9.71924 129.976 9.98291C129.473 10.2417 128.906 10.3711 128.276 10.3711C127.646 10.3711 127.08 10.2417 126.577 9.98291C126.074 9.71924 125.681 9.35547 125.398 8.8916C125.12 8.42773 124.98 7.90039 124.98 7.30957ZM126.299 7.30957C126.299 7.68555 126.382 8.01758 126.548 8.30566C126.719 8.59375 126.953 8.81592 127.251 8.97217C127.554 9.12842 127.896 9.2041 128.276 9.19922C128.657 9.2041 128.997 9.12842 129.294 8.97217C129.597 8.81592 129.832 8.59375 129.998 8.30566C130.168 8.01758 130.254 7.68555 130.254 7.30957C130.254 6.94336 130.168 6.61621 129.998 6.32812C129.832 6.04004 129.597 5.81543 129.294 5.6543C128.997 5.48828 128.657 5.40527 128.276 5.40527C127.896 5.40527 127.554 5.48828 127.251 5.6543C126.953 5.81543 126.719 6.04004 126.548 6.32812C126.382 6.61621 126.299 6.94336 126.299 7.30957ZM151.523 7.14844H150.132V0.102539H151.523V7.14844ZM140.903 3.75C140.903 3.15918 141.055 2.63184 141.357 2.16797C141.66 1.7041 142.078 1.34521 142.61 1.09131C143.142 0.83252 143.74 0.703125 144.404 0.703125C145.068 0.703125 145.664 0.83252 146.191 1.09131C146.724 1.34521 147.139 1.7041 147.437 2.16797C147.739 2.63184 147.891 3.15918 147.891 3.75C147.891 4.34082 147.739 4.86816 147.437 5.33203C147.139 5.79102 146.724 6.1499 146.191 6.40869C145.664 6.6626 145.068 6.78711 144.404 6.78223C143.74 6.78711 143.142 6.6626 142.61 6.40869C142.078 6.1499 141.66 5.79102 141.357 5.33203C141.055 4.86816 140.903 4.34082 140.903 3.75ZM142.266 3.75C142.266 4.12109 142.356 4.45068 142.537 4.73877C142.717 5.02197 142.971 5.24414 143.298 5.40527C143.625 5.56152 143.994 5.63965 144.404 5.63965C144.81 5.63965 145.173 5.56152 145.496 5.40527C145.818 5.24414 146.069 5.02197 146.25 4.73877C146.436 4.45068 146.528 4.12109 146.528 3.75C146.528 3.38379 146.436 3.05908 146.25 2.77588C146.069 2.48779 145.818 2.26562 145.496 2.10938C145.173 1.95313 144.81 1.875 144.404 1.875C143.994 1.875 143.625 1.95313 143.298 2.10938C142.971 2.26562 142.717 2.48779 142.537 2.77588C142.356 3.05908 142.266 3.38379 142.266 3.75ZM142.939 7.77832H144.302V9.25781H150.146V7.77832H151.523V13.0664H142.939V7.77832ZM150.146 11.9238V10.3564H144.302V11.9238H150.146ZM159.858 4.7168H155.522V6.5332C156.729 6.5332 157.688 6.51367 158.401 6.47461C159.114 6.43066 159.824 6.34277 160.532 6.21094L160.664 7.33887C159.902 7.46582 159.133 7.55127 158.357 7.59521C157.581 7.63428 156.494 7.65625 155.098 7.66113H154.146V3.66211H158.467V2.00684H154.131V0.893555H159.858V4.7168ZM155.64 8.84766H164.546V13.2422H163.154V9.97559H155.64V8.84766ZM160.693 4.76074H163.154V3.13477H160.693V2.02148H163.154V0.117188H164.546V8.18848H163.154V5.87402H160.693V4.76074ZM173.057 3.39844H166.538V2.27051H169.116V0.483398H170.493V2.27051H173.057V3.39844ZM166.963 7.20703C166.963 6.62598 167.083 6.10596 167.322 5.64697C167.566 5.18799 167.905 4.83154 168.34 4.57764C168.774 4.31885 169.263 4.18945 169.805 4.18945C170.352 4.18945 170.84 4.31885 171.27 4.57764C171.704 4.83154 172.043 5.18799 172.288 5.64697C172.537 6.10596 172.661 6.62598 172.661 7.20703C172.661 7.79785 172.537 8.3252 172.288 8.78906C172.043 9.25293 171.704 9.61426 171.27 9.87305C170.84 10.127 170.352 10.2539 169.805 10.2539C169.263 10.2539 168.774 10.127 168.34 9.87305C167.905 9.61426 167.566 9.25293 167.322 8.78906C167.083 8.3252 166.963 7.79785 166.963 7.20703ZM168.193 7.20703C168.193 7.57324 168.262 7.89795 168.398 8.18115C168.535 8.45947 168.726 8.67676 168.97 8.83301C169.214 8.98926 169.492 9.06738 169.805 9.06738C170.117 9.06738 170.396 8.98926 170.64 8.83301C170.889 8.67676 171.082 8.45947 171.218 8.18115C171.36 7.89795 171.431 7.57324 171.431 7.20703C171.431 6.85059 171.36 6.53076 171.218 6.24756C171.082 5.96436 170.889 5.74463 170.64 5.58838C170.396 5.42725 170.117 5.34668 169.805 5.34668C169.492 5.34668 169.214 5.42725 168.97 5.58838C168.726 5.74463 168.535 5.96436 168.398 6.24756C168.262 6.53076 168.193 6.85059 168.193 7.20703ZM173.657 0.395508H174.976V5.56641H176.484V0.102539H177.803V13.2275H176.484V6.70898H174.976V12.6123H173.657V0.395508ZM195.161 8.62793H189.829V13.2129H188.467V8.62793H183.193V7.5H195.161V8.62793ZM183.867 5.40527C184.678 5.29297 185.425 5.0708 186.108 4.73877C186.797 4.40186 187.346 3.9917 187.756 3.5083C188.167 3.0249 188.379 2.51953 188.394 1.99219H184.307V0.878906H194.033V1.99219H189.976C189.98 2.51953 190.186 3.0249 190.591 3.5083C191.001 3.9917 191.55 4.40186 192.239 4.73877C192.927 5.0708 193.682 5.29297 194.502 5.40527L193.989 6.50391C193.271 6.3916 192.595 6.20361 191.96 5.93994C191.326 5.67139 190.769 5.33936 190.291 4.94385C189.812 4.54346 189.441 4.09912 189.177 3.61084C188.914 4.09912 188.542 4.54346 188.064 4.94385C187.585 5.33936 187.031 5.67139 186.401 5.93994C185.771 6.20361 185.103 6.3916 184.395 6.50391L183.867 5.40527ZM200.156 3.69141C200.156 4.4043 200.256 5.10986 200.457 5.80811C200.657 6.50146 200.955 7.13623 201.35 7.7124C201.746 8.28857 202.227 8.75 202.793 9.09668L202.017 10.166C201.421 9.80957 200.911 9.32373 200.486 8.7085C200.066 8.08838 199.739 7.38525 199.504 6.59912C199.26 7.45361 198.911 8.21533 198.457 8.88428C198.008 9.55322 197.471 10.0781 196.846 10.459L195.981 9.41895C196.582 9.05762 197.095 8.57666 197.52 7.97607C197.949 7.37549 198.271 6.71143 198.486 5.98389C198.706 5.25146 198.813 4.50684 198.809 3.75V1.30371H200.156V3.69141ZM201.372 4.7168H203.408V0.351562H204.727V12.583H203.408V5.87402H201.372V4.7168ZM206.118 0.102539H207.451V13.2275H206.118V0.102539ZM221.133 11.5869H209.121V10.4297H211.992V7.00195C211.44 6.69922 211.013 6.31592 210.71 5.85205C210.408 5.38818 210.259 4.86816 210.264 4.29199C210.264 3.61328 210.469 3.01514 210.879 2.49756C211.289 1.97998 211.86 1.57959 212.593 1.29639C213.33 1.0083 214.165 0.864258 215.098 0.864258C216.03 0.864258 216.865 1.0083 217.603 1.29639C218.34 1.57959 218.914 1.97998 219.324 2.49756C219.739 3.01514 219.946 3.61328 219.946 4.29199C219.946 4.86328 219.8 5.37842 219.507 5.8374C219.214 6.2915 218.799 6.66992 218.262 6.97266V10.4297H221.133V11.5869ZM211.611 4.29199C211.611 4.75586 211.758 5.16357 212.051 5.51514C212.344 5.8667 212.754 6.14014 213.281 6.33545C213.809 6.52588 214.414 6.62109 215.098 6.62109C215.776 6.62109 216.379 6.52344 216.907 6.32812C217.439 6.13281 217.854 5.86182 218.152 5.51514C218.45 5.16357 218.599 4.75586 218.599 4.29199C218.599 3.82813 218.45 3.42285 218.152 3.07617C217.854 2.72461 217.439 2.45361 216.907 2.26318C216.379 2.07275 215.776 1.97754 215.098 1.97754C214.414 1.97754 213.809 2.07275 213.281 2.26318C212.754 2.45361 212.344 2.72461 212.051 3.07617C211.758 3.42285 211.611 3.82813 211.611 4.29199ZM216.855 10.4297V7.51465C216.309 7.6416 215.723 7.70508 215.098 7.70508C214.482 7.70508 213.906 7.6416 213.369 7.51465V10.4297H216.855ZM223.579 12.085C223.394 12.085 223.22 12.0386 223.059 11.9458C222.903 11.853 222.776 11.7285 222.678 11.5723C222.585 11.416 222.539 11.2451 222.539 11.0596C222.539 10.8691 222.585 10.6934 222.678 10.5322C222.771 10.3711 222.896 10.2441 223.052 10.1514C223.213 10.0537 223.389 10.0049 223.579 10.0049C223.765 10.0049 223.936 10.0513 224.092 10.144C224.253 10.2368 224.38 10.3638 224.473 10.5249C224.57 10.686 224.619 10.8594 224.619 11.0449C224.619 11.2305 224.57 11.4038 224.473 11.5649C224.38 11.7212 224.253 11.8481 224.092 11.9458C223.936 12.0386 223.765 12.085 223.579 12.085ZM226.831 7.93945C226.836 6.58691 227.021 5.33203 227.388 4.1748C227.759 3.0127 228.296 1.92871 228.999 0.922852H230.435C230.093 1.41602 229.771 2.05078 229.468 2.82715C229.165 3.59863 228.921 4.43359 228.735 5.33203C228.55 6.23047 228.457 7.09961 228.457 7.93945C228.457 8.7793 228.55 9.65088 228.735 10.5542C228.921 11.4526 229.165 12.29 229.468 13.0664C229.771 13.8428 230.093 14.4775 230.435 14.9707H228.999C228.296 13.96 227.759 12.8735 227.388 11.7114C227.021 10.5493 226.836 9.29199 226.831 7.93945ZM236.235 3.96973C236.235 4.69238 236.382 5.41016 236.675 6.12305C236.973 6.83594 237.383 7.47314 237.905 8.03467C238.433 8.59619 239.028 9.01855 239.692 9.30176L238.931 10.3857C238.164 10.0488 237.485 9.53857 236.895 8.85498C236.304 8.17139 235.854 7.3877 235.547 6.50391C235.239 7.45117 234.79 8.29834 234.199 9.04541C233.608 9.79248 232.935 10.3516 232.178 10.7227L231.372 9.62402C232.021 9.32129 232.607 8.86963 233.13 8.26904C233.657 7.66357 234.07 6.98242 234.368 6.22559C234.67 5.46875 234.824 4.7168 234.829 3.96973V2.57812H231.826V1.4209H239.224V2.57812H236.235V3.96973ZM240.879 0.102539H242.271V13.2275H240.879V0.102539ZM255.308 13.2275H253.916V9.62402H246.416V8.52539H255.308V13.2275ZM244.556 3.99902C244.556 3.39355 244.702 2.85156 244.995 2.37305C245.293 1.88965 245.703 1.51367 246.226 1.24512C246.748 0.97168 247.334 0.834961 247.983 0.834961C248.54 0.834961 249.05 0.935059 249.514 1.13525C249.983 1.33057 250.371 1.61133 250.679 1.97754H253.916V0.102539H255.308V7.83691H253.916V6.03516H250.679C250.366 6.40137 249.976 6.68457 249.507 6.88477C249.043 7.08008 248.535 7.17773 247.983 7.17773C247.334 7.17773 246.748 7.04346 246.226 6.7749C245.703 6.50146 245.293 6.12305 244.995 5.63965C244.702 5.15625 244.556 4.60938 244.556 3.99902ZM245.889 3.99902C245.889 4.39453 245.977 4.74365 246.152 5.04639C246.333 5.34912 246.582 5.58594 246.899 5.75684C247.222 5.92285 247.588 6.00586 247.998 6.00586C248.389 6.00586 248.743 5.92285 249.06 5.75684C249.377 5.58594 249.626 5.34912 249.807 5.04639C249.988 4.73877 250.078 4.38965 250.078 3.99902C250.078 3.61328 249.988 3.27148 249.807 2.97363C249.626 2.6709 249.377 2.43408 249.06 2.26318C248.743 2.09229 248.389 2.00684 247.998 2.00684C247.593 2.00684 247.229 2.09229 246.907 2.26318C246.584 2.43408 246.333 2.6709 246.152 2.97363C245.977 3.27148 245.889 3.61328 245.889 3.99902ZM253.916 4.89258V3.12012H251.294C251.372 3.41797 251.411 3.71094 251.411 3.99902C251.411 4.30664 251.37 4.60449 251.287 4.89258H253.916ZM258.516 15.0146H257.271L258.047 10.9717H259.688L258.516 15.0146ZM275.786 6.85547H274.395V3.48633H271.626V2.3584H274.395V0.102539H275.786V6.85547ZM264.8 5.80078C265.474 5.58594 266.057 5.27344 266.55 4.86328C267.043 4.44824 267.422 3.96729 267.686 3.42041C267.949 2.86865 268.081 2.28516 268.081 1.66992V0.527344H269.458V1.66992C269.458 2.22656 269.585 2.76123 269.839 3.27393C270.098 3.78174 270.466 4.2334 270.945 4.62891C271.423 5.01953 271.987 5.31738 272.637 5.52246L271.904 6.60645C271.191 6.35742 270.566 5.99609 270.029 5.52246C269.497 5.04883 269.084 4.49707 268.792 3.86719C268.503 4.58496 268.081 5.20752 267.524 5.73486C266.973 6.25732 266.313 6.65039 265.547 6.91406L264.8 5.80078ZM267.202 7.4707H275.786V10.7373H268.594V11.9531H276.24V13.0664H267.231V9.68262H274.409V8.56934H267.202V7.4707ZM288.677 13.2275H287.285V0.102539H288.677V13.2275ZM277.998 9.63867C278.662 9.34082 279.25 8.91357 279.763 8.35693C280.276 7.80029 280.674 7.17041 280.957 6.46729C281.24 5.76416 281.382 5.04883 281.382 4.32129V3.45703H278.394V2.34375H281.367V0.366211H282.744V2.34375H285.688V3.45703H282.744V4.32129C282.744 5.01465 282.888 5.70068 283.176 6.37939C283.464 7.05322 283.867 7.65869 284.385 8.1958C284.907 8.72803 285.503 9.13574 286.172 9.41895L285.41 10.4883C284.658 10.1611 283.992 9.67529 283.411 9.03076C282.834 8.38135 282.393 7.63916 282.085 6.8042C281.787 7.69287 281.348 8.48145 280.767 9.16992C280.19 9.85352 279.526 10.3662 278.774 10.708L277.998 9.63867ZM299.019 2.51953C299.014 3.07617 299.136 3.6084 299.385 4.11621C299.639 4.61914 300.002 5.06592 300.476 5.45654C300.95 5.84229 301.514 6.1377 302.168 6.34277L301.509 7.42676C300.771 7.19238 300.132 6.84082 299.59 6.37207C299.053 5.90332 298.638 5.35156 298.345 4.7168C298.057 5.44434 297.629 6.0791 297.063 6.62109C296.497 7.1582 295.825 7.56348 295.049 7.83691L294.331 6.72363C295 6.50391 295.583 6.18164 296.082 5.75684C296.58 5.33203 296.96 4.84131 297.224 4.28467C297.488 3.72803 297.622 3.14453 297.627 2.53418V2.16797H294.741V1.04004H301.846V2.16797H299.019V2.51953ZM296.104 10.7373C296.104 10.2295 296.279 9.79248 296.631 9.42627C296.987 9.06006 297.495 8.78174 298.154 8.59131C298.818 8.40088 299.604 8.30566 300.513 8.30566C301.411 8.30566 302.185 8.40088 302.834 8.59131C303.489 8.78174 303.989 9.06006 304.336 9.42627C304.688 9.79248 304.863 10.2295 304.863 10.7373C304.863 11.2549 304.688 11.6968 304.336 12.063C303.989 12.4341 303.489 12.7148 302.834 12.9053C302.185 13.1006 301.411 13.1982 300.513 13.1982C299.604 13.1982 298.818 13.1006 298.154 12.9053C297.495 12.7148 296.987 12.4341 296.631 12.063C296.279 11.6968 296.104 11.2549 296.104 10.7373ZM297.495 10.7373C297.49 11.1719 297.749 11.5088 298.271 11.748C298.799 11.9824 299.531 12.0996 300.469 12.0996C301.431 12.0996 302.178 11.9824 302.71 11.748C303.242 11.5137 303.506 11.1768 303.501 10.7373C303.506 10.3125 303.25 9.98535 302.732 9.75586C302.214 9.52148 301.489 9.4043 300.557 9.4043C299.585 9.4043 298.831 9.51904 298.293 9.74854C297.756 9.97803 297.49 10.3076 297.495 10.7373ZM303.354 0.102539H304.746V3.35449H306.65V4.49707H304.746V7.9834H303.354V0.102539ZM319.409 11.5576H307.397V10.415H312.656V7.29492H314.033V10.415H319.409V11.5576ZM307.808 6.38672C308.643 6.24512 309.426 5.95215 310.159 5.50781C310.896 5.06348 311.487 4.52637 311.931 3.89648C312.375 3.26172 312.598 2.60742 312.598 1.93359V0.9375H314.062V1.93359C314.062 2.60742 314.285 3.26172 314.729 3.89648C315.178 4.52637 315.771 5.06348 316.509 5.50781C317.251 5.95215 318.042 6.24512 318.882 6.38672L318.281 7.5293C317.568 7.3877 316.887 7.15332 316.238 6.82617C315.593 6.49902 315.02 6.09375 314.517 5.61035C314.014 5.12207 313.621 4.58496 313.337 3.99902C313.054 4.58496 312.661 5.11963 312.158 5.60303C311.66 6.08643 311.089 6.49414 310.444 6.82617C309.805 7.15332 309.131 7.3877 308.423 7.5293L307.808 6.38672ZM321.548 15.0146H320.303L321.079 10.9717H322.72L321.548 15.0146ZM334.57 2.3291H337.427V0.117188H338.818V9.68262H337.427V6.28418H334.57V7.42676H328.477V1.21582H334.57V2.3291ZM333.208 6.32812V2.34375H329.854V6.32812H333.208ZM330.249 8.80371H331.655V11.8213H339.111V12.9492H330.249V8.80371ZM337.427 5.1416V3.47168H334.57V5.1416H337.427ZM345.542 2.43164C345.537 2.9834 345.662 3.52051 345.916 4.04297C346.169 4.56543 346.536 5.03174 347.014 5.44189C347.493 5.84717 348.057 6.16211 348.706 6.38672L347.988 7.4707C347.266 7.22168 346.636 6.84814 346.099 6.3501C345.562 5.85205 345.146 5.27344 344.854 4.61426C344.565 5.34668 344.138 5.98877 343.572 6.54053C343.01 7.0874 342.344 7.49512 341.572 7.76367L340.854 6.66504C341.514 6.44043 342.09 6.11084 342.583 5.67627C343.076 5.23682 343.455 4.73633 343.718 4.1748C343.987 3.61328 344.121 3.03711 344.121 2.44629V2.08008H341.279V0.952148H348.354V2.08008H345.542V2.43164ZM342.891 8.61328H351.782V13.2275H350.391V9.74121H342.891V8.61328ZM347.959 3.44238H350.391V0.102539H351.782V7.9541H350.391V4.58496H347.959V3.44238ZM354.99 15.0146H353.745L354.521 10.9717H356.162L354.99 15.0146ZM373.33 11.5869H361.318V10.4297H364.189V7.00195C363.638 6.69922 363.21 6.31592 362.908 5.85205C362.605 5.38818 362.456 4.86816 362.461 4.29199C362.461 3.61328 362.666 3.01514 363.076 2.49756C363.486 1.97998 364.058 1.57959 364.79 1.29639C365.527 1.0083 366.362 0.864258 367.295 0.864258C368.228 0.864258 369.062 1.0083 369.8 1.29639C370.537 1.57959 371.111 1.97998 371.521 2.49756C371.936 3.01514 372.144 3.61328 372.144 4.29199C372.144 4.86328 371.997 5.37842 371.704 5.8374C371.411 6.2915 370.996 6.66992 370.459 6.97266V10.4297H373.33V11.5869ZM363.809 4.29199C363.809 4.75586 363.955 5.16357 364.248 5.51514C364.541 5.8667 364.951 6.14014 365.479 6.33545C366.006 6.52588 366.611 6.62109 367.295 6.62109C367.974 6.62109 368.577 6.52344 369.104 6.32812C369.636 6.13281 370.051 5.86182 370.349 5.51514C370.647 5.16357 370.796 4.75586 370.796 4.29199C370.796 3.82813 370.647 3.42285 370.349 3.07617C370.051 2.72461 369.636 2.45361 369.104 2.26318C368.577 2.07275 367.974 1.97754 367.295 1.97754C366.611 1.97754 366.006 2.07275 365.479 2.26318C364.951 2.45361 364.541 2.72461 364.248 3.07617C363.955 3.42285 363.809 3.82813 363.809 4.29199ZM369.053 10.4297V7.51465C368.506 7.6416 367.92 7.70508 367.295 7.70508C366.68 7.70508 366.104 7.6416 365.566 7.51465V10.4297H369.053ZM378.882 2.90039C378.882 3.41309 379.016 3.90625 379.285 4.37988C379.553 4.85352 379.934 5.271 380.427 5.63232C380.92 5.99365 381.494 6.26465 382.148 6.44531L381.489 7.5293C380.737 7.31445 380.081 6.98486 379.519 6.54053C378.958 6.09131 378.525 5.55908 378.223 4.94385C377.93 5.63232 377.502 6.23291 376.941 6.74561C376.379 7.25342 375.713 7.62695 374.941 7.86621L374.282 6.79688C374.937 6.58691 375.505 6.28418 375.989 5.88867C376.477 5.49316 376.851 5.03662 377.109 4.51904C377.373 4.00146 377.505 3.46191 377.505 2.90039V2.73926H374.648V1.62598H377.505V0.0439453H378.896V1.62598H381.738V2.73926H378.882V2.90039ZM376.392 10.7666C376.392 10.2588 376.567 9.82422 376.919 9.46289C377.275 9.10156 377.786 8.82568 378.45 8.63525C379.119 8.44482 379.912 8.34961 380.83 8.34961C381.743 8.34961 382.532 8.44482 383.196 8.63525C383.865 8.82568 384.377 9.10156 384.734 9.46289C385.09 9.82422 385.269 10.2588 385.269 10.7666C385.269 11.2793 385.088 11.7163 384.727 12.0776C384.37 12.4438 383.86 12.7222 383.196 12.9126C382.532 13.103 381.743 13.1982 380.83 13.1982C379.917 13.1982 379.126 13.103 378.457 12.9126C377.788 12.7222 377.275 12.4438 376.919 12.0776C376.567 11.7114 376.392 11.2744 376.392 10.7666ZM377.769 10.7666C377.769 11.0498 377.888 11.2939 378.127 11.499C378.372 11.6992 378.723 11.8555 379.182 11.9678C379.641 12.0752 380.19 12.1289 380.83 12.1289C381.792 12.124 382.542 12.002 383.079 11.7627C383.616 11.5234 383.887 11.1914 383.892 10.7666C383.887 10.3418 383.616 10.0146 383.079 9.78516C382.546 9.55078 381.797 9.43359 380.83 9.43359C379.863 9.43359 379.109 9.55078 378.567 9.78516C378.03 10.0146 377.764 10.3418 377.769 10.7666ZM381.328 3.7793H383.833V0.102539H385.225V8.05664H383.833V4.92188H381.328V3.7793ZM391.802 3.44238C391.797 4.20898 391.934 4.96826 392.212 5.72021C392.49 6.47217 392.881 7.146 393.384 7.7417C393.887 8.33252 394.458 8.78418 395.098 9.09668L394.233 10.21C393.53 9.83887 392.908 9.30908 392.366 8.62061C391.829 7.92725 391.414 7.13623 391.121 6.24756C390.823 7.19482 390.393 8.03955 389.832 8.78174C389.275 9.51904 388.628 10.0781 387.891 10.459L387.026 9.33105C387.686 9.01367 388.271 8.54492 388.784 7.9248C389.297 7.30469 389.695 6.60156 389.978 5.81543C390.266 5.0293 390.41 4.23828 390.41 3.44238V1.20117H391.802V3.44238ZM396.079 0.102539H397.471V5.33203H399.58V6.51855H397.471V13.2275H396.079V0.102539ZM410.522 3.66211H412.427V4.83398H410.522V8.52539H409.131V0.102539H410.522V3.66211ZM400.225 1.50879H403.447V0H404.839V1.50879H408.047V2.60742H400.225V1.50879ZM400.942 5.55176C400.942 5.08789 401.074 4.68018 401.338 4.32861C401.602 3.97217 401.975 3.69629 402.458 3.50098C402.942 3.30566 403.501 3.20801 404.136 3.20801C404.761 3.20801 405.312 3.30566 405.791 3.50098C406.274 3.69629 406.648 3.97217 406.912 4.32861C407.18 4.68018 407.314 5.08789 407.314 5.55176C407.314 6.01562 407.18 6.42334 406.912 6.7749C406.648 7.12158 406.274 7.39014 405.791 7.58057C405.312 7.771 404.761 7.86621 404.136 7.86621C403.506 7.86621 402.947 7.771 402.458 7.58057C401.975 7.39014 401.602 7.12158 401.338 6.7749C401.074 6.42334 400.942 6.01562 400.942 5.55176ZM401.982 10.9277C401.978 10.4492 402.148 10.0391 402.495 9.69727C402.842 9.35059 403.342 9.08691 403.997 8.90625C404.656 8.7207 405.435 8.62793 406.333 8.62793C407.222 8.62793 407.991 8.7207 408.64 8.90625C409.294 9.08691 409.795 9.35059 410.142 9.69727C410.493 10.0391 410.669 10.4492 410.669 10.9277C410.669 11.4014 410.493 11.8091 410.142 12.1509C409.795 12.4927 409.294 12.7515 408.64 12.9272C407.991 13.1079 407.222 13.1982 406.333 13.1982C405.435 13.1982 404.658 13.1079 404.004 12.9272C403.35 12.7515 402.847 12.4927 402.495 12.1509C402.148 11.8091 401.978 11.4014 401.982 10.9277ZM402.29 5.55176C402.285 5.80566 402.358 6.02783 402.51 6.21826C402.661 6.40869 402.876 6.55518 403.154 6.65771C403.438 6.76025 403.765 6.81152 404.136 6.81152C404.697 6.81152 405.149 6.69922 405.491 6.47461C405.833 6.24512 406.006 5.9375 406.011 5.55176C406.006 5.28809 405.925 5.05859 405.769 4.86328C405.613 4.66797 405.393 4.5166 405.11 4.40918C404.832 4.30176 404.507 4.24805 404.136 4.24805C403.765 4.24805 403.44 4.30176 403.162 4.40918C402.883 4.5166 402.666 4.66797 402.51 4.86328C402.358 5.05859 402.285 5.28809 402.29 5.55176ZM403.359 10.9277C403.354 11.3135 403.613 11.6138 404.136 11.8286C404.658 12.0386 405.391 12.1436 406.333 12.1436C407.266 12.1436 407.991 12.0386 408.508 11.8286C409.026 11.6138 409.287 11.3135 409.292 10.9277C409.287 10.5322 409.026 10.2295 408.508 10.0195C407.996 9.80957 407.271 9.70215 406.333 9.69727C405.381 9.70215 404.646 9.80957 404.128 10.0195C403.611 10.2295 403.354 10.5322 403.359 10.9277ZM428.818 7.41211H416.836V6.26953H428.818V7.41211ZM418.257 10.8252C418.257 10.3223 418.438 9.89258 418.799 9.53613C419.16 9.1748 419.683 8.90137 420.366 8.71582C421.05 8.53027 421.865 8.4375 422.812 8.4375C423.755 8.4375 424.563 8.53027 425.237 8.71582C425.916 8.90137 426.436 9.1748 426.797 9.53613C427.158 9.89258 427.339 10.3223 427.339 10.8252C427.339 11.3281 427.158 11.7578 426.797 12.1143C426.436 12.4707 425.916 12.7393 425.237 12.9199C424.563 13.1055 423.755 13.1982 422.812 13.1982C421.865 13.1982 421.05 13.1055 420.366 12.9199C419.683 12.7393 419.16 12.4707 418.799 12.1143C418.438 11.7578 418.257 11.3281 418.257 10.8252ZM418.33 0.571289H427.339V1.71387H419.707V3.99902H427.427V5.12695H418.33V0.571289ZM419.663 10.8252C419.658 11.2451 419.929 11.5674 420.476 11.792C421.023 12.0117 421.802 12.124 422.812 12.1289C423.809 12.124 424.58 12.0117 425.127 11.792C425.674 11.5674 425.947 11.2451 425.947 10.8252C425.947 10.4102 425.674 10.0903 425.127 9.86572C424.58 9.63623 423.809 9.5166 422.812 9.50684C421.807 9.5166 421.028 9.63623 420.476 9.86572C419.929 10.0903 419.658 10.4102 419.663 10.8252ZM433.403 7.93945C433.398 9.29199 433.21 10.5493 432.839 11.7114C432.473 12.8735 431.938 13.96 431.235 14.9707H429.8C430.142 14.4775 430.464 13.8428 430.767 13.0664C431.069 12.29 431.313 11.4526 431.499 10.5542C431.685 9.65088 431.777 8.7793 431.777 7.93945C431.777 7.09961 431.685 6.23047 431.499 5.33203C431.313 4.43359 431.069 3.59863 430.767 2.82715C430.464 2.05078 430.142 1.41602 429.8 0.922852H431.235C431.938 1.92871 432.473 3.0127 432.839 4.1748C433.21 5.33203 433.398 6.58691 433.403 7.93945Z" fill="#C3C3C3"/>
</svg>
