<svg width="88" height="22" viewBox="0 0 88 22" fill="none" xmlns="http://www.w3.org/2000/svg">
<path d="M19.3594 12.6797H11.1797V16.5703H8.60156V12.6797H0V10.5938H19.3594V12.6797ZM2.34375 14.625H4.94531V18.6562H17.2266V20.7656H2.34375V14.625ZM2.46094 0.960938H16.875V8.625H2.46094V0.960938ZM14.2969 6.58594V3H4.99219V6.58594H14.2969ZM27.6328 1.47656C28.7422 1.47656 29.7383 1.69531 30.6211 2.13281C31.5039 2.5625 32.1953 3.16797 32.6953 3.94922C33.2031 4.72266 33.4609 5.60156 33.4688 6.58594C33.4609 7.57812 33.2031 8.46484 32.6953 9.24609C32.1953 10.0195 31.5039 10.625 30.6211 11.0625C29.7383 11.5 28.7422 11.7188 27.6328 11.7188C26.5312 11.7188 25.5352 11.5 24.6445 11.0625C23.7617 10.625 23.0703 10.0156 22.5703 9.23438C22.0703 8.45312 21.8203 7.57031 21.8203 6.58594C21.8203 5.60156 22.0703 4.72266 22.5703 3.94922C23.0781 3.16797 23.7734 2.5625 24.6562 2.13281C25.5391 1.69531 26.5312 1.47656 27.6328 1.47656ZM20.8594 14.6484C23.4531 14.6484 25.875 14.6055 28.125 14.5195C30.375 14.4258 32.5156 14.2344 34.5469 13.9453L34.7578 15.8438C32.6641 16.2422 30.5273 16.5 28.3477 16.6172C26.1758 16.7266 23.7891 16.7812 21.1875 16.7812L20.8594 14.6484ZM24.3984 6.58594C24.3984 7.16406 24.5352 7.67188 24.8086 8.10938C25.0898 8.53906 25.4766 8.87109 25.9688 9.10547C26.4609 9.33203 27.0156 9.44531 27.6328 9.44531C28.2578 9.44531 28.8164 9.33203 29.3086 9.10547C29.8086 8.87109 30.1992 8.53906 30.4805 8.10938C30.7695 7.67188 30.9141 7.16406 30.9141 6.58594C30.9141 6.00781 30.7695 5.50391 30.4805 5.07422C30.1992 4.64453 29.8086 4.3125 29.3086 4.07812C28.8164 3.84375 28.2578 3.72656 27.6328 3.72656C27.0156 3.72656 26.4609 3.84375 25.9688 4.07812C25.4766 4.3125 25.0898 4.64844 24.8086 5.08594C24.5352 5.51562 24.3984 6.01562 24.3984 6.58594ZM35.8125 0H38.4141V21.2109H35.8125V0ZM65.3906 21.1875H62.8828V10.4766H60.5391V20.1094H58.1016V0.398438H60.5391V8.34375H62.8828V0H65.3906V21.1875ZM48.1172 2.4375H50.7422V13.6172C52.8125 13.5781 54.8281 13.3672 56.7891 12.9844L57.0469 15.2578C54.5625 15.6953 52.0547 15.9141 49.5234 15.9141H48.1172V2.4375ZM87.2578 12.2812H67.9453V10.1953H72.4453V7.51172C71.6328 7.16797 71.0117 6.73438 70.582 6.21094C70.1523 5.67969 69.9375 5.07031 69.9375 4.38281C69.9375 3.54688 70.2461 2.82812 70.8633 2.22656C71.4883 1.61719 72.375 1.15234 73.5234 0.832031C74.6719 0.511719 76.0234 0.351562 77.5781 0.351562C79.1328 0.351562 80.4805 0.511719 81.6211 0.832031C82.7695 1.15234 83.6562 1.61719 84.2812 2.22656C84.9062 2.82812 85.2188 3.54688 85.2188 4.38281C85.2109 5.07031 84.9883 5.67969 84.5508 6.21094C84.1211 6.74219 83.5 7.17578 82.6875 7.51172V10.1953H87.2578V12.2812ZM70.1953 17.3438C70.1953 16.5391 70.4883 15.8555 71.0742 15.293C71.6602 14.7227 72.5039 14.293 73.6055 14.0039C74.7148 13.707 76.0391 13.5625 77.5781 13.5703C79.0938 13.5625 80.3984 13.707 81.4922 14.0039C82.5938 14.293 83.4375 14.7227 84.0234 15.293C84.6172 15.8555 84.9141 16.5391 84.9141 17.3438C84.9141 18.1562 84.6211 18.8438 84.0352 19.4062C83.4492 19.9766 82.6055 20.4062 81.5039 20.6953C80.4102 20.9922 79.1016 21.1406 77.5781 21.1406C76.0312 21.1406 74.707 20.9922 73.6055 20.6953C72.5039 20.4062 71.6602 19.9766 71.0742 19.4062C70.4883 18.8438 70.1953 18.1562 70.1953 17.3438ZM72.6562 4.38281C72.6484 5.01562 73.0625 5.50391 73.8984 5.84766C74.7422 6.18359 75.9414 6.35156 77.4961 6.35156C79.1055 6.35156 80.3438 6.18359 81.2109 5.84766C82.0859 5.51172 82.5234 5.02344 82.5234 4.38281C82.5234 3.74219 82.0938 3.24609 81.2344 2.89453C80.3828 2.54297 79.1875 2.36719 77.6484 2.36719C76.0469 2.36719 74.8125 2.54297 73.9453 2.89453C73.0781 3.23828 72.6484 3.73438 72.6562 4.38281ZM72.8438 17.3438C72.8359 17.9375 73.2305 18.3906 74.0273 18.7031C74.8242 19.0156 75.9805 19.1719 77.4961 19.1719C79.0508 19.1719 80.2383 19.0195 81.0586 18.7148C81.8867 18.4023 82.3047 17.9453 82.3125 17.3438C82.3047 16.7578 81.8945 16.3125 81.082 16.0078C80.2695 15.7031 79.1016 15.5469 77.5781 15.5391C76.0312 15.5469 74.8516 15.7031 74.0391 16.0078C73.2344 16.3125 72.8359 16.7578 72.8438 17.3438ZM80.0859 10.1953V8.17969C79.2969 8.28906 78.4609 8.34375 77.5781 8.34375C76.6953 8.34375 75.8594 8.28906 75.0703 8.17969V10.1953H80.0859Z" fill="black"/>
</svg>
