<svg width="34" height="18" viewBox="0 0 34 18" fill="none" xmlns="http://www.w3.org/2000/svg">
<path d="M16.1328 11.9922H9.10156V17.6562H6.95312V11.9922H0V10.2734H16.1328V11.9922ZM1.95312 0.703125H4.10156V2.87109H11.9922V0.703125H14.1797V8.4375H1.95312V0.703125ZM11.9922 6.67969V4.58984H4.10156V6.67969H11.9922ZM23.6328 3.125C23.6263 3.90625 23.7826 4.6582 24.1016 5.38086C24.4271 6.09701 24.9089 6.73177 25.5469 7.28516C26.1849 7.83854 26.9531 8.26172 27.8516 8.55469L26.7188 10.2734C25.7617 9.94792 24.9316 9.4694 24.2285 8.83789C23.5319 8.19987 22.9883 7.44792 22.5977 6.58203C22.2005 7.53906 21.6374 8.36589 20.9082 9.0625C20.179 9.75911 19.3099 10.2865 18.3008 10.6445L17.0898 8.92578C18.0273 8.61979 18.8216 8.17057 19.4727 7.57812C20.1302 6.98568 20.6217 6.30534 20.9473 5.53711C21.2793 4.76888 21.4453 3.95833 21.4453 3.10547V1.09375H23.6328V3.125ZM19.9219 11.6992H22.1484V15.5469H31.9336V17.3047H19.9219V11.6992ZM29.0625 0H31.2305V5.21484H33.6914V7.05078H31.2305V12.9688H29.0625V0Z" fill="black"/>
</svg>
