<svg width="107" height="22" viewBox="0 0 107 22" fill="none" xmlns="http://www.w3.org/2000/svg">
<path d="M8.03906 5.27344C8.03125 6.60156 8.23438 7.88281 8.64844 9.11719C9.0625 10.3516 9.66406 11.4492 10.4531 12.4102C11.25 13.3633 12.1953 14.0781 13.2891 14.5547L11.7188 16.6406C10.5469 16.0703 9.53906 15.25 8.69531 14.1797C7.85156 13.1094 7.19922 11.8633 6.73828 10.4414C6.26172 11.9492 5.58984 13.2773 4.72266 14.4258C3.85547 15.5664 2.82812 16.4375 1.64062 17.0391L0 14.9297C1.11719 14.4062 2.08203 13.6406 2.89453 12.6328C3.70703 11.625 4.32422 10.4805 4.74609 9.19922C5.16797 7.91797 5.38281 6.60938 5.39062 5.27344V1.89844H8.03906V5.27344ZM10.9453 7.03125H15.3984V0.1875H17.9766V21.3984H15.3984V9.14062H10.9453V7.03125ZM38.5781 21.3984H35.9531V0.1875H38.5781V21.3984ZM22.0781 1.92188H24.6797V7.21875H29.8125V1.92188H32.3906V16.4062H22.0781V1.92188ZM29.8125 14.2734V9.25781H24.6797V14.2734H29.8125ZM52.6406 3.09375C52.6406 4.17969 52.9688 5.23828 53.625 6.26953C54.2891 7.30078 55.2031 8.19141 56.3672 8.94141C57.5312 9.68359 58.8359 10.1797 60.2812 10.4297L59.1094 12.6094C57.3438 12.2422 55.7695 11.5508 54.3867 10.5352C53.0039 9.51953 51.9648 8.29688 51.2695 6.86719C50.8086 7.80469 50.1875 8.66406 49.4062 9.44531C48.625 10.2188 47.7266 10.8789 46.7109 11.4258C45.6953 11.9648 44.6016 12.3594 43.4297 12.6094L42.2812 10.4297C43.7031 10.1719 44.9922 9.67188 46.1484 8.92969C47.3125 8.17969 48.2227 7.28906 48.8789 6.25781C49.543 5.22656 49.875 4.17188 49.875 3.09375V1.52344H52.6406V3.09375ZM41.6953 16.5234H61.0547V18.6797H41.6953V16.5234ZM87.4688 14.1797H82.7578V21.375H80.1094V14.1797H75.4219V21.375H72.75V14.1797H68.1094V12.0703H87.4688V14.1797ZM70.1484 5.67188C70.1484 4.72656 70.4648 3.89844 71.0977 3.1875C71.7305 2.46875 72.6211 1.91406 73.7695 1.52344C74.9258 1.13281 76.25 0.9375 77.7422 0.9375C79.2422 0.9375 80.5664 1.13281 81.7148 1.52344C82.8711 1.91406 83.7695 2.46875 84.4102 3.1875C85.0586 3.89844 85.3828 4.72656 85.3828 5.67188C85.3828 6.60938 85.0586 7.42969 84.4102 8.13281C83.7695 8.82812 82.8711 9.36719 81.7148 9.75C80.5664 10.125 79.2422 10.3125 77.7422 10.3125C76.2422 10.3125 74.918 10.125 73.7695 9.75C72.6211 9.36719 71.7305 8.82812 71.0977 8.13281C70.4648 7.42969 70.1484 6.60938 70.1484 5.67188ZM72.8203 5.67188C72.8203 6.20312 73.0195 6.66406 73.418 7.05469C73.8242 7.4375 74.3984 7.73438 75.1406 7.94531C75.8828 8.14844 76.75 8.25 77.7422 8.25C78.7422 8.25 79.6133 8.14844 80.3555 7.94531C81.0977 7.73438 81.6719 7.4375 82.0781 7.05469C82.4844 6.66406 82.6875 6.20312 82.6875 5.67188C82.6875 5.125 82.4844 4.65625 82.0781 4.26562C81.6719 3.86719 81.0977 3.56641 80.3555 3.36328C79.6133 3.15234 78.7422 3.04688 77.7422 3.04688C76.75 3.04688 75.8828 3.15234 75.1406 3.36328C74.3984 3.56641 73.8242 3.86719 73.418 4.26562C73.0195 4.65625 72.8203 5.125 72.8203 5.67188ZM100.758 4.35938H88.9219V2.29688H93.6562V0H96.2578V2.29688H100.758V4.35938ZM90.0234 9.16406C90.0234 8.38281 90.2266 7.69531 90.6328 7.10156C91.0469 6.5 91.625 6.03516 92.3672 5.70703C93.1172 5.37109 93.9688 5.20312 94.9219 5.20312C95.875 5.20312 96.7266 5.37109 97.4766 5.70703C98.2344 6.03516 98.8242 6.5 99.2461 7.10156C99.6758 7.70312 99.8906 8.39062 99.8906 9.16406C99.8906 9.9375 99.6758 10.6211 99.2461 11.2148C98.8242 11.8086 98.2344 12.2695 97.4766 12.5977C96.7266 12.918 95.875 13.0781 94.9219 13.0781C93.9609 13.0781 93.1094 12.918 92.3672 12.5977C91.625 12.2695 91.0469 11.8086 90.6328 11.2148C90.2266 10.6211 90.0234 9.9375 90.0234 9.16406ZM92.25 17.6719C92.25 16.8984 92.5391 16.2383 93.1172 15.6914C93.7031 15.1367 94.5391 14.7148 95.625 14.4258C96.7109 14.1367 98 13.9922 99.4922 13.9922C100.977 13.9922 102.262 14.1367 103.348 14.4258C104.434 14.7148 105.27 15.1367 105.855 15.6914C106.441 16.2383 106.734 16.8984 106.734 17.6719C106.734 18.4297 106.441 19.0859 105.855 19.6406C105.27 20.1953 104.434 20.6172 103.348 20.9062C102.262 21.2031 100.977 21.3516 99.4922 21.3516C98.0078 21.3516 96.7188 21.2031 95.625 20.9062C94.5391 20.6172 93.7031 20.1953 93.1172 19.6406C92.5391 19.0859 92.25 18.4297 92.25 17.6719ZM92.4609 9.16406C92.4531 9.78125 92.6719 10.2656 93.1172 10.6172C93.5625 10.9609 94.1641 11.1328 94.9219 11.1328C95.6875 11.1328 96.3008 10.957 96.7617 10.6055C97.2227 10.2539 97.4531 9.77344 97.4531 9.16406C97.4531 8.53906 97.2188 8.04688 96.75 7.6875C96.2891 7.32812 95.6797 7.14844 94.9219 7.14844C94.1641 7.14844 93.5625 7.32812 93.1172 7.6875C92.6719 8.04688 92.4531 8.53906 92.4609 9.16406ZM94.9922 17.6719C94.9844 18.2109 95.3633 18.6289 96.1289 18.9258C96.9023 19.2148 97.9961 19.3594 99.4102 19.3594C100.871 19.3594 101.992 19.2188 102.773 18.9375C103.555 18.6484 103.945 18.2266 103.945 17.6719C103.945 17.1172 103.562 16.6992 102.797 16.418C102.031 16.1289 100.93 15.9844 99.4922 15.9844C98.0469 15.9844 96.9336 16.1289 96.1523 16.418C95.3711 16.6992 94.9844 17.1172 94.9922 17.6719ZM100.875 9.1875H104.016V7.10156H100.898V4.99219H104.016V0.1875H106.617V13.7578H104.016V11.2734H100.875V9.1875Z" fill="black"/>
</svg>
