<svg width="89" height="18" viewBox="0 0 89 18" fill="none" xmlns="http://www.w3.org/2000/svg">
<path d="M6.97266 4.02344C6.97917 5.16927 7.13867 6.26302 7.45117 7.30469C7.76367 8.34635 8.24219 9.27083 8.88672 10.0781C9.53776 10.8789 10.3385 11.4844 11.2891 11.8945L9.76562 13.8867C8.80208 13.418 7.98177 12.7637 7.30469 11.9238C6.63411 11.0775 6.10677 10.0879 5.72266 8.95508C5.32552 10.166 4.77865 11.224 4.08203 12.1289C3.38542 13.0273 2.54557 13.7174 1.5625 14.1992L0 12.168C0.976562 11.7253 1.79688 11.0807 2.46094 10.2344C3.13151 9.38802 3.62956 8.43099 3.95508 7.36328C4.2806 6.28906 4.44661 5.17578 4.45312 4.02344V1.36719H6.97266V4.02344ZM9.29688 5.58594H12.793V0H15.2539V17.8125H12.793V7.59766H9.29688V5.58594ZM32.4219 17.8125H29.9023V0H32.4219V17.8125ZM18.418 1.40625H20.918V5.74219H24.7461V1.40625H27.207V13.6523H18.418V1.40625ZM24.7461 11.6406V7.67578H20.918V11.6406H24.7461ZM44.1797 2.34375C44.1732 3.22917 44.4238 4.09831 44.9316 4.95117C45.4395 5.79753 46.1719 6.5332 47.1289 7.1582C48.0859 7.77669 49.2122 8.19661 50.5078 8.41797L49.4141 10.4883C47.8906 10.1888 46.5625 9.63216 45.4297 8.81836C44.3034 7.99805 43.4473 7.00846 42.8613 5.84961C42.2624 7.00195 41.3965 7.98828 40.2637 8.80859C39.1374 9.6224 37.819 10.1823 36.3086 10.4883L35.2344 8.41797C36.5039 8.1901 37.6139 7.76367 38.5645 7.13867C39.515 6.51367 40.2441 5.77799 40.752 4.93164C41.2598 4.07878 41.5169 3.21615 41.5234 2.34375V1.05469H44.1797V2.34375ZM34.8242 13.5352H51.0938V15.5859H34.8242V13.5352ZM63.6133 4.84375C63.6068 5.82682 63.7728 6.79362 64.1113 7.74414C64.4499 8.68815 64.9544 9.54102 65.625 10.3027C66.2956 11.0579 67.1094 11.6341 68.0664 12.0312L66.7188 13.9844C65.7031 13.5547 64.8307 12.9264 64.1016 12.0996C63.3724 11.2663 62.7995 10.293 62.3828 9.17969C61.9661 10.3841 61.3867 11.4453 60.6445 12.3633C59.9089 13.2747 59.0299 13.9648 58.0078 14.4336L56.582 12.4609C57.5326 12.0378 58.3431 11.4225 59.0137 10.6152C59.6908 9.80794 60.1986 8.90299 60.5371 7.90039C60.8822 6.89128 61.0547 5.8724 61.0547 4.84375V3.75H57.2852V1.71875H67.3242V3.75H63.6133V4.84375ZM69.082 0H71.6016V17.7734H69.082V0ZM88.9844 17.7734H86.5039V13.2617H76.7773V11.3086H88.9844V17.7734ZM74.2383 5.29297C74.2318 4.47266 74.4303 3.73372 74.834 3.07617C75.2441 2.41211 75.8073 1.89453 76.5234 1.52344C77.2396 1.14583 78.0404 0.957031 78.9258 0.957031C79.6484 0.957031 80.319 1.08073 80.9375 1.32812C81.556 1.57552 82.0801 1.92708 82.5098 2.38281H86.5039V0H88.9844V10.5078H86.5039V8.26172H82.5098C82.0801 8.72396 81.5592 9.08203 80.9473 9.33594C80.3353 9.58984 79.6745 9.72005 78.9648 9.72656C78.0729 9.72656 77.2656 9.53776 76.543 9.16016C75.8203 8.77604 75.2539 8.2487 74.8438 7.57812C74.4336 6.90104 74.2318 6.13932 74.2383 5.29297ZM76.6016 5.29297C76.6016 5.76823 76.6992 6.18164 76.8945 6.5332C77.0964 6.87826 77.3763 7.14193 77.7344 7.32422C78.0924 7.50651 78.5026 7.59766 78.9648 7.59766C79.401 7.59766 79.7949 7.50651 80.1465 7.32422C80.498 7.14193 80.7747 6.87826 80.9766 6.5332C81.1849 6.18164 81.2891 5.76823 81.2891 5.29297C81.2891 4.84375 81.1849 4.44987 80.9766 4.11133C80.7747 3.76628 80.498 3.5026 80.1465 3.32031C79.7949 3.13802 79.401 3.04688 78.9648 3.04688C78.5026 3.04688 78.0924 3.13802 77.7344 3.32031C77.3763 3.5026 77.0964 3.76302 76.8945 4.10156C76.6992 4.4401 76.6016 4.83724 76.6016 5.29297ZM86.5039 6.26953V4.39453H83.5547C83.6198 4.66146 83.6523 4.96094 83.6523 5.29297C83.6523 5.61849 83.6165 5.94401 83.5449 6.26953H86.5039Z" fill="#00273E"/>
</svg>
