<svg width="150" height="14" viewBox="0 0 150 14" fill="none" xmlns="http://www.w3.org/2000/svg">
<path d="M4.80469 3.45703C4.80469 4.25293 4.94385 5.03418 5.22217 5.80078C5.50537 6.5625 5.90088 7.23877 6.40869 7.82959C6.9165 8.42041 7.5 8.8623 8.15918 9.15527L7.30957 10.2686C6.57715 9.89746 5.93506 9.36279 5.3833 8.66455C4.83154 7.96143 4.40918 7.15576 4.11621 6.24756C3.82324 7.20947 3.396 8.06641 2.83447 8.81836C2.27783 9.56543 1.62598 10.1318 0.878906 10.5176L0 9.38965C0.664062 9.07227 1.25244 8.60352 1.76514 7.9834C2.28271 7.3584 2.68311 6.65039 2.96631 5.85938C3.25439 5.06348 3.39844 4.2627 3.39844 3.45703V1.21582H4.80469V3.45703ZM6.70898 4.48242H9.63867V0.117188H11.0156V13.2715H9.63867V5.61035H6.70898V4.48242ZM23.9062 13.2715H22.5146V0.117188H23.9062V13.2715ZM13.7695 1.21582H15.1611V4.58496H18.6914V1.21582H20.0684V10.1221H13.7695V1.21582ZM18.6914 8.97949V5.68359H15.1611V8.97949H18.6914ZM32.666 1.97754C32.666 2.6709 32.8882 3.34473 33.3325 3.99902C33.7769 4.65332 34.3677 5.2124 35.105 5.67627C35.8472 6.13525 36.6357 6.44043 37.4707 6.5918L36.8262 7.74902C36.123 7.59766 35.4517 7.34863 34.812 7.00195C34.1724 6.65527 33.6035 6.23291 33.1055 5.73486C32.6123 5.23193 32.2266 4.67773 31.9482 4.07227C31.665 4.67285 31.2744 5.22461 30.7764 5.72754C30.2783 6.22559 29.7095 6.64795 29.0698 6.99463C28.4302 7.34131 27.7588 7.59277 27.0557 7.74902L26.4404 6.5918C27.2656 6.43555 28.042 6.12793 28.7695 5.66895C29.502 5.20508 30.0903 4.64844 30.5347 3.99902C30.979 3.34473 31.2012 2.6709 31.2012 1.97754V0.981445H32.666V1.97754ZM26.001 10.3564H38.0127V11.5137H26.001V10.3564ZM54.624 8.67188H51.5771V13.2422H50.1709V8.67188H47.0361V13.2422H45.6006V8.67188H42.6123V7.5293H54.624V8.67188ZM43.916 3.51562C43.916 2.93457 44.1113 2.42432 44.502 1.98486C44.8975 1.54541 45.4468 1.2085 46.1499 0.974121C46.8579 0.734863 47.6709 0.615234 48.5889 0.615234C49.5068 0.615234 50.3198 0.734863 51.0278 0.974121C51.7358 1.2085 52.2852 1.54541 52.6758 1.98486C53.0664 2.42432 53.2617 2.93457 53.2617 3.51562C53.2617 4.0918 53.0664 4.59473 52.6758 5.02441C52.2852 5.4541 51.7358 5.78613 51.0278 6.02051C50.3198 6.25 49.5068 6.3623 48.5889 6.35742C47.6709 6.3623 46.8579 6.25 46.1499 6.02051C45.4468 5.78613 44.8975 5.4541 44.502 5.02441C44.1113 4.59473 43.916 4.0918 43.916 3.51562ZM45.3516 3.51562C45.3516 3.87207 45.4834 4.18213 45.7471 4.4458C46.0156 4.70459 46.394 4.90479 46.8823 5.04639C47.3755 5.18799 47.9443 5.25879 48.5889 5.25879C49.2383 5.25879 49.8071 5.18799 50.2954 5.04639C50.7837 4.90479 51.1621 4.70459 51.4307 4.4458C51.7041 4.18213 51.8408 3.87207 51.8408 3.51562C51.8408 3.14941 51.7041 2.83447 51.4307 2.5708C51.1621 2.30225 50.7837 2.09473 50.2954 1.94824C49.8071 1.80176 49.2383 1.72852 48.5889 1.72852C47.9395 1.72852 47.3706 1.80176 46.8823 1.94824C46.394 2.09473 46.0156 2.30225 45.7471 2.5708C45.4834 2.83936 45.3516 3.1543 45.3516 3.51562ZM62.9883 2.60742H55.6055V1.49414H58.6816V0H60.0586V1.49414H62.9883V2.60742ZM56.3379 5.6543C56.3379 5.1709 56.4648 4.74609 56.7188 4.37988C56.9727 4.00879 57.3267 3.7207 57.7808 3.51562C58.2397 3.31055 58.7646 3.20801 59.3555 3.20801C59.9414 3.20801 60.4639 3.31055 60.9229 3.51562C61.3818 3.7207 61.7407 4.00879 61.9995 4.37988C62.2583 4.75098 62.3877 5.17578 62.3877 5.6543C62.3877 6.13281 62.2583 6.55762 61.9995 6.92871C61.7407 7.29492 61.3818 7.58057 60.9229 7.78564C60.4639 7.98584 59.9414 8.08594 59.3555 8.08594C58.7646 8.08594 58.2397 7.98584 57.7808 7.78564C57.3267 7.58057 56.9727 7.29492 56.7188 6.92871C56.4648 6.5625 56.3379 6.1377 56.3379 5.6543ZM57.6416 5.6543C57.6416 5.93262 57.71 6.17676 57.8467 6.38672C57.9883 6.5918 58.186 6.75049 58.4399 6.86279C58.6938 6.9751 58.9917 7.03125 59.3335 7.03125C59.8608 7.03125 60.2856 6.90918 60.6079 6.66504C60.9302 6.41602 61.0938 6.0791 61.0986 5.6543C61.0938 5.37598 61.0181 5.13184 60.8716 4.92188C60.7251 4.71191 60.52 4.55078 60.2563 4.43848C59.9976 4.32129 59.6973 4.2627 59.3555 4.2627C59.0137 4.2627 58.7109 4.32129 58.4473 4.43848C58.1885 4.55078 57.9883 4.71191 57.8467 4.92188C57.71 5.13184 57.6416 5.37598 57.6416 5.6543ZM57.7148 10.957C57.7148 10.4834 57.8906 10.0781 58.2422 9.74121C58.5986 9.4043 59.1113 9.14795 59.7803 8.97217C60.4492 8.7915 61.2451 8.70117 62.168 8.70117C63.0811 8.70117 63.8696 8.7915 64.5337 8.97217C65.2026 9.14795 65.7153 9.4043 66.0718 9.74121C66.4282 10.0781 66.6064 10.4834 66.6064 10.957C66.6064 11.4307 66.4282 11.8359 66.0718 12.1729C65.7153 12.5146 65.2026 12.7734 64.5337 12.9492C63.8696 13.125 63.0811 13.2129 62.168 13.2129C61.2451 13.2129 60.4492 13.125 59.7803 12.9492C59.1113 12.7734 58.5986 12.5146 58.2422 12.1729C57.8906 11.8359 57.7148 11.4307 57.7148 10.957ZM59.165 10.957C59.1602 11.3379 59.4214 11.6333 59.9487 11.8433C60.481 12.0532 61.2207 12.1533 62.168 12.1436C63.0957 12.1533 63.8208 12.0532 64.3433 11.8433C64.8657 11.6333 65.127 11.3379 65.127 10.957C65.127 10.5762 64.8657 10.2832 64.3433 10.0781C63.8257 9.87305 63.1006 9.77051 62.168 9.77051C61.2158 9.77051 60.4761 9.87305 59.9487 10.0781C59.4214 10.2832 59.1602 10.5762 59.165 10.957ZM63.0176 5.75684H65.1416V4.30664H63.0322V3.17871H65.1416V0.117188H66.5332V8.56934H65.1416V6.88477H63.0176V5.75684ZM74.5312 0.336914C75.5176 0.336914 76.3599 0.422363 77.0581 0.593262C77.7563 0.76416 78.291 1.02051 78.6621 1.3623C79.0332 1.69922 79.2188 2.10938 79.2188 2.59277C79.2188 3.08105 79.0332 3.49609 78.6621 3.83789C78.291 4.1748 77.7563 4.43115 77.0581 4.60693C76.3599 4.77783 75.5176 4.86328 74.5312 4.86328C73.5449 4.86328 72.7002 4.77783 71.9971 4.60693C71.2988 4.43115 70.7642 4.1748 70.3931 3.83789C70.0269 3.49609 69.8438 3.08105 69.8438 2.59277C69.8438 2.10938 70.0269 1.69922 70.3931 1.3623C70.7642 1.02051 71.2988 0.76416 71.9971 0.593262C72.7002 0.422363 73.5449 0.336914 74.5312 0.336914ZM68.5547 5.66895H80.5225V6.78223H68.5547V5.66895ZM69.9902 7.79297H79.0137V10.8691H71.3672V12.041H79.3799V13.1104H70.0049V9.8584H77.6367V8.83301H69.9902V7.79297ZM71.2939 2.59277C71.2891 2.99805 71.5649 3.30566 72.1216 3.51562C72.6782 3.7207 73.4814 3.82324 74.5312 3.82324C75.5908 3.82324 76.3989 3.7207 76.9556 3.51562C77.5122 3.30566 77.7881 2.99805 77.7832 2.59277C77.7881 2.20215 77.5073 1.89941 76.9409 1.68457C76.3794 1.46973 75.5762 1.3623 74.5312 1.3623C73.4912 1.3623 72.6904 1.46973 72.1289 1.68457C71.5674 1.89941 71.2891 2.20215 71.2939 2.59277ZM89.8096 2.51953C89.8145 3.11523 89.9438 3.69141 90.1978 4.24805C90.4517 4.7998 90.8154 5.29053 91.2891 5.72021C91.7676 6.1499 92.3291 6.47949 92.9736 6.70898L92.2119 7.79297C91.5039 7.51953 90.8862 7.12402 90.3589 6.60645C89.8315 6.08887 89.4263 5.48828 89.1431 4.80469C88.855 5.57129 88.4351 6.24023 87.8833 6.81152C87.3315 7.37793 86.6748 7.80762 85.9131 8.10059L85.166 7.00195C85.835 6.7627 86.4136 6.41602 86.9019 5.96191C87.395 5.50293 87.771 4.97314 88.0298 4.37256C88.2935 3.76709 88.4277 3.13477 88.4326 2.47559V0.922852H89.8096V2.51953ZM87.5537 8.81836H88.96V11.8359H96.416V12.9639H87.5537V8.81836ZM91.9629 3.12012H94.7314V0.131836H96.123V9.91699H94.7314V4.2627H91.9629V3.12012ZM103.813 2.18262H100.02V3.64746H103.667V4.7168H100.02V6.31348C100.947 6.30371 101.726 6.27686 102.356 6.23291C102.991 6.18408 103.633 6.09863 104.282 5.97656L104.414 7.11914C103.711 7.25098 103.022 7.34131 102.349 7.39014C101.68 7.43408 100.85 7.45605 99.8584 7.45605H99.5361H98.6865V1.05469H103.813V2.18262ZM100.415 8.73047H109.336V13.2422H107.959V9.8584H100.415V8.73047ZM105.103 0.366211H106.406V3.47168H108.018V0.131836H109.336V8.10059H108.018V4.59961H106.406V7.99805H105.103V0.366211ZM121.333 5.43457H123.442V6.5918H121.333V13.2422H119.956V0.117188H121.333V5.43457ZM111.035 2.16797H114.272V0.292969H115.664V2.16797H118.813V3.31055H111.035V2.16797ZM111.709 7.32422C111.709 6.73828 111.848 6.21338 112.126 5.74951C112.41 5.28564 112.798 4.92432 113.291 4.66553C113.789 4.40674 114.351 4.27734 114.976 4.27734C115.596 4.27734 116.152 4.40674 116.646 4.66553C117.144 4.92432 117.534 5.28564 117.817 5.74951C118.101 6.21338 118.242 6.73828 118.242 7.32422C118.242 7.91504 118.101 8.44238 117.817 8.90625C117.534 9.37012 117.144 9.73389 116.646 9.99756C116.152 10.2563 115.596 10.3857 114.976 10.3857C114.351 10.3857 113.789 10.2563 113.291 9.99756C112.798 9.73389 112.41 9.37012 112.126 8.90625C111.848 8.44238 111.709 7.91504 111.709 7.32422ZM113.042 7.32422C113.042 7.7002 113.123 8.03223 113.284 8.32031C113.45 8.6084 113.679 8.83057 113.972 8.98682C114.27 9.14307 114.604 9.21875 114.976 9.21387C115.342 9.21875 115.671 9.14307 115.964 8.98682C116.257 8.83057 116.487 8.6084 116.653 8.32031C116.824 8.03223 116.909 7.7002 116.909 7.32422C116.909 6.95801 116.824 6.63086 116.653 6.34277C116.487 6.05469 116.257 5.83008 115.964 5.66895C115.671 5.50293 115.342 5.41992 114.976 5.41992C114.604 5.41992 114.27 5.50293 113.972 5.66895C113.679 5.83008 113.45 6.05469 113.284 6.34277C113.123 6.63086 113.042 6.95801 113.042 7.32422ZM128.071 3.70605C128.071 4.41895 128.171 5.12451 128.372 5.82275C128.572 6.51611 128.87 7.15088 129.265 7.72705C129.661 8.30322 130.142 8.76465 130.708 9.11133L129.932 10.1807C129.336 9.82422 128.826 9.33838 128.401 8.72314C127.981 8.10303 127.654 7.3999 127.419 6.61377C127.175 7.46826 126.826 8.22998 126.372 8.89893C125.923 9.56787 125.386 10.0928 124.761 10.4736L123.896 9.43359C124.497 9.07227 125.01 8.59131 125.435 7.99072C125.864 7.39014 126.187 6.72607 126.401 5.99854C126.621 5.26611 126.729 4.52148 126.724 3.76465V1.31836H128.071V3.70605ZM129.287 4.73145H131.323V0.366211H132.642V12.5977H131.323V5.88867H129.287V4.73145ZM134.033 0.117188H135.366V13.2422H134.033V0.117188ZM149.048 11.6016H137.036V10.4443H139.907V7.0166C139.355 6.71387 138.928 6.33057 138.625 5.8667C138.323 5.40283 138.174 4.88281 138.179 4.30664C138.179 3.62793 138.384 3.02979 138.794 2.51221C139.204 1.99463 139.775 1.59424 140.508 1.31104C141.245 1.02295 142.08 0.878906 143.013 0.878906C143.945 0.878906 144.78 1.02295 145.518 1.31104C146.255 1.59424 146.829 1.99463 147.239 2.51221C147.654 3.02979 147.861 3.62793 147.861 4.30664C147.861 4.87793 147.715 5.39307 147.422 5.85205C147.129 6.30615 146.714 6.68457 146.177 6.9873V10.4443H149.048V11.6016ZM139.526 4.30664C139.526 4.77051 139.673 5.17822 139.966 5.52979C140.259 5.88135 140.669 6.15479 141.196 6.3501C141.724 6.54053 142.329 6.63574 143.013 6.63574C143.691 6.63574 144.294 6.53809 144.822 6.34277C145.354 6.14746 145.769 5.87646 146.067 5.52979C146.365 5.17822 146.514 4.77051 146.514 4.30664C146.514 3.84277 146.365 3.4375 146.067 3.09082C145.769 2.73926 145.354 2.46826 144.822 2.27783C144.294 2.0874 143.691 1.99219 143.013 1.99219C142.329 1.99219 141.724 2.0874 141.196 2.27783C140.669 2.46826 140.259 2.73926 139.966 3.09082C139.673 3.4375 139.526 3.84277 139.526 4.30664ZM144.771 10.4443V7.5293C144.224 7.65625 143.638 7.71973 143.013 7.71973C142.397 7.71973 141.821 7.65625 141.284 7.5293V10.4443H144.771Z" fill="black"/>
</svg>
