<svg width="34" height="18" viewBox="0 0 34 18" fill="none" xmlns="http://www.w3.org/2000/svg">
<path d="M6.69922 4.23828C6.69271 5.34505 6.86198 6.41276 7.20703 7.44141C7.55208 8.47005 8.05339 9.38477 8.71094 10.1855C9.375 10.9798 10.1628 11.5755 11.0742 11.9727L9.76562 13.7109C8.78906 13.2357 7.94922 12.5521 7.24609 11.6602C6.54297 10.7682 5.99935 9.72982 5.61523 8.54492C5.2181 9.80143 4.6582 10.9082 3.93555 11.8652C3.21289 12.8158 2.35677 13.5417 1.36719 14.043L0 12.2852C0.93099 11.849 1.73503 11.2109 2.41211 10.3711C3.08919 9.53125 3.60352 8.57747 3.95508 7.50977C4.30664 6.44206 4.48568 5.35156 4.49219 4.23828V1.42578H6.69922V4.23828ZM9.12109 5.70312H12.832V0H14.9805V17.6758H12.832V7.46094H9.12109V5.70312ZM25.4883 0.175781C26.8294 0.175781 27.9753 0.296224 28.9258 0.537109C29.8763 0.771484 30.6022 1.11328 31.1035 1.5625C31.6048 2.01172 31.8555 2.55859 31.8555 3.20312C31.8555 3.85417 31.6048 4.40755 31.1035 4.86328C30.6022 5.31901 29.8763 5.66406 28.9258 5.89844C27.9753 6.1263 26.8294 6.24349 25.4883 6.25C24.1471 6.24349 23.0013 6.1263 22.0508 5.89844C21.1003 5.66406 20.3743 5.31901 19.873 4.86328C19.3717 4.40755 19.1211 3.85417 19.1211 3.20312C19.1211 2.55859 19.3717 2.01172 19.873 1.5625C20.3743 1.11328 21.1003 0.771484 22.0508 0.537109C23.0078 0.296224 24.1536 0.175781 25.4883 0.175781ZM17.4609 7.16797H33.5547V8.86719H26.5625V10.2148H31.543V14.5312H21.5039V15.8398H32.0312V17.5H19.375V12.9883H29.4141V11.8164H19.3555V10.2148H24.3945V8.86719H17.4609V7.16797ZM21.4062 3.20312C21.3997 3.6849 21.7383 4.04297 22.4219 4.27734C23.1055 4.51172 24.1276 4.63542 25.4883 4.64844C26.8685 4.63542 27.9004 4.51172 28.584 4.27734C29.2676 4.04297 29.6094 3.6849 29.6094 3.20312C29.6094 2.7474 29.2611 2.40234 28.5645 2.16797C27.8743 1.92708 26.849 1.80339 25.4883 1.79688C24.1471 1.80339 23.1283 1.92708 22.4316 2.16797C21.7415 2.40234 21.3997 2.7474 21.4062 3.20312Z" fill="black"/>
</svg>
