<svg width="34" height="18" viewBox="0 0 34 18" fill="none" xmlns="http://www.w3.org/2000/svg">
<path d="M5.80078 4.62891C5.80729 5.61849 5.92773 6.57878 6.16211 7.50977C6.40299 8.44076 6.77409 9.29362 7.27539 10.0684C7.77669 10.8431 8.41146 11.4714 9.17969 11.9531L7.98828 13.6133C7.22005 13.151 6.56901 12.5326 6.03516 11.7578C5.5013 10.9831 5.08138 10.0944 4.77539 9.0918C4.44987 10.1921 3.9974 11.1654 3.41797 12.0117C2.84505 12.8581 2.15495 13.5286 1.34766 14.0234L0 12.4023C0.826823 11.901 1.51693 11.2467 2.07031 10.4395C2.6237 9.62565 3.03385 8.73047 3.30078 7.75391C3.56771 6.77083 3.70443 5.76172 3.71094 4.72656V1.5625H5.80078V4.62891ZM7.28516 6.07422H9.80469V0.3125H11.8555V16.7969H9.80469V7.87109H7.28516V6.07422ZM13.4375 0H15.5273V17.6562H13.4375V0ZM26.6797 8.55469H33.6719V10.3125H17.5781V8.55469H24.5312V6.30859H26.6797V8.55469ZM18.3398 5.56641C19.401 5.46224 20.3418 5.26367 21.1621 4.9707C21.9889 4.67122 22.6497 4.3099 23.1445 3.88672C23.6458 3.46354 23.9583 3.00781 24.082 2.51953H19.043V0.78125H32.2266V2.51953H27.1387C27.2624 3.0013 27.5716 3.45703 28.0664 3.88672C28.5677 4.3099 29.2318 4.67122 30.0586 4.9707C30.8919 5.26367 31.8424 5.46224 32.9102 5.56641L32.1289 7.26562C30.5339 7.10286 29.1667 6.72526 28.0273 6.13281C26.8945 5.54036 26.0872 4.79818 25.6055 3.90625C25.1237 4.80469 24.3164 5.55013 23.1836 6.14258C22.0508 6.72852 20.6901 7.10286 19.1016 7.26562L18.3398 5.56641ZM19.4531 14.5312C19.4531 13.8737 19.6973 13.3171 20.1855 12.8613C20.6738 12.3991 21.377 12.0475 22.2949 11.8066C23.2194 11.5658 24.3229 11.4453 25.6055 11.4453C26.8815 11.4453 27.9753 11.5658 28.8867 11.8066C29.7982 12.0475 30.498 12.3991 30.9863 12.8613C31.4746 13.3171 31.7188 13.8737 31.7188 14.5312C31.7188 15.1953 31.4746 15.7585 30.9863 16.2207C30.5046 16.6829 29.8047 17.0345 28.8867 17.2754C27.9753 17.5163 26.8815 17.6367 25.6055 17.6367C24.3229 17.6367 23.2194 17.5163 22.2949 17.2754C21.377 17.0345 20.6738 16.6829 20.1855 16.2207C19.6973 15.7585 19.4531 15.1953 19.4531 14.5312ZM21.6602 14.5312C21.6536 15.013 21.9824 15.3776 22.6465 15.625C23.3171 15.8724 24.3034 15.9961 25.6055 15.9961C26.8815 15.9961 27.8548 15.8724 28.5254 15.625C29.2025 15.3776 29.5443 15.013 29.5508 14.5312C29.5443 14.0625 29.2057 13.7109 28.5352 13.4766C27.8646 13.2357 26.888 13.112 25.6055 13.1055C24.3034 13.112 23.3171 13.2357 22.6465 13.4766C21.9824 13.7109 21.6536 14.0625 21.6602 14.5312Z" fill="black"/>
</svg>
