<svg width="59" height="22" viewBox="0 0 59 22" fill="none" xmlns="http://www.w3.org/2000/svg">
<path d="M17.4609 15.5625H14.8594V10.3125H9.80859C9.30078 10.8828 8.68359 11.3281 7.95703 11.6484C7.23047 11.9688 6.44531 12.1328 5.60156 12.1406C4.54688 12.1406 3.59375 11.9062 2.74219 11.4375C1.89062 10.9688 1.21875 10.3242 0.726562 9.50391C0.242188 8.67578 0 7.75 0 6.72656C0 5.6875 0.242188 4.75781 0.726562 3.9375C1.21875 3.10937 1.89062 2.46094 2.74219 1.99219C3.59375 1.52344 4.54688 1.28906 5.60156 1.28906C6.4375 1.29688 7.21875 1.45703 7.94531 1.76953C8.67188 2.08203 9.28906 2.52344 9.79688 3.09375H14.8594V0.0234375H17.4609V15.5625ZM2.48438 6.72656C2.48438 7.34375 2.61719 7.88672 2.88281 8.35547C3.14844 8.82422 3.51562 9.1875 3.98438 9.44531C4.46094 9.69531 5 9.82031 5.60156 9.82031C6.17969 9.82031 6.69922 9.69531 7.16016 9.44531C7.62891 9.1875 7.99609 8.82422 8.26172 8.35547C8.53516 7.88672 8.67188 7.34375 8.67188 6.72656C8.67188 6.10938 8.53516 5.56641 8.26172 5.09766C7.99609 4.62109 7.62891 4.25391 7.16016 3.99609C6.69922 3.73828 6.17969 3.60938 5.60156 3.60938C5 3.60938 4.46094 3.73828 3.98438 3.99609C3.51562 4.25391 3.14844 4.61719 2.88281 5.08594C2.61719 5.55469 2.48438 6.10156 2.48438 6.72656ZM3.5625 13.9688H6.16406V18.6562H18V20.7656H3.5625V13.9688ZM10.9453 5.20312C11.0859 5.72656 11.1562 6.23438 11.1562 6.72656C11.1562 7.22656 11.0898 7.71875 10.957 8.20312H14.8594V5.20312H10.9453ZM30.9375 7.5H23.8828V9.86719C25.8047 9.85156 27.4336 9.80078 28.7695 9.71484C30.1133 9.62891 31.4688 9.46875 32.8359 9.23438L33.1172 11.3203C31.6406 11.5781 30.1719 11.7578 28.7109 11.8594C27.2578 11.9531 25.5117 12 23.4727 12H23.0156H21.2812V5.48438H28.3828V3.32812H21.2578V1.21875H30.9375V7.5ZM23.0625 13.8984H37.1719V21.1641H34.5703V15.9844H23.0625V13.8984ZM34.5703 0.0234375H37.1719V5.20312H40.1484V7.35938H37.1719V12.8906H34.5703V0.0234375ZM58.9688 21.2109H56.3672V10.3828H52.2656V8.27344H56.3672V0H58.9688V21.2109ZM41.1562 15.1641C42.2266 14.6797 43.1523 13.9883 43.9336 13.0898C44.7148 12.1914 45.3086 11.1875 45.7148 10.0781C46.1289 8.96875 46.3359 7.85156 46.3359 6.72656V5.625H41.7891V3.53906H46.3594V0.445312H48.9609V3.53906H53.3906V5.625H48.9375V6.72656C48.9297 7.80469 49.1328 8.875 49.5469 9.9375C49.9688 11 50.5742 11.9609 51.3633 12.8203C52.1602 13.6797 53.1016 14.3516 54.1875 14.8359L52.7812 16.8281C51.6016 16.3281 50.5742 15.582 49.6992 14.5898C48.8242 13.5898 48.1445 12.4414 47.6602 11.1445C47.1836 12.5273 46.5078 13.7461 45.6328 14.8008C44.7656 15.8555 43.7422 16.6484 42.5625 17.1797L41.1562 15.1641Z" fill="black"/>
</svg>
