<svg width="34" height="18" viewBox="0 0 34 18" fill="none" xmlns="http://www.w3.org/2000/svg">
<path d="M8.02734 0.175781C9.36849 0.175781 10.5143 0.296224 11.4648 0.537109C12.4154 0.771484 13.1413 1.11328 13.6426 1.5625C14.1439 2.01172 14.3945 2.55859 14.3945 3.20312C14.3945 3.85417 14.1439 4.40755 13.6426 4.86328C13.1413 5.31901 12.4154 5.66406 11.4648 5.89844C10.5143 6.1263 9.36849 6.24349 8.02734 6.25C6.6862 6.24349 5.54036 6.1263 4.58984 5.89844C3.63932 5.66406 2.91341 5.31901 2.41211 4.86328C1.91081 4.40755 1.66016 3.85417 1.66016 3.20312C1.66016 2.55859 1.91081 2.01172 2.41211 1.5625C2.91341 1.11328 3.63932 0.771484 4.58984 0.537109C5.54688 0.296224 6.69271 0.175781 8.02734 0.175781ZM0 7.16797H16.0938V8.86719H9.10156V10.2148H14.082V14.5312H4.04297V15.8398H14.5703V17.5H1.91406V12.9883H11.9531V11.8164H1.89453V10.2148H6.93359V8.86719H0V7.16797ZM3.94531 3.20312C3.9388 3.6849 4.27734 4.04297 4.96094 4.27734C5.64453 4.51172 6.66667 4.63542 8.02734 4.64844C9.40755 4.63542 10.4395 4.51172 11.123 4.27734C11.8066 4.04297 12.1484 3.6849 12.1484 3.20312C12.1484 2.7474 11.8001 2.40234 11.1035 2.16797C10.4134 1.92708 9.38802 1.80339 8.02734 1.79688C6.6862 1.80339 5.66732 1.92708 4.9707 2.16797C4.2806 2.40234 3.9388 2.7474 3.94531 3.20312ZM23.6133 3.125C23.6068 3.90625 23.763 4.6582 24.082 5.38086C24.4076 6.09701 24.8893 6.73177 25.5273 7.28516C26.1654 7.83854 26.9336 8.26172 27.832 8.55469L26.6992 10.2734C25.7422 9.94792 24.9121 9.4694 24.209 8.83789C23.5124 8.19987 22.9688 7.44792 22.5781 6.58203C22.181 7.53906 21.6178 8.36589 20.8887 9.0625C20.1595 9.75911 19.2904 10.2865 18.2812 10.6445L17.0703 8.92578C18.0078 8.61979 18.8021 8.17057 19.4531 7.57812C20.1107 6.98568 20.6022 6.30534 20.9277 5.53711C21.2598 4.76888 21.4258 3.95833 21.4258 3.10547V1.09375H23.6133V3.125ZM19.9023 11.6992H22.1289V15.5469H31.9141V17.3047H19.9023V11.6992ZM29.043 0H31.2109V5.21484H33.6719V7.05078H31.2109V12.9688H29.043V0Z" fill="black"/>
</svg>
