<svg width="40" height="22" viewBox="0 0 40 22" fill="none" xmlns="http://www.w3.org/2000/svg">
<path d="M16.9453 21.2109H14.3203V0H16.9453V21.2109ZM0 9.02344C0 7.53125 0.234375 6.21875 0.703125 5.08594C1.17188 3.95312 1.82422 3.08203 2.66016 2.47266C3.50391 1.85547 4.46094 1.54688 5.53125 1.54688C6.58594 1.54688 7.53125 1.85547 8.36719 2.47266C9.21094 3.08203 9.87109 3.95312 10.3477 5.08594C10.8242 6.21875 11.0625 7.53125 11.0625 9.02344C11.0625 10.5312 10.8242 11.8516 10.3477 12.9844C9.87109 14.1172 9.21094 14.9922 8.36719 15.6094C7.53125 16.2188 6.58594 16.5234 5.53125 16.5234C4.46094 16.5234 3.50391 16.2188 2.66016 15.6094C1.82422 14.9922 1.17188 14.1172 0.703125 12.9844C0.234375 11.8516 0 10.5312 0 9.02344ZM2.50781 9.02344C2.50781 10.0938 2.63281 11.0156 2.88281 11.7891C3.14062 12.5625 3.49609 13.1523 3.94922 13.5586C4.40234 13.9648 4.92969 14.1719 5.53125 14.1797C6.125 14.1719 6.64844 13.9648 7.10156 13.5586C7.55469 13.1523 7.90625 12.5625 8.15625 11.7891C8.40625 11.0156 8.53125 10.0938 8.53125 9.02344C8.53125 7.96094 8.40625 7.04688 8.15625 6.28125C7.90625 5.50781 7.55469 4.91797 7.10156 4.51172C6.64844 4.09766 6.125 3.89062 5.53125 3.89062C4.92969 3.89062 4.40234 4.09766 3.94922 4.51172C3.49609 4.91797 3.14062 5.50781 2.88281 6.28125C2.63281 7.04688 2.50781 7.96094 2.50781 9.02344ZM39.3984 12.8438H20.0391V10.7812H39.3984V12.8438ZM22.4297 0.445312H37.0078V5.88281H25.0781V7.40625H37.4297V9.39844H22.5V3.98438H34.4062V2.48438H22.4297V0.445312ZM22.5703 14.3672H37.0781V20.9297H22.5703V14.3672ZM34.5 18.8203V16.4297H25.125V18.8203H34.5Z" fill="black"/>
</svg>
