<svg width="60" height="22" viewBox="0 0 60 22" fill="none" xmlns="http://www.w3.org/2000/svg">
<path d="M16.9453 21.2109H14.3203V0H16.9453V21.2109ZM0 9.02344C0 7.53125 0.234375 6.21875 0.703125 5.08594C1.17188 3.95312 1.82422 3.08203 2.66016 2.47266C3.50391 1.85547 4.46094 1.54688 5.53125 1.54688C6.58594 1.54688 7.53125 1.85547 8.36719 2.47266C9.21094 3.08203 9.87109 3.95312 10.3477 5.08594C10.8242 6.21875 11.0625 7.53125 11.0625 9.02344C11.0625 10.5312 10.8242 11.8516 10.3477 12.9844C9.87109 14.1172 9.21094 14.9922 8.36719 15.6094C7.53125 16.2188 6.58594 16.5234 5.53125 16.5234C4.46094 16.5234 3.50391 16.2188 2.66016 15.6094C1.82422 14.9922 1.17188 14.1172 0.703125 12.9844C0.234375 11.8516 0 10.5312 0 9.02344ZM2.50781 9.02344C2.50781 10.0938 2.63281 11.0156 2.88281 11.7891C3.14062 12.5625 3.49609 13.1523 3.94922 13.5586C4.40234 13.9648 4.92969 14.1719 5.53125 14.1797C6.125 14.1719 6.64844 13.9648 7.10156 13.5586C7.55469 13.1523 7.90625 12.5625 8.15625 11.7891C8.40625 11.0156 8.53125 10.0938 8.53125 9.02344C8.53125 7.96094 8.40625 7.04688 8.15625 6.28125C7.90625 5.50781 7.55469 4.91797 7.10156 4.51172C6.64844 4.09766 6.125 3.89062 5.53125 3.89062C4.92969 3.89062 4.40234 4.09766 3.94922 4.51172C3.49609 4.91797 3.14062 5.50781 2.88281 6.28125C2.63281 7.04688 2.50781 7.96094 2.50781 9.02344ZM29.0391 7.80469H31.5V0.375H33.9844V20.1562H31.5V9.91406H29.0391V15.7266H20.7188V2.29688H29.0391V7.80469ZM26.6016 13.6641V4.35938H23.1562V13.6641H26.6016ZM35.8359 0H38.3438V21.1875H35.8359V0ZM46.8047 0.679688C47.8672 0.679688 48.8242 0.886719 49.6758 1.30078C50.5273 1.70703 51.1953 2.27344 51.6797 3C52.1719 3.72656 52.4219 4.54688 52.4297 5.46094C52.4219 6.38281 52.1719 7.20703 51.6797 7.93359C51.1953 8.65234 50.5273 9.21875 49.6758 9.63281C48.8242 10.0391 47.8672 10.2422 46.8047 10.2422C45.7344 10.2422 44.7695 10.0391 43.9102 9.63281C43.0586 9.21875 42.3906 8.65234 41.9062 7.93359C41.4219 7.20703 41.1797 6.38281 41.1797 5.46094C41.1797 4.54688 41.4219 3.72656 41.9062 3C42.3906 2.27344 43.0586 1.70703 43.9102 1.30078C44.7695 0.886719 45.7344 0.679688 46.8047 0.679688ZM43.7109 5.46094C43.7109 6 43.8438 6.47266 44.1094 6.87891C44.375 7.27734 44.7422 7.58594 45.2109 7.80469C45.6797 8.02344 46.2109 8.13281 46.8047 8.13281C47.3984 8.13281 47.9258 8.02344 48.3867 7.80469C48.8555 7.58594 49.2227 7.27734 49.4883 6.87891C49.7617 6.47266 49.8984 6 49.8984 5.46094C49.8984 4.9375 49.7617 4.47656 49.4883 4.07812C49.2227 3.67969 48.8555 3.375 48.3867 3.16406C47.9258 2.94531 47.3984 2.83594 46.8047 2.83594C46.2109 2.83594 45.6797 2.94531 45.2109 3.16406C44.7422 3.375 44.375 3.67969 44.1094 4.07812C43.8438 4.47656 43.7109 4.9375 43.7109 5.46094ZM44.3906 11.625H58.4531V17.1562H46.9922V18.8672H59.0859V20.9297H44.4375V15.2344H55.8516V13.6641H44.3906V11.625ZM55.8281 0H58.4531V10.7109H55.8281V0Z" fill="black"/>
</svg>
