<svg width="34" height="18" viewBox="0 0 34 18" fill="none" xmlns="http://www.w3.org/2000/svg">
<path d="M14.8242 12.8906H12.6562V6.42578H9.53125V4.66797H12.6562V0H14.8242V12.8906ZM0 9.08203C0.911458 8.78255 1.69271 8.34635 2.34375 7.77344C2.99479 7.19401 3.48633 6.53646 3.81836 5.80078C4.15039 5.05859 4.31641 4.29036 4.31641 3.49609V3.02734H0.644531V1.26953H10.1758V3.02734H6.52344V3.51562C6.52344 4.23828 6.68294 4.94466 7.00195 5.63477C7.32096 6.31836 7.79297 6.93359 8.41797 7.48047C9.04297 8.02083 9.79818 8.4375 10.6836 8.73047L9.58984 10.4688C8.6263 10.1367 7.79297 9.65495 7.08984 9.02344C6.39323 8.38542 5.84635 7.63672 5.44922 6.77734C5.05208 7.72786 4.48568 8.55469 3.75 9.25781C3.01432 9.96094 2.13542 10.4883 1.11328 10.8398L0 9.08203ZM3.24219 11.7578H5.41016V15.5273H15.2734V17.2852H3.24219V11.7578ZM31.4844 2.12891V2.67578C31.4844 3.41146 31.4583 4.11458 31.4062 4.78516C31.3607 5.44922 31.2598 6.16536 31.1035 6.93359H33.457V8.69141H26.4453V11.4453H31.5234V17.6367H29.3555V13.1836H18.9648V11.4453H24.2773V8.69141H17.3242V6.93359H28.9258C29.082 6.11328 29.1862 5.36133 29.2383 4.67773C29.2904 3.99414 29.3164 3.27474 29.3164 2.51953H19.3164V0.78125H31.4844V2.12891Z" fill="black"/>
</svg>
