<svg width="105" height="13" viewBox="0 0 105 13" fill="none" xmlns="http://www.w3.org/2000/svg">
<path d="M6.79492 1.81836H5.55078V5.70801C6.20703 5.65788 6.75391 5.60547 7.19141 5.55078L7.24609 6.37109C5.52344 6.63542 3.27669 6.76758 0.505859 6.76758H0.136719L0 5.86523C0.674479 5.86523 1.19857 5.86296 1.57227 5.8584V1.81836H0.341797V0.929688H6.79492V1.81836ZM1.94141 9.93945C1.94141 9.47917 2.10319 9.08724 2.42676 8.76367C2.75033 8.43555 3.21745 8.18717 3.82812 8.01855C4.44336 7.84993 5.17253 7.76562 6.01562 7.76562C6.85872 7.76562 7.58561 7.84993 8.19629 8.01855C8.80697 8.18717 9.27409 8.43555 9.59766 8.76367C9.92578 9.08724 10.0898 9.47917 10.0898 9.93945C10.0898 10.3997 9.92578 10.7939 9.59766 11.1221C9.27409 11.4502 8.80697 11.6986 8.19629 11.8672C7.58561 12.0404 6.85872 12.127 6.01562 12.127C5.17253 12.127 4.44336 12.0404 3.82812 11.8672C3.21745 11.6986 2.75033 11.4502 2.42676 11.1221C2.10319 10.7939 1.94141 10.3997 1.94141 9.93945ZM2.61133 5.83789C3.32227 5.82422 3.95573 5.80143 4.51172 5.76953V1.81836H2.61133V5.83789ZM3.00781 9.93945C3.00781 10.2174 3.1263 10.459 3.36328 10.6641C3.60482 10.8646 3.95117 11.0173 4.40234 11.1221C4.85352 11.2269 5.39128 11.2793 6.01562 11.2793C6.63542 11.2793 7.1709 11.2269 7.62207 11.1221C8.07324 11.0173 8.4196 10.8646 8.66113 10.6641C8.90267 10.459 9.02344 10.2174 9.02344 9.93945C9.02344 9.66146 8.90267 9.4222 8.66113 9.22168C8.4196 9.02116 8.07324 8.86849 7.62207 8.76367C7.1709 8.6543 6.63542 8.59961 6.01562 8.59961C5.39583 8.59961 4.85807 8.6543 4.40234 8.76367C3.95117 8.86849 3.60482 9.02116 3.36328 9.22168C3.1263 9.4222 3.00781 9.66146 3.00781 9.93945ZM6.91797 4.36133H8.96875V3.07617H6.91797V2.1875H8.96875V0H10.0488V7.50586H8.96875V5.25H6.91797V4.36133ZM15.5176 0.451172C16.1191 0.451172 16.6569 0.567383 17.1309 0.799805C17.6094 1.02767 17.9831 1.34668 18.252 1.75684C18.5254 2.16243 18.6621 2.625 18.6621 3.14453C18.6621 3.66406 18.5254 4.12891 18.252 4.53906C17.9831 4.94466 17.6094 5.26139 17.1309 5.48926C16.6569 5.71257 16.1191 5.82422 15.5176 5.82422C14.9115 5.82422 14.3669 5.71257 13.8838 5.48926C13.4053 5.26139 13.0316 4.94466 12.7627 4.53906C12.4938 4.12891 12.3594 3.66406 12.3594 3.14453C12.3594 2.625 12.4938 2.16243 12.7627 1.75684C13.0316 1.34668 13.4053 1.02767 13.8838 0.799805C14.3669 0.567383 14.9115 0.451172 15.5176 0.451172ZM13.4121 3.14453C13.4076 3.49544 13.4941 3.80762 13.6719 4.08105C13.8542 4.35449 14.1048 4.56868 14.4238 4.72363C14.7474 4.87402 15.112 4.94922 15.5176 4.94922C15.9141 4.94922 16.2718 4.87402 16.5908 4.72363C16.9144 4.56868 17.1673 4.35449 17.3496 4.08105C17.5319 3.80762 17.623 3.49544 17.623 3.14453C17.623 2.79818 17.5319 2.48828 17.3496 2.21484C17.1673 1.94141 16.9144 1.72949 16.5908 1.5791C16.2718 1.42871 15.9141 1.35352 15.5176 1.35352C15.112 1.35352 14.7474 1.42871 14.4238 1.5791C14.1048 1.72949 13.8542 1.94141 13.6719 2.21484C13.4941 2.48828 13.4076 2.79818 13.4121 3.14453ZM14.2051 6.83594H22.1074V9.76172H15.2852V11.1289H22.5449V11.9902H14.2324V8.95508H21.041V7.69727H14.2051V6.83594ZM21.041 0H22.1074V6.24805H21.041V0ZM31.3633 11.1836C30.6341 11.1836 30.0098 10.9854 29.4902 10.5889C28.9753 10.1924 28.5811 9.61361 28.3076 8.85254C28.0387 8.09147 27.9043 7.17318 27.9043 6.09766C27.9043 5.03581 28.0387 4.12435 28.3076 3.36328C28.5811 2.59766 28.9775 2.01432 29.4971 1.61328C30.0166 1.21224 30.6387 1.01172 31.3633 1.01172C32.0833 1.01172 32.7031 1.21224 33.2227 1.61328C33.7422 2.01432 34.1387 2.59766 34.4121 3.36328C34.6855 4.12435 34.8223 5.03581 34.8223 6.09766C34.8223 7.17318 34.6855 8.09147 34.4121 8.85254C34.1432 9.61361 33.749 10.1924 33.2295 10.5889C32.7145 10.9854 32.0924 11.1836 31.3633 11.1836ZM29.0938 6.09766C29.0938 6.94531 29.1826 7.66764 29.3604 8.26465C29.5426 8.86165 29.8024 9.3151 30.1396 9.625C30.4769 9.9349 30.8848 10.0898 31.3633 10.0898C31.8372 10.0898 32.2428 9.9349 32.5801 9.625C32.9219 9.3151 33.1794 8.86165 33.3525 8.26465C33.5303 7.66764 33.6191 6.94531 33.6191 6.09766C33.6191 5.25 33.5303 4.52539 33.3525 3.92383C33.1748 3.32227 32.9173 2.86426 32.5801 2.5498C32.2428 2.23535 31.8372 2.07812 31.3633 2.07812C30.8893 2.07812 30.4837 2.23535 30.1465 2.5498C29.8092 2.86426 29.5495 3.32227 29.3672 3.92383C29.1849 4.52539 29.0938 5.25 29.0938 6.09766ZM39.7168 1.01172C40.3548 1.01172 40.945 1.15755 41.4873 1.44922C42.0342 1.73633 42.4808 2.22852 42.8271 2.92578C43.1781 3.62305 43.3535 4.54818 43.3535 5.70117C43.3535 6.85872 43.2008 7.84993 42.8955 8.6748C42.5947 9.49512 42.1618 10.1195 41.5967 10.5479C41.0361 10.9717 40.3685 11.1836 39.5938 11.1836C39.0195 11.1836 38.5046 11.0742 38.0488 10.8555C37.5931 10.6322 37.2217 10.3223 36.9346 9.92578C36.6475 9.5293 36.4629 9.06901 36.3809 8.54492H37.5977C37.7116 9.00977 37.9395 9.38346 38.2812 9.66602C38.6276 9.94857 39.0651 10.0898 39.5938 10.0898C40.1315 10.0898 40.5941 9.94173 40.9814 9.64551C41.3734 9.34473 41.6742 8.90951 41.8838 8.33984C42.0934 7.77018 42.2005 7.08659 42.2051 6.28906H42.0684C41.7812 6.70378 41.4167 7.02734 40.9746 7.25977C40.5371 7.48763 40.0586 7.60156 39.5391 7.60156C38.9512 7.60156 38.4089 7.46257 37.9121 7.18457C37.4199 6.90202 37.028 6.51237 36.7363 6.01562C36.4447 5.51432 36.2988 4.95378 36.2988 4.33398C36.2988 3.72331 36.4401 3.16504 36.7227 2.65918C37.0052 2.15332 37.404 1.75228 37.9189 1.45605C38.4385 1.15983 39.0378 1.01172 39.7168 1.01172ZM37.502 4.32031C37.502 4.72591 37.5954 5.09733 37.7822 5.43457C37.9736 5.76725 38.238 6.03158 38.5752 6.22754C38.9124 6.4235 39.293 6.52148 39.7168 6.52148C40.1361 6.52148 40.5212 6.41895 40.8721 6.21387C41.223 6.00423 41.501 5.72852 41.7061 5.38672C41.9111 5.04036 42.0137 4.67578 42.0137 4.29297C42.0137 3.91471 41.9157 3.55697 41.7197 3.21973C41.5238 2.88249 41.2526 2.61133 40.9062 2.40625C40.5645 2.19661 40.1816 2.0918 39.7578 2.0918C39.334 2.0918 38.9489 2.19206 38.6025 2.39258C38.2562 2.5931 37.985 2.86426 37.7891 3.20605C37.5931 3.54785 37.4974 3.91927 37.502 4.32031ZM45.8965 11.1289C45.737 11.1289 45.5889 11.0879 45.4521 11.0059C45.32 10.9238 45.2129 10.8167 45.1309 10.6846C45.0534 10.5479 45.0169 10.3997 45.0215 10.2402C45.0169 10.0853 45.0534 9.94173 45.1309 9.80957C45.2129 9.67285 45.32 9.56576 45.4521 9.48828C45.5889 9.40625 45.737 9.36523 45.8965 9.36523C46.0514 9.36523 46.195 9.40397 46.3271 9.48145C46.4639 9.55892 46.571 9.66374 46.6484 9.7959C46.7305 9.92806 46.7715 10.0716 46.7715 10.2266C46.7715 10.4727 46.6872 10.6846 46.5186 10.8623C46.3499 11.0355 46.1426 11.1243 45.8965 11.1289ZM45.8965 5.63281C45.737 5.63281 45.5889 5.5918 45.4521 5.50977C45.32 5.42773 45.2129 5.32064 45.1309 5.18848C45.0534 5.05176 45.0169 4.90365 45.0215 4.74414C45.0169 4.58919 45.0534 4.44564 45.1309 4.31348C45.2129 4.17676 45.32 4.06966 45.4521 3.99219C45.5889 3.91016 45.737 3.86914 45.8965 3.86914C46.0514 3.86914 46.195 3.90788 46.3271 3.98535C46.4639 4.06283 46.571 4.16764 46.6484 4.2998C46.7305 4.43197 46.7715 4.57552 46.7715 4.73047C46.7715 4.97656 46.6872 5.18848 46.5186 5.36621C46.3499 5.53939 46.1426 5.62826 45.8965 5.63281ZM51.8438 11.1836C51.1146 11.1836 50.4902 10.9854 49.9707 10.5889C49.4557 10.1924 49.0615 9.61361 48.7881 8.85254C48.5192 8.09147 48.3848 7.17318 48.3848 6.09766C48.3848 5.03581 48.5192 4.12435 48.7881 3.36328C49.0615 2.59766 49.458 2.01432 49.9775 1.61328C50.4971 1.21224 51.1191 1.01172 51.8438 1.01172C52.5638 1.01172 53.1836 1.21224 53.7031 1.61328C54.2227 2.01432 54.6191 2.59766 54.8926 3.36328C55.166 4.12435 55.3027 5.03581 55.3027 6.09766C55.3027 7.17318 55.166 8.09147 54.8926 8.85254C54.6237 9.61361 54.2295 10.1924 53.71 10.5889C53.195 10.9854 52.5729 11.1836 51.8438 11.1836ZM49.5742 6.09766C49.5742 6.94531 49.6631 7.66764 49.8408 8.26465C50.0231 8.86165 50.2829 9.3151 50.6201 9.625C50.9574 9.9349 51.3652 10.0898 51.8438 10.0898C52.3177 10.0898 52.7233 9.9349 53.0605 9.625C53.4023 9.3151 53.6598 8.86165 53.833 8.26465C54.0107 7.66764 54.0996 6.94531 54.0996 6.09766C54.0996 5.25 54.0107 4.52539 53.833 3.92383C53.6553 3.32227 53.3978 2.86426 53.0605 2.5498C52.7233 2.23535 52.3177 2.07812 51.8438 2.07812C51.3698 2.07812 50.9642 2.23535 50.627 2.5498C50.2897 2.86426 50.0299 3.32227 49.8477 3.92383C49.6654 4.52539 49.5742 5.25 49.5742 6.09766ZM60.1836 11.1836C59.4544 11.1836 58.8301 10.9854 58.3105 10.5889C57.7956 10.1924 57.4014 9.61361 57.1279 8.85254C56.859 8.09147 56.7246 7.17318 56.7246 6.09766C56.7246 5.03581 56.859 4.12435 57.1279 3.36328C57.4014 2.59766 57.7979 2.01432 58.3174 1.61328C58.8369 1.21224 59.459 1.01172 60.1836 1.01172C60.9036 1.01172 61.5234 1.21224 62.043 1.61328C62.5625 2.01432 62.959 2.59766 63.2324 3.36328C63.5059 4.12435 63.6426 5.03581 63.6426 6.09766C63.6426 7.17318 63.5059 8.09147 63.2324 8.85254C62.9635 9.61361 62.5693 10.1924 62.0498 10.5889C61.5348 10.9854 60.9128 11.1836 60.1836 11.1836ZM57.9141 6.09766C57.9141 6.94531 58.0029 7.66764 58.1807 8.26465C58.363 8.86165 58.6227 9.3151 58.96 9.625C59.2972 9.9349 59.7051 10.0898 60.1836 10.0898C60.6576 10.0898 61.0632 9.9349 61.4004 9.625C61.7422 9.3151 61.9997 8.86165 62.1729 8.26465C62.3506 7.66764 62.4395 6.94531 62.4395 6.09766C62.4395 5.25 62.3506 4.52539 62.1729 3.92383C61.9951 3.32227 61.7376 2.86426 61.4004 2.5498C61.0632 2.23535 60.6576 2.07812 60.1836 2.07812C59.7096 2.07812 59.304 2.23535 58.9668 2.5498C58.6296 2.86426 58.3698 3.32227 58.1875 3.92383C58.0052 4.52539 57.9141 5.25 57.9141 6.09766ZM69.5488 7.35547H65.2148V6.27539H69.5488V7.35547ZM74.8398 11.0469H73.5957V2.43359H73.541L71.1348 4.0332V2.78906L73.5957 1.14844H74.8398V11.0469ZM80.7871 11.1836C80.1035 11.1836 79.4928 11.0651 78.9551 10.8281C78.4219 10.5911 78.0072 10.263 77.7109 9.84375C77.4193 9.42448 77.2734 8.95052 77.2734 8.42188C77.2734 8.0026 77.36 7.61296 77.5332 7.25293C77.7109 6.88835 77.9525 6.58757 78.2578 6.35059C78.5677 6.11361 78.9095 5.96549 79.2832 5.90625V5.85156C78.9596 5.77865 78.6748 5.63509 78.4287 5.4209C78.1826 5.20671 77.9912 4.94466 77.8545 4.63477C77.7223 4.32487 77.6562 3.99219 77.6562 3.63672C77.6562 3.13997 77.7907 2.69336 78.0596 2.29688C78.3285 1.89583 78.6999 1.58138 79.1738 1.35352C79.6523 1.12565 80.1901 1.01172 80.7871 1.01172C81.3796 1.01172 81.9128 1.12565 82.3867 1.35352C82.8652 1.58138 83.2412 1.89583 83.5146 2.29688C83.7881 2.69336 83.9271 3.13997 83.9316 3.63672C83.9271 3.99219 83.8542 4.32487 83.7129 4.63477C83.5762 4.94466 83.3848 5.20671 83.1387 5.4209C82.8926 5.63509 82.61 5.77865 82.291 5.85156V5.90625C82.6602 5.96549 82.9974 6.11361 83.3027 6.35059C83.6126 6.58757 83.8564 6.88835 84.0342 7.25293C84.2165 7.61296 84.3099 8.0026 84.3145 8.42188C84.3099 8.95052 84.1572 9.42448 83.8564 9.84375C83.5557 10.263 83.1387 10.5911 82.6055 10.8281C82.0723 11.0651 81.4661 11.1836 80.7871 11.1836ZM78.5039 8.35352C78.4993 8.69987 78.5882 9.00521 78.7705 9.26953C78.9528 9.5293 79.2171 9.73438 79.5635 9.88477C79.9098 10.0306 80.3177 10.1035 80.7871 10.1035C81.252 10.1035 81.6576 10.0306 82.0039 9.88477C82.3503 9.73438 82.6169 9.5293 82.8037 9.26953C82.9906 9.00521 83.084 8.69987 83.084 8.35352C83.084 7.99349 82.9837 7.66992 82.7832 7.38281C82.5872 7.09115 82.3138 6.86328 81.9629 6.69922C81.6165 6.53516 81.2246 6.45312 80.7871 6.45312C80.3496 6.45312 79.9554 6.53516 79.6045 6.69922C79.2581 6.86328 78.987 7.09115 78.791 7.38281C78.5951 7.66992 78.4993 7.99349 78.5039 8.35352ZM78.8457 3.73242C78.8457 4.06055 78.9277 4.35221 79.0918 4.60742C79.2604 4.85807 79.4906 5.05632 79.7822 5.20215C80.0785 5.34342 80.4134 5.41406 80.7871 5.41406C81.1608 5.41406 81.4935 5.34342 81.7852 5.20215C82.0814 5.05632 82.3115 4.85807 82.4756 4.60742C82.6442 4.35221 82.7285 4.06055 82.7285 3.73242C82.7285 3.4043 82.6465 3.11491 82.4824 2.86426C82.3229 2.61361 82.0951 2.41992 81.7988 2.2832C81.5072 2.14648 81.1699 2.07812 80.7871 2.07812C80.3997 2.07812 80.0602 2.14648 79.7686 2.2832C79.4769 2.41992 79.249 2.61361 79.085 2.86426C78.9255 3.11491 78.8457 3.4043 78.8457 3.73242ZM86.8164 11.1289C86.6569 11.1289 86.5088 11.0879 86.3721 11.0059C86.2399 10.9238 86.1328 10.8167 86.0508 10.6846C85.9733 10.5479 85.9368 10.3997 85.9414 10.2402C85.9368 10.0853 85.9733 9.94173 86.0508 9.80957C86.1328 9.67285 86.2399 9.56576 86.3721 9.48828C86.5088 9.40625 86.6569 9.36523 86.8164 9.36523C86.9714 9.36523 87.1149 9.40397 87.2471 9.48145C87.3838 9.55892 87.4909 9.66374 87.5684 9.7959C87.6504 9.92806 87.6914 10.0716 87.6914 10.2266C87.6914 10.4727 87.6071 10.6846 87.4385 10.8623C87.2699 11.0355 87.0625 11.1243 86.8164 11.1289ZM86.8164 5.63281C86.6569 5.63281 86.5088 5.5918 86.3721 5.50977C86.2399 5.42773 86.1328 5.32064 86.0508 5.18848C85.9733 5.05176 85.9368 4.90365 85.9414 4.74414C85.9368 4.58919 85.9733 4.44564 86.0508 4.31348C86.1328 4.17676 86.2399 4.06966 86.3721 3.99219C86.5088 3.91016 86.6569 3.86914 86.8164 3.86914C86.9714 3.86914 87.1149 3.90788 87.2471 3.98535C87.3838 4.06283 87.4909 4.16764 87.5684 4.2998C87.6504 4.43197 87.6914 4.57552 87.6914 4.73047C87.6914 4.97656 87.6071 5.18848 87.4385 5.36621C87.2699 5.53939 87.0625 5.62826 86.8164 5.63281ZM92.7637 11.1836C92.0345 11.1836 91.4102 10.9854 90.8906 10.5889C90.3757 10.1924 89.9814 9.61361 89.708 8.85254C89.4391 8.09147 89.3047 7.17318 89.3047 6.09766C89.3047 5.03581 89.4391 4.12435 89.708 3.36328C89.9814 2.59766 90.3779 2.01432 90.8975 1.61328C91.417 1.21224 92.0391 1.01172 92.7637 1.01172C93.4837 1.01172 94.1035 1.21224 94.623 1.61328C95.1426 2.01432 95.5391 2.59766 95.8125 3.36328C96.0859 4.12435 96.2227 5.03581 96.2227 6.09766C96.2227 7.17318 96.0859 8.09147 95.8125 8.85254C95.5436 9.61361 95.1494 10.1924 94.6299 10.5889C94.1149 10.9854 93.4928 11.1836 92.7637 11.1836ZM90.4941 6.09766C90.4941 6.94531 90.583 7.66764 90.7607 8.26465C90.943 8.86165 91.2028 9.3151 91.54 9.625C91.8773 9.9349 92.2852 10.0898 92.7637 10.0898C93.2376 10.0898 93.6432 9.9349 93.9805 9.625C94.3223 9.3151 94.5798 8.86165 94.7529 8.26465C94.9307 7.66764 95.0195 6.94531 95.0195 6.09766C95.0195 5.25 94.9307 4.52539 94.7529 3.92383C94.5752 3.32227 94.3177 2.86426 93.9805 2.5498C93.6432 2.23535 93.2376 2.07812 92.7637 2.07812C92.2897 2.07812 91.8841 2.23535 91.5469 2.5498C91.2096 2.86426 90.9499 3.32227 90.7676 3.92383C90.5853 4.52539 90.4941 5.25 90.4941 6.09766ZM101.104 11.1836C100.374 11.1836 99.75 10.9854 99.2305 10.5889C98.7155 10.1924 98.3213 9.61361 98.0479 8.85254C97.779 8.09147 97.6445 7.17318 97.6445 6.09766C97.6445 5.03581 97.779 4.12435 98.0479 3.36328C98.3213 2.59766 98.7178 2.01432 99.2373 1.61328C99.7568 1.21224 100.379 1.01172 101.104 1.01172C101.824 1.01172 102.443 1.21224 102.963 1.61328C103.482 2.01432 103.879 2.59766 104.152 3.36328C104.426 4.12435 104.562 5.03581 104.562 6.09766C104.562 7.17318 104.426 8.09147 104.152 8.85254C103.883 9.61361 103.489 10.1924 102.97 10.5889C102.455 10.9854 101.833 11.1836 101.104 11.1836ZM98.834 6.09766C98.834 6.94531 98.9229 7.66764 99.1006 8.26465C99.2829 8.86165 99.5426 9.3151 99.8799 9.625C100.217 9.9349 100.625 10.0898 101.104 10.0898C101.577 10.0898 101.983 9.9349 102.32 9.625C102.662 9.3151 102.92 8.86165 103.093 8.26465C103.271 7.66764 103.359 6.94531 103.359 6.09766C103.359 5.25 103.271 4.52539 103.093 3.92383C102.915 3.32227 102.658 2.86426 102.32 2.5498C101.983 2.23535 101.577 2.07812 101.104 2.07812C100.63 2.07812 100.224 2.23535 99.8867 2.5498C99.5495 2.86426 99.2897 3.32227 99.1074 3.92383C98.9251 4.52539 98.834 5.25 98.834 6.09766Z" fill="white"/>
</svg>
