<svg width="38" height="14" viewBox="0 0 38 14" fill="none" xmlns="http://www.w3.org/2000/svg">
<path d="M5.88867 9.19922C7.33887 9.19922 8.45459 9.37012 9.23584 9.71191C10.0171 10.0488 10.4102 10.5469 10.415 11.2061C10.4102 11.8457 10.0195 12.3315 9.24316 12.6636C8.47168 13.0005 7.36816 13.1689 5.93262 13.1689C4.48242 13.1689 3.36914 13.0005 2.59277 12.6636C1.81641 12.3315 1.43066 11.8457 1.43555 11.2061C1.43066 10.5518 1.81152 10.0537 2.57812 9.71191C3.34961 9.37012 4.45312 9.19922 5.88867 9.19922ZM0 7.45605H5.36133V6.43799C4.17969 6.39404 3.27393 6.21582 2.64404 5.90332C2.01416 5.59082 1.69922 5.15625 1.69922 4.59961C1.69922 3.98438 2.06299 3.52051 2.79053 3.20801C3.51807 2.89063 4.56543 2.72949 5.93262 2.72461C7.29492 2.72949 8.3374 2.89063 9.06006 3.20801C9.7876 3.52051 10.1514 3.98438 10.1514 4.59961C10.1514 5.15625 9.83643 5.59082 9.20654 5.90332C8.58154 6.21582 7.68066 6.39404 6.50391 6.43799V7.45605H11.8652V8.37891H0V7.45605ZM0.615234 1.27441H5.36133V0H6.50391V1.27441H11.1768V2.19727H0.615234V1.27441ZM2.60742 11.2061C2.6123 11.5576 2.89795 11.8286 3.46436 12.019C4.03076 12.2095 4.83398 12.3047 5.87402 12.3047C6.95801 12.3047 7.79053 12.2095 8.37158 12.019C8.95264 11.8335 9.24316 11.5625 9.24316 11.2061C9.24316 10.8398 8.95508 10.5591 8.37891 10.3638C7.80762 10.1636 6.99219 10.0635 5.93262 10.0635C4.87305 10.0635 4.05518 10.1611 3.479 10.3564C2.90283 10.5518 2.6123 10.835 2.60742 11.2061ZM2.92969 4.59961C2.9248 4.92188 3.18359 5.17334 3.70605 5.354C4.2334 5.52979 4.97559 5.62012 5.93262 5.625C6.88477 5.62012 7.62207 5.52979 8.14453 5.354C8.66699 5.17334 8.93066 4.92188 8.93555 4.59961C8.93066 4.25781 8.67188 3.99658 8.15918 3.81592C7.65137 3.63525 6.92871 3.54492 5.99121 3.54492C5.00488 3.54492 4.24561 3.63525 3.71338 3.81592C3.18604 3.9917 2.9248 4.25293 2.92969 4.59961ZM23.7158 6.84082H22.5732V0.175781H23.7158V6.84082ZM13.1836 6.15234C14.8145 5.79102 16.0913 5.23438 17.0142 4.48242C17.9419 3.72559 18.457 2.82227 18.5596 1.77246H13.8428V0.820312H19.8193C19.8145 2.44629 19.2725 3.78662 18.1934 4.84131C17.1143 5.896 15.5859 6.65527 13.6084 7.11914L13.1836 6.15234ZM15.249 7.45605H23.7158V10.6055H16.4209V12.1582H24.1846V13.0811H15.2783V9.72656H22.5732V8.37891H15.249V7.45605ZM37.8076 7.54395H25.9277V6.62109H31.3037V5.09766H27.4365V0.791016H36.3281V1.71387H28.5645V4.16016H36.416V5.09766H32.417V6.62109H37.8076V7.54395ZM27.3633 10.8398C27.3633 10.3467 27.5415 9.92676 27.8979 9.58008C28.2544 9.22852 28.7695 8.95996 29.4434 8.77441C30.1172 8.58887 30.9229 8.49609 31.8604 8.49609C32.7881 8.49609 33.5864 8.58887 34.2554 8.77441C34.9243 8.95996 35.437 9.22852 35.7935 9.58008C36.1548 9.92676 36.3379 10.3467 36.3428 10.8398C36.3379 11.3379 36.1572 11.7603 35.8008 12.1069C35.4443 12.4585 34.9292 12.7271 34.2554 12.9126C33.5864 13.0981 32.7881 13.1934 31.8604 13.1982C30.9229 13.1934 30.1172 13.0981 29.4434 12.9126C28.7695 12.7271 28.2544 12.4585 27.8979 12.1069C27.5415 11.7554 27.3633 11.333 27.3633 10.8398ZM28.5352 10.8398C28.5303 11.1377 28.6572 11.3965 28.916 11.6162C29.1797 11.8311 29.5581 11.9946 30.0513 12.1069C30.5444 12.2192 31.1328 12.2754 31.8164 12.2754C32.8711 12.2754 33.6938 12.1509 34.2847 11.9019C34.8804 11.6528 35.1807 11.2988 35.1855 10.8398C35.1855 10.542 35.0513 10.2856 34.7827 10.0708C34.5142 9.85596 34.1309 9.69238 33.6328 9.58008C33.1348 9.46289 32.5439 9.4043 31.8604 9.4043C31.167 9.4043 30.5688 9.46289 30.0659 9.58008C29.5679 9.69238 29.187 9.85596 28.9233 10.0708C28.6597 10.2856 28.5303 10.542 28.5352 10.8398Z" fill="#C3C3C3"/>
</svg>
