<svg width="459" height="85" viewBox="0 0 459 85" fill="none" xmlns="http://www.w3.org/2000/svg">
<path d="M14.8594 8.54688C16.4479 8.54688 17.8867 8.96354 19.1758 9.79688C20.4779 10.6302 21.5391 11.8281 22.3594 13.3906C23.1927 14.9531 23.7266 16.7891 23.9609 18.8984H30.1328V6.04688H35.0547V41.6719H30.1328V22.8828H24.0195C23.8503 25.1224 23.3555 27.0755 22.5352 28.7422C21.7148 30.4089 20.6406 31.6849 19.3125 32.5703C17.9974 33.4557 16.513 33.8984 14.8594 33.8984C13.0625 33.8984 11.4609 33.3841 10.0547 32.3555C8.66146 31.3138 7.57422 29.8359 6.79297 27.9219C6.01172 25.9948 5.6276 23.7552 5.64062 21.2031C5.6276 18.6641 6.01172 16.4375 6.79297 14.5234C7.57422 12.6094 8.66146 11.138 10.0547 10.1094C11.4609 9.06771 13.0625 8.54688 14.8594 8.54688ZM10.4062 21.2031C10.4062 22.9349 10.5885 24.4193 10.9531 25.6562C11.3177 26.8802 11.8385 27.8112 12.5156 28.4492C13.1927 29.0742 13.974 29.3802 14.8594 29.3672C15.7578 29.3802 16.5391 29.0742 17.2031 28.4492C17.8802 27.8112 18.401 26.8802 18.7656 25.6562C19.1302 24.4193 19.3125 22.9349 19.3125 21.2031C19.3125 19.4714 19.1302 17.9935 18.7656 16.7695C18.401 15.5456 17.8802 14.6211 17.2031 13.9961C16.5391 13.3581 15.7578 13.0391 14.8594 13.0391C13.974 13.0391 13.1927 13.3581 12.5156 13.9961C11.8385 14.6211 11.3177 15.5521 10.9531 16.7891C10.5885 18.013 10.4062 19.4844 10.4062 21.2031ZM70.8359 40.9688H45.1719V29.6016H50.1719V36.9844H70.8359V40.9688ZM40.2109 8.70312H49.5078V12.7266H45.0547V22.7656C46.7995 22.6615 48.362 22.4531 49.7422 22.1406L50.1328 26.1641C49.0521 26.3984 48.0104 26.5547 47.0078 26.6328C46.0052 26.7109 44.8398 26.75 43.5117 26.75H41.9297H40.2109V8.70312ZM51.2266 8.70312H61.2266V12.7266H56.1875V22.7852C57.4505 22.7461 58.5182 22.6745 59.3906 22.5703C60.276 22.4661 61.1615 22.3099 62.0469 22.1016L62.4766 26.125C61.3698 26.3724 60.2565 26.5417 59.1367 26.6328C58.0169 26.7109 56.4609 26.75 54.4688 26.75H53.1797H51.2266V8.70312ZM60.0938 15.4609H65.0156V6.08594H69.8984V31.7891H65.0156V19.4453H60.0938V15.4609ZM96.8516 14.0938C96.8646 16.3854 97.1836 18.5729 97.8086 20.6562C98.4336 22.7396 99.3906 24.5885 100.68 26.2031C101.982 27.8047 103.583 29.0156 105.484 29.8359L102.438 33.8203C100.51 32.8828 98.8698 31.5742 97.5156 29.8945C96.1745 28.2018 95.1198 26.2227 94.3516 23.957C93.5573 26.3789 92.4635 28.4948 91.0703 30.3047C89.6771 32.1016 87.9974 33.4818 86.0312 34.4453L82.9062 30.3828C84.8594 29.4974 86.5 28.2083 87.8281 26.5156C89.1693 24.8229 90.1654 22.9089 90.8164 20.7734C91.4674 18.625 91.7995 16.3984 91.8125 14.0938V8.78125H96.8516V14.0938ZM101.5 17.2188H108.492V6.04688H113.414V41.6719H108.492V21.2422H101.5V17.2188ZM147.75 41.6719H142.711V6.04688H147.75V41.6719ZM119.742 8.85938H124.742V17.5312H132.398V8.85938H137.32V33.3516H119.742V8.85938ZM132.398 29.3281V21.3984H124.742V29.3281H132.398ZM171.266 10.7344C171.253 12.5052 171.754 14.2435 172.77 15.9492C173.785 17.6419 175.25 19.1133 177.164 20.3633C179.078 21.6003 181.331 22.4401 183.922 22.8828L181.734 27.0234C178.688 26.4245 176.031 25.3112 173.766 23.6836C171.513 22.043 169.801 20.0638 168.629 17.7461C167.431 20.0508 165.699 22.0234 163.434 23.6641C161.181 25.2917 158.544 26.4115 155.523 27.0234L153.375 22.8828C155.914 22.4271 158.134 21.5742 160.035 20.3242C161.936 19.0742 163.395 17.6029 164.41 15.9102C165.426 14.2044 165.94 12.4792 165.953 10.7344V8.15625H171.266V10.7344ZM152.555 33.1172H185.094V37.2188H152.555V33.1172ZM215.172 19.6797H220.211V23.7812H215.172V41.5156H210.172V6.04688H215.172V19.6797ZM186.734 31.5547C190.966 29.4323 194.221 26.9193 196.5 24.0156C198.779 21.112 200.152 17.6875 200.621 13.7422H188.766V9.67969H205.68C205.654 15.3438 204.378 20.3438 201.852 24.6797C199.339 29.0156 195.237 32.5833 189.547 35.3828L186.734 31.5547ZM260.758 24.2891H255.758V6.04688H260.758V24.2891ZM231.5 19.6797C232.281 19.6797 233.557 19.6667 235.328 19.6406V12.0234H232.438V8.23438H251.773V12.0234H248.844V19.1133C250.354 18.9961 251.786 18.8594 253.141 18.7031L253.375 22.2578C247.854 23.1432 240.745 23.5859 232.047 23.5859L231.5 19.6797ZM236.578 25.6953H260.758V35.1875H241.578V37.4141H261.734V41.3594H236.656V31.6328H255.836V29.5625H236.578V25.6953ZM240.094 19.543C241.839 19.4909 243.154 19.4453 244.039 19.4062V12.0234H240.094V19.543ZM298.023 37.4531H265.484V33.3516H272.75V24.6406C271.344 23.7943 270.257 22.7526 269.488 21.5156C268.72 20.2656 268.336 18.8724 268.336 17.3359C268.336 15.4479 268.909 13.7812 270.055 12.3359C271.201 10.8906 272.783 9.77083 274.801 8.97656C276.832 8.16927 279.13 7.76562 281.695 7.76562C284.247 7.76562 286.539 8.16927 288.57 8.97656C290.602 9.77083 292.197 10.8906 293.355 12.3359C294.514 13.7812 295.094 15.4479 295.094 17.3359C295.081 18.8464 294.703 20.2135 293.961 21.4375C293.219 22.6615 292.164 23.6966 290.797 24.543V33.3516H298.023V37.4531ZM273.258 17.3359C273.258 18.4818 273.603 19.4779 274.293 20.3242C274.996 21.1706 275.979 21.8216 277.242 22.2773C278.518 22.7331 280.003 22.9609 281.695 22.9609C283.362 22.9609 284.833 22.7331 286.109 22.2773C287.385 21.8216 288.382 21.1706 289.098 20.3242C289.814 19.4779 290.172 18.4818 290.172 17.3359C290.172 16.1641 289.814 15.1549 289.098 14.3086C288.395 13.4622 287.405 12.8177 286.129 12.375C284.853 11.9193 283.375 11.6979 281.695 11.7109C280.003 11.7109 278.518 11.9323 277.242 12.375C275.979 12.8177 274.996 13.4622 274.293 14.3086C273.603 15.1549 273.258 16.1641 273.258 17.3359ZM285.758 33.3516V26.4375C284.456 26.6979 283.102 26.8281 281.695 26.8281C280.328 26.8281 278.987 26.7044 277.672 26.457V33.3516H285.758ZM328.102 19.9531H333.336V24.0547H328.102V41.5938H323.18V6.04688H328.102V19.9531ZM299.859 11.3594H307.906V6.59375H312.906V11.3594H320.758V15.3438H299.859V11.3594ZM301.305 25.8125C301.305 24.1849 301.695 22.7266 302.477 21.4375C303.258 20.1484 304.339 19.1458 305.719 18.4297C307.112 17.7005 308.674 17.3359 310.406 17.3359C312.112 17.3359 313.655 17.7005 315.035 18.4297C316.415 19.1458 317.496 20.1484 318.277 21.4375C319.072 22.7266 319.469 24.1849 319.469 25.8125C319.469 27.4401 319.072 28.8984 318.277 30.1875C317.496 31.4635 316.415 32.4661 315.035 33.1953C313.655 33.9245 312.112 34.2891 310.406 34.2891C308.674 34.2891 307.112 33.9245 305.719 33.1953C304.339 32.4661 303.258 31.4635 302.477 30.1875C301.695 28.8984 301.305 27.4401 301.305 25.8125ZM306.07 25.8125C306.07 26.7109 306.253 27.4922 306.617 28.1562C306.995 28.8203 307.509 29.3281 308.16 29.6797C308.811 30.0312 309.56 30.2005 310.406 30.1875C311.24 30.2005 311.982 30.0312 312.633 29.6797C313.284 29.3281 313.792 28.8203 314.156 28.1562C314.521 27.4922 314.703 26.7109 314.703 25.8125C314.703 24.9141 314.521 24.1328 314.156 23.4688C313.792 22.8047 313.284 22.2904 312.633 21.9258C311.982 21.5612 311.24 21.3724 310.406 21.3594C309.56 21.3724 308.811 21.5612 308.16 21.9258C307.509 22.2904 306.995 22.8047 306.617 23.4688C306.253 24.1328 306.07 24.9141 306.07 25.8125ZM364.391 32.0234H359.391V6.08594H364.391V32.0234ZM334.508 23.2344C336.422 22.5964 338.017 21.6719 339.293 20.4609C340.569 19.237 341.513 17.8503 342.125 16.3008C342.75 14.7513 343.062 13.1432 343.062 11.4766V8.03906H348.258V11.4766C348.245 13.1042 348.531 14.6536 349.117 16.125C349.716 17.5833 350.641 18.8854 351.891 20.0312C353.141 21.1771 354.703 22.0495 356.578 22.6484L354.039 26.5547C352.073 25.9036 350.393 24.9531 349 23.7031C347.607 22.4401 346.5 20.9362 345.68 19.1914C344.846 21.0664 343.707 22.694 342.262 24.0742C340.829 25.4544 339.104 26.4896 337.086 27.1797L334.508 23.2344ZM340.562 29.5234H345.602V36.9844H365.328V40.9688H340.562V29.5234ZM397.242 19.6797H402.281V23.7812H397.242V41.5156H392.242V6.04688H397.242V19.6797ZM368.805 31.5547C373.036 29.4323 376.292 26.9193 378.57 24.0156C380.849 21.112 382.223 17.6875 382.691 13.7422H370.836V9.67969H387.75C387.724 15.3438 386.448 20.3438 383.922 24.6797C381.409 29.0156 377.307 32.5833 371.617 35.3828L368.805 31.5547ZM436.305 37.4531H403.766V33.3516H411.031V24.6406C409.625 23.7943 408.538 22.7526 407.77 21.5156C407.001 20.2656 406.617 18.8724 406.617 17.3359C406.617 15.4479 407.19 13.7812 408.336 12.3359C409.482 10.8906 411.064 9.77083 413.082 8.97656C415.113 8.16927 417.411 7.76562 419.977 7.76562C422.529 7.76562 424.82 8.16927 426.852 8.97656C428.883 9.77083 430.478 10.8906 431.637 12.3359C432.796 13.7812 433.375 15.4479 433.375 17.3359C433.362 18.8464 432.984 20.2135 432.242 21.4375C431.5 22.6615 430.445 23.6966 429.078 24.543V33.3516H436.305V37.4531ZM411.539 17.3359C411.539 18.4818 411.884 19.4779 412.574 20.3242C413.277 21.1706 414.26 21.8216 415.523 22.2773C416.799 22.7331 418.284 22.9609 419.977 22.9609C421.643 22.9609 423.115 22.7331 424.391 22.2773C425.667 21.8216 426.663 21.1706 427.379 20.3242C428.095 19.4779 428.453 18.4818 428.453 17.3359C428.453 16.1641 428.095 15.1549 427.379 14.3086C426.676 13.4622 425.686 12.8177 424.41 12.375C423.134 11.9193 421.656 11.6979 419.977 11.7109C418.284 11.7109 416.799 11.9323 415.523 12.375C414.26 12.8177 413.277 13.4622 412.574 14.3086C411.884 15.1549 411.539 16.1641 411.539 17.3359ZM424.039 33.3516V26.4375C422.737 26.6979 421.383 26.8281 419.977 26.8281C418.609 26.8281 417.268 26.7044 415.953 26.457V33.3516H424.039ZM444.547 29.0938C444.547 27.5312 444.684 26.2682 444.957 25.3047C445.243 24.3281 445.641 23.5534 446.148 22.9805C446.656 22.3945 447.346 21.8281 448.219 21.2812C449.169 20.6562 449.905 20.0247 450.426 19.3867C450.947 18.7487 451.201 18.013 451.188 17.1797C451.188 16.5417 451.038 15.9818 450.738 15.5C450.439 15.0052 450.029 14.6276 449.508 14.3672C449 14.0938 448.427 13.9505 447.789 13.9375C447.164 13.9505 446.585 14.0938 446.051 14.3672C445.517 14.6406 445.081 15.0443 444.742 15.5781C444.404 16.099 444.221 16.724 444.195 17.4531H438.648C438.674 15.6823 439.098 14.1914 439.918 12.9805C440.738 11.7565 441.832 10.8451 443.199 10.2461C444.579 9.63411 446.122 9.32812 447.828 9.32812C449.651 9.32812 451.259 9.63411 452.652 10.2461C454.059 10.8581 455.152 11.7435 455.934 12.9023C456.728 14.0482 457.125 15.4089 457.125 16.9844C457.125 18.5208 456.76 19.8359 456.031 20.9297C455.315 22.0104 454.273 22.9609 452.906 23.7812C452.138 24.237 451.526 24.6992 451.07 25.168C450.615 25.6367 450.27 26.1836 450.035 26.8086C449.814 27.4336 449.703 28.1953 449.703 29.0938V29.5234H444.547V29.0938ZM443.961 35.0703C443.948 34.4844 444.085 33.944 444.371 33.4492C444.671 32.9414 445.074 32.5443 445.582 32.2578C446.09 31.9714 446.643 31.8281 447.242 31.8281C447.815 31.8281 448.349 31.9714 448.844 32.2578C449.339 32.5443 449.736 32.9414 450.035 33.4492C450.335 33.944 450.484 34.4844 450.484 35.0703C450.484 35.6693 450.335 36.2227 450.035 36.7305C449.736 37.2253 449.339 37.6224 448.844 37.9219C448.349 38.2083 447.815 38.3516 447.242 38.3516C446.643 38.3516 446.09 38.2083 445.582 37.9219C445.074 37.6224 444.671 37.2253 444.371 36.7305C444.085 36.2227 443.948 35.6693 443.961 35.0703Z" fill="white"/>
<path d="M15.0977 76.9727H13.5547V70.3125H9.98047V69.043H13.5547V64.2383H15.0977V76.9727ZM0.78125 73.4961C1.6276 73.1966 2.38607 72.7572 3.05664 72.1777C3.72721 71.5983 4.2513 70.931 4.62891 70.1758C5.00651 69.4141 5.19531 68.6263 5.19531 67.8125V66.9141H1.26953V65.6445H10.625V66.9141H6.73828V67.8125C6.73828 68.5547 6.91732 69.2773 7.27539 69.9805C7.63997 70.6836 8.14453 71.3086 8.78906 71.8555C9.4401 72.4023 10.1823 72.819 11.0156 73.1055L10.2148 74.3359C9.24479 73.9844 8.39193 73.4635 7.65625 72.7734C6.92708 72.0768 6.3737 71.276 5.99609 70.3711C5.61849 71.3802 5.04557 72.2656 4.27734 73.0273C3.50911 73.7891 2.61068 74.362 1.58203 74.7461L0.78125 73.4961ZM3.94531 75.8203H5.48828V79.9219H15.5859V81.2109H3.94531V75.8203ZM33.8672 74.375H26.7969V77.9297H25.2734V74.375H17.9688V73.1055H33.8672V74.375ZM20 76.2109H21.543V79.9219H32.0898V81.2109H20V76.2109ZM20.0391 65.0781H31.7969V71.1133H20.0391V65.0781ZM30.2734 69.8828V66.2891H21.543V69.8828H30.2734ZM46.0938 67.0312C46.0938 67.806 46.276 68.5547 46.6406 69.2773C47.0117 69.9935 47.5228 70.625 48.1738 71.1719C48.8314 71.7188 49.5768 72.1354 50.4102 72.4219L49.5703 73.6328C48.6133 73.2812 47.7702 72.7637 47.041 72.0801C46.3184 71.39 45.765 70.5892 45.3809 69.6777C45.0098 70.7064 44.4499 71.6048 43.7012 72.373C42.9525 73.1413 42.0703 73.724 41.0547 74.1211L40.2344 72.8906C41.0938 72.5716 41.8522 72.1126 42.5098 71.5137C43.1673 70.9147 43.6784 70.2214 44.043 69.4336C44.4076 68.6393 44.5898 67.7995 44.5898 66.9141V65.1172H46.0938V67.0312ZM42.5391 78.3789C42.5391 77.7214 42.7702 77.1582 43.2324 76.6895C43.6947 76.2142 44.3587 75.8529 45.2246 75.6055C46.0905 75.3581 47.1159 75.2344 48.3008 75.2344C49.4857 75.2344 50.5046 75.3581 51.3574 75.6055C52.2168 75.8529 52.8743 76.2142 53.3301 76.6895C53.7923 77.1582 54.0234 77.7214 54.0234 78.3789C54.0234 79.0495 53.7956 79.6191 53.3398 80.0879C52.8841 80.5632 52.2266 80.9245 51.3672 81.1719C50.5078 81.4193 49.4857 81.543 48.3008 81.543C47.1094 81.543 46.0807 81.4193 45.2148 81.1719C44.3555 80.9245 43.6947 80.5632 43.2324 80.0879C42.7702 79.6126 42.5391 79.043 42.5391 78.3789ZM44.082 78.3789C44.0755 78.7826 44.2415 79.1309 44.5801 79.4238C44.9186 79.7168 45.4036 79.9414 46.0352 80.0977C46.6732 80.2539 47.4284 80.332 48.3008 80.332C49.1732 80.332 49.9251 80.2539 50.5566 80.0977C51.1947 79.9414 51.6829 79.7168 52.0215 79.4238C52.3665 79.1309 52.5391 78.7826 52.5391 78.3789C52.5391 77.9883 52.3665 77.6497 52.0215 77.3633C51.6829 77.0703 51.1947 76.849 50.5566 76.6992C49.9186 76.543 49.1667 76.4648 48.3008 76.4648C47.4349 76.4648 46.6829 76.543 46.0449 76.6992C45.4069 76.8555 44.9186 77.0768 44.5801 77.3633C44.2415 77.6497 44.0755 77.9883 44.082 78.3789ZM52.3438 64.2188H53.8672V68.75H56.4844V70.0391H53.8672V74.7852H52.3438V64.2188ZM71.1523 68.4766H73.7695V69.7656H71.1523V74.082H69.6289V64.2188H71.1523V68.4766ZM58.3984 65.4102H66.0938V66.6602H59.9219V71.7773H60.5371C62.0996 71.7773 63.4115 71.735 64.4727 71.6504C65.5404 71.5658 66.6211 71.4193 67.7148 71.2109L67.9102 72.4609C66.7904 72.6888 65.6673 72.8451 64.541 72.9297C63.4212 73.0078 61.9759 73.0469 60.2051 73.0469H59.7461H58.3984V65.4102ZM60.1953 74.9805H71.1523V81.3477H60.1953V74.9805ZM69.6289 80.0977V76.2305H61.6992V80.0977H69.6289ZM89.1797 77.4219H87.6367V75.625H84.043V74.5117H87.6367V64.2383H89.1797V77.4219ZM74.7656 72.2852C77.0898 72.2721 79.1471 72.2363 80.9375 72.1777C82.7279 72.1126 84.4401 71.9792 86.0742 71.7773L86.1719 72.8906C84.7591 73.112 83.1706 73.278 81.4062 73.3887V76.8164H79.8633V73.4668C78.6914 73.5124 77.0638 73.5352 74.9805 73.5352L74.7656 72.2852ZM76.1719 67.9688C76.1719 67.3698 76.3509 66.8424 76.709 66.3867C77.0671 65.9245 77.5716 65.5697 78.2227 65.3223C78.8737 65.0684 79.6224 64.9414 80.4688 64.9414C81.3086 64.9414 82.054 65.0684 82.7051 65.3223C83.3561 65.5697 83.8607 65.9245 84.2188 66.3867C84.5833 66.8424 84.7656 67.3698 84.7656 67.9688C84.7656 68.5807 84.5833 69.1146 84.2188 69.5703C83.8607 70.0195 83.3561 70.3678 82.7051 70.6152C82.0605 70.8561 81.3151 70.9766 80.4688 70.9766C79.6159 70.9766 78.8639 70.8561 78.2129 70.6152C77.5618 70.3678 77.0573 70.0195 76.6992 69.5703C76.3477 69.1146 76.1719 68.5807 76.1719 67.9688ZM77.2656 76.1328H78.8086V79.9219H89.6094V81.2109H77.2656V76.1328ZM77.6367 67.9688C77.6302 68.3398 77.7441 68.6686 77.9785 68.9551C78.2129 69.235 78.5449 69.4531 78.9746 69.6094C79.4108 69.7656 79.9089 69.8438 80.4688 69.8438C81.0156 69.8438 81.5007 69.7656 81.9238 69.6094C82.3535 69.4531 82.6888 69.235 82.9297 68.9551C83.1771 68.6686 83.3008 68.3398 83.3008 67.9688C83.3008 67.6042 83.1771 67.2819 82.9297 67.002C82.6888 66.7155 82.3535 66.4941 81.9238 66.3379C81.5007 66.1816 81.0156 66.1068 80.4688 66.1133C79.9089 66.1068 79.4141 66.1816 78.9844 66.3379C78.5547 66.4941 78.2194 66.7155 77.9785 67.002C77.7441 67.2819 77.6302 67.6042 77.6367 67.9688ZM106.465 81.6211H104.922V64.2188H106.465V81.6211ZM92.793 71.6211C92.793 70.4102 92.9818 69.349 93.3594 68.4375C93.737 67.5195 94.2611 66.8132 94.9316 66.3184C95.6022 65.8171 96.3672 65.5664 97.2266 65.5664C98.0859 65.5664 98.8509 65.8171 99.5215 66.3184C100.192 66.8132 100.716 67.5195 101.094 68.4375C101.471 69.349 101.66 70.4102 101.66 71.6211C101.66 72.832 101.471 73.8965 101.094 74.8145C100.716 75.7259 100.192 76.429 99.5215 76.9238C98.8509 77.4121 98.0859 77.6562 97.2266 77.6562C96.3672 77.6562 95.6022 77.4121 94.9316 76.9238C94.2611 76.429 93.737 75.7259 93.3594 74.8145C92.9818 73.8965 92.793 72.832 92.793 71.6211ZM94.2773 71.6211C94.2773 72.5521 94.401 73.3724 94.6484 74.082C94.8958 74.7852 95.2441 75.3288 95.6934 75.7129C96.1426 76.097 96.6536 76.2891 97.2266 76.2891C97.806 76.2891 98.3171 76.097 98.7598 75.7129C99.209 75.3288 99.5573 74.7852 99.8047 74.082C100.052 73.3724 100.176 72.5521 100.176 71.6211C100.176 70.6901 100.052 69.873 99.8047 69.1699C99.5573 68.4603 99.209 67.9102 98.7598 67.5195C98.3171 67.1289 97.806 66.9336 97.2266 66.9336C96.6536 66.9336 96.1426 67.1289 95.6934 67.5195C95.2441 67.9102 94.8958 68.4603 94.6484 69.1699C94.401 69.8796 94.2773 70.6966 94.2773 71.6211ZM121.035 76.582C122.969 76.4779 124.629 76.3216 126.016 76.1133L126.133 77.2461C124.486 77.5456 122.786 77.7441 121.035 77.8418C119.284 77.9395 117.438 77.9883 115.498 77.9883H114.766L114.551 76.7188C116.712 76.7057 118.372 76.6797 119.531 76.6406V73.3789H121.035V76.582ZM115.078 72.7734C115.938 72.5195 116.696 72.1484 117.354 71.6602C118.018 71.1654 118.535 70.5859 118.906 69.9219C119.284 69.2513 119.479 68.5352 119.492 67.7734H115.508V66.5039H119.531V64.3555H121.035V66.5039H125.117V67.7734H121.035C121.048 68.5026 121.247 69.1895 121.631 69.834C122.015 70.472 122.542 71.0286 123.213 71.5039C123.883 71.9727 124.648 72.3307 125.508 72.5781L124.785 73.7891C123.743 73.4766 122.829 72.998 122.041 72.3535C121.26 71.7025 120.674 70.9408 120.283 70.0684C119.912 70.9928 119.336 71.7904 118.555 72.4609C117.78 73.1315 116.868 73.6263 115.82 73.9453L115.078 72.7734ZM127.168 64.2188H128.691V81.6211H127.168V64.2188ZM137.773 67.4219C137.773 68.1641 137.952 68.8867 138.311 69.5898C138.669 70.293 139.173 70.918 139.824 71.4648C140.475 72.0117 141.217 72.4284 142.051 72.7148L141.25 73.9258C140.28 73.5742 139.427 73.0534 138.691 72.3633C137.962 71.6732 137.412 70.8789 137.041 69.9805C136.663 70.9766 136.087 71.8587 135.312 72.627C134.544 73.3887 133.646 73.9583 132.617 74.3359L131.816 73.125C132.663 72.819 133.421 72.3763 134.092 71.7969C134.762 71.2109 135.286 70.5404 135.664 69.7852C136.042 69.0299 136.23 68.2487 136.23 67.4414V66.6797H132.305V65.4297H141.66V66.6797H137.773V67.4219ZM134.453 75.5469H146.133V81.582H144.59V76.8164H134.453V75.5469ZM141.113 68.7695H144.59V64.2188H146.133V74.6289H144.59V70.0586H141.113V68.7695ZM154.707 65.4883C155.605 65.4883 156.406 65.6608 157.109 66.0059C157.819 66.3509 158.372 66.8327 158.77 67.4512C159.173 68.0697 159.375 68.776 159.375 69.5703C159.375 70.3646 159.173 71.071 158.77 71.6895C158.372 72.3079 157.819 72.7897 157.109 73.1348C156.406 73.4798 155.605 73.6523 154.707 73.6523C153.802 73.6523 152.992 73.4798 152.275 73.1348C151.566 72.7897 151.012 72.3079 150.615 71.6895C150.218 71.071 150.02 70.3646 150.02 69.5703C150.02 68.776 150.218 68.0697 150.615 67.4512C151.012 66.8327 151.566 66.3509 152.275 66.0059C152.992 65.6608 153.802 65.4883 154.707 65.4883ZM149.932 76.4844C151.904 76.4844 153.776 76.4453 155.547 76.3672C157.324 76.2891 159.004 76.1328 160.586 75.8984L160.703 77.0312C158.952 77.3568 157.171 77.5651 155.361 77.6562C153.551 77.7474 151.543 77.793 149.336 77.793L149.121 76.4844H149.932ZM151.523 69.5703C151.523 70.1042 151.657 70.5794 151.924 70.9961C152.197 71.4062 152.575 71.7285 153.057 71.9629C153.545 72.1908 154.095 72.3047 154.707 72.3047C155.312 72.3047 155.856 72.1908 156.338 71.9629C156.82 71.7285 157.194 71.4062 157.461 70.9961C157.734 70.5794 157.871 70.1042 157.871 69.5703C157.871 69.043 157.734 68.571 157.461 68.1543C157.194 67.7376 156.82 67.4154 156.338 67.1875C155.856 66.9531 155.312 66.8359 154.707 66.8359C154.095 66.8359 153.545 66.9531 153.057 67.1875C152.575 67.4154 152.197 67.7376 151.924 68.1543C151.657 68.571 151.523 69.043 151.523 69.5703ZM161.738 64.2188H163.262V81.6211H161.738V64.2188ZM179.98 71.8164H187.148V73.0664H171.328V71.8164H178.477V69.5312H179.98V71.8164ZM172.207 69.2773C173.288 69.1602 174.307 68.9062 175.264 68.5156C176.221 68.1185 176.992 67.6172 177.578 67.0117C178.164 66.4062 178.457 65.7422 178.457 65.0195V64.3555H180V65.0195C180 65.7357 180.293 66.3997 180.879 67.0117C181.471 67.6172 182.246 68.1185 183.203 68.5156C184.16 68.9062 185.176 69.1602 186.25 69.2773L185.703 70.4492C184.264 70.2539 182.956 69.8568 181.777 69.2578C180.605 68.6589 179.756 67.9036 179.229 66.9922C178.701 67.9036 177.848 68.6589 176.67 69.2578C175.498 69.8568 174.193 70.2539 172.754 70.4492L172.207 69.2773ZM173.242 74.5117H185.117V78.457H174.805V80.1758H185.645V81.3867H173.281V77.3047H183.613V75.7031H173.242V74.5117ZM202.559 69.4336H192.09V71.6797H202.93V72.9492H190.547V68.2227H200.996V66.1719H190.508V64.9219H202.559V69.4336ZM188.594 74.7852H204.492V76.0156H197.266V81.6211H195.742V76.0156H188.594V74.7852ZM211.836 67.4414C211.836 68.2812 212.015 69.0951 212.373 69.8828C212.731 70.6706 213.232 71.3704 213.877 71.9824C214.528 72.5879 215.267 73.0534 216.094 73.3789L215.234 74.5703C214.284 74.1732 213.447 73.597 212.725 72.8418C212.008 72.0866 211.468 71.2142 211.104 70.2246C210.732 71.2923 210.169 72.2331 209.414 73.0469C208.665 73.8542 207.786 74.4661 206.777 74.8828L205.938 73.6523C206.79 73.3203 207.549 72.8418 208.213 72.2168C208.877 71.5853 209.395 70.8561 209.766 70.0293C210.143 69.2025 210.332 68.3398 210.332 67.4414V65.2148H211.836V67.4414ZM209.062 75.8594H210.605V79.9219H220.684V81.2109H209.062V75.8594ZM215.176 70.3906H218.75V68.0859H215.176V66.8164H218.75V64.2383H220.293V77.207H218.75V71.6406H215.176V70.3906ZM231.094 64.5312C232.376 64.5312 233.477 64.6484 234.395 64.8828C235.312 65.1107 236.012 65.4492 236.494 65.8984C236.982 66.3411 237.227 66.8815 237.227 67.5195C237.227 68.1706 236.982 68.724 236.494 69.1797C236.012 69.6354 235.312 69.9805 234.395 70.2148C233.483 70.4427 232.383 70.5599 231.094 70.5664C229.798 70.5599 228.691 70.4427 227.773 70.2148C226.855 69.9805 226.152 69.6354 225.664 69.1797C225.182 68.724 224.941 68.1706 224.941 67.5195C224.941 66.8815 225.182 66.3411 225.664 65.8984C226.152 65.4492 226.855 65.1107 227.773 64.8828C228.698 64.6484 229.805 64.5312 231.094 64.5312ZM223.184 71.7383H239.004V72.9883H223.184V71.7383ZM225.098 74.4922H236.973V78.3789H226.66V80.1758H237.5V81.3867H225.137V77.2461H235.469V75.6641H225.098V74.4922ZM226.543 67.5195C226.536 68.1185 226.93 68.5807 227.725 68.9062C228.519 69.2318 229.642 69.3945 231.094 69.3945C232.539 69.3945 233.659 69.235 234.453 68.916C235.254 68.5905 235.658 68.125 235.664 67.5195C235.664 67.1419 235.482 66.8164 235.117 66.543C234.759 66.2695 234.235 66.0579 233.545 65.9082C232.861 65.7585 232.044 65.6836 231.094 65.6836C230.137 65.6836 229.316 65.7585 228.633 65.9082C227.949 66.0579 227.428 66.2695 227.07 66.543C226.712 66.8164 226.536 67.1419 226.543 67.5195ZM259.062 69.5117H261.68V70.8008H259.062V77.0312H257.539V64.2188H259.062V69.5117ZM245.82 69.7266C245.82 68.8997 246.016 68.1641 246.406 67.5195C246.803 66.8685 247.347 66.3607 248.037 65.9961C248.734 65.6315 249.512 65.4492 250.371 65.4492C251.23 65.4492 252.005 65.6315 252.695 65.9961C253.392 66.3607 253.939 66.8685 254.336 67.5195C254.733 68.1641 254.935 68.8997 254.941 69.7266C254.935 70.5534 254.733 71.2923 254.336 71.9434C253.939 72.5879 253.392 73.0924 252.695 73.457C252.005 73.8216 251.23 74.0039 250.371 74.0039C249.518 74.0039 248.743 73.8216 248.047 73.457C247.35 73.0924 246.803 72.5846 246.406 71.9336C246.016 71.2826 245.82 70.5469 245.82 69.7266ZM247.324 69.7266C247.324 70.2865 247.458 70.791 247.725 71.2402C247.992 71.6829 248.356 72.0312 248.818 72.2852C249.287 72.5326 249.805 72.6562 250.371 72.6562C250.951 72.6562 251.471 72.5326 251.934 72.2852C252.402 72.0312 252.77 71.6829 253.037 71.2402C253.304 70.791 253.438 70.2865 253.438 69.7266C253.438 69.1602 253.304 68.6556 253.037 68.2129C252.77 67.7702 252.402 67.4251 251.934 67.1777C251.471 66.9238 250.951 66.7969 250.371 66.7969C249.805 66.7969 249.287 66.9238 248.818 67.1777C248.356 67.4251 247.992 67.7734 247.725 68.2227C247.458 68.6654 247.324 69.1667 247.324 69.7266ZM248.203 75.7031H249.707V79.9219H259.863V81.2109H248.203V75.7031ZM277.598 81.582H276.094V72.5977H273.594V80.6836H272.148V64.6094H273.594V71.2891H276.094V64.2188H277.598V81.582ZM263.652 66.3477H265.176V75.7227C267.168 75.7096 269.062 75.5208 270.859 75.1562L271.055 76.5234C269.909 76.7318 268.825 76.8783 267.803 76.9629C266.787 77.0475 265.762 77.0898 264.727 77.0898H263.652V66.3477ZM288.73 68.4766H280.02V67.2266H283.633V64.7461H285.156V67.2266H288.73V68.4766ZM280.645 73.5938C280.645 72.8385 280.804 72.1615 281.123 71.5625C281.449 70.9635 281.895 70.4948 282.461 70.1562C283.027 69.8177 283.665 69.6484 284.375 69.6484C285.098 69.6484 285.742 69.8177 286.309 70.1562C286.882 70.4948 287.327 70.9635 287.646 71.5625C287.972 72.1549 288.138 72.832 288.145 73.5938C288.138 74.362 287.972 75.0488 287.646 75.6543C287.327 76.2533 286.882 76.7253 286.309 77.0703C285.742 77.4089 285.098 77.5781 284.375 77.5781C283.665 77.5781 283.024 77.4089 282.451 77.0703C281.885 76.7253 281.442 76.2533 281.123 75.6543C280.804 75.0488 280.645 74.362 280.645 73.5938ZM282.012 73.5938C282.012 74.1016 282.113 74.5573 282.314 74.9609C282.516 75.3581 282.796 75.6706 283.154 75.8984C283.512 76.1198 283.919 76.2305 284.375 76.2305C284.831 76.2305 285.241 76.1198 285.605 75.8984C285.97 75.6706 286.257 75.3581 286.465 74.9609C286.673 74.5573 286.777 74.1016 286.777 73.5938C286.777 73.0924 286.673 72.6432 286.465 72.2461C286.257 71.8424 285.97 71.5267 285.605 71.2988C285.241 71.0645 284.831 70.944 284.375 70.9375C283.919 70.944 283.512 71.0645 283.154 71.2988C282.796 71.5267 282.516 71.8424 282.314 72.2461C282.113 72.6432 282.012 73.0924 282.012 73.5938ZM289.629 64.6484H291.074V71.543H293.379V64.2188H294.844V81.582H293.379V72.8125H291.074V80.7227H289.629V64.6484ZM311.367 73.8477H299.375V65.8398H311.191V67.1094H300.898V72.5781H311.367V73.8477ZM297.344 77.9297H313.242V79.2188H297.344V77.9297ZM328.965 73.7695H327.441V64.2383H328.965V73.7695ZM315.508 65.0781H323.438V69.7656H317.031V72.1289C318.796 72.1159 320.283 72.0768 321.494 72.0117C322.712 71.9401 323.971 71.7969 325.273 71.582L325.449 72.8516C324.082 73.0664 322.767 73.2129 321.504 73.291C320.241 73.3626 318.724 73.4049 316.953 73.418H315.547V68.5547H321.914V66.3477H315.508V65.0781ZM317.676 74.6484H319.219V76.7188H327.441V74.6484H328.965V81.3477H317.676V74.6484ZM327.441 80.0977V77.9492H319.219V80.0977H327.441ZM346.23 81.582H344.707V64.2188H346.23V81.582ZM333.047 65.9375H334.551V75.7812C335.983 75.7682 337.38 75.6999 338.74 75.5762C340.101 75.446 341.471 75.2344 342.852 74.9414L343.066 76.25C341.589 76.556 340.15 76.7773 338.75 76.9141C337.357 77.0443 335.924 77.1094 334.453 77.1094H333.047V65.9375ZM362.637 71.0938H365.547V72.3828H362.637V81.6211H361.113V64.2188H362.637V71.0938ZM349.961 65.918H358.066V67.1875H351.484V75.9766C353.125 75.9701 354.548 75.9212 355.752 75.8301C356.956 75.7389 358.184 75.5794 359.434 75.3516L359.629 76.6797C358.34 76.9141 357.077 77.0703 355.84 77.1484C354.609 77.2266 353.105 77.2656 351.328 77.2656H349.961V65.918ZM368.32 80.1172C368.092 80.1172 367.881 80.0586 367.686 79.9414C367.497 79.8242 367.344 79.6712 367.227 79.4824C367.116 79.2871 367.064 79.0755 367.07 78.8477C367.064 78.6263 367.116 78.4212 367.227 78.2324C367.344 78.0371 367.497 77.8841 367.686 77.7734C367.881 77.6562 368.092 77.5977 368.32 77.5977C368.542 77.5977 368.747 77.653 368.936 77.7637C369.131 77.8743 369.284 78.0241 369.395 78.2129C369.512 78.4017 369.57 78.6068 369.57 78.8281C369.57 79.1797 369.45 79.4824 369.209 79.7363C368.968 79.9837 368.672 80.1107 368.32 80.1172Z" fill="#D9D9D9"/>
</svg>
