<svg width="149" height="42" viewBox="0 0 149 42" fill="none" xmlns="http://www.w3.org/2000/svg">
<rect width="149" height="42" rx="4" fill="#1DB8CE"/>
<path d="M48.665 13.61H49.91V23.705H48.665V13.61ZM44.525 14.66H45.845C45.845 15.82 45.585 16.885 45.065 17.855C44.545 18.815 43.81 19.655 42.86 20.375C41.91 21.085 40.795 21.65 39.515 22.07L38.975 21.08C40.085 20.71 41.055 20.235 41.885 19.655C42.725 19.065 43.375 18.395 43.835 17.645C44.295 16.885 44.525 16.06 44.525 15.17V14.66ZM39.65 14.66H45.29V15.68H39.65V14.66ZM45.215 16.385H48.845V17.42H45.215V16.385ZM45.095 19.445H48.8V20.465H45.095V19.445ZM41.33 25.85H50.255V26.87H41.33V25.85ZM41.33 22.715H42.59V26.465H41.33V22.715ZM55.9988 14.975H57.0188V16.085C57.0188 16.905 56.8588 17.675 56.5388 18.395C56.2288 19.115 55.7888 19.745 55.2188 20.285C54.6488 20.815 53.9888 21.22 53.2388 21.5L52.5938 20.51C53.0938 20.33 53.5488 20.09 53.9588 19.79C54.3788 19.49 54.7438 19.145 55.0538 18.755C55.3638 18.355 55.5988 17.93 55.7588 17.48C55.9188 17.02 55.9988 16.555 55.9988 16.085V14.975ZM56.2388 14.975H57.2588V16.07C57.2588 16.65 57.3938 17.215 57.6638 17.765C57.9338 18.305 58.3188 18.79 58.8188 19.22C59.3188 19.64 59.8938 19.97 60.5438 20.21L59.9138 21.185C59.1738 20.915 58.5288 20.525 57.9788 20.015C57.4288 19.505 56.9988 18.91 56.6888 18.23C56.3888 17.55 56.2388 16.83 56.2388 16.07V14.975ZM59.8088 17.135H62.8238V18.17H59.8088V17.135ZM52.9838 14.525H60.2288V15.545H52.9838V14.525ZM54.6488 22.445H63.7088V27.17H62.4638V23.465H54.6488V22.445ZM62.4638 13.595H63.7088V21.71H62.4638V13.595ZM66.3327 20.525H78.6327V21.545H66.3327V20.525ZM71.9427 21.17H73.1877V24.29H71.9427V21.17ZM67.9227 14.24H77.0277V18.995H67.9227V14.24ZM75.8127 15.23H69.1377V18.005H75.8127V15.23ZM67.8927 25.85H77.2677V26.87H67.8927V25.85ZM67.8927 22.985H69.1377V26.195H67.8927V22.985ZM84.5415 14.585C85.2515 14.585 85.8765 14.72 86.4165 14.99C86.9665 15.25 87.3965 15.62 87.7065 16.1C88.0165 16.58 88.1715 17.14 88.1715 17.78C88.1715 18.41 88.0165 18.97 87.7065 19.46C87.3965 19.94 86.9665 20.315 86.4165 20.585C85.8765 20.845 85.2515 20.975 84.5415 20.975C83.8415 20.975 83.2165 20.845 82.6665 20.585C82.1165 20.315 81.6815 19.94 81.3615 19.46C81.0515 18.97 80.8965 18.41 80.8965 17.78C80.8965 17.14 81.0515 16.58 81.3615 16.1C81.6815 15.62 82.1165 15.25 82.6665 14.99C83.2165 14.72 83.8415 14.585 84.5415 14.585ZM84.5415 15.665C84.0815 15.665 83.6665 15.755 83.2965 15.935C82.9365 16.105 82.6515 16.35 82.4415 16.67C82.2315 16.99 82.1265 17.36 82.1265 17.78C82.1265 18.2 82.2315 18.57 82.4415 18.89C82.6515 19.21 82.9365 19.46 83.2965 19.64C83.6665 19.81 84.0815 19.895 84.5415 19.895C85.0115 19.895 85.4265 19.81 85.7865 19.64C86.1465 19.46 86.4315 19.21 86.6415 18.89C86.8515 18.57 86.9565 18.2 86.9565 17.78C86.9565 17.36 86.8515 16.99 86.6415 16.67C86.4315 16.35 86.1465 16.105 85.7865 15.935C85.4265 15.755 85.0115 15.665 84.5415 15.665ZM89.9565 13.595H91.2015V27.185H89.9565V13.595ZM80.3865 24.215L80.2215 23.165C81.0515 23.165 81.9615 23.16 82.9515 23.15C83.9415 23.13 84.9615 23.09 86.0115 23.03C87.0715 22.96 88.0915 22.85 89.0715 22.7L89.1765 23.615C88.1565 23.805 87.1215 23.945 86.0715 24.035C85.0315 24.115 84.0265 24.165 83.0565 24.185C82.0865 24.205 81.1965 24.215 80.3865 24.215ZM105.479 26L104.658 25.1903L108.036 21.8132H99.2891V20.6413H108.036L104.658 17.2749L105.479 16.4545L110.251 21.2273L105.479 26Z" fill="white"/>
</svg>
