<svg width="151" height="29" viewBox="0 0 151 29" fill="none" xmlns="http://www.w3.org/2000/svg">
<path d="M35.6484 23H32.1094V9.38281H32.0156L28.125 11.8203V8.70312L32.3203 6.03125H35.6484V23ZM45.8203 23.2344C44.6562 23.2344 43.6055 23.0195 42.668 22.5898C41.7383 22.1602 41.0039 21.5664 40.4648 20.8086C39.9258 20.043 39.6484 19.1797 39.6328 18.2188H43.0547C43.0781 18.6484 43.2148 19.0352 43.4648 19.3789C43.7227 19.7148 44.0547 19.9766 44.4609 20.1641C44.875 20.3516 45.3281 20.4453 45.8203 20.4453C46.3984 20.4453 46.9141 20.3203 47.3672 20.0703C47.8281 19.8125 48.1836 19.457 48.4336 19.0039C48.6914 18.5508 48.8203 18.0312 48.8203 17.4453C48.8203 16.8516 48.6914 16.3242 48.4336 15.8633C48.1758 15.3945 47.8125 15.0312 47.3438 14.7734C46.8828 14.5078 46.3594 14.375 45.7734 14.375C44.5 14.375 43.6094 14.8516 43.1016 15.8047H39.9141L40.8281 6.03125H51.2812V8.91406H43.7344L43.2656 13.2031H43.4062C43.7188 12.7734 44.1836 12.4297 44.8008 12.1719C45.418 11.9062 46.0938 11.7734 46.8281 11.7734C47.8516 11.7734 48.7734 12.0117 49.5938 12.4883C50.4219 12.9648 51.0703 13.6289 51.5391 14.4805C52.0078 15.332 52.2422 16.2891 52.2422 17.3516C52.2422 18.4844 51.9727 19.5 51.4336 20.3984C50.8945 21.2891 50.1367 21.9844 49.1602 22.4844C48.1914 22.9844 47.0781 23.2344 45.8203 23.2344ZM60.9141 23.2344C59.6875 23.2344 58.5859 23.0234 57.6094 22.6016C56.6406 22.1797 55.875 21.5898 55.3125 20.832C54.7578 20.0664 54.4688 19.1953 54.4453 18.2188H58.0078C58.0234 18.6328 58.1602 19 58.418 19.3203C58.6758 19.6328 59.0234 19.8789 59.4609 20.0586C59.8984 20.2383 60.3906 20.3281 60.9375 20.3281C61.4922 20.3281 61.9883 20.2305 62.4258 20.0352C62.8711 19.832 63.2148 19.5586 63.457 19.2148C63.6992 18.8633 63.8203 18.4609 63.8203 18.0078C63.8203 17.5469 63.6914 17.1406 63.4336 16.7891C63.1758 16.4297 62.8047 16.1484 62.3203 15.9453C61.8359 15.7422 61.2656 15.6406 60.6094 15.6406H59.0391V13.0391H60.6094C61.1641 13.0391 61.6562 12.9453 62.0859 12.7578C62.5156 12.5703 62.8477 12.3047 63.082 11.9609C63.3242 11.6172 63.4453 11.2266 63.4453 10.7891C63.4453 10.3594 63.3438 9.98047 63.1406 9.65234C62.9375 9.32422 62.6484 9.07031 62.2734 8.89062C61.9062 8.70312 61.4766 8.60938 60.9844 8.60938C60.4844 8.60938 60.0234 8.69922 59.6016 8.87891C59.1797 9.05078 58.8398 9.29688 58.582 9.61719C58.3242 9.9375 58.1875 10.3125 58.1719 10.7422H54.7969C54.8125 9.78906 55.0898 8.9375 55.6289 8.1875C56.1758 7.42969 56.9141 6.84375 57.8438 6.42969C58.7734 6.00781 59.8125 5.79688 60.9609 5.79688C62.1172 5.79688 63.1406 6.00781 64.0312 6.42969C64.9297 6.85156 65.6211 7.42578 66.1055 8.15234C66.5977 8.87891 66.8438 9.6875 66.8438 10.5781C66.8438 11.1953 66.7109 11.7578 66.4453 12.2656C66.1797 12.7656 65.8008 13.1797 65.3086 13.5078C64.8242 13.8281 64.2656 14.0469 63.6328 14.1641V14.3047C64.8672 14.4531 65.8203 14.8789 66.4922 15.582C67.1641 16.2852 67.4922 17.1719 67.4766 18.2422C67.4844 19.1953 67.207 20.0547 66.6445 20.8203C66.0898 21.5781 65.3125 22.1719 64.3125 22.6016C63.3125 23.0234 62.1797 23.2344 60.9141 23.2344ZM76.2422 23.2344C75.0156 23.2344 73.9141 23.0234 72.9375 22.6016C71.9688 22.1797 71.2031 21.5898 70.6406 20.832C70.0859 20.0664 69.7969 19.1953 69.7734 18.2188H73.3359C73.3516 18.6328 73.4883 19 73.7461 19.3203C74.0039 19.6328 74.3516 19.8789 74.7891 20.0586C75.2266 20.2383 75.7188 20.3281 76.2656 20.3281C76.8203 20.3281 77.3164 20.2305 77.7539 20.0352C78.1992 19.832 78.543 19.5586 78.7852 19.2148C79.0273 18.8633 79.1484 18.4609 79.1484 18.0078C79.1484 17.5469 79.0195 17.1406 78.7617 16.7891C78.5039 16.4297 78.1328 16.1484 77.6484 15.9453C77.1641 15.7422 76.5938 15.6406 75.9375 15.6406H74.3672V13.0391H75.9375C76.4922 13.0391 76.9844 12.9453 77.4141 12.7578C77.8438 12.5703 78.1758 12.3047 78.4102 11.9609C78.6523 11.6172 78.7734 11.2266 78.7734 10.7891C78.7734 10.3594 78.6719 9.98047 78.4688 9.65234C78.2656 9.32422 77.9766 9.07031 77.6016 8.89062C77.2344 8.70312 76.8047 8.60938 76.3125 8.60938C75.8125 8.60938 75.3516 8.69922 74.9297 8.87891C74.5078 9.05078 74.168 9.29688 73.9102 9.61719C73.6523 9.9375 73.5156 10.3125 73.5 10.7422H70.125C70.1406 9.78906 70.418 8.9375 70.957 8.1875C71.5039 7.42969 72.2422 6.84375 73.1719 6.42969C74.1016 6.00781 75.1406 5.79688 76.2891 5.79688C77.4453 5.79688 78.4688 6.00781 79.3594 6.42969C80.2578 6.85156 80.9492 7.42578 81.4336 8.15234C81.9258 8.87891 82.1719 9.6875 82.1719 10.5781C82.1719 11.1953 82.0391 11.7578 81.7734 12.2656C81.5078 12.7656 81.1289 13.1797 80.6367 13.5078C80.1523 13.8281 79.5938 14.0469 78.9609 14.1641V14.3047C80.1953 14.4531 81.1484 14.8789 81.8203 15.582C82.4922 16.2852 82.8203 17.1719 82.8047 18.2422C82.8125 19.1953 82.5352 20.0547 81.9727 20.8203C81.418 21.5781 80.6406 22.1719 79.6406 22.6016C78.6406 23.0234 77.5078 23.2344 76.2422 23.2344ZM93.2109 15.8984H85.4766V13.1328H93.2109V15.8984ZM102.445 23.2344C101.172 23.2344 100.027 23.0273 99.0117 22.6133C98.0039 22.1992 97.2148 21.6289 96.6445 20.9023C96.0742 20.168 95.7891 19.3438 95.7891 18.4297C95.7891 17.7344 95.9531 17.0859 96.2812 16.4844C96.6094 15.8828 97.0586 15.3867 97.6289 14.9961C98.207 14.5977 98.8438 14.3438 99.5391 14.2344V14.1172C98.9297 14 98.3906 13.7656 97.9219 13.4141C97.4531 13.0547 97.0898 12.6133 96.832 12.0898C96.5742 11.5586 96.4453 10.9844 96.4453 10.3672C96.4453 9.5 96.7031 8.71875 97.2188 8.02344C97.7344 7.32813 98.4492 6.78516 99.3633 6.39453C100.277 5.99609 101.305 5.79688 102.445 5.79688C103.586 5.79688 104.613 5.99609 105.527 6.39453C106.441 6.78516 107.16 7.32813 107.684 8.02344C108.207 8.71875 108.469 9.5 108.469 10.3672C108.469 10.9766 108.332 11.5469 108.059 12.0781C107.793 12.6094 107.426 13.0547 106.957 13.4141C106.488 13.7656 105.961 14 105.375 14.1172V14.2344C106.062 14.3438 106.688 14.5977 107.25 14.9961C107.82 15.3867 108.27 15.8828 108.598 16.4844C108.934 17.0859 109.102 17.7344 109.102 18.4297C109.102 19.3438 108.816 20.168 108.246 20.9023C107.676 21.6289 106.883 22.1992 105.867 22.6133C104.859 23.0273 103.719 23.2344 102.445 23.2344ZM99.4688 18.0781C99.4688 18.5547 99.5898 18.9805 99.832 19.3555C100.082 19.7305 100.434 20.0234 100.887 20.2344C101.34 20.4375 101.859 20.5391 102.445 20.5391C103.031 20.5391 103.551 20.4375 104.004 20.2344C104.457 20.0234 104.805 19.7305 105.047 19.3555C105.297 18.9805 105.422 18.5547 105.422 18.0781C105.422 17.5938 105.293 17.1602 105.035 16.7773C104.785 16.3867 104.434 16.082 103.98 15.8633C103.527 15.6367 103.016 15.5234 102.445 15.5234C101.875 15.5234 101.363 15.6367 100.91 15.8633C100.457 16.082 100.102 16.3867 99.8438 16.7773C99.5938 17.1602 99.4688 17.5938 99.4688 18.0781ZM99.8906 10.7188C99.8906 11.1641 99.9961 11.5625 100.207 11.9141C100.426 12.2656 100.73 12.543 101.121 12.7461C101.512 12.9414 101.953 13.0391 102.445 13.0391C102.938 13.0391 103.379 12.9414 103.77 12.7461C104.16 12.543 104.465 12.2656 104.684 11.9141C104.91 11.5625 105.023 11.1641 105.023 10.7188C105.023 10.2812 104.91 9.89453 104.684 9.55859C104.465 9.21484 104.16 8.94922 103.77 8.76172C103.387 8.56641 102.945 8.46875 102.445 8.46875C101.945 8.46875 101.5 8.56641 101.109 8.76172C100.719 8.94922 100.418 9.21484 100.207 9.55859C99.9961 9.89453 99.8906 10.2812 99.8906 10.7188ZM111.492 20.4453L117.586 14.8438C118.188 14.2656 118.652 13.7891 118.98 13.4141C119.316 13.0312 119.574 12.6523 119.754 12.2773C119.934 11.8945 120.023 11.4844 120.023 11.0469C120.023 10.5547 119.906 10.125 119.672 9.75781C119.445 9.38281 119.125 9.09766 118.711 8.90234C118.305 8.70703 117.844 8.60938 117.328 8.60938C116.523 8.60156 115.883 8.83594 115.406 9.3125C114.93 9.78125 114.695 10.4219 114.703 11.2344H111.352C111.352 10.1484 111.602 9.19531 112.102 8.375C112.609 7.54687 113.316 6.91016 114.223 6.46484C115.137 6.01953 116.188 5.79688 117.375 5.79688C118.57 5.79688 119.625 6.01172 120.539 6.44141C121.453 6.86328 122.16 7.45312 122.66 8.21094C123.168 8.96875 123.422 9.83594 123.422 10.8125C123.422 11.4844 123.293 12.1289 123.035 12.7461C122.777 13.3555 122.328 14.0352 121.688 14.7852C121.055 15.5352 120.156 16.4375 118.992 17.4922L116.414 20V20.0938H123.656V23H111.516L111.492 20.4453ZM133.477 23H129.938V9.38281H129.844L125.953 11.8203V8.70312L130.148 6.03125H133.477V23ZM137.391 20.4453L143.484 14.8438C144.086 14.2656 144.551 13.7891 144.879 13.4141C145.215 13.0312 145.473 12.6523 145.652 12.2773C145.832 11.8945 145.922 11.4844 145.922 11.0469C145.922 10.5547 145.805 10.125 145.57 9.75781C145.344 9.38281 145.023 9.09766 144.609 8.90234C144.203 8.70703 143.742 8.60938 143.227 8.60938C142.422 8.60156 141.781 8.83594 141.305 9.3125C140.828 9.78125 140.594 10.4219 140.602 11.2344H137.25C137.25 10.1484 137.5 9.19531 138 8.375C138.508 7.54687 139.215 6.91016 140.121 6.46484C141.035 6.01953 142.086 5.79688 143.273 5.79688C144.469 5.79688 145.523 6.01172 146.438 6.44141C147.352 6.86328 148.059 7.45312 148.559 8.21094C149.066 8.96875 149.32 9.83594 149.32 10.8125C149.32 11.4844 149.191 12.1289 148.934 12.7461C148.676 13.3555 148.227 14.0352 147.586 14.7852C146.953 15.5352 146.055 16.4375 144.891 17.4922L142.312 20V20.0938H149.555V23H137.414L137.391 20.4453Z" fill="white"/>
<path d="M19.95 24C17.8667 24 15.8083 23.5458 13.775 22.6375C11.7417 21.7292 9.89167 20.4417 8.225 18.775C6.55833 17.1083 5.27083 15.2583 4.3625 13.225C3.45417 11.1917 3 9.13333 3 7.05C3 6.75 3.1 6.5 3.3 6.3C3.5 6.1 3.75 6 4.05 6H8.1C8.33333 6 8.54167 6.07917 8.725 6.2375C8.90833 6.39583 9.01667 6.58333 9.05 6.8L9.7 10.3C9.73333 10.5667 9.725 10.7917 9.675 10.975C9.625 11.1583 9.53333 11.3167 9.4 11.45L6.975 13.9C7.30833 14.5167 7.70417 15.1125 8.1625 15.6875C8.62083 16.2625 9.125 16.8167 9.675 17.35C10.1917 17.8667 10.7333 18.3458 11.3 18.7875C11.8667 19.2292 12.4667 19.6333 13.1 20L15.45 17.65C15.6 17.5 15.7958 17.3875 16.0375 17.3125C16.2792 17.2375 16.5167 17.2167 16.75 17.25L20.2 17.95C20.4333 18.0167 20.625 18.1375 20.775 18.3125C20.925 18.4875 21 18.6833 21 18.9V22.95C21 23.25 20.9 23.5 20.7 23.7C20.5 23.9 20.25 24 19.95 24Z" fill="white"/>
</svg>
