<svg width="842" height="25" viewBox="0 0 842 25" fill="none" xmlns="http://www.w3.org/2000/svg">
<path d="M16.3359 8.55469H19.5938V10.4062H16.3359V21.1641H14.1094V0.1875H16.3359V8.55469ZM0 15.5625C2.625 14.25 4.65234 12.6484 6.08203 10.7578C7.51953 8.86719 8.35156 6.69531 8.57812 4.24219H1.05469V2.39062H10.8516C10.8359 5.59375 10.0586 8.47266 8.51953 11.0273C6.98047 13.5742 4.55469 15.6641 1.24219 17.2969L0 15.5625ZM37.7466 12.6797H35.52V7.35938H31.6059V5.53125H35.52V0.1875H37.7466V12.6797ZM20.2388 10.7812C21.3013 10.4062 22.2309 9.86719 23.0278 9.16406C23.8247 8.45312 24.4341 7.64453 24.8559 6.73828C25.2856 5.82422 25.4966 4.88281 25.4888 3.91406V3.44531H20.9419V1.64062H32.2622V3.44531H27.7622V3.89062C27.7544 4.78125 27.9536 5.64453 28.3598 6.48047C28.7661 7.31641 29.352 8.0625 30.1177 8.71875C30.8833 9.36719 31.7856 9.86719 32.8247 10.2188L31.6763 11.9766C30.52 11.5781 29.5122 10.9844 28.6528 10.1953C27.8013 9.39844 27.1411 8.46875 26.6723 7.40625C26.2114 8.59375 25.5278 9.63672 24.6216 10.5352C23.7153 11.4336 22.645 12.1094 21.4106 12.5625L20.2388 10.7812ZM23.6138 17.2266C23.6138 16.3984 23.895 15.6914 24.4575 15.1055C25.0278 14.5117 25.8442 14.0586 26.9067 13.7461C27.977 13.4258 29.2466 13.2656 30.7153 13.2656C32.1763 13.2656 33.438 13.4258 34.5005 13.7461C35.563 14.0586 36.3794 14.5117 36.9497 15.1055C37.5278 15.6914 37.8169 16.3984 37.8169 17.2266C37.8169 18.0547 37.5278 18.7617 36.9497 19.3477C36.3794 19.9414 35.563 20.3945 34.5005 20.707C33.438 21.0273 32.1763 21.1875 30.7153 21.1875C29.2466 21.1875 27.977 21.0273 26.9067 20.707C25.8442 20.3945 25.0278 19.9414 24.4575 19.3477C23.895 18.7617 23.6138 18.0547 23.6138 17.2266ZM25.8169 17.2266C25.8091 17.9375 26.2348 18.4883 27.0942 18.8789C27.9614 19.2617 29.1684 19.4453 30.7153 19.4297C32.2466 19.4453 33.4419 19.2617 34.3013 18.8789C35.1684 18.4883 35.6059 17.9375 35.6138 17.2266C35.6059 16.5234 35.1763 15.9766 34.3247 15.5859C33.4809 15.1953 32.3013 15 30.7856 15C29.2075 15 27.9809 15.1914 27.1059 15.5742C26.2388 15.957 25.8091 16.5078 25.8169 17.2266ZM59.6494 12.2344H40.5009V10.4297H45.0947V7.60547C44.2666 7.26953 43.6338 6.83984 43.1963 6.31641C42.7666 5.79297 42.5556 5.1875 42.5634 4.5C42.5634 3.67969 42.8642 2.97266 43.4658 2.37891C44.0752 1.78516 44.9423 1.33594 46.0673 1.03125C47.2002 0.71875 48.5322 0.5625 50.0634 0.5625C51.5947 0.5625 52.9228 0.71875 54.0478 1.03125C55.1728 1.33594 56.04 1.78516 56.6494 2.37891C57.2588 2.97266 57.5634 3.67969 57.5634 4.5C57.5556 5.1875 57.333 5.79688 56.8955 6.32812C56.458 6.85156 55.8291 7.28125 55.0088 7.61719V10.4297H59.6494V12.2344ZM42.7744 17.3906C42.7744 16.5938 43.0634 15.918 43.6416 15.3633C44.2197 14.8086 45.0517 14.3867 46.1377 14.0977C47.2314 13.8086 48.54 13.6641 50.0634 13.6641C51.5634 13.6641 52.8564 13.8086 53.9423 14.0977C55.0283 14.3867 55.8603 14.8125 56.4384 15.375C57.0166 15.9297 57.3056 16.6016 57.3056 17.3906C57.3056 18.1875 57.0166 18.8672 56.4384 19.4297C55.8603 19.9922 55.0283 20.418 53.9423 20.707C52.8642 20.9961 51.5713 21.1406 50.0634 21.1406C48.54 21.1406 47.2314 20.9961 46.1377 20.707C45.0517 20.418 44.2197 19.9922 43.6416 19.4297C43.0634 18.875 42.7744 18.1953 42.7744 17.3906ZM44.8603 4.5C44.8525 5.19531 45.3056 5.73438 46.2197 6.11719C47.1338 6.5 48.415 6.69531 50.0634 6.70312C51.7041 6.69531 52.9814 6.5 53.8955 6.11719C54.8173 5.73438 55.2744 5.19531 55.2666 4.5C55.2666 4.03906 55.0595 3.64063 54.6455 3.30469C54.2314 2.96875 53.6338 2.71484 52.8525 2.54297C52.0713 2.36328 51.1416 2.27344 50.0634 2.27344C48.4228 2.28125 47.1416 2.48047 46.2197 2.87109C45.3056 3.25391 44.8525 3.79688 44.8603 4.5ZM45.0244 17.3906C45.0166 18.0469 45.4541 18.5547 46.3369 18.9141C47.2197 19.2656 48.4619 19.4375 50.0634 19.4297C51.6494 19.4453 52.8798 19.2734 53.7548 18.9141C54.6377 18.5547 55.0791 18.0469 55.0791 17.3906C55.0791 16.75 54.6377 16.2539 53.7548 15.9023C52.8798 15.5508 51.6494 15.375 50.0634 15.375C48.4541 15.375 47.208 15.5508 46.3252 15.9023C45.4502 16.2539 45.0166 16.75 45.0244 17.3906ZM52.8056 10.4297V8.19141C51.9619 8.32422 51.0478 8.39062 50.0634 8.39062C49.1259 8.39062 48.2197 8.32812 47.3447 8.20312V10.4297H52.8056ZM79.9584 14.2969H71.3803V21.1875H69.2006V14.2969H60.7397V12.5391H79.9584V14.2969ZM63.1303 1.03125H65.3334V3.77344H75.3178V1.03125H77.5444V10.1484H63.1303V1.03125ZM75.3178 8.36719V5.55469H65.3334V8.36719H75.3178ZM98.5331 21.2344H96.33V9.77344H92.1581V7.94531H96.33V0.1875H98.5331V21.2344ZM81.9863 2.0625H91.8066V3.86719H84.2363V7.94531H90.9159V9.72656H84.2363V14.4141C86.1191 14.4141 87.7128 14.375 89.0175 14.2969C90.33 14.2109 91.6503 14.0547 92.9784 13.8281L93.2128 15.6328C91.7441 15.8672 90.2909 16.0312 88.8534 16.125C87.4159 16.2109 85.6738 16.2578 83.6269 16.2656H81.9863V2.0625ZM113.956 4.03125C113.956 4.96875 114.163 5.87109 114.577 6.73828C114.999 7.60547 115.597 8.375 116.37 9.04688C117.151 9.71094 118.065 10.2188 119.112 10.5703L117.964 12.3281C116.8 11.9219 115.784 11.3203 114.917 10.5234C114.058 9.71875 113.393 8.78125 112.925 7.71094C112.464 8.90625 111.788 9.94531 110.897 10.8281C110.015 11.7031 108.964 12.3672 107.745 12.8203L106.503 11.0625C107.589 10.6875 108.526 10.1445 109.315 9.43359C110.104 8.71484 110.706 7.88672 111.12 6.94922C111.534 6.00391 111.745 5.00781 111.753 3.96094V1.47656H113.956V4.03125ZM109.878 14.1562H112.151V18.9375H124.081V20.7422H109.878V14.1562ZM120.94 0.164062H123.167V6.49219H126.214V8.39062H123.167V15.6562H120.94V0.164062ZM132.742 1.14844C133.656 1.14062 134.492 1.30078 135.249 1.62891C136.007 1.95703 136.636 2.42188 137.136 3.02344C137.636 3.61719 137.96 4.30469 138.109 5.08594H142.21V0.1875H144.437V11.4609H142.21V6.91406H138.12C137.98 7.71094 137.66 8.41406 137.16 9.02344C136.66 9.63281 136.027 10.1055 135.261 10.4414C134.503 10.7773 133.663 10.9453 132.742 10.9453C131.679 10.9453 130.73 10.7383 129.894 10.3242C129.058 9.90234 128.406 9.32031 127.937 8.57812C127.468 7.82812 127.234 6.97656 127.234 6.02344C127.234 5.08594 127.468 4.24609 127.937 3.50391C128.406 2.75391 129.058 2.17187 129.894 1.75781C130.738 1.34375 131.687 1.14062 132.742 1.14844ZM129.367 6.02344C129.367 6.60938 129.507 7.13672 129.788 7.60547C130.077 8.06641 130.476 8.42578 130.984 8.68359C131.499 8.94141 132.085 9.07031 132.742 9.07031C133.382 9.07031 133.952 8.94141 134.452 8.68359C134.96 8.42578 135.355 8.06641 135.636 7.60547C135.925 7.14453 136.07 6.61719 136.07 6.02344C136.07 5.42969 135.925 4.90234 135.636 4.44141C135.355 3.98047 134.96 3.625 134.452 3.375C133.952 3.125 133.382 3 132.742 3C132.085 3 131.499 3.125 130.984 3.375C130.476 3.625 130.077 3.98047 129.788 4.44141C129.507 4.90234 129.367 5.42969 129.367 6.02344ZM130.749 12.4688H132.952V14.9062H142.21V12.4688H144.437V20.9297H130.749V12.4688ZM142.21 19.1016V16.6641H132.952V19.1016H142.21ZM166.34 12.2344H147.191V10.4297H151.785V7.60547C150.957 7.26953 150.324 6.83984 149.887 6.31641C149.457 5.79297 149.246 5.1875 149.254 4.5C149.254 3.67969 149.555 2.97266 150.156 2.37891C150.765 1.78516 151.633 1.33594 152.758 1.03125C153.89 0.71875 155.223 0.5625 156.754 0.5625C158.285 0.5625 159.613 0.71875 160.738 1.03125C161.863 1.33594 162.73 1.78516 163.34 2.37891C163.949 2.97266 164.254 3.67969 164.254 4.5C164.246 5.1875 164.023 5.79688 163.586 6.32812C163.148 6.85156 162.519 7.28125 161.699 7.61719V10.4297H166.34V12.2344ZM149.465 17.3906C149.465 16.5938 149.754 15.918 150.332 15.3633C150.91 14.8086 151.742 14.3867 152.828 14.0977C153.922 13.8086 155.23 13.6641 156.754 13.6641C158.254 13.6641 159.547 13.8086 160.633 14.0977C161.719 14.3867 162.551 14.8125 163.129 15.375C163.707 15.9297 163.996 16.6016 163.996 17.3906C163.996 18.1875 163.707 18.8672 163.129 19.4297C162.551 19.9922 161.719 20.418 160.633 20.707C159.555 20.9961 158.262 21.1406 156.754 21.1406C155.23 21.1406 153.922 20.9961 152.828 20.707C151.742 20.418 150.91 19.9922 150.332 19.4297C149.754 18.875 149.465 18.1953 149.465 17.3906ZM151.551 4.5C151.543 5.19531 151.996 5.73438 152.91 6.11719C153.824 6.5 155.105 6.69531 156.754 6.70312C158.394 6.69531 159.672 6.5 160.586 6.11719C161.508 5.73438 161.965 5.19531 161.957 4.5C161.957 4.03906 161.75 3.64063 161.336 3.30469C160.922 2.96875 160.324 2.71484 159.543 2.54297C158.762 2.36328 157.832 2.27344 156.754 2.27344C155.113 2.28125 153.832 2.48047 152.91 2.87109C151.996 3.25391 151.543 3.79688 151.551 4.5ZM151.715 17.3906C151.707 18.0469 152.144 18.5547 153.027 18.9141C153.91 19.2656 155.152 19.4375 156.754 19.4297C158.34 19.4453 159.57 19.2734 160.445 18.9141C161.328 18.5547 161.769 18.0469 161.769 17.3906C161.769 16.75 161.328 16.2539 160.445 15.9023C159.57 15.5508 158.34 15.375 156.754 15.375C155.144 15.375 153.898 15.5508 153.015 15.9023C152.14 16.2539 151.707 16.75 151.715 17.3906ZM159.496 10.4297V8.19141C158.652 8.32422 157.738 8.39062 156.754 8.39062C155.816 8.39062 154.91 8.32812 154.035 8.20312V10.4297H159.496ZM184.141 8.71875H187.188V10.5469H184.141V21.1875H181.914V0.1875H184.141V8.71875ZM167.266 15.2812C168.735 13.75 169.805 12.0898 170.477 10.3008C171.157 8.51172 171.555 6.5 171.672 4.26562H168.016V2.4375H173.782C173.774 4.33594 173.633 6.08984 173.36 7.69922C173.086 9.30078 172.598 10.8477 171.895 12.3398C171.2 13.832 170.242 15.2266 169.024 16.5234L167.266 15.2812ZM173.266 16.6875C174.727 14.9844 175.77 13.1094 176.395 11.0625C177.02 9.01562 177.379 6.75 177.473 4.26562H174.461V2.4375H179.571C179.571 4.45312 179.453 6.33203 179.219 8.07422C178.985 9.81641 178.532 11.5312 177.86 13.2188C177.196 14.9062 176.258 16.4688 175.047 17.9062L173.266 16.6875ZM195.45 6.375C195.45 7.53125 195.684 8.67969 196.153 9.82031C196.63 10.9609 197.286 11.9805 198.122 12.8789C198.966 13.7773 199.919 14.4531 200.981 14.9062L199.762 16.6406C198.536 16.1016 197.45 15.2852 196.505 14.1914C195.559 13.0977 194.841 11.8438 194.348 10.4297C193.856 11.9453 193.137 13.3008 192.192 14.4961C191.247 15.6914 190.169 16.5859 188.958 17.1797L187.669 15.4219C188.708 14.9375 189.645 14.2148 190.481 13.2539C191.325 12.2852 191.985 11.1953 192.462 9.98438C192.946 8.77344 193.192 7.57031 193.2 6.375V4.14844H188.395V2.29688H200.231V4.14844H195.45V6.375ZM202.88 0.1875H205.106V21.1875H202.88V0.1875ZM209.876 24.0469H207.884L209.126 17.5781H211.751L209.876 24.0469ZM238.237 18.5625H219.018V16.7109H227.479V11.8594H221.221V1.875H235.94V11.8594H229.682V16.7109H238.237V18.5625ZM233.76 10.1016V3.65625H223.377V10.1016H233.76ZM258.452 12.4922H239.28V10.7109H258.452V12.4922ZM241.671 1.05469H256.085V2.83594H243.897V6.77344H256.296V8.60156H241.671V1.05469ZM241.694 14.5547H243.897V18.9141H256.436V20.7422H241.694V14.5547ZM281.468 3V3.71484C281.468 4.81641 281.429 5.91016 281.351 6.99609C281.281 8.07422 281.129 9.27344 280.894 10.5938H284.07V12.4219H279.172V21.1641H276.968V12.4219H271.929V21.1641H269.703V12.4219H264.922V10.5938H278.644C278.925 9.1875 279.105 7.92578 279.183 6.80859C279.269 5.68359 279.312 4.51562 279.312 3.30469H267.312V1.47656H281.468V3ZM304.402 18.5625H285.184V16.7109H293.645V11.8594H287.387V1.875H302.106V11.8594H295.848V16.7109H304.402V18.5625ZM299.926 10.1016V3.65625H289.543V10.1016H299.926ZM312.29 1.6875C313.383 1.6875 314.364 1.89844 315.231 2.32031C316.098 2.73437 316.778 3.32422 317.27 4.08984C317.762 4.84766 318.008 5.71094 318.008 6.67969C318.008 7.64844 317.762 8.51562 317.27 9.28125C316.778 10.0391 316.098 10.6328 315.231 11.0625C314.364 11.4844 313.383 11.6953 312.29 11.6953C311.196 11.6953 310.212 11.4844 309.337 11.0625C308.469 10.6328 307.79 10.0391 307.297 9.28125C306.813 8.51562 306.571 7.64844 306.571 6.67969C306.571 5.71094 306.813 4.84766 307.297 4.08984C307.79 3.33203 308.469 2.74219 309.337 2.32031C310.212 1.89844 311.196 1.6875 312.29 1.6875ZM305.563 14.8594C308.204 14.8594 310.641 14.8164 312.876 14.7305C315.11 14.6445 317.243 14.4531 319.274 14.1562L319.438 15.7734C317.344 16.1797 315.215 16.4375 313.051 16.5469C310.895 16.6562 308.493 16.7109 305.844 16.7109L305.563 14.8594ZM308.774 6.67969C308.766 7.28906 308.911 7.82812 309.208 8.29688C309.512 8.75781 309.93 9.11719 310.462 9.375C311.001 9.625 311.61 9.75 312.29 9.75C312.969 9.75 313.575 9.625 314.106 9.375C314.645 9.11719 315.067 8.75781 315.372 8.29688C315.676 7.82812 315.829 7.28906 315.829 6.67969C315.829 6.07812 315.676 5.54688 315.372 5.08594C315.067 4.61719 314.645 4.25391 314.106 3.99609C313.567 3.73828 312.962 3.60938 312.29 3.60938C311.61 3.60938 311.001 3.73828 310.462 3.99609C309.93 4.25391 309.512 4.61719 309.208 5.08594C308.911 5.54688 308.766 6.07812 308.774 6.67969ZM320.587 0.1875H322.813V21.2344H320.587V0.1875ZM349.158 21.1875H347.025V0.1875H349.158V21.1875ZM331.322 9.25781C331.322 7.75781 331.505 6.45312 331.873 5.34375C332.248 4.22656 332.775 3.37109 333.455 2.77734C334.142 2.17578 334.939 1.875 335.845 1.875C336.689 1.875 337.435 2.12891 338.084 2.63672C338.74 3.14453 339.263 3.87891 339.654 4.83984C340.052 5.79297 340.295 6.92188 340.38 8.22656H342.759V0.585938H344.892V20.1562H342.759V10.0312H340.392C340.33 11.3906 340.103 12.5703 339.712 13.5703C339.322 14.5625 338.795 15.3281 338.13 15.8672C337.466 16.3984 336.705 16.6641 335.845 16.6641C334.939 16.6641 334.142 16.3672 333.455 15.7734C332.775 15.1719 332.248 14.3125 331.873 13.1953C331.505 12.0703 331.322 10.7578 331.322 9.25781ZM333.384 9.25781C333.384 10.3594 333.482 11.3086 333.677 12.1055C333.88 12.9023 334.166 13.5117 334.533 13.9336C334.908 14.3477 335.345 14.5547 335.845 14.5547C336.361 14.5547 336.806 14.3477 337.181 13.9336C337.556 13.5117 337.845 12.9023 338.048 12.1055C338.252 11.3086 338.353 10.3594 338.353 9.25781C338.353 8.14844 338.252 7.19922 338.048 6.41016C337.845 5.61328 337.556 5.00781 337.181 4.59375C336.806 4.17188 336.361 3.96094 335.845 3.96094C335.345 3.96094 334.908 4.17188 334.533 4.59375C334.166 5.00781 333.88 5.61328 333.677 6.41016C333.482 7.20703 333.384 8.15625 333.384 9.25781ZM357.045 1.75781C357.99 1.75781 358.842 2.01562 359.6 2.53125C360.358 3.04688 360.971 3.77734 361.44 4.72266C361.916 5.66797 362.209 6.78125 362.318 8.0625H366.654V0.1875H368.858V21.2344H366.654V9.86719H362.342C362.264 11.2188 361.99 12.3945 361.522 13.3945C361.053 14.3945 360.432 15.1641 359.658 15.7031C358.885 16.2344 358.014 16.5 357.045 16.5C356.006 16.5 355.08 16.1992 354.268 15.5977C353.463 14.9961 352.834 14.1367 352.381 13.0195C351.936 11.9023 351.717 10.6016 351.725 9.11719C351.717 7.64844 351.936 6.35938 352.381 5.25C352.834 4.13281 353.463 3.27344 354.268 2.67188C355.08 2.0625 356.006 1.75781 357.045 1.75781ZM353.834 9.11719C353.834 10.2109 353.967 11.1641 354.233 11.9766C354.506 12.7891 354.885 13.4141 355.369 13.8516C355.854 14.2891 356.412 14.5078 357.045 14.5078C357.678 14.5078 358.236 14.2891 358.721 13.8516C359.205 13.4141 359.58 12.7891 359.846 11.9766C360.119 11.1641 360.256 10.2109 360.256 9.11719C360.256 8.03906 360.119 7.09766 359.846 6.29297C359.572 5.48047 359.193 4.85547 358.709 4.41797C358.233 3.97266 357.678 3.75 357.045 3.75C356.412 3.75 355.854 3.97266 355.369 4.41797C354.893 4.85547 354.518 5.48047 354.244 6.29297C353.971 7.09766 353.834 8.03906 353.834 9.11719ZM382.581 1.85156C382.573 4.72656 381.807 7.14844 380.284 9.11719C378.768 11.0859 376.338 12.625 372.995 13.7344L372.104 11.9766C375.378 10.9141 377.651 9.42188 378.924 7.5L372.385 8.03906L372.034 6.23438L379.745 5.90625C380.003 5.1875 380.167 4.4375 380.237 3.65625H373.088V1.85156H382.581ZM375.667 14.2266H377.917V18.9375H389.706V20.7422H375.667V14.2266ZM382.51 6.77344H386.893V0.210938H389.12V15.75H386.893V8.60156H382.51V6.77344ZM414.761 10.9922H412.535V5.60156H408.105V3.79688H412.535V0.1875H414.761V10.9922ZM397.183 9.30469C398.261 8.96094 399.195 8.46094 399.984 7.80469C400.773 7.14062 401.378 6.37109 401.8 5.49609C402.222 4.61328 402.433 3.67969 402.433 2.69531V0.867188H404.636V2.69531C404.636 3.58594 404.839 4.44141 405.246 5.26172C405.66 6.07422 406.25 6.79688 407.015 7.42969C407.781 8.05469 408.683 8.53125 409.722 8.85938L408.55 10.5938C407.41 10.1953 406.41 9.61719 405.55 8.85938C404.699 8.10156 404.039 7.21875 403.57 6.21094C403.109 7.35938 402.433 8.35547 401.543 9.19922C400.66 10.0352 399.605 10.6641 398.378 11.0859L397.183 9.30469ZM401.027 11.9766H414.761V17.2031H403.253V19.1484H415.488V20.9297H401.074V15.5156H412.558V13.7344H401.027V11.9766ZM434.906 21.1875H432.68V0.1875H434.906V21.1875ZM417.82 15.4453C418.883 14.9688 419.824 14.2852 420.645 13.3945C421.465 12.5039 422.102 11.4961 422.555 10.3711C423.008 9.24609 423.234 8.10156 423.234 6.9375V5.55469H418.453V3.77344H423.211V0.609375H425.414V3.77344H430.125V5.55469H425.414V6.9375C425.414 8.04688 425.645 9.14453 426.105 10.2305C426.566 11.3086 427.211 12.2773 428.039 13.1367C428.875 13.9883 429.828 14.6406 430.898 15.0938L429.68 16.8047C428.477 16.2812 427.41 15.5039 426.48 14.4727C425.559 13.4336 424.852 12.2461 424.359 10.9102C423.883 12.332 423.18 13.5938 422.25 14.6953C421.328 15.7891 420.266 16.6094 419.062 17.1562L417.82 15.4453ZM443.931 12.1406C443.931 11.7266 444.067 11.3828 444.341 11.1094C444.614 10.8281 444.985 10.6875 445.454 10.6875C445.938 10.6875 446.317 10.8242 446.591 11.0977C446.872 11.3633 447.017 11.7109 447.024 12.1406C447.017 12.5625 446.876 12.9062 446.603 13.1719C446.329 13.4375 445.954 13.5703 445.478 13.5703C445.001 13.5703 444.622 13.4375 444.341 13.1719C444.067 12.8984 443.931 12.5547 443.931 12.1406ZM471.307 4.45312V4.71094C471.291 6.44531 471.236 7.97656 471.142 9.30469C471.057 10.625 470.853 12.1484 470.533 13.875L468.353 13.6406C468.65 12.1172 468.846 10.7148 468.939 9.43359C469.033 8.14453 469.08 6.77734 469.08 5.33203V4.45312V4.00781H456.213V2.20312H471.307V4.45312ZM454.244 16.5H458.767V9.70312H460.994V16.5H464.017V9.70312H466.197V16.5H473.392V18.3516H454.244V16.5ZM480.788 6.63281C480.788 7.75 480.955 8.84375 481.291 9.91406C481.635 10.9766 482.139 11.9414 482.803 12.8086C483.475 13.668 484.28 14.3516 485.217 14.8594L483.975 16.5C482.983 15.9766 482.131 15.2422 481.42 14.2969C480.709 13.3516 480.159 12.2656 479.768 11.0391C479.377 12.3516 478.827 13.5234 478.116 14.5547C477.413 15.5859 476.569 16.3984 475.584 16.9922L474.272 15.3047C475.209 14.7578 476.01 14.0234 476.674 13.1016C477.338 12.1797 477.838 11.1602 478.174 10.043C478.518 8.92578 478.694 7.78906 478.702 6.63281V5.78906H474.905V3.96094H478.702V0.9375H480.788V3.96094H484.514V5.78906H480.788V6.63281ZM483.131 8.36719H486.155V0.632812H488.264V20.1328H486.155V10.2188H483.131V8.36719ZM490.397 0.1875H492.53V21.1875H490.397V0.1875ZM500.921 12.1406C500.921 11.7266 501.058 11.3828 501.331 11.1094C501.605 10.8281 501.976 10.6875 502.445 10.6875C502.929 10.6875 503.308 10.8242 503.581 11.0977C503.863 11.3633 504.007 11.7109 504.015 12.1406C504.007 12.5625 503.867 12.9062 503.593 13.1719C503.32 13.4375 502.945 13.5703 502.468 13.5703C501.992 13.5703 501.613 13.4375 501.331 13.1719C501.058 12.8984 500.921 12.5547 500.921 12.1406ZM530.43 13.875H525.555V21.1875H523.305V13.875H518.289V21.1875H515.992V13.875H511.211V12.0469H530.43V13.875ZM513.297 5.625C513.297 4.69531 513.61 3.87891 514.235 3.17578C514.867 2.47266 515.746 1.93359 516.871 1.55859C518.004 1.17578 519.305 0.984375 520.774 0.984375C522.242 0.984375 523.543 1.17578 524.676 1.55859C525.809 1.93359 526.688 2.47266 527.313 3.17578C527.938 3.87891 528.25 4.69531 528.25 5.625C528.25 6.54688 527.938 7.35156 527.313 8.03906C526.688 8.72656 525.809 9.25781 524.676 9.63281C523.543 10 522.242 10.1797 520.774 10.1719C519.305 10.1797 518.004 10 516.871 9.63281C515.746 9.25781 514.867 8.72656 514.235 8.03906C513.61 7.35156 513.297 6.54688 513.297 5.625ZM515.594 5.625C515.594 6.19531 515.805 6.69141 516.227 7.11328C516.657 7.52734 517.262 7.84766 518.043 8.07422C518.832 8.30078 519.742 8.41406 520.774 8.41406C521.813 8.41406 522.723 8.30078 523.504 8.07422C524.285 7.84766 524.891 7.52734 525.321 7.11328C525.758 6.69141 525.977 6.19531 525.977 5.625C525.977 5.03906 525.758 4.53516 525.321 4.11328C524.891 3.68359 524.285 3.35156 523.504 3.11719C522.723 2.88281 521.813 2.76562 520.774 2.76562C519.735 2.76562 518.825 2.88281 518.043 3.11719C517.262 3.35156 516.657 3.68359 516.227 4.11328C515.805 4.54297 515.594 5.04688 515.594 5.625ZM539.231 6.375C539.231 7.53125 539.466 8.67969 539.934 9.82031C540.411 10.9609 541.067 11.9805 541.903 12.8789C542.747 13.7773 543.7 14.4531 544.763 14.9062L543.544 16.6406C542.317 16.1016 541.231 15.2852 540.286 14.1914C539.341 13.0977 538.622 11.8438 538.13 10.4297C537.638 11.9453 536.919 13.3008 535.973 14.4961C535.028 15.6914 533.95 16.5859 532.739 17.1797L531.45 15.4219C532.489 14.9375 533.427 14.2148 534.263 13.2539C535.106 12.2852 535.766 11.1953 536.243 9.98438C536.727 8.77344 536.973 7.57031 536.981 6.375V4.14844H532.177V2.29688H544.013V4.14844H539.231V6.375ZM546.661 0.1875H548.888V21.1875H546.661V0.1875ZM570.978 18.5859H551.759V16.7344H560.22V12.4219H553.962V1.61719H556.189V5.22656H566.501V1.61719H568.704V12.4219H562.423V16.7344H570.978V18.5859ZM566.501 10.6172V7.03125H556.189V10.6172H566.501ZM582.779 2.03906C582.779 2.95312 583.115 3.83203 583.787 4.67578C584.467 5.51953 585.381 6.23828 586.529 6.83203C587.685 7.42578 588.943 7.8125 590.302 7.99219L589.435 9.82031C588.295 9.64062 587.213 9.32812 586.189 8.88281C585.166 8.4375 584.26 7.88672 583.47 7.23047C582.689 6.56641 582.072 5.82812 581.619 5.01562C581.166 5.82812 580.545 6.56641 579.756 7.23047C578.974 7.88672 578.076 8.4375 577.06 8.88281C576.045 9.32031 574.967 9.63281 573.826 9.82031L572.935 7.99219C574.295 7.8125 575.549 7.42969 576.697 6.84375C577.845 6.25781 578.76 5.54297 579.439 4.69922C580.119 3.84766 580.459 2.96094 580.459 2.03906V0.890625H582.779V2.03906ZM572.021 11.8828H591.17V13.7109H582.638V21.1875H580.459V13.7109H572.021V11.8828ZM598.436 12.1406C598.436 11.7266 598.573 11.3828 598.846 11.1094C599.12 10.8281 599.491 10.6875 599.96 10.6875C600.444 10.6875 600.823 10.8242 601.096 11.0977C601.378 11.3633 601.522 11.7109 601.53 12.1406C601.522 12.5625 601.382 12.9062 601.108 13.1719C600.835 13.4375 600.46 13.5703 599.983 13.5703C599.507 13.5703 599.128 13.4375 598.846 13.1719C598.573 12.8984 598.436 12.5547 598.436 12.1406ZM617.117 8.08594H611.867V11.0391C613.226 11.0312 614.422 10.9883 615.453 10.9102C616.492 10.832 617.562 10.6875 618.664 10.4766L618.898 12.2578C617.703 12.4844 616.535 12.6367 615.394 12.7148C614.254 12.7852 612.812 12.8281 611.07 12.8438H609.687V6.42188H614.961V3.60938H609.64V1.85156H617.117V8.08594ZM612.734 14.3906H614.937V18.9375H627.265V20.7422H612.734V14.3906ZM617.937 5.83594H620.328V0.585938H622.461V15.4453H620.328V7.6875H617.937V5.83594ZM624.547 0.210938H626.656V15.9844H624.547V0.210938ZM639.676 2.95312H632.153V4.89844H639.278V6.60938H632.153V8.69531C634.285 8.6875 635.981 8.65234 637.238 8.58984C638.504 8.51953 639.778 8.38281 641.059 8.17969L641.27 9.9375C639.903 10.1641 638.539 10.3125 637.18 10.3828C635.82 10.4531 633.949 10.4922 631.567 10.5H629.926V1.17188H639.676V2.95312ZM631.942 12.0703H645.512V17.2266H634.168V19.2422H646.238V20.9766H631.988V15.5859H643.309V13.8281H631.942V12.0703ZM643.285 0.1875H645.512V4.61719H648.559V6.44531H645.512V11.1094H643.285V0.1875ZM662.224 5.53125C662.224 6.80469 662.446 8.05469 662.892 9.28125C663.345 10.5 663.978 11.582 664.79 12.5273C665.603 13.4727 666.536 14.1797 667.591 14.6484L666.232 16.4297C665.06 15.8359 664.032 14.9805 663.15 13.8633C662.267 12.7383 661.591 11.4492 661.122 9.99609C660.653 11.5352 659.97 12.9062 659.071 14.1094C658.181 15.3047 657.138 16.2109 655.943 16.8281L654.536 15.0234C655.599 14.5156 656.54 13.7656 657.36 12.7734C658.189 11.7734 658.829 10.6406 659.282 9.375C659.743 8.10156 659.974 6.82031 659.974 5.53125V1.94531H662.224V5.53125ZM665.271 7.17188H669.958V0.1875H672.161V21.2344H669.958V8.97656H665.271V7.17188ZM692.306 21.2344H690.08V0.1875H692.306V21.2344ZM676.088 1.94531H678.314V7.33594H683.963V1.94531H686.166V16.1953H676.088V1.94531ZM683.963 14.3672V9.09375H678.314V14.3672H683.963ZM705.842 3.16406C705.842 4.27344 706.197 5.35156 706.908 6.39844C707.619 7.44531 708.565 8.33984 709.744 9.08203C710.932 9.81641 712.193 10.3047 713.529 10.5469L712.498 12.3984C711.373 12.1562 710.299 11.7578 709.275 11.2031C708.252 10.6484 707.342 9.97266 706.545 9.17578C705.756 8.37109 705.139 7.48438 704.693 6.51562C704.24 7.47656 703.615 8.35938 702.818 9.16406C702.022 9.96094 701.111 10.6367 700.088 11.1914C699.065 11.7461 697.99 12.1484 696.865 12.3984L695.881 10.5469C697.201 10.2969 698.443 9.80469 699.607 9.07031C700.779 8.32812 701.721 7.4375 702.432 6.39844C703.143 5.35156 703.498 4.27344 703.498 3.16406V1.57031H705.842V3.16406ZM695.178 16.5703H714.397V18.4219H695.178V16.5703ZM734.635 11.5312H715.417V9.82031H734.635V11.5312ZM717.69 13.0078H732.268V17.625H719.94V19.3594H732.924V20.9297H717.713V16.1484H730.065V14.6016H717.69V13.0078ZM717.831 0.726562H732.221V5.27344H720.081V6.86719H732.573V8.4375H717.878V3.79688H729.995V2.29688H717.831V0.726562ZM759.105 21.1875H756.972V0.1875H759.105V21.1875ZM740.777 15.3984C741.738 14.8203 742.554 14.0391 743.226 13.0547C743.906 12.0703 744.414 10.9766 744.75 9.77344C745.093 8.5625 745.269 7.32031 745.277 6.04688V4.35938H741.41V2.55469H751.019V4.35938H747.41V6.04688C747.41 7.26562 747.574 8.44922 747.902 9.59766C748.238 10.7461 748.734 11.7852 749.39 12.7148C750.054 13.6445 750.863 14.3828 751.816 14.9297L750.48 16.5703C749.503 15.9922 748.667 15.1953 747.972 14.1797C747.285 13.1641 746.75 12.0039 746.367 10.6992C745.984 12.1133 745.433 13.3711 744.714 14.4727C743.996 15.5742 743.136 16.4375 742.136 17.0625L740.777 15.3984ZM749.472 7.61719H752.73V0.632812H754.839V20.1328H752.73V9.44531H749.472V7.61719ZM770.812 13.3828C772.32 13.3828 773.633 13.5391 774.75 13.8516C775.867 14.1562 776.727 14.6016 777.328 15.1875C777.938 15.7734 778.242 16.4688 778.242 17.2734C778.242 18.0781 777.938 18.7695 777.328 19.3477C776.727 19.9336 775.867 20.3789 774.75 20.6836C773.633 20.9883 772.32 21.1406 770.812 21.1406C769.32 21.1406 768.016 20.9883 766.898 20.6836C765.789 20.3789 764.934 19.9336 764.332 19.3477C763.73 18.7695 763.43 18.0781 763.43 17.2734C763.43 16.4688 763.73 15.7734 764.332 15.1875C764.934 14.6016 765.789 14.1562 766.898 13.8516C768.008 13.5391 769.312 13.3828 770.812 13.3828ZM761.367 9.84375H769.031V5.90625H771.211V9.84375H780.469V11.6484H761.367V9.84375ZM763.594 1.21875H778.078V2.97656V3.59766C778.078 4.50391 778.039 5.34375 777.961 6.11719C777.891 6.88281 777.734 7.69531 777.492 8.55469L775.312 8.32031C775.562 7.36719 775.719 6.51172 775.781 5.75391C775.844 4.98828 775.875 4.07031 775.875 3H763.594V1.21875ZM765.656 17.2734C765.648 17.7188 765.852 18.1055 766.266 18.4336C766.688 18.7539 767.285 19 768.059 19.1719C768.84 19.3438 769.758 19.4297 770.812 19.4297C771.883 19.4297 772.809 19.3438 773.59 19.1719C774.371 19 774.973 18.7539 775.395 18.4336C775.816 18.1055 776.031 17.7188 776.039 17.2734C776.031 16.8203 775.816 16.4297 775.395 16.1016C774.973 15.7656 774.371 15.5117 773.59 15.3398C772.809 15.1602 771.883 15.0703 770.812 15.0703C769.758 15.0703 768.84 15.1602 768.059 15.3398C767.285 15.5117 766.688 15.7656 766.266 16.1016C765.852 16.4297 765.648 16.8203 765.656 17.2734ZM798.106 5.46094H801.153V7.33594H798.106V12.4219H795.879V0.1875H798.106V5.46094ZM781.629 2.25H786.786V0H789.012V2.25H794.145V4.03125H781.629V2.25ZM782.778 8.57812C782.778 7.84375 782.989 7.19922 783.411 6.64453C783.833 6.08203 784.43 5.65234 785.204 5.35547C785.985 5.05078 786.879 4.89844 787.887 4.89844C788.887 4.89844 789.77 5.05078 790.536 5.35547C791.309 5.65234 791.907 6.08203 792.329 6.64453C792.758 7.19922 792.973 7.84375 792.973 8.57812C792.973 9.3125 792.758 9.96094 792.329 10.5234C791.907 11.0781 791.309 11.5078 790.536 11.8125C789.77 12.1172 788.887 12.2656 787.887 12.2578C786.879 12.2656 785.985 12.1211 785.204 11.8242C784.43 11.5195 783.833 11.0859 783.411 10.5234C782.989 9.96094 782.778 9.3125 782.778 8.57812ZM784.676 13.2891H786.879V15.3281H795.879V13.2891H798.106V20.9297H784.676V13.2891ZM784.934 8.57812C784.926 8.99219 785.043 9.35156 785.286 9.65625C785.528 9.96094 785.872 10.1992 786.317 10.3711C786.77 10.5352 787.293 10.6172 787.887 10.6172C788.786 10.6094 789.508 10.4258 790.055 10.0664C790.602 9.69922 790.879 9.20312 790.887 8.57812C790.879 8.17969 790.75 7.82812 790.5 7.52344C790.25 7.21875 789.903 6.98438 789.458 6.82031C789.012 6.64844 788.5 6.5625 787.922 6.5625C787.329 6.5625 786.805 6.64453 786.352 6.80859C785.899 6.97266 785.547 7.20703 785.297 7.51172C785.047 7.81641 784.926 8.17188 784.934 8.57812ZM795.879 19.1484V17.0625H786.879V19.1484H795.879ZM819.306 21.1875H817.079V0.1875H819.306V21.1875ZM803.157 2.22656H805.36V13.9219C808.688 13.9062 811.907 13.5859 815.017 12.9609L815.321 14.8359C813.54 15.2031 811.798 15.4648 810.095 15.6211C808.392 15.7773 806.665 15.8516 804.915 15.8438H803.157V2.22656ZM838.49 8.32031H841.865V10.1484H838.49V21.2344H836.263V0.1875H838.49V8.32031ZM823.021 2.20312H832.841V4.00781H825.247V14.1562C827.107 14.1484 828.74 14.0938 830.146 13.9922C831.552 13.8906 832.974 13.7109 834.412 13.4531L834.693 15.3281C833.208 15.5938 831.751 15.7734 830.322 15.8672C828.9 15.9609 827.208 16.0078 825.247 16.0078H824.708H823.021V2.20312Z" fill="white"/>
</svg>
