<svg width="220" height="58" viewBox="0 0 220 58" fill="none" xmlns="http://www.w3.org/2000/svg">
<path d="M23.8125 12.1875C23.7917 15.875 24.2708 19.3854 25.25 22.7188C26.25 26.0521 27.8125 29.0208 29.9375 31.625C32.0625 34.2083 34.75 36.1667 38 37.5L32.6875 44.75C29.5625 43.3542 26.8958 41.3854 24.6875 38.8438C22.4792 36.3021 20.7083 33.3125 19.375 29.875C18.0625 33.7083 16.25 37.0208 13.9375 39.8125C11.625 42.6042 8.77083 44.75 5.375 46.25L0 38.75C3.35417 37.375 6.125 35.3333 8.3125 32.625C10.5 29.9167 12.1042 26.8229 13.125 23.3438C14.1458 19.8438 14.6667 16.125 14.6875 12.1875V4.25H23.8125V12.1875ZM40 0H49.0625V57.5H40V0ZM82 35.5625C86.1875 35.5625 89.8229 36 92.9062 36.875C95.9896 37.7292 98.3646 38.9792 100.031 40.625C101.698 42.25 102.542 44.2083 102.562 46.5C102.542 48.75 101.698 50.6979 100.031 52.3438C98.3646 53.9896 95.9792 55.2396 92.875 56.0938C89.7917 56.9688 86.1667 57.3958 82 57.375C77.8542 57.3958 74.2292 56.9688 71.125 56.0938C68.0417 55.2396 65.6562 53.9896 63.9688 52.3438C62.2812 50.6979 61.4375 48.75 61.4375 46.5C61.4375 44.2083 62.2708 42.25 63.9375 40.625C65.625 38.9792 68.0104 37.7292 71.0938 36.875C74.1979 36 77.8333 35.5625 82 35.5625ZM56.375 25.25H75.1875V15.5H84.0625V25.25H108.375V32.5H56.375V25.25ZM62.125 2.5H102.312V7.125V8.78125C102.312 11.3021 102.208 13.6354 102 15.7812C101.792 17.9271 101.354 20.1667 100.688 22.5L91.8125 21.6875C92.375 19.4583 92.75 17.4062 92.9375 15.5312C93.1458 13.6354 93.2604 11.625 93.2812 9.5H62.125V2.5ZM70.4375 46.5C70.4167 47.8958 71.375 48.9271 73.3125 49.5938C75.2708 50.2604 78.1667 50.6042 82 50.625C89.75 50.5833 93.625 49.2083 93.625 46.5C93.625 45.0833 92.6458 44.0208 90.6875 43.3125C88.75 42.6042 85.9375 42.25 82.25 42.25C74.3542 42.25 70.4167 43.6667 70.4375 46.5ZM163.875 36.125H142.875V44.75H134V36.125H111.438V29.125H163.875V36.125ZM117.375 40.5H126.312V49.25H158.125V56.4375H117.375V40.5ZM118.125 1.8125H126.938V7.375H148.25V1.8125H157.125V25.625H118.125V1.8125ZM148.25 18.5625V14H126.938V18.5625H148.25ZM182.312 3.9375C185.229 3.9375 187.844 4.78125 190.156 6.46875C192.469 8.13542 194.281 10.5208 195.594 13.625C196.927 16.7292 197.604 20.3333 197.625 24.4375C197.604 28.6042 196.927 32.25 195.594 35.375C194.281 38.5 192.469 40.9062 190.156 42.5938C187.844 44.2812 185.229 45.125 182.312 45.125C179.354 45.125 176.698 44.2812 174.344 42.5938C172.01 40.9062 170.188 38.5 168.875 35.375C167.562 32.25 166.917 28.6042 166.938 24.4375C166.917 20.3333 167.562 16.7292 168.875 13.625C170.188 10.5208 172.01 8.13542 174.344 6.46875C176.698 4.78125 179.354 3.9375 182.312 3.9375ZM175.688 24.4375C175.667 27.1667 175.927 29.4688 176.469 31.3438C177.01 33.1979 177.781 34.5938 178.781 35.5312C179.781 36.4688 180.958 36.9375 182.312 36.9375C184.375 36.9375 186 35.875 187.188 33.75C188.375 31.625 188.979 28.5208 189 24.4375C188.979 20.4167 188.375 17.3438 187.188 15.2188C186 13.0938 184.375 12.0417 182.312 12.0625C180.958 12.0417 179.781 12.5 178.781 13.4375C177.781 14.375 177.01 15.7812 176.469 17.6562C175.927 19.5104 175.667 21.7708 175.688 24.4375ZM203.312 0H212.312V13H220V20.4375H212.312V29.8125H220V37.125H212.312V57.375H203.312V0Z" fill="white"/>
</svg>
