<svg width="62" height="16" viewBox="0 0 62 16" fill="none" xmlns="http://www.w3.org/2000/svg">
<path d="M6.1875 3.81445C6.18164 4.79297 6.34277 5.74512 6.6709 6.6709C6.99902 7.59668 7.47363 8.41992 8.09473 9.14062C8.71582 9.86133 9.44531 10.4004 10.2832 10.7578L9.12305 12.3223C8.22656 11.9062 7.44434 11.3027 6.77637 10.5117C6.11426 9.71484 5.5957 8.78613 5.2207 7.72559C4.8457 8.86816 4.31543 9.87012 3.62988 10.7314C2.9502 11.5928 2.13867 12.2461 1.19531 12.6914L0 11.0566C0.861328 10.6875 1.6084 10.1309 2.24121 9.38672C2.87402 8.63672 3.35742 7.77832 3.69141 6.81152C4.02539 5.84473 4.19531 4.8457 4.20117 3.81445V1.2832H6.1875V3.81445ZM11.4258 0H13.3945V15.9082H11.4258V0ZM22.8867 9.93164C24.0352 9.93164 25.0312 10.0518 25.875 10.292C26.7246 10.5264 27.3779 10.8691 27.835 11.3203C28.2979 11.7656 28.5293 12.2988 28.5293 12.9199C28.5293 13.5293 28.2979 14.0537 27.835 14.4932C27.3779 14.9385 26.7246 15.2783 25.875 15.5127C25.0312 15.7529 24.0352 15.873 22.8867 15.873C21.75 15.873 20.7568 15.7529 19.9072 15.5127C19.0635 15.2783 18.4102 14.9385 17.9473 14.4932C17.4902 14.0537 17.2617 13.5293 17.2617 12.9199C17.2617 12.2988 17.4902 11.7656 17.9473 11.3203C18.4102 10.8691 19.0635 10.5264 19.9072 10.292C20.7568 10.0518 21.75 9.93164 22.8867 9.93164ZM15.7676 7.20703H21.3574V4.32422H23.291V7.20703H30.1816V8.78906H15.7676V7.20703ZM17.4199 0.755859H28.4238V2.07422V2.54004C28.4238 3.22559 28.3945 3.86133 28.3359 4.44727C28.2832 5.0332 28.166 5.64844 27.9844 6.29297L26.0508 6.11719C26.2266 5.42578 26.3408 4.7959 26.3936 4.22754C26.4463 3.65918 26.4727 3.01758 26.4727 2.30273H17.4199V0.755859ZM19.2305 12.9199C19.2246 13.3828 19.541 13.7402 20.1797 13.9922C20.8242 14.2383 21.7266 14.3613 22.8867 14.3613C24.0469 14.3613 24.9521 14.2383 25.6025 13.9922C26.2588 13.7402 26.5898 13.3828 26.5957 12.9199C26.5898 12.4395 26.2588 12.0674 25.6025 11.8037C24.9521 11.54 24.0469 11.4082 22.8867 11.4082C21.7324 11.4082 20.833 11.54 20.1885 11.8037C19.5439 12.0674 19.2246 12.4395 19.2305 12.9199ZM45.791 9.79102H39.6562V12.5332H37.7227V9.79102H31.2715V8.22656H45.791V9.79102ZM33.0293 11.1973H34.9629V13.9922H44.1914V15.5742H33.0293V11.1973ZM33.1699 0.509766H35.1035V2.30273H41.959V0.509766H43.8926V6.97852H33.1699V0.509766ZM41.959 5.43164V3.76172H35.1035V5.43164H41.959ZM51.1172 1.16016C51.9141 1.16016 52.623 1.3916 53.2441 1.85449C53.8652 2.31152 54.3516 2.96484 54.7031 3.81445C55.0605 4.6582 55.2422 5.64258 55.248 6.76758C55.2422 7.89844 55.0605 8.88867 54.7031 9.73828C54.3516 10.5879 53.8652 11.2441 53.2441 11.707C52.623 12.1641 51.9141 12.3926 51.1172 12.3926C50.3145 12.3926 49.5996 12.1641 48.9727 11.707C48.3457 11.2441 47.8564 10.5879 47.5049 9.73828C47.1592 8.88867 46.9863 7.89844 46.9863 6.76758C46.9863 5.64258 47.1592 4.6582 47.5049 3.81445C47.8564 2.96484 48.3457 2.31152 48.9727 1.85449C49.5996 1.3916 50.3145 1.16016 51.1172 1.16016ZM48.8672 6.76758C48.8672 7.56445 48.9609 8.25586 49.1484 8.8418C49.3359 9.42188 49.5996 9.86426 49.9395 10.1689C50.2793 10.4736 50.6719 10.6289 51.1172 10.6348C51.5684 10.6289 51.9609 10.4736 52.2949 10.1689C52.6348 9.86426 52.8984 9.42188 53.0859 8.8418C53.2734 8.26172 53.3672 7.57031 53.3672 6.76758C53.3672 5.9707 53.2734 5.28223 53.0859 4.70215C52.8984 4.12207 52.6348 3.67969 52.2949 3.375C51.9551 3.07031 51.5625 2.91797 51.1172 2.91797C50.6719 2.91797 50.2793 3.07324 49.9395 3.38379C49.5996 3.68848 49.3359 4.13086 49.1484 4.71094C48.9609 5.28516 48.8672 5.9707 48.8672 6.76758ZM57.3398 0H59.291V3.79688H61.6465V5.43164H59.291V8.49023H61.6465V10.0898H59.291V15.8906H57.3398V0Z" fill="#1DB8CE"/>
</svg>
