<svg width="61" height="16" viewBox="0 0 61 16" fill="none" xmlns="http://www.w3.org/2000/svg">
<path d="M6.1875 3.81445C6.18164 4.79297 6.34277 5.74512 6.6709 6.6709C6.99902 7.59668 7.47363 8.41992 8.09473 9.14062C8.71582 9.86133 9.44531 10.4004 10.2832 10.7578L9.12305 12.3223C8.22656 11.9062 7.44434 11.3027 6.77637 10.5117C6.11426 9.71484 5.5957 8.78613 5.2207 7.72559C4.8457 8.86816 4.31543 9.87012 3.62988 10.7314C2.9502 11.5928 2.13867 12.2461 1.19531 12.6914L0 11.0566C0.861328 10.6875 1.6084 10.1309 2.24121 9.38672C2.87402 8.63672 3.35742 7.77832 3.69141 6.81152C4.02539 5.84473 4.19531 4.8457 4.20117 3.81445V1.2832H6.1875V3.81445ZM11.4258 0H13.3945V15.9082H11.4258V0ZM22.8867 9.93164C24.0352 9.93164 25.0312 10.0518 25.875 10.292C26.7246 10.5264 27.3779 10.8691 27.835 11.3203C28.2979 11.7656 28.5293 12.2988 28.5293 12.9199C28.5293 13.5293 28.2979 14.0537 27.835 14.4932C27.3779 14.9385 26.7246 15.2783 25.875 15.5127C25.0312 15.7529 24.0352 15.873 22.8867 15.873C21.75 15.873 20.7568 15.7529 19.9072 15.5127C19.0635 15.2783 18.4102 14.9385 17.9473 14.4932C17.4902 14.0537 17.2617 13.5293 17.2617 12.9199C17.2617 12.2988 17.4902 11.7656 17.9473 11.3203C18.4102 10.8691 19.0635 10.5264 19.9072 10.292C20.7568 10.0518 21.75 9.93164 22.8867 9.93164ZM15.7676 7.20703H21.3574V4.32422H23.291V7.20703H30.1816V8.78906H15.7676V7.20703ZM17.4199 0.755859H28.4238V2.07422V2.54004C28.4238 3.22559 28.3945 3.86133 28.3359 4.44727C28.2832 5.0332 28.166 5.64844 27.9844 6.29297L26.0508 6.11719C26.2266 5.42578 26.3408 4.7959 26.3936 4.22754C26.4463 3.65918 26.4727 3.01758 26.4727 2.30273H17.4199V0.755859ZM19.2305 12.9199C19.2246 13.3828 19.541 13.7402 20.1797 13.9922C20.8242 14.2383 21.7266 14.3613 22.8867 14.3613C24.0469 14.3613 24.9521 14.2383 25.6025 13.9922C26.2588 13.7402 26.5898 13.3828 26.5957 12.9199C26.5898 12.4395 26.2588 12.0674 25.6025 11.8037C24.9521 11.54 24.0469 11.4082 22.8867 11.4082C21.7324 11.4082 20.833 11.54 20.1885 11.8037C19.5439 12.0674 19.2246 12.4395 19.2305 12.9199ZM36.9668 3.81445C36.9609 4.76953 37.1104 5.70117 37.415 6.60938C37.7256 7.51758 38.1709 8.33203 38.751 9.05273C39.3369 9.76758 40.0312 10.3184 40.834 10.7051L39.6387 12.2695C38.7949 11.8418 38.0625 11.2324 37.4414 10.4414C36.8262 9.65039 36.3457 8.73633 36 7.69922C35.6426 8.80664 35.1387 9.78516 34.4883 10.6348C33.8438 11.4785 33.0762 12.123 32.1855 12.5684L30.9902 11.0039C31.8164 10.6113 32.5312 10.04 33.1348 9.29004C33.7441 8.53418 34.207 7.68164 34.5234 6.73242C34.8457 5.77734 35.0098 4.80469 35.0156 3.81445V1.2832H36.9668V3.81445ZM41.7832 0H43.7344V6.22266H46.1777V7.89258H43.7344V15.8906H41.7832V0ZM52.7695 7.50586H49.2012V10.582C49.957 10.5703 50.6895 10.5352 51.3984 10.4766C52.1074 10.4121 52.8516 10.3184 53.6309 10.1953L53.7891 11.7949C52.8574 11.9531 51.9697 12.0615 51.126 12.1201C50.2881 12.1729 49.3652 12.1992 48.3574 12.1992H47.3203V5.95898H50.8711V3.19922H47.3027V1.61719H52.7695V7.50586ZM53.5605 7.92773H55.4062V5.57227H53.5605V4.00781H55.4062V0.28125H57.2695V15.082H55.4062V9.52734H53.5605V7.92773ZM58.6582 0H60.5215V15.8906H58.6582V0Z" fill="white"/>
</svg>
