<svg width="101" height="17" viewBox="0 0 101 17" fill="none" xmlns="http://www.w3.org/2000/svg">
<path d="M14.5898 10.0371H0V8.24414H6.15234V6.96094C5.19141 6.87891 4.35938 6.69727 3.65625 6.41602C2.95312 6.12891 2.41113 5.75391 2.03027 5.29102C1.64941 4.82227 1.45898 4.2832 1.45898 3.67383C1.45898 3.01172 1.69922 2.43457 2.17969 1.94238C2.66016 1.4502 3.33984 1.07227 4.21875 0.808594C5.10352 0.539062 6.12891 0.404297 7.29492 0.404297C8.45508 0.404297 9.47168 0.539062 10.3447 0.808594C11.2236 1.07227 11.9033 1.4502 12.3838 1.94238C12.8701 2.43457 13.1133 3.01172 13.1133 3.67383C13.1133 4.28906 12.9199 4.83105 12.5332 5.2998C12.1523 5.7627 11.6074 6.1377 10.8984 6.4248C10.1953 6.70605 9.36328 6.8877 8.40234 6.96973V8.24414H14.5898V10.0371ZM1.75781 11.0391H4.00781V13.9219H12.9375V15.7148H1.75781V11.0391ZM3.79688 3.67383C3.79102 4.17773 4.08984 4.55859 4.69336 4.81641C5.29688 5.07422 6.16406 5.20312 7.29492 5.20312C8.41406 5.20312 9.27539 5.07422 9.87891 4.81641C10.4883 4.55859 10.793 4.17773 10.793 3.67383C10.793 3.19922 10.4854 2.83301 9.87012 2.5752C9.26074 2.31738 8.40234 2.18555 7.29492 2.17969C6.17578 2.18555 5.31152 2.31738 4.70215 2.5752C4.09277 2.83301 3.79102 3.19922 3.79688 3.67383ZM28.1777 6.04688H30.5332V7.89258H28.1777V16.0312H25.9629V0H28.1777V6.04688ZM16.207 1.33594H23.6074V7.54102H18.457V10.4414C19.6934 10.4355 20.8125 10.3975 21.8145 10.3271C22.8164 10.2568 23.8242 10.1367 24.8379 9.9668L25.0312 11.7598C23.8828 11.9707 22.7344 12.1143 21.5859 12.1904C20.4434 12.2666 19.1074 12.3047 17.5781 12.3047H16.2246V5.76562H21.375V3.14648H16.207V1.33594ZM44.5078 11.5137H42.2578V0.0175781H44.5078V11.5137ZM31.3594 5.0625C31.3594 4.29492 31.5527 3.60352 31.9395 2.98828C32.3262 2.37305 32.8506 1.89551 33.5127 1.55566C34.1807 1.20996 34.9219 1.03711 35.7363 1.03711C36.5449 1.03711 37.2832 1.20996 37.9512 1.55566C38.6191 1.89551 39.1465 2.37305 39.5332 2.98828C39.9199 3.60352 40.1133 4.29492 40.1133 5.0625C40.1133 5.8418 39.9199 6.54199 39.5332 7.16309C39.1465 7.77832 38.6191 8.25879 37.9512 8.60449C37.2832 8.9502 36.5449 9.12305 35.7363 9.12305C34.9219 9.12305 34.1807 8.9502 33.5127 8.60449C32.8447 8.25879 32.3174 7.77832 31.9307 7.16309C31.5498 6.54199 31.3594 5.8418 31.3594 5.0625ZM33.5566 5.0625C33.5508 5.49609 33.6416 5.87402 33.8291 6.19629C34.0166 6.5127 34.2744 6.75586 34.6025 6.92578C34.9365 7.08984 35.3145 7.17188 35.7363 7.17188C36.1465 7.17188 36.5127 7.08984 36.835 6.92578C37.1631 6.75586 37.4209 6.5127 37.6084 6.19629C37.8018 5.87402 37.8984 5.49609 37.8984 5.0625C37.8984 4.64062 37.8018 4.27148 37.6084 3.95508C37.4209 3.63867 37.1631 3.39844 36.835 3.23438C36.5068 3.06445 36.1406 2.98242 35.7363 2.98828C35.3145 2.98242 34.9365 3.06445 34.6025 3.23438C34.2744 3.39844 34.0166 3.63867 33.8291 3.95508C33.6416 4.27148 33.5508 4.64062 33.5566 5.0625ZM33.7852 10.3535H36.0527V13.9219H44.9297V15.7148H33.7852V10.3535ZM65.4434 9.68555H59.4141V12.4453H57.1992V9.68555H50.8008V7.91016H65.4434V9.68555ZM52.5234 11.0566H54.7559V13.9219H63.8262V15.7148H52.5234V11.0566ZM52.6289 0.703125H63.5625V6.5918H52.6289V0.703125ZM61.3652 4.85156V2.44336H54.8262V4.85156H61.3652ZM71.5605 1.07227C72.3984 1.07227 73.1543 1.23926 73.8281 1.57324C74.502 1.90723 75.0293 2.37305 75.4102 2.9707C75.7969 3.5625 75.9902 4.23633 75.9902 4.99219C75.9902 5.74805 75.7969 6.4248 75.4102 7.02246C75.0293 7.62012 74.502 8.08887 73.8281 8.42871C73.1543 8.7627 72.3984 8.92969 71.5605 8.92969C70.7285 8.92969 69.9727 8.7627 69.293 8.42871C68.6133 8.08887 68.0801 7.62012 67.6934 7.02246C67.3066 6.4248 67.1133 5.74805 67.1133 4.99219C67.1133 4.24219 67.3066 3.56836 67.6934 2.9707C68.0801 2.37305 68.6133 1.90723 69.293 1.57324C69.9727 1.23926 70.7285 1.07227 71.5605 1.07227ZM67.1045 10.9336C68.8623 10.9336 70.541 10.8984 72.1406 10.8281C73.7461 10.7578 75.2578 10.623 76.6758 10.4238L76.8516 12.041C75.2812 12.3457 73.6846 12.542 72.0615 12.6299C70.4443 12.7178 68.6602 12.7617 66.709 12.7617L66.4453 10.9336H67.1045ZM69.3457 4.99219C69.3457 5.40234 69.4395 5.75977 69.627 6.06445C69.8203 6.36328 70.084 6.5918 70.418 6.75C70.7578 6.9082 71.1387 6.98438 71.5605 6.97852C71.9883 6.98438 72.3721 6.9082 72.7119 6.75C73.0518 6.5918 73.3184 6.36328 73.5117 6.06445C73.7109 5.75977 73.8105 5.40234 73.8105 4.99219C73.8105 4.58789 73.7109 4.23633 73.5117 3.9375C73.3184 3.63281 73.0518 3.40137 72.7119 3.24316C72.3721 3.08496 71.9883 3.00586 71.5605 3.00586C71.1387 3.00586 70.7578 3.08496 70.418 3.24316C70.084 3.40137 69.8203 3.63281 69.627 3.9375C69.4395 4.23633 69.3457 4.58789 69.3457 4.99219ZM77.5898 0H79.8223V16.0312H77.5898V0ZM92.8652 13.6406L96.6621 9.84375H87.7324V7.76953H96.6621L92.8652 3.99023L94.2891 2.58398L100.529 8.80664L94.2891 15.0469L92.8652 13.6406Z" fill="white"/>
</svg>
