<svg width="61" height="16" viewBox="0 0 61 16" fill="none" xmlns="http://www.w3.org/2000/svg">
<path d="M13.166 15.8906H11.2148V0H13.166V15.8906ZM0.711914 11.4785C2.24121 11.4668 3.4043 11.4492 4.20117 11.4258V9.9668C3.60938 9.87305 3.09082 9.69434 2.64551 9.43066C2.2002 9.16699 1.85449 8.83594 1.6084 8.4375C1.36816 8.0332 1.24805 7.58203 1.24805 7.08398C1.24805 6.49219 1.41211 5.9707 1.74023 5.51953C2.06836 5.06836 2.52832 4.71973 3.12012 4.47363C3.71191 4.22168 4.38867 4.0957 5.15039 4.0957C5.92383 4.0957 6.60938 4.22168 7.20703 4.47363C7.80469 4.71973 8.27051 5.06836 8.60449 5.51953C8.93848 5.9707 9.10547 6.49219 9.10547 7.08398C9.10547 7.57617 8.98242 8.02441 8.73633 8.42871C8.49609 8.82715 8.15332 9.1582 7.70801 9.42188C7.2627 9.68555 6.74414 9.86426 6.15234 9.95801V11.3555C7.62891 11.291 9.00586 11.1738 10.2832 11.0039L10.4238 12.4629C8.87109 12.7266 7.26855 12.8994 5.61621 12.9814C3.96973 13.0576 2.19141 13.0957 0.28125 13.0957L0 11.4785H0.711914ZM0.333984 1.82812H4.20117V0.0527344H6.15234V1.82812H10.002V3.375H0.333984V1.82812ZM3.11133 7.08398C3.10547 7.5293 3.28711 7.88086 3.65625 8.13867C4.02539 8.39648 4.51465 8.52539 5.12402 8.52539C5.7627 8.52539 6.27246 8.39941 6.65332 8.14746C7.04004 7.88965 7.23047 7.53516 7.22461 7.08398C7.23047 6.62695 7.04297 6.2666 6.66211 6.00293C6.28125 5.7334 5.77734 5.5957 5.15039 5.58984C4.53516 5.5957 4.04004 5.7334 3.66504 6.00293C3.29004 6.2666 3.10547 6.62695 3.11133 7.08398ZM21.1641 3.81445C21.1582 4.76953 21.3076 5.70117 21.6123 6.60938C21.9229 7.51758 22.3682 8.33203 22.9482 9.05273C23.5342 9.76758 24.2285 10.3184 25.0312 10.7051L23.8359 12.2695C22.9922 11.8418 22.2598 11.2324 21.6387 10.4414C21.0234 9.65039 20.543 8.73633 20.1973 7.69922C19.8398 8.80664 19.3359 9.78516 18.6855 10.6348C18.041 11.4785 17.2734 12.123 16.3828 12.5684L15.1875 11.0039C16.0137 10.6113 16.7285 10.04 17.332 9.29004C17.9414 8.53418 18.4043 7.68164 18.7207 6.73242C19.043 5.77734 19.207 4.80469 19.2129 3.81445V1.2832H21.1641V3.81445ZM25.9805 0H27.9316V6.22266H30.375V7.89258H27.9316V15.8906H25.9805V0ZM45.5625 13.9219H31.043V12.3398H37.2656V8.66602H39.1992V12.3398H45.5625V13.9219ZM31.4648 7.43555C32.5488 7.25977 33.5244 6.90527 34.3916 6.37207C35.2588 5.83301 35.9385 5.18848 36.4307 4.43848C36.9287 3.68848 37.1777 2.91797 37.1777 2.12695V0.966797H39.252V2.12695C39.252 2.92383 39.498 3.69727 39.9902 4.44727C40.4883 5.19727 41.1738 5.83887 42.0469 6.37207C42.9258 6.90527 43.9102 7.25977 45 7.43555L44.1562 9.05273C42.8145 8.80078 41.6191 8.31152 40.5703 7.58496C39.5273 6.85254 38.7422 5.96484 38.2148 4.92188C37.6875 5.96484 36.9023 6.85254 35.8594 7.58496C34.8223 8.31152 33.6387 8.80078 32.3086 9.05273L31.4648 7.43555ZM60.2402 15.8906H58.3594V7.73438H56.6543V15.1523H54.8262V0.421875H56.6543V6.15234H58.3594V0H60.2402V15.8906ZM46.4766 11.2148C48.1172 10.2656 49.3389 9.16699 50.1416 7.91895C50.9502 6.66504 51.4277 5.21484 51.5742 3.56836H47.2148V2.00391H53.4727C53.4727 3.52148 53.291 4.91309 52.9277 6.17871C52.5645 7.44434 51.9492 8.61914 51.082 9.70312C50.2148 10.7812 49.0547 11.7363 47.6016 12.5684L46.4766 11.2148Z" fill="white"/>
</svg>
